<?xml version="1.0" encoding="UTF-8"?><svg id="Layer_2" xmlns="http://www.w3.org/2000/svg" viewBox="0 0 623.9 654.75"><defs><style>.cls-1{fill:#f4f2ef;}</style></defs><g id="Layer_1-2"><path class="cls-1" d="M78.89,267.26c-.34.58-.84,1.01-1.13,1.53-.32.58-.79,1.04-1.06,1.59-.28.59-.8,1.07-1.01,1.65s-.58,1.18-.73,1.8c-.14.57-.54.95-.76,1.47s-.29,1.08-.57,1.58c-.29.52.38,1.57.09,2.05-.31.52-.67,1-.93,1.51-.32.62-.6,1-.64,1.48-.06.58-.28,1.16-.24,1.83.04.6,0,1.23.06,1.88.08.84.11,1.7.15,2.58s.6,1.75.51,2.64c-.07.72.47,1.6.78,2.72.19.67.04,1.51.19,2.24s-.33,1.52-.3,2.26.09,1.42-.06,2.16c-.12.77-.41,1.49-.55,2.23-.13.7.45,1.47.36,2.1-.1.7.15,1.28.16,1.92,0,.68-1.56,1.6-1.36,2.24.23.72,1.75.94,2.08,1.61s.41,1.44.81,2.07.35,1.6.8,2.19,1.59.65,2.07,1.21c.05.06-.12.21-.08.27s-.59.51-.55.57c.59.84,1.86.59,2.33.93.63.44,1.1.43,1.98.61.3.06.42.03.61.03.37,0,.22-.24,1.77-1.56.29-.25.66.18.96-.06.52-.44,1.27-.56,1.74-.99s1.04-.84,1.47-1.32.22-1.4.59-1.98c.34-.54,1.7-.33,2.07-.8s-.08-1.67.31-2.13c.42-.5.48-1.23.84-1.7.42-.55,1.83-.41,2.05-.91.26-.61.65-1.19.9-1.82s.67-1.19.9-1.82-.27-1.52-.06-2.16.5-1.25.7-1.88c.16-.51.19-1.12.24-1.76.04-.56-.27-1.16-.25-1.77.02-.75.88-1.49.95-2.31.07-.76-.95-1.75-.75-2.53.19-.75.63-1.46.89-2.16s.72-1.37,1-2.05c.25-.6.46-1.18.67-1.75.23-.61,1.33-.97,1.46-1.55.13-.61-.25-1.33-.12-1.93s-.65-1.42-.51-2.02.78-1.1.92-1.7c.31-1.35.29-1.35.6-2.71.14-.6.69-1.1.84-1.69s-.02-1.28.14-1.87-.26-1.36-.09-1.94c.27-.95,1.1-1.73,1.35-2.68.16-.58-.08-1.32.12-1.87s.44-1.15.66-1.69.62-1.04.86-1.58c.22-.51.45-.99.66-1.47.21-.51,1.59-.57,1.76-1.07.27-.78.2-2.08.28-3.24.05-.63-.72-1.36-.64-2.03.08-.64-.33-1.46-.17-2.11s1.53-.88,1.81-1.49c.04-.09-1.03-.64-.99-.72s.86.35.91.27c.35-.57,1.21-.64,1.63-1.11.44-.5.79-.93,1.27-1.35.5-.44.91-.92,1.39-1.31.92-.73,1.32-1.94,1.72-2.56.36-.55.51-1.25.88-1.79s.47-1.29.85-1.81,1.39-.63,1.76-1.15c.5-.69.37-1.82.85-2.51.35-.5.57-1.01.9-1.55s1.43-.56,1.75-1.1c.39-.67.28-1.66.7-2.34s1.61-.8,2.09-1.44c.37-.5-.02-1.52.32-2.06s.96-.85,1.3-1.4c.4-.64,1.22-1.02,1.65-1.68s.04-1.84.51-2.46c.5-.67,1.36-1.09,1.92-1.64.61-.59,1.26-1.12,1.84-1.62.46-.4.76-.93,1.17-1.32.46-.43.89-.75,1.22-1.19.35-.47,1.62-.41,1.95-.97.3-.52.66-1.06.96-1.62.36-.66.15-1.64.55-2.31s1.06-1.07,1.53-1.71c.04-.05-.83-.71-.79-.77.44-.57.69-1.26,1.12-1.83.37-.48,1.71-.22,2.08-.71s.18-1.42.57-1.89,1.05-.71,1.47-1.16.39-1.34.83-1.77c.45-.44,1.69-.09,2.12-.55s.58-1.16,1.02-1.64c.41-.44,1.07-.65,1.49-1.1s-.01-1.71.42-2.14,1.44-.25,1.9-.66c.55-.49.68-1.49,1.24-1.92s1.01-1.11,1.59-1.52c.62-.44,1.8-.06,2.36-.5.61-.47,1.36-.79,1.85-1.29.4-.41-.31-1.1.09-1.52.56-.58,1.29-.97,1.82-1.54s1.52-.79,2.01-1.4,1.04-1.25,1.47-1.91c.08-.12-.8-.76-.72-.88s.67.33.77.22c.43-.48.85-.96,1.32-1.35s.98-.82,1.49-1.16c.54-.36.83-1.09,1.34-1.41.5-.31.99-.56,1.44-.86.5-.34,1.35-.13,1.73-.5.44-.43.15-1.93.52-2.99.23-.67.89-1.24,1.19-1.93s.71-1.31,1.13-1.93,1.28-.73,1.86-1.23c.46-.4,1.11-.45,1.59-.8s.23-1.83.73-2.14,1.32-.16,1.84-.46c.54-.32,1.53.12,2.02-.19.53-.33.98-.89,1.43-1.24.47-.37.31-1.58.8-1.91s1.44.02,1.93-.3,1.13-.42,1.63-.73c.53-.32.76-1.1,1.26-1.41s1.23-.37,1.72-.71c.48-.34.72-1.01,1.21-1.32s.94-.71,1.44-1,1.34-.02,1.84-.3c.54-.31,1.08-.61,1.59-.91s1.07-.64,1.57-.97c.49-.32.53-1.37,1.02-1.64s1.13-.37,1.64-.61,1.45.39,1.97.16c.58-.26.87-1.14,1.41-1.4.57-.28,1.41-.12,1.92-.43.4-.24-.03-1.66.4-2.12.35-.38.98-.54,1.35-.98.4-.48.84-.98,1.3-1.47.43-.47.53-1.4,1.04-1.83s1.64.01,2.23-.32c.76-.43,1.14-1.62,1.91-1.96s1.83-.11,2.61-.41c.61-.24,1.36-.08,1.92-.32.6-.25,1.39-.17,1.93-.46.77-.41.99-1.91,1.76-2.21s1.55-.8,2.33-1.08c.61-.22,1.77,1.07,2.34.84.61-.24,1.08-.89,1.62-1.17.78-.39,1.58-.51,2.36-.8s1.52-.76,2.31-1.01c.62-.2.97-1.15,1.54-1.36.62-.22,1.35-.06,1.9-.32.47-.23,1.2-.26,1.69-.66.43-.35.25-1.45.7-1.85.43-.39.89-.83,1.38-1.23.46-.38,1.29-.33,1.81-.68s.73-1.25,1.29-1.52c.05-.02.21.29.27.27.89-.39,1.55-1.24,2.5-1.77.52-.29,1.75.75,2.29.47s.61-1.47,1.16-1.71,1.12-.51,1.7-.7c.85-.27,1.87-.71,2.91-.71s2.06.4,2.94.51c.73.1,1.38,1.13,1.94,1.13.38,0,.59-.61.69-.65.62-.21,1.97-.58,2.81-1.41.56-.55.97-1.26,1.63-1.81.62-.51,1.15-1.02,1.91-1.41.07-.03-.28-.75-.21-.79.87-.4,1.89-.55,2.77-.89.58-.23,1.09-.66,1.68-.91.61-.26,1.18-.48,1.7-.77.65-.36,1.94-.01,2.24-.43.39-.54.06-1.6.35-2.22s.53-1.26.72-1.89c.21-.7.73-1.31.81-1.93.1-.83.18-1.69.03-2.18-.13-.41-.43-1.32-1.02-1.94-.41-.43-1.1-.81-1.69-1.23-.51-.36-1.07-.92-1.69-1.22-.58-.27-1.46-.02-2.12-.19-.18-.02-.4.05-.61.05-.58,0-1.28-.37-1.94-.27-.59.09-1.08.96-1.72,1.09-.74.15-1.44.72-2.2.84s-1.6.06-2.37.07c-.61.01-1.16,0-1.86.22-.61.19-1.18.54-1.83.78-.71.27-1.67,0-2.47.25-.74.23-1.45.79-2.26.91-.69.11-1.36.5-2.02.56s-1.44-.74-2.11-.7c-.81.05-1.6.09-2.36.17-.81.08-1.64.14-2.37.33-.82.22-1.52.83-2.32.93s-1.67-.05-2.48,0c-.72.05-1.47-.39-2.13-.31-.73.09-1.35.77-1.96.97-.72.24-1.63.11-2.36.44-.69.31-1.05,1.4-1.77,1.75-.66.31-1.26.79-1.94,1.1s-1.59.03-2.29.3c-.78.3-1.63.28-2.41.51s-1.53.64-2.31.84c-.72.19-1.41.39-2.08.58-.71.21-1.64-.16-2.29.1-.45.18-.59,1.31-1.1,1.74-.42.35-1.32.25-1.76.67-.48.45-1.14.69-1.68,1.14s-.49,1.53-1.08,1.9-1.12.84-1.78,1.09c-.07.03-.33-.74-.41-.71s-.05.01-.12.04c-.53.15-.96.4-1.56.47-.53.06-1.04.07-1.66.07s-1.19.13-1.79.1c-.5-.02-1,.7-1.49.7-.78,0-1.45-.69-1.79-.55-.4.16-1.1.4-1.55.83-.36.34.21,1.67-.17,2.08-.55.59-1.88.5-2.55,1.1-.62.55-1.44.69-2.22,1.12-.6.33-.94.99-1.57,1.16s-1.3.1-1.95.16-1.32.17-1.96.19c-.95.04-2.2.6-2.6.86-.32.22-.4.7-.74,1.22-.27.41-.71.75-.98,1.21-.3.5-.65,1.02-1,1.55-.33.5-1.17.63-1.57,1.1s-1.09.44-1.58.84c-.73.59-.47,2.44-1.21,3.01-.48.37-1.62-.13-2.09.24s-.29,1.54-.74,1.92-1.39.2-1.83.6c-.38.35-.28,1.13-.64,1.65-.31.45-.81.8-1.13,1.31-.4.66-.81,1.41-1.3,2.11-.46.65-1.07,1.26-1.67,1.86-.5.5-1.26.67-1.84,1.01-.6.36-1.43.06-2.06.3s-1.07,1.13-1.7,1.32c-.94.29-1.75,1.1-2.1,1.47-.41.43-1.57.27-1.95.81-.35.5-.28,1.31-.63,1.85-.42.65-.33,1.67-.79,2.33s-1.22,1.09-1.76,1.69c-.49.54-.95,1.13-1.45,1.65s-1.95.13-2.45.64c-.49.49-.03,1.89-.49,2.37s-1.29.64-1.74,1.14c-.56.63-.76,1.59-1.33,2.19s-1.16,1.21-1.74,1.82c-.39.41-1.21.41-1.59.82s-.34,1.23-.72,1.64c-.09.09-.33-.11-.42-.02s-.47-.36-.57-.28c-.49.4-.15,2.03-.61,3.09-.24.55-.98.92-1.27,1.49-.28.54-1.31.6-1.68,1.12-.35.5.43,2.01-.05,2.45-.48.45-1.79-.17-2.32.15-.56.33-.73,1.42-1.3,1.66-.61.25-1.12.79-1.7,1-1.04.37-3.01-.47-3.44-.02-.47.49-.29,1.62-.73,2.19-.42.54-1.24.8-1.67,1.38-.4.54-1.01.92-1.44,1.47s-.13,1.64-.59,2.16c-.57.65-.92,1.65-1.56,2.16-.68.55-2,.23-2.65.68-.5.34-1.09.55-1.53.88-.5.38-.27,1.44-.6,1.84-.36.43-.88.71-1.2,1.26-.3.49-1.48.52-1.78,1.06-.38.7-.78,1.36-1.21,2.06s.08,1.99-.45,2.63c-.51.62-1.72.57-2.26,1.11s-1.29.91-1.84,1.44c-.47.45-.31,1.51-.75,1.95-.45.46-.57,1.17-.96,1.65-.28.33-1.6.19-1.84.73-.2.45-.26,1.03-.45,1.54-.22.57.1,1.36-.16,1.96-.25.56-.87.92-1.21,1.47s-.06,1.48-.49,1.97c-.36.41-1.25.44-1.59.92-.32.45-.4,1.09-.73,1.58-.42.64-1.2,1.02-1.67,1.67-.44.61-.99,1.14-1.54,1.74-.3.48.32,1.63,0,2.07s-1.19.52-1.51.96c-.42.57-1.26.83-1.64,1.39s.32,1.78.02,2.4c-.27.55-.4,1.11-.62,1.74-.2.58-.58,1.12-.77,1.75-.22.69-1.14,1.17-1.39,1.88s-.45,1.37-.76,2.06c-.31.68-.61,1.27-1.05,1.8-.47.55-1.2.75-1.74,1.19s-1.07.95-1.63,1.34c-.76.53-2.09,1.45-2.28,1.86-.21.47.2,1.24.05,1.82-.13.52.14,1.14.02,1.71-.11.55-.03,1.19-.17,1.78-.14.55-.48,1.13-.67,1.7s-.33,1.21-.6,1.75c-.28.56-1.2.79-1.51,1.3s-.66,1.04-1,1.54-.86.9-1.21,1.39c-.31.44-.38,1.02-.66,1.43-.3.44-1.24.47-1.5.9-.26.43-.06,1.17-.29,1.66-.22.45-.91.71-1.14,1.2-.29.62-.67,1.18-.99,1.81s.06,1.57-.32,2.17c.18,1.01.35,2.18-.18,3.06Z"/><path class="cls-1" d="M354.05,483.5c.33-.05.37.86.71.86.19,0,.15-1.01.34-1.02.33-.13.92.71,1.52.62.4-.06.93-.85,1.5-1.26.45-.32.31-1.48.75-1.83.49-.39,1.47-.25,2.01-.65s1.13-.67,1.72-.98,1.38.09,2.02-.11c.53-.16.83-1.46,1.43-1.53.53-.06,1.17.29,1.79.29.76,0,1.52.4,2.29.45.63.04,1.26.22,1.87.22.76,0,1.54.15,1.9-.01.38-.17,1.03-.73,1.49-1.26.35-.41.3-1.23.66-1.69.39-.51.85-1,1.3-1.52s.49-1.4,1-1.85,1.32-.51,1.91-.85c.65-.38,1.58-.32,2.21-.73s.62-1.75,1.23-2.19,1.19-.89,1.81-1.33c.55-.4,1.36-.44,1.92-.84.53-.38,1.01-.92,1.57-1.19s1.29-.32,1.88-.52c.62-.21,1.38.08,1.97-.09.6-.17,1.31-.05,1.84-.23.66-.23.76-1.36,1.14-1.68.35-.3.19-.48.54-.78.52-.43,1.31-.55,1.82-.99s1.57-.26,2.08-.71.39-1.6.89-2.06.63-1.29,1.11-1.76c.57-.57,1.71-.59,2.25-1.26.5-.63,1-1.3,1.51-1.98.4-.54.4-1.4.83-1.95s.9-1.06,1.35-1.58c.16-.18.39-.02.57-.18s-.03-.53.18-.66c.67-.43,1.39-.87,2.07-1.19s1.48-.57,2.18-.86c.61-.26,1.06-.76,1.61-1.02.62-.29,1.59.23,2.07-.12.44-.32.97-.71,1.4-1.22.37-.44,1-.75,1.39-1.26.46-.61.38-1.7.93-2.34.51-.59.7-1.67,1.33-2.2.45-.38,1.88.15,2.3-.39.37-.48.17-1.43.54-1.97.42-.6.68-1.34,1.14-1.94s1.59-.52,2.14-1.06c.45-.45.48-1.31.98-1.64s.85-1.09,1.39-1.36c.57-.28,1.1-.7,1.64-.93,1.1-.47,2.92.02,3.33-.48.28-.35.77-.97.98-1.58.16-.49-.76-1.37-.61-1.93.21-.78,1.49-1.26,1.8-2.09.29-.77-.57-2.15-.09-2.89.33-.51,1.71-.3,2.05-.77s.43-1.17.78-1.63c.47-.61.83-1.29,1.24-1.88.44-.64,1.12-1.16,1.42-1.81.04-.09-.26-.23-.21-.33s-.05-.15,0-.24c.31-.5,1.3-.77,1.55-1.39.23-.56-.54-1.54-.32-2.16.27-.77,1.35-1.23,1.68-2.01s-.02-1.81.42-2.54c.41-.69.74-1.45,1.2-2.06s1.37-.94,1.85-1.53c.43-.53.39-1.4.77-1.91.42-.55.67-1.08.98-1.64.39-.71,1.39-1.04,1.83-1.66s.95-1.26,1.42-1.87c.42-.54.58-1.25.95-1.77.41-.57.52-1.21.8-1.77.38-.75,1-1.38,1.34-2.18s.97-1.42,1.29-2.24c.22-.54.97-.85,1.19-1.39s.43-1.05.67-1.58c.34-.78-.81-2.16-.51-2.98s.93-1.46,1.21-2.3c.18-.53.13-1.15.31-1.69s.98-.86,1.17-1.38c.19-.5.87-1.04.93-1.69.06-.56-1.19-1.26-1.17-1.88.03-.79.5-1.64.6-2.51.09-.81.4-1.64.64-2.47.2-.68.88-1.11,1.22-1.68s.79-1.07,1.22-1.58,1.01-.93,1.47-1.41c.72-.76.86-2.24.98-2.77.13-.57-.48-1.46-.82-2.54-.18-.58,1.02-1.59.86-2.22-.15-.6-.61-1.1-.67-1.74s-.74-1.24-.67-1.89c0-.67.77-1.31.82-2.01s-1.12-1.48-1.04-2.17,1.48-1.18,1.59-1.87.4-1.3.54-1.98-1.02-1.63-.86-2.3c.16-.67,1.45-1.05,1.63-1.72s.63-1.24.82-1.9.05-1.42.24-2.07-.5-1.59-.3-2.24c.21-.7.7-.56.91-1.26.21-.71.58-1.32.93-1.93s.79-1.2,1.24-1.74.47-1.54.94-2.05c.35-.37,1.61-.05,1.97-.47.45-.54.14-1.45.2-1.78.08-.49-.66-.86-.93-1.62-.21-.59.12-1.42-.14-2.04-.29-.7-.75-1.41-1.02-2.19s.14-1.69,0-2.47c-.12-.67-1.2-1.32-1.17-1.96s.12-1.45.24-2.08c.13-.67.76-1.23.92-1.85.28-1.08.43-2.13.3-2.77-.11-.52.33-1.24.07-1.83-.22-.51-.94-.83-1.21-1.37-.35-.72-.55-1.59-.89-2.41-.31-.76-1.29-1.44-1.48-2.29-.23-1.02,1.42-1.39,1.2-2.41-.15-.68-.72-1.28-.87-1.98s-1.56-1.09-1.72-1.78.21-1.5.04-2.18c-.19-.75.46-1.64.35-2.38s-.99-1.41-1.08-2.14c-.08-.68-.04-1.34-.13-1.98-.1-.68.45-1.5.28-2.11-.25-.9-.43-1.83-.68-2.74-.16-.6-.47-1.17-.64-1.77s-.22-1.25-.39-1.85-.94-1.04-1.12-1.63c-.2-.62-.54-1.2-.84-1.84-.28-.59-1.01-.98-1.33-1.6-.33-.65.41-1.83.09-2.51s-1.53-.94-1.79-1.65c-.19-.53-.19-1.15-.54-1.72-.31-.5-1.1-.7-1.45-1.23-.43-.63.07-1.91-.37-2.63-.4-.67-.96-1.24-1.27-2-.33-.81-1.37-1.41-1.54-2.22-.18-.86-.53-1.72-.64-2.52-.08-.6,1.18-1.4,1.08-1.94-.12-.63-.87-1.06-1.09-1.52-.3-.62.07-1.68-.33-2.31-.37-.58-1.25-.88-1.66-1.49-.38-.56-1.08-.92-1.46-1.51s-1.03-1-1.37-1.61c-.4-.73-.95-1.5-1.22-2.26-.28-.8.67-1.98.46-2.72-.17-.61-1.07-.98-1.25-1.53-.21-.63.34-1.63.05-2.08-.33-.52-2.26-.35-3.25-.91-.54-.31-.69-1.34-1.25-1.7s-1.17-.53-1.67-.97-.39-1.26-.79-1.8c-.6-.82-1.5-1.41-2.07-2.24-.5-.73-.97-1.46-1.46-2.15s-1.41-1.11-1.96-1.76c-.46-.53-.26-1.54-.65-2.08s-1.67-.52-2.05-1.08c-.4-.6-1-1-1.4-1.54-.43-.59-.38-1.47-.86-1.93-.39-.39-.48-1.35-1.04-1.69-.49-.3-1.58.37-2.13.07-.62-.33-1.35-.61-2.01-1.01-.61-.37-1.16-.97-1.75-1.46-.51-.34-1.3-.45-1.71-.85-.43-.42-.16-1.53-.52-1.98-.38-.48-.29-1.27-.63-1.73-.67-.92-2.04-1.11-2.66-1.55-.46-.33-.99-.53-1.51-.83-.49-.29-.79-.93-1.31-1.22-.67-.38-1.43-.64-2.11-1.06s-1.68-.36-2.32-.83c-.66-.48-1.03-1.39-1.58-1.92s-1.14-1.14-1.66-1.71c-.41-.44-.37-1.29-.76-1.68-.43-.44-1.47-.05-1.91-.37-.48-.35-.27-1.84-.85-2.15-.53-.28-1.22-.35-1.8-.63-.64-.32-1.19-.81-1.84-1.17s-1.12-.8-1.74-1.22c-.45-.3-1.62.56-2.2.32-.52-.22-1.11-.27-1.68-.48-.67-.24-1.41-.52-2.13-.82-.67-.28-.79-1.73-1.45-2.13-.55-.33-.81-.79-1.25-1.21s-1.51-.26-1.89-.74c-.4-.5-.41-1.27-.76-1.76-.59-.83-1.5-1.84-1.97-2.07-.11-.05-.47-.25-1.19-.25-.51,0-1.03.45-1.56.48-.69.05-1.4.06-2.07.06-1.13,0-2.14-.01-3.02-.27-.64-.09-1.32-.11-1.89-.31-.6-.21-.74-1.45-1.28-1.72-.58-.29-1.08-.6-1.6-.89-1.03-.58-2.18-1.34-2.97-1.49-.47-.09-1.19-.13-1.93-.13-.52,0-1.06.19-1.58.21-.6.02-1.18.88-1.78.88-.51,0-1.21.36-1.93.28-.58-.06-1.11-.89-1.76-1.05-.55-.14-1.16-.35-1.78-.42-.57-.06-1.19-.03-1.81-.08-.84-.07-1.69-.09-2.56-.2s-1.69-.13-2.54-.37c-.65-.18-1.39-.16-1.96-.46-.6-.31-1.11-.79-1.63-1.16-.55-.4-.55-1.46-1.04-1.86-.41-.33-.96-.56-1.36-.85-.5-.36-1.49.58-1.88.47-.8-.22-1.24-1.88-2.06-2.07s-1.61-.44-2.44-.62c-.57-.12-1.41.99-1.98.86s-1.2-.07-1.76-.2c-.69-.17-1.2-1.05-1.88-1.2s-1.57.53-2.24.38-1.1-1.67-1.78-1.8-1.36-.51-2.04-.63c-.77-.14-1.66.22-2.45.12s-1.6.02-2.39-.06-1.66.7-2.45.63c-.61-.05-.54-.84-1.15-.89-.36-.03-.74.66-1.1.66-.56,0-1.08.15-1.68.2-.56.05-1.24-1.01-1.84-.95-.57.06-1.13.18-1.72.23s-1.14.14-1.73.16c-.59.08-1.14.61-1.78.79-.58.16-1.28.02-1.9.21-.75.23-1.36,1.03-2.15,1.24s-1.7-.42-2.51-.3c-.63.09-1.21,1.38-1.92,1.38-.54,0-1.12-.33-1.64-.37s-1.11.14-1.63.08c-.89-.09-1.66-1.06-2.42-1.06-.43,0-.76.37-1.09.43-.5.09-1.09-.72-1.65-.68-.49.03-.97.76-1.54.76-.6,0-1.21-.1-1.82-.12-.54-.02-1.08.24-1.62.24-.91,0-1.63-.3-2.21-.18-.63.13-1.01,1.15-1.68,1.38-.62.21-1.27.34-1.92.59-.72.27-1.7-.11-2.45.15s-1.55.12-2.33.3c-.66.15-1.34.45-2.02.69-.64.23-1.29.5-1.96.76-.69.27-1.09,1.36-1.81,1.62s-1.39.74-2.13.93c-.84.22-2.1-1.14-2.94-.92-.64.17-.87,1.93-1.52,2.1s-1.52-.48-2.16-.3-1.4.02-2.04.22c-.82.25-1.42,1.53-2.23,1.65-.86.12-1.86-1.18-2.65-1.11-.65.06-1.33.05-1.92.13-.67.09-1.05,1.35-1.6,1.54-.56.19-1.56.84-2.29,1.66-.44.5-.86,1.08-1.36,1.58s-.99,1.01-1.56,1.42-1.56-.14-2.22.12c-.78.3-1.41.7-2.18.89-.8.19-1.4,1.23-2.18,1.38-.65.12-1.27.23-1.86.37-.66.15-1.3.09-1.84.33-.75.33-1.58.38-2.33.6s-1.66-.06-2.42.13c-.66.16-1.24.62-1.84.8-.67.2-1.3.49-1.85.76-.58.29-.65,1.41-1.24,1.83-.54.38-1.68-.03-2.24.4-.59.46-1.22.87-1.85,1.32s-1.17.92-1.85,1.3c-.8.45-1.46,1.14-2.27,1.58-.58.32-1.07.76-1.63,1.07s-.94.96-1.49,1.29-1.85-.54-2.4-.19c-.6.38-.71,1.53-1.31,1.93s-1.2.75-1.79,1.16-.79,1.33-1.38,1.75-1.91-.23-2.5.2c-.43.31-.57,1.19-.98,1.71-.35.44-.66.97-1.02,1.47-.47.66-1.31,1.06-1.89,1.75-.53.63-.71,1.59-1.39,2.15-.49.4-.9.88-1.39,1.25s-1.05.69-1.54,1.05c-.65.48-.85,1.51-1.46,1.98s-2.03.05-2.6.58c-.56.53-.93,1.19-1.52,1.63s-1.46.54-2.06.95c-.57.4-1.22.71-1.74,1.1-.57.43-.4,1.68-.84,2.15-.4.43-1.09.57-1.54.93s-.85.82-1.33,1.13c-.5.34-.72,1.09-1.19,1.38-.51.32-1.36.07-1.81.38-.52.36-1,.76-1.34,1.13-.4.79-.89,1.69-1.27,2.68-.2.53-1.01.83-1.24,1.39-.22.53.5,1.48.24,2.02s-.99.78-1.3,1.29c-.4.66-1.03,1.09-1.48,1.68s.18,2.07-.29,2.65c-.4.5-1.43.47-1.8.95-.39.51-.77,1-1.09,1.52-.27.44.08,1.81.03,2.77-.04.65-.72,1.27-.8,1.95s-.15,1.28-.34,1.94.41,1.68.06,2.28c-.36.62-.83,1.22-1.23,1.78s-1.5.67-1.91,1.21c-.41.54-1.02.91-1.38,1.43-.39.56-.54,1.27-.83,1.83-.29.57-1.1.67-1.48,1.14s.06,1.71-.38,2.13c-.46.44-1.66.05-2.11.44-.84.73-.96,2.23-1.18,2.78-.27.66-.14,1.39-.3,2.19-.14.72-1.17,1.31-1.29,2.09-.09.57.23,1.21.13,1.79s-.11,1.18-.24,1.74c-.14.58-.12,1.77.25,2.85.26.75.33,1.59.53,2.46.18.79.07,1.53.06,2.42-.03.71-.04,1.36-.14,2.06s.82,1.59.67,2.28-1.53,1.11-1.7,1.79c-.16.68,1.15,1.68,1.01,2.33-.15.69-.58,1.25-.66,1.91-.09.71.12,1.49,0,2.19s-.9,1.31-1.04,2.01-.34,1.41-.5,2.09-1.24,1.15-1.43,1.82.73,1.72.51,2.38c-.16.57-.46,1.09-.62,1.67-.16.58-.82,1.03-.99,1.62s.56,1.45.38,2.03-.44,1.17-.65,1.74-.52,1.14-.76,1.7c-.27.64-1.63.63-2.01,1.16s-.11,1.64-.56,2.11c-.48.5-1.7.2-2.17.63-.39.36.19,1.73-.16,2.09-.43.44-1.94.09-2.11.46-.17.38.67,1.25.66,1.9,0,.51-.35,1.08-.32,1.63.02.59,1.04,1.21,1.04,1.85s-1.38,1.15-1.47,1.77.78,1.44.58,2.04c-.2.57-1.65.55-1.94,1.06s.16,1.47-.18,1.94c-.36.5-1.42.42-1.77.87-.31.4.42,1.65.12,2.07-.38.54-1.36.69-1.4,1.03-.08.7.23,1.41.19,2.06-.05.71-.65,1.37-.65,2.01,0,.71-.06,1.43-.01,2.06.05.72,1,1.28,1.13,1.89.08.39.18.81.52,1.34.27.41,1.01.53,1.32.95.37.5.64,1.15,1,1.71.35.53-.15,1.58.13,2.18s1.45.87,1.61,1.52c.14.57.04,1.19.31,1.8.24.56.15,1.29.43,1.88.34.71,1.08,1.25,1.41,2.01s.4,1.56.63,2.36c.2.69.35,1.38.5,2.06s.03,1.44.17,2.12c.15.72-.3,1.56-.15,2.25s1.55,1.09,1.77,1.76c.18.57.22,1.24.31,1.81s.59,1.19.63,1.77c.04.61-.75,1.25-.74,1.81.01.61.75,1.14.79,1.69.05.64-.97,1.4-.8,1.88.25.74.25,1.58.53,2.31s1.13,1.22,1.42,1.97c.24.61.56,1.19.79,1.8s.35,1.27.57,1.89c.2.56-.19,1.51.12,2.09.29.54,1.14.81,1.47,1.37.41.69,1.41,1.08,1.8,1.82s.55,1.57.84,2.36c.24.64.37,1.33.47,1.97s-.83,1.36-.82,2.01c0,.68,1.11,1.36,1.08,1.99-.02.54-1.25,1.07-1.25,1.57,0,.62.1,1.47.25,1.85.23.6,1.99.57,2.3,1.19.29.58.04,1.46.37,2.07.33.62-.16,1.67.16,2.31s1.07,1.07,1.35,1.73c.45.56,1.84.55,2.65,1.19.47.37.2,1.66.69,2.08.46.39,1.69.02,2.11.48s.69,1.11,1.03,1.65c.33.53.15,1.32.37,1.87.23.58-.13,1.27.02,1.84.15.61,1.36.95,1.47,1.52.23,1.15.68,1.91,1.07,2.54.27.44,0,1.26.4,1.71.36.4.56.99.97,1.41.53.56.61,1.55,1.16,2.21.51.6,2.16.4,2.6,1.11.25.4-.05,1.27.37,1.69.36.36.69.82,1.1,1.2.41.37,1.25.32,1.68.73.4.39.39,1.19.77,1.64s.84.76,1.15,1.26c.32.51.72.96.94,1.49.23.55-.44,1.37-.27,1.92.17.58,1.17.9,1.3,1.45.13.53-.32,1.22-.18,1.68.17.56.75.99.99,1.36.44.7.94,1.34,1.25,2.06.34.77.12,1.72.38,2.44.2.55,1.5.64,1.71,1.14.23.56-.61,1.63-.33,2.06.35.54.65,1.12,1,1.67s.7,1.1,1.05,1.64.71,1.09,1.06,1.62,1,.97,1.35,1.5c.47.38.82,1.13,1.34,1.47s1.37.15,1.88.47c.55.33,1.2.53,1.75.89s1.1.71,1.6,1.13c.63.52,1.05,1.2,1.57,1.74.57.59,1.76.59,2.24,1.14.36.41-.44,1.84-.1,2.2.38.41,1.59-.08,1.97.22.38.31,1.16.83,2.03,1.08.58.16,1.42-.23,2.07,0,.59.21,1.22.63,1.81.96.55.3.73,1.24,1.24,1.69.54.48,1.15.93,1.74,1.43.47.4.73,1.08,1.23,1.51.47.41,1.41.31,1.9.76.46.42,1.27.53,1.74,1,.61.6,1.24,1.39,1.65,2.08.44.74-.52,2.2-.19,2.91.47.99,1.86,1.31,2.41,2,.65.41,1.35.54,2.19.87.75.29,1.36,1.03,2.19,1.31.68.23,1.25.75,1.91.99.73.27,1.59.29,2.4.51.76.2,1.39,1.09,2.2,1.28,1,.23,2.31-.74,3.31-.46.78.21,1.19,1.58,1.94,1.84s1.74-.08,2.47.2c.57.21.88,1.11,1.43,1.3s1.53-.78,2.08-.61c.66.2,1.45.22,2.04.49.62.28.98,1.14,1.54,1.46.6.35.86,1.2,1.4,1.54.81.51,1.98.22,2.7.57.45.16.81.52,1.42.57.49.04,1.02.47,1.62.47.84,0,.84-.41,1.69-.41.64,0,1.28.38,1.95.43s1.15.64,1.81.78c.6.13,1.3-.34,1.85-.13s.82,1.04,1.35,1.3c.56.28,1.48-.22,1.99.05.57.31,1.42,0,1.94.24.65.31.93.95,1.43.99.06,0,.1.63.17.63.5,0,.87-1.16,1.5-1.35.53-.15,1.03-.41,1.61-.61.56-.2,1.65,1.15,2.26.97s.83-1.65,1.45-1.77,1.29-.41,1.92-.43c.64-.02,1.29.46,1.99.3.64-.15,1.5.43,2.18.24.78-.22,1.24-1.72,2.06-1.91s1.78.8,2.63.73c.35-.03.67-.44,1.03-.44.77,0,1.43.66,2.16.76.78.11,1.61-.38,2.3-.24.54.1,1.12-.15,1.62-.07.56.09,1.04.75,1.52.75.18,0,.3-.88.48-.9.13-.01.21,1.07.35,1.07s.14-.85.27-.84c.77.03,1.57.04,2.3.15s1.43.69,2.16.83c.67.13,1.23.89,1.86.98.69.1,1.45-1.3,2.07-1.3.15,0,.27.25.42.24.41-.03.76-.1,1.36-.41.47-.25,1.03-.38,1.52-.68.56-.33,1.53.02,2.15-.31s1.22-.33,1.87-.57,1.04-.94,1.73-1.04c.67-.09,1.34-1.15,2.11-1.15,1.04,0,2.05.74,3.02.81.87.07,1.67.48,2.44.48.58,0,1.13.18,1.56.1.83-.15,1.61-.2,2.42-.26s1.66.27,2.46.24c.72-.03,1.34-1.5,2.02-1.55.73-.06,1.6,1.14,2.26,1.01.87-.17,1.63-.57,2.47-.65s1.7-.54,2.55-.58c.69-.04,1.36-.19,2.01-.24.7-.06,1.31-.33,1.95-.45.85-.16.77-.59,1.61-.75.78-.15,1.54-.22,2.27-.36s1.55,0,2.32-.13c.72-.12,1.51-.05,2.31-.17ZM346.52,335.21c-.64.03-1.35-.87-1.99-.81s-1.16,1.23-1.81,1.29c-.76.08-1.62-.85-2.4-.79s-1.49.58-2.27.61c-.64.03-1.2,1.06-1.85,1.11s-1.32-.6-1.98-.54c-.76.07-1.53.05-2.31.12s-1.55-.58-2.33-.56c-.49.02-.87,1.32-1.46,1.48-.51.14-1.13-.07-1.68.11-.54.18-1.21.02-1.81.19-.56.16-1.14.16-1.74.27s-1.12-.11-1.73-.1c-.08,0-.07-.01-.15-.01-.72,0-1.39.44-2.04.27-.68-.18-1.29-.5-1.91-.79s-1.52-.14-2.11-.46c-.85-.47-1.81-1.5-2.31-1.5-.55,0-1.94.14-2.85.63-.58.32-.7,1.64-1.35,1.94s-1.34.6-2.03.78-1.48-.14-2.2-.14c-.59,0-1.18.25-1.77.26s-1.19-.2-1.78-.19c-.82.01-1.64-.46-2.46-.45s-1.64-.3-2.45-.3c-.97,0-.97,1-1.94,1.01s-.97.25-1.94.25c-.76,0-1.52-.42-2.28-.42s-1.51-.83-2.27-.83c-.76,0-1.57.8-2.24.59-.71-.21-1.67-.09-2.3-.42s-.88-1.49-1.47-1.86c-.73-.46-1.97-1.23-2.4-1.24,0,0,0,.51-.01.51-.63,0-1.55.43-2.53.88-.58.27-1.33.27-1.97.52-.6.23-1.16.9-1.84,1.04-.63.14-1.42.28-2.12.28,0,0,0-.09,0-.09-.69,0-1.55.15-2.18,0-.66-.16-1.06-1.29-1.66-1.54-.63-.27-1.18-.66-1.76-.95-.98-.49-2.17-1.38-2.88-1.39-.5,0-1.02.8-1.61.91-.52.1-.91.83-1.47.96-.76.18-1.87-1.03-2.72-.88-.79.13-1.51.93-2.36.93-.1,0-.11.21-.21.21-.73-.01-1.43-.95-2.16-.97s-1.47.62-2.2.59c-.68-.02-1.38.45-2.06.43s-1.36.14-2.05.12c-.82-.01-1.53-1.32-2.3-1.42s-1.54-.41-2.31-.54c-.64-.11-1.43.91-2.04.82-.65-.09-1.2-1.25-1.8-1.26-.71-.01-1.47,1.32-2.18,1.29s-1.38-1.31-2.09-1.34c-.69-.03-1.41.3-2.09.27s-1.41.08-2.08.06c-.58,0-1.23-.24-1.84-.17-.58.07-1.14.48-1.75.58-.75.11-1.5.36-2.28.44s-1.53-.64-2.32-.64c-.15,0-.16,1.05-.31,1.05-.51,0-1.14-.8-1.72-.71-.52.08-.94.93-1.49,1.04-.71.14-1.43.45-2.17.56s-1.51-.32-2.27-.32c-.27,0-.57.58-.83.56-.68-.05-1.44-.08-2.06-.23-.66-.16-1.12-1-1.72-1.23-.64-.24-1.24-.51-1.82-.76-1-.43-2.02-.54-2.77-.67-.89-.15-1.8,0-2.75-.1-.67-.07-1.32-.45-2-.55s-1.27-.55-1.94-.7-1.08-.87-1.73-1.12c-.78-.29-1.34-.58-1.96-.99-.7-.45-2.28.27-2.83-.24-.62-.57-.91-1.47-1.4-2.01-.53-.58-1.16-.9-1.66-1.33-.43-.37-.83-1.24-1.63-1.62-.55-.26-.87-1.06-1.48-1.4-.55-.31-1.84.38-2.37-.05-.5-.4-.76-1.25-1.17-1.79-.38-.5-.62-1.2-.88-1.84-.24-.6-.03-1.36-.2-2s-.23-1.26-.35-1.91-.06-1.29-.13-1.94-1.11-1.25-1.14-1.89c-.04-.68-.31-1.35-.32-1.98-.01-.68,1.47-1.27,1.56-1.94s-.13-1.34.02-2-.32-1.47-.15-2.11c.25-.97,1.24-1.82,1.42-2.8.13-.72-1.09-1.79-1.08-2.84,0-.67,1.32-1.34,1.36-2.06.03-.67.26-1.29.37-2,.1-.67-1.04-1.65-.83-2.33.04-.12,1.11.26,1.16.14s.29.04.35-.07c.34-.7.39-1.43.83-2.03.46-.64.22-1.8.68-2.35.4-.48,1.18-.61,1.5-1.06.4-.54.79-1.04.93-1.52.18-.58.32-1.21.44-1.86.11-.6-.44-1.34-.33-1.98.12-.73,1.37-1.28,1.52-2.03s-.48-1.63-.27-2.37c.18-.63-.16-1.5.08-2.07s1.12-.95,1.41-1.5c.31-.58.5-1.22.8-1.75.53-.93,1.61-1.52,1.96-2.36.29-.7-.43-1.79-.17-2.57.24-.69.48-1.46.78-2.2.28-.69,1.05-1.25,1.44-1.94.36-.64.68-1.44,1.19-2.06.36-.42,1.23-.52,1.58-1.07.31-.49.18-1.28.49-1.82.3-.52.79-.96,1.12-1.51.32-.52.09-1.46.46-1.97s2.06.07,2.48-.4c.47-.53.61-1.2,1.16-1.59s.54-1.86,1.15-2.16c.63-.32,1.53-.12,2.14-.39.53-.23,1.41.25,1.89,0,.59-.3.65-1.26.96-1.59.29-.31.6-.69.85-1.29.2-.48,1.04-.77,1.23-1.3.23-.64.52-1.26.81-1.93s.41-1.28.79-1.89.82-.99,1.33-1.51c.49-.49.6-1.35,1.14-1.73s1.12-.82,1.7-1.13c.62-.32,1.03-1.05,1.62-1.33.54-.25,1.59.58,2.07.33.57-.3.49-1.43.84-1.76.43-.4,1.02-.65,1.42-1.18.36-.48.27-1.3.63-1.84.35-.51,1.63-.38,2-.89s.56-1.1.98-1.57.28-1.52.76-1.93c.05-.04-.08-.23-.03-.27.41-.33,1.75.27,2.21-.2.4-.41.36-1.29.78-1.75.44-.48,1.52-.4,2.02-.92.46-.48.54-1.34,1.06-1.82.49-.45.77-1.19,1.33-1.62.56-.43,1.04-1.12,1.65-1.42s1.28-.78,1.92-1,1.72.76,2.36.58c.66-.19,1.08-1.09,1.66-1.3.69-.24,1.75.27,2.22-.07.78-.56.86-2.08,1.63-2.65.62-.46,1.73-.25,2.36-.71s1.13-1.08,1.77-1.52,1.63-.31,2.29-.73c.58-.36.94-1.05,1.49-1.38s1.17-.65,1.74-.98c.59-.34.95-1.07,1.52-1.38s1.54.05,2.12-.25.73-1.56,1.32-1.84c.12-.06,0-.3.12-.36.68-.32,1.62-.1,2.32-.42s1.67.05,2.37-.25.98-1.61,1.69-1.88,1.41-.64,2.13-.88c.52-.17,1.08-.18,1.61-.39s.85-.81,1.38-1.04c.61-.26,1.59.35,2.22.1s1.4.03,2.05-.18.99-1.37,1.66-1.52c.56-.12,1.06-.38,1.65-.57.55-.18,1.24.02,1.82-.18.61-.21,1.18-.56,1.81-.76s1.11-.96,1.75-1.12,1.4.13,2.06.04c.57-.08,1.2-.14,1.83-.14.7,0,1.35.65,2.01.72s1.5-.8,2.16-.7c1.1.16,2.02,1.7,2.93,1.7.17,0,.38-.25.55-.27.36-.03.7.17,1.06.17.78,0,1.44.2,2.17.29s1.68-1.07,2.41-.95c.58.09,1.15.04,1.69.11.59.08,1.07.12,1.61.12.12,0,.14,1.26.26,1.25.62-.02,1.34.12,2,.03.62-.08,1.13-1.08,1.78-1.19.58-.09,1.23.24,1.82.16s1.14-.29,1.74-.34,1.16.01,1.77.01c.65,0,1.3-.45,1.98-.5s1.31-.09,1.99-.17c.77-.08,1.54-.29,2.33-.35s1.57-.26,2.37-.26c.21,0,.2,1.08.41,1.09.81.02,1.6.06,2.4.09s1.6.21,2.4.24c.69.03,1.39.04,2.07.07s1.4-.12,2.09-.11c.09,0,.19-.84.28-.84.73,0,1.53-.29,2.2-.16.71.13,1.23,1.04,1.89,1.24.69.22,1.31.57,1.94.81.97.36,1.94.63,2.83.83.08.02.28,0,.51,0,.65,0,1.51-.29,2.42-.45.58-.11,1.17-.52,1.81-.6.61-.08,1.27-.01,1.91-.01.57,0,1,.87,1.52.96.55.09,1,.05,1.5.25.61.24,1.79-.68,2.35-.37s.33,1.96.86,2.31c.55.38,1.01.81,1.52,1.18.48.35,1.69-.33,2.15-.02.51.35,1.03.44,1.52.68.56.28.76,1.25,1.27,1.58s1.54.01,2.02.38c.51.38.12,1.88.58,2.25.45.36.76.92,1.18,1.24.47.36,1.29.33,1.73.59.47.17,1.08.15,1.6.29.49.13,1.2-.57,1.72-.44.6.15,1.01,1.06,1.61,1.23s1.42-.32,2.01-.11,1.27.36,1.84.65c.7.35.86,1.71,1.53,2.08s1.36.71,2.02,1.11,1.35.76,2,1.16c.54.33,1.28.32,1.82.65.65.39,1.1,1.06,1.7,1.44.64.4,1.57.29,2.18.68s.79,1.48,1.39,1.88,1.92-.2,2.52.23c.39.28.61.72,1.17.96.47.2,1.05.17,1.58.37.58.22.86,1.27,1.47,1.53.58.25,1.32.21,1.89.54s.56,1.36,1.07,1.78c.48.39,1.39.25,1.83.66s.83.91,1.25,1.34,1.05.69,1.47,1.13c.4.42.53,1.07.92,1.46s1.4.17,1.8.54c.45.42.83.99,1.21,1.43s.22,1.39.57,1.86.4,1.18.74,1.67c.34.49.74.93,1.08,1.38.36.49.77.96,1.15,1.35.46.47,1.54.45,1.88.96.36.54.93,1.05,1.21,1.6.3.59-.92,1.87-.67,2.43.23.51,1.94.3,2.16.74.27.53-.21,1.39.09,1.73.37.43.55,1.11.99,1.52.42.39,1.62-.08,2.08.31.64.56.35,2.14.99,2.76s1.09,1.18,1.65,1.88c.55.68,1.98.69,2.43,1.39s.59,1.67,1.02,2.39c.31.52.68.99.98,1.48.32.52.69.96,1.03,1.42.36.49.94,1.85,1.93,2.36.6.31,1.29.43,1.91.81s1.7.01,2.23.48,1.05,1.04,1.46,1.64c.33.49.45,1.13.74,1.63s.36,1.14.62,1.66.07,1.27.32,1.79c.28.58.82,1.02,1.09,1.55.3.58.66,1.12.97,1.61.19.3,1.09-.09,1.22.25s-.92.66-.86,1.01c.17,1.06-.09,1.9-.43,2.6.39.37,1.02.92,1.46,1.3.51.43,1.23.67,1.75,1.16s1.09.9,1.51,1.47,1.13,1.05,1.39,1.72c.29.74-.91,1.81-.81,2.54.1.79,1,1.45.97,2.19-.03.81-.17,1.58-.25,2.29-.11,1.04.36,2.03.52,2.57.14.47-.7,1.56-.31,2.11.33.46,1.13.64,1.5,1.1.43.53.92,1.05,1.34,1.64s.36,1.35.66,2,.98,1.07,1.09,1.8c.11.7.32,1.35.4,1.99.09.71.09,1.39.15,2.02.07.71.84,1.35.87,1.98.04.72-1.18,1.42-1.19,2.06,0,.72.23,1.37.17,2-.07.75-.62,1.26-.84,1.91-.24.7-.59,1.17-.95,1.78-.37.64.1,1.79-.34,2.34-.46.59-1.23.9-1.68,1.41-.6.68-1.06,1.4-1.36,1.9-.36.59-.32,1.47-.73,2s-1.37.63-1.85,1.12-.94.93-1.48,1.38c-.5.41-1.11.71-1.69,1.11-.53.37-1.42.17-2.03.54-.34.21-.15,1.31-.5,1.52-.58.36-1.45.27-2.08.63-.59.34-1.31.43-1.96.75-.61.3-.7,1.88-1.38,2.14-.64.24-1.6-.31-2.3-.13s-1.42.27-2.1.33c-.78.08-1.5.53-2.12.53-.51,0-1.02-.66-1.54-.67-.48-.01-.98.02-1.47.02-.78,0-1.32.98-1.88,1.05-.48.06-.9.1-1.46.27-.49.15-1.25-.46-1.78-.27-.6.21-1.29.17-1.95.36-.61.18-1.16.59-1.83.72-.63.12-1.29-.41-1.97-.38-.54.02-1.01,1.28-1.63,1.4-.55.11-1.37-.81-1.96-.67-.58.14-.95,1.36-1.59,1.49-.59.12-1.21.54-1.85.62-.6.07-1.32-.8-1.96-.8-.68,0-1.36.32-1.99.19s-1.35-.24-1.95-.46c-.64-.23-1.1-.87-1.68-1.12-.51-.22-.97-.63-1.46-.81-.6-.22-1.26-.6-1.7-.6-.47,0-1.17.22-1.78.41-.5.16-.69,1.37-1.24,1.57-.57.21-1.57-.76-2.2-.56-.59.19-.84,1.82-1.48,1.94s-1.39-.12-2.04-.11c-.18,0-.18.32-.36.32-.72,0-1.45-.7-2.14-.75s-1.43-.17-2.12-.24c-.6-.06-1.1-1.04-1.67-1.09-.6-.05-1.25,1.1-1.82,1.1-.21,0-.41-.14-.62-.13-.62.03-1.35-.36-2.03-.19-.62.15-1.01,1.25-1.67,1.44-.75.22-1.57.39-2.38.58-.75.17-1.63.25-2.47.34-.44.03-.94-1.13-1.39-1.13-.61,0-1.24.91-1.83.87s-1.12-1.14-1.71-1.2c-1.04-.1-2.09,1.2-3,1.2-.23,0-.51-1.41-.74-1.4-.34.02-.63.99-.97.99-.68,0-1.32-.4-1.96-.46s-1.44.85-2.08.77c-1.1-.14-2.03-1.61-2.99-1.61-.16,0-.31.78-.47.79Z"/><path class="cls-1" d="M546.91,348.02c-.03-.62.2-1.1.28-1.69s-.79-1.38-.64-1.96c.16-.61.23-1.24.41-1.8.16-.52.51-1.02.65-1.55.17-.68-.07-1.12-.17-1.47-.18-.6.46-1.56.19-2.26-.24-.62-.22-1.42-.5-2.08s-.78-1.68-1.1-2.29c-.4.14-1.31,1.62-1.8,1.62-.99,0-1.49-1.51-2.16-2.17-.52-.5-2.02-.07-2.46-.59-.48-.56-.14-1.77-.55-2.29-.3-.37-1.38-.21-1.73-.62-.45-.53-.47-.72-.73-.82-.39,0-1.27-.8-1.92-.28-.5.39-.78,1.17-1.23,1.57-.65.58-1.15,1.39-1.88,1.94-.51.38-.67,1.4-1.21,1.7s-1.61-.32-2.17-.04c-.63.31-1.38.47-1.95.81-.69.41-1.8.75-2.09,1.24-.25.42-.38,1.41-.48,2.15-.08.59.99,1.36.94,2-.05.74-.5,1.5-.61,2.31-.1.76-.29,1.52-.52,2.27-.26.84-.61,1.6-1,2.34-.41.79-.73,1.6-1.15,2.29-.28.45-1.41.49-1.68.97-.34.61.31,1.6.3,1.95,0,.06-.67.02-.67.08s.9.14.89.2c-.09.81-1.27,1.54-1.31,2.37s.39,1.65.36,2.49c-.02.63.88,1.3.85,1.92s-.19,1.27-.23,1.89c-.04.61.51,1.6.96,2.61.28.62.76,1.23,1.02,1.91s-.95,1.73-.81,2.43,1.54,1.27,1.5,2.01c-.05.81-.77,1.57-.85,2.36s.63,1.7.53,2.48c-.08.69-1.4,1.22-1.47,1.88s-.24,1.37-.29,2.04c-.04.69,1.18,1.59,1.02,2.22s-.42,1.4-.68,2c-.27.63-1.91.63-2.19,1.21-.25.52.76,1.58.56,2.05-.24.58-1.4.8-1.45,1.25-.05.47-.19,1.15-.08,1.76.09.51.48,1.02.6,1.58.14.63.17,1.29.29,1.97.11.64.88,1.23.9,1.92s-.2,1.35-.3,2.03c-.11.73-.41,1.45-.55,2.23-.13.72-.53,1.42-.69,2.2-.15.72.46,1.63.29,2.41-.16.72-1.12,1.29-1.3,2.06-.16.67.48,1.58.28,2.23s-.9,1.16-1.14,1.8.07,1.51-.18,2.14c-.37.96-1.07,1.77-1.4,2.73-.29.84-.48,1.74-.75,2.63-.21.7-.16,1.51-.39,2.23s-.76,1.33-1.03,2.04-1.29,1.07-1.6,1.75c-.09.19.23.33.11.51s-.41-.07-.54.09c-.44.54-.73,1.1-1.24,1.51s-.76,1.32-1.33,1.66c-.6.35-1.69-.25-2.26.05-.48.25-.68,1.07-1.12,1.32-.54.31-1.55.16-1.82.47-.4.46-.89.95-1.27,1.48-.36.5-.25,1.35-.61,1.89-.46.67-.04,1.99-.54,2.66s-1.39,1.05-1.95,1.68c-.27.3-1.36.31-1.59.88-.18.46.35,1.23.18,1.73-.21.61-1.29.9-1.55,1.54-.25.61-.23,1.26-.57,1.85s-.5,1.16-.97,1.67c-.44.48-.38,1.51-.88,1.89s-1.63-.13-2.16.18c-.56.33-.52,1.72-1.06,2-.51.27-1.77-.86-2.22-.59-.53.31-.98.96-1.31,1.29-.34.35-.26,1.21-.57,1.75-.26.46-.29,1.08-.55,1.6-.27.53-1.17.75-1.49,1.31-.3.53-.28,1.24-.65,1.76s-.53,1.17-.98,1.62c-.59.59-1.45.87-2.06,1.42s-.83,1.57-1.45,2.1c-.49.42-1.47.26-1.94.67s-.16,1.69-.61,2.12c-.52.5-1.63.35-2.21.68-.61.35-1.01,1.29-1.65,1.53-.67.25-1.66-.47-2.3-.27-1.07.33-2.7.38-3.17.82-.39.36.13,1.65-.25,2.15-.33.45-1.64.24-1.98.74-.32.47.1,1.48-.26,1.98-.34.47-1.25.48-1.65.94s-.03,1.64-.48,2.03c-.44.39-.83.76-1.26,1.24-.4.44-.92.78-1.33,1.27-.53.64-1.53.89-2.11,1.52s-1.08,1.25-1.75,1.81c-.47.39-1.33.12-1.83.43s-.73,1.05-1.25,1.31c-.55.28-.73,1.27-1.25,1.51-.54.26-.9.78-1.39,1.03-.55.29-1.45-.15-1.86.18-.64.52-.81,1.68-1.46,2.17s-2.09-.06-2.75.41c-.52.37-.98.81-1.47,1.17s-.41,1.52-.9,1.91c-.52.41-1.95.76-2.48,1.81-.3.59.17,1.62-.19,2.23s-1.63.47-2.07,1,.01,1.91-.56,2.34c-.63.47-1.53.6-2.22.84s-1.59-.14-2.32-.04c-.78.11-1.49.65-2.19.7-.89.05-2.29.15-2.66.4-.45.32-1.2.37-1.65.82-.4.4-1.18.52-1.59.97-.38.41.31,1.86-.11,2.29-.4.4-1.47.13-1.92.52s-.33,1.49-.81,1.82c-.47.33-1.32.16-1.79.59-.43.4-1.27.41-1.72.85-.6.59-1.04,1.33-1.7,1.9s-1.04,1.37-1.77,1.86c-.52.34-.79,1.18-1.33,1.43s-1.22.4-1.77.6c-.59.21-1.1.65-1.66.82-.57.18-1.2.03-1.71.21-.58.21-1.36-.12-1.79.15-.61.39-1.25.73-1.86,1.11s-1.12.96-1.72,1.34-1.67.06-2.27.43c-.64.39-.4,2.16-1,2.52-.35.21-1.23-.16-1.61.32-.31.38-1.2.4-1.51.83-.38.52.06,1.68-.37,2.21-.41.5-1.01.88-1.51,1.34s-1.06.76-1.66,1.1c-.62.36-1.01,1.4-1.65,1.59-.68.2-1.63-.87-2.3-.78-.71.09-1.39-.24-2.06-.2-1.12.07-1.99,1.6-2.55,1.91-.43.24-1.29-.1-1.75.32-.39.36-.35,1.21-.76,1.62-.41.42-1.71-.04-2.17.4-.44.41-.03,1.84-.53,2.22s-1.59-.23-2.15.07c-.58.31-.82,1.38-1.42,1.58s-1.34.15-1.96.26c-.65.13-1.43-.7-2.04-.61-1.1.16-2.27.63-3.02.91-.38.39-.72,1.18-1.16,1.73-.45.56-.57,1.49-1.12,2.1-.5.55-.85,1.44-1.49,1.93-.59.46-1.47.75-2.21,1.08-.42.19-1.27-.23-1.74.12-.4.3-.35,1.23-.77,1.58-.43.35-.85.79-1.33,1.15-.45.34-1.08.51-1.59.82s-.82,1.08-1.37,1.31c-.68.29-1.8-1-2.46-.9-.79.13-1.41.32-1.99.32-.54,0-1.11,1.06-1.65,1.04-.43-.02-.84-1.34-1.25-1.34-.62,0-.48,1.46-.58,1.49-.5.38-1.61.11-2.03.7-.37.53-1.15,1.01-1.41,1.65s.66,1.64.53,2.3c-.11.59-.95,1.25-.86,2.04.07.64.79,1.24.98,1.96.17.64.09,1.42.36,2.09.29.47,1.02.43,1.63.76.45.24.53,1.49,1.17,1.76.48.2.96.33,1.45.56s1.11.03,1.56.33c.79.52,1.58.49,2.23.68s1.3.33,2.24.33c.23,0,.49.78.73.77.83-.03,1.51-1.55,2.24-1.62.79-.07,1.71,1.02,2.47.86s1.19-1.31,1.98-1.58c.73-.25,1.73.52,2.45.4s1.51.1,2.25.02c.65-.07,1.24-.57,1.83-.67.67-.11,1.06-.89,1.56-1.14.59-.28,1.16-.63,1.76-.89s1.54.23,2.13-.02c.72-.31,1.52-.42,2.2-.73s1.03-1.43,1.71-1.78c.56-.29,1.22-.37,1.77-.61s1.5.4,2.06.18,1.14-.45,1.71-.67c.51-.19.72-1.11,1.2-1.3.5-.2.7-1.06,1.17-1.27.42-.19,1.29.28,1.74-.11.38-.33.79-.7,1.19-1.09.46-.44.73-1.13,1.24-1.57s1.23-.48,1.81-.82.96-.95,1.62-1.13c.77-.37,1.58-.61,2.33-1.01s1.27-1.17,2.03-1.58c.78-.43,1.93-.2,2.75-.63.74-.39,1.18-1.43,1.93-1.69.81-.28,1.65-.42,2.39-.63.6-.17,1.01-.82,1.56-1,.61-.2,1.56.55,2.03.27.73-.42,1.3-1.1,2.04-1.39s1.42-.97,2.18-1.23c.6-.2,1.45.36,2,.15.61-.23,1-.86,1.49-1.15.56-.33,1.22-.51,1.77-.89s1.32-.4,1.87-.79c.61-.44,1.09-1.07,1.73-1.5s1.04-1.17,1.71-1.56c.52-.31,1.33-.2,1.85-.57.49-.35.73-1.07,1.23-1.46.64-.48,1.8-.26,2.48-.73s1.18-1.01,1.91-1.42c.54-.31.47-1.91,1.03-2.13s1.66,1.11,2.23.96c.61-.16,1.15-.41,1.72-.54.56-.13.8-1.5,1.31-1.64.58-.16.94-.37,1.39-.59.65-.34,1.37-.86,2.17-1.74.42-.47.97-.9,1.45-1.38.46-.45.73-1.28,1.28-1.68.51-.38,1.23-.75,1.85-1.04.71-.36,1.57-.28,2.21-.81.58-.49,1.68-.49,2.29-1.08.62-.59.42-2.1,1.1-2.68.46-.4,1.72.32,2.22.02s.37-1.91.91-2.15c.56-.25,1.74,1.01,2.28.8.52-.21.88-.9,1.35-1.12.59-.27.95-.84,1.24-1.15.27-.3.12-.95.35-1.52.19-.46,1.02-.72,1.19-1.22.21-.61.52-1.2.79-1.83s-.22-1.61.13-2.2,1.36-.66,1.84-1.16c.51-.53,1.34-.59,1.9-1.04s.26-2.13.85-2.52c.62-.41,1.6-.27,2.19-.63.9-.56,1.76-1.04,2.48-1.57.09-.06.34.31.43.25.66-.44.76-1.84,1.44-2.19s1.56-.43,2.25-.75c.64-.3,1.33-.43,1.92-.74.64-.33,1.2-.65,1.73-1.03.43-.31,1.09-.45,1.51-.96.36-.44,1.26-.53,1.63-1.04.34-.45.23-1.26.61-1.73.36-.45.03-1.56.45-1.99s1.64.03,2.11-.34c.65-.51,1.51-.55,2.18-.95s1.16-1.17,1.86-1.54c.6-.32.59-1.67,1.13-1.99.6-.36,1.79.24,2.26-.16.55-.47.8-1.28,1.35-1.76s1.61-.38,2.14-.87.32-1.81.85-2.29,1.38-.64,1.9-1.14c.49-.46,1.29-.72,1.75-1.29.43-.53.17-1.62.6-2.2.44-.59,1.11-1.03,1.58-1.62s1.43-.69,1.96-1.24c.5-.52.17-1.77.63-2.37.43-.57,1.45-.73,1.89-1.35.4-.56.67-1.22,1.1-1.79s.77-1.16,1.24-1.7c.47-.55.85-1.19,1.34-1.68s1.38-.64,1.89-1.13c.54-.51,1.01-1.08,1.5-1.58.52-.53,1.14-1.01,1.56-1.57.46-.61.58-1.49,1-2.16s.14-1.69.54-2.38c.32-.56,1.47-.64,1.81-1.21s.67-1.1,1.04-1.65c.4-.59.51-1.37.89-1.97s.25-1.49.62-2.11,1.89-.5,2.26-1.13c.35-.59-.54-1.93-.17-2.57.36-.62,1.72-.61,2.11-1.17s.57-1.31.97-1.87c.44-.61.52-1.44.91-2.03.42-.63,1.32-.95,1.63-1.58.42-.86-.29-1.2.14-2.06.33-.67.81-1.26,1.13-1.91s1.05-1.14,1.35-1.81,1-1.19,1.28-1.88c.24-.59-.23-1.48-.09-2.18.13-.64-.26-1.38-.16-2.07.11-.73.3-1.49.45-2.25s.77-1.37,1-2.12c.26-.82,1.1-1.35,1.47-2.07.4-.77.65-1.57,1.06-2.25.33-.55.23-1.33.5-1.84.32-.59.65-1.08.77-1.61.15-.67-.16-1.39-.11-2.15.05-.69.65-1.38.67-2.12.02-.7-.82-1.46-.77-2.18s1.04-1.34,1.15-2.06c.1-.7.36-1.45.36-2.22,0-.71-1.09-1.42-1.12-2.18-.02-.68-.09-1.39-.09-2.09s1.55-1.32,1.6-2.03c0-.1-1.08-.18-1.07-.28.08-.67.29-1.34.46-1.97s.07-1.41.29-2.03.86-1.11,1.1-1.72c.24-.6,1.08-.96,1.28-1.53.22-.62.3-1.3.43-1.88.15-.67-.2-1.46-.04-2.14s-.33-1.51-.16-2.18,1.24-1.12,1.41-1.79c.24-.96-.41-2.15-.17-3.12.15-.62,1.55-.84,1.79-1.41s.27-1.23.57-1.77c.31-.56.65-1.08.96-1.6.33-.55.8-1.02,1.08-1.53.32-.61.67-1.26.78-1.78.14-.67.3-1.38.4-2.09s-.3-1.46-.22-2.16.3-1.38.37-2.08c.09-.89.43-1.73.54-2.6.06-.47-.08-1.24-.3-1.91-.17-.54-.09-1.27-.31-1.83-.21-.53-1.14-.82-1.34-1.4s-.42-1.12-.55-1.71.47-1.21.44-1.82Z"/><path class="cls-1" d="M332.98,105.86c.02.71-1.25,1.57-1.11,2.34.13.69.41,1.43.62,2.18.18.68.11,1.5.34,2.25.24.76.45,1.34.54,2.07.1.81,1.1,1.49,1.13,2.17.03.71.26,1.52.37,1.76.15.23-.73.96-.53,1.16.25.14,1.46-.7,1.77-.44.32.24.31,1.34.97,1.4.45.04,1.01-1.08,1.6-1.08.71,0,.71,1.38,1.42,1.37.56,0,1.11-.07,1.71-.03s1.06.18,1.64.31c.55.12,1.25-.37,1.88-.32.54.04,1.13,0,1.78,0,.86,0,1.73-.11,2.63-.15.6-.02,1.21.37,1.84.35.83-.02,1.62-.8,2.47-.85s1.68.49,2.53.43c.69-.05,1.34-.63,2.03-.67s1.42.69,2.11.66c.37-.02.72-1.21,1.09-1.21.66,0,1.35.5,2.01.54s1.26.94,1.91,1.01,1.34,0,1.98.08,1.29.47,1.93.57c.49.07.61-.81,1.1-.74.63.08,1.24.3,1.81.49.59.2,1.28.25,1.82.53s1.36.26,1.86.59.09,2.06.57,2.4c.46.33,1.38.07,1.82.35.55.36,1.19.22,1.61.32.96.23,1.83.76,2.78.97.74.17,1.49.37,2.25.55s1.7-.41,2.46-.21,1.49.51,2.24.74c.25.08.38.78.81.78.72,0,1.65.48,2.55.36.56-.07,1.01-1.18,1.59-1.23s1.17,1.23,1.76,1.23,1.15-1.1,1.65-1.03c.57.08,1.01.65,1.48.8.74.22,1.31.63,1.93.99.66.38,1.55.39,2.11.85.59.49,1.56.57,2.08,1.06.4.38.31,1.25.68,1.57.46.39,1.11.17,1.5.35.48.22.62,1.33,1.19,1.5.51.16,1.24-.34,1.8-.18.62.17,1.37.07,2.04.28.63.2,1.17.8,1.8,1.06s.89,1.15,1.47,1.51c.48.3,1.31.05,1.86.32.51.25,1.24.08,1.79.34.57.26,1.17.53,1.75.81s.62,1.55,1.18,1.87,1.62-.17,2.15.21c.51.37,1.08.74,1.53,1.14s.99.82,1.41,1.25.71,1.04,1.13,1.49c.43.46-.09,1.81.32,2.22.45.46,1.84-.16,2.28.2.47.38.91.7,1.5,1.03.54.3,1.15.45,1.74.75.51.26.8.97,1.32,1.25s.67,1.1,1.16,1.42.99.52,1.44.9c.59.48,1.03,1.15,1.61,1.61s1.86.08,2.45.54,1.26.83,1.85,1.29c.71.55.82.41,1.53.95.57.41,1.05,1.15,1.46,1.66.43.54-.49,1.94-.18,2.52s1.26.87,1.52,1.47c.33.73.67,2.38.98,2.62.4.23,2.05-.49,2.93-.48.64,0,1.28.73,1.96.78s1.23.18,1.89.35,1.76-.8,2.37-.46c.55.3.79,1.19,1.25,1.55.49.38,1.21.54,1.63.96.44.44-.02,1.72.37,2.15.79.86,1.87,1.47,2.57,1.88.42.25.91.5,1.42.71.46.19.88.59,1.38.78.54.21,1.42-.34,2-.1.54.23,1.3.18,1.84.47s.71,1.22,1.21,1.58c.58.42,1.69.38,2.12.89.46.54-.34,1.98,0,2.56.37.63.96,1.06,1.25,1.64.48.96,1.52,1.42,2,1.9.5.5.75,1.69,1.59,2.2.53.33,1.09.65,1.68,1.06.53.37,1.89-.2,2.4.28.47.44.46,1.46.86,2.03.36.41.37,1.2.79,1.6.4.38.96.62,1.39,1.01.42.38,1.59-.02,2.02.38s.54,1.14.94,1.57.46,1.14.82,1.6c.37.48,1.18.68,1.49,1.17s.7,1.03.97,1.54.63,1.04.89,1.57c.26.53.36,1.11.62,1.6.28.53-.56,1.75-.25,2.19.34.49,2.02.12,2.31.61s-.54,1.63-.29,2.15.56,1.02.8,1.54c.25.54.5,1.08.75,1.58.27.54.89.87,1.18,1.35.32.51.64,1.01.89,1.52s.1,1.24.31,1.77c.22.57,1.32.78,1.51,1.31.2.55.06,1.21.26,1.72.22.56.19,1.2.45,1.67.27.48.2,1.27.56,1.75.34.44,1.12.57,1.5,1.03.36.43,1.11.59,1.48,1.06.35.45,1,.76,1.33,1.25s-.39,1.58-.12,2.11c.26.52.49,1.11.81,1.64s1.05.74,1.38,1.25c.45.7,1.27,1.2,1.71,1.94s.61,1.6.98,2.39c.21.45.04,1.23.41,1.72.32.42.85.73,1.22,1.17.38.45.88.84,1.27,1.34.37.47,1.41.54,1.74,1.08s-.75,1.75-.5,2.33c.25.59,1.63.77,1.77,1.36s-.76,1.4-.69,2.01c.07.64.74,1.2.78,1.79.04.57-.72,1.2-.66,1.71.07.6.22,1.31.39,1.75.18.45,1.69.28,2.03.79.29.43.26,1.11.6,1.57.35.47-.15,1.56.2,2.08.33.49,1.94.22,2.23.76s.3,1.27.51,1.86c.24.65-.39,1.5-.31,2.16s-.09,1.3-.1,1.96.91,1.41.86,2.05c-.05.76-.94,1.64-.92,2.28.19.02.86-.88,1.17-.88.57,0,1.16.25,1.83.18.61-.07,1.35.59,1.97.5.56-.08.41-1.16.98-1.24.5-.07,1.12,1.35,1.66,1.35.69,0,1.3-.02,1.96.05s1.4-.23,2.05-.13c1.09.18,2.14.36,3,.36.13,0,.35.31.48.3.89-.16,1.56-.56,1.63-.66.17-.24.42-1.26.4-2.76,0-.64-.38-1.47-.55-2.46-.17-.75-.56-1.44-.64-2.16s-.47-1.47-.53-2.2c-.06-.67,1.01-1.45.94-2.08-.08-.67-.45-1.34-.6-1.96-.27-1.11-1.51-.8-1.79-1.91-.16-.67.15-1.46-.02-2.14s-.16-1.39-.33-2.06-.46-1.31-.64-1.98c-.17-.6.07-1.38-.19-2.01-.24-.58-.87-1.03-1.15-1.64-.32-.69.23-1.76-.07-2.48s-1.65-1-1.88-1.76c-.19-.61-.79-1.24-.86-1.84s.59-1.35.6-1.96c.01-.64.54-1.25.58-1.84.04-.57-1.11-1.15-1.1-1.65,0-.63.31-1,.17-1.42-.26-.76.84-1.86.68-2.61s-1.06-1.39-1.19-2.15c-.11-.67-.93-1.17-1.06-1.78-.14-.67.25-1.4.04-1.98-.22-.6-1.06-.88-1.4-1.5-.31-.57.2-1.62-.16-2.21-.38-.64-1.18-1.07-1.55-1.76s.2-1.75-.1-2.47c-.21-.49-1.14-.76-1.53-1.29-.34-.45-.74-.91-1.13-1.38-.51-.62-1.26-1.13-1.77-1.85-.48-.67-.17-1.79-.54-2.58-.36-.76-2.07-1.01-2.29-1.77-.24-.82.81-1.96.64-2.72-.14-.62-1.02-1.04-1.17-1.6-.18-.64-.46-1.1-.72-1.59-.4-.75.34-1.95.08-2.71-.28-.81-1.4-1.32-1.61-2.08-.17-.62-.06-1.3-.24-1.86-.21-.64-.46-1.22-.75-1.69-.27-.45-1.12-.46-1.6-.93-.41-.39-.22-1.5-.69-1.91-.61-.52-1.55-.75-2.17-1.37-.58-.58-1.05-1.3-1.55-2.01-.33-.48-.99-.72-1.36-1.2s-.37-1.21-.75-1.67-1.41-.35-1.8-.81c-.66-.78-1.3-1.6-1.94-2.4-.44-.55-.78-1.12-1.32-1.64-.51-.49-.53-1.53-1.09-2.03-.49-.44-.69-1.19-1.18-1.65s-1.53-.32-1.99-.82c-.43-.46-.8-.99-1.12-1.5s.2-1.49-.05-2.03c-.27-.57-1.25-.8-1.48-1.34-.21-.51-.58-.95-.8-1.41-.28-.58-.29-1.23-.6-1.51-.39-.36-1.11-.36-1.71-.66-.51-.26-1.06-.5-1.64-.76-.71-.31-1.15-1.29-1.91-1.69-.71-.37-1.74-.25-2.41-.76-.68-.52-1.78-.73-2.32-1.35-.58-.65-.04-2.22-.52-2.85-.38-.5-1.83-.09-2.2-.52-.44-.51.13-2.06-.3-2.33-.55-.34-1.4-.28-2.01-.61s-.91-1.19-1.51-1.49-1.3-.43-1.9-.72c-.7-.34-1.62-.23-2.3-.57-.71-.27-1.35-.96-2.14-1.21-.64-.2-1.59.46-2.28.22-.64-.23-1.09-1-1.74-1.31s-1.06-.81-1.66-1.22c-.6-.41-2.06.21-3.12-.13-.62-.21-1.26-.54-1.92-.8-.62-.24-1.32-.53-1.92-.88s-.99-1.03-1.51-1.51c-.52-.48-1.06-.97-1.42-1.52-.38-.58.05-1.55-.21-2.16-.28-.64-.85-1.12-1.07-1.73-.35-.97-.45-2.48-.84-2.87-.38-.38-1.95-.3-2.94-.61-.57-.18-1.35.15-1.95-.07-.57-.21-1.2-.49-1.76-.8-.52-.29-.56-1.35-1.04-1.77-.53-.43-.95-.84-1.33-1.35-.4-.54-.32-1.26-.61-1.84-.3-.6-1.06-.95-1.31-1.53-.32-.75-1.09-1.8-1.4-2.04-.5-.31-.82-1.24-1.48-1.47-.58-.2-1.45.34-2.09.15-.67-.2-1.12-1.1-1.8-1.33s-1.59.23-2.25-.09c-.66-.32-1.71-.44-2.92-.48-.56-.02-1.16.11-1.76.06-.56-.05-1.19-.04-1.77-.16s-1.3.05-1.86-.17c-.72-.28-1.1-1.32-1.73-1.66-.67-.36-1.07-1.13-1.69-1.51-.54-.33-1.67.4-2.18.12-.57-.31-.77-1.25-1.31-1.43-.68-.22-1.2-.84-1.82-1.04-.68-.22-1.33-.43-1.95-.63-.68-.21-1.33-.4-1.96-.59-.67-.21-1.54.33-2.17.14-.63-.19-.88-1.16-1.42-1.45-.57-.3-1.45-.05-1.95-.41-.53-.38-.88-.97-1.35-1.35-.88-.72-1.61-2.16-2.28-2.36-.68-.2-1.61.49-2.26.29-.68-.2-1.52.18-2.17-.01s-.96-1.65-1.61-1.85-1.25-.68-1.9-.89c-.04-.01-.41,1.53-.67,1.53-.6,0-1.25.21-2.1.37-.56.11-1.26-.23-1.87-.15-.58.08-1.23-.73-1.83-.73-1.01,0-2.01.62-2.85.32-.56-.2-.91-.9-1.43-1.15s-1.51.31-2.01.03-.91-.82-1.4-1.11c-.78-.46-1.4-.77-2.13-1.13-.88,0-1.71-.58-2.7-.52-.62.04-1.23.45-1.88.48s-1.26-.96-1.91-.96c-.34,0-.68.5-1.03.49-.47-.02-.94.17-1.41.17-.96,0-1.92.69-2.91.72-.54.01-1.1-1.47-1.64-1.46s-1.06.62-1.6.62c-.28,0-.57.15-.85.14-.66,0-1.32.11-1.92-.02s-1.28-.28-1.87-.5c-.62-.23-1.47.1-2.03-.14-1.07-.47-1.85-1.94-2.58-1.94,0,0,0,.28,0,.28-.8.02-1.67-.52-2.5-.43s-1.58.5-2.41.6c-.57.07-1.08.78-1.66.85s-1.15.51-1.73.56c-.69.06-1.43-.66-2.11-.59s-1.35.34-2.02.43-1.37.15-2.03.25c-.7.11-1.32.5-1.97.62-.65.12-1.46-.8-2.11-.73s-1.31.11-1.96.16c-.55.05-1.12,0-1.65.06-.58.06-1.69.23-2.18.32-.05.49-.2,1.76-.18,2.43s1.67,1.25,1.7,1.75c.04.75-.03,1.52-.01,2.2Z"/><path class="cls-1" d="M277.48,563.75c-.13-.55-.48-1.11-.68-1.71-.18-.57-.73-1-.97-1.56s.38-1.62.07-2.12c-.34-.55-1.84-.13-2.25-.53-.28-.27.27-.85-.07-1.03s-.43.23-.82.16c-.39-.08-.82-.24-1.47-.24-.36,0-.74-.49-1.11-.48-.4.01-.79.26-1.19.26-.81,0-1.95.64-2.88.37-.76-.24-1.49-.82-2.19-1.19s-1.12-1.27-1.79-1.67c-.66-.39-1.59-.29-2.27-.65s-1.13-1.3-1.85-1.51c-.69-.2-1.48-.53-2.24-.58s-1.52.15-2.26.15c-.82,0-1.65.11-2.48.05s-1.68.06-2.48-.18c-.66-.2-1.43,0-2.1-.17s-1.06-1.44-1.73-1.61c-.82-.21-1.68-.27-2.51-.49s-2.03.8-2.84.54c-.57-.18-1.19-.68-1.69-1s-.45-1.42-.91-1.81-.92-.74-1.36-1.14c-.54-.5-.77-1.43-1.32-1.87-.6-.48-1.95.41-2.6.17-.63-.23-1.06-1-1.66-1.27s-1.2-.59-1.79-.87-.93-1.12-1.52-1.41c-.48-.24-1.4.42-1.88.19s-.4-1.66-.89-1.89c-.48-.22-1.12-.1-1.59-.3s-.96-.4-1.44-.6c-.6-.25-1.41-.01-2.02-.28s-.94-1.06-1.54-1.36-1.37-.16-1.95-.5c-.04-.02.46-.69.42-.72-.04-.03-.53.64-.57.6-.56-.51-1.52-.12-2.27-.41-.69-.26-1.36-.46-2.13-.67-.68-.18-.93-1.78-1.6-2.02s-1.87.61-2.46.22c-.51-.34-.78-1-1.31-1.29s-.63-1.46-1.17-1.73-1.15-.45-1.7-.71c-.48-.23-1.33.35-1.79.13s-.99-.36-1.44-.61c-.76-.4-1.3-1.23-2.07-1.62s-1.86-.11-2.64-.51c-.52-.26-.44-1.72-.97-1.98s-1.78.9-2.31.63c-.76-.39-1.02-1.68-1.61-2.31s-1.52-.99-2.03-1.67c-.41-.55-.5-1.34-.94-1.84-.47-.54-1.32-.39-1.87-.72-.45-.28-.87-.52-1.35-.77s-.91-.57-1.39-.8c-.55-.26-.53-1.68-1.08-1.97s-1.08-.49-1.6-.82-1.29-.25-1.77-.66c-.02-.02.09-.14.06-.16-.43-.42-.75-.96-1.18-1.36s-1.53-.1-1.97-.5c-.04-.04.75-.91.71-.95-.43-.39-1.49-.09-1.93-.49s-.69-.98-1.11-1.39-.51-1.14-.91-1.56c-.48-.51-1.73-.31-2.2-.83s-.77-1.21-1.23-1.74-.89-1.1-1.35-1.63c-.17-.19.04-.37-.13-.57-.47-.53-1.42-.63-1.89-1.16-.44-.5-.25-1.58-.74-2.05s-1.2-.65-1.71-1.13c-.6-.56-1.06-1.28-1.65-1.87s-1.69-.74-2.22-1.38c-.55-.66-.94-1.49-1.45-2.18s-.73-1.6-1.21-2.3c-.36-.52-.94-.89-1.32-1.42s-.42-1.27-.82-1.78c-.42-.54-1.37-.57-1.85-1.08s-.68-1.25-1.16-1.73c-.59-.59-.55-1.75-1.1-2.34s-1.37-.92-1.86-1.6c-.49-.69-1.16-1.32-1.45-2.11s-.31-1.69-.52-2.5c-.18-.71.43-1.65.21-2.29-.23-.7-.94-1.3-1.31-1.86-.38-.57-.79-1.3-1.34-1.79-.51-.45-.95-1.09-1.53-1.54-.66-.51-1.51-.73-2.13-1.3s-1.44-.9-1.88-1.62c-.31-.51-.32-1.22-.64-1.72s-1.63-.36-1.96-.85c-.04-.06.9-.69.86-.76-.32-.48-1.24-.59-1.56-1.08s.05-1.42-.26-1.92-.32-1.15-.6-1.66c-.28-.49-.69-.93-.97-1.42s-1.41-.49-1.7-.98c-.32-.53-.95-.89-1.27-1.43s.15-1.53-.15-2.08-.62-1.08-.9-1.64c-.38-.75-.64-1.5-.84-2.32s-1.12-1.5-1.26-2.33c-.11-.69.62-1.52.48-2.16-.15-.68-.57-1.29-.84-1.89-.03-.07-.72.28-.76.2-.26-.51-.42-.94-.79-1.4s-.48-1.05-.89-1.47-.96-.66-1.38-1.07c-.57-.56-.68-1.6-1.23-2.2s-1.65-.81-2.09-1.5c-.4-.61-.12-1.64-.48-2.22-.38-.62-1.07-1.04-1.41-1.64-.36-.64-.15-1.55-.47-2.16-.34-.65-.79-1.2-1.08-1.82-.3-.67-1.06-1.12-1.3-1.75-.01-.03-.26.02-.27-.01s.14-.11.13-.14c-.13-.6-.7-1.09-.85-1.69s-.07-1.24-.22-1.85c-.17-.71.59-1.7.41-2.46s-1.03-1.36-1.18-2.09c-.15-.72.11-1.51.08-2.24s.09-1.46.1-2.18c0-.67-.92-1.29-.95-1.91-.02-.66,1.04-1.4.91-2.02-.15-.7-.25-1.35-.27-2.06s.33-1.4.34-2.1c.01-.66-.09-1.36-.11-2.02s-.07-1.45-.22-2.08c-.13-.58-.15-1.2-.3-1.78s-.35-1.15-.51-1.72-1.19-.9-1.35-1.48c-.25-.88.39-2.01.15-2.9-.16-.58-1.13-.96-1.25-1.57s.24-1.28.13-1.89c-.14-.76-.28-1.5-.43-2.22s-1.37-1.16-1.6-1.87c-.17-.53.66-1.38.51-1.93s-1.2-.86-1.34-1.39c-.2-.78,1.04-1.94.82-2.69s-1.41-1.22-1.7-1.97c0-.03-.42.09-.43.06-.2-.65-.64-.91-1.18-1.55-.43-.51-.48-1.4-1.09-1.95-.51-.47-1.09-.93-1.7-1.45-.46-.39-.99-.71-1.41-1.08-.54-.49-.99-.99-1.49-1.39-.58-.46-1.12-.83-1.65-1.18-.63-.42-1.19-.71-1.76-.97-.7-.32-1.29-.24-1.9-.33-.37-.05-.38-1.36-.75-1.31s-.24.82-.58.97c-.65.29-.73,1.1-1.37,1.97-.4.54-1.02,1.06-1.55,1.93-.13.22-.85-.12-.94.12s.77.46.73.72c-.15.95-.59,1.82-.78,2.7-.13.59-1.16.99-1.27,1.57s.37,1.29.31,1.88.66,1.17.67,1.78c.02.79-.63,1.61-.56,2.4s-.3,1.63-.19,2.43,1.01,1.45,1.13,2.25c.1.67.67,1.29.76,1.97.11.79-1.3,1.62-1.39,2.43s.41,1.66.26,2.45c-.15.82-.57,1.59-.64,2.35-.08.83.44,1.62.6,2.38.16.74.26,1.52.68,2.23.38.65.66,1.43,1.13,2.1.48.67.63,1.52,1.05,2.23s1.86,1,2.09,1.79c.2.7.04,1.5.2,2.19s.31,1.41.45,2.11c.17.84.27,1.66.46,2.45s-.03,1.75.23,2.53c.25.76,1.39,1.12,1.79,1.85s.07,1.83.5,2.52c.41.67,1.74.78,2.1,1.44s-.48,1.92-.22,2.64c.01.03.75-.22.76-.18.21.77.37,1.62.39,2.43s.1,1.63.06,2.42c-.04.79.09,1.53.12,2.26.03.81-.98,1.8-.7,2.48.29.71,1.1,1.27,1.62,1.9.48.59,1.48.75,2.04,1.33.52.54.89,1.27,1.38,1.85s.3,1.58.65,2.24c.37.69,1.69,1.02,1.89,1.78s0,1.64.15,2.4c.14.79.79,1.39.98,2.11.21.78.35,1.3.75,1.94.42.66.52,1.49,1.04,2.11s.45,1.72.98,2.31c.48.53,1.72.41,2.19.97s.28,1.62.7,2.22c.02.04.36-.19.38-.15.29.52.23,1.3.6,1.81.35.47,1.09.68,1.49,1.17.4.5.76,1.03,1.14,1.55s1.17.8,1.5,1.35-.53,1.64-.31,2.24c.25.68,1.57.94,1.84,1.6s-.47,1.76-.18,2.41.91,1.16,1.21,1.82c.34.75,1.26,1.23,1.59,1.98.29.65.1,1.48.23,2.19s.47,1.38.55,2.08c.1.9.57,1.59.74,2.28.2.88.38,1.35.9,1.91.56.64.34,2.11,1.01,2.68s1.32,1.11,2.03,1.64c.48.37,1.78-.3,2.26.09s.94.83,1.4,1.25.87.94,1.28,1.4c.49.55.66,1.43,1.24,1.98.54.51.57,1.63,1.16,2.16.57.51,2.23-.16,2.79.36s.84,1.41,1.34,1.96c.54.58.97,1.27,1.39,1.88.04.06-.19.21-.16.28s.76-.13.78-.05c.14.55-1.23.76-1.6,1.28-.67.95-.55,1.12-.42,2.27s.16,1.23,1.02,2.01c.38.34.65.86,1.09,1.24.58.49,1.23.83,1.76,1.33s1.89.24,2.37.82c.47.57.47,1.56.97,2.15s1.05,1.07,1.56,1.65,1.59.59,2.11,1.16.56,1.52,1.08,2.09c.5.55,1.07.99,1.73,1.42.62.39.94,1.39,1.63,1.76.68.37,1.64.26,2.31.69s1.47.7,2.03,1.26c.56.55.67,1.48,1.11,2.13s1.63.84,2.03,1.5c.39.65-.04,1.82.39,2.44s.8,1.46,1.35,1.96c.45.41,1.37.27,1.84.65s.55,1.23,1.03,1.61.97.71,1.45,1.08c.48.37,1.22.42,1.7.8s.46,1.36.93,1.75c.62.52,1.96.3,2.45.94s.58,1.59,1.02,2.26c.43.65.26,1.74.71,2.32.48.62,1.97.22,2.56.67.6.46,1.04,1.03,1.75,1.38.67.33,1.09,1.27,1.82,1.58.73.31,1.69.05,2.37.39s.91,1.42,1.55,1.87c.46.33,1.32.1,1.78.43s.81.79,1.27,1.13c.51.38.85.97,1.35,1.34s.79,1.08,1.29,1.43.99.81,1.51,1.15c.07.05.92-1.18.99-1.13.57.42.87,1.23,1.53,1.57s.94,1.48,1.6,1.77c.7.31,1.76-.13,2.46.23s1.24.92,1.87,1.39c.63.46,1.73.42,2.26.98s.65,1.53,1.14,2.12c.49.57,1.2.95,1.72,1.49s1.34.6,1.95,1.01c.58.4,1.02.58,1.78.77.7.18,1.33.64,2.06.76.81.14,1.46,1.06,2.26,1.27s1.31.74,2.01,1.18c.69.43,1.06-.17,1.74.25.51.32.67,1.22,1.19,1.54s1.03.65,1.55.97,1.64-.38,2.16-.08.84.97,1.38,1.26c.64.35,1.27.68,1.91,1s1.05,1.12,1.7,1.43,1.74-.33,2.39-.03,1.24.72,1.9,1.02c.11.05-.29.93-.17.98.69.31,1.69.02,2.31.46s1.45.63,2.03,1.1c.61.5,1.19.93,1.8,1.35.65.45.95,1.32,1.66,1.58.76.27,1.48,1,2.31,1.13s1.79-1.09,2.62-1.01c.68.07,1.35.36,2,.45s1.32.47,1.98.64c.59.15,1.23.09,1.81.24.15.04-.15,1.21,0,1.25.73.19,1.68-.51,2.4-.34s1.45.32,2.17.46,1.32,1.19,2.07,1.29c.74.09,1.79-1.08,2.5-.84s1.31.86,1.98,1.15c.75.32,1.15,1.51,1.87,1.74.78.26,1.7-.22,2.47-.22.05,0,0,.66.06.66.28.03.6-.85.87-.85.81,0,1.47-.23,2.23-.4.8-.18,1.92.68,2.62.4.81-.33,1.35-1.17,1.96-1.5.64-.34.82-1.34,1.36-1.7.62-.4,1.4-.42,1.89-.84.57-.49.57-1.3.94-1.8.46-.61.89-.9,1.04-1.5.11-.45.36-.95.32-1.93-.02-.56-.21-1.18-.34-2-.09-.59.7-1.44.53-2.2-.14-.61-.41-1.14-.61-1.88.01-.15-.1-.12-.11-.15Z"/><path class="cls-1" d="M27.61,283.01c.08-.7.74-1.33.84-2.05s-.35-1.49-.2-2.21c.14-.65.42-1.27.5-1.93s-.59-1.36-.55-2.03,1.22-1.26,1.25-1.93c.04-.98.39-1.92.46-2.9.05-.67-.84-1.43-.67-2.05s.46-1.27.71-1.86c.26-.62.13-1.42.4-1.98.26-.54,1.17-.77,1.38-1.28.27-.66.43-1.27.39-1.69-.02-.17-.28-.17-.28-.34s.36-.16.38-.34c.06-.63.1-1.64-.13-2.6-.15-.61-1.07-1.11-1.19-1.81-.11-.64-.62-1.38-.61-2.08,0-.65,1.03-1.27,1.2-1.96.15-.6-.34-1.41-.15-1.98s.97-.97,1.2-1.53.06-1.31.29-1.87c.39-.93,1.71-1.46,2.02-2.33.29-.81.39-1.63.72-2.39s.96-1.41,1.31-2.16c.23-.49-.35-1.34-.14-1.81s.38-.98.58-1.46c.28-.69,1.22-1.07,1.53-1.73s.37-1.46.68-2.11c.28-.56.79-1,1.05-1.54s.65-1.08.88-1.64c.26-.6-.85-1.95-.86-3.05,0-.57.03-1.2.06-1.82.02-.58,1.36-1.03,1.46-1.63s.27-.99.49-1.56c.23-.6-.9-1.87-.57-2.38.35-.53,2.03-.02,2.44-.47.43-.48.05-1.67.47-2.09.65-.65,1.97-1.3,2.07-1.66.12-.44.43-1.04.44-1.62,0-.5-.79-1.03-.81-1.58-.02-.62-.04-1.29-.03-1.95.01-.63-.39-1.38-.3-2.04s1.12-1.09,1.34-1.72c.21-.6.06-1.36.34-1.9s.27-1.35.6-1.86c.35-.54,1.4-.6,1.74-1.09.32-.46,1.2-.56,1.48-.99.31-.49.08-1.32.28-1.78.25-.57.02-1.36.3-1.89s1.35-.65,1.65-1.17.04-1.4.35-1.91c.28-.47.36-1.03.63-1.48s.9-.71,1.14-1.18c.34-.65.93-1.75,1.08-2.87.08-.64.29-1.26.42-1.94.12-.64.5-1.13.73-1.78.22-.61.17-1.21.54-1.81.34-.55-.31-1.86.1-2.32s1.85.02,2.31-.38c.49-.43.2-1.76.68-2.14.43-.35.86-.64,1.24-.97.44-.39.6-.77.86-1.16.35-.49.95-.82,1.32-1.29s1.68-.18,2.06-.63-.33-1.85.05-2.29c.35-.41,1.74.05,2.08-.36s-.18-1.54.16-1.96c.36-.46,1.29-.44,1.67-.87s.71-.91,1.1-1.32.95-.69,1.34-1.1c.39-.4.75-.82,1.12-1.21s.92-.73,1.27-1.14c.38-.57.18-1.51.51-2.03.37-.59.7-1.14,1-1.67.35-.61.86-1.07,1.13-1.6.33-.64.13-1.44.36-1.97.3-.69,1.04-1.08,1.2-1.61.26-.82.85-1.5.87-1.96-.09-.42-.69-1.64-1.39-2.39-.58-.62-2.16-.35-2.62-.8-.45-.44-.38-1.41-.79-1.84-.36-.37-.06-.65-.42-1.02-.48-.51-1.41-.6-1.91-1.08s-1.25-.71-1.78-1.13c-.58-.46-.93-1.18-1.53-1.45-.27-.12-.11-.47-.38-.59-.63-.29-1.33-.59-2.01-.88s-1.68.22-2.33.01c-.79-.25-1.41-.04-2.01-.04-.03,0,0-.66-.03-.66-.42.4-.87,1.87-1.26,2.74-.35.78-1.11,1.4-1.55,2.19-.09.17.71.7.6.86s-.81-.35-.94-.21c-.47.53-.69,1.39-1.24,1.78s-1.71-.16-2.32.15-1.11.87-1.72,1.14c-.48.21-1.24-.03-1.7.2-.58.29-.65,1.38-.89,1.67-.31.37.11,1.13-.13,1.74-.19.49-1.39.67-1.58,1.23-.18.55-.55,1.05-.77,1.63-.21.55.27,1.41-.01,1.97s-.65,1.05-1.02,1.55c-.39.52-1.1.75-1.56,1.16s-.99.78-1.5,1.13c-.54.37-1.39.18-1.91.5-.47.28-.93.66-1.34.95-.53.36-.04,1.63-.25,1.97-.29.46-1.88.47-2.08,1.13-.17.57-.23,1.25-.38,1.89-.18.74-.15,1.56-.41,2.37-.24.75.64,2.01.28,2.75-.3.61-.63,1.21-.94,1.85s-.58,1.23-.87,1.87-.97,1.07-1.24,1.71-.23,1.38-.47,2.03c-.07.18-.11.23-.2.41s.08.35-.03.52c-.44.69-1.34,1.08-1.82,1.68-.5.63-1.71.64-2.22,1.23-.37.43.02,1.5-.32,1.91-.37.45-.91.71-1.2,1.15-.35.53-.48,1.17-.79,1.72s-.5,1.14-.81,1.71-1.61.56-1.91,1.13c-.32.6-.38,1.32-.7,1.92-.5.92-.08,2.37-.62,3.21-.41.64-1.99.55-2.35,1.17-.39.68.13,1.76-.08,2.42-.12.39.17,1.51.37,2.36.19.78-.73,1.81-.61,2.69.12.81,1.38,1.57,1.3,2.46,0,.07-.69,0-.7.07s1,.24.99.31c-.12.66-1.03,1.13-1.29,1.7-.27.6-.28,1.38-.65,1.89s-1.36.57-1.79,1.03c-.46.49-.81,1.04-1.25,1.46-.82.78-1.3,1.85-1.65,2.5-.27.5-.2,1.16-.46,1.7s-1.47.57-1.72,1.11c-.26.57-.54,1.14-.82,1.71s-.73,1.02-1.04,1.59-.67,1.01-1.02,1.56c-.26.41.81,1.1.55,1.51-.33.51-1.43.55-1.75,1.07s.06,1.48-.25,2-1.69.5-1.96,1.03c-.29.57.46,1.59.24,2.13-.21.74-1.25,1.19-1.51,1.91s.1,1.68-.18,2.39c-.24.62-.17,1.33-.38,1.92s-1.42.9-1.6,1.51c-.19.64.63,1.96.78,3.12.09.64-.54,1.37-.48,2.05.05.65.83,1.29.78,1.97s-.82,1.15-1.02,1.81c-.19.65-.5,1.11-.81,1.67-.32.59-.03,1.53-.41,2.05-.41.54-.55,1.3-.96,1.79-.76.9-1.73,1.53-1.91,2.17-.18.65-.2,1.79.05,2.94.12.55.33,1.11.43,1.71s-.64,1.18-.62,1.78,1.35,1.18,1.25,1.78c0,.98-1.29,1.88-1.39,2.94-.07.72.74,1.53.69,2.3-.04.72.13,1.43.15,2.21.01.61.04,1.33-.07,1.9s-.59,1.15-.79,1.7-1.08.88-1.3,1.41c-.2.49-.3,1.05-.46,1.51-.2.58-.51,1.22-.48,1.62.03.55-.2,1.1-.19,1.66s.47,1.09.48,1.65c.01.81-.51,1.62-.48,2.39.03.81.94,1.56,1.02,2.32.07.6.64,1.09.86,1.76.2.59.51,1.16.75,1.8.25.63.17,1.41.4,2.07s.45,1.32.6,2.01c.11.48-.18,1.27.19,1.81.31.44,1.02.66,1.4,1.13.43.54.78,1.15,1.18,1.74s.42,1.29.71,1.95c.28.64.61,1.2.79,1.82.2.68-.19,1.46-.05,2.08.2.84,1.78,1.34,1.95,1.58.64.43,1.14,1.8,2.25,1.8.87,0,1.72-1.03,2.63-1.32.64-.2,1.38-.45,2.26-.97.64-.38,1.39-.68,2.17-1.23-.02-.58-.56-1.4-.31-1.95.33-.82,1.9-1.02,2.32-1.74s.76-1.54,1.22-2.24c.39-.6,1.21-.96,1.55-1.54.37-.63.59-1.45.82-2.07.21-.58-.9-1.63-.69-2.23s1.34-.86,1.53-1.45.03-1.3.22-1.89,1.16-.95,1.34-1.54-1.09-1.65-.91-2.23c.23-.76,1.1-1.34,1.23-2.18.12-.79.08-1.62.18-2.46Z"/><path class="cls-1" d="M103.36,102.86c.55.02,1.1.92,1.71.96.56.04,1.04.63,1.62.74.08.01.39-1.42.47-1.4s-.27,1.4-.19,1.43c.86.25,1.65.23,2.15.92.19-.07.59.19.78.12.6-.23,1.05-1.03,1.74-1.25.63-.2,1.45.38,2.16.25.62-.11.41-1.31,1.02-1.42.62-.11,1.25-.09,1.85-.2s1.22-.18,1.81-.31,1.15-.39,1.74-.56c.69-.2,1.4-.34,2.09-.56s1.55.07,2.23-.18,1.27-.74,1.92-1.03c.43-.22.71.31,1.13.08.63-.34,1.08-.95,1.65-1.29.62-.36.69-1.43,1.22-1.82.57-.42,1.77-.08,2.2-.6.43-.52.75-1.07,1.21-1.51s.64-1.26,1.13-1.67.75-1.18,1.26-1.58c.84-.66,2.39-.38,3.14-1.08.06-.05.01-.08.07-.13.56-.47.54-1.61,1.07-2.04.57-.46,1.53-.39,2.08-.81.58-.45,1.02-1.05,1.56-1.46.6-.44,1.63-.22,2.17-.62.44-.32.03-1.7.46-2.13.39-.39,1.42-.2,1.83-.63.54-.59.68-1.65,1.33-2.26.59-.57,1.55-.76,2.27-1.25.44-.3.5-1.11.94-1.56.39-.4.98-.63,1.38-1.08.51-.57,1.07-1.18,1.68-1.79.56-.56,1.47-.71,2.15-1.2.5-.37.77-1.16,1.35-1.59.52-.39,1.6-.11,2.16-.54.52-.4.4-1.68.94-2.12s1.64-.15,2.16-.6c.12-.1.11-.01.24-.11s.04-.12.18-.2c.62-.35.81-1.59,1.45-1.79.67-.2,1.48.12,2.15.03.7-.1,1.43.32,2.09.26,1.15-.1,2.25-.82,2.95-1.14.52-.23,1-1.42,1.66-2.23.44-.54,1.67-.42,2.18-.96s.14-2.03.73-2.46,1.93.57,2.63.3c.81-.31,1.45-.79,2.25-.97s1.64-.35,2.45-.49c.62-.11,1.28,0,1.85-.12.62-.13,1.03-1.06,1.56-1.26.62-.23,1.01-.95,1.64-1.26.6-.29,1.8.59,2.42.27.63-.33.61-2,1.27-2.32s1.49-.3,2.18-.58c.54-.22,1.58.68,2.11.44s.92-.82,1.45-1.08,1.11-.38,1.65-.65c.87-.44,1.62-1.11,2.52-1.54.9-.43,1.8-.78,2.7-1.17.81-.35,1.7-.48,2.46-.83s1.38-1.16,2.1-1.6c.06-.04-.3-.68-.23-.72s.19.16.25.12c.57-.28,1.41.18,2,0s1.04-.99,1.64-1.11c.63-.12,1.21-.55,1.8-.64,1.08-.17,2.15.18,2.96-.1.47-.16,1.22.15,1.72-.1.46-.23.41-1.49.9-1.75.68-.36,1.51-.59,2.28-.95.72-.33,1.47-.85,2.27-1.09.64-.19,1.33-.3,1.95-.44s1.37.1,2-.03c.64-.13,1.46.64,2.06.5.64-.15,1.3-.43,1.87-.64.65-.23,1.3-.58,1.93-.86s.67-1.73,1.28-2.05,1.89.66,2.51.33c.48-.26.41-.39.89-.65.62-.33,1.09-.97,1.65-1.36s.72-1.3,1.25-1.74.55-1.19,1.07-1.67c.59-.92,2.35-.87,2.87-1.62.46-.66-.08-1.93.3-2.51.45-.7,1.1-1.14,1.35-1.76.4-.99.28-2.18.68-3.08.26-.57.73-1.18.99-1.84.34-.85.76-1.31.7-1.68-.14-.22-.37-.68-1.05-.93-.55-.2-1.3.13-1.73,0-.67-.21-1.03-1.31-1.68-1.55-.58-.21-1.19-.22-1.72-.51s-1.08-.56-1.59-.88c-.62-.39-1.47-.29-2.05-.58-.68-.35-1.16-1.8-1.79-1.8-.95,0-1.92.23-2.96.18-.53-.03-1.06-.23-1.6-.26s-1.1.91-1.63.91c-.88,0-1.56.43-2.25.52-.66.08-1.55-1.2-2.23-1.08s-1.24.76-1.92.9-1.09,1.35-1.76,1.5c-.84.18-1.8-.2-2.63-.03-.69.14-1.21.79-1.93,1.04-.67.23-1.57-.16-2.28.11-.67.26-1.08,1.3-1.77,1.54s-1.74-.7-2.46-.51c-.79.2-1.48.77-2.24.98s-1.43.89-2.19,1.11-1.46.76-2.22.99c-.71.21-.77.01-1.48.23-.77.23-1.33.73-2.05,1.06s-1.88-.22-2.57.15c-.57.3-.98.85-1.53,1.12s-.85,1.27-1.44,1.47c-.55.24-1.36-.15-1.92.01s-1.1.69-1.66.8c-.6.12-1.43-1.2-1.99-1.12-.65.1-1.26.5-1.85.62-.68.15-1.2.83-1.69,1.08-.43.22-.72.79-1.18,1.29-.38.4-.58,1-.98,1.47-.41.49-1.7.23-2.16.73-.44.47-.33,1.49-.84,1.92s-.77,1.3-1.37,1.63c-.67.37-1.55.33-2.21.75s-1.41.62-2.07,1.06c-.61.41-.98,1.22-1.61,1.63s-1.36.65-2.01,1.03c-.67.39-1.71.16-2.36.57s-.63,1.85-1.3,2.27c-.63.4-1.73.07-2.38.48s-1.07,1.14-1.73,1.52c-.66.39-1.46.43-2.15.62s-1.37,1.04-2.09,1.11-1.57-.7-2.28-.67c-.53.02-1.03.95-1.54,1-.66.06-1.57-1.07-1.89-.88-.5.29-.61,1.28-1.12,1.72-.46.39-.95.77-1.43,1.21-.44.41-1.53.11-2.02.53-.46.4-.78.89-1.3,1.26s-.83.86-1.38,1.17c-.53.29-1.11.39-1.65.64s-.7,1.43-1.25,1.65-1.3-.02-1.86.19c-.63.24-1.43-.01-2.02.22-.62.25-.68,1.68-1.25,1.97-.52.26-.98.51-1.52.88-.49.34-1.47.03-1.98.42-.45.34-.76.92-1.26,1.28-.47.33-1.44-.11-1.95.21s-.21,1.91-.75,2.17c-.51.37-1.84-.42-2.33-.01s-.94.89-1.41,1.32-.92.87-1.4,1.31c-.42.38-.11,1.57-.54,1.95-.49.44-1.83-.19-2.33.2s-.85.99-1.36,1.36c-.57.42-1.11.89-1.63,1.3-.56.45-.63,1.42-1.09,1.9-.34.36-1.14.51-1.44,1.04-.26.46.31,1.4.05,1.92-.35.69-1.61.93-2.05,1.66-.41.68.09,2.07-.47,2.7-.59.67-1.89.62-2.55,1.12-.72.54-1.08,1.56-1.77,2-.47.3-.93.56-1.34.86-.48.34-1.12.36-1.43.72-.52.6-.92,1.61-1.39,2.68-.24.54-.81.96-1.09,1.53-.27.54-.96.79-1.31,1.31s-.36,1.14-.79,1.6c-.51.54-.79,1.29-1.32,1.79s-.69,1.44-1.24,1.93-1.35.72-1.9,1.2c-.45.4-.46,1.25-.91,1.65-.47.47-2.06-.35-2.57.04-.54.42-.85,1.07-1.36,1.43-.6.42-1.6,1.27-1.99,1.66.08.41,1.38.79,1.83,1.53.29.47.61.91,1.08,1.48.37.45.5,1.07,1,1.57.36.22,1.52-.22,2.37-.2Z"/><path class="cls-1" d="M533.22,551.43c-.04-.12-.36-.05-.4-.18-.23-.84-.06-1.61,0-2.16-.16-.65-.37-1.13-.58-1.69-.24-.64.35-1.6.08-2.11-.32-.61-1.57-.57-1.91-1.03-.42-.58.13-1.88-.24-2.27-.45-.48-1.3-1.11-2.07-1.49-.64-.32-1.69-.29-2.53-.29-.48,0-1.21-.4-1.71-.26-.42.12,0,1.65-.43,1.77-.63.17-1.34.09-2,.28s-1.27.36-1.9.58-1.33.21-1.94.48-1.54-.03-2.11.31c-.6.35-.99,1.12-1.6,1.54-.58.4-1.39.5-1.99.94-.47.34-.63,1.1-1.11,1.44s-.68,1.08-1.17,1.4-1.31.11-1.81.4c-.47.27-.62,1.04-1.11,1.5-.43.41-1.24.48-1.67.93-.52.55-.69,1.52-1.28,2.07s-1.64.46-2.31.88-1.08,1.46-1.86,1.68c-.55.17-1.16.06-1.68.18-.55.13-1.29-.71-1.82-.6-.73.15-1.51.15-2.13.33-.73.2-1.41.87-1.96,1.22-.63.41-1.01,1.16-1.66,1.47s-1.08,1.25-1.75,1.53c-.64.27-1.86-.79-2.42-.52-.66.32-.59,1.7-1.04,2.09-.47.41-1.4,1.18-1.83,2.22-.25.61-.17,1.4-.48,2.04s-.26,1.51-.66,2.08-1.21.88-1.74,1.35c-.52.46-1.46.32-2.02.66s-1.35.2-1.96.46c-.64.28-1.12.81-1.73,1.03-.52.2-.83.91-1.29,1.11-.54.23-1.43-.12-1.81.15-.64.45-.68,1.73-1.31,2.13s-1.61.31-2.26.68-1.21.96-1.9,1.29-1.07,1.31-1.78,1.61c-.42.21-1.31-.34-1.77.03-.39.32-1.17.27-1.59.63-.44.39-.75.95-1.25,1.36-.47.38-1.07.48-1.6.83s-.29,2.02-.87,2.28c-.54.24-1.2.15-1.75.45-.52.28-1.51-.23-2.05.08-.71.41-.95,1.72-1.7,2.12s-1.54.72-2.34,1.04c-.55.22-1.29.04-1.92.15-.57.09-1.19.88-1.85.88-.87,0-1.76-.09-2.56-.16-.68-.06-1.25-.8-1.81-.8-.58,0-.76.33-.9.39-.78.3-1.72.03-2.49.23s-1.55.54-2.32.72c-.62.14-1.41-.45-1.99-.3-.62.16-.94,1.29-1.5,1.49-.67.24-1.41.26-2.08.49s-1.47.09-2.13.32-1.1,1.15-1.77,1.38c-1.02.35-1.15-.04-2.17.31-.47.16-.58,1.09-1.1,1.42-.45.28-1.47-.25-1.95.09-.47.33-.76.95-1.28,1.29-.49.31-.71,1.18-1.25,1.46s-1.29.13-1.86.33c-.64.21-1.16.7-1.8.95s-1.11.81-1.75,1.06c-.68.27-1.43.44-2.14.71s-1.44.47-2.15.71c-.71.24-1.7-.41-2.41-.22s-1.39.58-2.1.76c-.67.17-1.11,1.13-1.74,1.3s-1.31.25-1.94.46c-.56.19-1.17.54-1.72.65s-1.39-1.38-1.95-1.32c-.6.06-1.15.15-1.7.18-.6.04-1.06,1.43-1.6,1.5-.63.07-1.03.24-1.52.41-.44.15-1.34.77-1.94,1.49-.44.53-1.5.54-2,1.08s-.79,1.15-1.38,1.57-1.3.24-2,.49c-.93.33-1.46.94-1.83,1.17-.63.4-.04,1.12.02,2.12.02.44-.26.45-.23.89.03.59-.46,1.24-.41,1.85s.67,1.16.77,1.75.72,1.03.9,1.59c.19.6.23,1.07.54,1.57.34.55.44,1.12.91,1.49s1.01.62,1.57.89,1.17.34,1.74.56c.36.14.65.18.99.33.55.02,1-.21,1.53-.21.57,0,1.17.53,1.9.43.56-.08,1.18-.14,1.88-.34.69-.2,1.47-.19,2.18-.45s1.21-.93,1.91-1.21,1.37-.51,2.06-.8c.43-.18.7.48,1.13.3.63-.26.96-1.23,1.6-1.53s1.02-1,1.66-1.31c.56-.28,1.23-.38,1.81-.66s1.25-.35,1.84-.61c.62-.27,1.46.27,2.07.14.65-.14,1.18-1.15,1.81-1.19.67-.04,1.35.44,1.98.44,1.05,0,2.35.52,2.92.3.42-.16.24-1.57.72-1.91.4-.28,1.38.18,1.81-.15.5-.39.87-.99,1.42-1.37s1.16-.58,1.76-.86,1.18-.41,1.84-.55c.11-.02.1,0,.21-.02.4-.06.79.06,1.22.06.81,0,1.64-.43,2.4-.27.81.17,1.4,1.06,2.12,1.27,1.01.29,2.21-.34,2.93-.34.11,0,.34,1.08.42,1.06.54-.1,1.62-1.54,2.4-2.22.51-.44.86-1.14,1.43-1.58s.88-1.36,1.52-1.68,1.66.35,2.37.19c.68-.15,1.29-.69,1.99-.86s1.37-.28,2.08-.46c.67-.17,1.2-.94,1.91-1.12.67-.17,1.33-.43,2.04-.62.67-.18,1.58.15,2.34.15.71,0,1.43.24,2.1.35.71.12,1.44.16,2.08.31.92.22,1.82.42,2.47.42.22,0,.27.07.31.06.52-.17,1.33.6,1.86.44s.85-.96,1.38-1.12c.58-.17,1.25-.04,1.81-.21s.89-1.15,1.45-1.33.97-.77,1.52-.98c.52-.2,1.12-1,1.78-1.82.42-.52,1.3-.73,1.78-1.26s.56-1.54,1.12-1.98,1.5-.45,2.15-.75c.56-.25,1.42.46,1.99.31s1-.98,1.58-1.07c.61-.09,1.14-.81,1.71-.87.59-.07,1.4,1.5,1.93,1.41.64-.11,1.27-.69,1.7-.92.47-.24.71-1.05,1.19-1.5.41-.39,1.05-.61,1.48-1.06.56-.58,1.38-.92,2.05-1.52.61-.55.77-1.7,1.52-2.16.61-.37.97-1.06,1.56-1.53.56-.44,1.34-.62,1.92-1.12.5-.43,1.21-.63,1.74-1.06s.64-1.36,1.2-1.76c.5-.36,1.2-.47,1.73-.73s1.41.29,1.96.09c.58-.21.87-1.23,1.42-1.39.56-.17,1.13-.23,1.62-.41.61-.22,1.03-.48,1.39-.77.38-.31.91-.6,1.27-1.17.29-.46.49-1.04.79-1.57.28-.49.29-1.19.61-1.71.3-.49,1.61-.3,1.98-.78s-.2-1.7.24-2.12c.1-.1.41.21.52.12s.24.1.36.02c.63-.44,1.31-.57,1.99-.83.71-.27,1.27-.95,1.97-1.09.77-.15,1.49-.44,2.18-.53,1.08-.15,2.67.52,3.17.22.65-.39.68-1.73,1.31-2.18s1.01-1.15,1.63-1.62c.52-.39,1.16-.64,1.7-1.03s1.87.41,2.42.05c.42-.28-.03-1.73.39-2.26.35-.43,1.02-.65,1.39-1.15.44-.6,1.56-.72,2.08-1.36.48-.59.71-1.36,1.32-1.9.06-.06.36.34.42.28s-.31-.51-.24-.56c.55-.4.97-.91,1.47-1.25.74-.5,2.53-1.12,2.69-1.41.04-.56-.45-1.49-.64-2.21-.16-.6-1.2-.95-1.45-1.59s-.29-1.18-.56-1.77c-.12-.15.01-.28-.03-.4Z"/><path class="cls-1" d="M274.18,636.78c-.09-.14.37-.41.28-.56-.36-.6-1.19-.92-1.55-1.5-.39-.62-.3-1.6-.71-2.1-.5-.6-1.48-.75-2.01-1.03-.24-.12-.81.68-1.03.52s.05-.61-.14-.81c-.11-.11.37-.89.39-.89-.06-.03-.73.16-.88.09-.74-.29-1.93.27-3.11.19-.81-.06-1.65-.54-2.53-.68-.82-.13-1.4-1.1-2.22-1.4-.51-.19-1.16-.54-1.78-.66-.55-.1-1.35,1.01-1.95.92-.7-.1-1.48-.17-2.25-.32-.72-.14-1.14-1.42-1.87-1.66-.66-.22-1.73.73-2.35.47s-1.13-.89-1.75-1.16c-.61-.27-1.23-.49-1.81-.73-.62-.25-.99-1.26-1.6-1.43-.6-.17-1.31.14-1.84-.13-.55-.28-1.12-.52-1.61-.85-.52-.35-1.01-.72-1.48-1.07-.9-.68-1.92-.93-2.57-1.09-.56-.14-1.03-.99-1.68-1.05-.59-.05-1.21-.37-1.85-.39-.73-.03-1.43-.17-2.18-.23s-1.36-.19-2.11-.35c-.77-.16-1.47-.23-2.17-.48-.76-.26-1.81.35-2.49.08-.57-.23-1.26,0-1.79-.19-.6-.21-.87-1.23-1.4-1.32-.59-.09-1.27-.13-2.12-.13-.62,0-1.23.17-1.85.19-.68.02-1.36-.83-2.03-.83s-1.24.33-1.79.28c-.35,0-.35.47-.69.5-.66.05-1.31.41-1.99.45s-1.35.53-2.03.53c-.62,0-1.19-.95-1.74-.99-.61-.05-1.14-.28-1.69-.38-.59-.11-1.03-.51-1.58-.68-.59-.18-1.23-.3-1.88-.52-.6-.2-1.53.46-2.17.22-.6-.23-1.32-.27-1.93-.53s-.97-1.07-1.56-1.37-1.29-.4-1.86-.73c-.46-.27-.68-.96-1.16-1.22s-.74-.89-1.22-1.14c-.59-.31-1.71.37-2.31.04s-1.09-.83-1.67-1.18-.85-1.15-1.41-1.54c-.66-.46-1.38-.78-1.96-1.27s-1.05-1.19-1.61-1.71c-.51-.47-1.12-.82-1.61-1.23-.54-.46-.97-1.07-1.5-1.4-.07-.04-.5.61-.57.56-.7-.48-.7-1.85-1.36-2.42s-1.63-.69-2.28-1.29c-.56-.52-.75-1.48-1.34-1.99s-1.45-.72-2.06-1.19c-.59-.44-1.79-.06-2.41-.5s-.45-1.96-1.08-2.4-1.64-.25-2.27-.68c-.74-.5-1.14-1.51-1.88-2.02-.65-.45-2.02.24-2.72-.17s-.84-1.75-1.55-2.13-1.57-.46-2.28-.82c-.59-.3-1.24-.47-1.82-.77-.63-.33-1.04-1.05-1.64-1.33-.64-.3-1.23-.72-1.85-.96-.66-.27-1.23-.8-1.87-1.01-.67-.22-1.53.14-2.18-.02-.28-.02-.6.67-.92.67-.48,0-1.1-.45-1.84-.38-.56.05-1.28-.45-1.94-.32-.58.11-1.02.98-1.64,1.17-.57.17-.96.78-1.54,1.03-.76.33-1.57.27-2.14.79s-.7,1.35-1.16,2.02c-.43.63-2.06.68-2.46,1.4-.19.7.43,1.73.64,2.7.13.62,1.26,1.07,1.58,2,.23.66-.37,1.6-.22,2.26s.35,1.36.45,2.02c.1.71.85,1.32.92,1.97.08.64-.57,1.34-.48,1.93.1.64-.33,1.39-.18,1.96.17.63.81,1.13,1.1,1.65.44.53,1.3.67,1.84,1.16.51.46.49,1.64,1.08,2.06s1.42.44,2.05.79,1.45.22,2.11.5c.37.16.72,1.22,1.34,1.29.5.05,1.06.24,1.6.28.7.05,1.54-.99,2.31-.9.72.09,1.58-.07,2.31.13s1.33.87,2.01,1.22c.63.34,1.44.63,2,1.16.05.05-.34.45-.29.5.55.56,1.08,1.06,1.56,1.54.56.55,1.15.99,1.64,1.46.56.54.82,1.33,1.33,1.8.56.51,1.47.57,2.01,1.02.73.61,1.37,1.27,2.03,1.87.46.42,1.4.22,1.82.58.46.4.32,1.45.78,1.78s1.01.58,1.54.83c.77.37,1.66.59,2.29,1.11.66.55,1.49.96,2.05,1.51.49.48.68,1.22,1.14,1.61.57.48,1.13.31,1.68.43.13.03-.2,1.35-.07,1.38s.54-1.17.67-1.12c.67.26.92,1.77,1.6,1.94s1.49-.16,2.19,0c.76.17,1.41.79,2.19.99s1.48.27,2.24.57c.65.26,1.62-.37,2.32-.17s1.2.96,1.9,1.13c.75.19,1.42.72,2.19.94s1.86-.65,2.62-.36c.76.29,1.5.73,2.18,1.1s1.47.71,2.13,1.12c.62.39,1.26.65,1.86.99.64.35.85,1.56,1.51,1.78.82.28,1.85.01,2.71.31.65.23,1.12.98,1.78,1.21s1.4.15,2.08.38,1.05,1.27,1.73,1.48c.12.04.63-1.46.74-1.41s-.47,1.43-.36,1.48c.65.3,1.41.46,2.1.73s1.56-.07,2.26.19c.66.24,1.19.87,1.87,1.14s1.36.39,2.03.69c.64.28,1.33.43,1.95.74s1.02,1.05,1.63,1.37c.69.37,1.26.96,1.92,1.29.7.35,1.61.3,2.3.56.5.19,1.15.85,1.83.91.58.05,1.27-.69,1.91-.66.81.03,1.72-.43,2.61-.34.83.09,1.53.96,2.37,1.22.68.2,1.18.73,1.81.98s1.82-.74,2.44-.47c.69.3,1.25.8,1.91,1.05.72.27,1.22,1.07,1.89,1.2.19.04.42.61.66.61.83,0,1.66-1.71,2.73-1.93.68-.14,1.5.05,2.26-.06.71-.1,1.51-.33,2.26-.33.19,0,.4.32.6.34.65.03,1.28.25,1.9.34s1.37-.4,1.98-.3c.62.1,1.17.36,1.75.44.62.08,1.15,1.32,1.73,1.32.28,0,.55-.58.83-.61.07,0,.05-.68.12-.68.25,0,.27.9.53.9.59,0,1.24-.17,1.92-.14.68.02,1.41.51,2.14.51.56,0,1.2-1.18,1.92-1.26.66-.07,1.53.82,2.14.62.64-.21,1.11-.85,1.68-1.07.65-.25,1.09-.84,1.63-1.08.66-.3,1.42-.2,1.91-.47.77-.41,1.89-.49,2.2-.75.14-.6.39-1.74.35-2.6-.04-.73-.79-1.49-.89-2.24-.11-.82-.8-1.51-.91-2.16-.09-.55-.6-.94-.81-1.56-.18-.53,1.07-1.66.81-2.26-.23-.52-1.3-.69-1.6-1.26-.27-.51-.39-1.13-.72-1.68Z"/><path class="cls-1" d="M623.63,375.04c0-.52.38-1.23.23-1.87-.13-.54-.64-1.04-.8-1.63-.17-.58-.31-1.19-.47-1.83-.14-.6-.39-1.18-.47-1.83s-.54-1.24-.51-1.89c.02-.63.39-1.26.38-1.91s.68-1.29.66-1.94c-.03-.84-.6-1.68-.61-2.55s-.34-1.71-.29-2.58c.02-.38.3-.73.38-1.03-.34-.52-.7-1.22-1.18-1.81-.35-.44-.73-.88-1.1-1.37-.34-.46-.55-.99-.86-1.51-.3-.49-.74-.88-.98-1.43-.29-.67-.9-1.24-1.01-1.91-.11-.71-.22-1.47-.21-2.15s.47-1.42.53-2.09c.09-1.09.39-2.41.19-2.99-.23-.66-.63-1.23-.79-1.87-.17-.67-.41-1.31-.52-1.97s-.49-1.32-.57-1.98-.06-1.37-.13-2.03c-.03-.32.63-.42.57-.73-.17-.59-.44-1.44-.78-2.1-.37-.72-.71-1.8-1.05-2.22-.3-.07-1.28.31-2.15.26-.46-.02-1.02-.61-1.7-.61-.43,0-2.24,1.55-2.71,1.55-.85,0-1.69-.66-2.47-.71-.65-.04-1.22-.78-1.79-.8-.65-.02-1.27.22-1.84.22-.66,0-1.28-.51-1.78-.48-.73.04-1.09,1.09-1.51,1.16-.08.52-.85.95-.88,1.55-.02.55,1.18,1.16,1.17,1.75-.01.72-.93,1.43-.97,2.17s.3,1.49.19,2.22c-.12.83-.56,1.58-.78,2.36s-.12,1.7-.37,2.47c-.25.73-1.55,1.13-1.74,1.81-.22.77.4,1.73.38,2.4-.02.57.92,1,1.15,1.71.19.6-.22,1.43.03,2.08.23.6.84,1.11,1.06,1.76s.53,1.31.65,1.97-.54,1.43-.56,2.1c-.01.55.06,1.08,0,1.59-.06.55.41,1.16.34,1.65-.09.66-1.26,1.14-1.3,1.69-.04.64.43,1.28.57,1.86.18.75,1.07,1.42,1.13,2.15s-.68,1.56-.67,2.3c0,.6-.23,1.2-.2,1.77.03.6,1,1.02,1.13,1.58.02.07-.12.12-.11.19.14.74-.44,1.59-.34,2.32s.53,1.43.59,2.17-.32,1.49-.3,2.24.27,1.46.25,2.22c-.02.92.15,1.83.17,2.74.02.66-.29,1.33-.29,2.01s0,1.32-.04,2-.27,1.28-.37,1.96c-.13.86-.81,1.47-1.06,2.25-.27.84.1,1.84-.18,2.58-.22.56-.66,1.03-.84,1.56-.2.58-.62,1.16-.72,1.69-.11.62-.05,1.29-.14,1.92s0,1.28-.07,1.92-.67,1.21-.73,1.85.4,1.31.34,1.95c-.04.4.11.39.02.77-.2.91-.05.94-.3,1.84-.21.75-.06,1.58-.25,2.31s-.13,1.53-.29,2.26-.7,1.4-.8,2.14c-.09.64-.03,1.91.36,3.01.22.62.85,1.14,1.04,1.82s-.72,1.48-.63,2.17,1.42,1.29,1.35,1.99c-.06.56-.3,1.1-.33,1.68s-.97,1.09-1,1.68c-.03.62.88,1.29.85,1.92s-.48,1.22-.54,1.85.13,1.28.03,1.91c-.09.59.17,1.27.06,1.91-.1.6-.88,1.1-1,1.73s-.17,1.23-.3,1.84-.61,1.13-.77,1.74-.37,1.18-.55,1.78c-.13.51.52,1.23.39,1.73s-1.41.71-1.54,1.21c-.21.8.91,1.95.7,2.77s-1.12,1.44-1.3,2.26c-.17.75.52,1.77.29,2.5s-.48,1.51-.75,2.23-1.84.93-2.13,1.64c-.28.69-.51,1.4-.78,2.09-.26.67-.69,1.11-1.06,1.69s.33,2.01-.12,2.54c-.47.55-1.13.95-1.59,1.44-.75.81-1.88,1.19-2.43,1.97-.06.08.09.19.02.27s.17.29.1.37c-.48.55-1.09,1.02-1.52,1.78-.37.65-1.24,1.13-1.56,1.92-.29.71.05,1.68-.2,2.49-.19.64-.12,1.22.05,2.03.14.66.55,1.28.79,2.04.21.68-.05,1.5.12,2.17.08.33.6.21.68.54.22.91.59,1.45.79,1.99.31.84-.04,1.51.59,1.92.83.37,1.67.86,2.95.86.48,0,.93-.92,1.4-.93.54-.02,1.1.84,1.63.84.41,0,.84-.44,1.24-.41.62.05,1.18.46,1.75.56.62.11,1.09.8,1.64.92.97.2,2.04.4,2.73.4.45,0,.62-.88.76-.96.65-.33,1.22-.82,1.83-1.38.55-.5.9-1.21,1.43-1.82.5-.57,1.13-1.05,1.64-1.67.21-.25.35-.13.56-.38.36-.44.18-1.2.49-1.73.28-.49.7-.88.96-1.44.24-.51,1.52-.57,1.77-1.13.39-.86,0-2.1.43-2.97.38-.76,1.09-1.31,1.58-1.96.52-.69,1.47-.97,1.98-1.57.44-.5.25-1.53.61-2,.44-.57.84-1.06,1.02-1.58.24-.7.33-1.46.45-2.25.12-.73-.22-1.55-.13-2.34.08-.68,1.2-1.25,1.3-1.95s-1.1-1.64-.94-2.33c.19-.81,1.47-1.43,1.55-2.29s-.64-1.76-.59-2.6c.04-.61-.31-1.28-.25-1.9s.75-1.21.84-1.81c.03-.2.88,0,.93-.19s-.5-.34-.42-.53c.26-.64.49-1.27.79-1.87s.35-1.36.65-1.95c.37-.71,1.55-1.01,1.87-1.69.35-.74.79-1.51,1-2.22.2-.67-.36-1.55-.12-2.19s.88-1.14,1.13-1.76c.3-.74.62-1.47.87-2.17.27-.76-.16-1.69,0-2.42.14-.64.05-1.28.07-2.02.02-.67.91-1.36.9-2.08,0-.76.22-1.52.25-2.31s.05-1.47.16-2.26c.09-.61.18-1.11.35-1.67s-.88-1.61-.65-2.15c.24-.57,1.79-.56,2.03-1.08.26-.58.4-1.23.61-1.77.25-.63.13-1.4.17-1.93.06-.59-.2-1.26-.28-1.95-.07-.62.02-1.29-.09-1.96-.13-.82-1.05-1.58-1.13-2.44s.41-1.74.45-2.61c.04-.71-.12-1.43-.06-2.13s.27-1.4.34-2.09c.08-.79.56-1.53.63-2.28s-.22-1.58-.2-2.35c.02-.56-.58-1.05-.7-1.71-.11-.58.54-1.34.39-1.97-.13-.56-.2-1.15-.32-1.76-.12-.57-1.12-1.04-1.19-1.65s1.33-1.25,1.34-1.85c.01-.69-1.36-1.53-1.22-2.17s1.43-1.02,1.66-1.63c.24-.65.57-1.22.82-1.81.23-.54-.61-1.48-.43-1.96.22-.61,1.12-.91,1.13-1.36Z"/><path class="cls-1" d="M92.6,536.67c-.46-.82-.6-1.89-1.02-2.81-.32-.7-1.06-1.24-1.41-1.98s.6-2.13.22-2.83-1.75-.85-2.2-1.49c-.47-.61-1.04-.9-1.24-1.35-.44-.62-.44-1.73-1.14-2.44-.41-.42-1.49-.25-1.92-.72-.4-.44-.46-1.24-.84-1.74s.2-1.52-.11-2.07c-.32-.57-1.97-.4-2.28-.97s-.29-1.34-.6-1.91.25-1.61-.05-2.18-1.22-.83-1.52-1.41c-.37-.74-.92-1.42-1.14-2.16-.23-.8.36-1.77.2-2.51-.23-1.08-1.24-1.83-1.59-2.51-.24-.46-.3-1.02-.69-1.47-.35-.4-.9-.64-1.3-1.06-.44-.46-.78-1.05-1.21-1.55s-1.14-.8-1.51-1.36c-.34-.51-.12-1.39-.43-1.93s-1.19-.78-1.47-1.34-.49-1.16-.75-1.72-.01-1.36-.26-1.92c-.25-.56-.92-.94-1.18-1.5s.07-1.41-.2-1.95c-.3-.6-.84-1.1-1.16-1.71-.3-.58-.04-1.47-.35-2.08s-1.22-.89-1.5-1.51-.18-1.37-.41-2-.85-1.14-1.02-1.79-.65-1.29-.73-1.96c-.08-.7.95-1.47.92-2.14s-.58-1.36-.59-2.04c-.01-.73-.14-1.44-.18-2.13-.04-.73-.64-1.34-.75-2.01-.11-.64-.22-1.39-.21-2.01s-.03-1.38.07-1.99c.1-.64,1.05-1.14,1.17-1.73.11-.53-.53-1.18-.46-1.68.09-.62,1.45-1.19,1.36-1.58-.1-.45-.43-1.12-.75-1.67-.26-.45-.56-.96-.88-1.44-.32-.49-1.86-.24-2.18-.78-.3-.51.58-1.68.32-2.25s-1.06-.86-1.21-1.47c-.14-.54-.48-1.03-.76-1.62-.25-.53-.39-1.13-.69-1.68-.36-.69-.26-1.65-.62-2.44-.33-.73-1.18-1.28-1.41-2.09-.16-.57-.67-1.12-.75-1.68s0-1.23-.03-1.8c-.03-.6,1.24-1.21,1.23-1.77,0-.61-1.66-1.14-1.69-1.7-.04-.63.76-1.28.61-1.79-.17-.56-.94-1.02-1.03-1.59s.86-1.29.82-1.85c-.04-.6-.5-1.15-.53-1.7-.03-.6-.01-1.19-.06-1.74-.05-.62.66-1.47.53-1.99-.32-.81-1.78-1.23-2.02-2.02-.26-.85.45-1.95.24-2.72-.19-.68-.61-1.28-.8-1.9-.22-.71-1.16-1.08-1.41-1.64-.24-.52-.72-.33-1.76-.62-.62-.18-1.32-.39-2.2-.57-.59-.12-1.04-1.02-1.63-1.16-.68-.09-1.24-.32-1.77-.44-.69-.15-1.59.68-2.08.51-.71-.25-.95-1.31-1.38-1.52-.48-.23-.61.08-.82.07-.14,0-.28-.6-.43-.6-.69,0-1.28-.27-1.96-.39s-1.51.54-2.17.39c-.54-.13-1.12.01-1.66-.08-.57-.1-1.01-.46-1.54-.46,0,0,0,.08,0,.08-.71.02-1.3.47-1.92.55-.75.1-1.62-.96-2.19-.81-.99.26-1.74.81-1.94.99-.23.37-.49,1.32-.5,2.3,0,.69,1.03,1.43,1.07,2.18.05.81-1.13,1.68-1.07,2.3.05.59,1.06,1.08,1.1,1.63.04.59-.91,1.2-.89,1.75,0,.08,1.24.08,1.24.16s-.99.04-1,.12c-.03.4,1.19.73,1.5,1.37.24.5-.82,1.75-.54,2.25.32.57,1.04.93,1.35,1.57s1.17.98,1.38,1.64.35,1.36.41,2.06c.06.68.23,1.41.16,2.06s-1.27,1.13-1.42,1.76c-.16.66.65,1.57.47,2.18-.17.59.05,1.26-.08,1.82-.16.7-1.71,1.3-1.62,1.75.15.71,1.68,1.05,1.99,1.81.28.68-.56,1.89-.23,2.61.33.71.53,1.46.84,2.21s1.51,1.11,1.74,1.88c.18.6-.22,1.37-.03,1.97s.16,1.27.36,1.86,1.08.96,1.28,1.55-.5,1.51-.3,2.1.56,1.13.76,1.72c.04.13,1.47-.27,1.5-.14.26,1.3.03,1.35.28,2.66.14.73.46,1.44.59,2.18s-.99,1.72-.85,2.46,1.67,1.21,1.81,1.95c.12.58-.46,1.31-.42,1.89s-.5,1.19-.51,1.76c0,.6-.31,1.17-.33,1.72-.03.69.72,1.39.73,2.02.01.72-.77,1.59-.62,2.17.13.49.49,1.34.91,1.92.34.47,1.97.02,2.38.52.37.46.36,1.27.74,1.78s-.17,1.53.15,2.07,1.52.56,1.74,1.15c.22.57.27,1.2.56,1.75s0,1.43.32,1.96,1.29.63,1.63,1.15c.53.82,1.05,1.65,1.56,2.51.39.67.02,1.64.29,2.32.3.73,2.03.91,2.25,1.58.23.68-1.08,1.9-.84,2.47.29.69,1.48.84,1.89,1.28.06.07.32-.15.38-.08.44.52-.09,1.76.28,2.29s1.66.52,1.99,1.09.59,1.22.89,1.81.85,1.07,1.15,1.66c.35.71.84,1.33,1.22,2.05.27.51.07,1.28.34,1.78.32.59,1.12.94,1.44,1.55s-.18,1.62.12,2.24.55,1.23.82,1.86.95,1.09,1.18,1.74c.26.74.56,1.42.92,2.13s.44,1.52.85,2.21.2,1.7.62,2.39c.3.49,1.85.24,2.14.73.28.47-.49.92-.21,1.39.39.67.76,1.34,1.16,1.96.42.65,1.52.71,2.01,1.25.51.57.94.86,1.59,1.24.7.4,1.45.92,1.99,1.4.59.52.7,1.59,1.17,2.15.5.61.44,1.61.86,2.2.47.65,1.73.6,2.21,1.15.3.34,1.02,1.36,1.85,1.67.64.24,1.45.24,2.14.57.65.3,1.54.36,2.14.81s1.33.94,1.78,1.55c.37.5-.57,1.76-.32,2.3s1.8.6,1.97,1.17c.19.6-.08,1.33.07,1.89.21.8.79,1.59,1.09,2.09.22.1-.09,1.25.02,1.25.56,0,1.21-1.29,1.94-1.81.67-.48,1.11-1.25,1.57-1.65.51-.44,1.84,0,2.29-.45.48-.48.84-1.13,1.25-1.62.45-.53.05-1.67.4-2.19.4-.58.85-1.02,1.11-1.57.3-.61.15-1.42.41-2.08s1.62-.96,1.77-1.62c.16-.71-.04-1.53-.1-2.2-.05-.58-.08-1.39-.42-2.08-.28-.57-1.51-.7-1.86-1.32Z"/><path class="cls-1" d="M579.35,195.72c.43.66,1.79.64,2.35,1.28.52.6.04,2.14.62,2.75.29.31,1.2.43,1.49.75.35-.44.24-1.56.62-2.03s.95-.73,1.35-1.17,1.54-.07,1.97-.46c.51-.46.68-1.27,1.26-1.66s1.21-.66,1.81-.99.92-1.29,1.52-1.59c.67-.35,1.08-.87,1.66-1.24-.04-.62-.15-.84-.29-1.61-.13-.67.36-1.49.19-2.2s-.46-1.38-.63-2.03c-.11-.43.43-.56.32-.99-.15-.62-.82-1.13-.99-1.77s-.48-1.21-.66-1.85.15-1.39-.03-2.03.27-1.42.09-2.06c-.1-.38-1.51.01-1.61-.37-.12-.42.02-.93-.29-1.44-.25-.42.1-1.27-.2-1.72-.37-.55-1.78-.49-2.13-1.1-.34-.58.38-1.72.11-2.37s-1.63-.96-1.75-1.66c-.09-.52.21-1.12.11-1.65-.12-.65.66-1.47.55-2.13s-1.17-1.16-1.25-1.82.55-1.39.52-2.05.13-1.29.17-1.96c0-.64-1.16-1.39-1.19-2.19-.02-.7.05-1.41-.03-2.15s-.27-1.36-.43-2.06c-.16-.55.61-1.3.5-1.84s.04-1.13-.04-1.67c-.11-.68-1.19-1.15-1.33-1.74-.17-.74-.22-1.24-.56-1.65-.51-.62-1.25-1.01-1.78-1.6-.47-.53-.39-1.56-.86-2.12s-.89-1.09-1.32-1.69-1.33-.84-1.7-1.48c-.33-.54-.45-1.21-.71-1.74-.27-.56-.09-1.31-.31-1.87s-.55-1.1-.75-1.67c-.28-.78-.11-1.7-.42-2.42-.18-.41-1.34-1.16-1.98-1.71-.45-.38-1.58-.08-2.04-.52-.43-.42,0-1.65-.38-2.15-.36-.48-.99-.76-1.24-1.35-.28-.65-.76-1.24-.92-1.88-.18-.7-.49-1.36-.6-2-.21-1.13.7-2.71.31-3.29-.03-.05-.04-.02-.07-.07-.29-.47-.9-1.06-1.41-1.51-.44-.39-1.17-.53-1.68-.93-.57-.45-.93-1.17-1.53-1.71-.56-.5-1.8-.32-2.3-.93-.42-.52-1.02-1-1.3-1.57s-.38-1.33-.58-1.93c-.22-.63.71-1.59.54-2.19-.31-1.11-1.71-1.92-2.14-2.39-.41-.44-.56-1.19-1.08-1.61-.47-.39-.83-.98-1.35-1.37-.63-.48-1.16-1.07-1.8-1.6s-1.22-.93-1.8-1.53c-.42-.43-1.07-.6-1.43-1.05s-.96-.76-1.29-1.24-.18-1.31-.5-1.79c-.33-.5-1.49-.41-1.81-.87-.35-.49-.05-1.43-.42-1.86-.6-.7-.98-1.61-1.66-2.32-.45-.48-.83-1.02-1.29-1.52s-.78-1.03-1.2-1.56-.65-1.08-1.03-1.65c-.43-.62-1.03-1.21-1.51-1.84s-2.02-.34-2.54-.93-.16-1.95-.7-2.51c-.41-.43-1.99-.22-3.1-.54-.5-.14-.93-.66-1.47-.83s-1.41.53-1.91.3c-.72-.31-1.11-1.36-1.72-1.83s-.92-1.3-1.48-1.82c-.37-.34-.75-.77-1.14-1.1-.49-.41-1.02-1.19-1.37-1.27-.16-.04-.52.39-.72.39-.55,0-.93,1.24-1.59,1.46-.59.2-1.79-1.14-2.36-.91-.59.24-.26,1.66-.78,1.83-.02.61-.87,1.21-.85,1.85,0,.07-.1.06-.1.14,0,.72.54,1.41.56,2.1s.05,1.4.1,2.09.74,1.29.85,1.98-1.08,1.63-.91,2.32c.21.81,1.68,1.4,1.76,2.2.08.85-1.3,1.77-1.27,2.54.02.74.27,1.47.34,2.13.08.78.39,1.56.66,2.12.33.69.74,1.45,1.25,2.13.46.62,1.76.63,2.29,1.27.46.56-.15,1.99.3,2.59s1.39.76,1.8,1.4c.46.71,1.6.99,2.05,1.71.41.65.6,1.42,1,2.05s.63,1.39,1.05,2.01.75,1.31,1.2,1.91c.07.09-.03.16.03.25.27.41.8.65,1.15,1.07.32.39.34,1.06.7,1.46.43.48.88.96,1.32,1.49s.89.97,1.27,1.54.94,1.01,1.22,1.63c.27.62-.24,1.55.02,2.1.28.61.81,1.07,1.09,1.62.3.59.18,1.39.48,1.93s1.17.83,1.5,1.37c.18.3.94-.15,1.13.15.35.59-.37,1.78-.05,2.28.36.55,1.07.84,1.49,1.31s1.15.53,1.69.94c.07.05-.38.62-.32.67.49.41.81.8,1.16,1.29.36.52.79.92,1.04,1.46.27.59,1.38.82,1.58,1.35.24.63-.48,2.42-.23,2.66.47.44.79.91,1.19,1.35.43.48.68.98,1.05,1.46.39.5,1.95.13,2.29.63s.34,1.28.67,1.79c.05.08.24-.02.29.07.38.67.48,2.05,1.39,2.83.5.43,1.34.5,1.84.99.48.46.81,1.06,1.23,1.61.4.53.72,1.07,1.03,1.71.25.52,1.05.78,1.37,1.32.3.5,1.06.73,1.39,1.26.31.49.2,1.26.51,1.77s.9.87,1.18,1.39-.47,1.53-.24,2.08c.48,1.13.65,1.06,1.13,2.18.28.64.14,1.46.41,2.11s.49,1.31.76,1.95,1.31.97,1.58,1.62c.25.6.75,1.1.99,1.71s-.22,1.48.02,2.09c.29.74.29,1.59.58,2.33s1.04,1.3,1.35,2.03c.24.57.26,1.16.4,1.73s.35,1.15.43,1.73c.08.62-.45,1.26-.4,1.84.05.59.58,1.14.65,1.66.09.63.86,1,1.06,1.44.33.72.33,1.57.56,2.29s.49,1.48.7,2.2c.19.67.4,1.3.6,1.91.22.68.22,1.41.51,1.96.25.47.82.82,1.3,1.3.4.41,1.26.37,1.73.8.58.53,1.28,1.11,1.88,1.74.56.59.2,1.98.66,2.7Z"/><path class="cls-1" d="M349.69,13.54c.01.07-.29.11-.27.18.1.65.32,1.39.47,2.17.13.7,1.22,1.2,1.43,1.92s-.07,1.55.24,2.21c.32.69.31,1.65.77,2.18.37.43,1.33.26,1.97.53.54.23,1.24-.09,1.88.07s.97,1.41,1.57,1.53c.53.11,1.18-.39,1.67-.27.54.12,1.27-.35,1.74-.19.57.18.82,1.36,1.38,1.45s1.15.69,1.76.69c0,0,0-.51,0-.51.93,0,1.99.23,2.93.13.68-.07,1.33-.16,1.96-.23.67-.07,1.23-.94,1.87-1.02s1.36.21,2,.11,1.19-.74,1.84-.87c.4-.08.4-.06.79-.14.67-.14,1.35-.39,2.06-.53s1.49.38,2.2.27,1.35-.55,2.06-.61,1.43.6,2.13.6c.69,0,1.43-.89,2.11-.78s1.17,1.01,1.83,1.21,1.46-.06,2.1.2,1.17.76,1.78,1.06,1.57-.06,2.17.26c.5.25.75,1.01,1.3,1.24.52.21.92.77,1.47.98.53.2.9.82,1.45,1.04s1.44-.47,1.98-.23,1.18.28,1.69.56c.52.29.84.95,1.38,1.23s1.16.34,1.72.62c.72.36,1.22,1.18,1.96,1.56s1.66.37,2.37.78c.74.44,1.11,1.37,1.73,1.89.67.56,2.04.31,2.62.85.44.42.56,1.13.98,1.5.47.41.79.91,1.25,1.18.54.32,1.36.19,1.9.52s1.11.61,1.64.95c.66.42.77,1.68,1.4,2.07s1.42.62,2.08.98c.65.36,1.29.68,1.88,1.07s1.26.74,1.83,1.16c.56.4.64,1.48,1.17,1.83.58.39,1.62,0,2.18.28.51.25.95.95,1.61,1.11.57.14,1.14.66,1.77.78.74.14,1.57-.21,2.34-.03.72.18,1.28.7,2.02,1,.34.14.64-.59.99-.45.61.26,1.15.6,1.68.79.68.24,1.28.42,1.8.42.17,0,.25-.26.41-.29.42-.14.97-.35,1.56-.8.45-.34,1.17-.46,1.65-.87s.38-1.45.81-1.84c.68-.61,1.84-.71,2.53-1.3.46-.38.77-.95,1.23-1.36s1.51-.23,1.92-.66c.44-.45-.2-1.8.15-2.27.39-.52.92-.73,1.12-1.26.05-.57-.48-.76-.81-1.4-.25-.49-.2-1.14-.62-1.72-.33-.46-1.05-.68-1.47-1.22-.27-.35.1-.64-.18-.99-.4-.51.17-1.67-.18-2.2s-2.04-.26-2.36-.8.05-1.51-.26-2.06c-.33-.6-1.15-.89-1.47-1.43-.36-.61.28-1.86-.08-2.34-.46-.53-1.08-1.31-1.75-1.76-.6-.4-1.36-.73-2.03-1.12-.49-.28-1.02-.48-1.51-.78s-1.49.2-1.96-.15c-.52-.39.14-1.28-.38-1.67-.61-.46-2,.18-2.6-.25s-1.15-.94-1.77-1.33-1.21-.82-1.87-1.14c-.56-.27-.89-1.05-1.47-1.3s-1.35.04-1.94-.19-.78-1.49-1.37-1.7-1.71,1.06-2.3.84c-.39-.14-.15-.82-.54-.97-.81-.29-1.83-.19-2.55-.58s-1.61-.68-2.31-1.11c-.55-.34-.73-1.23-1.25-1.52-.58-.33-.8-1.52-1.34-1.71-.51-.18-1.36.57-1.95.45-.54-.11-1.11-.18-1.7-.28-.56-.09-1.26.31-1.86.19-.57-.11-.8-1.71-1.39-1.87s-1.21.08-1.78-.14c-.69-.23-1.49-.03-2.11-.21-.7-.2-1.39-.24-2.02-.38-.71-.16-1.39-.14-2.02-.22-.72-.09-1.36-.16-2.01-.16-.42,0-.77.51-1.17.55-.49.05-.95-.02-1.52.15-.5.14-1.09.07-1.63.24-.64.21-1.64-.68-2.34-.49-.66.18-1.15,1-1.86,1.12-.68.11-1.35-.36-2.08-.36-.77,0-1.54.71-2.17.58-.81-.14-1.53-.56-2.26-.81-.78-.27-1.53-.52-2.23-.85-.75-.35-1.66-.33-2.34-.69-.38-.2-.82-.27-1.19-.46-.54-.28-1-.66-1.59-.89s-1.13-.46-1.73-.67c-.52-.18-1.23.09-1.76-.12s-.55-1.6-1.07-1.83c-.78-.35-1.45-.68-2.12-1.06-.55-.31-1.01-.68-1.43-.87-.57-.26-1.29.9-1.79.9,0,0-.05-1.39-.1-1.39-.11,0-.11.51-.21.51-.5,0-1.18-.51-1.79-.4-.52.1-.96.89-1.53,1.01-.55.12-1,.79-1.57.9s-1.14.26-1.72.33c-.44.05-.96-1.2-1.45-1.2-.99,0-2.02,1.33-2.92,1.23-.73-.09-1.34-.63-1.92-.63-.35,0-.65-.31-.85-.25-.65.19-1.46.18-2.18.51-.62.28-1.24.73-1.92,1.11-.6.34-.71,1.52-1.36,1.95-.32.22-.36.41-.52,1.42-.1.6-.09,1.2-.09,2,0,.66-1.13,1.72-1.03,2.47.69.31,1.25.7,1.61,1.14.47.57.97.89,1.07,1.45Z"/></g></svg>