<?xml version="1.0" encoding="UTF-8"?><svg id="Layer_2" xmlns="http://www.w3.org/2000/svg" viewBox="0 0 1148.36 304.1"><defs><style>.cls-1{fill:#f4f2ef;}</style></defs><g id="Layer_1-2"><rect class="cls-1" x="284.25" y="3.39" width="32.74" height="300.66" rx="11.87" ry="11.87"/><path class="cls-1" d="M816.36,298.72c2.2,3.32,5.92,5.32,9.9,5.32h11.67c9.56,0,15.19-10.72,9.78-18.59l-72.27-105.1c-1.72-2.5-.34-5.94,2.63-6.56h0c41.79-8.67,66.74-40.06,66.74-83.96,0-54.13-36.17-86.44-96.75-86.44h-79.68c-6.55,0-11.87,5.31-11.87,11.87v276.92c0,6.55,5.31,11.87,11.87,11.87h9c6.55,0,11.87-5.31,11.87-11.87v-104.04c0-6.55,5.31-11.87,11.87-11.87h24.88c4.93,0,9.54,2.45,12.3,6.54l78.06,115.91ZM686.54,88.21c0-20.4,46.08-58.98,70.44-58.98,32.6,0,60.15,27.01,60.15,58.98s-27.55,58.98-60.15,58.98c-24.36,0-70.44-38.58-70.44-58.98"/><path class="cls-1" d="M1017.4,3.39h-5.57c-4.74,0-9.03,2.82-10.9,7.18l-119.08,276.92c-3.37,7.83,2.38,16.56,10.9,16.56h8.15c4.75,0,9.04-2.83,10.91-7.19l30.07-70.15c2.4-5.59,7.89-9.21,13.97-9.21h115.48c6.08,0,11.58,3.62,13.97,9.21l30.07,70.15c1.87,4.36,6.16,7.19,10.91,7.19h10.21c8.53,0,14.27-8.72,10.9-16.56L1028.3,10.57c-1.87-4.36-6.16-7.18-10.9-7.18ZM1038.39,189.15h-49.62c-14.27,0-24.63-10.89-24.63-25.91,0-17.89,25.68-71.47,49.39-71.47,27.22,0,49.48,53.96,49.48,71.47,0,15.01-10.36,25.91-24.63,25.91Z"/><path class="cls-1" d="M576.63,48.56c-29.43-29.97-72.51-45.18-128.03-45.18h-73.5c-6.55,0-11.87,5.31-11.87,11.87v276.92c0,6.55,5.31,11.87,11.87,11.87h73.5c55.82,0,98.91-14.52,128.09-43.15,26.01-25.52,39.75-61.87,39.75-105.1s-13.77-80.7-39.81-107.23ZM424.93,269.35c-19.27-2.46-29.08-19.33-29.03-37.97-.02-9.78-.01-60.17,0-77.69v-.05c.04-17.65,0-67.7.02-77.59-.05-18.6,9.77-35.55,29.03-37.97,33.57-5.12,157.36,57.54,158.67,115.53-1.07,58.11-125.09,120.82-158.69,115.74Z"/><path class="cls-1" d="M118.46.05c66.72,0,118.39,53.52,118.39,120v172.18c0,6.55-5.31,11.87-11.87,11.87h-9c-6.55,0-11.87-5.31-11.87-11.87v-117.79c0-77.42-46.19-141.55-85.57-141.67h-.08s-.07,0-.07,0l.07-.05h-.15c-39.38.12-85.57,64.25-85.57,141.67v117.79c0,6.55-5.31,11.87-11.87,11.87h-9C5.31,304.05,0,298.73,0,292.18V120C0,53.52,51.67,0,118.39,0l.07.05Z"/></g></svg>