<?xml version="1.0" encoding="UTF-8"?><svg id="Layer_1" xmlns="http://www.w3.org/2000/svg" viewBox="0 0 200 200"><path d="M112.38,29.24c.13.42-.05.92.03,1.23.1.39.28.68.13,1.04-.11.28-.21.68-.55,1.02-.31.19-.64.35-.95.53-.31.18-.68.25-.99.43-.31.18-.58.42-.88.61-.31.19-.5.54-.81.73-.3.19-.8.06-1.1.24-.3.19-.4.7-.7.89-.3.19-.64.32-.93.51-.3.19-.62.36-.91.56-.3.2-.62.35-.92.55-.29.2-.62.36-.91.56-.29.21-.57.42-.86.63-.29.21-.52.48-.81.7-.28.21-.69.27-.97.49-.28.22-.37.67-.64.89-.27.23-.57.42-.84.65-.27.23-.72.26-.98.49-.26.24-.39.62-.65.87-.25.24-.42.58-.67.84-.25.25-.76.25-1,.51-.24.26-.46.54-.69.81-.23.26-.38.61-.61.88-.23.27-.32.65-.54.93-.22.28-.48.52-.7.8-.21.28-.58.45-.78.75-.2.29-.27.67-.47.97-.2.3-.34.62-.53.91-.19.3-.61.45-.78.75-.18.31-.18.72-.34,1.01-.17.31-.17.7-.32,1.01-.16.32-.65.48-.78.79-.14.33-.28.66-.39.98-.12.34-.24.68-.33,1.01-.09.34-.03.72-.08,1.06-.05.35-.16.7-.17,1.04-.01.35.22.69.25,1.04.04.34.11.67.19,1.01.08.33.2.64.32.98.11.32-.07.77.09,1.09.15.3.67.42.85.73.17.29.33.59.53.88.19.28.41.53.63.81.21.27.39.55.62.83.22.26.24.7.48.97.23.26.4.59.65.84.24.25.77.21,1.03.46.25.24.39.6.65.84.26.24.63.34.89.58.26.23.4.61.66.84.26.23.6.38.87.6.27.22.58.39.86.61.27.22.38.64.65.86.27.22.72.22.99.43.27.22.53.45.81.67.27.22.57.41.85.62.28.22.41.61.69.83.28.22.56.42.83.64.28.22.64.32.92.54.27.22.37.66.64.88.27.22.73.22,1,.45.27.23.5.5.76.73.27.23.6.38.86.62.27.23.38.63.64.87.26.24.69.29.95.53.26.24.39.62.64.86.25.25.38.61.63.86.24.25.65.36.88.61.24.26.26.71.49.97.23.27.51.48.73.75.22.28.57.45.78.73.21.28.39.59.59.88.2.29.21.69.39.99.18.3.62.45.79.76.17.31.36.61.51.93.15.32.14.71.26,1.04.13.33.22.67.32,1,.11.33.36.63.44.97.08.34-.05.73.02,1.07.06.34.17.68.21,1.03.04.35.27.68.28,1.04.01.35-.36.7-.37,1.05-.01.35.08.69.05,1.05-.03.34-.13.68-.18,1.03-.05.34.12.73.05,1.08-.07.34-.38.62-.47.97-.09.34.06.74-.05,1.05-.11.33-.45.57-.58.88-.12.33-.19.66-.33.97-.14.32-.24.65-.39.94-.16.31-.24.66-.41.95-.18.29-.58.43-.78.71-.2.28-.31.61-.52.88-.21.27-.38.57-.61.82-.23.25-.36.61-.6.85-.24.24-.69.26-.94.5-.25.23-.29.7-.55.92-.26.22-.68.25-.95.47-.26.21-.63.3-.9.51-.27.21-.38.61-.65.82-.27.21-.43.55-.7.76-.27.21-.74.16-1,.37-.27.21-.58.36-.85.58-.26.21-.43.55-.7.77-.26.22-.5.46-.76.69-.26.22-.38.59-.64.82-.25.23-.7.24-.95.49-.25.24-.34.65-.59.9-.25.25-.57.42-.82.67-.24.25-.54.46-.77.72s-.42.57-.65.83c-.23.26-.55.45-.78.72-.23.27-.3.66-.52.93-.22.27-.35.62-.57.89-.22.28-.6.42-.82.69-.21.28-.54.48-.74.76-.21.28-.42.57-.62.85-.2.29-.1.78-.29,1.07-.19.29-.35.6-.54.9-.19.3-.67.41-.85.71-.18.3-.35.61-.53.91-.17.31-.34.62-.5.93-.17.31-.06.76-.21,1.07-.16.31-.6.49-.75.8-.15.32-.35.61-.49.93-.14.32-.2.68-.34,1-.13.33-.34.62-.46.95-.12.33,0,.74-.12,1.08-.11.33-.44.6-.54.93-.1.34.06.75-.03,1.09-.09.34-.4.62-.48.97-.08.34.12.74.06,1.09-.07.35-.28.66-.34,1.01-.05.35.1.72.06,1.06-.04.35-.31.67-.33,1.02-.03.35.24.71.23,1.06-.01.35-.28.69-.28,1.04,0,.35.11.7.13,1.05.02.35-.18.72-.15,1.07.03.35.09.7.14,1.05.05.35.17.69.24,1.03.07.34.07.71.15,1.05.08.34.18.68.28,1.02.1.34.55.56.67.89.11.33.23.65.36.98.13.32.26.64.41.96.14.32.02.76.18,1.07.15.31.2.69.37,1,.17.31.49.53.67.83.18.3.32.62.52.92.19.29.64.4.85.69.2.28.07.81.29,1.09.21.27.63.39.85.66.22.27.35.62.58.89.23.26.67.33.91.59.24.25.41.57.66.82.25.25.36.64.61.88.24.23.67.27.95.5.26.22.52.44.81.66.27.21.58.38.87.59.28.2.35.72.64.92.29.2.62.34.91.54.29.2.76.15,1.05.35.29.2.42.63.71.83.29.21.7.24.98.45.29.22.54.47.8.69.29.23.48.54.73.77.28.25.48.53.69.78.26.31.69.47.79.73.13.38.09.86-.05,1.14-.15.28-.56.48-.9.63-.29.12-.66-.04-1.02-.04-.32,0-.61-.06-.95-.16-.31-.09-.57-.21-.87-.4-.3-.18-.75-.13-1.05-.32-.29-.19-.52-.48-.82-.68-.29-.2-.62-.33-.91-.54-.28-.21-.65-.31-.94-.52-.28-.21-.42-.61-.7-.83-.28-.22-.55-.44-.82-.67-.27-.22-.51-.49-.78-.72-.27-.23-.73-.24-1-.48-.26-.24-.27-.75-.53-1-.26-.24-.64-.35-.89-.6-.25-.25-.43-.57-.67-.83-.25-.25-.51-.49-.75-.75-.24-.26-.6-.41-.83-.68-.24-.26-.36-.63-.59-.9-.23-.27-.36-.62-.58-.89-.22-.28-.72-.34-.93-.62-.22-.28-.27-.68-.48-.97-.21-.29-.28-.67-.48-.96-.2-.3-.55-.49-.74-.79-.19-.3-.34-.63-.51-.93-.18-.31-.45-.56-.62-.87-.17-.32-.4-.6-.55-.91-.15-.32-.19-.7-.33-1.02-.14-.33-.08-.73-.2-1.06-.12-.33-.47-.58-.58-.92-.11-.34-.22-.68-.32-1.01-.1-.34,0-.74-.08-1.08-.09-.34-.43-.63-.51-.97-.07-.35.03-.73-.03-1.08-.06-.35-.11-.7-.16-1.05-.05-.35-.18-.69-.22-1.04-.03-.35.09-.72.07-1.07-.02-.35-.03-.7-.04-1.06,0-.35-.25-.71-.25-1.06,0-.35.28-.7.29-1.05.02-.35.07-.7.1-1.05.03-.35.06-.7.11-1.05.04-.35-.09-.73-.03-1.07s.15-.69.22-1.04c.07-.35.08-.71.16-1.05.08-.34.43-.62.52-.96.09-.34-.11-.77-.01-1.1.1-.34.3-.65.41-.98.11-.33.28-.65.41-.98.12-.33.42-.59.55-.92.13-.33.04-.75.18-1.07.14-.32.2-.69.34-1.01.15-.32.58-.5.74-.82.16-.32.04-.77.21-1.08.17-.31.43-.58.6-.88.17-.31.53-.51.71-.81.18-.3.14-.74.33-1.04.19-.3.58-.46.78-.76s.23-.69.43-.99c.2-.29.56-.47.76-.76.2-.29.32-.64.53-.92.21-.28.4-.58.61-.86.22-.28.5-.51.72-.78.22-.28.47-.52.7-.79.23-.27.52-.49.75-.75.23-.27.47-.52.71-.78.23-.26.26-.71.5-.97.24-.26.64-.37.88-.63.24-.26.41-.58.66-.83.25-.25.38-.61.63-.86.25-.25.69-.28.94-.52.25-.24.37-.62.63-.85.26-.23.64-.32.9-.54.27-.22.41-.6.68-.81.27-.22.61-.35.88-.56.28-.21.45-.56.72-.77.28-.21.54-.44.82-.65.27-.21.6-.36.87-.57.27-.21.49-.49.76-.71.27-.22.72-.21.98-.44.27-.23.59-.39.84-.62.26-.23.39-.6.64-.84.25-.24.5-.49.73-.74.23-.26.37-.59.58-.86.21-.27.33-.61.52-.89.19-.28.39-.55.57-.85.17-.29.35-.58.5-.89.15-.31.33-.59.46-.92.12-.32.3-.62.4-.96.1-.32.24-.65.32-.99.07-.33.02-.69.07-1.04.05-.33.33-.65.37-1,.03-.34-.27-.71-.25-1.06.01-.36.06-.69.04-1.04-.02-.35-.06-.69-.12-1.03-.06-.35-.18-.66-.27-1-.09-.34-.25-.64-.37-.97-.12-.32.12-.81-.03-1.12-.15-.31-.45-.56-.63-.87-.17-.3-.23-.68-.43-.98-.19-.29-.7-.36-.92-.64-.21-.28-.22-.71-.44-.98-.22-.27-.46-.53-.69-.79-.23-.26-.65-.34-.89-.6-.24-.25-.43-.55-.68-.79-.25-.24-.4-.59-.65-.83-.25-.24-.41-.59-.67-.82-.26-.23-.66-.31-.92-.54-.26-.23-.54-.44-.81-.66-.27-.22-.61-.36-.88-.58-.27-.22-.53-.45-.81-.67-.27-.22-.38-.64-.66-.85-.27-.22-.65-.31-.92-.52-.28-.21-.6-.36-.88-.58s-.34-.71-.61-.92c-.28-.21-.65-.3-.93-.52-.28-.22-.51-.48-.79-.7s-.58-.4-.85-.62c-.28-.22-.69-.26-.97-.48-.27-.22-.36-.67-.63-.89-.27-.23-.59-.4-.85-.62-.27-.23-.72-.25-.98-.48-.27-.23-.48-.52-.74-.76-.26-.24-.33-.68-.58-.92-.26-.24-.7-.29-.95-.53-.25-.25-.5-.51-.74-.76-.24-.25-.52-.48-.75-.74-.24-.26-.44-.56-.66-.83-.23-.27-.46-.54-.67-.82-.21-.28-.26-.68-.46-.97-.2-.29-.36-.6-.54-.9-.18-.3-.34-.61-.51-.91-.17-.31-.59-.5-.73-.82-.14-.32.03-.77-.09-1.1-.12-.33-.37-.61-.46-.95-.1-.34-.28-.66-.34-1-.07-.34-.15-.69-.19-1.04-.04-.35.01-.71,0-1.06,0-.35.18-.69.2-1.04.02-.34-.28-.73-.22-1.08.05-.34.24-.67.32-1.02.07-.34.23-.66.33-1,.1-.33.19-.67.31-1,.12-.32.09-.72.23-1.05.14-.32.3-.64.46-.96.16-.32.38-.61.54-.93.17-.32.53-.52.7-.83.18-.31.17-.73.35-1.03.18-.31.34-.63.54-.93.19-.3.6-.46.8-.75.2-.29.5-.51.7-.8.21-.29.36-.61.57-.89.22-.28.47-.53.69-.8.22-.27.41-.58.64-.84.23-.27.46-.54.7-.8.24-.26.31-.68.55-.94.25-.26.68-.32.93-.57.25-.25.3-.71.56-.95.26-.24.64-.36.9-.59.26-.24.44-.57.71-.8.27-.23.57-.42.85-.65.27-.22.7-.25.98-.47.28-.22.56-.43.84-.64.28-.21.56-.43.85-.64.28-.21.43-.61.72-.82.29-.2.52-.49.81-.69.29-.2.6-.38.9-.58.29-.2.74-.17,1.03-.36.3-.19.46-.61.76-.8.22-.14.62-.18.99-.41.27-.17.58-.35.9-.55.29-.18.53-.46.85-.65.3-.18.74-.14,1.04-.32.31-.18.6-.39.91-.56.32-.18.58-.46.88-.61.34-.18.65-.37.94-.5.43-.19.78-.25,1.01-.27.35-.03.84-.11,1.16.02"/><path d="M101.5,133.31c-.33.02-.68.27-1.04.39-.33.1-.76.04-1.1.2-.32.15-.63.38-.94.57-.31.19-.45.62-.74.83-.29.22-.53.49-.79.72-.28.25-.61.42-.84.67-.26.29-.57.51-.75.78-.19.29-.22.68-.36,1.01-.14.32-.48.58-.58.93-.09.34.04.74-.01,1.09-.05.35-.3.69-.32,1.05-.02.35,0,.72,0,1.08.02.35.14.71.19,1.07.05.35.08.71.16,1.06.08.35.39.63.5.97.11.34.01.76.16,1.08.14.33.35.63.53.94.18.31.26.7.47.99.21.29.53.52.78.77.25.26.52.52.8.73.29.21.6.43.93.58.32.15.71.18,1.06.27.34.08.7.09,1.07.1.35.02.69.14,1.03.12.35-.02.67-.23,1-.28.34-.06.7-.02,1.02-.11.33-.09.56-.44.88-.56.32-.13.74-.02,1.03-.18.3-.16.61-.32.89-.51.28-.2.58-.39.83-.61.25-.23.5-.49.72-.74.22-.25.28-.65.47-.93.19-.28.36-.57.52-.86.16-.3.21-.64.33-.95.13-.31.27-.6.36-.93.09-.32.35-.61.4-.95.05-.33.15-.67.16-1.01.01-.34,0-.69-.01-1.03-.02-.33.04-.7-.02-1.04-.06-.33-.29-.64-.39-.97-.09-.32-.4-.57-.52-.89-.11-.29-.02-.72-.21-1.01-.17-.27-.38-.55-.61-.81-.21-.24-.48-.46-.73-.7-.24-.22-.5-.44-.77-.65-.26-.21-.53-.42-.81-.61-.28-.18-.63-.26-.92-.42-.3-.16-.5-.52-.81-.65-.31-.13-.67-.21-.98-.3-.33-.1-.7-.05-1.02-.1-.35-.05-.69-.22-1.01-.2M101.01,130.24c.33-.06.64-.28.99-.29.34-.01.66.22,1.01.25.34.03.66.03,1,.09.33.07.73-.11,1.06-.02.32.1.68.16,1,.29.32.12.59.37.9.52.31.15.56.41.85.58.29.17.67.22.96.41.28.2.41.59.68.81.27.22.67.28.92.51.25.24.34.63.57.88.23.26.45.5.66.77.21.27.48.5.66.79.18.29.32.6.47.91.15.31.49.55.59.87.11.33-.01.74.07,1.07.09.34.22.66.28,1,.06.35-.03.7,0,1.04.04.35.15.68.15,1.02,0,.35-.03.69-.05,1.03-.02.35-.09.68-.14,1.02-.05.34-.02.7-.1,1.03-.08.34-.13.68-.24,1.01-.11.33-.35.6-.49.92-.14.32-.14.7-.3,1-.16.3-.44.54-.63.83-.19.29-.19.72-.4.99-.21.27-.65.36-.88.62s-.5.47-.75.7c-.26.23-.54.42-.81.63-.27.21-.54.42-.83.61-.29.19-.48.54-.78.71-.3.17-.61.33-.93.48-.31.14-.61.37-.93.49-.32.12-.68.18-1.01.27-.33.09-.72-.02-1.06.04-.34.06-.68.06-1.03.1-.34.04-.68.07-1.02.08-.34.01-.68-.09-1.03-.1-.34,0-.69.13-1.04.1-.36-.04-.75.11-1.09.03-.35-.08-.61-.46-.93-.59-.33-.13-.63-.28-.94-.46-.31-.18-.62-.33-.9-.54-.28-.21-.54-.43-.8-.68-.25-.25-.47-.52-.69-.79-.22-.27-.53-.48-.72-.78-.19-.29-.17-.71-.35-1.02-.17-.31-.36-.59-.51-.92-.14-.32-.4-.6-.51-.93-.12-.33-.41-.62-.51-.96-.09-.34-.09-.71-.16-1.06-.07-.35.17-.74.13-1.1-.05-.35-.38-.67-.41-1.02-.02-.35-.02-.71-.02-1.07s.17-.7.2-1.06c.02-.35.02-.71.07-1.06.05-.35.02-.72.09-1.07.08-.35.04-.74.14-1.07.1-.34.28-.67.41-1,.13-.33.34-.64.5-.95.17-.32.22-.71.42-1,.2-.3.42-.6.65-.87.19-.23.62-.35.94-.61.26-.21.67-.26.98-.49.28-.2.47-.56.79-.76.3-.19.57-.45.88-.64.31-.19.72-.22,1.03-.39.33-.18.63-.38.95-.53.35-.17.65-.4.96-.52.39-.15.77-.09,1.06-.14"/><path d="M112.07,59.67c-.06.22-.09.62-.39,1.01-.2.27-.62.42-.88.72-.25.28-.46.58-.72.85-.28.28-.37.74-.63.97-.36.32-.68.63-.9.73-.33.15-.71.18-1.03.29-.34.12-.71.11-1.04.18-.35.08-.68.29-1.02.32-.36.03-.71-.21-1.05-.23-.36-.02-.73.14-1.07.06-.35-.08-.61-.4-.92-.53-.32-.14-.62-.29-.91-.48-.29-.19-.61-.33-.86-.57-.25-.24-.46-.52-.67-.79-.21-.28-.59-.46-.76-.77-.17-.3-.09-.73-.22-1.06-.12-.32-.27-.64-.34-.98-.07-.34.02-.69-.01-1.04-.03-.34-.13-.68-.11-1.03.01-.34.07-.68.13-1.03.05-.34.15-.66.25-1.01.09-.33.1-.69.23-1.02.12-.32.22-.66.38-.98.13-.25.41-.46.63-.75.18-.25.26-.61.49-.86.22-.24.53-.39.77-.61.24-.23.34-.64.6-.83.28-.21.71-.17.98-.31.32-.17.61-.25.89-.3.32-.05.64-.04.99-.03.33,0,.65.03,1,.09.33.06.7-.06,1.03.04.32.1.66.2.97.34.31.13.68.2.98.36.3.17.58.4.86.59.28.2.43.57.68.8.26.24.43.52.64.78.21.28.39.54.53.84.13.28.15.63.25,1.02.09.33.32.63.38,1,.06.35.31.68.34,1.05.03.36-.23.74-.22,1.1,0,.38,0,.73-.03,1.07-.03.4-.12.73-.19,1.03M113.06,48.79c-.26-.24-.65-.33-.93-.54-.28-.21-.45-.6-.75-.79-.3-.19-.65-.32-.96-.48-.32-.16-.75-.05-1.08-.18-.33-.12-.67-.18-1.01-.27-.34-.1-.65-.28-.99-.34-.35-.06-.68-.21-1.03-.24-.35-.03-.71.12-1.06.13-.35,0-.72-.21-1.07-.18-.35.04-.67.3-1.01.37-.35.07-.74-.05-1.08.05-.33.1-.68.24-1,.38s-.61.38-.92.55c-.31.17-.62.33-.91.54-.29.2-.42.59-.69.82-.26.23-.67.31-.91.57-.23.26-.42.57-.62.86-.2.28-.52.51-.7.82-.17.3-.26.67-.4.99-.14.32-.3.64-.42.97-.12.33-.26.66-.36,1-.1.33-.08.71-.16,1.05-.07.34-.09.7-.14,1.05-.05.35-.22.69-.24,1.04-.03.35.13.71.12,1.07,0,.35-.1.71-.08,1.06.03.35.32.67.38,1.01.06.35-.14.75-.05,1.08.09.34.18.7.3,1.02.13.33.25.68.42.99.17.31.38.61.59.9.21.29.59.43.83.69.24.26.5.49.76.72.27.23.6.36.89.56.29.2.55.42.86.59.31.17.53.5.86.64.32.14.64.33.98.43.33.11.68.21,1.03.28.34.08.69.25,1.04.3.35.05.73-.08,1.08-.06.35.02.7-.19,1.05-.21.35-.02.73.23,1.08.19.35-.05.71-.11,1.05-.19.34-.08.68-.22,1.02-.34.33-.11.67-.25.99-.4.32-.15.65-.29.96-.47.3-.18.53-.48.82-.69.28-.21.69-.26.95-.49.25-.23.47-.53.7-.78.23-.26.35-.61.56-.89.21-.27.24-.66.42-.95.18-.29.42-.54.58-.84.16-.31.58-.5.71-.81.13-.32-.04-.75.07-1.08.1-.33.21-.65.29-.98.08-.34.3-.65.35-.99.05-.34.04-.69.06-1.04.02-.34-.08-.69-.09-1.03-.01-.34-.17-.67-.22-1.01-.04-.34-.04-.68-.12-1.01-.07-.33-.11-.67-.21-1-.11-.33-.36-.58-.5-.9-.14-.31-.28-.6-.45-.9-.17-.3-.17-.69-.38-.97-.2-.28-.25-.69-.48-.95-.22-.25-.5-.49-.76-.73"/><path d="M94.67,87.26c-.35.05-.6.5-.93.62-.33.11-.69.13-1,.3-.31.17-.52.46-.8.67-.28.21-.69.26-.95.5-.25.24-.38.6-.61.88-.23.27-.45.53-.65.82-.2.29-.39.58-.56.89-.17.31-.52.53-.67.85-.15.32-.3.65-.42.99-.12.34-.19.69-.27,1.04-.08.35.05.73,0,1.08-.05.36-.35.69-.36,1.04,0,.36.38.69.43,1.04.04.3-.16.71.01,1.01.16.26.44.49.67.73.21.23.4.53.65.74.25.2.55.37.82.54.28.18.64.23.91.36.32.15.64.18.92.26.34.1.64.34.97.41.35.07.7.06,1.04.09.35.04.7.01,1.04,0,.35,0,.69-.14,1.02-.18.35-.04.68-.1,1.01-.18.34-.08.65-.21.97-.33.33-.13.65-.21.95-.38.3-.17.56-.39.83-.6.27-.22.71-.25.95-.51.23-.25.46-.54.66-.83.19-.29.24-.67.38-.99.14-.31.12-.68.22-1.02.1-.32.17-.64.22-.99.05-.33.14-.66.16-1.02.01-.34-.02-.67-.04-1.03-.02-.36-.07-.69-.13-1.03-.06-.35-.09-.69-.19-1.02-.1-.34-.31-.62-.45-.93-.15-.32-.2-.68-.39-.96-.19-.3-.35-.62-.58-.88-.24-.26-.52-.48-.8-.69-.28-.21-.55-.45-.87-.61-.31-.15-.69-.12-1.04-.23-.33-.1-.62-.48-.97-.52-.34-.04-.72-.06-1.08-.05-.34,0-.71.08-1.07.13M103.68,101.29c-.21.28-.13.78-.35,1.04-.23.26-.57.43-.81.66-.25.24-.43.58-.69.79-.27.21-.69.23-.97.42-.29.19-.51.49-.82.65-.31.15-.64.28-.96.4-.32.12-.66.23-.99.32-.33.09-.71-.04-1.05.01-.34.06-.67.08-1.01.1-.34.03-.67.07-1.01.06-.34,0-.69.18-1.03.15-.34-.03-.64-.35-.98-.41-.33-.06-.74.23-1.08.15-.33-.08-.57-.5-.89-.61-.32-.1-.67-.13-.99-.25-.32-.12-.59-.34-.9-.49-.33-.15-.65-.28-.94-.45-.31-.19-.67-.27-.94-.48-.29-.22-.61-.39-.86-.63-.25-.25-.36-.63-.57-.91-.22-.28-.45-.54-.62-.84-.17-.31-.36-.61-.49-.94-.13-.33-.35-.64-.43-.98-.08-.34-.15-.7-.2-1.05-.04-.35-.1-.71-.1-1.07,0-.35.08-.71.11-1.06.03-.35.04-.71.1-1.06.06-.34.4-.63.49-.97.09-.34.2-.66.32-.99.12-.33.11-.7.25-1.03.14-.32.16-.71.33-1.02.17-.31.35-.62.53-.92.19-.3.43-.57.64-.85.21-.28.41-.59.64-.85.23-.27.46-.55.71-.8.25-.25.55-.46.81-.69.27-.23.49-.53.77-.74.28-.21.65-.31.95-.49.3-.18.65-.28.97-.44.32-.16.63-.32.96-.44.33-.12.68-.17,1.02-.26.34-.09.65-.32,1-.37.35-.05.72.24,1.07.23.35-.01.68,0,1.03.02.36.03.72-.16,1.06-.1.35.06.69.16,1.02.25.34.09.65.26.97.38.33.13.67.22.97.37.31.16.67.26.96.45.29.19.55.45.82.67.27.22.45.54.69.79.24.25.54.45.75.73.21.28.38.59.56.88.18.3.35.6.51.91.15.31.17.68.29,1,.12.33.47.58.56.92.09.34.18.68.24,1.03.06.34-.15.72-.13,1.07.02.35.06.68.06,1.03,0,.35,0,.69-.03,1.04-.04.34-.01.7-.08,1.04-.07.34-.15.68-.24,1.02-.1.33-.12.7-.25,1.02-.12.32-.49.54-.65.85-.15.31-.36.58-.54.88-.18.3-.35.58-.56.87"/></svg>