<?xml version="1.0" encoding="UTF-8"?><svg id="Layer_1" xmlns="http://www.w3.org/2000/svg" viewBox="0 0 200 200"><path d="M131.87,129.46c.24.25.5.59.84.9.29.27.57.57.87.87.29.29.6.57.85.88.26.34.55.66.71,1.01.18.39.31.81.29,1.21-.01.38-.05.87-.31,1.25-.21.31-.62.6-.96.68-.33.07-.75-.14-1.1-.21-.36-.07-.79-.01-1.08-.14-.2-.09-.44-.53-.84-.88-.26-.22-.7-.32-1.01-.61-.26-.25-.46-.61-.74-.89-.26-.27-.28-.79-.54-1.08-.27-.29-.56-.54-.81-.82-.26-.3-.84-.32-1.07-.6-.27-.33-.23-.86-.43-1.13-.31-.43-.59-.72-.64-.93-.11-.43-.26-.9-.18-1.33.08-.43.54-.8.62-1.22.06-.33.03-.76.16-1.23.1-.36.02-.82.15-1.24.11-.38.32-.75.44-1.16.12-.38.38-.74.5-1.14.12-.39.19-.81.31-1.2.12-.4.24-.8.36-1.19.12-.41.01-.87.12-1.25.12-.42.28-.8.38-1.17.11-.44.41-.8.47-1.15.1-.52.1-.94.07-1.22-.04-.42-.08-.51-.36-.85-.17-.2-.45-.49-.88-.78-.3-.2-.65-.39-1.02-.61-.33-.2-.63-.49-.98-.7-.35-.2-.64-.49-.98-.69-.36-.22-.72-.4-1.04-.6-.39-.25-.78-.39-1.03-.6-.37-.31-.58-.68-.85-.92-.36-.32-.73-.49-.92-.81-.19-.33-.53-.67-.57-1.16-.03-.34.26-.76.3-1.25.03-.39-.12-.81-.08-1.21.05-.39.36-.75.42-1.15.06-.39.16-.77.23-1.17.07-.39.02-.8.1-1.2.08-.39.38-.73.46-1.12.08-.39-.08-.83,0-1.22.09-.39-.07-.83.02-1.22.08-.39.38-.74.46-1.13.08-.39.32-.75.39-1.14.08-.39.14-.79.2-1.18.07-.39.11-.79.17-1.19.06-.4-.18-.83-.14-1.22.04-.4.04-.79.07-1.18.03-.4.27-.77.28-1.16-.27-.21-.64-.38-1.01-.64-.31-.21-.65-.43-1.01-.67-.32-.21-.51-.67-.86-.9-.33-.22-.84-.19-1.18-.42-.33-.23-.59-.57-.92-.81-.33-.24-.67-.46-.99-.7-.33-.25-.72-.42-1.03-.67-.32-.27-.65-.53-.93-.8-.31-.3-.49-.7-.72-.99-.28-.35-.57-.67-.69-1-.11-.29.09-.75.11-1.27.01-.38-.23-.83-.17-1.28.05-.4.35-.78.43-1.21.07-.41-.15-.89-.07-1.3.08-.42.46-.78.54-1.18.09-.44-.07-.91,0-1.29.09-.48.21-.89.25-1.22.05-.39.36-.76.38-1.15.02-.39-.26-.8-.23-1.19.03-.39.4-.76.48-1.15-.06-.19-.69-.4-1.25-.71-.33-.18-.63-.57-1.05-.78-.37-.18-.79-.32-1.19-.51-.39-.19-.84-.27-1.21-.47-.41-.21-.74-.54-1.07-.74-.48-.29-.77-.56-.91-.81-.26-.43-.51-.82-.46-1.23.05-.45.22-.96.55-1.28.31-.29.81-.43,1.3-.5.2-.03.57.2,1.1.39.32.12.63.39,1.03.56.34.15.84,0,1.21.18.35.17.67.41,1.02.59.35.18.62.51.97.7.35.19.78.24,1.11.43.36.21.72.38,1.03.58.37.23.55.67.83.87.45.33.88.42.97.61.17.32.36.69.43,1.12.06.37.1.78.1,1.2,0,.38.17.8.13,1.22-.03.39-.46.75-.52,1.15-.05.39-.11.79-.17,1.19-.07.39.02.82-.05,1.21-.07.4-.38.75-.46,1.14-.08.4-.18.79-.25,1.18-.07.41.21.87.15,1.24-.07.42-.28.79-.32,1.16-.05.43.08.78.09,1.13.27.25.46.51.74.76.28.25.46.6.74.84.28.24.77.23,1.06.46.29.23.51.55.8.77.29.23.44.65.74.87.37.27.92.22,1.25.43.39.25.51.86.85,1.06.4.23.89.23,1.22.44.38.25.8.42,1.08.72.28.3.37.75.53,1.17.14.35.05.76.11,1.24.04.37.31.77.3,1.24,0,.39-.27.79-.32,1.26-.04.4.06.82,0,1.23-.06.4-.24.78-.31,1.19-.07.4.18.86.1,1.27-.08.4-.38.76-.46,1.16-.09.4-.26.77-.36,1.17-.09.4-.23.79-.32,1.18-.09.4.08.86,0,1.26-.09.4-.35.76-.43,1.16-.09.4-.14.81-.22,1.21-.08.4.07.84,0,1.24-.07.41-.3.78-.35,1.18-.05.41.08.79.05,1.19.16.31.09.83.43,1.14.27.25.77.3,1.12.55.31.22.64.46.99.68.34.21.75.31,1.1.51.35.21.69.42,1.04.62.35.21.75.36,1.08.57.36.23.56.66.86.89.36.26.82.36,1.08.62.33.34.28.83.35,1.16.09.38.21.76.23,1.18.01.39.02.79-.02,1.21-.04.39-.03.81-.1,1.22-.07.39-.2.78-.3,1.18-.1.39-.18.79-.3,1.19-.12.39-.49.7-.61,1.09-.12.39.13.9,0,1.29-.13.39-.32.76-.46,1.14-.13.39-.47.71-.6,1.09-.13.39-.22.79-.34,1.18-.12.4-.15.82-.26,1.2-.11.4-.42.76-.49,1.14-.08.42.23.87.19,1.25,0,.37-.1.77.15,1.03.25.26.7.36.92.59"/><path d="M88.76,63.61c.31-.34.74-.34,1.08-.44.39-.12.67-.02,1.04.1.36.12.93-.04,1.22.24.28.27.32.78.49,1.14.16.36.34.73.35,1.13-.1.38-.15.79-.25,1.17-.11.38-.38.72-.49,1.1-.11.38-.16.78-.27,1.16-.11.38-.4.71-.51,1.1s.2.88.1,1.27c-.11.38-.34.73-.45,1.11-.11.38-.25.75-.36,1.14-.11.38-.07.81-.18,1.19-.11.38-.23.76-.34,1.14s-.62.65-.73,1.03c-.11.38-.11.8-.22,1.18-.11.38-.19.77-.31,1.15-.11.38-.06.81-.17,1.19-.12.38-.38.72-.49,1.1-.12.38-.39.71-.5,1.09-.12.38-.17.78-.29,1.16-.12.38-.33.73-.45,1.11-.12.38-.02.83-.14,1.21-.12.38-.05.82-.17,1.2s-.48.68-.61,1.06c-.12.38-.34.73-.46,1.11-.12.38.03.85-.09,1.23-.12.38-.58.65-.7,1.03-.12.38-.11.8-.23,1.18-.12.38-.32.73-.45,1.11-.12.38-.29.74-.42,1.12-.12.38-.28.75-.4,1.12-.12.38-.2.77-.33,1.15-.13.38-.14.79-.27,1.17s-.46.68-.59,1.06c-.13.38-.14.79-.27,1.17-.13.38-.15.79-.28,1.16-.13.38-.12.8-.25,1.18-.13.38-.56.65-.69,1.02-.13.38.03.85-.1,1.23-.13.38-.56.65-.69,1.02-.13.38.11.88-.02,1.26-.13.38-.41.7-.55,1.07-.13.38-.39.71-.52,1.08-.13.38-.08.81-.22,1.19-.13.38-.48.67-.62,1.05-.13.38-.16.79-.3,1.16-.13.38-.12.8-.26,1.18-.14.37-.29.74-.42,1.12-.14.37-.33.73-.47,1.1-.14.37-.42.69-.56,1.07-.14.37-.11.81-.24,1.18-.14.37-.23.76-.37,1.14-.14.37-.22.77-.36,1.14-.14.37-.65.61-.79.98-.14.37-.15.79-.29,1.16s-.1.81-.24,1.19c-.14.37-.42.69-.56,1.06-.14.37-.05.83-.19,1.21-.14.37-.3.74-.44,1.11-.14.37-.38.71-.53,1.08-.14.37-.3.74-.44,1.11-.14.37-.55.64-.69,1.01-.14.37.09.89-.05,1.26-.14.37-.31.74-.45,1.11-.14.37-.56.64-.7,1.01-.14.37-.23.76-.38,1.13-.14.37-.21.78-.35,1.15-.37.29-.79.4-1.18.52-.44.13-.88.34-1.28.26-.44-.08-.94-.26-1.25-.56-.3-.29-.36-.8-.45-1.26-.07-.38-.25-.86-.13-1.34.14-.38.37-.74.5-1.11.14-.38.24-.77.38-1.15.14-.38.57-.65.7-1.03.14-.38-.07-.88.07-1.26.14-.38.59-.64.73-1.02.14-.38.34-.73.48-1.11.14-.38.09-.83.23-1.21.14-.38.36-.73.5-1.1.14-.38.16-.8.3-1.18.14-.38.13-.81.27-1.19.14-.38.64-.62.78-1,.14-.38.19-.79.33-1.17.14-.38.12-.81.26-1.19.14-.38.24-.77.38-1.15.14-.38.17-.8.31-1.18.14-.38.55-.66.69-1.04.14-.38.07-.83.2-1.21.14-.38.45-.69.59-1.07.14-.38,0-.86.14-1.24s.71-.6.85-.98c.14-.38-.09-.89.05-1.27.14-.38.56-.65.7-1.04.14-.38.19-.79.33-1.17s.13-.81.26-1.19c.14-.38.51-.67.65-1.05.14-.38-.02-.86.11-1.24.14-.38.25-.77.39-1.15.13-.38.52-.67.66-1.05.13-.38.35-.73.48-1.11.13-.38.16-.8.3-1.18.13-.38,0-.85.14-1.23.13-.38.62-.64.75-1.02.13-.38.06-.83.19-1.21.13-.38.24-.77.37-1.15.13-.38.33-.74.46-1.12s.37-.73.5-1.11c.13-.38.37-.73.5-1.11.13-.38-.18-.91-.06-1.29.13-.38.38-.72.51-1.11.12-.38.44-.71.57-1.09.12-.38.01-.84.14-1.23.12-.38.34-.74.46-1.12s.47-.7.6-1.08c.12-.39-.07-.87.05-1.25.12-.39.32-.75.44-1.13.11-.38.46-.68.57-1.06.11-.38.09-.79.2-1.17.1-.38.27-.74.38-1.12.1-.38-.06-.83.04-1.21.1-.38.53-.67.63-1.05.1-.38-.11-.84,0-1.22.1-.38.06-.79.16-1.17.1-.38.38-.71.49-1.09.1-.38.29-.74.39-1.11.1-.38.35-.72.46-1.09.11-.38-.17-.87-.06-1.24.09-.29.52-.63.67-1.13.11-.37,0-.86.12-1.29.12-.4.49-.74.62-1.15.13-.41.21-.84.35-1.23.15-.43.34-.83.49-1.18.22-.52.3-.99.49-1.19"/><path d="M104.42,63.24c.17.23.06.75,0,1.26-.05.34.01.77-.1,1.19-.1.35-.25.73-.39,1.12-.13.36-.46.66-.6,1.03-.14.37-.46.67-.6,1.03-.15.38-.09.82-.23,1.17-.15.4-.17.81-.29,1.15-.16.45-.25.82-.3,1.1-.07.37,0,.74.03,1.16.02.38,0,.76.09,1.18.08.38-.03.82.1,1.22.11.37.34.72.49,1.1.14.37.29.74.45,1.11.15.36.49.65.66,1.02.16.36.25.76.42,1.13.17.36.35.72.53,1.08.17.36.34.72.52,1.08.18.36.06.86.24,1.23.18.36.74.54.91.9.17.37.07.86.24,1.22.17.37.19.8.35,1.16.16.38.42.7.56,1.07.15.38.65.63.79,1,.13.39.04.85.15,1.23.11.4.19.79.27,1.18.08.41.37.78.4,1.17.04.41-.31.83-.31,1.24,0,.41.08.81.04,1.22-.04.4-.03.82-.09,1.22-.07.4-.14.8-.24,1.2-.09.4-.23.78-.34,1.17-.11.39-.4.72-.53,1.11-.13.38.03.87-.11,1.25-.14.38-.44.71-.59,1.09-.15.38-.3.76-.45,1.13-.16.38-.14.83-.3,1.2-.16.37-.63.62-.79.99-.16.38-.34.74-.5,1.12-.16.38-.19.81-.34,1.18-.16.38-.16.82-.31,1.19-.15.38-.35.74-.49,1.12-.14.38-.55.68-.68,1.06-.13.39.2.92.08,1.31-.11.39-.53.7-.62,1.1-.09.4.04.84-.03,1.24-.07.4-.47.76-.51,1.17-.04.4-.05.83-.06,1.24,0,.41.12.82.14,1.23.02.4.21.79.28,1.2.06.4-.09.85.01,1.25.1.39.37.74.51,1.13.13.38.11.83.28,1.21.14.32.62.52.83.89.18.32.19.76.41,1.1.2.32.35.68.57,1.02.2.32.4.65.62.98.21.32.36.69.57,1.02.21.33.58.55.79.88.2.33.39.68.58,1.01.2.34.23.76.41,1.1.18.35.68.54.84.89.16.36-.01.85.11,1.21.13.38.61.65.68,1.02.08.4-.12.82-.12,1.19,0,.4-.01.77-.13,1.13-.12.38-.17.79-.42.99-.25.2-.66.19-1.05.23-.46.04-.91.13-1.25-.01-.37-.16-.72-.48-.98-.81-.24-.3-.23-.79-.41-1.17-.16-.36-.52-.66-.65-1.04-.13-.39-.08-.84-.2-1.21-.14-.41-.23-.82-.4-1.15-.18-.37-.38-.74-.59-1.1-.21-.35-.67-.55-.9-.91-.22-.34-.42-.71-.66-1.05-.23-.34-.33-.78-.56-1.12-.24-.34-.6-.6-.83-.94-.23-.35-.57-.63-.78-.99-.22-.35-.16-.87-.36-1.23-.2-.37-.28-.78-.45-1.15-.17-.38-.49-.69-.62-1.08-.13-.39-.49-.74-.57-1.15-.08-.39.14-.86.1-1.3-.04-.4-.16-.82-.17-1.25,0-.41-.19-.84-.17-1.27.02-.41.36-.81.4-1.24.03-.42-.13-.86-.08-1.27.05-.42.33-.8.4-1.21.07-.42,0-.86.08-1.26.08-.42.06-.86.15-1.26.1-.42.45-.77.55-1.16.11-.42.04-.88.16-1.26.12-.4.47-.71.61-1.1.14-.39.38-.74.52-1.12.15-.39.03-.88.19-1.25.16-.38.53-.67.69-1.04.17-.38.42-.72.58-1.09.17-.38.31-.77.47-1.15.17-.38.39-.74.55-1.11.16-.38.07-.87.22-1.25.15-.38.15-.82.29-1.2.13-.39.38-.74.49-1.13s.16-.8.24-1.2c.08-.4.4-.77.45-1.18.04-.4-.09-.83-.08-1.24,0-.4-.04-.81-.07-1.23-.03-.4.19-.85.12-1.26-.06-.39-.61-.7-.71-1.11-.09-.39.06-.85-.07-1.25-.12-.38-.41-.71-.57-1.11-.14-.38-.36-.71-.51-1.07-.16-.37-.05-.85-.21-1.2-.17-.37-.29-.75-.46-1.1-.18-.36-.52-.63-.7-.98-.18-.36-.12-.83-.31-1.18-.19-.36-.74-.51-.92-.85-.19-.35-.17-.81-.34-1.16-.18-.36-.42-.68-.59-1.03-.17-.36-.46-.67-.61-1.03-.15-.37-.21-.77-.33-1.15-.13-.37-.03-.81-.12-1.19-.09-.38-.44-.71-.49-1.11-.05-.38.18-.8.17-1.2-.01-.38.07-.75.1-1.16.03-.38-.15-.79-.09-1.19.06-.38.18-.75.28-1.15.09-.37.28-.72.4-1.11.11-.36-.03-.83.11-1.21.13-.36.37-.7.53-1.07.15-.35.23-.75.41-1.13.13-.28.36-.61.59-.98.19-.3.39-.65.63-.96.24-.3.54-.57.82-.81.3-.27.65-.48.98-.6.36-.13.82-.25,1.19-.09.29.12.67.39.95.76"/></svg>