<?xml version="1.0" encoding="UTF-8"?><svg id="Layer_1" xmlns="http://www.w3.org/2000/svg" viewBox="0 0 200 200"><path d="M96.4,165.68c-.12.17,0,.39.01.6-.28-.45-.18-.53-.59-.87-.65.01-.54.32-1.3.56-.69.21-.78-.49-.9-1.08-.09-.44-.25-.9-.31-1.42-.05-.46,0-.95-.02-1.45-.03-.47.11-.95.1-1.45,0-.47-.11-.95-.1-1.45,0-.47-.29-.97-.27-1.46.02-.48.45-.94.48-1.43.03-.48-.13-.97-.09-1.46.04-.48.18-.95.22-1.44.05-.48.13-.96.18-1.44.06-.48-.08-.99-.02-1.47.06-.48,0-.98.07-1.46.07-.48.29-.94.37-1.42.07-.49,0-.99.08-1.46.08-.49.25-.96.33-1.42.09-.49.24-.96.33-1.42.1-.49.23-.96.33-1.42.1-.5.11-.99.22-1.44.12-.5.16-.99.27-1.43.12-.48.43-.89.57-1.34.14-.47.4-.89.55-1.33.16-.46.27-.93.44-1.37.18-.46.45-.86.64-1.28.2-.45.45-.85.66-1.27.22-.43.47-.83.7-1.24.24-.42.21-.99.46-1.39.25-.41.75-.66,1.01-1.05.27-.4.18-1.05.46-1.43.28-.39.86-.56,1.15-.94.29-.38.61-.73.91-1.11.29-.37.58-.75.88-1.12.29-.37.3-.97.59-1.35.29-.37.58-.75.88-1.13.29-.37.77-.61,1.06-1,.29-.38.4-.88.69-1.28.28-.38.59-.74.87-1.14.27-.39.51-.8.78-1.21.27-.4.75-.68,1-1.1.26-.41.25-.98.49-1.41.24-.42.71-.73.93-1.16.23-.43.19-.99.4-1.44.21-.44.38-.89.57-1.35.19-.45.43-.87.6-1.34.17-.46.52-.86.66-1.33.14-.47.16-.97.27-1.45.12-.48.37-.93.45-1.41.08-.48-.08-1-.03-1.49.05-.49.27-.96.28-1.45.01-.49.04-.99.01-1.48-.03-.49.06-1.01-.02-1.49-.07-.48-.32-.95-.44-1.42-.12-.47-.37-.91-.54-1.38-.17-.46-.17-1-.39-1.44-.21-.43-.72-.72-.98-1.14-.26-.41-.64-.72-.94-1.11-.3-.39-.45-.88-.79-1.21-.35-.34-.7-.68-1.09-.96-.4-.29-.75-.66-1.17-.88-.43-.23-.87-.51-1.32-.67-.46-.16-1.02.03-1.5-.07-.47-.1-.93-.25-1.42-.29-.48-.04-.97-.21-1.46-.19-.48.03-1,.01-1.47.1-.48.09-.93.36-1.39.51-.46.14-.79.61-1.23.81-.44.2-.96.23-1.37.48-.41.26-.7.66-1.07.97-.37.31-.74.59-1.07.95-.32.35-.54.77-.82,1.18-.27.39-.53.77-.76,1.21-.19.37-.7.66-.86,1.13-.13.42.12.96.03,1.43-.09.45-.31.87-.34,1.33-.03.46.04.92.07,1.37.03.47.15.9.26,1.33.12.46.26.85.49,1.23.24.4.37.89.75,1.15.41.29.96.35,1.5.35.48,0,.97-.18,1.48-.34.48-.15,1.06-.15,1.5-.41.45-.27.82-.68,1.18-1.02.41-.38.9-.74,1.08-1.15.2-.45.17-1.05.29-1.55.13-.53.43-.88.76-1.22.3-.31.57-.84,1.25-.8.42.03.43.37.49.4.13.07.24.2.46.33.37.22.54.48.59.98.04.43.12.89.05,1.34-.09.52-.04,1.07-.16,1.37-.16.43-.6.74-.84,1.13-.24.39-.41.83-.71,1.18-.3.34-.77.5-1.13.8-.35.29-.57.76-.97,1-.39.23-.91.22-1.33.39-.42.17-.82.4-1.26.51-.45.11-.88.38-1.33.42-.46.03-.93-.05-1.39-.1-.45-.04-.9-.18-1.34-.31-.43-.13-.78-.47-1.19-.68-.45-.24-.83-.5-1.2-.79-.39-.31-.89-.48-1.2-.85-.32-.38-.63-.78-.86-1.2-.23-.43-.45-.89-.6-1.36-.15-.46,0-1-.06-1.49-.07-.48-.35-.95-.34-1.44,0-.49-.11-1.01-.05-1.49.06-.48.28-.96.4-1.44.12-.47.53-.86.69-1.32.17-.46.19-.98.4-1.41.22-.44.4-.91.66-1.32.26-.42.49-.88.79-1.26.31-.37.61-.75.93-1.09.33-.35.76-.6,1.11-.92.36-.32.72-.64,1.09-.92.38-.29.92-.35,1.31-.6.41-.26.82-.47,1.23-.68.43-.22.77-.58,1.21-.76.45-.18.95-.14,1.4-.27.46-.13.89-.32,1.35-.41.47-.09.93-.17,1.4-.2.47-.04.94-.06,1.41-.05.47.01.94.08,1.41.14.47.06,1-.17,1.46-.07.46.11.83.56,1.28.71.45.15.94.19,1.37.38.43.2.72.65,1.13.88.41.24.98.22,1.36.49.38.27.61.75.97,1.06.35.31.81.51,1.14.86.32.34.41.88.71,1.25.29.37.73.62.99,1.03.25.39.36.87.58,1.29.21.41.4.84.58,1.28.18.43.72.74.86,1.2.14.44.01.98.12,1.45.1.46.22.92.29,1.39.07.46-.08.95-.04,1.43.04.49.24.95.26,1.42.01.49-.19.96-.2,1.43-.01.49.33.99.29,1.46-.04.49-.45.92-.52,1.39-.07.48-.03.96-.12,1.43-.09.47.09,1.01-.03,1.47-.12.47-.5.86-.65,1.31-.15.46-.19.95-.36,1.4-.17.45-.28.93-.48,1.36-.2.44-.45.85-.67,1.28-.22.43-.39.88-.63,1.3-.24.42-.71.69-.96,1.1-.25.41-.53.79-.79,1.2-.26.4-.37.9-.65,1.3-.28.39-.78.61-1.07,1-.28.38-.43.87-.72,1.25-.29.38-.74.63-1.04,1.01-.3.37-.51.81-.81,1.19-.3.37-.67.68-.98,1.06-.3.37-.54.79-.84,1.17-.3.37-.55.79-.85,1.16-.3.37-.46.86-.76,1.24-.29.36-.54.75-.81,1.14-.26.38-.75.62-1,1.03-.24.4-.45.82-.68,1.25-.22.41-.41.84-.62,1.27-.2.42-.6.76-.79,1.2-.19.43-.01,1.01-.19,1.45-.17.43-.31.88-.47,1.33-.16.44-.53.81-.67,1.26-.15.45-.05.97-.19,1.42-.13.45-.52.83-.65,1.29-.12.45-.14.94-.25,1.4-.11.46-.42.87-.53,1.33-.1.46-.19.93-.28,1.39-.1.46-.06.95-.14,1.42-.09.46,0,.96-.08,1.42-.08.47-.08.94-.15,1.41-.07.47-.35.9-.41,1.37-.06.47-.3.92-.36,1.38-.06.47.03.96-.01,1.43-.05.48.03.96-.01,1.42-.04.48-.36.93-.39,1.39-.03.48-.13.95-.16,1.41-.02.48.07.96.05,1.42-.02.48,0,.96,0,1.41,0,.4.21.84.25,1.32.04.43-.13.9-.09,1.35.04.45-.03.89-.02,1.32,0,.48.35.95.28,1.34-.11.55-.65.42-.8.64"/><path d="M96.4,165.68c-.12.17,0,.39.01.6-.28-.45-.18-.53-.59-.87-.65.01-.54.32-1.3.56-.69.21-.78-.49-.9-1.08-.09-.44-.25-.9-.31-1.42-.05-.46,0-.95-.02-1.45-.03-.47.11-.95.1-1.45,0-.47-.11-.95-.1-1.45,0-.47-.29-.97-.27-1.46.02-.48.45-.94.48-1.43.03-.48-.13-.97-.09-1.46.04-.48.18-.95.22-1.44.05-.48.13-.96.18-1.44.06-.48-.08-.99-.02-1.47.06-.48,0-.98.07-1.46.07-.48.29-.94.37-1.42.07-.49,0-.99.08-1.46.08-.49.25-.96.33-1.42.09-.49.24-.96.33-1.42.1-.49.23-.96.33-1.42.1-.5.11-.99.22-1.44.12-.5.16-.99.27-1.43.12-.48.43-.89.57-1.34.14-.47.4-.89.55-1.33.16-.46.27-.93.44-1.37.18-.46.45-.86.64-1.28.2-.45.45-.85.66-1.27.22-.43.47-.83.7-1.24.24-.42.21-.99.46-1.39.25-.41.75-.66,1.01-1.05.27-.4.18-1.05.46-1.43.28-.39.86-.56,1.15-.94.29-.38.61-.73.91-1.11.29-.37.58-.75.88-1.12.29-.37.3-.97.59-1.35.29-.37.58-.75.88-1.13.29-.37.77-.61,1.06-1,.29-.38.4-.88.69-1.28.28-.38.59-.74.87-1.14.27-.39.51-.8.78-1.21.27-.4.75-.68,1-1.1.26-.41.25-.98.49-1.41.24-.42.71-.73.93-1.16.23-.43.19-.99.4-1.44.21-.44.38-.89.57-1.35.19-.45.43-.87.6-1.34.17-.46.52-.86.66-1.33.14-.47.16-.97.27-1.45.12-.48.37-.93.45-1.41.08-.48-.08-1-.03-1.49.05-.49.27-.96.28-1.45.01-.49.04-.99.01-1.48-.03-.49.06-1.01-.02-1.49-.07-.48-.32-.95-.44-1.42-.12-.47-.37-.91-.54-1.38-.17-.46-.17-1-.39-1.44-.21-.43-.72-.72-.98-1.14-.26-.41-.64-.72-.94-1.11-.3-.39-.45-.88-.79-1.21-.35-.34-.7-.68-1.09-.96-.4-.29-.75-.66-1.17-.88-.43-.23-.87-.51-1.32-.67-.46-.16-1.02.03-1.5-.07-.47-.1-.93-.25-1.42-.29-.48-.04-.97-.21-1.46-.19-.48.03-1,.01-1.47.1-.48.09-.93.36-1.39.51-.46.14-.79.61-1.23.81-.44.2-.96.23-1.37.48-.41.26-.7.66-1.07.97-.37.31-.74.59-1.07.95-.32.35-.54.77-.82,1.18-.27.39-.53.77-.76,1.21-.19.37-.7.66-.86,1.13-.13.42.12.96.03,1.43-.09.45-.31.87-.34,1.33-.03.46.04.92.07,1.37.03.47.15.9.26,1.33.12.46.26.85.49,1.23.24.4.37.89.75,1.15.41.29.96.35,1.5.35.48,0,.97-.18,1.48-.34.48-.15,1.06-.15,1.5-.41.45-.27.82-.68,1.18-1.02.41-.38.9-.74,1.08-1.15.2-.45.17-1.05.29-1.55.13-.53.43-.88.76-1.22.3-.31.57-.84,1.25-.8.42.03.43.37.49.4.13.07.24.2.46.33.37.22.54.48.59.98.04.43.12.89.05,1.34-.09.52-.04,1.07-.16,1.37-.16.43-.6.74-.84,1.13-.24.39-.41.83-.71,1.18-.3.34-.77.5-1.13.8-.35.29-.57.76-.97,1-.39.23-.91.22-1.33.39-.42.17-.82.4-1.26.51-.45.11-.88.38-1.33.42-.46.03-.93-.05-1.39-.1-.45-.04-.9-.18-1.34-.31-.43-.13-.78-.47-1.19-.68-.45-.24-.83-.5-1.2-.79-.39-.31-.89-.48-1.2-.85-.32-.38-.63-.78-.86-1.2-.23-.43-.45-.89-.6-1.36-.15-.46,0-1-.06-1.49-.07-.48-.35-.95-.34-1.44,0-.49-.11-1.01-.05-1.49.06-.48.28-.96.4-1.44.12-.47.53-.86.69-1.32.17-.46.19-.98.4-1.41.22-.44.4-.91.66-1.32.26-.42.49-.88.79-1.26.31-.37.61-.75.93-1.09.33-.35.76-.6,1.11-.92.36-.32.72-.64,1.09-.92.38-.29.92-.35,1.31-.6.41-.26.82-.47,1.23-.68.43-.22.77-.58,1.21-.76.45-.18.95-.14,1.4-.27.46-.13.89-.32,1.35-.41.47-.09.93-.17,1.4-.2.47-.04.94-.06,1.41-.05.47.01.94.08,1.41.14.47.06,1-.17,1.46-.07.46.11.83.56,1.28.71.45.15.94.19,1.37.38.43.2.72.65,1.13.88.41.24.98.22,1.36.49.38.27.61.75.97,1.06.35.31.81.51,1.14.86.32.34.41.88.71,1.25.29.37.73.62.99,1.03.25.39.36.87.58,1.29.21.41.4.84.58,1.28.18.43.72.74.86,1.2.14.44.01.98.12,1.45.1.46.22.92.29,1.39.07.46-.08.95-.04,1.43.04.49.24.95.26,1.42.01.49-.19.96-.2,1.43-.01.49.33.99.29,1.46-.04.49-.45.92-.52,1.39-.07.48-.03.96-.12,1.43-.09.47.09,1.01-.03,1.47-.12.47-.5.86-.65,1.31-.15.46-.19.95-.36,1.4-.17.45-.28.93-.48,1.36-.2.44-.45.85-.67,1.28-.22.43-.39.88-.63,1.3-.24.42-.71.69-.96,1.1-.25.41-.53.79-.79,1.2-.26.4-.37.9-.65,1.3-.28.39-.78.61-1.07,1-.28.38-.43.87-.72,1.25-.29.38-.74.63-1.04,1.01-.3.37-.51.81-.81,1.19-.3.37-.67.68-.98,1.06-.3.37-.54.79-.84,1.17-.3.37-.55.79-.85,1.16-.3.37-.46.86-.76,1.24-.29.36-.54.75-.81,1.14-.26.38-.75.62-1,1.03-.24.4-.45.82-.68,1.25-.22.41-.41.84-.62,1.27-.2.42-.6.76-.79,1.2-.19.43-.01,1.01-.19,1.45-.17.43-.31.88-.47,1.33-.16.44-.53.81-.67,1.26-.15.45-.05.97-.19,1.42-.13.45-.52.83-.65,1.29-.12.45-.14.94-.25,1.4-.11.46-.42.87-.53,1.33-.1.46-.19.93-.28,1.39-.1.46-.06.95-.14,1.42-.09.46,0,.96-.08,1.42-.08.47-.08.94-.15,1.41-.07.47-.35.9-.41,1.37-.06.47-.3.92-.36,1.38-.06.47.03.96-.01,1.43-.05.48.03.96-.01,1.42-.04.48-.36.93-.39,1.39-.03.48-.13.95-.16,1.41-.02.48.07.96.05,1.42-.02.48,0,.96,0,1.41,0,.4.21.84.25,1.32.04.43-.13.9-.09,1.35.04.45-.03.89-.02,1.32,0,.48.35.95.28,1.34-.11.55-.65.42-.8.64"/><path d="M98.87,33.9c.07.04.1.42.26.41.29-.08.29-.64.59-.58.28.37.34,1.01.45,1.39.12.41.39.8.4,1.22.01.41,0,.85-.01,1.28-.01.41.01.82.04,1.25.03.46-.06.93-.03,1.39.03.46-.16.93-.13,1.39.03.46-.03.93,0,1.39.03.46.5.89.52,1.36.03.46-.27.94-.24,1.4.02.46-.02.93,0,1.39.02.46.33.91.35,1.38.02.46.17.92.18,1.38.01.46-.11.93-.11,1.39,0,.46-.24.93-.25,1.39,0,.46.23.93.22,1.39-.01.46-.15.92-.17,1.38-.02.46-.01.93-.04,1.38-.03.47.18.97.11,1.45-.06.47-.58.86-.67,1.33-.09.46-.05.95-.17,1.41-.11.46-.18.93-.32,1.38-.14.45-.07.97-.23,1.43-.15.44-.53.81-.7,1.26-.17.44-.31.89-.49,1.33-.18.43-.27.91-.47,1.35-.19.43-.61.76-.82,1.19-.2.43-.53.79-.74,1.22-.21.42-.4.85-.62,1.28-.22.42-.04,1.04-.26,1.46-.22.42-.84.62-1.07,1.04-.22.42-.39.86-.62,1.28-.22.41-.1,1.02-.33,1.44-.23.42-.73.68-.96,1.1-.23.42-.25.94-.48,1.36-.23.42-.65.73-.87,1.15-.22.42-.39.87-.61,1.29-.22.42-.59.76-.81,1.19-.22.42-.12,1-.33,1.43-.21.43-.42.85-.62,1.28-.2.43-.51.81-.7,1.24-.19.44-.43.85-.61,1.29-.18.44-.14.96-.3,1.41-.17.45-.61.79-.76,1.23-.15.45-.19.94-.32,1.39-.14.46-.07.96-.19,1.42-.12.46-.27.9-.36,1.36-.09.47-.57.87-.63,1.33-.06.47-.13.96-.17,1.43-.03.47.18.96.18,1.44,0,.47-.07.95-.04,1.43.03.47.29.92.36,1.39.07.47.23.9.34,1.37.11.46.13.93.28,1.39.15.45.36.86.55,1.3.19.46.11,1.03.33,1.42.24.43.68.72.96,1.08.3.39.69.65,1.03.96.36.33.74.56,1.13.8.41.25.77.54,1.21.7.44.16.91.14,1.38.23.46.09.9.13,1.38.15.46.02.93.29,1.41.26.46-.03.93-.18,1.4-.25.46-.07.91-.23,1.37-.34.46-.1.88-.32,1.34-.45.45-.13.95-.09,1.41-.24.44-.15.79-.49,1.21-.69.42-.2.91-.25,1.3-.5.39-.26.75-.54,1.11-.85.36-.3.71-.61,1.02-.95.31-.35.66-.68.92-1.06.26-.39.43-.84.62-1.26.2-.42.13-.92.26-1.37.12-.45.25-.86.29-1.32.04-.46.31-.91.27-1.38-.04-.45-.17-.91-.29-1.37-.12-.44-.45-.8-.65-1.24-.2-.45-.23-.95-.51-1.27-.32-.35-.8-.45-1.2-.66-.41-.21-.76-.59-1.21-.65-.45-.07-.89.25-1.35.31-.45.06-.85.12-1.28.3-.42.18-.98.11-1.35.39-.36.27-.76.59-1.05.95-.28.35-.31.97-.58,1.39-.28.43-.59.92-1.04,1.08-.37.13-.77-.23-1.36-.52-.5-.24-.66-.41-.71-.84-.05-.39.09-.72.29-1.19.17-.39.25-.83.53-1.22.25-.37.54-.71.84-1.05.31-.36.45-.87.76-1.16.41-.38.94-.49,1.2-.65.43-.27.8-.61,1.25-.78.47-.18.99-.07,1.47-.16.49-.08.94-.1,1.43-.09.49.01,1-.2,1.48-.09.48.11.98.21,1.44.41.45.19.84.54,1.25.82.41.27.83.54,1.19.88.35.34.45.89.75,1.29.29.39.68.7.9,1.14.22.43.58.83.72,1.31.14.47.23.95.32,1.4.1.48.25.95.29,1.42.04.49-.04.98-.05,1.45-.01.49.03.99-.04,1.45-.07.48-.3.93-.43,1.38-.14.46-.25.94-.45,1.37-.2.43-.74.67-.99,1.07-.25.4-.22,1-.53,1.37-.3.36-.68.67-1.04,1-.34.32-.73.62-1.12.9-.38.28-.83.46-1.25.71-.4.24-.75.6-1.19.81-.43.2-.96.17-1.41.34-.44.16-.82.56-1.28.69-.46.13-.97.08-1.43.19-.47.11-.89.44-1.35.53-.47.09-.99-.11-1.46-.04-.48.07-.95.11-1.42.14-.48.04-.95-.07-1.42-.07-.48,0-.98.41-1.44.38-.48-.04-.98-.1-1.44-.18-.47-.09-.87-.49-1.32-.63-.46-.14-1-.07-1.43-.26-.43-.19-.83-.5-1.23-.76-.4-.25-.57-.81-.94-1.11-.36-.3-.88-.41-1.21-.77-.31-.34-.6-.72-.88-1.12-.27-.37-.67-.69-.92-1.12-.23-.4-.06-1.01-.26-1.46-.19-.42-.69-.72-.85-1.19-.17-.46-.22-.95-.34-1.41-.13-.47-.18-.95-.27-1.42-.09-.47-.1-.95-.16-1.43-.06-.48-.31-.94-.33-1.42-.02-.48.14-.96.15-1.44.01-.48-.08-.96-.04-1.44.04-.48.15-.95.22-1.43.07-.47,0-.97.08-1.45.09-.47.12-.96.23-1.43.11-.46.2-.95.33-1.41.13-.46.47-.87.61-1.33.15-.45.19-.95.35-1.41.16-.45.54-.82.72-1.27.17-.45.24-.94.42-1.38.18-.44.35-.9.54-1.34.19-.44.67-.75.88-1.18.2-.44.27-.93.48-1.36.21-.43.23-.96.44-1.39.22-.43.62-.77.84-1.19.22-.43.18-1,.4-1.42.22-.43.51-.82.74-1.24.23-.43.73-.7.96-1.12.23-.43.5-.83.73-1.25.23-.43.4-.89.63-1.31.23-.43.48-.84.71-1.26.23-.43.36-.9.58-1.32.23-.43.46-.85.67-1.27.22-.43.59-.79.8-1.21.21-.44.4-.88.59-1.31.21-.45.33-.93.51-1.37.19-.46.33-.93.49-1.37.17-.46.27-.94.41-1.39.15-.47.26-.94.38-1.4.13-.47.23-.95.33-1.41.11-.48.44-.91.52-1.38.08-.48.13-.97.19-1.45.06-.48.18-.96.22-1.44.04-.48-.31-.99-.29-1.47.02-.48,0-.96,0-1.44,0-.48.48-.96.48-1.45,0-.48-.42-.95-.43-1.44-.01-.48.14-.96.13-1.45-.02-.48,0-.96-.03-1.45-.02-.48.15-.96.13-1.46-.02-.48-.01-.96-.03-1.45-.01-.48-.19-.95-.2-1.45-.01-.41-.16-.86-.19-1.34-.03-.43-.09-.88-.12-1.34-.03-.45.01-.91-.01-1.35-.02-.46-.07-.92-.08-1.34,0-.49.19-.93.23-1.33.03-.41.05-1.16.34-1.73.31-.62.72-.96,1.33-.62"/><path d="M98.87,33.9c.07.04.1.42.26.41.29-.08.29-.64.59-.58.28.37.34,1.01.45,1.39.12.41.39.8.4,1.22.01.41,0,.85-.01,1.28-.01.41.01.82.04,1.25.03.46-.06.93-.03,1.39.03.46-.16.93-.13,1.39.03.46-.03.93,0,1.39.03.46.5.89.52,1.36.03.46-.27.94-.24,1.4.02.46-.02.93,0,1.39.02.46.33.91.35,1.38.02.46.17.92.18,1.38.01.46-.11.93-.11,1.39,0,.46-.24.93-.25,1.39,0,.46.23.93.22,1.39-.01.46-.15.92-.17,1.38-.02.46-.01.93-.04,1.38-.03.47.18.97.11,1.45-.06.47-.58.86-.67,1.33-.09.46-.05.95-.17,1.41-.11.46-.18.93-.32,1.38-.14.45-.07.97-.23,1.43-.15.44-.53.81-.7,1.26-.17.44-.31.89-.49,1.33-.18.43-.27.91-.47,1.35-.19.43-.61.76-.82,1.19-.2.43-.53.79-.74,1.22-.21.42-.4.85-.62,1.28-.22.42-.04,1.04-.26,1.46-.22.42-.84.62-1.07,1.04-.22.42-.39.86-.62,1.28-.22.41-.1,1.02-.33,1.44-.23.42-.73.68-.96,1.1-.23.42-.25.94-.48,1.36-.23.42-.65.73-.87,1.15-.22.42-.39.87-.61,1.29-.22.42-.59.76-.81,1.19-.22.42-.12,1-.33,1.43-.21.43-.42.85-.62,1.28-.2.43-.51.81-.7,1.24-.19.44-.43.85-.61,1.29-.18.44-.14.96-.3,1.41-.17.45-.61.79-.76,1.23-.15.45-.19.94-.32,1.39-.14.46-.07.96-.19,1.42-.12.46-.27.9-.36,1.36-.09.47-.57.87-.63,1.33-.06.47-.13.96-.17,1.43-.03.47.18.96.18,1.44,0,.47-.07.95-.04,1.43.03.47.29.92.36,1.39.07.47.23.9.34,1.37.11.46.13.93.28,1.39.15.45.36.86.55,1.3.19.46.11,1.03.33,1.42.24.43.68.72.96,1.08.3.39.69.65,1.03.96.36.33.74.56,1.13.8.41.25.77.54,1.21.7.44.16.91.14,1.38.23.46.09.9.13,1.38.15.46.02.93.29,1.41.26.46-.03.93-.18,1.4-.25.46-.07.91-.23,1.37-.34.46-.1.88-.32,1.34-.45.45-.13.95-.09,1.41-.24.44-.15.79-.49,1.21-.69.42-.2.91-.25,1.3-.5.39-.26.75-.54,1.11-.85.36-.3.71-.61,1.02-.95.31-.35.66-.68.92-1.06.26-.39.43-.84.62-1.26.2-.42.13-.92.26-1.37.12-.45.25-.86.29-1.32.04-.46.31-.91.27-1.38-.04-.45-.17-.91-.29-1.37-.12-.44-.45-.8-.65-1.24-.2-.45-.23-.95-.51-1.27-.32-.35-.8-.45-1.2-.66-.41-.21-.76-.59-1.21-.65-.45-.07-.89.25-1.35.31-.45.06-.85.12-1.28.3-.42.18-.98.11-1.35.39-.36.27-.76.59-1.05.95-.28.35-.31.97-.58,1.39-.28.43-.59.92-1.04,1.08-.37.13-.77-.23-1.36-.52-.5-.24-.66-.41-.71-.84-.05-.39.09-.72.29-1.19.17-.39.25-.83.53-1.22.25-.37.54-.71.84-1.05.31-.36.45-.87.76-1.16.41-.38.94-.49,1.2-.65.43-.27.8-.61,1.25-.78.47-.18.99-.07,1.47-.16.49-.08.94-.1,1.43-.09.49.01,1-.2,1.48-.09.48.11.98.21,1.44.41.45.19.84.54,1.25.82.41.27.83.54,1.19.88.35.34.45.89.75,1.29.29.39.68.7.9,1.14.22.43.58.83.72,1.31.14.47.23.95.32,1.4.1.48.25.95.29,1.42.04.49-.04.98-.05,1.45-.01.49.03.99-.04,1.45-.07.48-.3.93-.43,1.38-.14.46-.25.94-.45,1.37-.2.43-.74.67-.99,1.07-.25.4-.22,1-.53,1.37-.3.36-.68.67-1.04,1-.34.32-.73.62-1.12.9-.38.28-.83.46-1.25.71-.4.24-.75.6-1.19.81-.43.2-.96.17-1.41.34-.44.16-.82.56-1.28.69-.46.13-.97.08-1.43.19-.47.11-.89.44-1.35.53-.47.09-.99-.11-1.46-.04-.48.07-.95.11-1.42.14-.48.04-.95-.07-1.42-.07-.48,0-.98.41-1.44.38-.48-.04-.98-.1-1.44-.18-.47-.09-.87-.49-1.32-.63-.46-.14-1-.07-1.43-.26-.43-.19-.83-.5-1.23-.76-.4-.25-.57-.81-.94-1.11-.36-.3-.88-.41-1.21-.77-.31-.34-.6-.72-.88-1.12-.27-.37-.67-.69-.92-1.12-.23-.4-.06-1.01-.26-1.46-.19-.42-.69-.72-.85-1.19-.17-.46-.22-.95-.34-1.41-.13-.47-.18-.95-.27-1.42-.09-.47-.1-.95-.16-1.43-.06-.48-.31-.94-.33-1.42-.02-.48.14-.96.15-1.44.01-.48-.08-.96-.04-1.44.04-.48.15-.95.22-1.43.07-.47,0-.97.08-1.45.09-.47.12-.96.23-1.43.11-.46.2-.95.33-1.41.13-.46.47-.87.61-1.33.15-.45.19-.95.35-1.41.16-.45.54-.82.72-1.27.17-.45.24-.94.42-1.38.18-.44.35-.9.54-1.34.19-.44.67-.75.88-1.18.2-.44.27-.93.48-1.36.21-.43.23-.96.44-1.39.22-.43.62-.77.84-1.19.22-.43.18-1,.4-1.42.22-.43.51-.82.74-1.24.23-.43.73-.7.96-1.12.23-.43.5-.83.73-1.25.23-.43.4-.89.63-1.31.23-.43.48-.84.71-1.26.23-.43.36-.9.58-1.32.23-.43.46-.85.67-1.27.22-.43.59-.79.8-1.21.21-.44.4-.88.59-1.31.21-.45.33-.93.51-1.37.19-.46.33-.93.49-1.37.17-.46.27-.94.41-1.39.15-.47.26-.94.38-1.4.13-.47.23-.95.33-1.41.11-.48.44-.91.52-1.38.08-.48.13-.97.19-1.45.06-.48.18-.96.22-1.44.04-.48-.31-.99-.29-1.47.02-.48,0-.96,0-1.44,0-.48.48-.96.48-1.45,0-.48-.42-.95-.43-1.44-.01-.48.14-.96.13-1.45-.02-.48,0-.96-.03-1.45-.02-.48.15-.96.13-1.46-.02-.48-.01-.96-.03-1.45-.01-.48-.19-.95-.2-1.45-.01-.41-.16-.86-.19-1.34-.03-.43-.09-.88-.12-1.34-.03-.45.01-.91-.01-1.35-.02-.46-.07-.92-.08-1.34,0-.49.19-.93.23-1.33.03-.41.05-1.16.34-1.73.31-.62.72-.96,1.33-.62"/><path d="M96.4,165.68c-.12.17,0,.39.01.6-.28-.45-.18-.53-.59-.87-.65.01-.54.32-1.3.56-.69.21-.78-.49-.9-1.08-.09-.44-.25-.9-.31-1.42-.05-.46,0-.95-.02-1.45-.03-.47.11-.95.1-1.45,0-.47-.11-.95-.1-1.45,0-.47-.29-.97-.27-1.46.02-.48.45-.94.48-1.43.03-.48-.13-.97-.09-1.46.04-.48.18-.95.22-1.44.05-.48.13-.96.18-1.44.06-.48-.08-.99-.02-1.47.06-.48,0-.98.07-1.46.07-.48.29-.94.37-1.42.07-.49,0-.99.08-1.46.08-.49.25-.96.33-1.42.09-.49.24-.96.33-1.42.1-.49.23-.96.33-1.42.1-.5.11-.99.22-1.44.12-.5.16-.99.27-1.43.12-.48.43-.89.57-1.34.14-.47.4-.89.55-1.33.16-.46.27-.93.44-1.37.18-.46.45-.86.64-1.28.2-.45.45-.85.66-1.27.22-.43.47-.83.7-1.24.24-.42.21-.99.46-1.39.25-.41.75-.66,1.01-1.05.27-.4.18-1.05.46-1.43.28-.39.86-.56,1.15-.94.29-.38.61-.73.91-1.11.29-.37.58-.75.88-1.12.29-.37.3-.97.59-1.35.29-.37.58-.75.88-1.13.29-.37.77-.61,1.06-1,.29-.38.4-.88.69-1.28.28-.38.59-.74.87-1.14.27-.39.51-.8.78-1.21.27-.4.75-.68,1-1.1.26-.41.25-.98.49-1.41.24-.42.71-.73.93-1.16.23-.43.19-.99.4-1.44.21-.44.38-.89.57-1.35.19-.45.43-.87.6-1.34.17-.46.52-.86.66-1.33.14-.47.16-.97.27-1.45.12-.48.37-.93.45-1.41.08-.48-.08-1-.03-1.49.05-.49.27-.96.28-1.45.01-.49.04-.99.01-1.48-.03-.49.06-1.01-.02-1.49-.07-.48-.32-.95-.44-1.42-.12-.47-.37-.91-.54-1.38-.17-.46-.17-1-.39-1.44-.21-.43-.72-.72-.98-1.14-.26-.41-.64-.72-.94-1.11-.3-.39-.45-.88-.79-1.21-.35-.34-.7-.68-1.09-.96-.4-.29-.75-.66-1.17-.88-.43-.23-.87-.51-1.32-.67-.46-.16-1.02.03-1.5-.07-.47-.1-.93-.25-1.42-.29-.48-.04-.97-.21-1.46-.19-.48.03-1,.01-1.47.1-.48.09-.93.36-1.39.51-.46.14-.79.61-1.23.81-.44.2-.96.23-1.37.48-.41.26-.7.66-1.07.97-.37.31-.74.59-1.07.95-.32.35-.54.77-.82,1.18-.27.39-.53.77-.76,1.21-.19.37-.7.66-.86,1.13-.13.42.12.96.03,1.43-.09.45-.31.87-.34,1.33-.03.46.04.92.07,1.37.03.47.15.9.26,1.33.12.46.26.85.49,1.23.24.4.37.89.75,1.15.41.29.96.35,1.5.35.48,0,.97-.18,1.48-.34.48-.15,1.06-.15,1.5-.41.45-.27.82-.68,1.18-1.02.41-.38.9-.74,1.08-1.15.2-.45.17-1.05.29-1.55.13-.53.43-.88.76-1.22.3-.31.57-.84,1.25-.8.42.03.43.37.49.4.13.07.24.2.46.33.37.22.54.48.59.98.04.43.12.89.05,1.34-.09.52-.04,1.07-.16,1.37-.16.43-.6.74-.84,1.13-.24.39-.41.83-.71,1.18-.3.34-.77.5-1.13.8-.35.29-.57.76-.97,1-.39.23-.91.22-1.33.39-.42.17-.82.4-1.26.51-.45.11-.88.38-1.33.42-.46.03-.93-.05-1.39-.1-.45-.04-.9-.18-1.34-.31-.43-.13-.78-.47-1.19-.68-.45-.24-.83-.5-1.2-.79-.39-.31-.89-.48-1.2-.85-.32-.38-.63-.78-.86-1.2-.23-.43-.45-.89-.6-1.36-.15-.46,0-1-.06-1.49-.07-.48-.35-.95-.34-1.44,0-.49-.11-1.01-.05-1.49.06-.48.28-.96.4-1.44.12-.47.53-.86.69-1.32.17-.46.19-.98.4-1.41.22-.44.4-.91.66-1.32.26-.42.49-.88.79-1.26.31-.37.61-.75.93-1.09.33-.35.76-.6,1.11-.92.36-.32.72-.64,1.09-.92.38-.29.92-.35,1.31-.6.41-.26.82-.47,1.23-.68.43-.22.77-.58,1.21-.76.45-.18.95-.14,1.4-.27.46-.13.89-.32,1.35-.41.47-.09.93-.17,1.4-.2.47-.04.94-.06,1.41-.05.47.01.94.08,1.41.14.47.06,1-.17,1.46-.07.46.11.83.56,1.28.71.45.15.94.19,1.37.38.43.2.72.65,1.13.88.41.24.98.22,1.36.49.38.27.61.75.97,1.06.35.31.81.51,1.14.86.32.34.41.88.71,1.25.29.37.73.62.99,1.03.25.39.36.87.58,1.29.21.41.4.84.58,1.28.18.43.72.74.86,1.2.14.44.01.98.12,1.45.1.46.22.92.29,1.39.07.46-.08.95-.04,1.43.04.49.24.95.26,1.42.01.49-.19.96-.2,1.43-.01.49.33.99.29,1.46-.04.49-.45.92-.52,1.39-.07.48-.03.96-.12,1.43-.09.47.09,1.01-.03,1.47-.12.47-.5.86-.65,1.31-.15.46-.19.95-.36,1.4-.17.45-.28.93-.48,1.36-.2.44-.45.85-.67,1.28-.22.43-.39.88-.63,1.3-.24.42-.71.69-.96,1.1-.25.41-.53.79-.79,1.2-.26.4-.37.9-.65,1.3-.28.39-.78.61-1.07,1-.28.38-.43.87-.72,1.25-.29.38-.74.63-1.04,1.01-.3.37-.51.81-.81,1.19-.3.37-.67.68-.98,1.06-.3.37-.54.79-.84,1.17-.3.37-.55.79-.85,1.16-.3.37-.46.86-.76,1.24-.29.36-.54.75-.81,1.14-.26.38-.75.62-1,1.03-.24.4-.45.82-.68,1.25-.22.41-.41.84-.62,1.27-.2.42-.6.76-.79,1.2-.19.43-.01,1.01-.19,1.45-.17.43-.31.88-.47,1.33-.16.44-.53.81-.67,1.26-.15.45-.05.97-.19,1.42-.13.45-.52.83-.65,1.29-.12.45-.14.94-.25,1.4-.11.46-.42.87-.53,1.33-.1.46-.19.93-.28,1.39-.1.46-.06.95-.14,1.42-.09.46,0,.96-.08,1.42-.08.47-.08.94-.15,1.41-.07.47-.35.9-.41,1.37-.06.47-.3.92-.36,1.38-.06.47.03.96-.01,1.43-.05.48.03.96-.01,1.42-.04.48-.36.93-.39,1.39-.03.48-.13.95-.16,1.41-.02.48.07.96.05,1.42-.02.48,0,.96,0,1.41,0,.4.21.84.25,1.32.04.43-.13.9-.09,1.35.04.45-.03.89-.02,1.32,0,.48.35.95.28,1.34-.11.55-.65.42-.8.64"/><path d="M98.87,33.9c.07.04.1.42.26.41.29-.08.29-.64.59-.58.28.37.34,1.01.45,1.39.12.41.39.8.4,1.22.01.41,0,.85-.01,1.28-.01.41.01.82.04,1.25.03.46-.06.93-.03,1.39.03.46-.16.93-.13,1.39.03.46-.03.93,0,1.39.03.46.5.89.52,1.36.03.46-.27.94-.24,1.4.02.46-.02.93,0,1.39.02.46.33.91.35,1.38.02.46.17.92.18,1.38.01.46-.11.93-.11,1.39,0,.46-.24.93-.25,1.39,0,.46.23.93.22,1.39-.01.46-.15.92-.17,1.38-.02.46-.01.93-.04,1.38-.03.47.18.97.11,1.45-.06.47-.58.86-.67,1.33-.09.46-.05.95-.17,1.41-.11.46-.18.93-.32,1.38-.14.45-.07.97-.23,1.43-.15.44-.53.81-.7,1.26-.17.44-.31.89-.49,1.33-.18.43-.27.91-.47,1.35-.19.43-.61.76-.82,1.19-.2.43-.53.79-.74,1.22-.21.42-.4.85-.62,1.28-.22.42-.04,1.04-.26,1.46-.22.42-.84.62-1.07,1.04-.22.42-.39.86-.62,1.28-.22.41-.1,1.02-.33,1.44-.23.42-.73.68-.96,1.1-.23.42-.25.94-.48,1.36-.23.42-.65.73-.87,1.15-.22.42-.39.87-.61,1.29-.22.42-.59.76-.81,1.19-.22.42-.12,1-.33,1.43-.21.43-.42.85-.62,1.28-.2.43-.51.81-.7,1.24-.19.44-.43.85-.61,1.29-.18.44-.14.96-.3,1.41-.17.45-.61.79-.76,1.23-.15.45-.19.94-.32,1.39-.14.46-.07.96-.19,1.42-.12.46-.27.9-.36,1.36-.09.47-.57.87-.63,1.33-.06.47-.13.96-.17,1.43-.03.47.18.96.18,1.44,0,.47-.07.95-.04,1.43.03.47.29.92.36,1.39.07.47.23.9.34,1.37.11.46.13.93.28,1.39.15.45.36.86.55,1.3.19.46.11,1.03.33,1.42.24.43.68.72.96,1.08.3.39.69.65,1.03.96.36.33.74.56,1.13.8.41.25.77.54,1.21.7.44.16.91.14,1.38.23.46.09.9.13,1.38.15.46.02.93.29,1.41.26.46-.03.93-.18,1.4-.25.46-.07.91-.23,1.37-.34.46-.1.88-.32,1.34-.45.45-.13.95-.09,1.41-.24.44-.15.79-.49,1.21-.69.42-.2.91-.25,1.3-.5.39-.26.75-.54,1.11-.85.36-.3.71-.61,1.02-.95.31-.35.66-.68.92-1.06.26-.39.43-.84.62-1.26.2-.42.13-.92.26-1.37.12-.45.25-.86.29-1.32.04-.46.31-.91.27-1.38-.04-.45-.17-.91-.29-1.37-.12-.44-.45-.8-.65-1.24-.2-.45-.23-.95-.51-1.27-.32-.35-.8-.45-1.2-.66-.41-.21-.76-.59-1.21-.65-.45-.07-.89.25-1.35.31-.45.06-.85.12-1.28.3-.42.18-.98.11-1.35.39-.36.27-.76.59-1.05.95-.28.35-.31.97-.58,1.39-.28.43-.59.92-1.04,1.08-.37.13-.77-.23-1.36-.52-.5-.24-.66-.41-.71-.84-.05-.39.09-.72.29-1.19.17-.39.25-.83.53-1.22.25-.37.54-.71.84-1.05.31-.36.45-.87.76-1.16.41-.38.94-.49,1.2-.65.43-.27.8-.61,1.25-.78.47-.18.99-.07,1.47-.16.49-.08.94-.1,1.43-.09.49.01,1-.2,1.48-.09.48.11.98.21,1.44.41.45.19.84.54,1.25.82.41.27.83.54,1.19.88.35.34.45.89.75,1.29.29.39.68.7.9,1.14.22.43.58.83.72,1.31.14.47.23.95.32,1.4.1.48.25.95.29,1.42.04.49-.04.98-.05,1.45-.01.49.03.99-.04,1.45-.07.48-.3.93-.43,1.38-.14.46-.25.94-.45,1.37-.2.43-.74.67-.99,1.07-.25.4-.22,1-.53,1.37-.3.36-.68.67-1.04,1-.34.32-.73.62-1.12.9-.38.28-.83.46-1.25.71-.4.24-.75.6-1.19.81-.43.2-.96.17-1.41.34-.44.16-.82.56-1.28.69-.46.13-.97.08-1.43.19-.47.11-.89.44-1.35.53-.47.09-.99-.11-1.46-.04-.48.07-.95.11-1.42.14-.48.04-.95-.07-1.42-.07-.48,0-.98.41-1.44.38-.48-.04-.98-.1-1.44-.18-.47-.09-.87-.49-1.32-.63-.46-.14-1-.07-1.43-.26-.43-.19-.83-.5-1.23-.76-.4-.25-.57-.81-.94-1.11-.36-.3-.88-.41-1.21-.77-.31-.34-.6-.72-.88-1.12-.27-.37-.67-.69-.92-1.12-.23-.4-.06-1.01-.26-1.46-.19-.42-.69-.72-.85-1.19-.17-.46-.22-.95-.34-1.41-.13-.47-.18-.95-.27-1.42-.09-.47-.1-.95-.16-1.43-.06-.48-.31-.94-.33-1.42-.02-.48.14-.96.15-1.44.01-.48-.08-.96-.04-1.44.04-.48.15-.95.22-1.43.07-.47,0-.97.08-1.45.09-.47.12-.96.23-1.43.11-.46.2-.95.33-1.41.13-.46.47-.87.61-1.33.15-.45.19-.95.35-1.41.16-.45.54-.82.72-1.27.17-.45.24-.94.42-1.38.18-.44.35-.9.54-1.34.19-.44.67-.75.88-1.18.2-.44.27-.93.48-1.36.21-.43.23-.96.44-1.39.22-.43.62-.77.84-1.19.22-.43.18-1,.4-1.42.22-.43.51-.82.74-1.24.23-.43.73-.7.96-1.12.23-.43.5-.83.73-1.25.23-.43.4-.89.63-1.31.23-.43.48-.84.71-1.26.23-.43.36-.9.58-1.32.23-.43.46-.85.67-1.27.22-.43.59-.79.8-1.21.21-.44.4-.88.59-1.31.21-.45.33-.93.51-1.37.19-.46.33-.93.49-1.37.17-.46.27-.94.41-1.39.15-.47.26-.94.38-1.4.13-.47.23-.95.33-1.41.11-.48.44-.91.52-1.38.08-.48.13-.97.19-1.45.06-.48.18-.96.22-1.44.04-.48-.31-.99-.29-1.47.02-.48,0-.96,0-1.44,0-.48.48-.96.48-1.45,0-.48-.42-.95-.43-1.44-.01-.48.14-.96.13-1.45-.02-.48,0-.96-.03-1.45-.02-.48.15-.96.13-1.46-.02-.48-.01-.96-.03-1.45-.01-.48-.19-.95-.2-1.45-.01-.41-.16-.86-.19-1.34-.03-.43-.09-.88-.12-1.34-.03-.45.01-.91-.01-1.35-.02-.46-.07-.92-.08-1.34,0-.49.19-.93.23-1.33.03-.41.05-1.16.34-1.73.31-.62.72-.96,1.33-.62"/></svg>