<?xml version="1.0" encoding="UTF-8"?><svg id="Layer_1" xmlns="http://www.w3.org/2000/svg" viewBox="0 0 200 200"><path d="M96.16,99.88c-.62-.17-1.22-.51-1.86-.73-.61-.21-1.34-.03-1.97-.28-.61-.24-1.2-.62-1.82-.89-.61-.26-1.13-.85-1.75-1.13-.61-.27-1.23-.5-1.84-.78-.61-.28-1.26-.41-1.87-.69-.61-.28-1.22-.54-1.83-.82-.61-.28-1.22-.55-1.84-.82-.62-.27-1.23-.53-1.85-.78-.62-.26-1.32-.17-1.94-.41-.63-.24-1.2-.65-1.83-.86-.63-.21-1.17-.89-1.8-1.07-.64-.18-1.29-.38-1.93-.51-.65-.14-1.37.43-2.01.35-.66-.09-1.28-.32-1.92-.34-.66-.02-1.29.06-1.93.12-.66.06-1.27.26-1.9.42-.71.18-1.31.35-1.85.66-.65.37-1.21.68-1.65,1.24-.46.58-.58,1.35-.85,2.13-.24.71-.67,1.36-.78,2.22-.1.76-.46,1.56-.47,2.44-.01.75.23,1.53.28,2.3.06.76.24,1.5.37,2.24.13.75.11,1.57.33,2.27.22.72.39,1.54.71,2.17.33.65,1.2.76,1.63,1.29.43.53.79,1.06,1.33,1.45.51.36.9,1.24,1.52,1.44.58.19,1.27.25,1.93.33.61.07,1.26-.63,1.92-.65.61-.01,1.28.66,1.93.58.61-.07,1.18-.79,1.82-.91.61-.12,1.3.17,1.93,0,.61-.16,1.13-.87,1.76-1.06.61-.19,1.35.19,1.96-.02.61-.21,1.13-.81,1.74-1.05.61-.24,1.29-.2,1.88-.46.61-.26,1.28-.28,1.87-.55.61-.28,1.03-1.12,1.61-1.41.6-.3,1.15-.7,1.72-1.01.6-.32,1.17-.66,1.73-.98.6-.34,1.21-.59,1.75-.92.61-.37,1.19-.68,1.7-1.03.42-.28,1-.91,1.66-1.38.68-.49,1.55-.58,1.89-.91.36-.34.61-.51.49-1.22M101.96,100.06c.62.23,1.21.62,1.83.87.62.25,1.35.12,1.97.39.61.27,1.19.68,1.81.97.61.28,1.12.89,1.73,1.19.61.29,1.23.54,1.84.84.61.3,1.26.45,1.87.74.61.3,1.22.57,1.84.86.61.29,1.22.57,1.84.85.62.28,1.23.54,1.85.8.62.26,1.32.18,1.95.42.63.24,1.2.65,1.83.86.63.21,1.18.88,1.82,1.05.64.17,1.29.36,1.93.49.64.13,1.37-.43,2.02-.35.65.08,1.28.32,1.93.35.65.03,1.29-.03,1.95-.05.65-.03,1.28-.17,1.94-.26.58-.08,1.16-.19,1.77-.46.58-.25,1.18-.44,1.71-.84.55-.42.86-1.09,1.24-1.64.49-.7,1.07-1.11,1.35-1.73.35-.77.84-1.46.92-2.22.08-.76-.18-1.6-.31-2.46-.11-.71-.36-1.46-.57-2.32-.19-.78-.22-1.61-.47-2.3-.27-.74-.47-1.55-.8-2.18-.35-.67-1.24-.8-1.66-1.35-.44-.58-.8-1.16-1.3-1.61-.51-.46-.8-1.4-1.37-1.74-.56-.33-1.21-.57-1.81-.79-.59-.22-1.33.31-1.96.18-.61-.12-1.17-.92-1.8-.96-.62-.04-1.25.56-1.89.59-.62.02-1.26-.35-1.89-.27-.62.08-1.17.72-1.8.85-.61.13-1.32-.31-1.93-.14-.61.17-1.15.72-1.76.92-.61.2-1.27.14-1.87.37-.6.23-1.27.23-1.86.49-.6.26-1.03,1.08-1.61,1.36-.59.29-1.14.68-1.7.98-.59.31-1.15.65-1.71.96-.59.34-1.18.57-1.73.91-.59.36-1.16.66-1.68,1.01-.16.11-.9.82-1.85,1.51-.62.45-1.5.54-2.09,1.02-1.01.81-1.72,1.63-1.53,1.87M127.6,83c.61-.02,1.2.14,1.79.19.61.05,1.24-.26,1.83-.15.6.12,1.18.4,1.75.59.59.19,1.08.72,1.63.98.57.27,1.12.52,1.65.86.54.34,1.11.58,1.61.99.5.41.99.85,1.45,1.33.46.48.89,1,1.3,1.54.41.54.79,1.12,1.15,1.72.35.59.9,1.06,1.2,1.71.29.64.44,1.41.68,2.11.24.67.1,1.53.28,2.25.18.7.3,1.4.43,2.14.12.72.72,1.35.79,2.1.07.71-.07,1.48-.13,2.18-.06.7-.15,1.44-.33,2.12-.18.67-.36,1.39-.63,2.02-.27.62-.64,1.22-.99,1.78-.35.56-.82,1.02-1.23,1.51-.41.49-.73,1.18-1.19,1.59-.46.42-1.11.54-1.61.87-.51.34-1.13.29-1.66.51-.55.23-1.02.65-1.58.76-.57.11-1.14.3-1.73.36-.58.06-1.16-.15-1.75-.14-.58,0-1.15-.17-1.73-.21-.58-.04-1.2.65-1.79.58-.58-.07-1.15-.31-1.73-.41-.57-.11-1.07-.81-1.64-.94-.57-.13-1.14-.21-1.71-.37-.57-.16-1.26.33-1.83.15-.56-.18-.99-1.02-1.55-1.22-.56-.2-1.25.15-1.81-.07-.56-.21-1.02-.82-1.57-1.05-.56-.23-1.24.02-1.79-.21-.55-.24-.96-1.01-1.51-1.25-.55-.24-1.2-.16-1.74-.4-.55-.25-1.02-.76-1.56-1.01-.55-.25-1.03-.74-1.57-.99-.55-.26-1.25,0-1.79-.24-.55-.25-1.13-.4-1.67-.65-.53-.24-1.07-.47-1.6-.74-.52-.26-1.02-.63-1.54-.9-.52-.28-1.02-.61-1.54-.88-.52-.28-.97-.36-1.49-.62-.58.33-1.2.25-1.76.63-.56.38-1.2.6-1.75,1.01-.55.41-.87,1.27-1.41,1.68-.54.41-1.2.6-1.75.99-.55.4-1.02,1.01-1.59,1.36-.52.32-1.24.2-1.81.53-.53.31-.87,1.23-1.44,1.54-.54.29-1.18.4-1.75.69-.55.28-1.2.31-1.78.58-.56.26-1.19.33-1.77.58-.57.24-.99,1.1-1.57,1.33-.58.23-1.27.02-1.86.23-.59.21-1.19.33-1.78.51-.59.18-1.12.75-1.71.91-.6.16-1.23.15-1.83.27-.61.12-1.25-.11-1.85-.02-.61.09-1.2.36-1.8.4-.62.04-1.23,0-1.83-.02-.62,0-1.26.38-1.85.31-.62-.07-1.25-.21-1.83-.35-.61-.15-1.08-.92-1.65-1.15-.59-.24-1.35.06-1.89-.28-.55-.35-.79-1.3-1.27-1.76-.48-.45-1.12-.67-1.54-1.24-.4-.55-.64-1.27-.97-1.93-.31-.62-.52-1.3-.76-2.03-.22-.67-.73-1.26-.89-2.03-.15-.7-.03-1.51-.12-2.3-.08-.72-.47-1.44-.51-2.23-.03-.77.22-1.52.23-2.22.01-.77.17-1.48.23-2.18.07-.77-.24-1.58-.12-2.26.14-.75.43-1.45.63-2.1.22-.72.75-1.2,1.05-1.8.32-.64.53-1.35.93-1.86.42-.53,1.05-.67,1.54-1.08.49-.4.95-.73,1.5-1.01.53-.28,1.01-.72,1.59-.9.56-.17,1.11-.44,1.71-.53.57-.09,1.16-.42,1.76-.44.58-.02,1.17.41,1.77.44.58.03,1.15.23,1.74.3.58.07,1.17.03,1.76.14.58.11,1.17.16,1.75.3.58.14,1.13.43,1.7.6.57.16,1.1.54,1.67.72.57.18,1.14.35,1.71.55.57.2,1.18.22,1.74.43.57.21,1.22.11,1.77.33.57.23,1.07.7,1.62.93.57.24,1.06.76,1.6.99.58.24,1.17.34,1.71.57.58.25,1.16.41,1.69.63.6.25,1.17.56,1.76.82.59.27,1.29.18,1.88.46.59.28,1.19.52,1.77.8.59.28,1.03,1.02,1.62,1.29.59.27,1.16.63,1.75.89.59.26,1.3.44,1.89.68.54-.35,1.06-.96,1.58-1.34.52-.39,1.02-.83,1.53-1.24.51-.41.88-1.08,1.39-1.49.51-.41,1.06-.75,1.58-1.15.51-.4,1.08-.7,1.62-1.07.53-.37,1.01-.9,1.56-1.25.54-.35,1.14-.61,1.7-.94.55-.33,1.18-.49,1.74-.8.56-.31,1.19-.41,1.77-.7.57-.28,1.14-.56,1.72-.83.58-.26,1.12-.66,1.71-.9.59-.24,1.23-.25,1.82-.46.6-.21,1.21-.27,1.81-.44.6-.18,1.14-.7,1.74-.85.61-.15,1.25-.05,1.85-.16.62-.11,1.22-.23,1.83-.29.62-.06,1.23-.26,1.84-.28"/></svg>