<?xml version="1.0" encoding="UTF-8"?><svg id="Layer_1" xmlns="http://www.w3.org/2000/svg" viewBox="0 0 200 200"><path d="M121.25,138.19c.19-.51.28-.31.73-.62.45-.31.24-.79.77-.95.52.21.9.78,1.15,1.14.27.39.7.77.8,1.26.08.45.06.97.1,1.47.03.41-.07.86-.06,1.29,0,.43.02.87-.04,1.29-.06.43-.31.8-.49,1.18-.17.38-.42.55-.76.86-.53.06-.93.11-1.34-.18-.4-.28-.54-.78-.68-1.3-.22-.16-.56.66-1.12,1.14-.3.26-.7.73-1.37.61-.52-.1-.87-.61-1.1-1.06-.2-.39-.28-.89-.35-1.42-.06-.46-.03-.96-.05-1.45-.01-.5.17-1.01.15-1.46-.02-.58-.41-1.08-.52-1.43.17-.53.51-.97.8-1.24.39-.36.92-.53,1.36-.43.42.09.87.42,1.14.88.21.35.42.83.44,1.38.07.6.05.6.13,1.21.09.6-.07,1.82.12,1.24.27-.83-.24-.88-.26-1.75-.03-.84.13-.84.44-1.66"/><path d="M121.25,138.19c.19-.51.28-.31.73-.62.45-.31.24-.79.77-.95.52.21.9.78,1.15,1.14.27.39.7.77.8,1.26.08.45.06.97.1,1.47.03.41-.07.86-.06,1.29,0,.43.02.87-.04,1.29-.06.43-.31.8-.49,1.18-.17.38-.42.55-.76.86-.53.06-.93.11-1.34-.18-.4-.28-.54-.78-.68-1.3-.22-.16-.56.66-1.12,1.14-.3.26-.7.73-1.37.61-.52-.1-.87-.61-1.1-1.06-.2-.39-.28-.89-.35-1.42-.06-.46-.03-.96-.05-1.45-.01-.5.17-1.01.15-1.46-.02-.58-.41-1.08-.52-1.43.17-.53.51-.97.8-1.24.39-.36.92-.53,1.36-.43.42.09.87.42,1.14.88.21.35.42.83.44,1.38.07.6.05.6.13,1.21.09.6-.07,1.82.12,1.24.27-.83-.24-.88-.26-1.75-.03-.84.13-.84.44-1.66"/><path d="M87.07,124.61c.45-.14,1.12-.05,1.58.12.47.17.65.68.77,1.21-.02.29.36.78.43,1.44.04.44.01.95.07,1.48.05.47-.18,1-.14,1.5.04.49.47.97.5,1.46.03.51-.23,1.03-.24,1.49,0,.55-.11,1.04-.19,1.46-.12.66-.25,1.13-.62,1.23-.5.14-1.15.07-1.68-.2-.53-.27-1.12-.72-1.22-1.27-.07-.35-.14-.81-.14-1.29,0-.4.37-.83.39-1.26.02-.43-.29-.87-.28-1.28.02-.46.2-.88.2-1.25,0-.36.08-1,.01-1.67-.06-.56-.24-1.12-.17-1.64.08-.64.21-1.38.74-1.54"/><path d="M87.07,124.61c.45-.14,1.12-.05,1.58.12.47.17.65.68.77,1.21-.02.29.36.78.43,1.44.04.44.01.95.07,1.48.05.47-.18,1-.14,1.5.04.49.47.97.5,1.46.03.51-.23,1.03-.24,1.49,0,.55-.11,1.04-.19,1.46-.12.66-.25,1.13-.62,1.23-.5.14-1.15.07-1.68-.2-.53-.27-1.12-.72-1.22-1.27-.07-.35-.14-.81-.14-1.29,0-.4.37-.83.39-1.26.02-.43-.29-.87-.28-1.28.02-.46.2-.88.2-1.25,0-.36.08-1,.01-1.67-.06-.56-.24-1.12-.17-1.64.08-.64.21-1.38.74-1.54"/><path d="M97.46,109.73c-.24-.21-.47-1.02-.51-1.38-.04-.38-.46-.87-.48-1.45-.02-.46.27-.98.27-1.5,0-.49-.28-1-.27-1.49,0-.52.27-1.02.29-1.48.03-.58.06-1.1.11-1.48.08-.63.59-.89,1.19-1.01.62-.12,1.29-.1,1.64.25.26.26.44.76.55,1.38.08.44.28.94.31,1.49.03.48-.15,1-.15,1.51,0,.51-.11,1.02-.11,1.51,0,.53.24,1.04.26,1.5.02.6.05,1.12.15,1.48-.06.56-.36,1.01-.73,1.23-.38.23-.88.01-1.36-.06-.46-.07-.83-.2-1.16-.5"/><path d="M97.46,109.73c-.24-.21-.47-1.02-.51-1.38-.04-.38-.46-.87-.48-1.45-.02-.46.27-.98.27-1.5,0-.49-.28-1-.27-1.49,0-.52.27-1.02.29-1.48.03-.58.06-1.1.11-1.48.08-.63.59-.89,1.19-1.01.62-.12,1.29-.1,1.64.25.26.26.44.76.55,1.38.08.44.28.94.31,1.49.03.48-.15,1-.15,1.51,0,.51-.11,1.02-.11,1.51,0,.53.24,1.04.26,1.5.02.6.05,1.12.15,1.48-.06.56-.36,1.01-.73,1.23-.38.23-.88.01-1.36-.06-.46-.07-.83-.2-1.16-.5"/><path d="M97.27,122.46c-.32-.2-.41-.79-.47-1.41-.04-.42-.26-.92-.23-1.45.03-.46.48-.9.54-1.39.06-.48.15-.96.21-1.42.07-.51.05-1,.1-1.44.06-.6-.12-1.12-.17-1.44.12-.41.45-.82.79-1.09.35-.27.82-.33,1.23-.35.42-.02.85.04,1.17.4.24.28.56.82.63,1.46.05.49.05,1.06.05,1.58,0,.62-.43,1.17-.45,1.54-.01.29-.01.93-.1,1.66-.06.54.26,1.19.17,1.72-.13.8-.49,1.45-.65,1.59-.23.21-.82.23-1.38.2-.56-.04-1.21-.03-1.44-.17"/><path d="M97.27,122.46c-.32-.2-.41-.79-.47-1.41-.04-.42-.26-.92-.23-1.45.03-.46.48-.9.54-1.39.06-.48.15-.96.21-1.42.07-.51.05-1,.1-1.44.06-.6-.12-1.12-.17-1.44.12-.41.45-.82.79-1.09.35-.27.82-.33,1.23-.35.42-.02.85.04,1.17.4.24.28.56.82.63,1.46.05.49.05,1.06.05,1.58,0,.62-.43,1.17-.45,1.54-.01.29-.01.93-.1,1.66-.06.54.26,1.19.17,1.72-.13.8-.49,1.45-.65,1.59-.23.21-.82.23-1.38.2-.56-.04-1.21-.03-1.44-.17"/><path d="M118.93,99.99c.32.26.56.8.66,1.3.09.4-.19.9-.19,1.38,0,.44-.07.88-.11,1.33-.05.47.2.96.14,1.38-.08.52-.51.94-.55,1.29-.05.45-.05,1-.1,1.51-.04.55-.08.9-.43,1.21-.29.25-.57.5-1.26.42-.32-.04-1.76-1.04-1.8-1.19-.11-.44.2-.95.19-1.42,0-.45-.05-.9,0-1.36.04-.46.16-.9.22-1.35.06-.47-.02-.94.02-1.38.03-.34-.07-.71-.09-1.08-.02-.38.03-.76.09-1.08.1-.53.69-.96,1.34-1.1.62-.13,1.46-.17,1.86.16"/><path d="M118.93,99.99c.32.26.56.8.66,1.3.09.4-.19.9-.19,1.38,0,.44-.07.88-.11,1.33-.05.47.2.96.14,1.38-.08.52-.51.94-.55,1.29-.05.45-.05,1-.1,1.51-.04.55-.08.9-.43,1.21-.29.25-.57.5-1.26.42-.32-.04-1.76-1.04-1.8-1.19-.11-.44.2-.95.19-1.42,0-.45-.05-.9,0-1.36.04-.46.16-.9.22-1.35.06-.47-.02-.94.02-1.38.03-.34-.07-.71-.09-1.08-.02-.38.03-.76.09-1.08.1-.53.69-.96,1.34-1.1.62-.13,1.46-.17,1.86.16"/><path d="M86.44,53.68c.64-.2,1.2-.42,1.54-.23.41.23.44.9.59,1.43.12.46.15.96.19,1.45.03.42.14.85.16,1.29.02.43.31.85.32,1.29.01.43-.03.87-.02,1.3.01.44,0,.87.02,1.3.01.44.06.89.08,1.31-.08.44-.81.56-1.41.68-.5.1-.97.16-1.43-.07-.43-.22-.71-.52-.81-1.13-.05-.3-.25-.77-.29-1.36-.03-.42.16-.91.13-1.4-.02-.46-.29-.92-.3-1.38-.01-.49-.03-.97-.03-1.39,0-.6.31-1.05.36-1.35.08-.52.39-1.59.9-1.74"/><path d="M86.44,53.68c.64-.2,1.2-.42,1.54-.23.41.23.44.9.59,1.43.12.46.15.96.19,1.45.03.42.14.85.16,1.29.02.43.31.85.32,1.29.01.43-.03.87-.02,1.3.01.44,0,.87.02,1.3.01.44.06.89.08,1.31-.08.44-.81.56-1.41.68-.5.1-.97.16-1.43-.07-.43-.22-.71-.52-.81-1.13-.05-.3-.25-.77-.29-1.36-.03-.42.16-.91.13-1.4-.02-.46-.29-.92-.3-1.38-.01-.49-.03-.97-.03-1.39,0-.6.31-1.05.36-1.35.08-.52.39-1.59.9-1.74"/><path d="M122,54.02c.31.28.16.91.23,1.49.05.48.14.98.13,1.48-.01.57-.04,1.12,0,1.5.03.32.2.93.31,1.63.08.54.29,1.11.33,1.64.05.76-.07,1.41-.35,1.6-.24.16-.8.41-1.37.47-.57.06-1.06-.24-1.31-.4-.16-.1-.28-.44-.42-1.1-.08-.38-.5-.77-.57-1.26-.06-.42.06-.89.01-1.35-.04-.44.03-.9,0-1.35-.03-.46-.03-.91-.04-1.33-.01-.49-.3-.95-.29-1.34.03-.65.17-1.2.29-1.38.28-.43.93-.62,1.48-.66.55-.04,1.22.04,1.57.37"/><path d="M122,54.02c.31.28.16.91.23,1.49.05.48.14.98.13,1.48-.01.57-.04,1.12,0,1.5.03.32.2.93.31,1.63.08.54.29,1.11.33,1.64.05.76-.07,1.41-.35,1.6-.24.16-.8.41-1.37.47-.57.06-1.06-.24-1.31-.4-.16-.1-.28-.44-.42-1.1-.08-.38-.5-.77-.57-1.26-.06-.42.06-.89.01-1.35-.04-.44.03-.9,0-1.35-.03-.46-.03-.91-.04-1.33-.01-.49-.3-.95-.29-1.34.03-.65.17-1.2.29-1.38.28-.43.93-.62,1.48-.66.55-.04,1.22.04,1.57.37"/><path d="M97.93,63.32c-.43-.08-.82-.04-1.21,0-.47.06-.96.33-1.29.17-.27-.14-.54-.57-.66-1.16-.09-.43-.12-.97-.16-1.54-.04-.48.2-1.01.19-1.54-.01-.51-.14-1.02-.12-1.53.01-.53-.06-1.05-.01-1.54.05-.56-.08-1.12,0-1.56.12-.63.58-1.18.97-1.42.47-.28,1.21-.3,1.69-.11.48.19.9.74,1.01,1.31.08.42.1.89.11,1.37.01.44-.11.89-.14,1.36-.02.45-.25.89-.28,1.35-.03.46.35.93.34,1.39-.01.46-.38.93-.36,1.37.02.47.48.91.57,1.34,0,.44-.31.46-.64.75"/><path d="M97.93,63.32c-.43-.08-.82-.04-1.21,0-.47.06-.96.33-1.29.17-.27-.14-.54-.57-.66-1.16-.09-.43-.12-.97-.16-1.54-.04-.48.2-1.01.19-1.54-.01-.51-.14-1.02-.12-1.53.01-.53-.06-1.05-.01-1.54.05-.56-.08-1.12,0-1.56.12-.63.58-1.18.97-1.42.47-.28,1.21-.3,1.69-.11.48.19.9.74,1.01,1.31.08.42.1.89.11,1.37.01.44-.11.89-.14,1.36-.02.45-.25.89-.28,1.35-.03.46.35.93.34,1.39-.01.46-.38.93-.36,1.37.02.47.48.91.57,1.34,0,.44-.31.46-.64.75"/><path d="M76.19,135.37c-.26-.32-.55-1.38-.59-1.84-.03-.32-.25-.79-.27-1.37-.02-.43-.19-.9-.2-1.39,0-.46.29-.94.29-1.4,0-.49-.18-.97-.17-1.4.02-.6.16-1.09.22-1.38.1-.49.43-.84.86-1.02.42-.18,1-.37,1.43-.15.37.18.49.73.65,1.26.08.27.45.79.52,1.5.05.47-.1,1.03-.05,1.59.04.52.02,1.06.05,1.58.03.56.19,1.1.2,1.57.02.71-.22,1.26-.25,1.56-.06.59-.06,1.06-.33,1.36-.35.38-.83.42-1.32.34-.42-.08-.7-.38-1.05-.81"/><path d="M76.19,135.37c-.26-.32-.55-1.38-.59-1.84-.03-.32-.25-.79-.27-1.37-.02-.43-.19-.9-.2-1.39,0-.46.29-.94.29-1.4,0-.49-.18-.97-.17-1.4.02-.6.16-1.09.22-1.38.1-.49.43-.84.86-1.02.42-.18,1-.37,1.43-.15.37.18.49.73.65,1.26.08.27.45.79.52,1.5.05.47-.1,1.03-.05,1.59.04.52.02,1.06.05,1.58.03.56.19,1.1.2,1.57.02.71-.22,1.26-.25,1.56-.06.59-.06,1.06-.33,1.36-.35.38-.83.42-1.32.34-.42-.08-.7-.38-1.05-.81"/><path d="M89.48,101.18c.26.24.46.95.54,1.65.06.49-.18,1.07-.17,1.63,0,.55-.06,1.1-.08,1.6-.02.66.05,1.24.05,1.6,0,.47.43.93.38,1.39-.06.66-.42,1.2-.8,1.45-.42.28-1.05.19-1.59.01-.46-.16-.96-.42-1.29-.89-.28-.39-.53-.9-.6-1.49-.04-.39-.11-.92-.11-1.51,0-.47.1-.99.12-1.51.02-.51,0-1.03.05-1.51.05-.58.19-1.09.26-1.48.08-.42.47-.53.85-.72.35-.18.69-.53,1.09-.52.45.01,1.05.04,1.3.28"/><path d="M89.48,101.18c.26.24.46.95.54,1.65.06.49-.18,1.07-.17,1.63,0,.55-.06,1.1-.08,1.6-.02.66.05,1.24.05,1.6,0,.47.43.93.38,1.39-.06.66-.42,1.2-.8,1.45-.42.28-1.05.19-1.59.01-.46-.16-.96-.42-1.29-.89-.28-.39-.53-.9-.6-1.49-.04-.39-.11-.92-.11-1.51,0-.47.1-.99.12-1.51.02-.51,0-1.03.05-1.51.05-.58.19-1.09.26-1.48.08-.42.47-.53.85-.72.35-.18.69-.53,1.09-.52.45.01,1.05.04,1.3.28"/><path d="M101.02,52.99c.56-.12.96.2,1.29.38.38.21.48.54.63,1.02.13.39.36.78.39,1.26.03.44-.06.89-.08,1.35-.02.46-.03.92-.05,1.35-.03.51-.19.99-.18,1.36.01.4.22.81.29,1.21.08.38.31.75.24,1.17-.07.37-.53.69-1.08.86-.44.14-.97.26-1.42.19-.52-.08-1.04-.39-1.17-.85,0-.45-.09-.9-.11-1.35-.03-.45.31-.92.27-1.37-.04-.45-.1-.89-.13-1.34-.03-.45-.1-.89-.1-1.34,0-.45.1-.88.15-1.32.05-.45-.19-.94-.07-1.37.15-.57.56-1.08,1.15-1.21"/><path d="M101.02,52.99c.56-.12.96.2,1.29.38.38.21.48.54.63,1.02.13.39.36.78.39,1.26.03.44-.06.89-.08,1.35-.02.46-.03.92-.05,1.35-.03.51-.19.99-.18,1.36.01.4.22.81.29,1.21.08.38.31.75.24,1.17-.07.37-.53.69-1.08.86-.44.14-.97.26-1.42.19-.52-.08-1.04-.39-1.17-.85,0-.45-.09-.9-.11-1.35-.03-.45.31-.92.27-1.37-.04-.45-.1-.89-.13-1.34-.03-.45-.1-.89-.1-1.34,0-.45.1-.88.15-1.32.05-.45-.19-.94-.07-1.37.15-.57.56-1.08,1.15-1.21"/><path d="M107.43,109.6c-.26-.19-.8-1.37-.86-1.76-.04-.26-.02-.77-.04-1.43-.01-.44-.26-.93-.26-1.45,0-.48.2-.97.21-1.45.01-.52-.28-1.03-.25-1.47.04-.68.33-1.18.4-1.4.17-.49.49-.69.95-.75.42-.06.89-.05,1.29.24.35.24.4.69.57,1.18.09.26.25.67.32,1.25.05.4.06.85.1,1.32.04.44.47.86.49,1.31.03.47-.01.93,0,1.34.02.57.1,1.05.09,1.34-.01.48-.36.94-.61,1.29-.28.38-.66.82-1.09.92-.42.09-.9-.18-1.32-.49"/><path d="M107.43,109.6c-.26-.19-.8-1.37-.86-1.76-.04-.26-.02-.77-.04-1.43-.01-.44-.26-.93-.26-1.45,0-.48.2-.97.21-1.45.01-.52-.28-1.03-.25-1.47.04-.68.33-1.18.4-1.4.17-.49.49-.69.95-.75.42-.06.89-.05,1.29.24.35.24.4.69.57,1.18.09.26.25.67.32,1.25.05.4.06.85.1,1.32.04.44.47.86.49,1.31.03.47-.01.93,0,1.34.02.57.1,1.05.09,1.34-.01.48-.36.94-.61,1.29-.28.38-.66.82-1.09.92-.42.09-.9-.18-1.32-.49"/><path d="M91.26,53.52c.64-.19,1.24-.44,1.61-.16.37.28.53.94.61,1.55.03.2-.22.71-.21,1.35,0,.4.21.85.21,1.33,0,.43-.19.89-.19,1.34,0,.45.05.91.04,1.34,0,.49.22.95.2,1.35-.03.7-.12,1.21-.18,1.33-.16.33-.88.67-1.58.66-.65-.01-1.14-.5-1.39-.82-.13-.17-.15-.68-.21-1.42-.04-.5-.35-1.04-.36-1.55-.02-.69-.22-1.31-.21-1.58,0-.26.49-.75.54-1.34.04-.45-.33-.97-.28-1.41.08-.65.4-1.14.49-1.29.11-.19.69-.61.9-.67"/><path d="M91.26,53.52c.64-.19,1.24-.44,1.61-.16.37.28.53.94.61,1.55.03.2-.22.71-.21,1.35,0,.4.21.85.21,1.33,0,.43-.19.89-.19,1.34,0,.45.05.91.04,1.34,0,.49.22.95.2,1.35-.03.7-.12,1.21-.18,1.33-.16.33-.88.67-1.58.66-.65-.01-1.14-.5-1.39-.82-.13-.17-.15-.68-.21-1.42-.04-.5-.35-1.04-.36-1.55-.02-.69-.22-1.31-.21-1.58,0-.26.49-.75.54-1.34.04-.45-.33-.97-.28-1.41.08-.65.4-1.14.49-1.29.11-.19.69-.61.9-.67"/><path d="M104.73,112.55c.11.11.19.79.36,1.41.15.57.08,1.18.11,1.39.05.35.1.86.12,1.47.02.47.32.98.32,1.49,0,.52-.27,1.03-.28,1.5-.02.62.33,1.2.27,1.54-.09.46-.57.68-.88.89-.33.23-.68.37-1.11.31-.38-.06-.69-.28-1.02-.58-.35-.32-.53-.65-.64-1.07-.11-.41-.36-.84-.33-1.29.03-.43.46-.84.52-1.27.07-.46-.16-.93-.15-1.34,0-.35,0-.83-.04-1.36-.04-.45.1-.92.11-1.37.02-.5.05-.92.25-1.27.22-.38.48-.74,1.04-.76.21,0,1.24.19,1.35.3"/><path d="M104.73,112.55c.11.11.19.79.36,1.41.15.57.08,1.18.11,1.39.05.35.1.86.12,1.47.02.47.32.98.32,1.49,0,.52-.27,1.03-.28,1.5-.02.62.33,1.2.27,1.54-.09.46-.57.68-.88.89-.33.23-.68.37-1.11.31-.38-.06-.69-.28-1.02-.58-.35-.32-.53-.65-.64-1.07-.11-.41-.36-.84-.33-1.29.03-.43.46-.84.52-1.27.07-.46-.16-.93-.15-1.34,0-.35,0-.83-.04-1.36-.04-.45.1-.92.11-1.37.02-.5.05-.92.25-1.27.22-.38.48-.74,1.04-.76.21,0,1.24.19,1.35.3"/><path d="M82.72,88.27c-.06-.03-.03-.33-.08-.36-.24-.13-.98.27-1.38-1.04-.08-.25-.35-.76-.35-1.45,0-.45.31-.96.34-1.5.02-.5-.4-1.04-.36-1.54.04-.54.16-1.06.21-1.51.08-.68.35-1.2.45-1.45.22-.55.66-.77,1.1-.94.5-.19,1.08-.41,1.52-.09.35.26.69.8.78,1.44.04.29,0,.81,0,1.41,0,.42.11.9.09,1.39-.01.46-.02.94-.04,1.4-.02.49-.22.96-.25,1.38-.04.58.03,1.09-.01,1.39-.05.44-.32.99-.65,1.31-.35.34-.92.39-1.36.15"/><path d="M82.72,88.27c-.06-.03-.03-.33-.08-.36-.24-.13-.98.27-1.38-1.04-.08-.25-.35-.76-.35-1.45,0-.45.31-.96.34-1.5.02-.5-.4-1.04-.36-1.54.04-.54.16-1.06.21-1.51.08-.68.35-1.2.45-1.45.22-.55.66-.77,1.1-.94.5-.19,1.08-.41,1.52-.09.35.26.69.8.78,1.44.04.29,0,.81,0,1.41,0,.42.11.9.09,1.39-.01.46-.02.94-.04,1.4-.02.49-.22.96-.25,1.38-.04.58.03,1.09-.01,1.39-.05.44-.32.99-.65,1.31-.35.34-.92.39-1.36.15"/><path d="M83.43,54.46c.14.18.22.56.31,1.02.09.44.32.85.34,1.09.03.36.28.9.3,1.54.02.49-.37,1.03-.36,1.57,0,.54,0,1.07,0,1.56-.02.66.26,1.25.2,1.58-.06.33-.38.34-.67.51-.37.04-.73.36-1.16.4-.44.04-.89.02-1.23-.14-.32-.16-.34-.54-.44-1.06-.05-.25-.1-.72-.12-1.35-.01-.42-.09-.89-.1-1.38,0-.46-.23-.93-.22-1.39,0-.49-.05-.98-.04-1.4.02-.62.19-1.12.23-1.38.07-.44.5-.7.83-1.02.34-.32.62-.84,1.04-.89.44-.05.77.34,1.09.75"/><path d="M83.43,54.46c.14.18.22.56.31,1.02.09.44.32.85.34,1.09.03.36.28.9.3,1.54.02.49-.37,1.03-.36,1.57,0,.54,0,1.07,0,1.56-.02.66.26,1.25.2,1.58-.06.33-.38.34-.67.51-.37.04-.73.36-1.16.4-.44.04-.89.02-1.23-.14-.32-.16-.34-.54-.44-1.06-.05-.25-.1-.72-.12-1.35-.01-.42-.09-.89-.1-1.38,0-.46-.23-.93-.22-1.39,0-.49-.05-.98-.04-1.4.02-.62.19-1.12.23-1.38.07-.44.5-.7.83-1.02.34-.32.62-.84,1.04-.89.44-.05.77.34,1.09.75"/><path d="M123.96,120.93c-.04.1-.74.31-.52.83-.6-.37-1.17-.21-1.56-.22-.16,0-.18-.14-.24-.16-.48-.2-.65-.5-.84-.76-.17-.24-.24-.52-.33-1.05-.04-.25-.33-.81-.32-1.51,0-.47.42-.99.44-1.52.02-.53-.11-1.07-.08-1.54.05-.69,0-1.27.05-1.53.09-.48.4-.78.68-1.04.33-.29.69-.73,1.11-.74.42,0,.77.45,1.1.73.3.25.5.54.57,1.02.05.3,0,.82,0,1.48,0,.45-.05.96-.05,1.49,0,.49.15,1.01.12,1.5-.03.53-.01,1.05-.06,1.5-.07.66.03,1.27-.08,1.54"/><path d="M123.96,120.93c-.04.1-.74.31-.52.83-.6-.37-1.17-.21-1.56-.22-.16,0-.18-.14-.24-.16-.48-.2-.65-.5-.84-.76-.17-.24-.24-.52-.33-1.05-.04-.25-.33-.81-.32-1.51,0-.47.42-.99.44-1.52.02-.53-.11-1.07-.08-1.54.05-.69,0-1.27.05-1.53.09-.48.4-.78.68-1.04.33-.29.69-.73,1.11-.74.42,0,.77.45,1.1.73.3.25.5.54.57,1.02.05.3,0,.82,0,1.48,0,.45-.05.96-.05,1.49,0,.49.15,1.01.12,1.5-.03.53-.01,1.05-.06,1.5-.07.66.03,1.27-.08,1.54"/><path d="M109.97,122.57c-.5-.33-1.2.07-1.44,0-.32-.1-.71-.45-1.04-.83-.32-.37-.55-.81-.61-1.15-.04-.26.12-.77.1-1.39-.01-.42-.05-.89-.06-1.38,0-.46-.3-.93-.3-1.39,0-.5.01-.97.03-1.39.02-.63.36-1.09.41-1.34.09-.47.03-1.05.36-1.28.36-.24.92-.06,1.34.05.37.1.74.29,1.01.71.2.31.35.71.43,1.21.05.37.26.82.31,1.32.04.42.05.88.08,1.35.03.44-.06.91-.04,1.35.02.47-.2.92-.2,1.34,0,.51.35,1,.3,1.36-.06.51-.46,1.03-.69,1.46"/><path d="M109.97,122.57c-.5-.33-1.2.07-1.44,0-.32-.1-.71-.45-1.04-.83-.32-.37-.55-.81-.61-1.15-.04-.26.12-.77.1-1.39-.01-.42-.05-.89-.06-1.38,0-.46-.3-.93-.3-1.39,0-.5.01-.97.03-1.39.02-.63.36-1.09.41-1.34.09-.47.03-1.05.36-1.28.36-.24.92-.06,1.34.05.37.1.74.29,1.01.71.2.31.35.71.43,1.21.05.37.26.82.31,1.32.04.42.05.88.08,1.35.03.44-.06.91-.04,1.35.02.47-.2.92-.2,1.34,0,.51.35,1,.3,1.36-.06.51-.46,1.03-.69,1.46"/><path d="M97.47,77.15c.51-.09.94.12,1.34.39.4.28.55.62.63,1.15.04.26.41.73.43,1.35.01.42.1.9.1,1.39,0,.46-.22.93-.22,1.39,0,.49.11.97.1,1.39-.02.62.05,1.16,0,1.41-.11.6-.71,1.02-1.25,1.13-.51.11-1.17.01-1.65-.26-.46-.27-.67-.82-.75-1.4-.05-.33-.31-.84-.33-1.48-.02-.46-.09-.98-.09-1.51,0-.5.21-1.01.24-1.51.03-.54.13-1.04.2-1.49.1-.66.02-1.3.22-1.54.19-.24.75-.36,1.05-.41"/><path d="M97.47,77.15c.51-.09.94.12,1.34.39.4.28.55.62.63,1.15.04.26.41.73.43,1.35.01.42.1.9.1,1.39,0,.46-.22.93-.22,1.39,0,.49.11.97.1,1.39-.02.62.05,1.16,0,1.41-.11.6-.71,1.02-1.25,1.13-.51.11-1.17.01-1.65-.26-.46-.27-.67-.82-.75-1.4-.05-.33-.31-.84-.33-1.48-.02-.46-.09-.98-.09-1.51,0-.5.21-1.01.24-1.51.03-.54.13-1.04.2-1.49.1-.66.02-1.3.22-1.54.19-.24.75-.36,1.05-.41"/><path d="M76.91,113.52c.1.29.13-.26.42-.36.66.13,1,.21,1.26.54.25.33.41.77.49,1.41.03.25-.19.8-.17,1.49.01.45.37.95.37,1.47,0,.49.06,1,.04,1.48-.01.53-.04,1.05-.07,1.49-.04.74-.45,1.14-.55,1.3-.35.3-.87.47-1.51.38-.65-.09-1.48-.21-1.68-.64-.11-.24-.11-.79-.16-1.4-.03-.4.14-.87.13-1.36,0-.43.04-.89.04-1.35,0-.46-.07-.92-.05-1.35.02-.49.19-.93.23-1.33.05-.59.06-1.05.14-1.31.12-.39,1.27-1.4,1.06-.44"/><path d="M76.91,113.52c.1.29.13-.26.42-.36.66.13,1,.21,1.26.54.25.33.41.77.49,1.41.03.25-.19.8-.17,1.49.01.45.37.95.37,1.47,0,.49.06,1,.04,1.48-.01.53-.04,1.05-.07,1.49-.04.74-.45,1.14-.55,1.3-.35.3-.87.47-1.51.38-.65-.09-1.48-.21-1.68-.64-.11-.24-.11-.79-.16-1.4-.03-.4.14-.87.13-1.36,0-.43.04-.89.04-1.35,0-.46-.07-.92-.05-1.35.02-.49.19-.93.23-1.33.05-.59.06-1.05.14-1.31.12-.39,1.27-1.4,1.06-.44"/><path d="M83.04,100.72c.67.05,1.27,1.02,1.37,1.65.05.32-.03.8,0,1.35.02.41.1.87.1,1.34,0,.44,0,.9,0,1.35,0,.47-.23.92-.25,1.34-.02.54.37,1.04.34,1.37-.08.8-.71,1.07-1.19,1.24-.46.16-.89.01-1.53-.35-.44-.25-.9-.4-1.09-.86-.17-.41-.07-.92-.1-1.44-.03-.46,0-.93.04-1.43.04-.48.14-.95.21-1.43.07-.5-.23-1.03-.18-1.49.07-.55.44-1,.42-1.41.08-.29.19-.8.61-.98.41-.18.98-.27,1.25-.25"/><path d="M83.04,100.72c.67.05,1.27,1.02,1.37,1.65.05.32-.03.8,0,1.35.02.41.1.87.1,1.34,0,.44,0,.9,0,1.35,0,.47-.23.92-.25,1.34-.02.54.37,1.04.34,1.37-.08.8-.71,1.07-1.19,1.24-.46.16-.89.01-1.53-.35-.44-.25-.9-.4-1.09-.86-.17-.41-.07-.92-.1-1.44-.03-.46,0-.93.04-1.43.04-.48.14-.95.21-1.43.07-.5-.23-1.03-.18-1.49.07-.55.44-1,.42-1.41.08-.29.19-.8.61-.98.41-.18.98-.27,1.25-.25"/><path d="M77.13,66.25c.47-.14,1.55-.41,1.94-.09.23.18.45.82.55,1.55.06.47.06,1.02.09,1.59.03.51.1,1.06.11,1.58.01.56-.35,1.1-.34,1.59.01.68.12,1.24.16,1.56-.08.55-.15,1.06-.49,1.3-.38.26-.98.41-1.45.34-.45-.07-.92-.42-1.24-.76-.3-.32-.53-.79-.54-1.31-.01-.47.2-.9.17-1.4-.02-.32.06-.78,0-1.3-.05-.41-.07-.85-.1-1.3-.03-.44.18-.87.2-1.3.03-.48-.19-.96-.04-1.32.18-.43.58-.57,1.01-.7"/><path d="M77.13,66.25c.47-.14,1.55-.41,1.94-.09.23.18.45.82.55,1.55.06.47.06,1.02.09,1.59.03.51.1,1.06.11,1.58.01.56-.35,1.1-.34,1.59.01.68.12,1.24.16,1.56-.08.55-.15,1.06-.49,1.3-.38.26-.98.41-1.45.34-.45-.07-.92-.42-1.24-.76-.3-.32-.53-.79-.54-1.31-.01-.47.2-.9.17-1.4-.02-.32.06-.78,0-1.3-.05-.41-.07-.85-.1-1.3-.03-.44.18-.87.2-1.3.03-.48-.19-.96-.04-1.32.18-.43.58-.57,1.01-.7"/><path d="M79.05,63.2c-.16.22-.68.65-.85,1.02-.23-.08.23-.43.14-.66-.08-.07-.97,1.1-1.99-.18-.14-.17-.44-.58-.53-1.15-.06-.4,0-.86-.05-1.28-.05-.52-.1-.99-.11-1.26-.02-.39.2-.85.18-1.3-.02-.43-.42-.87-.39-1.3.03-.45.21-.9.34-1.29.15-.42.54-.64.89-.91.3-.23.62-.33,1.13-.38.58-.05.89.15,1.12.71.18.43.39.95.44,1.52.04.53-.27,1.09-.28,1.59-.01.67.43,1.26.44,1.58,0,.5-.16,1.13-.1,1.74.06.6-.05,1.05-.39,1.53"/><path d="M79.05,63.2c-.16.22-.68.65-.85,1.02-.23-.08.23-.43.14-.66-.08-.07-.97,1.1-1.99-.18-.14-.17-.44-.58-.53-1.15-.06-.4,0-.86-.05-1.28-.05-.52-.1-.99-.11-1.26-.02-.39.2-.85.18-1.3-.02-.43-.42-.87-.39-1.3.03-.45.21-.9.34-1.29.15-.42.54-.64.89-.91.3-.23.62-.33,1.13-.38.58-.05.89.15,1.12.71.18.43.39.95.44,1.52.04.53-.27,1.09-.28,1.59-.01.67.43,1.26.44,1.58,0,.5-.16,1.13-.1,1.74.06.6-.05,1.05-.39,1.53"/><path d="M89.23,65.99c.21.27.34.91.44,1.58.07.47-.17,1.03-.13,1.59.03.51,0,1.04.02,1.56.02.55.14,1.08.15,1.56.01.65.24,1.22.27,1.58-.22.46-.74.6-1.08.79-.4.22-.79.53-1.22.42-.41-.1-.89-.35-1.19-.71-.26-.31-.48-.79-.57-1.27-.05-.29.09-.88.06-1.57-.02-.48-.21-1.01-.22-1.54,0-.54.24-1.07.25-1.55.01-.69.14-1.23.19-1.51.08-.42.07-.99.44-1.22.35-.22.92-.25,1.33-.23.43.02.99.17,1.26.51"/><path d="M89.23,65.99c.21.27.34.91.44,1.58.07.47-.17,1.03-.13,1.59.03.51,0,1.04.02,1.56.02.55.14,1.08.15,1.56.01.65.24,1.22.27,1.58-.22.46-.74.6-1.08.79-.4.22-.79.53-1.22.42-.41-.1-.89-.35-1.19-.71-.26-.31-.48-.79-.57-1.27-.05-.29.09-.88.06-1.57-.02-.48-.21-1.01-.22-1.54,0-.54.24-1.07.25-1.55.01-.69.14-1.23.19-1.51.08-.42.07-.99.44-1.22.35-.22.92-.25,1.33-.23.43.02.99.17,1.26.51"/><path d="M79.41,78.64c.2.25.49.68.54,1.33.04.43-.27.94-.27,1.47,0,.47.16.96.15,1.46-.02.49.21,1,.19,1.47-.02.52-.06,1.01-.07,1.45-.01.61-.32,1.11-.27,1.44-.06.45-.18.84-.53.97-.34.13-.98.16-1.32.28-.2-.76-.34-.32-.67-.51-.2-.12-.63-.95-.68-1.23-.06-.31-.31-.89-.33-1.59-.01-.5.25-1.06.25-1.62,0-.56,0-1.11.03-1.62.02-.69-.19-1.3-.15-1.63.07-.49.48-.92.76-1.32.32-.44.72-.7,1.15-.81.45-.11.82-.03,1.22.46"/><path d="M79.41,78.64c.2.25.49.68.54,1.33.04.43-.27.94-.27,1.47,0,.47.16.96.15,1.46-.02.49.21,1,.19,1.47-.02.52-.06,1.01-.07,1.45-.01.61-.32,1.11-.27,1.44-.06.45-.18.84-.53.97-.34.13-.98.16-1.32.28-.2-.76-.34-.32-.67-.51-.2-.12-.63-.95-.68-1.23-.06-.31-.31-.89-.33-1.59-.01-.5.25-1.06.25-1.62,0-.56,0-1.11.03-1.62.02-.69-.19-1.3-.15-1.63.07-.49.48-.92.76-1.32.32-.44.72-.7,1.15-.81.45-.11.82-.03,1.22.46"/><path d="M84.48,75.06c-.25.25-.65.34-1.13.31-.41-.02-.95.16-1.32-.02-.42-.2-.43-.73-.54-1.1.05-.45-.37-.92-.39-1.45-.02-.47-.03-.96-.07-1.46-.04-.49,0-.99-.02-1.48-.03-.51.21-1,.23-1.47.02-.53.03-.99.16-1.42.13-.45.41-.73.89-.86.43-.12,1-.34,1.43-.13.39.19.69.69.85,1.19.07.23-.11.74-.06,1.35.04.4.18.83.21,1.31.02.43.06.88.07,1.33.01.45.31.9.3,1.33,0,.48-.04.95-.07,1.34-.05.66-.4,1.08-.54,1.22"/><path d="M84.48,75.06c-.25.25-.65.34-1.13.31-.41-.02-.95.16-1.32-.02-.42-.2-.43-.73-.54-1.1.05-.45-.37-.92-.39-1.45-.02-.47-.03-.96-.07-1.46-.04-.49,0-.99-.02-1.48-.03-.51.21-1,.23-1.47.02-.53.03-.99.16-1.42.13-.45.41-.73.89-.86.43-.12,1-.34,1.43-.13.39.19.69.69.85,1.19.07.23-.11.74-.06,1.35.04.4.18.83.21,1.31.02.43.06.88.07,1.33.01.45.31.9.3,1.33,0,.48-.04.95-.07,1.34-.05.66-.4,1.08-.54,1.22"/><path d="M102.21,77.2c.58-.13,1.04.12,1.39.26.43.18.81.46.97.94.13.39-.02.89,0,1.4.01.44.24.92.2,1.39-.03.46-.29.92-.33,1.37-.05.49-.09.96-.11,1.39-.03.55.24,1.06.32,1.41-.23.58-.88.67-1.32.82-.48.16-.97.36-1.44.08-.41-.25-.59-.75-.79-1.29-.11-.28-.55-.67-.59-1.23-.02-.4.04-.87.05-1.34,0-.44.07-.89.11-1.33.03-.47.2-.91.25-1.32.07-.55.13-1.02.23-1.31.21-.6.38-1.09,1.06-1.25"/><path d="M102.21,77.2c.58-.13,1.04.12,1.39.26.43.18.81.46.97.94.13.39-.02.89,0,1.4.01.44.24.92.2,1.39-.03.46-.29.92-.33,1.37-.05.49-.09.96-.11,1.39-.03.55.24,1.06.32,1.41-.23.58-.88.67-1.32.82-.48.16-.97.36-1.44.08-.41-.25-.59-.75-.79-1.29-.11-.28-.55-.67-.59-1.23-.02-.4.04-.87.05-1.34,0-.44.07-.89.11-1.33.03-.47.2-.91.25-1.32.07-.55.13-1.02.23-1.31.21-.6.38-1.09,1.06-1.25"/><path d="M102.63,109.34c-.05-.03-1.07-.68-1.1-.73-.12-.2.13-.84.06-1.48-.05-.41-.32-.86-.35-1.35-.03-.45-.19-.92-.2-1.38,0-.49.11-.97.12-1.38.01-.62.37-1.08.42-1.33.08-.43.07-.97.45-1.2.36-.22.87.04,1.31.09.41.05,1.01-.14,1.31.23.23.28.2.82.28,1.34.06.38.31.9.36,1.53.04.49,0,1.03.02,1.56.03.54-.18,1.08-.18,1.56,0,.63.29,1.21.23,1.57-.11.68-.57,1.28-1.05,1.43-.48.15-1.14-.16-1.66-.47"/><path d="M102.63,109.34c-.05-.03-1.07-.68-1.1-.73-.12-.2.13-.84.06-1.48-.05-.41-.32-.86-.35-1.35-.03-.45-.19-.92-.2-1.38,0-.49.11-.97.12-1.38.01-.62.37-1.08.42-1.33.08-.43.07-.97.45-1.2.36-.22.87.04,1.31.09.41.05,1.01-.14,1.31.23.23.28.2.82.28,1.34.06.38.31.9.36,1.53.04.49,0,1.03.02,1.56.03.54-.18,1.08-.18,1.56,0,.63.29,1.21.23,1.57-.11.68-.57,1.28-1.05,1.43-.48.15-1.14-.16-1.66-.47"/><path d="M87.82,112.95c.66-.26,1.3-.45,1.68-.17.37.27.36.97.49,1.6-.06.38-.05.89-.02,1.46.03.46.12.95.17,1.46.04.49.26.98.28,1.46.03.52-.14,1.03-.17,1.48-.03.59.04,1.17-.17,1.49-.33.52-.83.4-1.26.35-.41-.05-.87-.04-1.36,0-.4-.18-.7-.58-.85-1.09-.12-.39-.26-.87-.27-1.37-.01-.44.38-.89.41-1.36.03-.46-.15-.94-.1-1.39.05-.48.16-.95.19-1.37.04-.55.19-1.02.14-1.37.08-.44.43-1.02.85-1.19"/><path d="M87.82,112.95c.66-.26,1.3-.45,1.68-.17.37.27.36.97.49,1.6-.06.38-.05.89-.02,1.46.03.46.12.95.17,1.46.04.49.26.98.28,1.46.03.52-.14,1.03-.17,1.48-.03.59.04,1.17-.17,1.49-.33.52-.83.4-1.26.35-.41-.05-.87-.04-1.36,0-.4-.18-.7-.58-.85-1.09-.12-.39-.26-.87-.27-1.37-.01-.44.38-.89.41-1.36.03-.46-.15-.94-.1-1.39.05-.48.16-.95.19-1.37.04-.55.19-1.02.14-1.37.08-.44.43-1.02.85-1.19"/><path d="M91.7,65.32c.67-.16,1.18-.05,1.51.23.35.3.65.81.74,1.38.08.48-.17,1.05-.17,1.56,0,.59.06,1.14.1,1.52.04.37.27.82.37,1.31.09.44.33.9.36,1.34.03.5-.45.86-.65,1.22-.19.35-.32.73-.9.8-.6.08-1.19.14-1.56-.11-.39-.27-.48-.9-.67-1.4-.17-.45-.53-.9-.6-1.4-.07-.52-.14-1.05-.16-1.49-.02-.39.11-.88.09-1.39-.01-.45-.04-.94.02-1.39.06-.49.21-.97.41-1.34.22-.4.61-.71,1.1-.84"/><path d="M91.7,65.32c.67-.16,1.18-.05,1.51.23.35.3.65.81.74,1.38.08.48-.17,1.05-.17,1.56,0,.59.06,1.14.1,1.52.04.37.27.82.37,1.31.09.44.33.9.36,1.34.03.5-.45.86-.65,1.22-.19.35-.32.73-.9.8-.6.08-1.19.14-1.56-.11-.39-.27-.48-.9-.67-1.4-.17-.45-.53-.9-.6-1.4-.07-.52-.14-1.05-.16-1.49-.02-.39.11-.88.09-1.39-.01-.45-.04-.94.02-1.39.06-.49.21-.97.41-1.34.22-.4.61-.71,1.1-.84"/><path d="M107.59,53.35c.2.24.51.7.61,1.26.07.39-.06.88-.02,1.37.03.43-.11.89-.1,1.34.01.45.27.9.27,1.34,0,.47-.04.93-.04,1.34,0,.54-.09,1.01-.06,1.33.06.38-.38.87-.96,1.07-.56.2-1.24,0-1.47-.04-.5-.07-.85-.51-.94-.99.09-.46.17-1,.13-1.57-.03-.49-.23-1.02-.29-1.54-.06-.52-.07-1.04-.11-1.55-.04-.55-.33-1.08-.28-1.56.06-.56.41-.99.69-1.39.32-.46.65-1.04,1.11-1.11.46-.08,1.05.24,1.45.71"/><path d="M107.59,53.35c.2.24.51.7.61,1.26.07.39-.06.88-.02,1.37.03.43-.11.89-.1,1.34.01.45.27.9.27,1.34,0,.47-.04.93-.04,1.34,0,.54-.09,1.01-.06,1.33.06.38-.38.87-.96,1.07-.56.2-1.24,0-1.47-.04-.5-.07-.85-.51-.94-.99.09-.46.17-1,.13-1.57-.03-.49-.23-1.02-.29-1.54-.06-.52-.07-1.04-.11-1.55-.04-.55-.33-1.08-.28-1.56.06-.56.41-.99.69-1.39.32-.46.65-1.04,1.11-1.11.46-.08,1.05.24,1.45.71"/><path d="M114.93,122.27c-.07.04-1.37.57-1.45.57-.14,0-.11-.59-.17-.62-.15-.07-.41.13-.56-.04-.28-.32-.34-.79-.49-1.26-.13-.41-.53-.8-.59-1.28-.06-.44.04-.93.02-1.39-.02-.46-.07-.92-.07-1.38,0-.48.24-.94.23-1.38,0-.5-.3-1-.33-1.4.25-.59.79-.93,1.18-1.14.5-.26.97-.15,1.42.2.35.27.6.66.75,1.29.08.36.4.89.48,1.56.06.5-.24,1.09-.19,1.65.05.56.1,1.1.12,1.61.03.67.45,1.26.42,1.62-.04.39-.46,1.22-.77,1.4"/><path d="M114.93,122.27c-.07.04-1.37.57-1.45.57-.14,0-.11-.59-.17-.62-.15-.07-.41.13-.56-.04-.28-.32-.34-.79-.49-1.26-.13-.41-.53-.8-.59-1.28-.06-.44.04-.93.02-1.39-.02-.46-.07-.92-.07-1.38,0-.48.24-.94.23-1.38,0-.5-.3-1-.33-1.4.25-.59.79-.93,1.18-1.14.5-.26.97-.15,1.42.2.35.27.6.66.75,1.29.08.36.4.89.48,1.56.06.5-.24,1.09-.19,1.65.05.56.1,1.1.12,1.61.03.67.45,1.26.42,1.62-.04.39-.46,1.22-.77,1.4"/><path d="M114.86,108.78c-.15.19-1.49.65-1.76.62-.46-.32-.21-.63-.75-.77-.26-.06.11.3-.12.18-.09-.65-.69-.86-.84-1.49-.05-.23-.01-.79-.03-1.51-.01-.48-.39-1-.39-1.54,0-.54.36-1.07.37-1.55.01-.72-.2-1.31-.16-1.55.11-.56.45-1.14.94-1.36.49-.22,1.11.02,1.6.27.42.22.66.56.81,1.21-.04.33.33.82.38,1.45.03.45.1.96.14,1.48.04.49-.32,1.03-.29,1.52.03.53.01,1.03,0,1.48-.01.68.29,1.33.1,1.56"/><path d="M114.86,108.78c-.15.19-1.49.65-1.76.62-.46-.32-.21-.63-.75-.77-.26-.06.11.3-.12.18-.09-.65-.69-.86-.84-1.49-.05-.23-.01-.79-.03-1.51-.01-.48-.39-1-.39-1.54,0-.54.36-1.07.37-1.55.01-.72-.2-1.31-.16-1.55.11-.56.45-1.14.94-1.36.49-.22,1.11.02,1.6.27.42.22.66.56.81,1.21-.04.33.33.82.38,1.45.03.45.1.96.14,1.48.04.49-.32,1.03-.29,1.52.03.53.01,1.03,0,1.48-.01.68.29,1.33.1,1.56"/><path d="M83.41,125.96c.23.23.63.52.71,1.09.06.41.13.9.14,1.37.01.46-.34.94-.35,1.37-.01.55.27,1.04.28,1.36,0,.42-.25.86-.19,1.26.06.4.53.79.47,1.21-.05.36-.26.78-.54,1.17-.25.36-.75.53-1.17.5-.38-.02-.79-.28-1.13-.49-.4-.24-.7-.58-.79-.88-.07-.23.05-.78.02-1.47-.02-.44,0-.94-.02-1.46,0-.49-.08-.99-.08-1.47,0-.52-.05-1.03-.04-1.47.02-.67-.2-1.23-.16-1.49.09-.68.71-1.22,1.28-1.34.59-.13,1.15.35,1.55.75"/><path d="M83.41,125.96c.23.23.63.52.71,1.09.06.41.13.9.14,1.37.01.46-.34.94-.35,1.37-.01.55.27,1.04.28,1.36,0,.42-.25.86-.19,1.26.06.4.53.79.47,1.21-.05.36-.26.78-.54,1.17-.25.36-.75.53-1.17.5-.38-.02-.79-.28-1.13-.49-.4-.24-.7-.58-.79-.88-.07-.23.05-.78.02-1.47-.02-.44,0-.94-.02-1.46,0-.49-.08-.99-.08-1.47,0-.52-.05-1.03-.04-1.47.02-.67-.2-1.23-.16-1.49.09-.68.71-1.22,1.28-1.34.59-.13,1.15.35,1.55.75"/><path d="M101.08,65.49c.35-.1.76-.18,1.17-.11.43.07.93.13,1.14.48.11.18.18.8.31,1.55.08.46.35.96.42,1.51.07.51.04,1.05.09,1.55.06.55.19,1.08.22,1.54.05.75-.1,1.37-.16,1.58-.13.43-.57.71-1.02.85-.4.13-.86.07-1.29-.09-.39-.15-.6-.47-.83-.91-.14-.26-.46-.66-.58-1.29-.08-.43-.09-.92-.15-1.43-.06-.47-.31-.94-.34-1.42-.04-.51.07-1.01.05-1.45-.02-.63.2-1.1.25-1.4.08-.41.32-.85.72-.96"/><path d="M101.08,65.49c.35-.1.76-.18,1.17-.11.43.07.93.13,1.14.48.11.18.18.8.31,1.55.08.46.35.96.42,1.51.07.51.04,1.05.09,1.55.06.55.19,1.08.22,1.54.05.75-.1,1.37-.16,1.58-.13.43-.57.71-1.02.85-.4.13-.86.07-1.29-.09-.39-.15-.6-.47-.83-.91-.14-.26-.46-.66-.58-1.29-.08-.43-.09-.92-.15-1.43-.06-.47-.31-.94-.34-1.42-.04-.51.07-1.01.05-1.45-.02-.63.2-1.1.25-1.4.08-.41.32-.85.72-.96"/><path d="M98.81,74.07c-.35.29-.99.01-1.5-.03-.49-.04-.89-.1-1.22-.45-.23-.25-.33-.64-.47-1.2-.1-.41-.59-.8-.65-1.3-.05-.45.02-.95,0-1.41-.02-.49.09-.97.1-1.4,0-.58,0-1.07.04-1.39.09-.6.5-.95.92-1.21.46-.29.93-.35,1.45-.18.47.15.93.39,1.18.96.05.31.09.85.16,1.5.05.46.34.95.39,1.48.04.5.1,1.03.12,1.52.02.54-.12,1.08-.15,1.53-.05.7-.14,1.39-.37,1.58"/><path d="M98.81,74.07c-.35.29-.99.01-1.5-.03-.49-.04-.89-.1-1.22-.45-.23-.25-.33-.64-.47-1.2-.1-.41-.59-.8-.65-1.3-.05-.45.02-.95,0-1.41-.02-.49.09-.97.1-1.4,0-.58,0-1.07.04-1.39.09-.6.5-.95.92-1.21.46-.29.93-.35,1.45-.18.47.15.93.39,1.18.96.05.31.09.85.16,1.5.05.46.34.95.39,1.48.04.5.1,1.03.12,1.52.02.54-.12,1.08-.15,1.53-.05.7-.14,1.39-.37,1.58"/><path d="M95.21,125.16c.24.19.15,1.34.19,1.69.04.36.34.92.36,1.59.01.51.15,1.06.15,1.62,0,.56-.3,1.12-.32,1.62-.02.68-.02,1.25-.08,1.6-.1.6-.31,1.01-.69,1.29-.38.28-.85.46-1.45.34-.08-.02-1.1-1.18-1.13-1.36-.05-.24.12-.77.1-1.44-.01-.43-.21-.92-.21-1.43,0-.47.17-.96.17-1.44,0-.51.07-1,.08-1.43.02-.66-.14-1.18-.1-1.44.1-.65.45-1.32,1-1.51.57-.19,1.45-.07,1.91.29"/><path d="M95.21,125.16c.24.19.15,1.34.19,1.69.04.36.34.92.36,1.59.01.51.15,1.06.15,1.62,0,.56-.3,1.12-.32,1.62-.02.68-.02,1.25-.08,1.6-.1.6-.31,1.01-.69,1.29-.38.28-.85.46-1.45.34-.08-.02-1.1-1.18-1.13-1.36-.05-.24.12-.77.1-1.44-.01-.43-.21-.92-.21-1.43,0-.47.17-.96.17-1.44,0-.51.07-1,.08-1.43.02-.66-.14-1.18-.1-1.44.1-.65.45-1.32,1-1.51.57-.19,1.45-.07,1.91.29"/><path d="M119.63,121.3c-.15.29-.49.66-.93.79-.51.15-1.07.19-1.13-.24-.32-.11-.23-.05-.55-.14-.09-.38-.33-.53-.39-.91-.05-.32-.21-.88-.23-1.57-.01-.5.1-1.05.11-1.6,0-.55-.22-1.11-.2-1.61.03-.69.24-1.25.29-1.57.09-.51.31-.82.6-1.08.34-.31.7-.59,1.14-.55.42.03.8.3,1.12.65.26.29.5.66.57,1.17.04.27.16.76.18,1.35.01.41-.06.88-.07,1.35,0,.45-.08.91-.1,1.36-.02.48-.04.95-.08,1.35-.06.6-.22,1.04-.34,1.27"/><path d="M119.63,121.3c-.15.29-.49.66-.93.79-.51.15-1.07.19-1.13-.24-.32-.11-.23-.05-.55-.14-.09-.38-.33-.53-.39-.91-.05-.32-.21-.88-.23-1.57-.01-.5.1-1.05.11-1.6,0-.55-.22-1.11-.2-1.61.03-.69.24-1.25.29-1.57.09-.51.31-.82.6-1.08.34-.31.7-.59,1.14-.55.42.03.8.3,1.12.65.26.29.5.66.57,1.17.04.27.16.76.18,1.35.01.41-.06.88-.07,1.35,0,.45-.08.91-.1,1.36-.02.48-.04.95-.08,1.35-.06.6-.22,1.04-.34,1.27"/><path d="M112.59,61.91c-.3-.06-.72.12-1.18.21-.41.08-.85.25-1.21.23-.42-.03-.84-.29-.98-.76-.05-.17.15-.74.13-1.45-.01-.43.04-.91.04-1.42,0-.47-.16-.96-.16-1.43,0-.51-.2-1.01-.19-1.44.02-.68.39-1.18.42-1.39.08-.51.1-.93.4-1.16.34-.26.81-.41,1.25-.34.39.06.94.21,1.29.5.09.23.18.84.27,1.49.06.42-.27.94-.23,1.44.04.45.28.91.31,1.39.03.48-.13.96-.12,1.41.01.52.21.99.19,1.41-.03.73-.08,1.21-.23,1.31"/><path d="M112.59,61.91c-.3-.06-.72.12-1.18.21-.41.08-.85.25-1.21.23-.42-.03-.84-.29-.98-.76-.05-.17.15-.74.13-1.45-.01-.43.04-.91.04-1.42,0-.47-.16-.96-.16-1.43,0-.51-.2-1.01-.19-1.44.02-.68.39-1.18.42-1.39.08-.51.1-.93.4-1.16.34-.26.81-.41,1.25-.34.39.06.94.21,1.29.5.09.23.18.84.27,1.49.06.42-.27.94-.23,1.44.04.45.28.91.31,1.39.03.48-.13.96-.12,1.41.01.52.21.99.19,1.41-.03.73-.08,1.21-.23,1.31"/><path d="M87.48,90.8c.42-.32.7-.6,1.07-.57.42.04.9.2,1.18.57.23.32.31.8.38,1.27.04.23.05.76.04,1.41,0,.42.12.91.09,1.41-.03.46-.05.95-.1,1.41-.05.5-.25.97-.32,1.39-.11.7-.26,1.22-.43,1.34-.33.24-.8.46-1.25.41-.42-.05-.88-.29-1.22-.53-.36-.26-.36-.74-.44-1.14-.09-.47-.37-.94-.34-1.46.03-.49-.09-1.02-.03-1.52.06-.5.52-.96.56-1.45.04-.51.03-1.03-.03-1.51.02-.58.41-.72.83-1.04"/><path d="M87.48,90.8c.42-.32.7-.6,1.07-.57.42.04.9.2,1.18.57.23.32.31.8.38,1.27.04.23.05.76.04,1.41,0,.42.12.91.09,1.41-.03.46-.05.95-.1,1.41-.05.5-.25.97-.32,1.39-.11.7-.26,1.22-.43,1.34-.33.24-.8.46-1.25.41-.42-.05-.88-.29-1.22-.53-.36-.26-.36-.74-.44-1.14-.09-.47-.37-.94-.34-1.46.03-.49-.09-1.02-.03-1.52.06-.5.52-.96.56-1.45.04-.51.03-1.03-.03-1.51.02-.58.41-.72.83-1.04"/><path d="M78.35,101.53c.2.2.39,1.24.45,1.59.06.32.17.82.25,1.42.06.45.06.95.11,1.44.05.5-.12,1.01-.09,1.45.04.62.34,1.13.3,1.43-.1.73-.48,1.12-.86,1.34-.46.26-.99.21-1.53-.07-.46-.24-.84-.61-1.13-1.12.01-.3-.19-.74-.24-1.3-.04-.4.02-.87-.03-1.34-.04-.44.05-.9.03-1.34-.03-.46-.11-.91-.09-1.33.02-.5.11-.92.21-1.3.14-.53.2-1.16.58-1.27.45-.14,1.73.08,2.06.41"/><path d="M78.35,101.53c.2.2.39,1.24.45,1.59.06.32.17.82.25,1.42.06.45.06.95.11,1.44.05.5-.12,1.01-.09,1.45.04.62.34,1.13.3,1.43-.1.73-.48,1.12-.86,1.34-.46.26-.99.21-1.53-.07-.46-.24-.84-.61-1.13-1.12.01-.3-.19-.74-.24-1.3-.04-.4.02-.87-.03-1.34-.04-.44.05-.9.03-1.34-.03-.46-.11-.91-.09-1.33.02-.5.11-.92.21-1.3.14-.53.2-1.16.58-1.27.45-.14,1.73.08,2.06.41"/><path d="M83.39,122.4c-.21-.1.12-.69-.11-.69-.34.43-.91.83-1.32.61-.39-.21-.81-.74-.96-1.12-.14-.35-.23-.87-.22-1.37,0-.41.21-.86.26-1.32.05-.43.21-.86.25-1.3.04-.45-.14-.9-.15-1.32-.01-.47.1-.92-.05-1.3.44-.49.88-.74,1.24-.93.6-.32.99-.28,1.38.04.33.27.49.72.67,1.32.14.45.24.94.29,1.52.04.41,0,.98.03,1.61.02.52.48,1.09.44,1.63-.05.58-.42,1.1-.61,1.54-.23.54-.6.99-1.15,1.09"/><path d="M83.39,122.4c-.21-.1.12-.69-.11-.69-.34.43-.91.83-1.32.61-.39-.21-.81-.74-.96-1.12-.14-.35-.23-.87-.22-1.37,0-.41.21-.86.26-1.32.05-.43.21-.86.25-1.3.04-.45-.14-.9-.15-1.32-.01-.47.1-.92-.05-1.3.44-.49.88-.74,1.24-.93.6-.32.99-.28,1.38.04.33.27.49.72.67,1.32.14.45.24.94.29,1.52.04.41,0,.98.03,1.61.02.52.48,1.09.44,1.63-.05.58-.42,1.1-.61,1.54-.23.54-.6.99-1.15,1.09"/><path d="M101.61,90.5c.3-.34.51-.94.96-1.01.44-.07.9.29,1.28.57.33.25.51.7.59,1.31.06.46-.11.97-.13,1.5-.02.51.3,1.06.25,1.54-.07.6-.41,1.11-.44,1.48-.04.51.35,1.07.31,1.46-.04.56-.43.8-.76,1-.36.23-.77.48-1.23.36-.41-.11-.96-.26-1.29-.58-.31-.3-.2-.91-.31-1.36-.06-.26,0-.7,0-1.26,0-.4.02-.84.05-1.3.03-.45-.12-.91-.09-1.31.05-.54-.01-1.02.03-1.31.05-.34.56-.84.78-1.09"/><path d="M101.61,90.5c.3-.34.51-.94.96-1.01.44-.07.9.29,1.28.57.33.25.51.7.59,1.31.06.46-.11.97-.13,1.5-.02.51.3,1.06.25,1.54-.07.6-.41,1.11-.44,1.48-.04.51.35,1.07.31,1.46-.04.56-.43.8-.76,1-.36.23-.77.48-1.23.36-.41-.11-.96-.26-1.29-.58-.31-.3-.2-.91-.31-1.36-.06-.26,0-.7,0-1.26,0-.4.02-.84.05-1.3.03-.45-.12-.91-.09-1.31.05-.54-.01-1.02.03-1.31.05-.34.56-.84.78-1.09"/><path d="M117.61,61.82c-.54-.23-.91.13-1.35.28-.39.13-.71.06-1.27-.28-.25-.15-.31-.48-.43-1.02-.09-.4-.34-.81-.38-1.24-.05-.51.07-.99.06-1.3-.02-.34-.31-.85-.32-1.41,0-.47.3-.96.33-1.42.05-.6.03-1.07.23-1.32.39-.49.78-.98,1.22-.95.47.03.88.56,1.23.97.31.36.74.78.82,1.29.06.36-.25.91-.2,1.45.04.46.33.93.36,1.4.03.54-.24,1.05-.23,1.43,0,.4.33.79.28,1.16-.05.38-.28.57-.35.97"/><path d="M117.61,61.82c-.54-.23-.91.13-1.35.28-.39.13-.71.06-1.27-.28-.25-.15-.31-.48-.43-1.02-.09-.4-.34-.81-.38-1.24-.05-.51.07-.99.06-1.3-.02-.34-.31-.85-.32-1.41,0-.47.3-.96.33-1.42.05-.6.03-1.07.23-1.32.39-.49.78-.98,1.22-.95.47.03.88.56,1.23.97.31.36.74.78.82,1.29.06.36-.25.91-.2,1.45.04.46.33.93.36,1.4.03.54-.24,1.05-.23,1.43,0,.4.33.79.28,1.16-.05.38-.28.57-.35.97"/><path d="M117.88,89.56c.62-.13,1.03-.21,1.33.14.28.32.63.78.73,1.34.08.45.02.99.04,1.51.01.49.12,1.01.1,1.5-.01.53-.41,1.03-.42,1.48,0,.62.2,1.14.31,1.47-.12.56-.59,1.1-1.15,1.24-.52.13-1.12-.2-1.61-.45-.47-.24-.81-.59-.91-1.21-.04-.27-.2-.78-.22-1.42-.01-.44-.14-.94-.14-1.44,0-.5-.06-1-.05-1.45.02-.64.16-1.19.21-1.45.05-.29.34-.72.66-1.01.32-.29.84-.21,1.11-.27"/><path d="M117.88,89.56c.62-.13,1.03-.21,1.33.14.28.32.63.78.73,1.34.08.45.02.99.04,1.51.01.49.12,1.01.1,1.5-.01.53-.41,1.03-.42,1.48,0,.62.2,1.14.31,1.47-.12.56-.59,1.1-1.15,1.24-.52.13-1.12-.2-1.61-.45-.47-.24-.81-.59-.91-1.21-.04-.27-.2-.78-.22-1.42-.01-.44-.14-.94-.14-1.44,0-.5-.06-1-.05-1.45.02-.64.16-1.19.21-1.45.05-.29.34-.72.66-1.01.32-.29.84-.21,1.11-.27"/><path d="M123.88,108.22c-.33.45-1.01.54-1.62.45-.6-.09-1.02-.49-1.3-.92-.23-.35-.54-.7-.58-1.22-.03-.43.05-.91.09-1.4.04-.46-.13-.96-.06-1.42.07-.48.25-.93.29-1.37.05-.51.02-1.02-.03-1.42.28-.46.8-.94,1.26-1.06.49-.13,1.14.06,1.57.3.41.23.59.75.71,1.3.04.19.38.68.37,1.33-.01.4-.09.87-.12,1.35-.02.45-.22.9-.26,1.34-.04.48-.18.93-.22,1.34-.08.69-.03,1.25-.12,1.37"/><path d="M123.88,108.22c-.33.45-1.01.54-1.62.45-.6-.09-1.02-.49-1.3-.92-.23-.35-.54-.7-.58-1.22-.03-.43.05-.91.09-1.4.04-.46-.13-.96-.06-1.42.07-.48.25-.93.29-1.37.05-.51.02-1.02-.03-1.42.28-.46.8-.94,1.26-1.06.49-.13,1.14.06,1.57.3.41.23.59.75.71,1.3.04.19.38.68.37,1.33-.01.4-.09.87-.12,1.35-.02.45-.22.9-.26,1.34-.04.48-.18.93-.22,1.34-.08.69-.03,1.25-.12,1.37"/><path d="M106.75,65.14c.52-.03,1.09.01,1.43.42.2.24.48.66.6,1.31.08.44.27.94.32,1.47.05.49.11,1.01.13,1.5.02.53-.13,1.05-.14,1.51,0,.65-.14,1.16-.21,1.46-.11.48-.39.62-.76.78-.37.16-.65.15-1.08,0-.38-.13-.81-.16-1.08-.52-.24-.31-.21-.72-.28-1.19-.04-.29-.3-.81-.32-1.46-.02-.46.06-.98.06-1.5,0-.52.12-1.03.13-1.49.02-.66-.38-1.26-.32-1.54.13-.65.92-.72,1.54-.75"/><path d="M106.75,65.14c.52-.03,1.09.01,1.43.42.2.24.48.66.6,1.31.08.44.27.94.32,1.47.05.49.11,1.01.13,1.5.02.53-.13,1.05-.14,1.51,0,.65-.14,1.16-.21,1.46-.11.48-.39.62-.76.78-.37.16-.65.15-1.08,0-.38-.13-.81-.16-1.08-.52-.24-.31-.21-.72-.28-1.19-.04-.29-.3-.81-.32-1.46-.02-.46.06-.98.06-1.5,0-.52.12-1.03.13-1.49.02-.66-.38-1.26-.32-1.54.13-.65.92-.72,1.54-.75"/><path d="M104.15,136.94c.81-.17,1.54.15,1.88.9.11.25-.22.86-.16,1.5.04.43.07.9.09,1.41.02.47.28.95.28,1.42,0,.51-.09,1-.1,1.43-.01.62,0,1.13-.05,1.42-.05.35-.52,1.62-.81,1.67-.55-.26-1.09-.4-1.55-.6-.43-.19-.54-.57-.69-1.35-.05-.28-.09-.82-.1-1.51-.01-.48-.04-1.01-.04-1.55,0-.54-.32-1.08-.3-1.56.02-.69.38-1.22.42-1.51.06-.35.15-.61.39-.89.24-.28.4-.72.75-.79"/><path d="M104.15,136.94c.81-.17,1.54.15,1.88.9.11.25-.22.86-.16,1.5.04.43.07.9.09,1.41.02.47.28.95.28,1.42,0,.51-.09,1-.1,1.43-.01.62,0,1.13-.05,1.42-.05.35-.52,1.62-.81,1.67-.55-.26-1.09-.4-1.55-.6-.43-.19-.54-.57-.69-1.35-.05-.28-.09-.82-.1-1.51-.01-.48-.04-1.01-.04-1.55,0-.54-.32-1.08-.3-1.56.02-.69.38-1.22.42-1.51.06-.35.15-.61.39-.89.24-.28.4-.72.75-.79"/><path d="M99.11,137.35c.48-.07.99.22,1.26.57.24.3.06.86.18,1.31.11.41.48.78.53,1.19.06.5.18.95.2,1.27.02.37-.23.97-.23,1.61,0,.53.06,1.09-.02,1.6-.09.65-.22,1.2-.52,1.46-.5.25-.98.11-1.47-.05-.48-.16-.92-.33-1.16-.86-.09-.2,0-.7-.07-1.35-.04-.41-.38-.86-.4-1.35-.02-.45-.19-.93-.2-1.38,0-.49.48-.96.49-1.38.02-.65-.06-1.13,0-1.34.12-.41,1.02-1.24,1.43-1.3"/><path d="M99.11,137.35c.48-.07.99.22,1.26.57.24.3.06.86.18,1.31.11.41.48.78.53,1.19.06.5.18.95.2,1.27.02.37-.23.97-.23,1.61,0,.53.06,1.09-.02,1.6-.09.65-.22,1.2-.52,1.46-.5.25-.98.11-1.47-.05-.48-.16-.92-.33-1.16-.86-.09-.2,0-.7-.07-1.35-.04-.41-.38-.86-.4-1.35-.02-.45-.19-.93-.2-1.38,0-.49.48-.96.49-1.38.02-.65-.06-1.13,0-1.34.12-.41,1.02-1.24,1.43-1.3"/><path d="M93.59,112.21c.61-.12,1,.35,1.38.69.37.33,1.01.63,1.09,1.2.04.25-.31.77-.27,1.34.02.4.26.84.28,1.29.02.45.2.9.21,1.3.01.58-.35,1.05-.37,1.29-.05.53-.14.92-.42,1.18-.33.3-.76.38-1.21.4-.44.01-.96.07-1.32-.15-.39-.23-.75-.66-.84-1.11-.04-.23,0-.82-.02-1.51-.01-.46-.14-.98-.14-1.5s0-1.04,0-1.51c.02-.7.13-1.28.18-1.51.1-.55.92-1.3,1.45-1.41"/><path d="M93.59,112.21c.61-.12,1,.35,1.38.69.37.33,1.01.63,1.09,1.2.04.25-.31.77-.27,1.34.02.4.26.84.28,1.29.02.45.2.9.21,1.3.01.58-.35,1.05-.37,1.29-.05.53-.14.92-.42,1.18-.33.3-.76.38-1.21.4-.44.01-.96.07-1.32-.15-.39-.23-.75-.66-.84-1.11-.04-.23,0-.82-.02-1.51-.01-.46-.14-.98-.14-1.5s0-1.04,0-1.51c.02-.7.13-1.28.18-1.51.1-.55.92-1.3,1.45-1.41"/><path d="M121.87,88.44c.36-.07.74.41,1.06.57.47.24.69.53.86.98.16.42.49.86.49,1.36,0,.48-.28.96-.34,1.43-.07.53-.13,1.03-.15,1.43-.02.44.22.96.25,1.45.04.53-.16.91-.53,1.22-.27.22-.6.61-1.29.59-.57-.02-1.04-.31-1.33-.66-.28-.33-.28-.86-.38-1.38-.09-.44-.1-.91-.11-1.41,0-.48-.29-.98-.25-1.46.04-.5.04-1,.08-1.45.06-.57.17-1.07.16-1.43.09-.31,1.18-1.19,1.46-1.25"/><path d="M121.87,88.44c.36-.07.74.41,1.06.57.47.24.69.53.86.98.16.42.49.86.49,1.36,0,.48-.28.96-.34,1.43-.07.53-.13,1.03-.15,1.43-.02.44.22.96.25,1.45.04.53-.16.91-.53,1.22-.27.22-.6.61-1.29.59-.57-.02-1.04-.31-1.33-.66-.28-.33-.28-.86-.38-1.38-.09-.44-.1-.91-.11-1.41,0-.48-.29-.98-.25-1.46.04-.5.04-1,.08-1.45.06-.57.17-1.07.16-1.43.09-.31,1.18-1.19,1.46-1.25"/><path d="M95.16,109c-.38.35-.93.51-1.37.44-.43-.06-.85-.42-1.2-.73-.35-.31-.55-.74-.7-1.15-.09-.24-.15-.71-.21-1.31-.04-.4-.37-.85-.39-1.32-.02-.45.07-.92.07-1.36,0-.48.03-.95.05-1.35.04-.64.1-1.21.23-1.39.18-.25.72-.24,1.13-.32.41-.07.82-.11,1.09.02.37.19.42.68.59,1.27.13.43.4.88.47,1.42.06.49.07,1,.12,1.5.05.52-.01,1.05.05,1.51.08.6.25,1.11.41,1.46,0,.25-.16,1.17-.32,1.32"/><path d="M95.16,109c-.38.35-.93.51-1.37.44-.43-.06-.85-.42-1.2-.73-.35-.31-.55-.74-.7-1.15-.09-.24-.15-.71-.21-1.31-.04-.4-.37-.85-.39-1.32-.02-.45.07-.92.07-1.36,0-.48.03-.95.05-1.35.04-.64.1-1.21.23-1.39.18-.25.72-.24,1.13-.32.41-.07.82-.11,1.09.02.37.19.42.68.59,1.27.13.43.4.88.47,1.42.06.49.07,1,.12,1.5.05.52-.01,1.05.05,1.51.08.6.25,1.11.41,1.46,0,.25-.16,1.17-.32,1.32"/><path d="M124.09,133.63c-.28.31-.73.23-1.15.24-.41,0-.73-.1-1.08-.29-.39-.22-.95-.35-1.02-.72-.1-.5.05-1.08.07-1.64.03-.52-.15-1.09-.08-1.64.07-.54.18-1.06.23-1.59.05-.55.35-1.07.31-1.57.19-.56.56-.82.99-1.03.49-.23,1.05-.47,1.5-.19.38.24.86.73.96,1.37.04.28-.23.83-.22,1.45.01.43-.01.91-.02,1.41,0,.47.3.97.27,1.44-.03.51-.37.96-.44,1.39-.1.63-.14,1.17-.33,1.38"/><path d="M124.09,133.63c-.28.31-.73.23-1.15.24-.41,0-.73-.1-1.08-.29-.39-.22-.95-.35-1.02-.72-.1-.5.05-1.08.07-1.64.03-.52-.15-1.09-.08-1.64.07-.54.18-1.06.23-1.59.05-.55.35-1.07.31-1.57.19-.56.56-.82.99-1.03.49-.23,1.05-.47,1.5-.19.38.24.86.73.96,1.37.04.28-.23.83-.22,1.45.01.43-.01.91-.02,1.41,0,.47.3.97.27,1.44-.03.51-.37.96-.44,1.39-.1.63-.14,1.17-.33,1.38"/><path d="M123.2,73.49c-.33.29-.63.66-1.1.65-.44-.01-1.01-.05-1.38-.28-.4-.25-.45-.81-.53-1.25-.05-.26.04-.71.03-1.29,0-.4-.04-.84-.03-1.31.02-.44,0-.88.04-1.32.04-.47-.15-.95-.08-1.34.1-.59.2-1.11.36-1.31.31-.4.82-.61,1.25-.65.44-.03.99.09,1.37.36.36.25.64.73.78,1.18-.03.26-.31.75-.32,1.35-.01.41.06.88.05,1.35-.01.45.07.91.05,1.36-.02.49-.18.94-.21,1.34-.06.69-.13,1.03-.27,1.15"/><path d="M123.2,73.49c-.33.29-.63.66-1.1.65-.44-.01-1.01-.05-1.38-.28-.4-.25-.45-.81-.53-1.25-.05-.26.04-.71.03-1.29,0-.4-.04-.84-.03-1.31.02-.44,0-.88.04-1.32.04-.47-.15-.95-.08-1.34.1-.59.2-1.11.36-1.31.31-.4.82-.61,1.25-.65.44-.03.99.09,1.37.36.36.25.64.73.78,1.18-.03.26-.31.75-.32,1.35-.01.41.06.88.05,1.35-.01.45.07.91.05,1.36-.02.49-.18.94-.21,1.34-.06.69-.13,1.03-.27,1.15"/><path d="M112.33,89.62c.56-.12,1.45,0,1.79.48.15.22.14.75.22,1.4.05.42.12.9.15,1.4.02.47.22.95.22,1.42,0,.5-.06.99-.09,1.42-.04.64-.06,1.19-.16,1.44-.21.52-.74.85-1.21.97-.48.12-1.08,0-1.51-.25-.42-.25-.65-.72-.73-1.27-.04-.27,0-.79-.01-1.42-.01-.44-.17-.94-.16-1.43,0-.5.05-.99.06-1.43.02-.64-.12-1.21-.07-1.46.13-.59.92-1.12,1.52-1.25"/><path d="M112.33,89.62c.56-.12,1.45,0,1.79.48.15.22.14.75.22,1.4.05.42.12.9.15,1.4.02.47.22.95.22,1.42,0,.5-.06.99-.09,1.42-.04.64-.06,1.19-.16,1.44-.21.52-.74.85-1.21.97-.48.12-1.08,0-1.51-.25-.42-.25-.65-.72-.73-1.27-.04-.27,0-.79-.01-1.42-.01-.44-.17-.94-.16-1.43,0-.5.05-.99.06-1.43.02-.64-.12-1.21-.07-1.46.13-.59.92-1.12,1.52-1.25"/><path d="M78.99,90.59c.3.28.55.71.61,1.27.05.43,0,.93-.03,1.44-.03.47.15.98.1,1.45-.05.5-.25.96-.28,1.41-.04.56-.01,1.07.05,1.44-.21.47-.57.88-.88,1.08-.39.25-.92.27-1.33.16-.39-.1-.87-.33-1.15-.71-.24-.32-.48-.78-.55-1.26-.04-.23-.05-.82-.02-1.5.02-.45.23-.95.27-1.45.04-.51.05-1.02.1-1.46.09-.72.23-1.3.34-1.43.25-.32.79-.61,1.33-.73.54-.12,1.1-.01,1.43.3"/><path d="M78.99,90.59c.3.28.55.71.61,1.27.05.43,0,.93-.03,1.44-.03.47.15.98.1,1.45-.05.5-.25.96-.28,1.41-.04.56-.01,1.07.05,1.44-.21.47-.57.88-.88,1.08-.39.25-.92.27-1.33.16-.39-.1-.87-.33-1.15-.71-.24-.32-.48-.78-.55-1.26-.04-.23-.05-.82-.02-1.5.02-.45.23-.95.27-1.45.04-.51.05-1.02.1-1.46.09-.72.23-1.3.34-1.43.25-.32.79-.61,1.33-.73.54-.12,1.1-.01,1.43.3"/><path d="M106.81,98.02c-.33-.27-.46-.81-.56-1.29-.09-.4-.26-.87-.25-1.35,0-.43.21-.89.26-1.34.04-.46.21-.9.24-1.32.04-.51-.05-.97-.09-1.34.17-.58.67-.82,1.11-1.04.49-.24.9-.2,1.38.02.44.21.73.44.87,1.06.05.23.37.72.39,1.37.01.44-.32.93-.33,1.42,0,.49.08.98.06,1.42-.02.64-.09,1.14-.14,1.37-.1.44-.29.63-.62.84-.34.21-.64.35-1.06.32-.41-.03-.95.11-1.26-.14"/><path d="M106.81,98.02c-.33-.27-.46-.81-.56-1.29-.09-.4-.26-.87-.25-1.35,0-.43.21-.89.26-1.34.04-.46.21-.9.24-1.32.04-.51-.05-.97-.09-1.34.17-.58.67-.82,1.11-1.04.49-.24.9-.2,1.38.02.44.21.73.44.87,1.06.05.23.37.72.39,1.37.01.44-.32.93-.33,1.42,0,.49.08.98.06,1.42-.02.64-.09,1.14-.14,1.37-.1.44-.29.63-.62.84-.34.21-.64.35-1.06.32-.41-.03-.95.11-1.26-.14"/><path d="M95.2,138.15c.18.19.2.83.3,1.53.06.44.03.95.06,1.49.03.48.15.98.15,1.49,0,.51-.18,1-.21,1.48-.04.54-.21,1.01-.29,1.45-.13.69-.01,1.43-.25,1.59-.45.11-.95-.09-1.31-.22-.39-.14-.75-.38-1-.74-.21-.32-.11-.77-.18-1.21-.04-.27-.07-.77-.09-1.4-.01-.44-.14-.93-.14-1.43,0-.5-.22-1-.21-1.44.02-.64.2-1.16.25-1.42.1-.52.55-1.05,1.12-1.27.59-.23,1.42-.28,1.8.11"/><path d="M95.2,138.15c.18.19.2.83.3,1.53.06.44.03.95.06,1.49.03.48.15.98.15,1.49,0,.51-.18,1-.21,1.48-.04.54-.21,1.01-.29,1.45-.13.69-.01,1.43-.25,1.59-.45.11-.95-.09-1.31-.22-.39-.14-.75-.38-1-.74-.21-.32-.11-.77-.18-1.21-.04-.27-.07-.77-.09-1.4-.01-.44-.14-.93-.14-1.43,0-.5-.22-1-.21-1.44.02-.64.2-1.16.25-1.42.1-.52.55-1.05,1.12-1.27.59-.23,1.42-.28,1.8.11"/><path d="M94.73,77.67c.11.48-.14,1.19-.11,1.71.04.5.14.99.12,1.5-.01.51-.06,1.01-.11,1.51-.05.51-.13,1.01-.2,1.5-.07.52.17,1.21.1,1.7-.61.21-1.29.02-1.7.02-.65,0-.99-.18-1.26-.59-.25-.38-.2-.86-.23-1.45-.03-.48-.25-1-.21-1.54.04-.52-.11-1.06-.07-1.57.05-.56.22-1.1.21-1.56.21-.5.2-.54.49-.99.29-.45.28-.56.79-.73.52-.17.43.48.98.55.61.08.77-.38,1.2-.06"/><path d="M94.73,77.67c.11.48-.14,1.19-.11,1.71.04.5.14.99.12,1.5-.01.51-.06,1.01-.11,1.51-.05.51-.13,1.01-.2,1.5-.07.52.17,1.21.1,1.7-.61.21-1.29.02-1.7.02-.65,0-.99-.18-1.26-.59-.25-.38-.2-.86-.23-1.45-.03-.48-.25-1-.21-1.54.04-.52-.11-1.06-.07-1.57.05-.56.22-1.1.21-1.56.21-.5.2-.54.49-.99.29-.45.28-.56.79-.73.52-.17.43.48.98.55.61.08.77-.38,1.2-.06"/><path d="M110.76,145.45c-.54.11-.88.36-1.25.28-.5-.11-.72-.55-.97-.92-.23-.35-.7-.67-.79-1.16-.08-.42.17-.93.16-1.4-.02-.45-.21-.91-.21-1.37,0-.47.08-.93.07-1.37-.02-.5-.11-.98-.21-1.37.29-.5.72-.77,1.02-.98.46-.32.83-.35,1.24-.13.35.19.53.57.77,1.06.18.38.57.74.64,1.25.05.34.15.85.2,1.41.04.46-.09.98-.06,1.44.04.57.08,1.08.07,1.42-.04.71-.37,1.2-.67,1.83"/><path d="M110.76,145.45c-.54.11-.88.36-1.25.28-.5-.11-.72-.55-.97-.92-.23-.35-.7-.67-.79-1.16-.08-.42.17-.93.16-1.4-.02-.45-.21-.91-.21-1.37,0-.47.08-.93.07-1.37-.02-.5-.11-.98-.21-1.37.29-.5.72-.77,1.02-.98.46-.32.83-.35,1.24-.13.35.19.53.57.77,1.06.18.38.57.74.64,1.25.05.34.15.85.2,1.41.04.46-.09.98-.06,1.44.04.57.08,1.08.07,1.42-.04.71-.37,1.2-.67,1.83"/><path d="M100.07,125.84c.12.13.5.6.64,1.35.08.43-.19.99-.14,1.53.05.48.23.97.25,1.47.02.51.19,1.02.16,1.5-.03.55,0,1.11-.12,1.53-.17.61-.68,1.07-1.08,1.19-.32-.22-.76-.23-1.16-.3-.4-.07-.88-.25-1.08-.69-.11-.26-.14-.83-.22-1.49-.05-.44.07-.95.04-1.47-.03-.49-.39-.98-.4-1.46,0-.53.38-1.03.41-1.47.04-.68-.08-1.26.06-1.48.21-.36.8-.4,1.32-.45.56-.05,1.09,0,1.31.23"/><path d="M100.07,125.84c.12.13.5.6.64,1.35.08.43-.19.99-.14,1.53.05.48.23.97.25,1.47.02.51.19,1.02.16,1.5-.03.55,0,1.11-.12,1.53-.17.61-.68,1.07-1.08,1.19-.32-.22-.76-.23-1.16-.3-.4-.07-.88-.25-1.08-.69-.11-.26-.14-.83-.22-1.49-.05-.44.07-.95.04-1.47-.03-.49-.39-.98-.4-1.46,0-.53.38-1.03.41-1.47.04-.68-.08-1.26.06-1.48.21-.36.8-.4,1.32-.45.56-.05,1.09,0,1.31.23"/><path d="M111.43,86.26c-.31-.15-.72-.7-.9-1.21-.17-.49.18-1.11.17-1.43,0-.28-.03-.77,0-1.33.02-.44-.32-.93-.28-1.37.04-.56.48-1.02.52-1.29.06-.36.18-.75.49-1.1.33-.36.65-.81,1.04-.8.5.02.89.31,1.15.61.27.3.28.77.39,1.2.11.42.08.85.1,1.25.01.22.42.73.43,1.34,0,.44-.25.92-.26,1.36,0,.63.03,1.17.01,1.35-.1.68-.56,1.01-1.09,1.22-.53.21-1.22.45-1.76.19"/><path d="M111.43,86.26c-.31-.15-.72-.7-.9-1.21-.17-.49.18-1.11.17-1.43,0-.28-.03-.77,0-1.33.02-.44-.32-.93-.28-1.37.04-.56.48-1.02.52-1.29.06-.36.18-.75.49-1.1.33-.36.65-.81,1.04-.8.5.02.89.31,1.15.61.27.3.28.77.39,1.2.11.42.08.85.1,1.25.01.22.42.73.43,1.34,0,.44-.25.92-.26,1.36,0,.63.03,1.17.01,1.35-.1.68-.56,1.01-1.09,1.22-.53.21-1.22.45-1.76.19"/><path d="M119.91,125.89c.19.18-.02.83.08,1.43.06.39.43.8.47,1.28.03.43-.26.9-.25,1.34,0,.47.12.92.11,1.32-.02.58.08,1.06.04,1.33-.07.49-.4.83-.66,1.12-.31.35-.65.51-1.09.51-.39,0-.72-.17-1.11-.51-.98-.84-.65-1.07-.72-1.82-.03-.33.18-.84.15-1.41-.02-.44-.04-.92-.04-1.39,0-.49.15-.95.19-1.38.06-.58-.03-1.07.13-1.35.22-.37.7-.38,1.22-.43.53-.05,1.21-.3,1.49-.04"/><path d="M119.91,125.89c.19.18-.02.83.08,1.43.06.39.43.8.47,1.28.03.43-.26.9-.25,1.34,0,.47.12.92.11,1.32-.02.58.08,1.06.04,1.33-.07.49-.4.83-.66,1.12-.31.35-.65.51-1.09.51-.39,0-.72-.17-1.11-.51-.98-.84-.65-1.07-.72-1.82-.03-.33.18-.84.15-1.41-.02-.44-.04-.92-.04-1.39,0-.49.15-.95.19-1.38.06-.58-.03-1.07.13-1.35.22-.37.7-.38,1.22-.43.53-.05,1.21-.3,1.49-.04"/><path d="M113.75,137.04c.47-.1.94-.02,1.34.29.21.16.36.53.51,1.11.1.38.15.82.23,1.28.07.43.35.84.4,1.27.05.46.1.91.12,1.31.03.57-.33,1.03-.36,1.29-.03.24.25.76.11,1.16-.15.43-.52.7-.77.77-.61.05-1.02-.06-1.39-.24-.46-.23-.86-.48-1.05-.96-.17-.42-.09-.95-.13-1.48-.04-.48-.41-.98-.41-1.48s.11-1.01.1-1.48c-.02-.54-.05-1.06-.16-1.48.19-.62.8-1.21,1.44-1.35"/><path d="M113.75,137.04c.47-.1.94-.02,1.34.29.21.16.36.53.51,1.11.1.38.15.82.23,1.28.07.43.35.84.4,1.27.05.46.1.91.12,1.31.03.57-.33,1.03-.36,1.29-.03.24.25.76.11,1.16-.15.43-.52.7-.77.77-.61.05-1.02-.06-1.39-.24-.46-.23-.86-.48-1.05-.96-.17-.42-.09-.95-.13-1.48-.04-.48-.41-.98-.41-1.48s.11-1.01.1-1.48c-.02-.54-.05-1.06-.16-1.48.19-.62.8-1.21,1.44-1.35"/><path d="M114.9,133.49c-.33.19-.7.03-1.19-.18-.49-.21-1.07-.31-1.25-.58-.09-.14.03-.73-.03-1.43-.04-.43-.29-.9-.31-1.39-.02-.49.03-.98.02-1.41-.01-.66.06-1.19.09-1.4.07-.5.07-.94.25-1.25.23-.39.56-.83.99-.94.35-.08.88-.04,1.38.05.28.14.48.76.63,1.37.1.4.3.86.36,1.36.05.45-.27.96-.25,1.42.03.49.32.96.32,1.38,0,.61-.12,1.11-.15,1.38-.05.38-.61,1.49-.83,1.62"/><path d="M114.9,133.49c-.33.19-.7.03-1.19-.18-.49-.21-1.07-.31-1.25-.58-.09-.14.03-.73-.03-1.43-.04-.43-.29-.9-.31-1.39-.02-.49.03-.98.02-1.41-.01-.66.06-1.19.09-1.4.07-.5.07-.94.25-1.25.23-.39.56-.83.99-.94.35-.08.88-.04,1.38.05.28.14.48.76.63,1.37.1.4.3.86.36,1.36.05.45-.27.96-.25,1.42.03.49.32.96.32,1.38,0,.61-.12,1.11-.15,1.38-.05.38-.61,1.49-.83,1.62"/><path d="M84.53,90.79c.21.21.21.7.26,1.3.03.41.23.87.21,1.36-.01.45-.22.9-.24,1.35-.03.48.28.96.26,1.38-.03.57-.1,1.07-.06,1.37-.27,1.23-1.12.88-1.65,1.06-.13.05-.08.52-.6.2-.03-.02.07-.42-.01-.46-.2-.11-.72.05-1.03-.35-.2-.25-.35-.71-.41-1.41-.04-.47-.38-1.01-.35-1.57.02-.52.3-1.05.37-1.56.08-.56.34-1.04.48-1.49.21-.64.4-1.06.73-1.23.35-.18,1.75-.24,2.04.05"/><path d="M84.53,90.79c.21.21.21.7.26,1.3.03.41.23.87.21,1.36-.01.45-.22.9-.24,1.35-.03.48.28.96.26,1.38-.03.57-.1,1.07-.06,1.37-.27,1.23-1.12.88-1.65,1.06-.13.05-.08.52-.6.2-.03-.02.07-.42-.01-.46-.2-.11-.72.05-1.03-.35-.2-.25-.35-.71-.41-1.41-.04-.47-.38-1.01-.35-1.57.02-.52.3-1.05.37-1.56.08-.56.34-1.04.48-1.49.21-.64.4-1.06.73-1.23.35-.18,1.75-.24,2.04.05"/><path d="M118.27,85.83c-.27.2-1.65.4-1.62-.18-.25-.17-.29.27-.56.14-.24-.58-.9-.66-1.1-1.3-.06-.18.3-.93.3-1.74,0-.54.04-1.13.06-1.67.03-.81-.04-1.48,0-1.66.11-.49.15-1.05.45-1.3.34-.27.93-.4,1.38-.37.4.03.81.36,1.21.62.19.19.28.79.37,1.53.06.48.05,1.03.08,1.58.02.54.27,1.09.27,1.58,0,.7-.17,1.29-.2,1.58-.04.35-.38.99-.64,1.18"/><path d="M118.27,85.83c-.27.2-1.65.4-1.62-.18-.25-.17-.29.27-.56.14-.24-.58-.9-.66-1.1-1.3-.06-.18.3-.93.3-1.74,0-.54.04-1.13.06-1.67.03-.81-.04-1.48,0-1.66.11-.49.15-1.05.45-1.3.34-.27.93-.4,1.38-.37.4.03.81.36,1.21.62.19.19.28.79.37,1.53.06.48.05,1.03.08,1.58.02.54.27,1.09.27,1.58,0,.7-.17,1.29-.2,1.58-.04.35-.38.99-.64,1.18"/><path d="M117.06,65.68c.52,0,.91,0,1.19.43.23.35.3.83.41,1.35.1.45.44.9.47,1.38.03.49.02,1,.01,1.44-.01.58-.31,1.07-.34,1.41-.05.55-.25.89-.54,1.16-.34.31-.77.73-1.24.68-.43-.04-.73-.61-1.08-.93-.32-.29-.56-.57-.67-1.06-.06-.25-.31-.71-.32-1.29,0-.41.31-.87.33-1.33.02-.46-.3-.94-.26-1.35.06-.58.44-.97.55-1.2.19-.39,1.07-.69,1.5-.69"/><path d="M117.06,65.68c.52,0,.91,0,1.19.43.23.35.3.83.41,1.35.1.45.44.9.47,1.38.03.49.02,1,.01,1.44-.01.58-.31,1.07-.34,1.41-.05.55-.25.89-.54,1.16-.34.31-.77.73-1.24.68-.43-.04-.73-.61-1.08-.93-.32-.29-.56-.57-.67-1.06-.06-.25-.31-.71-.32-1.29,0-.41.31-.87.33-1.33.02-.46-.3-.94-.26-1.35.06-.58.44-.97.55-1.2.19-.39,1.07-.69,1.5-.69"/><path d="M77.51,138.11c.08,0,1.11.73,1.2.83.13.16.26.65.34,1.33.04.4.06.88.08,1.37.02.44-.08.91-.08,1.38,0,.47-.06.93-.08,1.37-.02.5.12.98.08,1.38-.07.67-.27,1.08-.4,1.24-.57.38-.98.44-1.39.3-.46-.15-.86-.47-1.12-.99-.22-.45-.32-1-.37-1.51-.03-.29-.27-.81-.24-1.43.02-.44.25-.92.31-1.41.05-.48.32-.92.42-1.37.11-.51.02-1.04.21-1.42.26-.53.62-1.06,1.05-1.06"/><path d="M77.51,138.11c.08,0,1.11.73,1.2.83.13.16.26.65.34,1.33.04.4.06.88.08,1.37.02.44-.08.91-.08,1.38,0,.47-.06.93-.08,1.37-.02.5.12.98.08,1.38-.07.67-.27,1.08-.4,1.24-.57.38-.98.44-1.39.3-.46-.15-.86-.47-1.12-.99-.22-.45-.32-1-.37-1.51-.03-.29-.27-.81-.24-1.43.02-.44.25-.92.31-1.41.05-.48.32-.92.42-1.37.11-.51.02-1.04.21-1.42.26-.53.62-1.06,1.05-1.06"/><path d="M109.97,133.17c-.43.06-1.01-.19-1.53-.47-.53-.28-.78-.67-.87-1.12-.06-.28-.13-.75-.12-1.38,0-.44,0-.93.03-1.42.03-.49-.24-1.01-.19-1.46.06-.61.08-1.15.15-1.44.12-.55.72-.96,1.21-1.13.49-.17,1.23-.26,1.68.07.36.26.69.87.79,1.52.06.41-.01.91,0,1.42.02.45-.25.91-.27,1.39-.02.47-.05.92-.12,1.37-.08.48.05.98-.1,1.4-.17.47-.4.91-.67,1.25"/><path d="M109.97,133.17c-.43.06-1.01-.19-1.53-.47-.53-.28-.78-.67-.87-1.12-.06-.28-.13-.75-.12-1.38,0-.44,0-.93.03-1.42.03-.49-.24-1.01-.19-1.46.06-.61.08-1.15.15-1.44.12-.55.72-.96,1.21-1.13.49-.17,1.23-.26,1.68.07.36.26.69.87.79,1.52.06.41-.01.91,0,1.42.02.45-.25.91-.27,1.39-.02.47-.05.92-.12,1.37-.08.48.05.98-.1,1.4-.17.47-.4.91-.67,1.25"/><path d="M103.82,132.66c-.34-.29-1-.48-1.03-1.04.06-.33.33-.79.29-1.33-.03-.41-.27-.85-.32-1.31-.05-.44.02-.91-.01-1.35-.04-.48-.03-.94,0-1.35.04-.56.12-1.04.37-1.28.3-.3.79-.66,1.24-.66.46,0,.92.4,1.2.7.2.21.18.8.32,1.5.09.47.54.95.6,1.49.06.53-.3,1.1-.27,1.59.03.68-.02,1.21-.05,1.51-.06.49-.03,1.09-.35,1.52-.34.45-.72.57-1.33.34-.31-.12-.47-.18-.64-.32"/><path d="M103.82,132.66c-.34-.29-1-.48-1.03-1.04.06-.33.33-.79.29-1.33-.03-.41-.27-.85-.32-1.31-.05-.44.02-.91-.01-1.35-.04-.48-.03-.94,0-1.35.04-.56.12-1.04.37-1.28.3-.3.79-.66,1.24-.66.46,0,.92.4,1.2.7.2.21.18.8.32,1.5.09.47.54.95.6,1.49.06.53-.3,1.1-.27,1.59.03.68-.02,1.21-.05,1.51-.06.49-.03,1.09-.35,1.52-.34.45-.72.57-1.33.34-.31-.12-.47-.18-.64-.32"/><path d="M94.29,98.26c-.44.09-1.04-.02-1.45-.07-.45-.05-.74-.32-1.05-.61-.29-.26-.85-.44-.94-.94-.05-.27.36-.96.35-1.7,0-.54-.39-1.13-.38-1.67.02-.74.42-1.34.48-1.6.13-.57.4-.99.9-1.27.5-.28.98-.4,1.54-.05.33.21.52.58.6,1.15.06.41,0,.88,0,1.39,0,.46.2.93.18,1.4-.02.49-.32.96-.31,1.4,0,.56.36,1.01.49,1.34.11.62-.06.76-.41,1.22"/><path d="M94.29,98.26c-.44.09-1.04-.02-1.45-.07-.45-.05-.74-.32-1.05-.61-.29-.26-.85-.44-.94-.94-.05-.27.36-.96.35-1.7,0-.54-.39-1.13-.38-1.67.02-.74.42-1.34.48-1.6.13-.57.4-.99.9-1.27.5-.28.98-.4,1.54-.05.33.21.52.58.6,1.15.06.41,0,.88,0,1.39,0,.46.2.93.18,1.4-.02.49-.32.96-.31,1.4,0,.56.36,1.01.49,1.34.11.62-.06.76-.41,1.22"/><path d="M88.06,138.5c.58-.05,1.09-.23,1.36.03.3.28.54.81.61,1.31.06.41-.04.9-.04,1.37,0,.46-.12.92-.1,1.35.02.5.03.96.18,1.32,0,.51.18,1.01.06,1.37-.15.51-.7.68-1,.92-.38.3-.78.75-1.2.65-.4-.09-.58-.67-.86-1.08-.22-.32-.27-.68-.34-1.18-.02-.19-.1-.79-.09-1.53,0-.51-.38-1.07-.36-1.57.02-.74.05-1.4.09-1.6.07-.32.44-.67.69-.98.26-.31.65-.33.99-.37"/><path d="M88.06,138.5c.58-.05,1.09-.23,1.36.03.3.28.54.81.61,1.31.06.41-.04.9-.04,1.37,0,.46-.12.92-.1,1.35.02.5.03.96.18,1.32,0,.51.18,1.01.06,1.37-.15.51-.7.68-1,.92-.38.3-.78.75-1.2.65-.4-.09-.58-.67-.86-1.08-.22-.32-.27-.68-.34-1.18-.02-.19-.1-.79-.09-1.53,0-.51-.38-1.07-.36-1.57.02-.74.05-1.4.09-1.6.07-.32.44-.67.69-.98.26-.31.65-.33.99-.37"/><path d="M99.85,90.33c.12.15.14.7.24,1.24.1.51.1,1.03.11,1.25.01.26.31,1,.31,1.75,0,.76.08,1.54.05,1.78-.08.66-.7.89-1.16,1.07-.48.2-1.11.54-1.62.31-.49-.22-.61-.9-.73-1.45-.05-.23-.35-.66-.37-1.24-.01-.4.19-.85.19-1.3,0-.45,0-.89.01-1.29.02-.58-.02-1.05.03-1.28.1-.43.32-.75.67-.98.35-.23.75-.18,1.16-.17.43.02.83-.02,1.11.32"/><path d="M99.85,90.33c.12.15.14.7.24,1.24.1.51.1,1.03.11,1.25.01.26.31,1,.31,1.75,0,.76.08,1.54.05,1.78-.08.66-.7.89-1.16,1.07-.48.2-1.11.54-1.62.31-.49-.22-.61-.9-.73-1.45-.05-.23-.35-.66-.37-1.24-.01-.4.19-.85.19-1.3,0-.45,0-.89.01-1.29.02-.58-.02-1.05.03-1.28.1-.43.32-.75.67-.98.35-.23.75-.18,1.16-.17.43.02.83-.02,1.11.32"/><path d="M107.06,78.16c.45-.14.86-.21,1.24-.08.38.13.89.32,1.1.76.12.25.08.85.17,1.47.06.44-.16.96-.12,1.45.04.49.23.97.24,1.41.01.63.2,1.19.12,1.45-.17.57-.74.81-1.28.88-.49.07-1.15.12-1.61-.18-.44-.28-.75-.86-.84-1.41-.07-.47-.15-.99-.13-1.51.01-.5,0-1-.02-1.5,0-.51,0-1-.12-1.48.07-.41.83-1.14,1.24-1.26"/><path d="M107.06,78.16c.45-.14.86-.21,1.24-.08.38.13.89.32,1.1.76.12.25.08.85.17,1.47.06.44-.16.96-.12,1.45.04.49.23.97.24,1.41.01.63.2,1.19.12,1.45-.17.57-.74.81-1.28.88-.49.07-1.15.12-1.61-.18-.44-.28-.75-.86-.84-1.41-.07-.47-.15-.99-.13-1.51.01-.5,0-1-.02-1.5,0-.51,0-1-.12-1.48.07-.41.83-1.14,1.24-1.26"/><path d="M123.46,84.51c-.21.16-.57.45-1.04.43-.49-.02-1.08-.03-1.26-.15-.23-.15-.19-.75-.35-1.14-.16-.38-.44-.73-.48-1-.05-.36.01-.85.02-1.37.01-.44.03-.9.11-1.36.08-.47.21-.91.37-1.31.2-.47.47-.79.82-.99.56-.32,1.02-.71,1.35-.59.39.14.35.84.5,1.36.12.4.2.83.24,1.31.03.47.04.93.03,1.37-.01.56-.09,1.07-.09,1.38,0,.37.15.79.17,1.19.02.36.04.54-.38.85"/><path d="M123.46,84.51c-.21.16-.57.45-1.04.43-.49-.02-1.08-.03-1.26-.15-.23-.15-.19-.75-.35-1.14-.16-.38-.44-.73-.48-1-.05-.36.01-.85.02-1.37.01-.44.03-.9.11-1.36.08-.47.21-.91.37-1.31.2-.47.47-.79.82-.99.56-.32,1.02-.71,1.35-.59.39.14.35.84.5,1.36.12.4.2.83.24,1.31.03.47.04.93.03,1.37-.01.56-.09,1.07-.09,1.38,0,.37.15.79.17,1.19.02.36.04.54-.38.85"/><path d="M112.94,65.95c.18.23.2.7.3,1.34.07.45.52.9.55,1.41.03.51-.14,1.02-.15,1.48,0,.65-.26,1.11-.34,1.38-.14.47-.19,1-.61,1.12-.39.12-.99.13-1.43-.04-.39-.15-.5-.75-.78-1.13-.24-.32-.73-.58-.81-1.07-.04-.25.09-.82.1-1.43.01-.46.19-.95.23-1.4.05-.63,0-1.17.07-1.39.14-.44.71-.9,1.37-.96.63-.06,1.21.32,1.5.7"/><path d="M112.94,65.95c.18.23.2.7.3,1.34.07.45.52.9.55,1.41.03.51-.14,1.02-.15,1.48,0,.65-.26,1.11-.34,1.38-.14.47-.19,1-.61,1.12-.39.12-.99.13-1.43-.04-.39-.15-.5-.75-.78-1.13-.24-.32-.73-.58-.81-1.07-.04-.25.09-.82.1-1.43.01-.46.19-.95.23-1.4.05-.63,0-1.17.07-1.39.14-.44.71-.9,1.37-.96.63-.06,1.21.32,1.5.7"/><path d="M81.19,146.4c-.23-.23-.34-.84-.44-1.46-.07-.44-.13-.96-.15-1.47-.02-.5.12-1.01.14-1.47.02-.62-.15-1.19-.08-1.49.09-.39.52-.68.85-.97.33-.29.69-.59,1.08-.62.42-.04.79.18,1.03.61.11.19.12.73.19,1.4.05.44.21.92.24,1.42.03.5.16.99.17,1.44.01.65,0,1.21-.05,1.45-.08.5-.47.81-.7,1.1-.3.38-.61.75-1.06.69-.35-.05-.83-.26-1.21-.64"/><path d="M81.19,146.4c-.23-.23-.34-.84-.44-1.46-.07-.44-.13-.96-.15-1.47-.02-.5.12-1.01.14-1.47.02-.62-.15-1.19-.08-1.49.09-.39.52-.68.85-.97.33-.29.69-.59,1.08-.62.42-.04.79.18,1.03.61.11.19.12.73.19,1.4.05.44.21.92.24,1.42.03.5.16.99.17,1.44.01.65,0,1.21-.05,1.45-.08.5-.47.81-.7,1.1-.3.38-.61.75-1.06.69-.35-.05-.83-.26-1.21-.64"/><path d="M121.25,138.19c.19-.51.28-.31.73-.62.45-.31.24-.79.77-.95.52.21.9.78,1.15,1.14.27.39.7.77.8,1.26.08.45.06.97.1,1.47.03.41-.07.86-.06,1.29,0,.43.02.87-.04,1.29-.06.43-.31.8-.49,1.18-.17.38-.42.55-.76.86-.53.06-.93.11-1.34-.18-.4-.28-.54-.78-.68-1.3-.22-.16-.56.66-1.12,1.14-.3.26-.7.73-1.37.61-.52-.1-.87-.61-1.1-1.06-.2-.39-.28-.89-.35-1.42-.06-.46-.03-.96-.05-1.45-.01-.5.17-1.01.15-1.46-.02-.58-.41-1.08-.52-1.43.17-.53.51-.97.8-1.24.39-.36.92-.53,1.36-.43.42.09.87.42,1.14.88.21.35.42.83.44,1.38.07.6.05.6.13,1.21.09.6-.07,1.82.12,1.24.27-.83-.24-.88-.26-1.75-.03-.84.13-.84.44-1.66"/><path d="M87.07,124.61c.45-.14,1.12-.05,1.58.12.47.17.65.68.77,1.21-.02.29.36.78.43,1.44.04.44.01.95.07,1.48.05.47-.18,1-.14,1.5.04.49.47.97.5,1.46.03.51-.23,1.03-.24,1.49,0,.55-.11,1.04-.19,1.46-.12.66-.25,1.13-.62,1.23-.5.14-1.15.07-1.68-.2-.53-.27-1.12-.72-1.22-1.27-.07-.35-.14-.81-.14-1.29,0-.4.37-.83.39-1.26.02-.43-.29-.87-.28-1.28.02-.46.2-.88.2-1.25,0-.36.08-1,.01-1.67-.06-.56-.24-1.12-.17-1.64.08-.64.21-1.38.74-1.54"/><path d="M97.46,109.73c-.24-.21-.47-1.02-.51-1.38-.04-.38-.46-.87-.48-1.45-.02-.46.27-.98.27-1.5,0-.49-.28-1-.27-1.49,0-.52.27-1.02.29-1.48.03-.58.06-1.1.11-1.48.08-.63.59-.89,1.19-1.01.62-.12,1.29-.1,1.64.25.26.26.44.76.55,1.38.08.44.28.94.31,1.49.03.48-.15,1-.15,1.51,0,.51-.11,1.02-.11,1.51,0,.53.24,1.04.26,1.5.02.6.05,1.12.15,1.48-.06.56-.36,1.01-.73,1.23-.38.23-.88.01-1.36-.06-.46-.07-.83-.2-1.16-.5"/><path d="M97.27,122.46c-.32-.2-.41-.79-.47-1.41-.04-.42-.26-.92-.23-1.45.03-.46.48-.9.54-1.39.06-.48.15-.96.21-1.42.07-.51.05-1,.1-1.44.06-.6-.12-1.12-.17-1.44.12-.41.45-.82.79-1.09.35-.27.82-.33,1.23-.35.42-.02.85.04,1.17.4.24.28.56.82.63,1.46.05.49.05,1.06.05,1.58,0,.62-.43,1.17-.45,1.54-.01.29-.01.93-.1,1.66-.06.54.26,1.19.17,1.72-.13.8-.49,1.45-.65,1.59-.23.21-.82.23-1.38.2-.56-.04-1.21-.03-1.44-.17"/><path d="M118.93,99.99c.32.26.56.8.66,1.3.09.4-.19.9-.19,1.38,0,.44-.07.88-.11,1.33-.05.47.2.96.14,1.38-.08.52-.51.94-.55,1.29-.05.45-.05,1-.1,1.51-.04.55-.08.9-.43,1.21-.29.25-.57.5-1.26.42-.32-.04-1.76-1.04-1.8-1.19-.11-.44.2-.95.19-1.42,0-.45-.05-.9,0-1.36.04-.46.16-.9.22-1.35.06-.47-.02-.94.02-1.38.03-.34-.07-.71-.09-1.08-.02-.38.03-.76.09-1.08.1-.53.69-.96,1.34-1.1.62-.13,1.46-.17,1.86.16"/><path d="M86.44,53.68c.64-.2,1.2-.42,1.54-.23.41.23.44.9.59,1.43.12.46.15.96.19,1.45.03.42.14.85.16,1.29.02.43.31.85.32,1.29.01.43-.03.87-.02,1.3.01.44,0,.87.02,1.3.01.44.06.89.08,1.31-.08.44-.81.56-1.41.68-.5.1-.97.16-1.43-.07-.43-.22-.71-.52-.81-1.13-.05-.3-.25-.77-.29-1.36-.03-.42.16-.91.13-1.4-.02-.46-.29-.92-.3-1.38-.01-.49-.03-.97-.03-1.39,0-.6.31-1.05.36-1.35.08-.52.39-1.59.9-1.74"/><path d="M122,54.02c.31.28.16.91.23,1.49.05.48.14.98.13,1.48-.01.57-.04,1.12,0,1.5.03.32.2.93.31,1.63.08.54.29,1.11.33,1.64.05.76-.07,1.41-.35,1.6-.24.16-.8.41-1.37.47-.57.06-1.06-.24-1.31-.4-.16-.1-.28-.44-.42-1.1-.08-.38-.5-.77-.57-1.26-.06-.42.06-.89.01-1.35-.04-.44.03-.9,0-1.35-.03-.46-.03-.91-.04-1.33-.01-.49-.3-.95-.29-1.34.03-.65.17-1.2.29-1.38.28-.43.93-.62,1.48-.66.55-.04,1.22.04,1.57.37"/><path d="M97.93,63.32c-.43-.08-.82-.04-1.21,0-.47.06-.96.33-1.29.17-.27-.14-.54-.57-.66-1.16-.09-.43-.12-.97-.16-1.54-.04-.48.2-1.01.19-1.54-.01-.51-.14-1.02-.12-1.53.01-.53-.06-1.05-.01-1.54.05-.56-.08-1.12,0-1.56.12-.63.58-1.18.97-1.42.47-.28,1.21-.3,1.69-.11.48.19.9.74,1.01,1.31.08.42.1.89.11,1.37.01.44-.11.89-.14,1.36-.02.45-.25.89-.28,1.35-.03.46.35.93.34,1.39-.01.46-.38.93-.36,1.37.02.47.48.91.57,1.34,0,.44-.31.46-.64.75"/><path d="M76.19,135.37c-.26-.32-.55-1.38-.59-1.84-.03-.32-.25-.79-.27-1.37-.02-.43-.19-.9-.2-1.39,0-.46.29-.94.29-1.4,0-.49-.18-.97-.17-1.4.02-.6.16-1.09.22-1.38.1-.49.43-.84.86-1.02.42-.18,1-.37,1.43-.15.37.18.49.73.65,1.26.08.27.45.79.52,1.5.05.47-.1,1.03-.05,1.59.04.52.02,1.06.05,1.58.03.56.19,1.1.2,1.57.02.71-.22,1.26-.25,1.56-.06.59-.06,1.06-.33,1.36-.35.38-.83.42-1.32.34-.42-.08-.7-.38-1.05-.81"/><path d="M89.48,101.18c.26.24.46.95.54,1.65.06.49-.18,1.07-.17,1.63,0,.55-.06,1.1-.08,1.6-.02.66.05,1.24.05,1.6,0,.47.43.93.38,1.39-.06.66-.42,1.2-.8,1.45-.42.28-1.05.19-1.59.01-.46-.16-.96-.42-1.29-.89-.28-.39-.53-.9-.6-1.49-.04-.39-.11-.92-.11-1.51,0-.47.1-.99.12-1.51.02-.51,0-1.03.05-1.51.05-.58.19-1.09.26-1.48.08-.42.47-.53.85-.72.35-.18.69-.53,1.09-.52.45.01,1.05.04,1.3.28"/><path d="M101.02,52.99c.56-.12.96.2,1.29.38.38.21.48.54.63,1.02.13.39.36.78.39,1.26.03.44-.06.89-.08,1.35-.02.46-.03.92-.05,1.35-.03.51-.19.99-.18,1.36.01.4.22.81.29,1.21.08.38.31.75.24,1.17-.07.37-.53.69-1.08.86-.44.14-.97.26-1.42.19-.52-.08-1.04-.39-1.17-.85,0-.45-.09-.9-.11-1.35-.03-.45.31-.92.27-1.37-.04-.45-.1-.89-.13-1.34-.03-.45-.1-.89-.1-1.34,0-.45.1-.88.15-1.32.05-.45-.19-.94-.07-1.37.15-.57.56-1.08,1.15-1.21"/><path d="M107.43,109.6c-.26-.19-.8-1.37-.86-1.76-.04-.26-.02-.77-.04-1.43-.01-.44-.26-.93-.26-1.45,0-.48.2-.97.21-1.45.01-.52-.28-1.03-.25-1.47.04-.68.33-1.18.4-1.4.17-.49.49-.69.95-.75.42-.06.89-.05,1.29.24.35.24.4.69.57,1.18.09.26.25.67.32,1.25.05.4.06.85.1,1.32.04.44.47.86.49,1.31.03.47-.01.93,0,1.34.02.57.1,1.05.09,1.34-.01.48-.36.94-.61,1.29-.28.38-.66.82-1.09.92-.42.09-.9-.18-1.32-.49"/><path d="M91.26,53.52c.64-.19,1.24-.44,1.61-.16.37.28.53.94.61,1.55.03.2-.22.71-.21,1.35,0,.4.21.85.21,1.33,0,.43-.19.89-.19,1.34,0,.45.05.91.04,1.34,0,.49.22.95.2,1.35-.03.7-.12,1.21-.18,1.33-.16.33-.88.67-1.58.66-.65-.01-1.14-.5-1.39-.82-.13-.17-.15-.68-.21-1.42-.04-.5-.35-1.04-.36-1.55-.02-.69-.22-1.31-.21-1.58,0-.26.49-.75.54-1.34.04-.45-.33-.97-.28-1.41.08-.65.4-1.14.49-1.29.11-.19.69-.61.9-.67"/><path d="M104.73,112.55c.11.11.19.79.36,1.41.15.57.08,1.18.11,1.39.05.35.1.86.12,1.47.02.47.32.98.32,1.49,0,.52-.27,1.03-.28,1.5-.02.62.33,1.2.27,1.54-.09.46-.57.68-.88.89-.33.23-.68.37-1.11.31-.38-.06-.69-.28-1.02-.58-.35-.32-.53-.65-.64-1.07-.11-.41-.36-.84-.33-1.29.03-.43.46-.84.52-1.27.07-.46-.16-.93-.15-1.34,0-.35,0-.83-.04-1.36-.04-.45.1-.92.11-1.37.02-.5.05-.92.25-1.27.22-.38.48-.74,1.04-.76.21,0,1.24.19,1.35.3"/><path d="M82.72,88.27c-.06-.03-.03-.33-.08-.36-.24-.13-.98.27-1.38-1.04-.08-.25-.35-.76-.35-1.45,0-.45.31-.96.34-1.5.02-.5-.4-1.04-.36-1.54.04-.54.16-1.06.21-1.51.08-.68.35-1.2.45-1.45.22-.55.66-.77,1.1-.94.5-.19,1.08-.41,1.52-.09.35.26.69.8.78,1.44.04.29,0,.81,0,1.41,0,.42.11.9.09,1.39-.01.46-.02.94-.04,1.4-.02.49-.22.96-.25,1.38-.04.58.03,1.09-.01,1.39-.05.44-.32.99-.65,1.31-.35.34-.92.39-1.36.15"/><path d="M83.43,54.46c.14.18.22.56.31,1.02.09.44.32.85.34,1.09.03.36.28.9.3,1.54.02.49-.37,1.03-.36,1.57,0,.54,0,1.07,0,1.56-.02.66.26,1.25.2,1.58-.06.33-.38.34-.67.51-.37.04-.73.36-1.16.4-.44.04-.89.02-1.23-.14-.32-.16-.34-.54-.44-1.06-.05-.25-.1-.72-.12-1.35-.01-.42-.09-.89-.1-1.38,0-.46-.23-.93-.22-1.39,0-.49-.05-.98-.04-1.4.02-.62.19-1.12.23-1.38.07-.44.5-.7.83-1.02.34-.32.62-.84,1.04-.89.44-.05.77.34,1.09.75"/><path d="M123.96,120.93c-.04.1-.74.31-.52.83-.6-.37-1.17-.21-1.56-.22-.16,0-.18-.14-.24-.16-.48-.2-.65-.5-.84-.76-.17-.24-.24-.52-.33-1.05-.04-.25-.33-.81-.32-1.51,0-.47.42-.99.44-1.52.02-.53-.11-1.07-.08-1.54.05-.69,0-1.27.05-1.53.09-.48.4-.78.68-1.04.33-.29.69-.73,1.11-.74.42,0,.77.45,1.1.73.3.25.5.54.57,1.02.05.3,0,.82,0,1.48,0,.45-.05.96-.05,1.49,0,.49.15,1.01.12,1.5-.03.53-.01,1.05-.06,1.5-.07.66.03,1.27-.08,1.54"/><path d="M109.97,122.57c-.5-.33-1.2.07-1.44,0-.32-.1-.71-.45-1.04-.83-.32-.37-.55-.81-.61-1.15-.04-.26.12-.77.1-1.39-.01-.42-.05-.89-.06-1.38,0-.46-.3-.93-.3-1.39,0-.5.01-.97.03-1.39.02-.63.36-1.09.41-1.34.09-.47.03-1.05.36-1.28.36-.24.92-.06,1.34.05.37.1.74.29,1.01.71.2.31.35.71.43,1.21.05.37.26.82.31,1.32.04.42.05.88.08,1.35.03.44-.06.91-.04,1.35.02.47-.2.92-.2,1.34,0,.51.35,1,.3,1.36-.06.51-.46,1.03-.69,1.46"/><path d="M97.47,77.15c.51-.09.94.12,1.34.39.4.28.55.62.63,1.15.04.26.41.73.43,1.35.01.42.1.9.1,1.39,0,.46-.22.93-.22,1.39,0,.49.11.97.1,1.39-.02.62.05,1.16,0,1.41-.11.6-.71,1.02-1.25,1.13-.51.11-1.17.01-1.65-.26-.46-.27-.67-.82-.75-1.4-.05-.33-.31-.84-.33-1.48-.02-.46-.09-.98-.09-1.51,0-.5.21-1.01.24-1.51.03-.54.13-1.04.2-1.49.1-.66.02-1.3.22-1.54.19-.24.75-.36,1.05-.41"/><path d="M76.91,113.52c.1.29.13-.26.42-.36.66.13,1,.21,1.26.54.25.33.41.77.49,1.41.03.25-.19.8-.17,1.49.01.45.37.95.37,1.47,0,.49.06,1,.04,1.48-.01.53-.04,1.05-.07,1.49-.04.74-.45,1.14-.55,1.3-.35.3-.87.47-1.51.38-.65-.09-1.48-.21-1.68-.64-.11-.24-.11-.79-.16-1.4-.03-.4.14-.87.13-1.36,0-.43.04-.89.04-1.35,0-.46-.07-.92-.05-1.35.02-.49.19-.93.23-1.33.05-.59.06-1.05.14-1.31.12-.39,1.27-1.4,1.06-.44"/><path d="M83.04,100.72c.67.05,1.27,1.02,1.37,1.65.05.32-.03.8,0,1.35.02.41.1.87.1,1.34,0,.44,0,.9,0,1.35,0,.47-.23.92-.25,1.34-.02.54.37,1.04.34,1.37-.08.8-.71,1.07-1.19,1.24-.46.16-.89.01-1.53-.35-.44-.25-.9-.4-1.09-.86-.17-.41-.07-.92-.1-1.44-.03-.46,0-.93.04-1.43.04-.48.14-.95.21-1.43.07-.5-.23-1.03-.18-1.49.07-.55.44-1,.42-1.41.08-.29.19-.8.61-.98.41-.18.98-.27,1.25-.25"/><path d="M77.13,66.25c.47-.14,1.55-.41,1.94-.09.23.18.45.82.55,1.55.06.47.06,1.02.09,1.59.03.51.1,1.06.11,1.58.01.56-.35,1.1-.34,1.59.01.68.12,1.24.16,1.56-.08.55-.15,1.06-.49,1.3-.38.26-.98.41-1.45.34-.45-.07-.92-.42-1.24-.76-.3-.32-.53-.79-.54-1.31-.01-.47.2-.9.17-1.4-.02-.32.06-.78,0-1.3-.05-.41-.07-.85-.1-1.3-.03-.44.18-.87.2-1.3.03-.48-.19-.96-.04-1.32.18-.43.58-.57,1.01-.7"/><path d="M79.05,63.2c-.16.22-.68.65-.85,1.02-.23-.08.23-.43.14-.66-.08-.07-.97,1.1-1.99-.18-.14-.17-.44-.58-.53-1.15-.06-.4,0-.86-.05-1.28-.05-.52-.1-.99-.11-1.26-.02-.39.2-.85.18-1.3-.02-.43-.42-.87-.39-1.3.03-.45.21-.9.34-1.29.15-.42.54-.64.89-.91.3-.23.62-.33,1.13-.38.58-.05.89.15,1.12.71.18.43.39.95.44,1.52.04.53-.27,1.09-.28,1.59-.01.67.43,1.26.44,1.58,0,.5-.16,1.13-.1,1.74.06.6-.05,1.05-.39,1.53"/><path d="M89.23,65.99c.21.27.34.91.44,1.58.07.47-.17,1.03-.13,1.59.03.51,0,1.04.02,1.56.02.55.14,1.08.15,1.56.01.65.24,1.22.27,1.58-.22.46-.74.6-1.08.79-.4.22-.79.53-1.22.42-.41-.1-.89-.35-1.19-.71-.26-.31-.48-.79-.57-1.27-.05-.29.09-.88.06-1.57-.02-.48-.21-1.01-.22-1.54,0-.54.24-1.07.25-1.55.01-.69.14-1.23.19-1.51.08-.42.07-.99.44-1.22.35-.22.92-.25,1.33-.23.43.02.99.17,1.26.51"/><path d="M79.41,78.64c.2.25.49.68.54,1.33.04.43-.27.94-.27,1.47,0,.47.16.96.15,1.46-.02.49.21,1,.19,1.47-.02.52-.06,1.01-.07,1.45-.01.61-.32,1.11-.27,1.44-.06.45-.18.84-.53.97-.34.13-.98.16-1.32.28-.2-.76-.34-.32-.67-.51-.2-.12-.63-.95-.68-1.23-.06-.31-.31-.89-.33-1.59-.01-.5.25-1.06.25-1.62,0-.56,0-1.11.03-1.62.02-.69-.19-1.3-.15-1.63.07-.49.48-.92.76-1.32.32-.44.72-.7,1.15-.81.45-.11.82-.03,1.22.46"/><path d="M84.48,75.06c-.25.25-.65.34-1.13.31-.41-.02-.95.16-1.32-.02-.42-.2-.43-.73-.54-1.1.05-.45-.37-.92-.39-1.45-.02-.47-.03-.96-.07-1.46-.04-.49,0-.99-.02-1.48-.03-.51.21-1,.23-1.47.02-.53.03-.99.16-1.42.13-.45.41-.73.89-.86.43-.12,1-.34,1.43-.13.39.19.69.69.85,1.19.07.23-.11.74-.06,1.35.04.4.18.83.21,1.31.02.43.06.88.07,1.33.01.45.31.9.3,1.33,0,.48-.04.95-.07,1.34-.05.66-.4,1.08-.54,1.22"/><path d="M102.21,77.2c.58-.13,1.04.12,1.39.26.43.18.81.46.97.94.13.39-.02.89,0,1.4.01.44.24.92.2,1.39-.03.46-.29.92-.33,1.37-.05.49-.09.96-.11,1.39-.03.55.24,1.06.32,1.41-.23.58-.88.67-1.32.82-.48.16-.97.36-1.44.08-.41-.25-.59-.75-.79-1.29-.11-.28-.55-.67-.59-1.23-.02-.4.04-.87.05-1.34,0-.44.07-.89.11-1.33.03-.47.2-.91.25-1.32.07-.55.13-1.02.23-1.31.21-.6.38-1.09,1.06-1.25"/><path d="M102.63,109.34c-.05-.03-1.07-.68-1.1-.73-.12-.2.13-.84.06-1.48-.05-.41-.32-.86-.35-1.35-.03-.45-.19-.92-.2-1.38,0-.49.11-.97.12-1.38.01-.62.37-1.08.42-1.33.08-.43.07-.97.45-1.2.36-.22.87.04,1.31.09.41.05,1.01-.14,1.31.23.23.28.2.82.28,1.34.06.38.31.9.36,1.53.04.49,0,1.03.02,1.56.03.54-.18,1.08-.18,1.56,0,.63.29,1.21.23,1.57-.11.68-.57,1.28-1.05,1.43-.48.15-1.14-.16-1.66-.47"/><path d="M87.82,112.95c.66-.26,1.3-.45,1.68-.17.37.27.36.97.49,1.6-.06.38-.05.89-.02,1.46.03.46.12.95.17,1.46.04.49.26.98.28,1.46.03.52-.14,1.03-.17,1.48-.03.59.04,1.17-.17,1.49-.33.52-.83.4-1.26.35-.41-.05-.87-.04-1.36,0-.4-.18-.7-.58-.85-1.09-.12-.39-.26-.87-.27-1.37-.01-.44.38-.89.41-1.36.03-.46-.15-.94-.1-1.39.05-.48.16-.95.19-1.37.04-.55.19-1.02.14-1.37.08-.44.43-1.02.85-1.19"/><path d="M91.7,65.32c.67-.16,1.18-.05,1.51.23.35.3.65.81.74,1.38.08.48-.17,1.05-.17,1.56,0,.59.06,1.14.1,1.52.04.37.27.82.37,1.31.09.44.33.9.36,1.34.03.5-.45.86-.65,1.22-.19.35-.32.73-.9.8-.6.08-1.19.14-1.56-.11-.39-.27-.48-.9-.67-1.4-.17-.45-.53-.9-.6-1.4-.07-.52-.14-1.05-.16-1.49-.02-.39.11-.88.09-1.39-.01-.45-.04-.94.02-1.39.06-.49.21-.97.41-1.34.22-.4.61-.71,1.1-.84"/><path d="M107.59,53.35c.2.24.51.7.61,1.26.07.39-.06.88-.02,1.37.03.43-.11.89-.1,1.34.01.45.27.9.27,1.34,0,.47-.04.93-.04,1.34,0,.54-.09,1.01-.06,1.33.06.38-.38.87-.96,1.07-.56.2-1.24,0-1.47-.04-.5-.07-.85-.51-.94-.99.09-.46.17-1,.13-1.57-.03-.49-.23-1.02-.29-1.54-.06-.52-.07-1.04-.11-1.55-.04-.55-.33-1.08-.28-1.56.06-.56.41-.99.69-1.39.32-.46.65-1.04,1.11-1.11.46-.08,1.05.24,1.45.71"/><path d="M114.93,122.27c-.07.04-1.37.57-1.45.57-.14,0-.11-.59-.17-.62-.15-.07-.41.13-.56-.04-.28-.32-.34-.79-.49-1.26-.13-.41-.53-.8-.59-1.28-.06-.44.04-.93.02-1.39-.02-.46-.07-.92-.07-1.38,0-.48.24-.94.23-1.38,0-.5-.3-1-.33-1.4.25-.59.79-.93,1.18-1.14.5-.26.97-.15,1.42.2.35.27.6.66.75,1.29.08.36.4.89.48,1.56.06.5-.24,1.09-.19,1.65.05.56.1,1.1.12,1.61.03.67.45,1.26.42,1.62-.04.39-.46,1.22-.77,1.4"/><path d="M114.86,108.78c-.15.19-1.49.65-1.76.62-.46-.32-.21-.63-.75-.77-.26-.06.11.3-.12.18-.09-.65-.69-.86-.84-1.49-.05-.23-.01-.79-.03-1.51-.01-.48-.39-1-.39-1.54,0-.54.36-1.07.37-1.55.01-.72-.2-1.31-.16-1.55.11-.56.45-1.14.94-1.36.49-.22,1.11.02,1.6.27.42.22.66.56.81,1.21-.04.33.33.82.38,1.45.03.45.1.96.14,1.48.04.49-.32,1.03-.29,1.52.03.53.01,1.03,0,1.48-.01.68.29,1.33.1,1.56"/><path d="M83.41,125.96c.23.23.63.52.71,1.09.06.41.13.9.14,1.37.01.46-.34.94-.35,1.37-.01.55.27,1.04.28,1.36,0,.42-.25.86-.19,1.26.06.4.53.79.47,1.21-.05.36-.26.78-.54,1.17-.25.36-.75.53-1.17.5-.38-.02-.79-.28-1.13-.49-.4-.24-.7-.58-.79-.88-.07-.23.05-.78.02-1.47-.02-.44,0-.94-.02-1.46,0-.49-.08-.99-.08-1.47,0-.52-.05-1.03-.04-1.47.02-.67-.2-1.23-.16-1.49.09-.68.71-1.22,1.28-1.34.59-.13,1.15.35,1.55.75"/><path d="M101.08,65.49c.35-.1.76-.18,1.17-.11.43.07.93.13,1.14.48.11.18.18.8.31,1.55.08.46.35.96.42,1.51.07.51.04,1.05.09,1.55.06.55.19,1.08.22,1.54.05.75-.1,1.37-.16,1.58-.13.43-.57.71-1.02.85-.4.13-.86.07-1.29-.09-.39-.15-.6-.47-.83-.91-.14-.26-.46-.66-.58-1.29-.08-.43-.09-.92-.15-1.43-.06-.47-.31-.94-.34-1.42-.04-.51.07-1.01.05-1.45-.02-.63.2-1.1.25-1.4.08-.41.32-.85.72-.96"/><path d="M98.81,74.07c-.35.29-.99.01-1.5-.03-.49-.04-.89-.1-1.22-.45-.23-.25-.33-.64-.47-1.2-.1-.41-.59-.8-.65-1.3-.05-.45.02-.95,0-1.41-.02-.49.09-.97.1-1.4,0-.58,0-1.07.04-1.39.09-.6.5-.95.92-1.21.46-.29.93-.35,1.45-.18.47.15.93.39,1.18.96.05.31.09.85.16,1.5.05.46.34.95.39,1.48.04.5.1,1.03.12,1.52.02.54-.12,1.08-.15,1.53-.05.7-.14,1.39-.37,1.58"/><path d="M95.21,125.16c.24.19.15,1.34.19,1.69.04.36.34.92.36,1.59.01.51.15,1.06.15,1.62,0,.56-.3,1.12-.32,1.62-.02.68-.02,1.25-.08,1.6-.1.6-.31,1.01-.69,1.29-.38.28-.85.46-1.45.34-.08-.02-1.1-1.18-1.13-1.36-.05-.24.12-.77.1-1.44-.01-.43-.21-.92-.21-1.43,0-.47.17-.96.17-1.44,0-.51.07-1,.08-1.43.02-.66-.14-1.18-.1-1.44.1-.65.45-1.32,1-1.51.57-.19,1.45-.07,1.91.29"/><path d="M119.63,121.3c-.15.29-.49.66-.93.79-.51.15-1.07.19-1.13-.24-.32-.11-.23-.05-.55-.14-.09-.38-.33-.53-.39-.91-.05-.32-.21-.88-.23-1.57-.01-.5.1-1.05.11-1.6,0-.55-.22-1.11-.2-1.61.03-.69.24-1.25.29-1.57.09-.51.31-.82.6-1.08.34-.31.7-.59,1.14-.55.42.03.8.3,1.12.65.26.29.5.66.57,1.17.04.27.16.76.18,1.35.01.41-.06.88-.07,1.35,0,.45-.08.91-.1,1.36-.02.48-.04.95-.08,1.35-.06.6-.22,1.04-.34,1.27"/><path d="M112.59,61.91c-.3-.06-.72.12-1.18.21-.41.08-.85.25-1.21.23-.42-.03-.84-.29-.98-.76-.05-.17.15-.74.13-1.45-.01-.43.04-.91.04-1.42,0-.47-.16-.96-.16-1.43,0-.51-.2-1.01-.19-1.44.02-.68.39-1.18.42-1.39.08-.51.1-.93.4-1.16.34-.26.81-.41,1.25-.34.39.06.94.21,1.29.5.09.23.18.84.27,1.49.06.42-.27.94-.23,1.44.04.45.28.91.31,1.39.03.48-.13.96-.12,1.41.01.52.21.99.19,1.41-.03.73-.08,1.21-.23,1.31"/><path d="M87.48,90.8c.42-.32.7-.6,1.07-.57.42.04.9.2,1.18.57.23.32.31.8.38,1.27.04.23.05.76.04,1.41,0,.42.12.91.09,1.41-.03.46-.05.95-.1,1.41-.05.5-.25.97-.32,1.39-.11.7-.26,1.22-.43,1.34-.33.24-.8.46-1.25.41-.42-.05-.88-.29-1.22-.53-.36-.26-.36-.74-.44-1.14-.09-.47-.37-.94-.34-1.46.03-.49-.09-1.02-.03-1.52.06-.5.52-.96.56-1.45.04-.51.03-1.03-.03-1.51.02-.58.41-.72.83-1.04"/><path d="M78.35,101.53c.2.2.39,1.24.45,1.59.06.32.17.82.25,1.42.06.45.06.95.11,1.44.05.5-.12,1.01-.09,1.45.04.62.34,1.13.3,1.43-.1.73-.48,1.12-.86,1.34-.46.26-.99.21-1.53-.07-.46-.24-.84-.61-1.13-1.12.01-.3-.19-.74-.24-1.3-.04-.4.02-.87-.03-1.34-.04-.44.05-.9.03-1.34-.03-.46-.11-.91-.09-1.33.02-.5.11-.92.21-1.3.14-.53.2-1.16.58-1.27.45-.14,1.73.08,2.06.41"/><path d="M83.39,122.4c-.21-.1.12-.69-.11-.69-.34.43-.91.83-1.32.61-.39-.21-.81-.74-.96-1.12-.14-.35-.23-.87-.22-1.37,0-.41.21-.86.26-1.32.05-.43.21-.86.25-1.3.04-.45-.14-.9-.15-1.32-.01-.47.1-.92-.05-1.3.44-.49.88-.74,1.24-.93.6-.32.99-.28,1.38.04.33.27.49.72.67,1.32.14.45.24.94.29,1.52.04.41,0,.98.03,1.61.02.52.48,1.09.44,1.63-.05.58-.42,1.1-.61,1.54-.23.54-.6.99-1.15,1.09"/><path d="M101.61,90.5c.3-.34.51-.94.96-1.01.44-.07.9.29,1.28.57.33.25.51.7.59,1.31.06.46-.11.97-.13,1.5-.02.51.3,1.06.25,1.54-.07.6-.41,1.11-.44,1.48-.04.51.35,1.07.31,1.46-.04.56-.43.8-.76,1-.36.23-.77.48-1.23.36-.41-.11-.96-.26-1.29-.58-.31-.3-.2-.91-.31-1.36-.06-.26,0-.7,0-1.26,0-.4.02-.84.05-1.3.03-.45-.12-.91-.09-1.31.05-.54-.01-1.02.03-1.31.05-.34.56-.84.78-1.09"/><path d="M117.61,61.82c-.54-.23-.91.13-1.35.28-.39.13-.71.06-1.27-.28-.25-.15-.31-.48-.43-1.02-.09-.4-.34-.81-.38-1.24-.05-.51.07-.99.06-1.3-.02-.34-.31-.85-.32-1.41,0-.47.3-.96.33-1.42.05-.6.03-1.07.23-1.32.39-.49.78-.98,1.22-.95.47.03.88.56,1.23.97.31.36.74.78.82,1.29.06.36-.25.91-.2,1.45.04.46.33.93.36,1.4.03.54-.24,1.05-.23,1.43,0,.4.33.79.28,1.16-.05.38-.28.57-.35.97"/><path d="M117.88,89.56c.62-.13,1.03-.21,1.33.14.28.32.63.78.73,1.34.08.45.02.99.04,1.51.01.49.12,1.01.1,1.5-.01.53-.41,1.03-.42,1.48,0,.62.2,1.14.31,1.47-.12.56-.59,1.1-1.15,1.24-.52.13-1.12-.2-1.61-.45-.47-.24-.81-.59-.91-1.21-.04-.27-.2-.78-.22-1.42-.01-.44-.14-.94-.14-1.44,0-.5-.06-1-.05-1.45.02-.64.16-1.19.21-1.45.05-.29.34-.72.66-1.01.32-.29.84-.21,1.11-.27"/><path d="M123.88,108.22c-.33.45-1.01.54-1.62.45-.6-.09-1.02-.49-1.3-.92-.23-.35-.54-.7-.58-1.22-.03-.43.05-.91.09-1.4.04-.46-.13-.96-.06-1.42.07-.48.25-.93.29-1.37.05-.51.02-1.02-.03-1.42.28-.46.8-.94,1.26-1.06.49-.13,1.14.06,1.57.3.41.23.59.75.71,1.3.04.19.38.68.37,1.33-.01.4-.09.87-.12,1.35-.02.45-.22.9-.26,1.34-.04.48-.18.93-.22,1.34-.08.69-.03,1.25-.12,1.37"/><path d="M106.75,65.14c.52-.03,1.09.01,1.43.42.2.24.48.66.6,1.31.08.44.27.94.32,1.47.05.49.11,1.01.13,1.5.02.53-.13,1.05-.14,1.51,0,.65-.14,1.16-.21,1.46-.11.48-.39.62-.76.78-.37.16-.65.15-1.08,0-.38-.13-.81-.16-1.08-.52-.24-.31-.21-.72-.28-1.19-.04-.29-.3-.81-.32-1.46-.02-.46.06-.98.06-1.5,0-.52.12-1.03.13-1.49.02-.66-.38-1.26-.32-1.54.13-.65.92-.72,1.54-.75"/><path d="M104.15,136.94c.81-.17,1.54.15,1.88.9.11.25-.22.86-.16,1.5.04.43.07.9.09,1.41.02.47.28.95.28,1.42,0,.51-.09,1-.1,1.43-.01.62,0,1.13-.05,1.42-.05.35-.52,1.62-.81,1.67-.55-.26-1.09-.4-1.55-.6-.43-.19-.54-.57-.69-1.35-.05-.28-.09-.82-.1-1.51-.01-.48-.04-1.01-.04-1.55,0-.54-.32-1.08-.3-1.56.02-.69.38-1.22.42-1.51.06-.35.15-.61.39-.89.24-.28.4-.72.75-.79"/><path d="M99.11,137.35c.48-.07.99.22,1.26.57.24.3.06.86.18,1.31.11.41.48.78.53,1.19.06.5.18.95.2,1.27.02.37-.23.97-.23,1.61,0,.53.06,1.09-.02,1.6-.09.65-.22,1.2-.52,1.46-.5.25-.98.11-1.47-.05-.48-.16-.92-.33-1.16-.86-.09-.2,0-.7-.07-1.35-.04-.41-.38-.86-.4-1.35-.02-.45-.19-.93-.2-1.38,0-.49.48-.96.49-1.38.02-.65-.06-1.13,0-1.34.12-.41,1.02-1.24,1.43-1.3"/><path d="M93.59,112.21c.61-.12,1,.35,1.38.69.37.33,1.01.63,1.09,1.2.04.25-.31.77-.27,1.34.02.4.26.84.28,1.29.02.45.2.9.21,1.3.01.58-.35,1.05-.37,1.29-.05.53-.14.92-.42,1.18-.33.3-.76.38-1.21.4-.44.01-.96.07-1.32-.15-.39-.23-.75-.66-.84-1.11-.04-.23,0-.82-.02-1.51-.01-.46-.14-.98-.14-1.5s0-1.04,0-1.51c.02-.7.13-1.28.18-1.51.1-.55.92-1.3,1.45-1.41"/><path d="M121.87,88.44c.36-.07.74.41,1.06.57.47.24.69.53.86.98.16.42.49.86.49,1.36,0,.48-.28.96-.34,1.43-.07.53-.13,1.03-.15,1.43-.02.44.22.96.25,1.45.04.53-.16.91-.53,1.22-.27.22-.6.61-1.29.59-.57-.02-1.04-.31-1.33-.66-.28-.33-.28-.86-.38-1.38-.09-.44-.1-.91-.11-1.41,0-.48-.29-.98-.25-1.46.04-.5.04-1,.08-1.45.06-.57.17-1.07.16-1.43.09-.31,1.18-1.19,1.46-1.25"/><path d="M95.16,109c-.38.35-.93.51-1.37.44-.43-.06-.85-.42-1.2-.73-.35-.31-.55-.74-.7-1.15-.09-.24-.15-.71-.21-1.31-.04-.4-.37-.85-.39-1.32-.02-.45.07-.92.07-1.36,0-.48.03-.95.05-1.35.04-.64.1-1.21.23-1.39.18-.25.72-.24,1.13-.32.41-.07.82-.11,1.09.02.37.19.42.68.59,1.27.13.43.4.88.47,1.42.06.49.07,1,.12,1.5.05.52-.01,1.05.05,1.51.08.6.25,1.11.41,1.46,0,.25-.16,1.17-.32,1.32"/><path d="M124.09,133.63c-.28.31-.73.23-1.15.24-.41,0-.73-.1-1.08-.29-.39-.22-.95-.35-1.02-.72-.1-.5.05-1.08.07-1.64.03-.52-.15-1.09-.08-1.64.07-.54.18-1.06.23-1.59.05-.55.35-1.07.31-1.57.19-.56.56-.82.99-1.03.49-.23,1.05-.47,1.5-.19.38.24.86.73.96,1.37.04.28-.23.83-.22,1.45.01.43-.01.91-.02,1.41,0,.47.3.97.27,1.44-.03.51-.37.96-.44,1.39-.1.63-.14,1.17-.33,1.38"/><path d="M123.2,73.49c-.33.29-.63.66-1.1.65-.44-.01-1.01-.05-1.38-.28-.4-.25-.45-.81-.53-1.25-.05-.26.04-.71.03-1.29,0-.4-.04-.84-.03-1.31.02-.44,0-.88.04-1.32.04-.47-.15-.95-.08-1.34.1-.59.2-1.11.36-1.31.31-.4.82-.61,1.25-.65.44-.03.99.09,1.37.36.36.25.64.73.78,1.18-.03.26-.31.75-.32,1.35-.01.41.06.88.05,1.35-.01.45.07.91.05,1.36-.02.49-.18.94-.21,1.34-.06.69-.13,1.03-.27,1.15"/><path d="M112.33,89.62c.56-.12,1.45,0,1.79.48.15.22.14.75.22,1.4.05.42.12.9.15,1.4.02.47.22.95.22,1.42,0,.5-.06.99-.09,1.42-.04.64-.06,1.19-.16,1.44-.21.52-.74.85-1.21.97-.48.12-1.08,0-1.51-.25-.42-.25-.65-.72-.73-1.27-.04-.27,0-.79-.01-1.42-.01-.44-.17-.94-.16-1.43,0-.5.05-.99.06-1.43.02-.64-.12-1.21-.07-1.46.13-.59.92-1.12,1.52-1.25"/><path d="M78.99,90.59c.3.28.55.71.61,1.27.05.43,0,.93-.03,1.44-.03.47.15.98.1,1.45-.05.5-.25.96-.28,1.41-.04.56-.01,1.07.05,1.44-.21.47-.57.88-.88,1.08-.39.25-.92.27-1.33.16-.39-.1-.87-.33-1.15-.71-.24-.32-.48-.78-.55-1.26-.04-.23-.05-.82-.02-1.5.02-.45.23-.95.27-1.45.04-.51.05-1.02.1-1.46.09-.72.23-1.3.34-1.43.25-.32.79-.61,1.33-.73.54-.12,1.1-.01,1.43.3"/><path d="M106.81,98.02c-.33-.27-.46-.81-.56-1.29-.09-.4-.26-.87-.25-1.35,0-.43.21-.89.26-1.34.04-.46.21-.9.24-1.32.04-.51-.05-.97-.09-1.34.17-.58.67-.82,1.11-1.04.49-.24.9-.2,1.38.02.44.21.73.44.87,1.06.05.23.37.72.39,1.37.01.44-.32.93-.33,1.42,0,.49.08.98.06,1.42-.02.64-.09,1.14-.14,1.37-.1.44-.29.63-.62.84-.34.21-.64.35-1.06.32-.41-.03-.95.11-1.26-.14"/><path d="M95.2,138.15c.18.19.2.83.3,1.53.06.44.03.95.06,1.49.03.48.15.98.15,1.49,0,.51-.18,1-.21,1.48-.04.54-.21,1.01-.29,1.45-.13.69-.01,1.43-.25,1.59-.45.11-.95-.09-1.31-.22-.39-.14-.75-.38-1-.74-.21-.32-.11-.77-.18-1.21-.04-.27-.07-.77-.09-1.4-.01-.44-.14-.93-.14-1.43,0-.5-.22-1-.21-1.44.02-.64.2-1.16.25-1.42.1-.52.55-1.05,1.12-1.27.59-.23,1.42-.28,1.8.11"/><path d="M94.73,77.67c.11.48-.14,1.19-.11,1.71.04.5.14.99.12,1.5-.01.51-.06,1.01-.11,1.51-.05.51-.13,1.01-.2,1.5-.07.52.17,1.21.1,1.7-.61.21-1.29.02-1.7.02-.65,0-.99-.18-1.26-.59-.25-.38-.2-.86-.23-1.45-.03-.48-.25-1-.21-1.54.04-.52-.11-1.06-.07-1.57.05-.56.22-1.1.21-1.56.21-.5.2-.54.49-.99.29-.45.28-.56.79-.73.52-.17.43.48.98.55.61.08.77-.38,1.2-.06"/><path d="M110.76,145.45c-.54.11-.88.36-1.25.28-.5-.11-.72-.55-.97-.92-.23-.35-.7-.67-.79-1.16-.08-.42.17-.93.16-1.4-.02-.45-.21-.91-.21-1.37,0-.47.08-.93.07-1.37-.02-.5-.11-.98-.21-1.37.29-.5.72-.77,1.02-.98.46-.32.83-.35,1.24-.13.35.19.53.57.77,1.06.18.38.57.74.64,1.25.05.34.15.85.2,1.41.04.46-.09.98-.06,1.44.04.57.08,1.08.07,1.42-.04.71-.37,1.2-.67,1.83"/><path d="M100.07,125.84c.12.13.5.6.64,1.35.08.43-.19.99-.14,1.53.05.48.23.97.25,1.47.02.51.19,1.02.16,1.5-.03.55,0,1.11-.12,1.53-.17.61-.68,1.07-1.08,1.19-.32-.22-.76-.23-1.16-.3-.4-.07-.88-.25-1.08-.69-.11-.26-.14-.83-.22-1.49-.05-.44.07-.95.04-1.47-.03-.49-.39-.98-.4-1.46,0-.53.38-1.03.41-1.47.04-.68-.08-1.26.06-1.48.21-.36.8-.4,1.32-.45.56-.05,1.09,0,1.31.23"/><path d="M111.43,86.26c-.31-.15-.72-.7-.9-1.21-.17-.49.18-1.11.17-1.43,0-.28-.03-.77,0-1.33.02-.44-.32-.93-.28-1.37.04-.56.48-1.02.52-1.29.06-.36.18-.75.49-1.1.33-.36.65-.81,1.04-.8.5.02.89.31,1.15.61.27.3.28.77.39,1.2.11.42.08.85.1,1.25.01.22.42.73.43,1.34,0,.44-.25.92-.26,1.36,0,.63.03,1.17.01,1.35-.1.68-.56,1.01-1.09,1.22-.53.21-1.22.45-1.76.19"/><path d="M119.91,125.89c.19.18-.02.83.08,1.43.06.39.43.8.47,1.28.03.43-.26.9-.25,1.34,0,.47.12.92.11,1.32-.02.58.08,1.06.04,1.33-.07.49-.4.83-.66,1.12-.31.35-.65.51-1.09.51-.39,0-.72-.17-1.11-.51-.98-.84-.65-1.07-.72-1.82-.03-.33.18-.84.15-1.41-.02-.44-.04-.92-.04-1.39,0-.49.15-.95.19-1.38.06-.58-.03-1.07.13-1.35.22-.37.7-.38,1.22-.43.53-.05,1.21-.3,1.49-.04"/><path d="M113.75,137.04c.47-.1.94-.02,1.34.29.21.16.36.53.51,1.11.1.38.15.82.23,1.28.07.43.35.84.4,1.27.05.46.1.91.12,1.31.03.57-.33,1.03-.36,1.29-.03.24.25.76.11,1.16-.15.43-.52.7-.77.77-.61.05-1.02-.06-1.39-.24-.46-.23-.86-.48-1.05-.96-.17-.42-.09-.95-.13-1.48-.04-.48-.41-.98-.41-1.48s.11-1.01.1-1.48c-.02-.54-.05-1.06-.16-1.48.19-.62.8-1.21,1.44-1.35"/><path d="M114.9,133.49c-.33.19-.7.03-1.19-.18-.49-.21-1.07-.31-1.25-.58-.09-.14.03-.73-.03-1.43-.04-.43-.29-.9-.31-1.39-.02-.49.03-.98.02-1.41-.01-.66.06-1.19.09-1.4.07-.5.07-.94.25-1.25.23-.39.56-.83.99-.94.35-.08.88-.04,1.38.05.28.14.48.76.63,1.37.1.4.3.86.36,1.36.05.45-.27.96-.25,1.42.03.49.32.96.32,1.38,0,.61-.12,1.11-.15,1.38-.05.38-.61,1.49-.83,1.62"/><path d="M84.53,90.79c.21.21.21.7.26,1.3.03.41.23.87.21,1.36-.01.45-.22.9-.24,1.35-.03.48.28.96.26,1.38-.03.57-.1,1.07-.06,1.37-.27,1.23-1.12.88-1.65,1.06-.13.05-.08.52-.6.2-.03-.02.07-.42-.01-.46-.2-.11-.72.05-1.03-.35-.2-.25-.35-.71-.41-1.41-.04-.47-.38-1.01-.35-1.57.02-.52.3-1.05.37-1.56.08-.56.34-1.04.48-1.49.21-.64.4-1.06.73-1.23.35-.18,1.75-.24,2.04.05"/><path d="M118.27,85.83c-.27.2-1.65.4-1.62-.18-.25-.17-.29.27-.56.14-.24-.58-.9-.66-1.1-1.3-.06-.18.3-.93.3-1.74,0-.54.04-1.13.06-1.67.03-.81-.04-1.48,0-1.66.11-.49.15-1.05.45-1.3.34-.27.93-.4,1.38-.37.4.03.81.36,1.21.62.19.19.28.79.37,1.53.06.48.05,1.03.08,1.58.02.54.27,1.09.27,1.58,0,.7-.17,1.29-.2,1.58-.04.35-.38.99-.64,1.18"/><path d="M117.06,65.68c.52,0,.91,0,1.19.43.23.35.3.83.41,1.35.1.45.44.9.47,1.38.03.49.02,1,.01,1.44-.01.58-.31,1.07-.34,1.41-.05.55-.25.89-.54,1.16-.34.31-.77.73-1.24.68-.43-.04-.73-.61-1.08-.93-.32-.29-.56-.57-.67-1.06-.06-.25-.31-.71-.32-1.29,0-.41.31-.87.33-1.33.02-.46-.3-.94-.26-1.35.06-.58.44-.97.55-1.2.19-.39,1.07-.69,1.5-.69"/><path d="M77.51,138.11c.08,0,1.11.73,1.2.83.13.16.26.65.34,1.33.04.4.06.88.08,1.37.02.44-.08.91-.08,1.38,0,.47-.06.93-.08,1.37-.02.5.12.98.08,1.38-.07.67-.27,1.08-.4,1.24-.57.38-.98.44-1.39.3-.46-.15-.86-.47-1.12-.99-.22-.45-.32-1-.37-1.51-.03-.29-.27-.81-.24-1.43.02-.44.25-.92.31-1.41.05-.48.32-.92.42-1.37.11-.51.02-1.04.21-1.42.26-.53.62-1.06,1.05-1.06"/><path d="M109.97,133.17c-.43.06-1.01-.19-1.53-.47-.53-.28-.78-.67-.87-1.12-.06-.28-.13-.75-.12-1.38,0-.44,0-.93.03-1.42.03-.49-.24-1.01-.19-1.46.06-.61.08-1.15.15-1.44.12-.55.72-.96,1.21-1.13.49-.17,1.23-.26,1.68.07.36.26.69.87.79,1.52.06.41-.01.91,0,1.42.02.45-.25.91-.27,1.39-.02.47-.05.92-.12,1.37-.08.48.05.98-.1,1.4-.17.47-.4.91-.67,1.25"/><path d="M103.82,132.66c-.34-.29-1-.48-1.03-1.04.06-.33.33-.79.29-1.33-.03-.41-.27-.85-.32-1.31-.05-.44.02-.91-.01-1.35-.04-.48-.03-.94,0-1.35.04-.56.12-1.04.37-1.28.3-.3.79-.66,1.24-.66.46,0,.92.4,1.2.7.2.21.18.8.32,1.5.09.47.54.95.6,1.49.06.53-.3,1.1-.27,1.59.03.68-.02,1.21-.05,1.51-.06.49-.03,1.09-.35,1.52-.34.45-.72.57-1.33.34-.31-.12-.47-.18-.64-.32"/><path d="M94.29,98.26c-.44.09-1.04-.02-1.45-.07-.45-.05-.74-.32-1.05-.61-.29-.26-.85-.44-.94-.94-.05-.27.36-.96.35-1.7,0-.54-.39-1.13-.38-1.67.02-.74.42-1.34.48-1.6.13-.57.4-.99.9-1.27.5-.28.98-.4,1.54-.05.33.21.52.58.6,1.15.06.41,0,.88,0,1.39,0,.46.2.93.18,1.4-.02.49-.32.96-.31,1.4,0,.56.36,1.01.49,1.34.11.62-.06.76-.41,1.22"/><path d="M88.06,138.5c.58-.05,1.09-.23,1.36.03.3.28.54.81.61,1.31.06.41-.04.9-.04,1.37,0,.46-.12.92-.1,1.35.02.5.03.96.18,1.32,0,.51.18,1.01.06,1.37-.15.51-.7.68-1,.92-.38.3-.78.75-1.2.65-.4-.09-.58-.67-.86-1.08-.22-.32-.27-.68-.34-1.18-.02-.19-.1-.79-.09-1.53,0-.51-.38-1.07-.36-1.57.02-.74.05-1.4.09-1.6.07-.32.44-.67.69-.98.26-.31.65-.33.99-.37"/><path d="M99.85,90.33c.12.15.14.7.24,1.24.1.51.1,1.03.11,1.25.01.26.31,1,.31,1.75,0,.76.08,1.54.05,1.78-.08.66-.7.89-1.16,1.07-.48.2-1.11.54-1.62.31-.49-.22-.61-.9-.73-1.45-.05-.23-.35-.66-.37-1.24-.01-.4.19-.85.19-1.3,0-.45,0-.89.01-1.29.02-.58-.02-1.05.03-1.28.1-.43.32-.75.67-.98.35-.23.75-.18,1.16-.17.43.02.83-.02,1.11.32"/><path d="M107.06,78.16c.45-.14.86-.21,1.24-.08.38.13.89.32,1.1.76.12.25.08.85.17,1.47.06.44-.16.96-.12,1.45.04.49.23.97.24,1.41.01.63.2,1.19.12,1.45-.17.57-.74.81-1.28.88-.49.07-1.15.12-1.61-.18-.44-.28-.75-.86-.84-1.41-.07-.47-.15-.99-.13-1.51.01-.5,0-1-.02-1.5,0-.51,0-1-.12-1.48.07-.41.83-1.14,1.24-1.26"/><path d="M123.46,84.51c-.21.16-.57.45-1.04.43-.49-.02-1.08-.03-1.26-.15-.23-.15-.19-.75-.35-1.14-.16-.38-.44-.73-.48-1-.05-.36.01-.85.02-1.37.01-.44.03-.9.11-1.36.08-.47.21-.91.37-1.31.2-.47.47-.79.82-.99.56-.32,1.02-.71,1.35-.59.39.14.35.84.5,1.36.12.4.2.83.24,1.31.03.47.04.93.03,1.37-.01.56-.09,1.07-.09,1.38,0,.37.15.79.17,1.19.02.36.04.54-.38.85"/><path d="M112.94,65.95c.18.23.2.7.3,1.34.07.45.52.9.55,1.41.03.51-.14,1.02-.15,1.48,0,.65-.26,1.11-.34,1.38-.14.47-.19,1-.61,1.12-.39.12-.99.13-1.43-.04-.39-.15-.5-.75-.78-1.13-.24-.32-.73-.58-.81-1.07-.04-.25.09-.82.1-1.43.01-.46.19-.95.23-1.4.05-.63,0-1.17.07-1.39.14-.44.71-.9,1.37-.96.63-.06,1.21.32,1.5.7"/><path d="M81.19,146.4c-.23-.23-.34-.84-.44-1.46-.07-.44-.13-.96-.15-1.47-.02-.5.12-1.01.14-1.47.02-.62-.15-1.19-.08-1.49.09-.39.52-.68.85-.97.33-.29.69-.59,1.08-.62.42-.04.79.18,1.03.61.11.19.12.73.19,1.4.05.44.21.92.24,1.42.03.5.16.99.17,1.44.01.65,0,1.21-.05,1.45-.08.5-.47.81-.7,1.1-.3.38-.61.75-1.06.69-.35-.05-.83-.26-1.21-.64"/></svg>