<?xml version="1.0" encoding="UTF-8"?><svg id="Layer_1" xmlns="http://www.w3.org/2000/svg" viewBox="0 0 200 200"><path d="M124.52,119.17c.13-.13-.19-1.03-.55-1.76-.32-.65-.54-1.37-.65-1.59-.22-.43-.5-.84-.72-1.28-.22-.43-.75-.71-.98-1.15-.23-.43-.04-1.09-.27-1.53-.23-.43-.62-.78-.86-1.22-.23-.43-.5-.85-.73-1.28-.23-.43-.54-.83-.77-1.26-.24-.43-.38-.92-.62-1.35-.24-.43-.54-.83-.78-1.26-.24-.43-.51-.85-.75-1.28-.24-.43-.55-.82-.79-1.25-.24-.43-.2-1.02-.44-1.45-.24-.43-.68-.75-.92-1.18-.24-.43-.46-.87-.7-1.3-.24-.43-.31-.96-.55-1.38-.23-.4-.75-.64-.98-1.05-.23-.4-.25-.93-.49-1.33-.23-.4-.34-.88-.58-1.28-.24-.4-.75-.64-.98-1.04-.24-.4-.57-.74-.82-1.14-.24-.4-.38-.85-.63-1.25-.24-.4-.28-.92-.53-1.31-.25-.4-.49-.79-.74-1.18-.25-.39-.75-.62-1-1.02s-.36-.87-.61-1.26c-.25-.39-.39-.86-.64-1.25-.25-.39-.46-.81-.71-1.2s-.66-.75-.91-1.14c-.29.12-.57.67-.96,1.11-.28.31-.78.5-1.07.9-.27.37-.28.93-.53,1.31-.27.4-.52.79-.75,1.16-.3.48-.54.9-.71,1.18-.24.4-.56.75-.79,1.16-.23.4-.59.74-.82,1.15-.22.41-.2.95-.42,1.37-.22.41-.67.7-.89,1.12-.21.42-.5.79-.72,1.22-.21.42-.24.93-.45,1.35-.21.42-.61.75-.81,1.17-.2.42-.2.95-.4,1.37-.2.43-.66.73-.85,1.16-.2.43-.18.96-.38,1.38-.2.43-.3.9-.5,1.32-.2.43-.42.84-.61,1.27-.19.43-.44.83-.63,1.26-.19.43-.28.9-.47,1.32-.19.41-.7.69-.91,1.13-.19.41-.12.96-.32,1.4-.19.42-.72.69-.92,1.12-.2.42-.23.92-.43,1.35-.19.42-.53.79-.72,1.22-.19.43-.22.93-.41,1.36-.19.43-.39.86-.57,1.29-.19.44-.39.86-.57,1.29-.18.44-.41.86-.57,1.28-.17.45-.08.98-.22,1.41-.08.25-.25.26-.19.53.48-.1.89-.18,1.37-.25.48-.07,1,.16,1.49.12.49-.04.96-.4,1.45-.42.49-.01.98.35,1.47.35.49,0,.98-.37,1.47-.37.49,0,.98.13,1.46.13.48,0,.96-.09,1.43-.09.48,0,.95.08,1.43.08.48,0,.96.22,1.44.22.48,0,.96-.15,1.44-.15.48,0,.96-.14,1.44-.14.48,0,.96.13,1.44.13.48,0,.96-.05,1.44-.05.48,0,.96.19,1.44.19.48,0,.96-.08,1.44-.08.48,0,.96-.02,1.44-.02.49,0,.98.16,1.47.16.49,0,.98.02,1.47.03.49.01.98.17,1.47.18.49.01.98.04,1.47.05.49.01.98-.06,1.47-.05.49.01.99-.14,1.48-.12.49.02.98.08,1.47.09.49.01.97.21,1.47.22.49.01.99-.16,1.48-.15.49.01.98.2,1.47.21.49,0,1.01.02,1.5.02M115.49,58.92c.04.06.06.33.2.54.26.38,1.14.79.9,1.45-.33.64-.31.64-.68,1.25-.37.61-.08.79-.45,1.4-.37.62-.78.37-1.15.99-.37.61-.21.71-.58,1.32-.37.62-.34.63-.71,1.25-.37.62-.3.65-.67,1.27-.37.61-.46.56-.83,1.17-.37.62-.31.65-.68,1.27-.37.62-.34.63-.71,1.25-.37.62-.3.66-.67,1.28-.37.62-.65.45-1.02,1.07-.37.62-.18.73-.55,1.35-.37.62-.39.61-.76,1.22-.37.62-.54.52-.91,1.14-.37.62-.24.68-.44,1.38.28.39.33.79.6,1.18.27.39.42.87.69,1.26.27.39.8.61,1.07,1,.27.39.63.73.89,1.12s.43.86.69,1.26c.26.4.32.93.58,1.33s.51.8.77,1.2c.26.4.76.65,1.02,1.05.25.4.36.9.61,1.31.25.41.38.88.62,1.29.25.41.44.85.68,1.26.24.41.59.76.82,1.17.24.41.73.68.96,1.1.24.42.23.99.47,1.41.24.43.75.7.99,1.12.24.43.47.85.71,1.28.23.43.48.85.71,1.28.23.43.38.9.62,1.33.23.43.34.93.57,1.35.23.43.71.72.94,1.15.23.43.23.98.46,1.41.23.43.38.9.61,1.33.23.43.63.76.86,1.19.23.43.27.96.49,1.39.23.43.66.75.89,1.19.23.43.2.99.43,1.43.23.43.66.75.89,1.18.23.43.54.82.77,1.25.23.43.42.88.65,1.31.23.43.4.89.63,1.32.23.43.55.81.78,1.24.23.43.14,1.03.36,1.46.23.43.71.73.94,1.16.23.43.13,1.03.36,1.46.23.43.61.78.84,1.21.23.43.32.93.55,1.36.23.43.62.78.85,1.21.23.43.45.87.68,1.3.23.43.43.87.66,1.3s.4.89.63,1.32c.23.43.69.74.92,1.16.21.39.47.78.74,1.21.24.39.49.8.76,1.21.26.4.29.95.55,1.35.26.41.81.63,1.05,1.03.26.42.19,1.02.41,1.42.25.46.8.73.96,1.13.21.54.26,1.13.16,1.72-.31.3-.7.67-1.08.79-.41.13-.93.08-1.32-.05-.36-.12-.58-.53-.85-.92-.38-.63-.5-.56-.86-1.2-.36-.64-.49-.57-.85-1.21-.36-.64-.25-.7-.61-1.34-.36-.64-.41-.61-.77-1.26-.36-.64-.2-.73-.56-1.37-.36-.64-.44-.6-.8-1.24-.36-.64-.39-.63-.75-1.27-.36-.64-.23-.71-.59-1.35-.36-.64-.36-.64-.72-1.29-.36-.64-.24-.71-.6-1.36s-.35-.65-.72-1.29c-.36-.64-.44-.6-.81-1.24-.36-.64-.51-.56-.87-1.21-.36-.64-.17-.78-.68-1.31-.48.03-.96-.12-1.44-.09-.48.02-.95.24-1.42.25-.48.02-.96-.14-1.44-.13-.48.01-.95.31-1.43.32-.48,0-.96.07-1.43.07-.48,0-.96-.1-1.44-.1-.48,0-.96-.29-1.43-.3-.48,0-.96.28-1.44.28-.49,0-.98.02-1.47.02-.49,0-.98-.13-1.47-.14-.49,0-.98.08-1.47.07-.49,0-.98.06-1.47.05-.49,0-.98-.28-1.47-.28-.49,0-.99.33-1.48.32-.49,0-.98.02-1.47,0-.49,0-.98-.34-1.47-.35-.49,0-.99.29-1.48.29-.49,0-.98-.36-1.47-.37-.49,0-.98-.02-1.47-.03-.49,0-.99.21-1.48.21-.49,0-.98-.12-1.47-.12-.49,0-.98-.15-1.47-.15-.5,0-.99.32-1.48.32-.49,0-.99-.4-1.48-.4-.49,0-.99.13-1.48.13-.49,0-.99.23-1.48.23-.49,0-.99.06-1.48.06-.49,0-.99-.12-1.48-.12-.49,0-.99-.18-1.48-.19-.49,0-.99,0-1.48,0-.49,0-.99-.16-1.48-.17-.49,0-.99.11-1.48.11-.49,0-.99.03-1.48.02-.49,0-.99-.07-1.48-.07-.49,0-.99.07-1.48.06-.49,0-.98-.18-1.48-.19-.49,0-1,.35-1.49.34-.49-.01-.99.03-1.49.01-.47-.01-.92-.37-1.39-.38-.47,0-.94.2-1.4.2-.47,0-.93,0-1.4,0-.47,0-.93,0-1.4-.01-.47,0-.94.13-1.4.11-.47-.01-.93-.22-1.39-.24-.47-.02-.97.15-1.43.12-.33-.09-.3-1.04-.35-1.75-.04-.68-.07-1.3.16-1.54.28-.25.73-.24,1.33-.23.47.01.98-.06,1.46,0,.57.08,1.1.03,1.45.04.46.01.91-.03,1.37-.02.46,0,.91.04,1.37.04.46,0,.91.14,1.37.13.46,0,.91-.01,1.37-.02.46,0,.91-.09,1.37-.09.46,0,.91.05,1.37.04.46,0,.91-.12,1.37-.13.46,0,.91.11,1.37.11.46,0,.91.06,1.37.06.46,0,.92-.21,1.37-.2.35,0,.88.54,1.42.6.59.07,1.11-.2,1.37-.46.22-.43.37-.88.58-1.31.21-.43.53-.81.74-1.25.21-.44.53-.82.74-1.25.2-.44.19-.98.39-1.42.2-.44.29-.93.49-1.37.2-.44.67-.76.86-1.2s.54-.82.73-1.26c.19-.44-.03-1.07.16-1.51.19-.44.61-.79.81-1.23.19-.44.35-.9.55-1.34.19-.44.39-.88.58-1.33.19-.44.43-.86.63-1.3.2-.44.19-.98.39-1.41.2-.44.78-.71.98-1.15.2-.44.26-.94.47-1.38s.31-.92.52-1.36c.21-.43.28-.94.49-1.37.21-.43.54-.79.75-1.2.22-.42.47-.82.68-1.23.22-.42.35-.88.58-1.29.23-.42.42-.85.64-1.26.23-.41.83-.61,1.07-1.01.24-.41.35-.89.59-1.28.24-.4.41-.85.65-1.25.25-.4.7-.67.95-1.06.25-.39.15-1.01.41-1.4.26-.39.52-.78.78-1.17.26-.39.56-.75.82-1.14.26-.38.79-.59,1.05-.98.26-.38.34-.9.6-1.29.26-.38.64-.69.91-1.08.26-.38.4-.85.67-1.25.26-.38.43-.83.7-1.23.27-.4.56-.79.83-1.2.26-.41.68-.71.94-1.12.26-.41.48-.85.74-1.26.25-.41.62-.76.87-1.18.25-.42.59-.78.84-1.2.25-.42.26-.97.51-1.39.25-.42.66-.74.9-1.17.24-.42.54-.81.78-1.24.24-.42.11-1.06.35-1.48.24-.42.47-.85.72-1.27.24-.42.49-.85.73-1.27.24-.42.81-.66,1.05-1.08.25-.42.42-.88.66-1.3.24-.42.38-.9.62-1.32.13-.33,1.78-.62,1.84-.53"/></svg>