<?xml version="1.0" encoding="UTF-8"?><svg id="Layer_1" xmlns="http://www.w3.org/2000/svg" viewBox="0 0 200 200"><path d="M139.9,99.6c.86.17.42,1.11,1.23,1.46.44-.33,1.05-.97,1.54-.94.51.03,1.13.34,1.51.68.35.33.75.91.82,1.45.09.69-.35,1.33-.69,1.75-.38.47-.98.8-1.57.87-.59.07-1.13-.24-1.59-.64-.39-.34-.76-.76-.83-1.48-.06-.6.43-1.08.4-1.41-.03-.35-1.13-.97-.82-1.76"/><path d="M139.9,99.6c.86.17.42,1.11,1.23,1.46.44-.33,1.05-.97,1.54-.94.51.03,1.13.34,1.51.68.35.33.75.91.82,1.45.09.69-.35,1.33-.69,1.75-.38.47-.98.8-1.57.87-.59.07-1.13-.24-1.59-.64-.39-.34-.76-.76-.83-1.48-.06-.6.43-1.08.4-1.41-.03-.35-1.13-.97-.82-1.76"/><path d="M93.87,103.75c-.48.39-1,.53-1.59.49-.6-.04-.98-.39-1.39-.82-.38-.4-.74-.75-.71-1.44.03-.78.19-1.3.53-1.63.43-.41,1.02-.35,1.63-.23.56.12,1.24.17,1.68.57.47.43.51,1.07.53,1.63.02.51-.09.94-.68,1.41"/><path d="M93.87,103.75c-.48.39-1,.53-1.59.49-.6-.04-.98-.39-1.39-.82-.38-.4-.74-.75-.71-1.44.03-.78.19-1.3.53-1.63.43-.41,1.02-.35,1.63-.23.56.12,1.24.17,1.68.57.47.43.51,1.07.53,1.63.02.51-.09.94-.68,1.41"/><path d="M124.35,100.18c.54.44,1.09.8,1.22,1.27.17.6-.18,1.21-.48,1.68-.3.5-.81.67-1.36.84-.54.17-.9.13-1.43-.22-.4-.26-.94-.45-1.22-1.1-.26-.61-.24-1.31.08-1.84.31-.53.93-.91,1.51-1.08.57-.17,1.14,0,1.68.45"/><path d="M124.35,100.18c.54.44,1.09.8,1.22,1.27.17.6-.18,1.21-.48,1.68-.3.5-.81.67-1.36.84-.54.17-.9.13-1.43-.22-.4-.26-.94-.45-1.22-1.1-.26-.61-.24-1.31.08-1.84.31-.53.93-.91,1.51-1.08.57-.17,1.14,0,1.68.45"/><path d="M118.64,100.43c.47.48.74,1,.7,1.54-.04.57-.54.95-.97,1.36-.42.4-.81.93-1.39.94-.52,0-1.18-.16-1.67-.64-.53-.52-.48-1.18-.48-1.69,0-.6.16-1.15.62-1.55.44-.38,1.03-.66,1.63-.67.56-.01,1.1.25,1.57.72"/><path d="M118.64,100.43c.47.48.74,1,.7,1.54-.04.57-.54.95-.97,1.36-.42.4-.81.93-1.39.94-.52,0-1.18-.16-1.67-.64-.53-.52-.48-1.18-.48-1.69,0-.6.16-1.15.62-1.55.44-.38,1.03-.66,1.63-.67.56-.01,1.1.25,1.57.72"/><path d="M112.79,101.82c0,.61-.15,1.03-.55,1.43-.4.4-.82.86-1.43.86s-1.32-.18-1.72-.58c-.4-.4-.61-1.11-.61-1.72s.21-1.32.61-1.72c.4-.4,1.11-.77,1.72-.77s1.2.49,1.6.89c.4.4.38.99.38,1.6"/><path d="M112.79,101.82c0,.61-.15,1.03-.55,1.43-.4.4-.82.86-1.43.86s-1.32-.18-1.72-.58c-.4-.4-.61-1.11-.61-1.72s.21-1.32.61-1.72c.4-.4,1.11-.77,1.72-.77s1.2.49,1.6.89c.4.4.38.99.38,1.6"/><path d="M106.26,102.1c0,.61.06,1.18-.34,1.58-.4.4-.97.92-1.58.92s-1.3-.4-1.7-.8c-.4-.4-.37-1.1-.37-1.7s.26-1.02.65-1.42c.4-.4.81-.58,1.42-.58s1.27-.06,1.67.34c.4.4.25,1.06.25,1.67"/><path d="M106.26,102.1c0,.61.06,1.18-.34,1.58-.4.4-.97.92-1.58.92s-1.3-.4-1.7-.8c-.4-.4-.37-1.1-.37-1.7s.26-1.02.65-1.42c.4-.4.81-.58,1.42-.58s1.27-.06,1.67.34c.4.4.25,1.06.25,1.67"/><path d="M100.91,97.58c0,.6-.15.97-.54,1.37-.4.4-.76,1.06-1.37,1.06s-1.07-.57-1.47-.96c-.39-.4-.91-.87-.91-1.47s.32-1.27.71-1.67c.4-.4,1.06-.81,1.67-.81s1.18.51,1.57.91c.4.39.34.97.34,1.57"/><path d="M100.91,97.58c0,.6-.15.97-.54,1.37-.4.4-.76,1.06-1.37,1.06s-1.07-.57-1.47-.96c-.39-.4-.91-.87-.91-1.47s.32-1.27.71-1.67c.4-.4,1.06-.81,1.67-.81s1.18.51,1.57.91c.4.39.34.97.34,1.57"/><path d="M66.81,100.93c0,.6-.53,1.07-.92,1.47-.4.4-.86.73-1.47.73s-1-.41-1.4-.8c-.4-.4-.52-.79-.52-1.4s.19-.94.58-1.33c.4-.4.73-.89,1.34-.89s1.35.08,1.75.48c.4.4.65,1.14.65,1.75"/><path d="M66.81,100.93c0,.6-.53,1.07-.92,1.47-.4.4-.86.73-1.47.73s-1-.41-1.4-.8c-.4-.4-.52-.79-.52-1.4s.19-.94.58-1.33c.4-.4.73-.89,1.34-.89s1.35.08,1.75.48c.4.4.65,1.14.65,1.75"/><path d="M84.69,99.76c.8-.24,1.37-.42,1.87-.08.56.38,1,1.01,1.11,1.68.12.7.11,1.63-.33,2.11-.39.42-1.22.51-2.09.36-.74-.13-.99-.73-1.3-1.24-.34-.56-.38-1.04-.24-1.65.15-.66.35-.99.98-1.18"/><path d="M84.69,99.76c.8-.24,1.37-.42,1.87-.08.56.38,1,1.01,1.11,1.68.12.7.11,1.63-.33,2.11-.39.42-1.22.51-2.09.36-.74-.13-.99-.73-1.3-1.24-.34-.56-.38-1.04-.24-1.65.15-.66.35-.99.98-1.18"/><path d="M131.71,102.24c0,.6-.65.95-1.04,1.34-.39.39-.74.7-1.34.7s-1.12-.13-1.51-.52c-.39-.39-.86-.91-.86-1.51s.46-1.12.86-1.52c.39-.39.92-.52,1.52-.52s1.06.19,1.45.58c.39.39.93.85.93,1.45"/><path d="M131.71,102.24c0,.6-.65.95-1.04,1.34-.39.39-.74.7-1.34.7s-1.12-.13-1.51-.52c-.39-.39-.86-.91-.86-1.51s.46-1.12.86-1.52c.39-.39.92-.52,1.52-.52s1.06.19,1.45.58c.39.39.93.85.93,1.45"/><path d="M70.44,103.06c-.19-.15-.67-1.14-.7-1.44-.08-.71-.1-1.25.2-1.59.36-.41.96-.55,1.55-.53.54.02,1.1.23,1.55.53.48.32.86.77.95,1.31.08.46.1,1.09-.3,1.66-.29.41-1.07.44-1.72.49-.66.06-1.17-.14-1.53-.43"/><path d="M70.44,103.06c-.19-.15-.67-1.14-.7-1.44-.08-.71-.1-1.25.2-1.59.36-.41.96-.55,1.55-.53.54.02,1.1.23,1.55.53.48.32.86.77.95,1.31.08.46.1,1.09-.3,1.66-.29.41-1.07.44-1.72.49-.66.06-1.17-.14-1.53-.43"/><path d="M138.15,102.47c0,.58-.28,1.11-.66,1.49-.38.38-.91.93-1.49.93s-1.05-.6-1.43-.98c-.38-.38-.66-.85-.66-1.43s.02-1.31.4-1.69c.38-.38,1.11-.42,1.69-.42s1.14.2,1.53.59.62.94.62,1.53"/><path d="M138.15,102.47c0,.58-.28,1.11-.66,1.49-.38.38-.91.93-1.49.93s-1.05-.6-1.43-.98c-.38-.38-.66-.85-.66-1.43s.02-1.31.4-1.69c.38-.38,1.11-.42,1.69-.42s1.14.2,1.53.59.62.94.62,1.53"/><path d="M77.04,102.82c-.48-.46-1.03-.85-1.04-1.36-.01-.57.34-1.22.73-1.63.39-.4,1.02-.51,1.6-.52.5-.02,1.08.03,1.59.46.51.43.56,1,.54,1.5-.02.54-.04,1.21-.44,1.62-.39.4-1.07.42-1.61.47-.51.05-.92-.11-1.38-.55"/><path d="M77.04,102.82c-.48-.46-1.03-.85-1.04-1.36-.01-.57.34-1.22.73-1.63.39-.4,1.02-.51,1.6-.52.5-.02,1.08.03,1.59.46.51.43.56,1,.54,1.5-.02.54-.04,1.21-.44,1.62-.39.4-1.07.42-1.61.47-.51.05-.92-.11-1.38-.55"/><path d="M58.97,100.39c.39.5.66,1.05.59,1.54-.07.54-.67.83-1.1,1.16-.43.33-.86.9-1.41.83-.47-.06-1.03-.44-1.43-.94-.42-.51-.66-1.18-.62-1.7.05-.59.72-.89,1.15-1.25.44-.36.84-.81,1.44-.65.46.12.93.46,1.38,1.02"/><path d="M58.97,100.39c.39.5.66,1.05.59,1.54-.07.54-.67.83-1.1,1.16-.43.33-.86.9-1.41.83-.47-.06-1.03-.44-1.43-.94-.42-.51-.66-1.18-.62-1.7.05-.59.72-.89,1.15-1.25.44-.36.84-.81,1.44-.65.46.12.93.46,1.38,1.02"/><path d="M139.9,99.6c.86.17.42,1.11,1.23,1.46.44-.33,1.05-.97,1.54-.94.51.03,1.13.34,1.51.68.35.33.75.91.82,1.45.09.69-.35,1.33-.69,1.75-.38.47-.98.8-1.57.87-.59.07-1.13-.24-1.59-.64-.39-.34-.76-.76-.83-1.48-.06-.6.43-1.08.4-1.41-.03-.35-1.13-.97-.82-1.76"/><path d="M93.87,103.75c-.48.39-1,.53-1.59.49-.6-.04-.98-.39-1.39-.82-.38-.4-.74-.75-.71-1.44.03-.78.19-1.3.53-1.63.43-.41,1.02-.35,1.63-.23.56.12,1.24.17,1.68.57.47.43.51,1.07.53,1.63.02.51-.09.94-.68,1.41"/><path d="M124.35,100.18c.54.44,1.09.8,1.22,1.27.17.6-.18,1.21-.48,1.68-.3.5-.81.67-1.36.84-.54.17-.9.13-1.43-.22-.4-.26-.94-.45-1.22-1.1-.26-.61-.24-1.31.08-1.84.31-.53.93-.91,1.51-1.08.57-.17,1.14,0,1.68.45"/><path d="M118.64,100.43c.47.48.74,1,.7,1.54-.04.57-.54.95-.97,1.36-.42.4-.81.93-1.39.94-.52,0-1.18-.16-1.67-.64-.53-.52-.48-1.18-.48-1.69,0-.6.16-1.15.62-1.55.44-.38,1.03-.66,1.63-.67.56-.01,1.1.25,1.57.72"/><path d="M112.79,101.82c0,.61-.15,1.03-.55,1.43-.4.4-.82.86-1.43.86s-1.32-.18-1.72-.58c-.4-.4-.61-1.11-.61-1.72s.21-1.32.61-1.72c.4-.4,1.11-.77,1.72-.77s1.2.49,1.6.89c.4.4.38.99.38,1.6"/><path d="M106.26,102.1c0,.61.06,1.18-.34,1.58-.4.4-.97.92-1.58.92s-1.3-.4-1.7-.8c-.4-.4-.37-1.1-.37-1.7s.26-1.02.65-1.42c.4-.4.81-.58,1.42-.58s1.27-.06,1.67.34c.4.4.25,1.06.25,1.67"/><path d="M100.91,97.58c0,.6-.15.97-.54,1.37-.4.4-.76,1.06-1.37,1.06s-1.07-.57-1.47-.96c-.39-.4-.91-.87-.91-1.47s.32-1.27.71-1.67c.4-.4,1.06-.81,1.67-.81s1.18.51,1.57.91c.4.39.34.97.34,1.57"/><path d="M66.81,100.93c0,.6-.53,1.07-.92,1.47-.4.4-.86.73-1.47.73s-1-.41-1.4-.8c-.4-.4-.52-.79-.52-1.4s.19-.94.58-1.33c.4-.4.73-.89,1.34-.89s1.35.08,1.75.48c.4.4.65,1.14.65,1.75"/><path d="M84.69,99.76c.8-.24,1.37-.42,1.87-.08.56.38,1,1.01,1.11,1.68.12.7.11,1.63-.33,2.11-.39.42-1.22.51-2.09.36-.74-.13-.99-.73-1.3-1.24-.34-.56-.38-1.04-.24-1.65.15-.66.35-.99.98-1.18"/><path d="M131.71,102.24c0,.6-.65.95-1.04,1.34-.39.39-.74.7-1.34.7s-1.12-.13-1.51-.52c-.39-.39-.86-.91-.86-1.51s.46-1.12.86-1.52c.39-.39.92-.52,1.52-.52s1.06.19,1.45.58c.39.39.93.85.93,1.45"/><path d="M70.44,103.06c-.19-.15-.67-1.14-.7-1.44-.08-.71-.1-1.25.2-1.59.36-.41.96-.55,1.55-.53.54.02,1.1.23,1.55.53.48.32.86.77.95,1.31.08.46.1,1.09-.3,1.66-.29.41-1.07.44-1.72.49-.66.06-1.17-.14-1.53-.43"/><path d="M138.15,102.47c0,.58-.28,1.11-.66,1.49-.38.38-.91.93-1.49.93s-1.05-.6-1.43-.98c-.38-.38-.66-.85-.66-1.43s.02-1.31.4-1.69c.38-.38,1.11-.42,1.69-.42s1.14.2,1.53.59.62.94.62,1.53"/><path d="M77.04,102.82c-.48-.46-1.03-.85-1.04-1.36-.01-.57.34-1.22.73-1.63.39-.4,1.02-.51,1.6-.52.5-.02,1.08.03,1.59.46.51.43.56,1,.54,1.5-.02.54-.04,1.21-.44,1.62-.39.4-1.07.42-1.61.47-.51.05-.92-.11-1.38-.55"/><path d="M58.97,100.39c.39.5.66,1.05.59,1.54-.07.54-.67.83-1.1,1.16-.43.33-.86.9-1.41.83-.47-.06-1.03-.44-1.43-.94-.42-.51-.66-1.18-.62-1.7.05-.59.72-.89,1.15-1.25.44-.36.84-.81,1.44-.65.46.12.93.46,1.38,1.02"/></svg>