<?xml version="1.0" encoding="UTF-8"?><svg id="Layer_1" xmlns="http://www.w3.org/2000/svg" viewBox="0 0 200 200"><path d="M102.9,97.51c.25.22.5.43.64.67.16.28.11.61.15.91.05.3.07.58.01.89-.06.3-.08.61-.22.89-.13.27-.19.62-.38.87-.19.24-.64.23-.87.44-.23.2-.38.49-.65.65-.27.16-.5.41-.79.51-.3.1-.63.13-.93.16-.31.03-.61-.12-.92-.18-.29-.06-.6-.12-.88-.27-.25-.14-.63-.2-.86-.44-.23-.24-.15-.69-.29-.94-.16-.28-.58-.46-.63-.75-.05-.31.01-.67.06-.97.05-.3.18-.61.32-.89.13-.27.35-.52.54-.76.19-.24.44-.42.68-.62.24-.2.48-.38.75-.53.27-.15.53-.34.82-.43.29-.09.62.03.93.01.31-.02.63-.27.94-.21.29.06.6.21.88.35.26.13.45.42.69.63"/></svg>