<?xml version="1.0" encoding="UTF-8"?><svg id="Layer_1" xmlns="http://www.w3.org/2000/svg" viewBox="0 0 200 200"><path d="M94.36,145.16c.42.47,1.01.8,1.46,1.24.45.45,1.07.7,1.55,1.12.47.42.83,1.26,1.32,1.65.46-.51,1.14-1.08,1.57-1.64.42-.55.38-1.42.76-2.01.37-.58.63-1.21.95-1.82s.82-1.13,1.08-1.77c.26-.64.48-1.3.66-1.96.18-.67.56-1.31.66-1.99.1-.69.25-1.4.25-2.1,0-.69-.44-1.36-.55-2.05-.1-.66-.22-1.31-.45-1.94-.23-.62-.44-1.27-.76-1.86-.32-.58-.72-1.12-1.11-1.68-.38-.55-.78-1.09-1.2-1.62-.42-.53-.6-1.27-1.03-1.77-.45-.51-.95-.97-1.39-1.46-.46-.51-.92-1.12-1.34-1.6-.42-.1-1.84,1.94-2.19,2.37-.46.57-1.09.98-1.49,1.53-.42.6-.89,1.16-1.23,1.75-.37.63-.16,1.53-.44,2.15-.3.66-.76,1.22-.95,1.87-.21.69-.29,1.38-.37,2.06-.08.7-.39,1.4-.34,2.11.05.69.14,1.42.32,2.12.17.66.37,1.37.67,2.04.27.62.8,1.16,1.18,1.78.35.58.68,1.21,1.13,1.79.41.54.82,1.13,1.31,1.68M96.89,96.96c-.4.56-.74,1.33-1.14,1.92-.39.58-.58,1.3-.94,1.9-.37.61-1.15.98-1.47,1.6-.33.64-.73,1.26-.98,1.91-.27.67.02,1.51-.14,2.18-.17.7-.17,1.36-.19,2.06-.02.71-.19,1.39-.02,2.08.16.66.42,1.31.79,1.94.33.57.58,1.29,1.09,1.84.45.47,1.12,1.1,1.74,1.54.5-.44.98-1.31,1.54-1.86.5-.49,1.05-.98,1.55-1.55.48-.55,1.01-1.07,1.45-1.66.44-.6.8-1.25,1.15-1.88.37-.66.68-1.33.9-2,.24-.72.72-1.45.72-2.16,0-.52-.3-1.29-.64-1.98-.26-.54-.57-1.19-.96-1.75-.37-.53-1.06-.85-1.49-1.34-.44-.52-.72-1.19-1.17-1.6-.56-.52-1.33-.93-1.78-1.18M98.37,71.26c-.51.41-1.01,1.04-1.51,1.49-.49.44-.8,1.07-1.26,1.55-.46.48-1.28.65-1.7,1.15-.43.52-.93,1.01-1.3,1.55-.38.56-.28,1.41-.59,1.98-.32.6-.49,1.21-.7,1.83-.22.65-.59,1.21-.66,1.86-.07.67-.05,1.32.07,1.97.11.64.11,1.36.42,1.97.29.56.62,1.21,1.09,1.74.41.46,1.18.64,1.74,1.07.49.38.98.78,1.6,1.14.42-.48.89-.93,1.31-1.48.4-.51.76-1.09,1.15-1.64.38-.54.76-1.1,1.11-1.67.35-.57.99-1,1.29-1.6.31-.6.53-1.27.77-1.89.25-.64.53-1.3.68-1.93.16-.67-.08-1.41-.05-2.06.03-.68.25-1.39.12-2.05-.13-.65-.3-1.38-.61-1.99-.3-.57-1.17-.77-1.65-1.29-.43-.46-.73-1.28-1.32-1.69M94.11,46.79c-.5.49-.81,1.14-1.21,1.65-.43.56-.59,1.23-.89,1.8-.33.62-1.04,1.05-1.23,1.68-.2.66-.43,1.37-.48,2.03-.05.68.5,1.35.6,2.01.1.66.35,1.24.59,1.88.24.62.32,1.3.69,1.88.35.56.76,1.08,1.22,1.6.44.49.78,1.13,1.31,1.57.51.42,1.03.91,1.62,1.27.56.35,1.29.32,1.92.61.47-.5.95-.97,1.43-1.55.46-.55.96-1.09,1.36-1.69.4-.61.7-1.28.97-1.94.28-.68.48-1.38.55-2.09.07-.72.38-1.47.24-2.11-.14-.68-.48-1.37-.8-1.97-.31-.59-.68-1.25-1.12-1.78-.43-.52-1.18-.79-1.68-1.26-.49-.47-.84-1.12-1.37-1.55-.53-.44-1.01-.94-1.53-1.36-.54-.45-1.44-.41-1.93-.85-.25-.11-.07-.01-.28.18M97.63,43.54c.52.32,1.24.8,1.81,1.23.51.38,1.19.62,1.71,1.07.5.42.66,1.24,1.14,1.71.48.46.86,1,1.3,1.5.44.5,1.27.69,1.66,1.22.4.55.86,1.09,1.17,1.66.34.6.41,1.33.62,1.94.22.65.37,1.32.4,1.96.04.65-.22,1.28-.3,1.92-.08.64-.3,1.22-.48,1.84-.18.62-.03,1.35-.29,1.94-.26.59-.61,1.15-.94,1.71-.32.56-.74,1.06-1.11,1.59-.37.53-.72,1.08-1.12,1.58-.41.51-.84,1-1.27,1.47-.03.15.37,1.22,1.05,2.09.6.76,1.25,1.45,1.44,1.76.36.62.58,1.22.82,1.83.26.66.78,1.19.91,1.84.14.68-.05,1.37-.04,2.05.01.69-.11,1.32-.21,2-.09.67.36,1.46.17,2.13-.18.65-.62,1.24-.88,1.89-.24.63-.47,1.28-.77,1.91-.29.61-.86,1.09-1.19,1.7-.2.38-.73,1.06-1.31,1.87-.45.61-.97,1.25-1.4,1.85-.68.95-1.06,1.9-1.06,2.08,0,.3.43.91,1.04,1.48.42.39.98.72,1.44,1.1.56.47.81,1.12,1.07,1.42.49.56,1.17.91,1.55,1.46.43.61.74,1.24,1.05,1.84.34.66.43,1.36.64,2,.22.7.68,1.31.76,1.99.08.72-.08,1.42-.15,2.12-.07.7-.23,1.37-.43,2.06-.19.67-.5,1.28-.81,1.93-.3.63-.42,1.36-.81,1.97-.37.58-.71,1.22-1.16,1.79-.42.55-1.23.78-1.72,1.32-.47.52-.94,1.02-1.45,1.53-.5.49-1.05,1.19-1.58,1.68.45.54,1.34.98,1.81,1.53.46.54.74,1.25,1.2,1.79.46.54.78,1.2,1.23,1.76.45.56.98,1.04,1.41,1.61.43.58,1.03,1.03,1.41,1.63.39.6.73,1.24,1.06,1.88.33.64.54,1.33.79,2,.25.67.78,1.28.93,1.98.16.69-.31,1.48-.26,2.21.05.69.07,1.37,0,2.1-.06.67.05,1.35-.08,1.99-.13.66,0,1.38-.19,2.02-.19.64-.74,1.16-.99,1.78-.24.62-.2,1.37-.49,1.97-.29.6-.78,1.1-1.11,1.69-.33.58-.96.97-1.32,1.53-.36.56-.56,1.22-.94,1.77-.38.54-.57,1.19-.97,1.72.04.25.53.97,1.45,1.71.59.47,1.32.92,1.94,1.38.85.63,1.73,1.01,2.03,1.24.54.41.96,1.12,1.61,1.56.59.4,1.46.45,2.09.86.62.41,1.14.98,1.74,1.39.64.43,1.42.62,1.99,1.04.65.47,1.13,1.11,1.61,1.55.65.59,1.46,1.79,1.41,2.69-.31.68-1.07,1.32-1.76,1.55-.68.23-1.66.19-2.32-.13-.86-.55-.6-.94-1.43-1.53-.83-.6-.82-.61-1.66-1.2-.83-.59-1.09-.23-1.92-.82-.83-.6-.72-.76-1.55-1.35-.83-.6-.93-.46-1.76-1.06-.83-.59-.92-.48-1.75-1.07-.83-.6-.73-.75-1.56-1.34-.84-.6-.7-.79-1.54-1.39-.84-.6-.67-.92-1.7-.86-1,.05-.96.18-1.69.86-.73.69-.69.73-1.42,1.42-.73.68-.77.64-1.5,1.33-.73.69-.49.95-1.22,1.63-.73.68-.87.53-1.6,1.21-.73.69-.69.74-1.42,1.42-.73.69-.54.89-1.28,1.58-.74.69-.79.63-1.53,1.32-.74.69-.53,1.05-1.42,1.53-.31.17.25-.53-.06-.7-.79.35-1.5.05-2.15-.15-.71-.22-1.27-.69-.91-1.82.58-.82.78-.67,1.49-1.39.71-.71.65-.77,1.37-1.49.71-.71.99-.44,1.7-1.15.71-.71.29-1.14,1-1.85.71-.71,1.13-.29,1.84-1,.72-.72.55-.88,1.27-1.59.72-.72.78-.65,1.5-1.36.72-.72.54-.9,1.25-1.62.72-.72,1.01-.47,1.43-1.39-.56-.46-1.17-.71-1.7-1.17-.54-.47-.97-1.08-1.49-1.57-.53-.5-.77-1.26-1.26-1.77-.5-.52-.97-1.04-1.42-1.58-.46-.56-.86-1.12-1.27-1.7-.41-.59-1.34-.86-1.68-1.49-.34-.63-.19-1.5-.46-2.17-.26-.66-.33-1.36-.51-2.06-.17-.68-.6-1.3-.68-2.03-.08-.69-.02-1.4-.01-2.14,0-.69-.05-1.4.03-2.14.08-.67.19-1.31.35-1.94.17-.64.53-1.21.77-1.82.25-.61.28-1.32.59-1.9.31-.58.5-1.25.85-1.81.35-.56.75-1.1,1.13-1.64.38-.54,1.02-.9,1.41-1.43.39-.53.64-1.17,1.03-1.7.4-.53.69-.97,1.07-1.5-.53-.57-.8-1.19-1.32-1.72-.54-.54-1.2-.95-1.67-1.54-.46-.57-.78-1.26-1.13-1.97-.33-.66-.38-1.37-.58-1.99-.23-.69-.72-1.27-.81-1.93-.1-.71.25-1.4.29-2.08.04-.7-.35-1.45-.19-2.12.16-.67.37-1.37.62-2.02.25-.64.82-1.15,1.14-1.78.31-.61.76-1.15,1.12-1.75.35-.59.61-1.24.99-1.83.36-.58.4-1.38.77-1.97.37-.59.77-.99,1.12-1.59-.48-.4-.9-.69-1.41-1.11-.5-.41-.71-1.17-1.2-1.61-.49-.44-1.24-.6-1.68-1.08-.45-.48-1.03-.9-1.4-1.43-.38-.54-.27-1.36-.53-1.96-.25-.59-.36-1.18-.45-1.85-.1-.71-.04-1.36-.04-2.02,0-.71-.46-1.41-.37-2.06.09-.69.05-1.44.23-2.08.19-.66,1.07-1.07,1.35-1.69.28-.62.13-1.47.49-2.05.35-.58,1.03-.95,1.45-1.49.41-.54.68-1.2,1.14-1.72.45-.51.93-.99,1.41-1.49.47-.49,1.13-.79,1.63-1.27.49-.47.54-1.04,1.04-1.51-.59-.36-1.04-.52-1.57-.92-.56-.42-.89-1.11-1.39-1.56-.51-.47-.92-1.02-1.36-1.53-.46-.52-.82-1.09-1.19-1.64-.39-.57-.57-1.22-.88-1.82-.31-.62-1.09-1.02-1.31-1.66-.22-.65-.19-1.38-.31-2.05-.12-.67.15-1.36.13-2.04-.02-.68-.32-1.35-.24-2.03.08-.67.45-1.27.63-1.94.17-.65-.02-1.42.25-2.07.26-.62.64-1.2.99-1.81.33-.58.62-1.22,1.03-1.79.39-.54.73-1.11,1.2-1.64-.03-.14-.29-.62-1.09-1.23-.46-.35-1.25-.39-1.79-.79-.53-.39-.93-.96-1.41-1.3-.7-.51-1.11-1.13-1.35-1.34-.43-.38-.89-.81-1.35-1.26-.46-.45-1.25-.65-1.54-1.14-.35-.58-.62-1.41-.42-1.99.16-.46.91-.67,1.6-1.1.47-.11,1.08-.13,1.8.26.5.27,1.08.59,1.65,1,.49.36.92.86,1.44,1.27.5.39,1.16.61,1.65,1.01.51.42.79,1.1,1.28,1.48.54.43,1.31.47,1.79.79.65.44,1.06.85,1.53.96.37-.04.88-.5,1.58-1.15.5-.46,1.28-.74,1.76-1.24.62-.63.9-1.49,1.23-1.77.29-.25.82-.67,1.43-1.18.44-.37,1.16-.51,1.66-.9.51-.4.95-.87,1.41-1.2.71-.5,1.27-.91,1.57-.91.96-.02,1.82.4,2.16,1.07.34.67.4,1.8-.23,2.59-.72.72-.96.48-1.71,1.17-.75.68-.76.67-1.51,1.35-.76.69-.88.54-1.64,1.23-.76.69-.86.57-1.62,1.26-.76.69-.44,1.05-1.29,1.62-.9.6-1.16.4-1.68,1.29"/><path d="M94.36,145.16c.42.47,1.01.8,1.46,1.24.45.45,1.07.7,1.55,1.12.47.42.83,1.26,1.32,1.65.46-.51,1.14-1.08,1.57-1.64.42-.55.38-1.42.76-2.01.37-.58.63-1.21.95-1.82s.82-1.13,1.08-1.77c.26-.64.48-1.3.66-1.96.18-.67.56-1.31.66-1.99.1-.69.25-1.4.25-2.1,0-.69-.44-1.36-.55-2.05-.1-.66-.22-1.31-.45-1.94-.23-.62-.44-1.27-.76-1.86-.32-.58-.72-1.12-1.11-1.68-.38-.55-.78-1.09-1.2-1.62-.42-.53-.6-1.27-1.03-1.77-.45-.51-.95-.97-1.39-1.46-.46-.51-.92-1.12-1.34-1.6-.42-.1-1.84,1.94-2.19,2.37-.46.57-1.09.98-1.49,1.53-.42.6-.89,1.16-1.23,1.75-.37.63-.16,1.53-.44,2.15-.3.66-.76,1.22-.95,1.87-.21.69-.29,1.38-.37,2.06-.08.7-.39,1.4-.34,2.11.05.69.14,1.42.32,2.12.17.66.37,1.37.67,2.04.27.62.8,1.16,1.18,1.78.35.58.68,1.21,1.13,1.79.41.54.82,1.13,1.31,1.68M96.89,96.96c-.4.56-.74,1.33-1.14,1.92-.39.58-.58,1.3-.94,1.9-.37.61-1.15.98-1.47,1.6-.33.64-.73,1.26-.98,1.91-.27.67.02,1.51-.14,2.18-.17.7-.17,1.36-.19,2.06-.02.71-.19,1.39-.02,2.08.16.66.42,1.31.79,1.94.33.57.58,1.29,1.09,1.84.45.47,1.12,1.1,1.74,1.54.5-.44.98-1.31,1.54-1.86.5-.49,1.05-.98,1.55-1.55.48-.55,1.01-1.07,1.45-1.66.44-.6.8-1.25,1.15-1.88.37-.66.68-1.33.9-2,.24-.72.72-1.45.72-2.16,0-.52-.3-1.29-.64-1.98-.26-.54-.57-1.19-.96-1.75-.37-.53-1.06-.85-1.49-1.34-.44-.52-.72-1.19-1.17-1.6-.56-.52-1.33-.93-1.78-1.18M98.37,71.26c-.51.41-1.01,1.04-1.51,1.49-.49.44-.8,1.07-1.26,1.55-.46.48-1.28.65-1.7,1.15-.43.52-.93,1.01-1.3,1.55-.38.56-.28,1.41-.59,1.98-.32.6-.49,1.21-.7,1.83-.22.65-.59,1.21-.66,1.86-.07.67-.05,1.32.07,1.97.11.64.11,1.36.42,1.97.29.56.62,1.21,1.09,1.74.41.46,1.18.64,1.74,1.07.49.38.98.78,1.6,1.14.42-.48.89-.93,1.31-1.48.4-.51.76-1.09,1.15-1.64.38-.54.76-1.1,1.11-1.67.35-.57.99-1,1.29-1.6.31-.6.53-1.27.77-1.89.25-.64.53-1.3.68-1.93.16-.67-.08-1.41-.05-2.06.03-.68.25-1.39.12-2.05-.13-.65-.3-1.38-.61-1.99-.3-.57-1.17-.77-1.65-1.29-.43-.46-.73-1.28-1.32-1.69M94.11,46.79c-.5.49-.81,1.14-1.21,1.65-.43.56-.59,1.23-.89,1.8-.33.62-1.04,1.05-1.23,1.68-.2.66-.43,1.37-.48,2.03-.05.68.5,1.35.6,2.01.1.66.35,1.24.59,1.88.24.62.32,1.3.69,1.88.35.56.76,1.08,1.22,1.6.44.49.78,1.13,1.31,1.57.51.42,1.03.91,1.62,1.27.56.35,1.29.32,1.92.61.47-.5.95-.97,1.43-1.55.46-.55.96-1.09,1.36-1.69.4-.61.7-1.28.97-1.94.28-.68.48-1.38.55-2.09.07-.72.38-1.47.24-2.11-.14-.68-.48-1.37-.8-1.97-.31-.59-.68-1.25-1.12-1.78-.43-.52-1.18-.79-1.68-1.26-.49-.47-.84-1.12-1.37-1.55-.53-.44-1.01-.94-1.53-1.36-.54-.45-1.44-.41-1.93-.85-.25-.11-.07-.01-.28.18M97.63,43.54c.52.32,1.24.8,1.81,1.23.51.38,1.19.62,1.71,1.07.5.42.66,1.24,1.14,1.71.48.46.86,1,1.3,1.5.44.5,1.27.69,1.66,1.22.4.55.86,1.09,1.17,1.66.34.6.41,1.33.62,1.94.22.65.37,1.32.4,1.96.04.65-.22,1.28-.3,1.92-.08.64-.3,1.22-.48,1.84-.18.62-.03,1.35-.29,1.94-.26.59-.61,1.15-.94,1.71-.32.56-.74,1.06-1.11,1.59-.37.53-.72,1.08-1.12,1.58-.41.51-.84,1-1.27,1.47-.03.15.37,1.22,1.05,2.09.6.76,1.25,1.45,1.44,1.76.36.62.58,1.22.82,1.83.26.66.78,1.19.91,1.84.14.68-.05,1.37-.04,2.05.01.69-.11,1.32-.21,2-.09.67.36,1.46.17,2.13-.18.65-.62,1.24-.88,1.89-.24.63-.47,1.28-.77,1.91-.29.61-.86,1.09-1.19,1.7-.2.38-.73,1.06-1.31,1.87-.45.61-.97,1.25-1.4,1.85-.68.95-1.06,1.9-1.06,2.08,0,.3.43.91,1.04,1.48.42.39.98.72,1.44,1.1.56.47.81,1.12,1.07,1.42.49.56,1.17.91,1.55,1.46.43.61.74,1.24,1.05,1.84.34.66.43,1.36.64,2,.22.7.68,1.31.76,1.99.08.72-.08,1.42-.15,2.12-.07.7-.23,1.37-.43,2.06-.19.67-.5,1.28-.81,1.93-.3.63-.42,1.36-.81,1.97-.37.58-.71,1.22-1.16,1.79-.42.55-1.23.78-1.72,1.32-.47.52-.94,1.02-1.45,1.53-.5.49-1.05,1.19-1.58,1.68.45.54,1.34.98,1.81,1.53.46.54.74,1.25,1.2,1.79.46.54.78,1.2,1.23,1.76.45.56.98,1.04,1.41,1.61.43.58,1.03,1.03,1.41,1.63.39.6.73,1.24,1.06,1.88.33.64.54,1.33.79,2,.25.67.78,1.28.93,1.98.16.69-.31,1.48-.26,2.21.05.69.07,1.37,0,2.1-.06.67.05,1.35-.08,1.99-.13.66,0,1.38-.19,2.02-.19.64-.74,1.16-.99,1.78-.24.62-.2,1.37-.49,1.97-.29.6-.78,1.1-1.11,1.69-.33.58-.96.97-1.32,1.53-.36.56-.56,1.22-.94,1.77-.38.54-.57,1.19-.97,1.72.04.25.53.97,1.45,1.71.59.47,1.32.92,1.94,1.38.85.63,1.73,1.01,2.03,1.24.54.41.96,1.12,1.61,1.56.59.4,1.46.45,2.09.86.62.41,1.14.98,1.74,1.39.64.43,1.42.62,1.99,1.04.65.47,1.13,1.11,1.61,1.55.65.59,1.46,1.79,1.41,2.69-.31.68-1.07,1.32-1.76,1.55-.68.23-1.66.19-2.32-.13-.86-.55-.6-.94-1.43-1.53-.83-.6-.82-.61-1.66-1.2-.83-.59-1.09-.23-1.92-.82-.83-.6-.72-.76-1.55-1.35-.83-.6-.93-.46-1.76-1.06-.83-.59-.92-.48-1.75-1.07-.83-.6-.73-.75-1.56-1.34-.84-.6-.7-.79-1.54-1.39-.84-.6-.67-.92-1.7-.86-1,.05-.96.18-1.69.86-.73.69-.69.73-1.42,1.42-.73.68-.77.64-1.5,1.33-.73.69-.49.95-1.22,1.63-.73.68-.87.53-1.6,1.21-.73.69-.69.74-1.42,1.42-.73.69-.54.89-1.28,1.58-.74.69-.79.63-1.53,1.32-.74.69-.53,1.05-1.42,1.53-.31.17.25-.53-.06-.7-.79.35-1.5.05-2.15-.15-.71-.22-1.27-.69-.91-1.82.58-.82.78-.67,1.49-1.39.71-.71.65-.77,1.37-1.49.71-.71.99-.44,1.7-1.15.71-.71.29-1.14,1-1.85.71-.71,1.13-.29,1.84-1,.72-.72.55-.88,1.27-1.59.72-.72.78-.65,1.5-1.36.72-.72.54-.9,1.25-1.62.72-.72,1.01-.47,1.43-1.39-.56-.46-1.17-.71-1.7-1.17-.54-.47-.97-1.08-1.49-1.57-.53-.5-.77-1.26-1.26-1.77-.5-.52-.97-1.04-1.42-1.58-.46-.56-.86-1.12-1.27-1.7-.41-.59-1.34-.86-1.68-1.49-.34-.63-.19-1.5-.46-2.17-.26-.66-.33-1.36-.51-2.06-.17-.68-.6-1.3-.68-2.03-.08-.69-.02-1.4-.01-2.14,0-.69-.05-1.4.03-2.14.08-.67.19-1.31.35-1.94.17-.64.53-1.21.77-1.82.25-.61.28-1.32.59-1.9.31-.58.5-1.25.85-1.81.35-.56.75-1.1,1.13-1.64.38-.54,1.02-.9,1.41-1.43.39-.53.64-1.17,1.03-1.7.4-.53.69-.97,1.07-1.5-.53-.57-.8-1.19-1.32-1.72-.54-.54-1.2-.95-1.67-1.54-.46-.57-.78-1.26-1.13-1.97-.33-.66-.38-1.37-.58-1.99-.23-.69-.72-1.27-.81-1.93-.1-.71.25-1.4.29-2.08.04-.7-.35-1.45-.19-2.12.16-.67.37-1.37.62-2.02.25-.64.82-1.15,1.14-1.78.31-.61.76-1.15,1.12-1.75.35-.59.61-1.24.99-1.83.36-.58.4-1.38.77-1.97.37-.59.77-.99,1.12-1.59-.48-.4-.9-.69-1.41-1.11-.5-.41-.71-1.17-1.2-1.61-.49-.44-1.24-.6-1.68-1.08-.45-.48-1.03-.9-1.4-1.43-.38-.54-.27-1.36-.53-1.96-.25-.59-.36-1.18-.45-1.85-.1-.71-.04-1.36-.04-2.02,0-.71-.46-1.41-.37-2.06.09-.69.05-1.44.23-2.08.19-.66,1.07-1.07,1.35-1.69.28-.62.13-1.47.49-2.05.35-.58,1.03-.95,1.45-1.49.41-.54.68-1.2,1.14-1.72.45-.51.93-.99,1.41-1.49.47-.49,1.13-.79,1.63-1.27.49-.47.54-1.04,1.04-1.51-.59-.36-1.04-.52-1.57-.92-.56-.42-.89-1.11-1.39-1.56-.51-.47-.92-1.02-1.36-1.53-.46-.52-.82-1.09-1.19-1.64-.39-.57-.57-1.22-.88-1.82-.31-.62-1.09-1.02-1.31-1.66-.22-.65-.19-1.38-.31-2.05-.12-.67.15-1.36.13-2.04-.02-.68-.32-1.35-.24-2.03.08-.67.45-1.27.63-1.94.17-.65-.02-1.42.25-2.07.26-.62.64-1.2.99-1.81.33-.58.62-1.22,1.03-1.79.39-.54.73-1.11,1.2-1.64-.03-.14-.29-.62-1.09-1.23-.46-.35-1.25-.39-1.79-.79-.53-.39-.93-.96-1.41-1.3-.7-.51-1.11-1.13-1.35-1.34-.43-.38-.89-.81-1.35-1.26-.46-.45-1.25-.65-1.54-1.14-.35-.58-.62-1.41-.42-1.99.16-.46.91-.67,1.6-1.1.47-.11,1.08-.13,1.8.26.5.27,1.08.59,1.65,1,.49.36.92.86,1.44,1.27.5.39,1.16.61,1.65,1.01.51.42.79,1.1,1.28,1.48.54.43,1.31.47,1.79.79.65.44,1.06.85,1.53.96.37-.04.88-.5,1.58-1.15.5-.46,1.28-.74,1.76-1.24.62-.63.9-1.49,1.23-1.77.29-.25.82-.67,1.43-1.18.44-.37,1.16-.51,1.66-.9.51-.4.95-.87,1.41-1.2.71-.5,1.27-.91,1.57-.91.96-.02,1.82.4,2.16,1.07.34.67.4,1.8-.23,2.59-.72.72-.96.48-1.71,1.17-.75.68-.76.67-1.51,1.35-.76.69-.88.54-1.64,1.23-.76.69-.86.57-1.62,1.26-.76.69-.44,1.05-1.29,1.62-.9.6-1.16.4-1.68,1.29"/><path d="M94.36,145.16c.42.47,1.01.8,1.46,1.24.45.45,1.07.7,1.55,1.12.47.42.83,1.26,1.32,1.65.46-.51,1.14-1.08,1.57-1.64.42-.55.38-1.42.76-2.01.37-.58.63-1.21.95-1.82s.82-1.13,1.08-1.77c.26-.64.48-1.3.66-1.96.18-.67.56-1.31.66-1.99.1-.69.25-1.4.25-2.1,0-.69-.44-1.36-.55-2.05-.1-.66-.22-1.31-.45-1.94-.23-.62-.44-1.27-.76-1.86-.32-.58-.72-1.12-1.11-1.68-.38-.55-.78-1.09-1.2-1.62-.42-.53-.6-1.27-1.03-1.77-.45-.51-.95-.97-1.39-1.46-.46-.51-.92-1.12-1.34-1.6-.42-.1-1.84,1.94-2.19,2.37-.46.57-1.09.98-1.49,1.53-.42.6-.89,1.16-1.23,1.75-.37.63-.16,1.53-.44,2.15-.3.66-.76,1.22-.95,1.87-.21.69-.29,1.38-.37,2.06-.08.7-.39,1.4-.34,2.11.05.69.14,1.42.32,2.12.17.66.37,1.37.67,2.04.27.62.8,1.16,1.18,1.78.35.58.68,1.21,1.13,1.79.41.54.82,1.13,1.31,1.68M96.89,96.96c-.4.56-.74,1.33-1.14,1.92-.39.58-.58,1.3-.94,1.9-.37.61-1.15.98-1.47,1.6-.33.64-.73,1.26-.98,1.91-.27.67.02,1.51-.14,2.18-.17.7-.17,1.36-.19,2.06-.02.71-.19,1.39-.02,2.08.16.66.42,1.31.79,1.94.33.57.58,1.29,1.09,1.84.45.47,1.12,1.1,1.74,1.54.5-.44.98-1.31,1.54-1.86.5-.49,1.05-.98,1.55-1.55.48-.55,1.01-1.07,1.45-1.66.44-.6.8-1.25,1.15-1.88.37-.66.68-1.33.9-2,.24-.72.72-1.45.72-2.16,0-.52-.3-1.29-.64-1.98-.26-.54-.57-1.19-.96-1.75-.37-.53-1.06-.85-1.49-1.34-.44-.52-.72-1.19-1.17-1.6-.56-.52-1.33-.93-1.78-1.18M98.37,71.26c-.51.41-1.01,1.04-1.51,1.49-.49.44-.8,1.07-1.26,1.55-.46.48-1.28.65-1.7,1.15-.43.52-.93,1.01-1.3,1.55-.38.56-.28,1.41-.59,1.98-.32.6-.49,1.21-.7,1.83-.22.65-.59,1.21-.66,1.86-.07.67-.05,1.32.07,1.97.11.64.11,1.36.42,1.97.29.56.62,1.21,1.09,1.74.41.46,1.18.64,1.74,1.07.49.38.98.78,1.6,1.14.42-.48.89-.93,1.31-1.48.4-.51.76-1.09,1.15-1.64.38-.54.76-1.1,1.11-1.67.35-.57.99-1,1.29-1.6.31-.6.53-1.27.77-1.89.25-.64.53-1.3.68-1.93.16-.67-.08-1.41-.05-2.06.03-.68.25-1.39.12-2.05-.13-.65-.3-1.38-.61-1.99-.3-.57-1.17-.77-1.65-1.29-.43-.46-.73-1.28-1.32-1.69M94.11,46.79c-.5.49-.81,1.14-1.21,1.65-.43.56-.59,1.23-.89,1.8-.33.62-1.04,1.05-1.23,1.68-.2.66-.43,1.37-.48,2.03-.05.68.5,1.35.6,2.01.1.66.35,1.24.59,1.88.24.62.32,1.3.69,1.88.35.56.76,1.08,1.22,1.6.44.49.78,1.13,1.31,1.57.51.42,1.03.91,1.62,1.27.56.35,1.29.32,1.92.61.47-.5.95-.97,1.43-1.55.46-.55.96-1.09,1.36-1.69.4-.61.7-1.28.97-1.94.28-.68.48-1.38.55-2.09.07-.72.38-1.47.24-2.11-.14-.68-.48-1.37-.8-1.97-.31-.59-.68-1.25-1.12-1.78-.43-.52-1.18-.79-1.68-1.26-.49-.47-.84-1.12-1.37-1.55-.53-.44-1.01-.94-1.53-1.36-.54-.45-1.44-.41-1.93-.85-.25-.11-.07-.01-.28.18M97.63,43.54c.52.32,1.24.8,1.81,1.23.51.38,1.19.62,1.71,1.07.5.42.66,1.24,1.14,1.71.48.46.86,1,1.3,1.5.44.5,1.27.69,1.66,1.22.4.55.86,1.09,1.17,1.66.34.6.41,1.33.62,1.94.22.65.37,1.32.4,1.96.04.65-.22,1.28-.3,1.92-.08.64-.3,1.22-.48,1.84-.18.62-.03,1.35-.29,1.94-.26.59-.61,1.15-.94,1.71-.32.56-.74,1.06-1.11,1.59-.37.53-.72,1.08-1.12,1.58-.41.51-.84,1-1.27,1.47-.03.15.37,1.22,1.05,2.09.6.76,1.25,1.45,1.44,1.76.36.62.58,1.22.82,1.83.26.66.78,1.19.91,1.84.14.68-.05,1.37-.04,2.05.01.69-.11,1.32-.21,2-.09.67.36,1.46.17,2.13-.18.65-.62,1.24-.88,1.89-.24.63-.47,1.28-.77,1.91-.29.61-.86,1.09-1.19,1.7-.2.38-.73,1.06-1.31,1.87-.45.61-.97,1.25-1.4,1.85-.68.95-1.06,1.9-1.06,2.08,0,.3.43.91,1.04,1.48.42.39.98.72,1.44,1.1.56.47.81,1.12,1.07,1.42.49.56,1.17.91,1.55,1.46.43.61.74,1.24,1.05,1.84.34.66.43,1.36.64,2,.22.7.68,1.31.76,1.99.08.72-.08,1.42-.15,2.12-.07.7-.23,1.37-.43,2.06-.19.67-.5,1.28-.81,1.93-.3.63-.42,1.36-.81,1.97-.37.58-.71,1.22-1.16,1.79-.42.55-1.23.78-1.72,1.32-.47.52-.94,1.02-1.45,1.53-.5.49-1.05,1.19-1.58,1.68.45.54,1.34.98,1.81,1.53.46.54.74,1.25,1.2,1.79.46.54.78,1.2,1.23,1.76.45.56.98,1.04,1.41,1.61.43.58,1.03,1.03,1.41,1.63.39.6.73,1.24,1.06,1.88.33.64.54,1.33.79,2,.25.67.78,1.28.93,1.98.16.69-.31,1.48-.26,2.21.05.69.07,1.37,0,2.1-.06.67.05,1.35-.08,1.99-.13.66,0,1.38-.19,2.02-.19.64-.74,1.16-.99,1.78-.24.62-.2,1.37-.49,1.97-.29.6-.78,1.1-1.11,1.69-.33.58-.96.97-1.32,1.53-.36.56-.56,1.22-.94,1.77-.38.54-.57,1.19-.97,1.72.04.25.53.97,1.45,1.71.59.47,1.32.92,1.94,1.38.85.63,1.73,1.01,2.03,1.24.54.41.96,1.12,1.61,1.56.59.4,1.46.45,2.09.86.62.41,1.14.98,1.74,1.39.64.43,1.42.62,1.99,1.04.65.47,1.13,1.11,1.61,1.55.65.59,1.46,1.79,1.41,2.69-.31.68-1.07,1.32-1.76,1.55-.68.23-1.66.19-2.32-.13-.86-.55-.6-.94-1.43-1.53-.83-.6-.82-.61-1.66-1.2-.83-.59-1.09-.23-1.92-.82-.83-.6-.72-.76-1.55-1.35-.83-.6-.93-.46-1.76-1.06-.83-.59-.92-.48-1.75-1.07-.83-.6-.73-.75-1.56-1.34-.84-.6-.7-.79-1.54-1.39-.84-.6-.67-.92-1.7-.86-1,.05-.96.18-1.69.86-.73.69-.69.73-1.42,1.42-.73.68-.77.64-1.5,1.33-.73.69-.49.95-1.22,1.63-.73.68-.87.53-1.6,1.21-.73.69-.69.74-1.42,1.42-.73.69-.54.89-1.28,1.58-.74.69-.79.63-1.53,1.32-.74.69-.53,1.05-1.42,1.53-.31.17.25-.53-.06-.7-.79.35-1.5.05-2.15-.15-.71-.22-1.27-.69-.91-1.82.58-.82.78-.67,1.49-1.39.71-.71.65-.77,1.37-1.49.71-.71.99-.44,1.7-1.15.71-.71.29-1.14,1-1.85.71-.71,1.13-.29,1.84-1,.72-.72.55-.88,1.27-1.59.72-.72.78-.65,1.5-1.36.72-.72.54-.9,1.25-1.62.72-.72,1.01-.47,1.43-1.39-.56-.46-1.17-.71-1.7-1.17-.54-.47-.97-1.08-1.49-1.57-.53-.5-.77-1.26-1.26-1.77-.5-.52-.97-1.04-1.42-1.58-.46-.56-.86-1.12-1.27-1.7-.41-.59-1.34-.86-1.68-1.49-.34-.63-.19-1.5-.46-2.17-.26-.66-.33-1.36-.51-2.06-.17-.68-.6-1.3-.68-2.03-.08-.69-.02-1.4-.01-2.14,0-.69-.05-1.4.03-2.14.08-.67.19-1.31.35-1.94.17-.64.53-1.21.77-1.82.25-.61.28-1.32.59-1.9.31-.58.5-1.25.85-1.81.35-.56.75-1.1,1.13-1.64.38-.54,1.02-.9,1.41-1.43.39-.53.64-1.17,1.03-1.7.4-.53.69-.97,1.07-1.5-.53-.57-.8-1.19-1.32-1.72-.54-.54-1.2-.95-1.67-1.54-.46-.57-.78-1.26-1.13-1.97-.33-.66-.38-1.37-.58-1.99-.23-.69-.72-1.27-.81-1.93-.1-.71.25-1.4.29-2.08.04-.7-.35-1.45-.19-2.12.16-.67.37-1.37.62-2.02.25-.64.82-1.15,1.14-1.78.31-.61.76-1.15,1.12-1.75.35-.59.61-1.24.99-1.83.36-.58.4-1.38.77-1.97.37-.59.77-.99,1.12-1.59-.48-.4-.9-.69-1.41-1.11-.5-.41-.71-1.17-1.2-1.61-.49-.44-1.24-.6-1.68-1.08-.45-.48-1.03-.9-1.4-1.43-.38-.54-.27-1.36-.53-1.96-.25-.59-.36-1.18-.45-1.85-.1-.71-.04-1.36-.04-2.02,0-.71-.46-1.41-.37-2.06.09-.69.05-1.44.23-2.08.19-.66,1.07-1.07,1.35-1.69.28-.62.13-1.47.49-2.05.35-.58,1.03-.95,1.45-1.49.41-.54.68-1.2,1.14-1.72.45-.51.93-.99,1.41-1.49.47-.49,1.13-.79,1.63-1.27.49-.47.54-1.04,1.04-1.51-.59-.36-1.04-.52-1.57-.92-.56-.42-.89-1.11-1.39-1.56-.51-.47-.92-1.02-1.36-1.53-.46-.52-.82-1.09-1.19-1.64-.39-.57-.57-1.22-.88-1.82-.31-.62-1.09-1.02-1.31-1.66-.22-.65-.19-1.38-.31-2.05-.12-.67.15-1.36.13-2.04-.02-.68-.32-1.35-.24-2.03.08-.67.45-1.27.63-1.94.17-.65-.02-1.42.25-2.07.26-.62.64-1.2.99-1.81.33-.58.62-1.22,1.03-1.79.39-.54.73-1.11,1.2-1.64-.03-.14-.29-.62-1.09-1.23-.46-.35-1.25-.39-1.79-.79-.53-.39-.93-.96-1.41-1.3-.7-.51-1.11-1.13-1.35-1.34-.43-.38-.89-.81-1.35-1.26-.46-.45-1.25-.65-1.54-1.14-.35-.58-.62-1.41-.42-1.99.16-.46.91-.67,1.6-1.1.47-.11,1.08-.13,1.8.26.5.27,1.08.59,1.65,1,.49.36.92.86,1.44,1.27.5.39,1.16.61,1.65,1.01.51.42.79,1.1,1.28,1.48.54.43,1.31.47,1.79.79.65.44,1.06.85,1.53.96.37-.04.88-.5,1.58-1.15.5-.46,1.28-.74,1.76-1.24.62-.63.9-1.49,1.23-1.77.29-.25.82-.67,1.43-1.18.44-.37,1.16-.51,1.66-.9.51-.4.95-.87,1.41-1.2.71-.5,1.27-.91,1.57-.91.96-.02,1.82.4,2.16,1.07.34.67.4,1.8-.23,2.59-.72.72-.96.48-1.71,1.17-.75.68-.76.67-1.51,1.35-.76.69-.88.54-1.64,1.23-.76.69-.86.57-1.62,1.26-.76.69-.44,1.05-1.29,1.62-.9.6-1.16.4-1.68,1.29"/></svg>