<?xml version="1.0" encoding="UTF-8"?><svg id="Layer_1" xmlns="http://www.w3.org/2000/svg" viewBox="0 0 200 200"><path d="M72.68,65.76c.57-.44.64-.35,1.23-.76.6-.41.61-.4,1.2-.81.6-.41.56-.46,1.15-.88.6-.41.66-.32,1.26-.74.6-.41.46-.61,1.06-1.02.6-.42.68-.29,1.28-.71.6-.42.61-.39,1.21-.81.6-.41.42-.67,1.01-1.09.6-.41.54-.49,1.14-.9.6-.42.64-.35,1.24-.77.6-.42.68-.29,1.28-.71.6-.42.72-.24,1.31-.65.6-.42.52-.53,1.11-.94.6-.42.43-.65,1.03-1.07.6-.41.67-.31,1.27-.72.6-.42.59-.43,1.19-.85.6-.41.53-.51,1.12-.93.6-.42.67-.31,1.26-.73.6-.42.53-.51,1.12-.93.6-.42.81-.12,1.4-.53.6-.42.51-.54,1.11-.96.6-.42.66-.32,1.26-.74.6-.42.51-.54,1.11-.96.6-.42.66-.32,1.26-.74.6-.42.64-.36,1.23-.78.6-.42.64-.35,1.24-.77.6-.42.57-.46,1.17-.88.6-.42.44-.64,1.04-1.07.44-.33.98-.41,1.42-.56.54-.19,1.03-.36,1.47-.32.6.06,1.12.32,1.31.73.17.37.11.91-.25,1.49-.22.35-.46.88-.93,1.28-.58.44-.68.31-1.27.73-.59.42-.68.3-1.27.72-.59.42-.59.43-1.18.85-.59.42-.52.52-1.11.94-.59.42-.63.37-1.22.79-.59.42-.52.53-1.11.95-.59.42-.65.33-1.25.75-.59.42-.48.57-1.07.99-.59.42-.86.04-1.45.47-.59.42-.35.76-.95,1.18-.59.42-.72.24-1.32.66-.59.42-.66.32-1.26.74s-.53.51-1.12.93c-.59.42-.63.38-1.22.8-.59.42-.46.6-1.06,1.02-.59.42-.53.51-1.13.93-.59.42-.61.39-1.2.81-.59.42-.8.12-1.4.55-.59.42-.44.63-1.03,1.05-.59.42-.76.18-1.36.6-.59.42-.54.5-1.14.92-.59.42-.55.49-1.14.91-.59.42-.51.54-1.1.96-.59.42-.68.31-1.27.73-.59.42-.53.51-1.12.94-.59.42-.54.5-1.14.92-.6.42-.8.14-1.4.56-.6.42-.42.64-.96,1.14-.16.39-.36.66-.4,1.08-.04.48.19.99.16,1.49-.03.49-.06.97-.08,1.47-.02.49-.22.97-.23,1.46-.01.49,0,.98-.01,1.48,0,.49-.14.98-.14,1.48,0,.49.13.98.13,1.48,0,.49-.15.99-.15,1.48,0,.49-.07.99-.07,1.48,0,.49.11.99.12,1.48,0,.5.13.99.14,1.48,0,.5-.25.99-.25,1.48,0,.5.11.99.11,1.48,0,.5.17.99.16,1.48,0,.5.16,1,.16,1.49,0,.5-.44.99-.44,1.49,0,.5.4,1,.39,1.49,0,.5.01.99.01,1.49,0,.5-.37.99-.37,1.49,0,.5-.07.99-.07,1.49,0,.5.32.99.32,1.49s-.27.99-.27,1.49c0,.49.08.99.09,1.49,0,.49.09.99.1,1.49,0,.49.17.99.18,1.48,0,.5.05.99.06,1.49s-.28.99-.27,1.49c0,.5.2.99.21,1.49,0,.48-.1.96-.1,1.44,0,.48-.12.96-.12,1.44s.21.96.21,1.44c0,.48-.25.96-.25,1.44,0,.48-.11.96-.11,1.44s.29.96.29,1.44-.21.96-.2,1.44c0,.48,0,.96,0,1.44,0,.48-.03.96-.02,1.44,0,.48.45.95.47,1.43.01.48-.41.97-.39,1.45.02.48.41.94.44,1.42s.08.95.12,1.43c.03.48-.22.98-.18,1.46.04.48.08,1,.13,1.47.36.31.69.74,1.05,1.05.37.31,1.02.28,1.39.58.37.3.63.74,1.01,1.04.37.3.74.61,1.12.9.38.3.72.64,1.1.93.38.29.72.63,1.1.93.38.29.78.55,1.17.84.38.29.85.46,1.23.75.38.29.61.79.99,1.08.38.29.79.54,1.17.83.38.29.75.61,1.13.89.38.29.92.37,1.31.65.38.29.61.78,1,1.07.38.29,1.01.25,1.4.54.38.29.52.9.9,1.19.38.29,1,.27,1.38.57.38.29.49.93.86,1.23.36.28.81.45,1.18.74.36.28.92.31,1.29.59.36.28.62.7.99.99.36.28.81.45,1.18.73.37.28.63.7.99.98.37.28.59.75.95,1.03.37.29.82.46,1.17.75.36.29.92.35,1.27.64.36.3.65.68.99.98.36.31.59.75.92,1.05.34.31.53.72.79,1.01.31.35.58.56.6.99.01.35.05.76-.25,1.22-.35.54-.84.52-1.28.58-.47.06-.86.01-1.36-.25-.43-.23-.99-.34-1.39-.66-.44-.34-.85-.68-1.19-.94-.38-.29-.76-.56-1.14-.85-.38-.29-.68-.67-1.05-.96-.38-.29-.82-.49-1.19-.78-.37-.29-.54-.85-.91-1.14-.37-.29-.97-.29-1.34-.59-.37-.29-.63-.73-1-1.03-.37-.29-.79-.53-1.16-.82-.37-.29-.68-.67-1.05-.96s-.94-.34-1.31-.64c-.37-.29-.51-.88-.88-1.18-.37-.3-.76-.56-1.13-.86-.37-.3-.95-.33-1.32-.63-.37-.3-.57-.8-.94-1.1-.37-.3-.84-.46-1.21-.76-.37-.29-.75-.58-1.12-.87-.37-.29-.71-.62-1.08-.92-.37-.29-.59-.78-.96-1.07-.37-.29-.72-.62-1.09-.91-.37-.29-.82-.49-1.2-.78-.37-.29-.82-.48-1.2-.77-.38-.29-.62-.75-1-1.03-.38-.29-.73-.61-1.1-.9-.38-.29-.95-.31-1.33-.6-.38-.28-.57-.82-.95-1.1-.38-.28-.91-.35-1.3-.63-.38-.28-.81-.5-1.2-.78-.32-.3-.51-.75-.68-1.2-.15-.39-.17-.85-.24-1.32-.06-.43-.4-.87-.42-1.33-.01-.45.17-.91.18-1.36.01-.46.23-.91.24-1.34.02-.49.02-.95,0-1.35-.02-.49-.32-.96-.34-1.45-.02-.49.26-.98.25-1.46s-.2-.97-.21-1.45c-.01-.49.27-.98.25-1.46-.01-.49-.35-.96-.36-1.45,0-.49.07-.97.07-1.46,0-.49,0-.97-.01-1.46,0-.49.11-.97.1-1.46,0-.49-.24-.97-.24-1.45,0-.49.26-.97.26-1.46,0-.49-.31-.97-.31-1.45,0-.49-.11-.97-.11-1.46s.16-.97.16-1.46c0-.49.28-.97.28-1.46,0-.49-.05-.97-.05-1.46,0-.49-.09-.97-.09-1.46s.02-.97.02-1.46c0-.49.15-.97.16-1.45,0-.49-.25-.97-.25-1.46,0-.49,0-.97.01-1.46,0-.49.14-.97.15-1.45,0-.49.2-.97.2-1.45,0-.49-.48-.98-.47-1.46,0-.49.12-.97.13-1.45,0-.49.15-.97.16-1.45,0-.49-.18-.97-.17-1.46.01-.49.44-.96.45-1.45,0-.49-.04-.97-.03-1.46,0-.47-.14-.96-.14-1.44,0-.48-.18-.95-.19-1.44,0-.47-.06-.95-.07-1.43,0-.48.19-.96.18-1.44-.01-.48-.18-.96-.19-1.44,0-.48-.04-.96-.04-1.44,0-.48.34-.96.34-1.44,0-.48.09-.96.09-1.44,0-.48-.15-.96-.13-1.44.01-.48.16-.95.19-1.43.02-.32-.35-.84-.29-1.39.05-.43.46-.85.53-1.31.07-.47.09-.93.19-1.35.14-.56.27-.99.46-1.22"/><path d="M72.68,65.76c.57-.44.64-.35,1.23-.76.6-.41.61-.4,1.2-.81.6-.41.56-.46,1.15-.88.6-.41.66-.32,1.26-.74.6-.41.46-.61,1.06-1.02.6-.42.68-.29,1.28-.71.6-.42.61-.39,1.21-.81.6-.41.42-.67,1.01-1.09.6-.41.54-.49,1.14-.9.6-.42.64-.35,1.24-.77.6-.42.68-.29,1.28-.71.6-.42.72-.24,1.31-.65.6-.42.52-.53,1.11-.94.6-.42.43-.65,1.03-1.07.6-.41.67-.31,1.27-.72.6-.42.59-.43,1.19-.85.6-.41.53-.51,1.12-.93.6-.42.67-.31,1.26-.73.6-.42.53-.51,1.12-.93.6-.42.81-.12,1.4-.53.6-.42.51-.54,1.11-.96.6-.42.66-.32,1.26-.74.6-.42.51-.54,1.11-.96.6-.42.66-.32,1.26-.74.6-.42.64-.36,1.23-.78.6-.42.64-.35,1.24-.77.6-.42.57-.46,1.17-.88.6-.42.44-.64,1.04-1.07.44-.33.98-.41,1.42-.56.54-.19,1.03-.36,1.47-.32.6.06,1.12.32,1.31.73.17.37.11.91-.25,1.49-.22.35-.46.88-.93,1.28-.58.44-.68.31-1.27.73-.59.42-.68.3-1.27.72-.59.42-.59.43-1.18.85-.59.42-.52.52-1.11.94-.59.42-.63.37-1.22.79-.59.42-.52.53-1.11.95-.59.42-.65.33-1.25.75-.59.42-.48.57-1.07.99-.59.42-.86.04-1.45.47-.59.42-.35.76-.95,1.18-.59.42-.72.24-1.32.66-.59.42-.66.32-1.26.74s-.53.51-1.12.93c-.59.42-.63.38-1.22.8-.59.42-.46.6-1.06,1.02-.59.42-.53.51-1.13.93-.59.42-.61.39-1.2.81-.59.42-.8.12-1.4.55-.59.42-.44.63-1.03,1.05-.59.42-.76.18-1.36.6-.59.42-.54.5-1.14.92-.59.42-.55.49-1.14.91-.59.42-.51.54-1.1.96-.59.42-.68.31-1.27.73-.59.42-.53.51-1.12.94-.59.42-.54.5-1.14.92-.6.42-.8.14-1.4.56-.6.42-.42.64-.96,1.14-.16.39-.36.66-.4,1.08-.04.48.19.99.16,1.49-.03.49-.06.97-.08,1.47-.02.49-.22.97-.23,1.46-.01.49,0,.98-.01,1.48,0,.49-.14.98-.14,1.48,0,.49.13.98.13,1.48,0,.49-.15.99-.15,1.48,0,.49-.07.99-.07,1.48,0,.49.11.99.12,1.48,0,.5.13.99.14,1.48,0,.5-.25.99-.25,1.48,0,.5.11.99.11,1.48,0,.5.17.99.16,1.48,0,.5.16,1,.16,1.49,0,.5-.44.99-.44,1.49,0,.5.4,1,.39,1.49,0,.5.01.99.01,1.49,0,.5-.37.99-.37,1.49,0,.5-.07.99-.07,1.49,0,.5.32.99.32,1.49s-.27.99-.27,1.49c0,.49.08.99.09,1.49,0,.49.09.99.1,1.49,0,.49.17.99.18,1.48,0,.5.05.99.06,1.49s-.28.99-.27,1.49c0,.5.2.99.21,1.49,0,.48-.1.96-.1,1.44,0,.48-.12.96-.12,1.44s.21.96.21,1.44c0,.48-.25.96-.25,1.44,0,.48-.11.96-.11,1.44s.29.96.29,1.44-.21.96-.2,1.44c0,.48,0,.96,0,1.44,0,.48-.03.96-.02,1.44,0,.48.45.95.47,1.43.01.48-.41.97-.39,1.45.02.48.41.94.44,1.42s.08.95.12,1.43c.03.48-.22.98-.18,1.46.04.48.08,1,.13,1.47.36.31.69.74,1.05,1.05.37.31,1.02.28,1.39.58.37.3.63.74,1.01,1.04.37.3.74.61,1.12.9.38.3.72.64,1.1.93.38.29.72.63,1.1.93.38.29.78.55,1.17.84.38.29.85.46,1.23.75.38.29.61.79.99,1.08.38.29.79.54,1.17.83.38.29.75.61,1.13.89.38.29.92.37,1.31.65.38.29.61.78,1,1.07.38.29,1.01.25,1.4.54.38.29.52.9.9,1.19.38.29,1,.27,1.38.57.38.29.49.93.86,1.23.36.28.81.45,1.18.74.36.28.92.31,1.29.59.36.28.62.7.99.99.36.28.81.45,1.18.73.37.28.63.7.99.98.37.28.59.75.95,1.03.37.29.82.46,1.17.75.36.29.92.35,1.27.64.36.3.65.68.99.98.36.31.59.75.92,1.05.34.31.53.72.79,1.01.31.35.58.56.6.99.01.35.05.76-.25,1.22-.35.54-.84.52-1.28.58-.47.06-.86.01-1.36-.25-.43-.23-.99-.34-1.39-.66-.44-.34-.85-.68-1.19-.94-.38-.29-.76-.56-1.14-.85-.38-.29-.68-.67-1.05-.96-.38-.29-.82-.49-1.19-.78-.37-.29-.54-.85-.91-1.14-.37-.29-.97-.29-1.34-.59-.37-.29-.63-.73-1-1.03-.37-.29-.79-.53-1.16-.82-.37-.29-.68-.67-1.05-.96s-.94-.34-1.31-.64c-.37-.29-.51-.88-.88-1.18-.37-.3-.76-.56-1.13-.86-.37-.3-.95-.33-1.32-.63-.37-.3-.57-.8-.94-1.1-.37-.3-.84-.46-1.21-.76-.37-.29-.75-.58-1.12-.87-.37-.29-.71-.62-1.08-.92-.37-.29-.59-.78-.96-1.07-.37-.29-.72-.62-1.09-.91-.37-.29-.82-.49-1.2-.78-.37-.29-.82-.48-1.2-.77-.38-.29-.62-.75-1-1.03-.38-.29-.73-.61-1.1-.9-.38-.29-.95-.31-1.33-.6-.38-.28-.57-.82-.95-1.1-.38-.28-.91-.35-1.3-.63-.38-.28-.81-.5-1.2-.78-.32-.3-.51-.75-.68-1.2-.15-.39-.17-.85-.24-1.32-.06-.43-.4-.87-.42-1.33-.01-.45.17-.91.18-1.36.01-.46.23-.91.24-1.34.02-.49.02-.95,0-1.35-.02-.49-.32-.96-.34-1.45-.02-.49.26-.98.25-1.46s-.2-.97-.21-1.45c-.01-.49.27-.98.25-1.46-.01-.49-.35-.96-.36-1.45,0-.49.07-.97.07-1.46,0-.49,0-.97-.01-1.46,0-.49.11-.97.1-1.46,0-.49-.24-.97-.24-1.45,0-.49.26-.97.26-1.46,0-.49-.31-.97-.31-1.45,0-.49-.11-.97-.11-1.46s.16-.97.16-1.46c0-.49.28-.97.28-1.46,0-.49-.05-.97-.05-1.46,0-.49-.09-.97-.09-1.46s.02-.97.02-1.46c0-.49.15-.97.16-1.45,0-.49-.25-.97-.25-1.46,0-.49,0-.97.01-1.46,0-.49.14-.97.15-1.45,0-.49.2-.97.2-1.45,0-.49-.48-.98-.47-1.46,0-.49.12-.97.13-1.45,0-.49.15-.97.16-1.45,0-.49-.18-.97-.17-1.46.01-.49.44-.96.45-1.45,0-.49-.04-.97-.03-1.46,0-.47-.14-.96-.14-1.44,0-.48-.18-.95-.19-1.44,0-.47-.06-.95-.07-1.43,0-.48.19-.96.18-1.44-.01-.48-.18-.96-.19-1.44,0-.48-.04-.96-.04-1.44,0-.48.34-.96.34-1.44,0-.48.09-.96.09-1.44,0-.48-.15-.96-.13-1.44.01-.48.16-.95.19-1.43.02-.32-.35-.84-.29-1.39.05-.43.46-.85.53-1.31.07-.47.09-.93.19-1.35.14-.56.27-.99.46-1.22"/><path d="M100.25,58.09c.19-.2.82-.23,1.3-.33.46-.09,1.08-.26,1.34-.09.35.29.49.84.85,1.13.35.29.64.66.99.95.36.28.88.35,1.24.63.36.28.8.46,1.16.74.36.28.71.57,1.07.85s.71.57,1.06.86c.35.29.73.55,1.07.85.36.31.73.62,1.09.93.37.31.48.91.85,1.22.37.3.81.52,1.18.82.37.3.74.6,1.11.9.37.3.65.71,1.03,1.01.37.3,1.02.26,1.39.56.37.3.5.9.87,1.2.37.3.78.55,1.15.85.37.3.91.4,1.28.7.37.3.59.79.96,1.1.37.31.68.68,1.05.98.37.31.98.32,1.34.63.23.2.37.89.83,1.29.36.32.92.48,1.26.8.48.45,1.03.79,1.14,1.01.2.39-.03,1.01,0,1.57.02.49-.11,1-.13,1.51-.02.55.27,1.08.31,1.52.04.48.22.94.26,1.42.04.48-.02.96.02,1.43.04.48.07.95.12,1.43.04.48.09.96.13,1.43.04.48.08.96.12,1.43.04.48-.04.96,0,1.44.04.48.03.96.07,1.43.04.48.1.95.14,1.42.04.48.26.93.3,1.41.04.47-.28.98-.24,1.45.04.47.22.94.26,1.41.03.47.27.93.29,1.41.03.47.16.94.19,1.42.02.47.04.95.06,1.43.02.47-.25.96-.23,1.44.02.47.11.95.12,1.43.01.48.25.95.25,1.43,0,.47-.2.95-.2,1.43,0,.48.23.96.22,1.44,0,.48-.41.95-.42,1.43,0,.43.32.91.32,1.4,0,.45-.2.92-.2,1.4,0,.46.04.93.04,1.4,0,.47-.08.94-.09,1.4-.01.49.18.97.15,1.41-.03.5-.4.95-.45,1.36-.05.42.01.91-.25,1.32-.22.35-.67.59-1,.93-.3.32-.5.77-.84,1.08-.34.3-.89.35-1.24.63-.36.3-.46.91-.79,1.18-.39.32-.94.38-1.22.65-.34.33-.6.74-.93,1.07-.33.33-.51.82-.85,1.16-.33.34-.98.35-1.32.69-.33.34-.6.73-.93,1.07s-.69.65-1.01.99c-.33.34-.44.88-.77,1.23-.33.34-.9.45-1.22.79-.33.34-.42.91-.74,1.25-.33.34-.75.59-1.08.93-.33.34-.57.76-.9,1.1-.33.34-.73.61-1.06.95-.33.34-.66.67-1,1.01-.33.34-.6.74-.93,1.07-.33.34-.55.78-.88,1.12-.33.33-.94.39-1.28.72-.34.33-.55.78-.89,1.11-.34.33-.55.81-.89,1.14-.47.36-1.05.19-1.48.14-.5-.05-.78-.28-1.04-.73-.22-.38-.47-.79-.37-1.34.08-.42.43-.76.77-1.22.25-.33.21-.94.53-1.31.28-.33.71-.56,1.03-.91.3-.32.55-.71.88-1.04.31-.32.58-.7.9-1.02.32-.32.7-.59,1.02-.9.33-.32.64-.66.96-.97.34-.32.67-.63.98-.94.34-.34.68-.63.98-.94.35-.35.82-.58,1.17-.93.35-.35.51-.88.86-1.23.35-.35.71-.68,1.06-1.03.35-.35.75-.65,1.1-1,.35-.35.9-.49,1.25-.84.35-.34.48-.92.83-1.27.36-.34.87-.53,1.22-.87.36-.34.56-.85.91-1.19.35-.34,1.01-.37,1.37-.71.36-.34.44-.97.8-1.31.36-.34.75-.64,1.11-.98.33-.31,1.58-1.06,1.68-1.39.04-.48-.04-.99,0-1.47.04-.48-.24-.98-.21-1.46.03-.48.04-.96.06-1.44.02-.48.24-.95.25-1.43.02-.48.26-.96.27-1.44.01-.48-.43-.97-.42-1.45,0-.48.24-.96.24-1.44,0-.48.08-.96.08-1.45,0-.48.02-.96,0-1.44,0-.48-.03-.96-.04-1.45-.01-.48-.16-.96-.17-1.44-.02-.48.24-.97.22-1.45-.02-.48-.32-.95-.34-1.43-.02-.48-.17-.95-.2-1.43-.03-.48.29-.98.26-1.46-.03-.48-.07-.96-.1-1.44-.03-.48-.05-.96-.08-1.44-.04-.48-.37-.94-.41-1.42-.04-.48-.15-.95-.19-1.43-.04-.48.33-.99.29-1.48-.04-.48-.22-.95-.27-1.43-.04-.48-.24-.94-.28-1.42-.05-.48-.24-.94-.29-1.42-.05-.48.18-.99.13-1.46-.05-.48-.22-.95-.27-1.42-.05-.48.17-.99.12-1.47-.05-.48-.25-.97-.3-1.45-.35-.34-.88-.52-1.25-.84-.37-.32-.68-.69-1.06-1-.38-.31-.81-.54-1.2-.84-.38-.3-.68-.71-1.07-1-.39-.29-.66-.74-1.05-1.03-.39-.29-.97-.32-1.36-.61-.39-.29-.64-.76-1.03-1.06-.39-.29-.85-.49-1.23-.79-.38-.3-.81-.56-1.18-.87-.36-.31-.56-.82-.93-1.13-.36-.31-.68-.68-1.05-.99-.36-.31-1-.29-1.37-.61-.36-.31-.51-.89-.87-1.2-.37-.31-.93-.4-1.3-.71-.37-.31-.56-.83-.92-1.15-.37-.32-.79-.56-1.15-.88-.37-.32-.91-.43-1.27-.75-.37-.32-.71-.66-1.07-.98-.36-.33-.6-.78-.95-1.1-.32-.29-.51-.83-.86-1.22-.34-.39-.95-.64-1.04-1.09-.1-.44-.04-1.1.38-1.55"/><path d="M100.25,58.09c.19-.2.82-.23,1.3-.33.46-.09,1.08-.26,1.34-.09.35.29.49.84.85,1.13.35.29.64.66.99.95.36.28.88.35,1.24.63.36.28.8.46,1.16.74.36.28.71.57,1.07.85s.71.57,1.06.86c.35.29.73.55,1.07.85.36.31.73.62,1.09.93.37.31.48.91.85,1.22.37.3.81.52,1.18.82.37.3.74.6,1.11.9.37.3.65.71,1.03,1.01.37.3,1.02.26,1.39.56.37.3.5.9.87,1.2.37.3.78.55,1.15.85.37.3.91.4,1.28.7.37.3.59.79.96,1.1.37.31.68.68,1.05.98.37.31.98.32,1.34.63.23.2.37.89.83,1.29.36.32.92.48,1.26.8.48.45,1.03.79,1.14,1.01.2.39-.03,1.01,0,1.57.02.49-.11,1-.13,1.51-.02.55.27,1.08.31,1.52.04.48.22.94.26,1.42.04.48-.02.96.02,1.43.04.48.07.95.12,1.43.04.48.09.96.13,1.43.04.48.08.96.12,1.43.04.48-.04.96,0,1.44.04.48.03.96.07,1.43.04.48.1.95.14,1.42.04.48.26.93.3,1.41.04.47-.28.98-.24,1.45.04.47.22.94.26,1.41.03.47.27.93.29,1.41.03.47.16.94.19,1.42.02.47.04.95.06,1.43.02.47-.25.96-.23,1.44.02.47.11.95.12,1.43.01.48.25.95.25,1.43,0,.47-.2.95-.2,1.43,0,.48.23.96.22,1.44,0,.48-.41.95-.42,1.43,0,.43.32.91.32,1.4,0,.45-.2.92-.2,1.4,0,.46.04.93.04,1.4,0,.47-.08.94-.09,1.4-.01.49.18.97.15,1.41-.03.5-.4.95-.45,1.36-.05.42.01.91-.25,1.32-.22.35-.67.59-1,.93-.3.32-.5.77-.84,1.08-.34.3-.89.35-1.24.63-.36.3-.46.91-.79,1.18-.39.32-.94.38-1.22.65-.34.33-.6.74-.93,1.07-.33.33-.51.82-.85,1.16-.33.34-.98.35-1.32.69-.33.34-.6.73-.93,1.07s-.69.65-1.01.99c-.33.34-.44.88-.77,1.23-.33.34-.9.45-1.22.79-.33.34-.42.91-.74,1.25-.33.34-.75.59-1.08.93-.33.34-.57.76-.9,1.1-.33.34-.73.61-1.06.95-.33.34-.66.67-1,1.01-.33.34-.6.74-.93,1.07-.33.34-.55.78-.88,1.12-.33.33-.94.39-1.28.72-.34.33-.55.78-.89,1.11-.34.33-.55.81-.89,1.14-.47.36-1.05.19-1.48.14-.5-.05-.78-.28-1.04-.73-.22-.38-.47-.79-.37-1.34.08-.42.43-.76.77-1.22.25-.33.21-.94.53-1.31.28-.33.71-.56,1.03-.91.3-.32.55-.71.88-1.04.31-.32.58-.7.9-1.02.32-.32.7-.59,1.02-.9.33-.32.64-.66.96-.97.34-.32.67-.63.98-.94.34-.34.68-.63.98-.94.35-.35.82-.58,1.17-.93.35-.35.51-.88.86-1.23.35-.35.71-.68,1.06-1.03.35-.35.75-.65,1.1-1,.35-.35.9-.49,1.25-.84.35-.34.48-.92.83-1.27.36-.34.87-.53,1.22-.87.36-.34.56-.85.91-1.19.35-.34,1.01-.37,1.37-.71.36-.34.44-.97.8-1.31.36-.34.75-.64,1.11-.98.33-.31,1.58-1.06,1.68-1.39.04-.48-.04-.99,0-1.47.04-.48-.24-.98-.21-1.46.03-.48.04-.96.06-1.44.02-.48.24-.95.25-1.43.02-.48.26-.96.27-1.44.01-.48-.43-.97-.42-1.45,0-.48.24-.96.24-1.44,0-.48.08-.96.08-1.45,0-.48.02-.96,0-1.44,0-.48-.03-.96-.04-1.45-.01-.48-.16-.96-.17-1.44-.02-.48.24-.97.22-1.45-.02-.48-.32-.95-.34-1.43-.02-.48-.17-.95-.2-1.43-.03-.48.29-.98.26-1.46-.03-.48-.07-.96-.1-1.44-.03-.48-.05-.96-.08-1.44-.04-.48-.37-.94-.41-1.42-.04-.48-.15-.95-.19-1.43-.04-.48.33-.99.29-1.48-.04-.48-.22-.95-.27-1.43-.04-.48-.24-.94-.28-1.42-.05-.48-.24-.94-.29-1.42-.05-.48.18-.99.13-1.46-.05-.48-.22-.95-.27-1.42-.05-.48.17-.99.12-1.47-.05-.48-.25-.97-.3-1.45-.35-.34-.88-.52-1.25-.84-.37-.32-.68-.69-1.06-1-.38-.31-.81-.54-1.2-.84-.38-.3-.68-.71-1.07-1-.39-.29-.66-.74-1.05-1.03-.39-.29-.97-.32-1.36-.61-.39-.29-.64-.76-1.03-1.06-.39-.29-.85-.49-1.23-.79-.38-.3-.81-.56-1.18-.87-.36-.31-.56-.82-.93-1.13-.36-.31-.68-.68-1.05-.99-.36-.31-1-.29-1.37-.61-.36-.31-.51-.89-.87-1.2-.37-.31-.93-.4-1.3-.71-.37-.31-.56-.83-.92-1.15-.37-.32-.79-.56-1.15-.88-.37-.32-.91-.43-1.27-.75-.37-.32-.71-.66-1.07-.98-.36-.33-.6-.78-.95-1.1-.32-.29-.51-.83-.86-1.22-.34-.39-.95-.64-1.04-1.09-.1-.44-.04-1.1.38-1.55"/><path d="M110.61,75.52c.42.35.34.79.28,1.29-.05.43-.14.86-.41,1.33-.23.4-.51.8-.82,1.19-.31.39-.6.8-.9,1.14-.39.43-.76.79-1,1.06-.33.36-.46.91-.8,1.26-.34.35-.9.48-1.26.82-.35.34-.6.79-.96,1.12-.36.33-.62.77-.98,1.1-.36.33-.78.61-1.14.94-.36.33-1.03.47-1.38.8,0,.46.25,1.02.25,1.49,0,.46-.15.93-.15,1.39,0,.46-.14.92-.15,1.39,0,.46.3.93.29,1.4-.01.46.14.93.13,1.39-.01.46-.23.92-.24,1.38-.01.46-.03.93-.04,1.39-.01.46.08.93.07,1.39,0,.46-.17.93-.17,1.39,0,.46.25.93.26,1.39,0,.46-.28.93-.27,1.39.01.46.19.92.21,1.38.02.45-.16.91-.12,1.36.04.45.06.9.11,1.35.06.45.3.87.36,1.31.06.45-.07.92-.02,1.36.05.45.12.89.15,1.33.04.55.16,1.1.14,1.66-.01.55-.05,1.11-.05,1.66,0,.55.15,1.09.2,1.65.03.1.44.29.99.76.3.25.41.84.79,1.14.33.27.9.29,1.26.57.36.28.59.72.93.98.38.3.74.58,1.05.82.48.38,1.03.49,1.21.64.25.22.42.84.89,1.26.35.32.85.54,1.22.9.37.37.7.78,1,1.13.43.5.88.94.92,1.25.07.5-.17,1.23-.54,1.67-.38.44-1.07.77-1.59.73-.28-.02-.56-.59-1.07-.95-.33-.24-.92-.24-1.3-.56-.34-.28-.73-.55-1.08-.86-.35-.31-.63-.69-.96-.99-.36-.33-.68-.68-.98-.97-.42-.4-.58-.94-.82-1.15-.27-.23-.8-.43-1.29-.8-.37-.28-.85-.5-1.26-.82-.4-.31-.74-.71-1.12-1.02-.42-.34-.94-.54-1.27-.85-.47-.46-.74-.98-.84-1.29-.05-.47-.2-.94-.24-1.41-.04-.47-.02-.95-.06-1.42-.04-.47.08-.96.05-1.43-.04-.47-.16-.94-.19-1.41-.03-.47.06-.95.03-1.42-.03-.47-.21-.93-.24-1.41-.02-.47-.2-.94-.22-1.41-.02-.47.21-.95.2-1.43-.02-.47.15-.95.14-1.42-.01-.47-.42-.93-.43-1.41-.01-.47.15-.95.14-1.42,0-.47.22-.95.22-1.42,0-.47-.16-.94-.17-1.41s-.09-.94-.09-1.42c0-.47.04-.94.04-1.42,0-.47-.12-.95-.12-1.42,0-.47.15-.94.15-1.42,0-.5.13-.99.18-1.51.05-.5-.23-1.03-.19-1.54.03-.49.07-.98.04-1.5-.02-.35-.05-.69-.15-1.04-.11-.39-.06-.78-.04-1.08.03-.42.15-.96.54-1.43.31-.37.7-.74,1.11-1.1.39-.35.83-.66,1.21-.98.47-.38,1.05-.56,1.33-.83.33-.32.49-.82.81-1.14.33-.32.73-.57,1.05-.9.32-.33.71-.6,1.03-.93.32-.33.58-.72.9-1.05.32-.33.7-.6,1.02-.94.32-.34.46-.83.77-1.17.31-.34.84-.44,1.15-.79.33-.23.63-.47,1.08-.45.46.01.91.08,1.22.35"/><path d="M110.61,75.52c.42.35.34.79.28,1.29-.05.43-.14.86-.41,1.33-.23.4-.51.8-.82,1.19-.31.39-.6.8-.9,1.14-.39.43-.76.79-1,1.06-.33.36-.46.91-.8,1.26-.34.35-.9.48-1.26.82-.35.34-.6.79-.96,1.12-.36.33-.62.77-.98,1.1-.36.33-.78.61-1.14.94-.36.33-1.03.47-1.38.8,0,.46.25,1.02.25,1.49,0,.46-.15.93-.15,1.39,0,.46-.14.92-.15,1.39,0,.46.3.93.29,1.4-.01.46.14.93.13,1.39-.01.46-.23.92-.24,1.38-.01.46-.03.93-.04,1.39-.01.46.08.93.07,1.39,0,.46-.17.93-.17,1.39,0,.46.25.93.26,1.39,0,.46-.28.93-.27,1.39.01.46.19.92.21,1.38.02.45-.16.91-.12,1.36.04.45.06.9.11,1.35.06.45.3.87.36,1.31.06.45-.07.92-.02,1.36.05.45.12.89.15,1.33.04.55.16,1.1.14,1.66-.01.55-.05,1.11-.05,1.66,0,.55.15,1.09.2,1.65.03.1.44.29.99.76.3.25.41.84.79,1.14.33.27.9.29,1.26.57.36.28.59.72.93.98.38.3.74.58,1.05.82.48.38,1.03.49,1.21.64.25.22.42.84.89,1.26.35.32.85.54,1.22.9.37.37.7.78,1,1.13.43.5.88.94.92,1.25.07.5-.17,1.23-.54,1.67-.38.44-1.07.77-1.59.73-.28-.02-.56-.59-1.07-.95-.33-.24-.92-.24-1.3-.56-.34-.28-.73-.55-1.08-.86-.35-.31-.63-.69-.96-.99-.36-.33-.68-.68-.98-.97-.42-.4-.58-.94-.82-1.15-.27-.23-.8-.43-1.29-.8-.37-.28-.85-.5-1.26-.82-.4-.31-.74-.71-1.12-1.02-.42-.34-.94-.54-1.27-.85-.47-.46-.74-.98-.84-1.29-.05-.47-.2-.94-.24-1.41-.04-.47-.02-.95-.06-1.42-.04-.47.08-.96.05-1.43-.04-.47-.16-.94-.19-1.41-.03-.47.06-.95.03-1.42-.03-.47-.21-.93-.24-1.41-.02-.47-.2-.94-.22-1.41-.02-.47.21-.95.2-1.43-.02-.47.15-.95.14-1.42-.01-.47-.42-.93-.43-1.41-.01-.47.15-.95.14-1.42,0-.47.22-.95.22-1.42,0-.47-.16-.94-.17-1.41s-.09-.94-.09-1.42c0-.47.04-.94.04-1.42,0-.47-.12-.95-.12-1.42,0-.47.15-.94.15-1.42,0-.5.13-.99.18-1.51.05-.5-.23-1.03-.19-1.54.03-.49.07-.98.04-1.5-.02-.35-.05-.69-.15-1.04-.11-.39-.06-.78-.04-1.08.03-.42.15-.96.54-1.43.31-.37.7-.74,1.11-1.1.39-.35.83-.66,1.21-.98.47-.38,1.05-.56,1.33-.83.33-.32.49-.82.81-1.14.33-.32.73-.57,1.05-.9.32-.33.71-.6,1.03-.93.32-.33.58-.72.9-1.05.32-.33.7-.6,1.02-.94.32-.34.46-.83.77-1.17.31-.34.84-.44,1.15-.79.33-.23.63-.47,1.08-.45.46.01.91.08,1.22.35"/><path d="M72.68,65.76c.57-.44.64-.35,1.23-.76.6-.41.61-.4,1.2-.81.6-.41.56-.46,1.15-.88.6-.41.66-.32,1.26-.74.6-.41.46-.61,1.06-1.02.6-.42.68-.29,1.28-.71.6-.42.61-.39,1.21-.81.6-.41.42-.67,1.01-1.09.6-.41.54-.49,1.14-.9.6-.42.64-.35,1.24-.77.6-.42.68-.29,1.28-.71.6-.42.72-.24,1.31-.65.6-.42.52-.53,1.11-.94.6-.42.43-.65,1.03-1.07.6-.41.67-.31,1.27-.72.6-.42.59-.43,1.19-.85.6-.41.53-.51,1.12-.93.6-.42.67-.31,1.26-.73.6-.42.53-.51,1.12-.93.6-.42.81-.12,1.4-.53.6-.42.51-.54,1.11-.96.6-.42.66-.32,1.26-.74.6-.42.51-.54,1.11-.96.6-.42.66-.32,1.26-.74.6-.42.64-.36,1.23-.78.6-.42.64-.35,1.24-.77.6-.42.57-.46,1.17-.88.6-.42.44-.64,1.04-1.07.44-.33.98-.41,1.42-.56.54-.19,1.03-.36,1.47-.32.6.06,1.12.32,1.31.73.17.37.11.91-.25,1.49-.22.35-.46.88-.93,1.28-.58.44-.68.31-1.27.73-.59.42-.68.3-1.27.72-.59.42-.59.43-1.18.85-.59.42-.52.52-1.11.94-.59.42-.63.37-1.22.79-.59.42-.52.53-1.11.95-.59.42-.65.33-1.25.75-.59.42-.48.57-1.07.99-.59.42-.86.04-1.45.47-.59.42-.35.76-.95,1.18-.59.42-.72.24-1.32.66-.59.42-.66.32-1.26.74s-.53.51-1.12.93c-.59.42-.63.38-1.22.8-.59.42-.46.6-1.06,1.02-.59.42-.53.51-1.13.93-.59.42-.61.39-1.2.81-.59.42-.8.12-1.4.55-.59.42-.44.63-1.03,1.05-.59.42-.76.18-1.36.6-.59.42-.54.5-1.14.92-.59.42-.55.49-1.14.91-.59.42-.51.54-1.1.96-.59.42-.68.31-1.27.73-.59.42-.53.51-1.12.94-.59.42-.54.5-1.14.92-.6.42-.8.14-1.4.56-.6.42-.42.64-.96,1.14-.16.39-.36.66-.4,1.08-.04.48.19.99.16,1.49-.03.49-.06.97-.08,1.47-.02.49-.22.97-.23,1.46-.01.49,0,.98-.01,1.48,0,.49-.14.98-.14,1.48,0,.49.13.98.13,1.48,0,.49-.15.99-.15,1.48,0,.49-.07.99-.07,1.48,0,.49.11.99.12,1.48,0,.5.13.99.14,1.48,0,.5-.25.99-.25,1.48,0,.5.11.99.11,1.48,0,.5.17.99.16,1.48,0,.5.16,1,.16,1.49,0,.5-.44.99-.44,1.49,0,.5.4,1,.39,1.49,0,.5.01.99.01,1.49,0,.5-.37.99-.37,1.49,0,.5-.07.99-.07,1.49,0,.5.32.99.32,1.49s-.27.99-.27,1.49c0,.49.08.99.09,1.49,0,.49.09.99.1,1.49,0,.49.17.99.18,1.48,0,.5.05.99.06,1.49s-.28.99-.27,1.49c0,.5.2.99.21,1.49,0,.48-.1.96-.1,1.44,0,.48-.12.96-.12,1.44s.21.96.21,1.44c0,.48-.25.96-.25,1.44,0,.48-.11.96-.11,1.44s.29.96.29,1.44-.21.96-.2,1.44c0,.48,0,.96,0,1.44,0,.48-.03.96-.02,1.44,0,.48.45.95.47,1.43.01.48-.41.97-.39,1.45.02.48.41.94.44,1.42s.08.95.12,1.43c.03.48-.22.98-.18,1.46.04.48.08,1,.13,1.47.36.31.69.74,1.05,1.05.37.31,1.02.28,1.39.58.37.3.63.74,1.01,1.04.37.3.74.61,1.12.9.38.3.72.64,1.1.93.38.29.72.63,1.1.93.38.29.78.55,1.17.84.38.29.85.46,1.23.75.38.29.61.79.99,1.08.38.29.79.54,1.17.83.38.29.75.61,1.13.89.38.29.92.37,1.31.65.38.29.61.78,1,1.07.38.29,1.01.25,1.4.54.38.29.52.9.9,1.19.38.29,1,.27,1.38.57.38.29.49.93.86,1.23.36.28.81.45,1.18.74.36.28.92.31,1.29.59.36.28.62.7.99.99.36.28.81.45,1.18.73.37.28.63.7.99.98.37.28.59.75.95,1.03.37.29.82.46,1.17.75.36.29.92.35,1.27.64.36.3.65.68.99.98.36.31.59.75.92,1.05.34.31.53.72.79,1.01.31.35.58.56.6.99.01.35.05.76-.25,1.22-.35.54-.84.52-1.28.58-.47.06-.86.01-1.36-.25-.43-.23-.99-.34-1.39-.66-.44-.34-.85-.68-1.19-.94-.38-.29-.76-.56-1.14-.85-.38-.29-.68-.67-1.05-.96-.38-.29-.82-.49-1.19-.78-.37-.29-.54-.85-.91-1.14-.37-.29-.97-.29-1.34-.59-.37-.29-.63-.73-1-1.03-.37-.29-.79-.53-1.16-.82-.37-.29-.68-.67-1.05-.96s-.94-.34-1.31-.64c-.37-.29-.51-.88-.88-1.18-.37-.3-.76-.56-1.13-.86-.37-.3-.95-.33-1.32-.63-.37-.3-.57-.8-.94-1.1-.37-.3-.84-.46-1.21-.76-.37-.29-.75-.58-1.12-.87-.37-.29-.71-.62-1.08-.92-.37-.29-.59-.78-.96-1.07-.37-.29-.72-.62-1.09-.91-.37-.29-.82-.49-1.2-.78-.37-.29-.82-.48-1.2-.77-.38-.29-.62-.75-1-1.03-.38-.29-.73-.61-1.1-.9-.38-.29-.95-.31-1.33-.6-.38-.28-.57-.82-.95-1.1-.38-.28-.91-.35-1.3-.63-.38-.28-.81-.5-1.2-.78-.32-.3-.51-.75-.68-1.2-.15-.39-.17-.85-.24-1.32-.06-.43-.4-.87-.42-1.33-.01-.45.17-.91.18-1.36.01-.46.23-.91.24-1.34.02-.49.02-.95,0-1.35-.02-.49-.32-.96-.34-1.45-.02-.49.26-.98.25-1.46s-.2-.97-.21-1.45c-.01-.49.27-.98.25-1.46-.01-.49-.35-.96-.36-1.45,0-.49.07-.97.07-1.46,0-.49,0-.97-.01-1.46,0-.49.11-.97.1-1.46,0-.49-.24-.97-.24-1.45,0-.49.26-.97.26-1.46,0-.49-.31-.97-.31-1.45,0-.49-.11-.97-.11-1.46s.16-.97.16-1.46c0-.49.28-.97.28-1.46,0-.49-.05-.97-.05-1.46,0-.49-.09-.97-.09-1.46s.02-.97.02-1.46c0-.49.15-.97.16-1.45,0-.49-.25-.97-.25-1.46,0-.49,0-.97.01-1.46,0-.49.14-.97.15-1.45,0-.49.2-.97.2-1.45,0-.49-.48-.98-.47-1.46,0-.49.12-.97.13-1.45,0-.49.15-.97.16-1.45,0-.49-.18-.97-.17-1.46.01-.49.44-.96.45-1.45,0-.49-.04-.97-.03-1.46,0-.47-.14-.96-.14-1.44,0-.48-.18-.95-.19-1.44,0-.47-.06-.95-.07-1.43,0-.48.19-.96.18-1.44-.01-.48-.18-.96-.19-1.44,0-.48-.04-.96-.04-1.44,0-.48.34-.96.34-1.44,0-.48.09-.96.09-1.44,0-.48-.15-.96-.13-1.44.01-.48.16-.95.19-1.43.02-.32-.35-.84-.29-1.39.05-.43.46-.85.53-1.31.07-.47.09-.93.19-1.35.14-.56.27-.99.46-1.22"/><path d="M100.25,58.09c.19-.2.82-.23,1.3-.33.46-.09,1.08-.26,1.34-.09.35.29.49.84.85,1.13.35.29.64.66.99.95.36.28.88.35,1.24.63.36.28.8.46,1.16.74.36.28.71.57,1.07.85s.71.57,1.06.86c.35.29.73.55,1.07.85.36.31.73.62,1.09.93.37.31.48.91.85,1.22.37.3.81.52,1.18.82.37.3.74.6,1.11.9.37.3.65.71,1.03,1.01.37.3,1.02.26,1.39.56.37.3.5.9.87,1.2.37.3.78.55,1.15.85.37.3.91.4,1.28.7.37.3.59.79.96,1.1.37.31.68.68,1.05.98.37.31.98.32,1.34.63.23.2.37.89.83,1.29.36.32.92.48,1.26.8.48.45,1.03.79,1.14,1.01.2.39-.03,1.01,0,1.57.02.49-.11,1-.13,1.51-.02.55.27,1.08.31,1.52.04.48.22.94.26,1.42.04.48-.02.96.02,1.43.04.48.07.95.12,1.43.04.48.09.96.13,1.43.04.48.08.96.12,1.43.04.48-.04.96,0,1.44.04.48.03.96.07,1.43.04.48.1.95.14,1.42.04.48.26.93.3,1.41.04.47-.28.98-.24,1.45.04.47.22.94.26,1.41.03.47.27.93.29,1.41.03.47.16.94.19,1.42.02.47.04.95.06,1.43.02.47-.25.96-.23,1.44.02.47.11.95.12,1.43.01.48.25.95.25,1.43,0,.47-.2.95-.2,1.43,0,.48.23.96.22,1.44,0,.48-.41.95-.42,1.43,0,.43.32.91.32,1.4,0,.45-.2.92-.2,1.4,0,.46.04.93.04,1.4,0,.47-.08.94-.09,1.4-.01.49.18.97.15,1.41-.03.5-.4.95-.45,1.36-.05.42.01.91-.25,1.32-.22.35-.67.59-1,.93-.3.32-.5.77-.84,1.08-.34.3-.89.35-1.24.63-.36.3-.46.91-.79,1.18-.39.32-.94.38-1.22.65-.34.33-.6.74-.93,1.07-.33.33-.51.82-.85,1.16-.33.34-.98.35-1.32.69-.33.34-.6.73-.93,1.07s-.69.65-1.01.99c-.33.34-.44.88-.77,1.23-.33.34-.9.45-1.22.79-.33.34-.42.91-.74,1.25-.33.34-.75.59-1.08.93-.33.34-.57.76-.9,1.1-.33.34-.73.61-1.06.95-.33.34-.66.67-1,1.01-.33.34-.6.74-.93,1.07-.33.34-.55.78-.88,1.12-.33.33-.94.39-1.28.72-.34.33-.55.78-.89,1.11-.34.33-.55.81-.89,1.14-.47.36-1.05.19-1.48.14-.5-.05-.78-.28-1.04-.73-.22-.38-.47-.79-.37-1.34.08-.42.43-.76.77-1.22.25-.33.21-.94.53-1.31.28-.33.71-.56,1.03-.91.3-.32.55-.71.88-1.04.31-.32.58-.7.9-1.02.32-.32.7-.59,1.02-.9.33-.32.64-.66.96-.97.34-.32.67-.63.98-.94.34-.34.68-.63.98-.94.35-.35.82-.58,1.17-.93.35-.35.51-.88.86-1.23.35-.35.71-.68,1.06-1.03.35-.35.75-.65,1.1-1,.35-.35.9-.49,1.25-.84.35-.34.48-.92.83-1.27.36-.34.87-.53,1.22-.87.36-.34.56-.85.91-1.19.35-.34,1.01-.37,1.37-.71.36-.34.44-.97.8-1.31.36-.34.75-.64,1.11-.98.33-.31,1.58-1.06,1.68-1.39.04-.48-.04-.99,0-1.47.04-.48-.24-.98-.21-1.46.03-.48.04-.96.06-1.44.02-.48.24-.95.25-1.43.02-.48.26-.96.27-1.44.01-.48-.43-.97-.42-1.45,0-.48.24-.96.24-1.44,0-.48.08-.96.08-1.45,0-.48.02-.96,0-1.44,0-.48-.03-.96-.04-1.45-.01-.48-.16-.96-.17-1.44-.02-.48.24-.97.22-1.45-.02-.48-.32-.95-.34-1.43-.02-.48-.17-.95-.2-1.43-.03-.48.29-.98.26-1.46-.03-.48-.07-.96-.1-1.44-.03-.48-.05-.96-.08-1.44-.04-.48-.37-.94-.41-1.42-.04-.48-.15-.95-.19-1.43-.04-.48.33-.99.29-1.48-.04-.48-.22-.95-.27-1.43-.04-.48-.24-.94-.28-1.42-.05-.48-.24-.94-.29-1.42-.05-.48.18-.99.13-1.46-.05-.48-.22-.95-.27-1.42-.05-.48.17-.99.12-1.47-.05-.48-.25-.97-.3-1.45-.35-.34-.88-.52-1.25-.84-.37-.32-.68-.69-1.06-1-.38-.31-.81-.54-1.2-.84-.38-.3-.68-.71-1.07-1-.39-.29-.66-.74-1.05-1.03-.39-.29-.97-.32-1.36-.61-.39-.29-.64-.76-1.03-1.06-.39-.29-.85-.49-1.23-.79-.38-.3-.81-.56-1.18-.87-.36-.31-.56-.82-.93-1.13-.36-.31-.68-.68-1.05-.99-.36-.31-1-.29-1.37-.61-.36-.31-.51-.89-.87-1.2-.37-.31-.93-.4-1.3-.71-.37-.31-.56-.83-.92-1.15-.37-.32-.79-.56-1.15-.88-.37-.32-.91-.43-1.27-.75-.37-.32-.71-.66-1.07-.98-.36-.33-.6-.78-.95-1.1-.32-.29-.51-.83-.86-1.22-.34-.39-.95-.64-1.04-1.09-.1-.44-.04-1.1.38-1.55"/><path d="M110.61,75.52c.42.35.34.79.28,1.29-.05.43-.14.86-.41,1.33-.23.4-.51.8-.82,1.19-.31.39-.6.8-.9,1.14-.39.43-.76.79-1,1.06-.33.36-.46.91-.8,1.26-.34.35-.9.48-1.26.82-.35.34-.6.79-.96,1.12-.36.33-.62.77-.98,1.1-.36.33-.78.61-1.14.94-.36.33-1.03.47-1.38.8,0,.46.25,1.02.25,1.49,0,.46-.15.93-.15,1.39,0,.46-.14.92-.15,1.39,0,.46.3.93.29,1.4-.01.46.14.93.13,1.39-.01.46-.23.92-.24,1.38-.01.46-.03.93-.04,1.39-.01.46.08.93.07,1.39,0,.46-.17.93-.17,1.39,0,.46.25.93.26,1.39,0,.46-.28.93-.27,1.39.01.46.19.92.21,1.38.02.45-.16.91-.12,1.36.04.45.06.9.11,1.35.06.45.3.87.36,1.31.06.45-.07.92-.02,1.36.05.45.12.89.15,1.33.04.55.16,1.1.14,1.66-.01.55-.05,1.11-.05,1.66,0,.55.15,1.09.2,1.65.03.1.44.29.99.76.3.25.41.84.79,1.14.33.27.9.29,1.26.57.36.28.59.72.93.98.38.3.74.58,1.05.82.48.38,1.03.49,1.21.64.25.22.42.84.89,1.26.35.32.85.54,1.22.9.37.37.7.78,1,1.13.43.5.88.94.92,1.25.07.5-.17,1.23-.54,1.67-.38.44-1.07.77-1.59.73-.28-.02-.56-.59-1.07-.95-.33-.24-.92-.24-1.3-.56-.34-.28-.73-.55-1.08-.86-.35-.31-.63-.69-.96-.99-.36-.33-.68-.68-.98-.97-.42-.4-.58-.94-.82-1.15-.27-.23-.8-.43-1.29-.8-.37-.28-.85-.5-1.26-.82-.4-.31-.74-.71-1.12-1.02-.42-.34-.94-.54-1.27-.85-.47-.46-.74-.98-.84-1.29-.05-.47-.2-.94-.24-1.41-.04-.47-.02-.95-.06-1.42-.04-.47.08-.96.05-1.43-.04-.47-.16-.94-.19-1.41-.03-.47.06-.95.03-1.42-.03-.47-.21-.93-.24-1.41-.02-.47-.2-.94-.22-1.41-.02-.47.21-.95.2-1.43-.02-.47.15-.95.14-1.42-.01-.47-.42-.93-.43-1.41-.01-.47.15-.95.14-1.42,0-.47.22-.95.22-1.42,0-.47-.16-.94-.17-1.41s-.09-.94-.09-1.42c0-.47.04-.94.04-1.42,0-.47-.12-.95-.12-1.42,0-.47.15-.94.15-1.42,0-.5.13-.99.18-1.51.05-.5-.23-1.03-.19-1.54.03-.49.07-.98.04-1.5-.02-.35-.05-.69-.15-1.04-.11-.39-.06-.78-.04-1.08.03-.42.15-.96.54-1.43.31-.37.7-.74,1.11-1.1.39-.35.83-.66,1.21-.98.47-.38,1.05-.56,1.33-.83.33-.32.49-.82.81-1.14.33-.32.73-.57,1.05-.9.32-.33.71-.6,1.03-.93.32-.33.58-.72.9-1.05.32-.33.7-.6,1.02-.94.32-.34.46-.83.77-1.17.31-.34.84-.44,1.15-.79.33-.23.63-.47,1.08-.45.46.01.91.08,1.22.35"/></svg>