<?xml version="1.0" encoding="UTF-8"?><svg id="Layer_1" xmlns="http://www.w3.org/2000/svg" viewBox="0 0 200 200"><path d="M100.8,44.35c-.52.07-1.09-.03-1.59.14-.49.16-.98.41-1.45.65-.46.24-.71.82-1.14,1.13-.42.3-1.14.25-1.53.61-.38.35-.76.76-1.11,1.16-.34.4-.31,1.09-.6,1.52-.29.43-.92.68-1.16,1.14-.24.47-.49.96-.67,1.45-.19.49-.2,1.06-.32,1.57-.12.51.09,1.07.05,1.59-.05.53-.36,1.04-.32,1.56.04.52.44.98.57,1.49.13.5.06,1.07.28,1.54.22.47.55.87.87,1.31.3.41.71.72,1.1,1.09.43.41.67.91,1.06,1.16.47.32,1,.32,1.48.45.47.13.93.47,1.49.48.47,0,.98-.17,1.56-.22.53-.04,1.04-.07,1.52-.17.52-.1,1.04-.16,1.51-.33.5-.17,1.06-.23,1.5-.46.46-.24.91-.56,1.31-.86.41-.31.63-.86.98-1.23.35-.37.84-.65,1.13-1.07.28-.42.53-.9.75-1.36.21-.46.13-1.03.28-1.53.15-.48.61-.9.69-1.41.08-.49-.22-1.04-.2-1.56.02-.5.34-1.01.31-1.53-.03-.5-.01-1.04-.09-1.55-.08-.5-.3-.99-.42-1.49-.13-.52-.34-1-.52-1.44-.19-.5-.6-.86-.85-1.27-.28-.45-.3-1.1-.65-1.44-.37-.35-.84-.68-1.29-.91-.44-.22-1.05,0-1.57-.09-.47-.09-.93-.26-1.47-.25-.48,0-.97.06-1.51.14M103.37,40.02c.53-.08,1.01.11,1.43.12.53,0,.93.05,1.34.22.42.16,1,.11,1.4.45.32.28.3.96.65,1.36.35.39.66.77.96,1.18.31.42.96.59,1.23,1.03.27.44.16,1.09.38,1.55.23.46.41.92.6,1.4.19.48.49.91.63,1.4.14.5.56.93.66,1.43.1.51-.13,1.07-.07,1.58.05.51.41,1.02.42,1.53,0,.52-.27,1.03-.31,1.54-.04.51-.03,1.04-.12,1.54-.09.51-.11,1.04-.25,1.54-.14.5-.52.92-.71,1.39-.19.48-.2,1.05-.44,1.5-.24.46-.75.75-1.04,1.18-.29.43-.48.92-.81,1.31-.33.39-.72.73-1.1,1.09-.37.35-.81.62-1.23.92-.41.3-.91.44-1.36.7-.44.25-.86.51-1.34.72-.46.2-.84.64-1.34.8-.48.15-1.03.08-1.54.19-.49.1-.98.21-1.51.27-.51.06-.98.38-1.44.39-.51.02-.99-.34-1.45-.38-.51-.04-1.04.25-1.5.14-.49-.11-.85-.56-1.29-.75-.44-.19-.8-.47-1.21-.74-.39-.26-.82-.45-1.19-.8-.34-.32-.72-.62-1.05-1.01-.3-.36-.76-.62-1.06-1.04-.3-.43-.25-1.07-.5-1.52-.25-.46-.47-.91-.66-1.38-.2-.49-.76-.85-.89-1.34-.14-.51-.12-1.06-.2-1.57-.08-.52-.19-1.04-.2-1.56-.01-.52-.06-1.06-.01-1.58.05-.52.26-1.03.37-1.54.1-.51.13-1.05.29-1.55.16-.49.47-.94.68-1.42.21-.47.27-1.04.52-1.49.25-.45.65-.83.95-1.26.29-.42.53-.91.87-1.32.33-.4.77-.72,1.14-1.09.39-.39.88-.64,1.26-.97.42-.36.79-.73,1.2-1.02.44-.31.92-.54,1.37-.79.47-.26.98-.38,1.46-.58.48-.2.92-.49,1.43-.65.49-.15.99-.3,1.51-.43.5-.12,1.01-.21,1.55-.31.5-.09,1-.3,1.54-.38"/><path d="M100.8,44.35c-.52.07-1.09-.03-1.59.14-.49.16-.98.41-1.45.65-.46.24-.71.82-1.14,1.13-.42.3-1.14.25-1.53.61-.38.35-.76.76-1.11,1.16-.34.4-.31,1.09-.6,1.52-.29.43-.92.68-1.16,1.14-.24.47-.49.96-.67,1.45-.19.49-.2,1.06-.32,1.57-.12.51.09,1.07.05,1.59-.05.53-.36,1.04-.32,1.56.04.52.44.98.57,1.49.13.5.06,1.07.28,1.54.22.47.55.87.87,1.31.3.41.71.72,1.1,1.09.43.41.67.91,1.06,1.16.47.32,1,.32,1.48.45.47.13.93.47,1.49.48.47,0,.98-.17,1.56-.22.53-.04,1.04-.07,1.52-.17.52-.1,1.04-.16,1.51-.33.5-.17,1.06-.23,1.5-.46.46-.24.91-.56,1.31-.86.41-.31.63-.86.98-1.23.35-.37.84-.65,1.13-1.07.28-.42.53-.9.75-1.36.21-.46.13-1.03.28-1.53.15-.48.61-.9.69-1.41.08-.49-.22-1.04-.2-1.56.02-.5.34-1.01.31-1.53-.03-.5-.01-1.04-.09-1.55-.08-.5-.3-.99-.42-1.49-.13-.52-.34-1-.52-1.44-.19-.5-.6-.86-.85-1.27-.28-.45-.3-1.1-.65-1.44-.37-.35-.84-.68-1.29-.91-.44-.22-1.05,0-1.57-.09-.47-.09-.93-.26-1.47-.25-.48,0-.97.06-1.51.14M103.37,40.02c.53-.08,1.01.11,1.43.12.53,0,.93.05,1.34.22.42.16,1,.11,1.4.45.32.28.3.96.65,1.36.35.39.66.77.96,1.18.31.42.96.59,1.23,1.03.27.44.16,1.09.38,1.55.23.46.41.92.6,1.4.19.48.49.91.63,1.4.14.5.56.93.66,1.43.1.51-.13,1.07-.07,1.58.05.51.41,1.02.42,1.53,0,.52-.27,1.03-.31,1.54-.04.51-.03,1.04-.12,1.54-.09.51-.11,1.04-.25,1.54-.14.5-.52.92-.71,1.39-.19.48-.2,1.05-.44,1.5-.24.46-.75.75-1.04,1.18-.29.43-.48.92-.81,1.31-.33.39-.72.73-1.1,1.09-.37.35-.81.62-1.23.92-.41.3-.91.44-1.36.7-.44.25-.86.51-1.34.72-.46.2-.84.64-1.34.8-.48.15-1.03.08-1.54.19-.49.1-.98.21-1.51.27-.51.06-.98.38-1.44.39-.51.02-.99-.34-1.45-.38-.51-.04-1.04.25-1.5.14-.49-.11-.85-.56-1.29-.75-.44-.19-.8-.47-1.21-.74-.39-.26-.82-.45-1.19-.8-.34-.32-.72-.62-1.05-1.01-.3-.36-.76-.62-1.06-1.04-.3-.43-.25-1.07-.5-1.52-.25-.46-.47-.91-.66-1.38-.2-.49-.76-.85-.89-1.34-.14-.51-.12-1.06-.2-1.57-.08-.52-.19-1.04-.2-1.56-.01-.52-.06-1.06-.01-1.58.05-.52.26-1.03.37-1.54.1-.51.13-1.05.29-1.55.16-.49.47-.94.68-1.42.21-.47.27-1.04.52-1.49.25-.45.65-.83.95-1.26.29-.42.53-.91.87-1.32.33-.4.77-.72,1.14-1.09.39-.39.88-.64,1.26-.97.42-.36.79-.73,1.2-1.02.44-.31.92-.54,1.37-.79.47-.26.98-.38,1.46-.58.48-.2.92-.49,1.43-.65.49-.15.99-.3,1.51-.43.5-.12,1.01-.21,1.55-.31.5-.09,1-.3,1.54-.38"/><path d="M107.5,101.06c-.41.29-.93.39-1.38.62-.44.23-.76.75-1.23.94-.46.18-.99.26-1.48.39-.48.14-1.02.06-1.52.15-.49.09-.97.36-1.47.41-.5.05-1.02-.29-1.52-.29-.5,0-1.01.21-1.51.17-.5-.05-1.01-.07-1.5-.17-.5-.1-.91-.49-1.38-.64-.48-.15-1.12.12-1.58-.08-.46-.21-.72-.8-1.15-1.06-.43-.26-.81-.55-1.2-.87-.46-.37-1.09-.59-1.47-1.06-.39-.49-.72-1-1.11-1.38-.07-.07-.2,0-.35-.25-.14-.23-.34-.37-.43-.56-.25-.47-.37-1.02-.57-1.52-.19-.49-.31-1.03-.44-1.55-.13-.51-.19-1.05-.27-1.58-.08-.53-.29-1.05-.31-1.59-.02-.53.38-1.06.41-1.59.03-.53-.31-1.11-.22-1.64.09-.53.65-.94.8-1.45.15-.51.12-1.07.34-1.56.21-.49.24-1.09.51-1.55.27-.45,1.01-.59,1.35-1.01.33-.41.36-1.1.75-1.47.34-.32,1-.48,1.57-.8.5-.28,1.05-.45,1.59-.6.61-.18,1.17-.4,1.67-.28.54.13,1.04.47,1.25,1.14.18.58.07,1.14-.22,1.52-.29.37-.73.77-1.18,1.01-.49.27-.97.5-1.29.71-.42.28-.79.53-1.13.9-.34.36-1,.5-1.26.93-.25.42-.18,1.03-.36,1.51-.17.46-.58.88-.68,1.37-.1.49.04,1.02,0,1.53-.03.5.08.99.11,1.49.03.5-.29,1.05-.2,1.54.09.49.4.95.56,1.43.16.48.3.98.52,1.42.23.45.47.92.76,1.32.3.41.68.77,1.05,1.11.37.34.7.79,1.13,1.05.4.23.97.27,1.48.44.46.15.98.11,1.5.21.48.09.96.34,1.46.39.5.04,1.01-.15,1.51-.15.51,0,1.02.14,1.51.08.52-.06,1.08.06,1.54-.07.52-.14.88-.63,1.29-.86.48-.26.88-.59,1.3-.92.43-.33.8-.7,1.16-1.09.37-.4.77-.74,1.08-1.19.3-.45.82-.79,1.05-1.27.23-.48.48-1.01.64-1.52.16-.51.11-1.11.19-1.64.09-.53-.11-1.08-.1-1.62,0-.54.03-1.06-.04-1.59-.08-.53.1-1.13-.06-1.65-.16-.51-.59-.93-.84-1.41-.24-.47-.62-.85-.95-1.29-.31-.41-.62-.75-.97-1.05-.41-.34-.66-.79-.93-1.13-.29-.38-.75-.82-.61-1.39.09-.36.56-.72.91-1.23.32-.46,1.07-.61,1.77-.27.51.24.93.85,1.41,1.23.6.47,1.13.92,1.37,1.19.34.4.66.83.94,1.27.29.45.59.89.81,1.36.23.48.49.96.66,1.45.16.5.08,1.07.19,1.59s0,1.05.05,1.57c.04.53.39,1.04.37,1.56-.01.53-.09,1.06-.16,1.58-.07.52-.49.97-.62,1.48-.13.51.07,1.12-.11,1.61-.18.49-.54.92-.77,1.39-.24.47-.68.81-.97,1.25-.29.44-.44.96-.79,1.36-.34.4-.67.81-1.06,1.16-.39.35-.75.75-1.18,1.06"/><path d="M107.5,101.06c-.41.29-.93.39-1.38.62-.44.23-.76.75-1.23.94-.46.18-.99.26-1.48.39-.48.14-1.02.06-1.52.15-.49.09-.97.36-1.47.41-.5.05-1.02-.29-1.52-.29-.5,0-1.01.21-1.51.17-.5-.05-1.01-.07-1.5-.17-.5-.1-.91-.49-1.38-.64-.48-.15-1.12.12-1.58-.08-.46-.21-.72-.8-1.15-1.06-.43-.26-.81-.55-1.2-.87-.46-.37-1.09-.59-1.47-1.06-.39-.49-.72-1-1.11-1.38-.07-.07-.2,0-.35-.25-.14-.23-.34-.37-.43-.56-.25-.47-.37-1.02-.57-1.52-.19-.49-.31-1.03-.44-1.55-.13-.51-.19-1.05-.27-1.58-.08-.53-.29-1.05-.31-1.59-.02-.53.38-1.06.41-1.59.03-.53-.31-1.11-.22-1.64.09-.53.65-.94.8-1.45.15-.51.12-1.07.34-1.56.21-.49.24-1.09.51-1.55.27-.45,1.01-.59,1.35-1.01.33-.41.36-1.1.75-1.47.34-.32,1-.48,1.57-.8.5-.28,1.05-.45,1.59-.6.61-.18,1.17-.4,1.67-.28.54.13,1.04.47,1.25,1.14.18.58.07,1.14-.22,1.52-.29.37-.73.77-1.18,1.01-.49.27-.97.5-1.29.71-.42.28-.79.53-1.13.9-.34.36-1,.5-1.26.93-.25.42-.18,1.03-.36,1.51-.17.46-.58.88-.68,1.37-.1.49.04,1.02,0,1.53-.03.5.08.99.11,1.49.03.5-.29,1.05-.2,1.54.09.49.4.95.56,1.43.16.48.3.98.52,1.42.23.45.47.92.76,1.32.3.41.68.77,1.05,1.11.37.34.7.79,1.13,1.05.4.23.97.27,1.48.44.46.15.98.11,1.5.21.48.09.96.34,1.46.39.5.04,1.01-.15,1.51-.15.51,0,1.02.14,1.51.08.52-.06,1.08.06,1.54-.07.52-.14.88-.63,1.29-.86.48-.26.88-.59,1.3-.92.43-.33.8-.7,1.16-1.09.37-.4.77-.74,1.08-1.19.3-.45.82-.79,1.05-1.27.23-.48.48-1.01.64-1.52.16-.51.11-1.11.19-1.64.09-.53-.11-1.08-.1-1.62,0-.54.03-1.06-.04-1.59-.08-.53.1-1.13-.06-1.65-.16-.51-.59-.93-.84-1.41-.24-.47-.62-.85-.95-1.29-.31-.41-.62-.75-.97-1.05-.41-.34-.66-.79-.93-1.13-.29-.38-.75-.82-.61-1.39.09-.36.56-.72.91-1.23.32-.46,1.07-.61,1.77-.27.51.24.93.85,1.41,1.23.6.47,1.13.92,1.37,1.19.34.4.66.83.94,1.27.29.45.59.89.81,1.36.23.48.49.96.66,1.45.16.5.08,1.07.19,1.59s0,1.05.05,1.57c.04.53.39,1.04.37,1.56-.01.53-.09,1.06-.16,1.58-.07.52-.49.97-.62,1.48-.13.51.07,1.12-.11,1.61-.18.49-.54.92-.77,1.39-.24.47-.68.81-.97,1.25-.29.44-.44.96-.79,1.36-.34.4-.67.81-1.06,1.16-.39.35-.75.75-1.18,1.06"/><path d="M111.01,119.58c.35-.49.74-.78,1.33-.72.56.06.97.42,1.36.88.34.41.76.84.69,1.51-.05.49-.47.94-.6,1.47-.12.49-.15,1.01-.32,1.52-.16.48-.31.98-.52,1.46-.2.48-.2,1.06-.44,1.52-.24.46-.62.85-.9,1.3-.28.45-.66.82-.96,1.23-.32.43-.61.85-.95,1.23-.36.4-.67.82-1.06,1.15-.41.35-.97.44-1.4.69-.44.26-.8.67-1.27.88-.47.21-.93.44-1.42.61-.49.17-.94.5-1.44.62-.5.13-1.09-.2-1.6-.11-.51.08-1,.18-1.51.22-.52.04-1.02.44-1.54.43-.52-.01-1-.46-1.51-.52-.52-.06-1.05.08-1.55-.03-.51-.12-.93-.46-1.41-.64-.49-.18-1.14.02-1.6-.21-.46-.24-.88-.58-1.31-.88-.42-.3-.6-.88-.98-1.24-.37-.35-.71-.7-1.03-1.11-.31-.4-.59-.8-.85-1.26-.25-.44-.65-.81-.85-1.3-.14-.35-.37-.83-.54-1.42-.13-.45-.08-.99-.19-1.51-.11-.49-.14-.99-.21-1.49-.07-.52-.47-1.01-.46-1.5,0-.55.28-1.06.43-1.49.18-.52.49-.88.95-1.09.79-.36,1.23-.22,1.56.17.32.39.27,1.02.36,1.65.1.69.56,1.29.65,1.67.13.55-.14,1.19.03,1.7.17.53.6.97.82,1.46.23.51.66.89.94,1.34.3.48.44,1.02.8,1.43.37.41.79.76,1.22,1.08.43.32.88.64,1.38.87.48.22,1,.4,1.55.52.51.11,1.06.16,1.63.18.52.02,1.05-.17,1.62-.22.53-.05,1.08.14,1.58.03.52-.12,1.08-.14,1.56-.33.49-.19.98-.46,1.43-.72.45-.26.68-.86,1.08-1.19.41-.32.94-.5,1.3-.89.35-.38.66-.81.96-1.24.3-.42.56-.87.82-1.34.24-.45.37-.97.57-1.46.15-.37.42-.97.6-1.67.15-.57.17-1.22.31-1.77.21-.8.73-1.3.88-1.51"/><path d="M111.01,119.58c.35-.49.74-.78,1.33-.72.56.06.97.42,1.36.88.34.41.76.84.69,1.51-.05.49-.47.94-.6,1.47-.12.49-.15,1.01-.32,1.52-.16.48-.31.98-.52,1.46-.2.48-.2,1.06-.44,1.52-.24.46-.62.85-.9,1.3-.28.45-.66.82-.96,1.23-.32.43-.61.85-.95,1.23-.36.4-.67.82-1.06,1.15-.41.35-.97.44-1.4.69-.44.26-.8.67-1.27.88-.47.21-.93.44-1.42.61-.49.17-.94.5-1.44.62-.5.13-1.09-.2-1.6-.11-.51.08-1,.18-1.51.22-.52.04-1.02.44-1.54.43-.52-.01-1-.46-1.51-.52-.52-.06-1.05.08-1.55-.03-.51-.12-.93-.46-1.41-.64-.49-.18-1.14.02-1.6-.21-.46-.24-.88-.58-1.31-.88-.42-.3-.6-.88-.98-1.24-.37-.35-.71-.7-1.03-1.11-.31-.4-.59-.8-.85-1.26-.25-.44-.65-.81-.85-1.3-.14-.35-.37-.83-.54-1.42-.13-.45-.08-.99-.19-1.51-.11-.49-.14-.99-.21-1.49-.07-.52-.47-1.01-.46-1.5,0-.55.28-1.06.43-1.49.18-.52.49-.88.95-1.09.79-.36,1.23-.22,1.56.17.32.39.27,1.02.36,1.65.1.69.56,1.29.65,1.67.13.55-.14,1.19.03,1.7.17.53.6.97.82,1.46.23.51.66.89.94,1.34.3.48.44,1.02.8,1.43.37.41.79.76,1.22,1.08.43.32.88.64,1.38.87.48.22,1,.4,1.55.52.51.11,1.06.16,1.63.18.52.02,1.05-.17,1.62-.22.53-.05,1.08.14,1.58.03.52-.12,1.08-.14,1.56-.33.49-.19.98-.46,1.43-.72.45-.26.68-.86,1.08-1.19.41-.32.94-.5,1.3-.89.35-.38.66-.81.96-1.24.3-.42.56-.87.82-1.34.24-.45.37-.97.57-1.46.15-.37.42-.97.6-1.67.15-.57.17-1.22.31-1.77.21-.8.73-1.3.88-1.51"/><path d="M91.19,152.02c.4-.08.9-.17,1.37.08.38.2.59.74.98,1.04.37.29.87.42,1.21.7.4.32.84.5,1.17.69.49.28.81.88,1.31,1.08.52.21,1.16,0,1.7.11.53.12,1.04.21,1.6.21.53,0,1.03-.11,1.6-.23.46-.1,1.05,0,1.5-.29.42-.27.76-.71,1.18-.97.46-.28.9-.58,1.38-.62.45-.04.94.12,1.42.5.55.43.88.89.88,1.33,0,.47-.28,1.03-.72,1.47-.33.33-.91.47-1.41.77-.43.26-.91.47-1.41.69-.48.22-.96.46-1.45.62-.53.18-1.02.41-1.49.52-.63.15-1.18.22-1.56.21-.45,0-.97.1-1.49,0-.46-.09-.97-.14-1.46-.29-.46-.14-.8-.65-1.27-.84-.45-.18-.85-.46-1.3-.67-.44-.22-.89-.4-1.31-.64-.43-.25-1.07-.19-1.45-.47-.42-.3-.7-.76-1.04-1.07-.39-.35-.68-.75-.95-1.12-.39-.53-.42-1.16-.25-1.72.17-.57.55-.97,1.23-1.11"/><path d="M91.19,152.02c.4-.08.9-.17,1.37.08.38.2.59.74.98,1.04.37.29.87.42,1.21.7.4.32.84.5,1.17.69.49.28.81.88,1.31,1.08.52.21,1.16,0,1.7.11.53.12,1.04.21,1.6.21.53,0,1.03-.11,1.6-.23.46-.1,1.05,0,1.5-.29.42-.27.76-.71,1.18-.97.46-.28.9-.58,1.38-.62.45-.04.94.12,1.42.5.55.43.88.89.88,1.33,0,.47-.28,1.03-.72,1.47-.33.33-.91.47-1.41.77-.43.26-.91.47-1.41.69-.48.22-.96.46-1.45.62-.53.18-1.02.41-1.49.52-.63.15-1.18.22-1.56.21-.45,0-.97.1-1.49,0-.46-.09-.97-.14-1.46-.29-.46-.14-.8-.65-1.27-.84-.45-.18-.85-.46-1.3-.67-.44-.22-.89-.4-1.31-.64-.43-.25-1.07-.19-1.45-.47-.42-.3-.7-.76-1.04-1.07-.39-.35-.68-.75-.95-1.12-.39-.53-.42-1.16-.25-1.72.17-.57.55-.97,1.23-1.11"/><path d="M100.8,44.35c-.52.07-1.09-.03-1.59.14-.49.16-.98.41-1.45.65-.46.24-.71.82-1.14,1.13-.42.3-1.14.25-1.53.61-.38.35-.76.76-1.11,1.16-.34.4-.31,1.09-.6,1.52-.29.43-.92.68-1.16,1.14-.24.47-.49.96-.67,1.45-.19.49-.2,1.06-.32,1.57-.12.51.09,1.07.05,1.59-.05.53-.36,1.04-.32,1.56.04.52.44.98.57,1.49.13.5.06,1.07.28,1.54.22.47.55.87.87,1.31.3.41.71.72,1.1,1.09.43.41.67.91,1.06,1.16.47.32,1,.32,1.48.45.47.13.93.47,1.49.48.47,0,.98-.17,1.56-.22.53-.04,1.04-.07,1.52-.17.52-.1,1.04-.16,1.51-.33.5-.17,1.06-.23,1.5-.46.46-.24.91-.56,1.31-.86.41-.31.63-.86.98-1.23.35-.37.84-.65,1.13-1.07.28-.42.53-.9.75-1.36.21-.46.13-1.03.28-1.53.15-.48.61-.9.69-1.41.08-.49-.22-1.04-.2-1.56.02-.5.34-1.01.31-1.53-.03-.5-.01-1.04-.09-1.55-.08-.5-.3-.99-.42-1.49-.13-.52-.34-1-.52-1.44-.19-.5-.6-.86-.85-1.27-.28-.45-.3-1.1-.65-1.44-.37-.35-.84-.68-1.29-.91-.44-.22-1.05,0-1.57-.09-.47-.09-.93-.26-1.47-.25-.48,0-.97.06-1.51.14M103.37,40.02c.53-.08,1.01.11,1.43.12.53,0,.93.05,1.34.22.42.16,1,.11,1.4.45.32.28.3.96.65,1.36.35.39.66.77.96,1.18.31.42.96.59,1.23,1.03.27.44.16,1.09.38,1.55.23.46.41.92.6,1.4.19.48.49.91.63,1.4.14.5.56.93.66,1.43.1.51-.13,1.07-.07,1.58.05.51.41,1.02.42,1.53,0,.52-.27,1.03-.31,1.54-.04.51-.03,1.04-.12,1.54-.09.51-.11,1.04-.25,1.54-.14.5-.52.92-.71,1.39-.19.48-.2,1.05-.44,1.5-.24.46-.75.75-1.04,1.18-.29.43-.48.92-.81,1.31-.33.39-.72.73-1.1,1.09-.37.35-.81.62-1.23.92-.41.3-.91.44-1.36.7-.44.25-.86.51-1.34.72-.46.2-.84.64-1.34.8-.48.15-1.03.08-1.54.19-.49.1-.98.21-1.51.27-.51.06-.98.38-1.44.39-.51.02-.99-.34-1.45-.38-.51-.04-1.04.25-1.5.14-.49-.11-.85-.56-1.29-.75-.44-.19-.8-.47-1.21-.74-.39-.26-.82-.45-1.19-.8-.34-.32-.72-.62-1.05-1.01-.3-.36-.76-.62-1.06-1.04-.3-.43-.25-1.07-.5-1.52-.25-.46-.47-.91-.66-1.38-.2-.49-.76-.85-.89-1.34-.14-.51-.12-1.06-.2-1.57-.08-.52-.19-1.04-.2-1.56-.01-.52-.06-1.06-.01-1.58.05-.52.26-1.03.37-1.54.1-.51.13-1.05.29-1.55.16-.49.47-.94.68-1.42.21-.47.27-1.04.52-1.49.25-.45.65-.83.95-1.26.29-.42.53-.91.87-1.32.33-.4.77-.72,1.14-1.09.39-.39.88-.64,1.26-.97.42-.36.79-.73,1.2-1.02.44-.31.92-.54,1.37-.79.47-.26.98-.38,1.46-.58.48-.2.92-.49,1.43-.65.49-.15.99-.3,1.51-.43.5-.12,1.01-.21,1.55-.31.5-.09,1-.3,1.54-.38"/><path d="M107.5,101.06c-.41.29-.93.39-1.38.62-.44.23-.76.75-1.23.94-.46.18-.99.26-1.48.39-.48.14-1.02.06-1.52.15-.49.09-.97.36-1.47.41-.5.05-1.02-.29-1.52-.29-.5,0-1.01.21-1.51.17-.5-.05-1.01-.07-1.5-.17-.5-.1-.91-.49-1.38-.64-.48-.15-1.12.12-1.58-.08-.46-.21-.72-.8-1.15-1.06-.43-.26-.81-.55-1.2-.87-.46-.37-1.09-.59-1.47-1.06-.39-.49-.72-1-1.11-1.38-.07-.07-.2,0-.35-.25-.14-.23-.34-.37-.43-.56-.25-.47-.37-1.02-.57-1.52-.19-.49-.31-1.03-.44-1.55-.13-.51-.19-1.05-.27-1.58-.08-.53-.29-1.05-.31-1.59-.02-.53.38-1.06.41-1.59.03-.53-.31-1.11-.22-1.64.09-.53.65-.94.8-1.45.15-.51.12-1.07.34-1.56.21-.49.24-1.09.51-1.55.27-.45,1.01-.59,1.35-1.01.33-.41.36-1.1.75-1.47.34-.32,1-.48,1.57-.8.5-.28,1.05-.45,1.59-.6.61-.18,1.17-.4,1.67-.28.54.13,1.04.47,1.25,1.14.18.58.07,1.14-.22,1.52-.29.37-.73.77-1.18,1.01-.49.27-.97.5-1.29.71-.42.28-.79.53-1.13.9-.34.36-1,.5-1.26.93-.25.42-.18,1.03-.36,1.51-.17.46-.58.88-.68,1.37-.1.49.04,1.02,0,1.53-.03.5.08.99.11,1.49.03.5-.29,1.05-.2,1.54.09.49.4.95.56,1.43.16.48.3.98.52,1.42.23.45.47.92.76,1.32.3.41.68.77,1.05,1.11.37.34.7.79,1.13,1.05.4.23.97.27,1.48.44.46.15.98.11,1.5.21.48.09.96.34,1.46.39.5.04,1.01-.15,1.51-.15.51,0,1.02.14,1.51.08.52-.06,1.08.06,1.54-.07.52-.14.88-.63,1.29-.86.48-.26.88-.59,1.3-.92.43-.33.8-.7,1.16-1.09.37-.4.77-.74,1.08-1.19.3-.45.82-.79,1.05-1.27.23-.48.48-1.01.64-1.52.16-.51.11-1.11.19-1.64.09-.53-.11-1.08-.1-1.62,0-.54.03-1.06-.04-1.59-.08-.53.1-1.13-.06-1.65-.16-.51-.59-.93-.84-1.41-.24-.47-.62-.85-.95-1.29-.31-.41-.62-.75-.97-1.05-.41-.34-.66-.79-.93-1.13-.29-.38-.75-.82-.61-1.39.09-.36.56-.72.91-1.23.32-.46,1.07-.61,1.77-.27.51.24.93.85,1.41,1.23.6.47,1.13.92,1.37,1.19.34.4.66.83.94,1.27.29.45.59.89.81,1.36.23.48.49.96.66,1.45.16.5.08,1.07.19,1.59s0,1.05.05,1.57c.04.53.39,1.04.37,1.56-.01.53-.09,1.06-.16,1.58-.07.52-.49.97-.62,1.48-.13.51.07,1.12-.11,1.61-.18.49-.54.92-.77,1.39-.24.47-.68.81-.97,1.25-.29.44-.44.96-.79,1.36-.34.4-.67.81-1.06,1.16-.39.35-.75.75-1.18,1.06"/><path d="M111.01,119.58c.35-.49.74-.78,1.33-.72.56.06.97.42,1.36.88.34.41.76.84.69,1.51-.05.49-.47.94-.6,1.47-.12.49-.15,1.01-.32,1.52-.16.48-.31.98-.52,1.46-.2.48-.2,1.06-.44,1.52-.24.46-.62.85-.9,1.3-.28.45-.66.82-.96,1.23-.32.43-.61.85-.95,1.23-.36.4-.67.82-1.06,1.15-.41.35-.97.44-1.4.69-.44.26-.8.67-1.27.88-.47.21-.93.44-1.42.61-.49.17-.94.5-1.44.62-.5.13-1.09-.2-1.6-.11-.51.08-1,.18-1.51.22-.52.04-1.02.44-1.54.43-.52-.01-1-.46-1.51-.52-.52-.06-1.05.08-1.55-.03-.51-.12-.93-.46-1.41-.64-.49-.18-1.14.02-1.6-.21-.46-.24-.88-.58-1.31-.88-.42-.3-.6-.88-.98-1.24-.37-.35-.71-.7-1.03-1.11-.31-.4-.59-.8-.85-1.26-.25-.44-.65-.81-.85-1.3-.14-.35-.37-.83-.54-1.42-.13-.45-.08-.99-.19-1.51-.11-.49-.14-.99-.21-1.49-.07-.52-.47-1.01-.46-1.5,0-.55.28-1.06.43-1.49.18-.52.49-.88.95-1.09.79-.36,1.23-.22,1.56.17.32.39.27,1.02.36,1.65.1.69.56,1.29.65,1.67.13.55-.14,1.19.03,1.7.17.53.6.97.82,1.46.23.51.66.89.94,1.34.3.48.44,1.02.8,1.43.37.41.79.76,1.22,1.08.43.32.88.64,1.38.87.48.22,1,.4,1.55.52.51.11,1.06.16,1.63.18.52.02,1.05-.17,1.62-.22.53-.05,1.08.14,1.58.03.52-.12,1.08-.14,1.56-.33.49-.19.98-.46,1.43-.72.45-.26.68-.86,1.08-1.19.41-.32.94-.5,1.3-.89.35-.38.66-.81.96-1.24.3-.42.56-.87.82-1.34.24-.45.37-.97.57-1.46.15-.37.42-.97.6-1.67.15-.57.17-1.22.31-1.77.21-.8.73-1.3.88-1.51"/><path d="M91.19,152.02c.4-.08.9-.17,1.37.08.38.2.59.74.98,1.04.37.29.87.42,1.21.7.4.32.84.5,1.17.69.49.28.81.88,1.31,1.08.52.21,1.16,0,1.7.11.53.12,1.04.21,1.6.21.53,0,1.03-.11,1.6-.23.46-.1,1.05,0,1.5-.29.42-.27.76-.71,1.18-.97.46-.28.9-.58,1.38-.62.45-.04.94.12,1.42.5.55.43.88.89.88,1.33,0,.47-.28,1.03-.72,1.47-.33.33-.91.47-1.41.77-.43.26-.91.47-1.41.69-.48.22-.96.46-1.45.62-.53.18-1.02.41-1.49.52-.63.15-1.18.22-1.56.21-.45,0-.97.1-1.49,0-.46-.09-.97-.14-1.46-.29-.46-.14-.8-.65-1.27-.84-.45-.18-.85-.46-1.3-.67-.44-.22-.89-.4-1.31-.64-.43-.25-1.07-.19-1.45-.47-.42-.3-.7-.76-1.04-1.07-.39-.35-.68-.75-.95-1.12-.39-.53-.42-1.16-.25-1.72.17-.57.55-.97,1.23-1.11"/></svg>