<?xml version="1.0" encoding="UTF-8"?><svg id="Layer_1" xmlns="http://www.w3.org/2000/svg" viewBox="0 0 200 200"><path d="M57.91,114.08c.57-.68,1.05-.02,1.94,0,.89,0,.89.24,1.78.25.89.01.89-.18,1.79-.17.89.01.89-.03,1.78-.02.89,0,.89.21,1.78.22.89.01.89.09,1.78.1.89,0,.89.06,1.79.07.89,0,.9-.21,1.79-.2.89,0,.89-.13,1.79-.12.89,0,.89.09,1.78.1.89,0,.89.05,1.78.06.89,0,.89.34,1.78.35.89,0,.89-.05,1.78-.04.89,0,.9-.43,1.78-.42.89,0,.89.39,1.78.4.89,0,.89.12,1.78.13.89,0,.9-.46,1.79-.45.89,0,.89.03,1.79.04.89,0,.89.19,1.78.2.89,0,.89.15,1.78.16.89,0,.89-.27,1.78-.26.89,0,.89.03,1.78.04.89,0,.89.21,1.78.22.89,0,.9-.33,1.79-.32.89,0,.89.45,1.78.46.89,0,.9-.21,1.79-.2.89.01.9-.22,1.79-.21.89,0,.89.11,1.78.12.89,0,.9-.04,1.79-.03.89,0,.89-.04,1.79-.03.89,0,.89.38,1.78.39s.9-.21,1.79-.2c.9.01.89.09,1.79.1.89,0,.9-.18,1.79-.17.89,0,.89.08,1.79.09.9,0,.89.16,1.79.17.9,0,.9-.13,1.79-.12.89.01.89.24,1.78.25.89.01.9-.15,1.79-.14.9,0,.9-.09,1.79-.08.89,0,.89.07,1.79.08.9.01.9.09,1.79.1.9,0,.9.06,1.79.07.9,0,.89.12,1.79.13.9,0,.9.06,1.79.07.9,0,.9.02,1.8.03.9,0,1.23-.79,1.79-.09.68.85.22,1.09.21,2.18-.01,1.09.55,1.43-.15,2.26-.57.68-.99.21-1.88.2-.89,0-.89-.11-1.78-.12-.89-.01-.89-.2-1.78-.21s-.89.15-1.79.14c-.89,0-.89-.32-1.78-.33-.89,0-.89.03-1.78.02-.89,0-.89.06-1.79.05-.89,0-.89.1-1.79.09-.89,0-.89-.06-1.78-.07-.89,0-.89.13-1.79.12-.89,0-.89-.48-1.78-.49-.89,0-.9.2-1.79.19-.89,0-.89.08-1.78.07-.89,0-.89.06-1.78.05-.89,0-.89-.25-1.78-.26-.89,0-.89.11-1.78.1-.89,0-.89-.22-1.78-.23-.89,0-.9.48-1.79.47-.89-.01-.89-.11-1.78-.12s-.89-.25-1.78-.26c-.89,0-.89-.18-1.78-.19-.89,0-.89.28-1.79.27-.89,0-.89.19-1.79.18-.89-.01-.89-.03-1.79-.04-.9,0-.89-.08-1.79-.1-.89,0-.89-.06-1.79-.07-.89,0-.89.1-1.79.09-.89,0-.89-.2-1.78-.21-.89-.01-.89-.3-1.78-.32-.89,0-.9.3-1.79.29-.89,0-.9.29-1.79.28q-.89,0-1.79-.02c-.9,0-.89-.11-1.79-.12-.89-.01-.89-.25-1.78-.26-.9,0-.9.32-1.79.31-.89,0-.89-.16-1.79-.17-.9-.01-.89-.32-1.79-.33-.89-.01-.9.28-1.79.27-.89,0-.89.08-1.79.07-.9,0-.89-.41-1.79-.42-.89,0-.9.34-1.79.33-.9,0-.9,0-1.79-.01-.9-.01-.89-.26-1.79-.26-.89,0-.9.25-1.79.24-.9,0-.9-.07-1.79-.08-.9,0-.9-.09-1.8-.1-.9,0-1.11.53-1.68-.17-.68-.85.13-1.02-.11-2.09-.26-1.2-.82-1.48-.12-2.32"/><path d="M57.91,114.08c.57-.68,1.05-.02,1.94,0,.89,0,.89.24,1.78.25.89.01.89-.18,1.79-.17.89.01.89-.03,1.78-.02.89,0,.89.21,1.78.22.89.01.89.09,1.78.1.89,0,.89.06,1.79.07.89,0,.9-.21,1.79-.2.89,0,.89-.13,1.79-.12.89,0,.89.09,1.78.1.89,0,.89.05,1.78.06.89,0,.89.34,1.78.35.89,0,.89-.05,1.78-.04.89,0,.9-.43,1.78-.42.89,0,.89.39,1.78.4.89,0,.89.12,1.78.13.89,0,.9-.46,1.79-.45.89,0,.89.03,1.79.04.89,0,.89.19,1.78.2.89,0,.89.15,1.78.16.89,0,.89-.27,1.78-.26.89,0,.89.03,1.78.04.89,0,.89.21,1.78.22.89,0,.9-.33,1.79-.32.89,0,.89.45,1.78.46.89,0,.9-.21,1.79-.2.89.01.9-.22,1.79-.21.89,0,.89.11,1.78.12.89,0,.9-.04,1.79-.03.89,0,.89-.04,1.79-.03.89,0,.89.38,1.78.39s.9-.21,1.79-.2c.9.01.89.09,1.79.1.89,0,.9-.18,1.79-.17.89,0,.89.08,1.79.09.9,0,.89.16,1.79.17.9,0,.9-.13,1.79-.12.89.01.89.24,1.78.25.89.01.9-.15,1.79-.14.9,0,.9-.09,1.79-.08.89,0,.89.07,1.79.08.9.01.9.09,1.79.1.9,0,.9.06,1.79.07.9,0,.89.12,1.79.13.9,0,.9.06,1.79.07.9,0,.9.02,1.8.03.9,0,1.23-.79,1.79-.09.68.85.22,1.09.21,2.18-.01,1.09.55,1.43-.15,2.26-.57.68-.99.21-1.88.2-.89,0-.89-.11-1.78-.12-.89-.01-.89-.2-1.78-.21s-.89.15-1.79.14c-.89,0-.89-.32-1.78-.33-.89,0-.89.03-1.78.02-.89,0-.89.06-1.79.05-.89,0-.89.1-1.79.09-.89,0-.89-.06-1.78-.07-.89,0-.89.13-1.79.12-.89,0-.89-.48-1.78-.49-.89,0-.9.2-1.79.19-.89,0-.89.08-1.78.07-.89,0-.89.06-1.78.05-.89,0-.89-.25-1.78-.26-.89,0-.89.11-1.78.1-.89,0-.89-.22-1.78-.23-.89,0-.9.48-1.79.47-.89-.01-.89-.11-1.78-.12s-.89-.25-1.78-.26c-.89,0-.89-.18-1.78-.19-.89,0-.89.28-1.79.27-.89,0-.89.19-1.79.18-.89-.01-.89-.03-1.79-.04-.9,0-.89-.08-1.79-.1-.89,0-.89-.06-1.79-.07-.89,0-.89.1-1.79.09-.89,0-.89-.2-1.78-.21-.89-.01-.89-.3-1.78-.32-.89,0-.9.3-1.79.29-.89,0-.9.29-1.79.28q-.89,0-1.79-.02c-.9,0-.89-.11-1.79-.12-.89-.01-.89-.25-1.78-.26-.9,0-.9.32-1.79.31-.89,0-.89-.16-1.79-.17-.9-.01-.89-.32-1.79-.33-.89-.01-.9.28-1.79.27-.89,0-.89.08-1.79.07-.9,0-.89-.41-1.79-.42-.89,0-.9.34-1.79.33-.9,0-.9,0-1.79-.01-.9-.01-.89-.26-1.79-.26-.89,0-.9.25-1.79.24-.9,0-.9-.07-1.79-.08-.9,0-.9-.09-1.8-.1-.9,0-1.11.53-1.68-.17-.68-.85.13-1.02-.11-2.09-.26-1.2-.82-1.48-.12-2.32"/><path d="M141.63,95.25c-.05.87-.59,1.48-.85,1.82-.4.51-.89.51-1.58.43-.57-.06-1.2,0-1.83,0-.6.02-1.22-.18-1.84-.16-.61.01-1.22-.09-1.84-.07-.62.01-1.23.19-1.84.2-.62.02-1.23.25-1.83.28-.63.03-1.24,0-1.84.04-.61.04-1.28.12-1.97.26-.65.13-1.35.12-2,.23-.7.13-1.35.4-1.97.4-.62,0-1.24-.21-1.87-.26-.62-.05-1.22-.3-1.85-.37-.62-.07-1.26,0-1.89-.06-.62-.06-1.25-.15-1.88-.19-.62-.04-1.26.38-1.89.39-.62,0-1.23-.07-1.86-.01-.61.06-1.2.13-1.8.32-.59.18-1.14.47-1.72.69-.59.23-1.2.42-1.77.61-.62.21-1.23.55-1.81.6-.61.05-1.31-.02-1.97-.09-.63-.07-1.28-.19-1.92-.32-.63-.12-1.25-.39-1.86-.52-.65-.14-1.3-.16-1.9-.25-.68-.1-1.28-.09-1.86-.05-.49.03-1.12-.34-1.64-.15-.51.18-.9.82-1.4.89-.66.1-1.35,0-2.01.04-.66.03-1.33.16-1.98.16-.67,0-1.34-.44-1.99-.42-.67.02-1.33.24-1.98.32-.61.08-1.33.29-1.99.55-.67.27-1.27.9-1.88.92-.51.02-1.19-.3-1.95-.46-.6-.13-1.25-.3-1.91-.47-.65-.16-1.27-.47-1.88-.61-.71-.16-1.4-.28-1.96-.32-.59-.05-1.18.22-1.75.21-.58,0-1.15.17-1.72.19-.58.02-1.18-.33-1.75-.29-.58.03-1.15.07-1.73.09-.57.03-1.15,0-1.73,0-.57,0-1.17.44-1.75.41-.57-.03-1.16-.16-1.74-.24-.29-.04-1.55-.39-1.62-.63-.1-.8.44-1.29.73-1.66.35-.46.76-1.02,1.43-1.08.56-.06,1.24-.06,1.85-.02.65.05,1.26.27,1.76.24.56-.04,1.12-.03,1.66-.08.55-.05,1.14.26,1.69.21.55-.05,1.06-.65,1.61-.68.55-.03,1.12.11,1.68.11s1.07.36,1.64.41c.53.04,1.16.2,1.88.36.61.13,1.38-.23,2.02-.08.66.15,1.29.36,1.89.48.77.15,1.43.67,1.91.65.45-.02.97-.72,1.59-.98.57-.24,1.21-.52,1.71-.58.66-.09,1.39-.04,2.1-.02.68.02,1.36.51,2.05.53.71.02,1.4-.36,2.07-.42.61-.06,1.28,0,1.93-.19.62-.17,1.15-.75,1.76-.91.66-.17,1.36.06,1.97.06.49,0,1.01.23,1.61.34.53.1,1.11.03,1.67.16.55.13,1.1.29,1.63.4.59.12,1.18-.03,1.68.01.62.06,1.16.48,1.63.44.6-.05,1.12-.28,1.61-.44.5-.16,1-.32,1.54-.52.46-.17.92-.4,1.51-.55.59-.16,1.24-.12,1.9-.23.61-.1,1.19-.71,1.84-.77.63-.06,1.31.3,1.95.28.65-.03,1.29-.26,1.92-.26.66,0,1.31-.2,1.94-.18.67.02,1.33.04,1.93.08.86.06,1.54,1.16,2.35,1.18.58.02,1.2-.51,1.87-.63.62-.12,1.22-.38,1.84-.51.66-.14,1.38.27,1.96.23.39-.03.99-.56,1.77-.59.54-.02,1.16.41,1.81.4.58-.01,1.18-.24,1.8-.24.6,0,1.21.13,1.81.13.62,0,1.23-.23,1.81-.22.66.01,1.28.07,1.81.1.84.05,1.49.15,1.79.24.45.13,1.17.6,1.71.7"/><path d="M141.63,95.25c-.05.87-.59,1.48-.85,1.82-.4.51-.89.51-1.58.43-.57-.06-1.2,0-1.83,0-.6.02-1.22-.18-1.84-.16-.61.01-1.22-.09-1.84-.07-.62.01-1.23.19-1.84.2-.62.02-1.23.25-1.83.28-.63.03-1.24,0-1.84.04-.61.04-1.28.12-1.97.26-.65.13-1.35.12-2,.23-.7.13-1.35.4-1.97.4-.62,0-1.24-.21-1.87-.26-.62-.05-1.22-.3-1.85-.37-.62-.07-1.26,0-1.89-.06-.62-.06-1.25-.15-1.88-.19-.62-.04-1.26.38-1.89.39-.62,0-1.23-.07-1.86-.01-.61.06-1.2.13-1.8.32-.59.18-1.14.47-1.72.69-.59.23-1.2.42-1.77.61-.62.21-1.23.55-1.81.6-.61.05-1.31-.02-1.97-.09-.63-.07-1.28-.19-1.92-.32-.63-.12-1.25-.39-1.86-.52-.65-.14-1.3-.16-1.9-.25-.68-.1-1.28-.09-1.86-.05-.49.03-1.12-.34-1.64-.15-.51.18-.9.82-1.4.89-.66.1-1.35,0-2.01.04-.66.03-1.33.16-1.98.16-.67,0-1.34-.44-1.99-.42-.67.02-1.33.24-1.98.32-.61.08-1.33.29-1.99.55-.67.27-1.27.9-1.88.92-.51.02-1.19-.3-1.95-.46-.6-.13-1.25-.3-1.91-.47-.65-.16-1.27-.47-1.88-.61-.71-.16-1.4-.28-1.96-.32-.59-.05-1.18.22-1.75.21-.58,0-1.15.17-1.72.19-.58.02-1.18-.33-1.75-.29-.58.03-1.15.07-1.73.09-.57.03-1.15,0-1.73,0-.57,0-1.17.44-1.75.41-.57-.03-1.16-.16-1.74-.24-.29-.04-1.55-.39-1.62-.63-.1-.8.44-1.29.73-1.66.35-.46.76-1.02,1.43-1.08.56-.06,1.24-.06,1.85-.02.65.05,1.26.27,1.76.24.56-.04,1.12-.03,1.66-.08.55-.05,1.14.26,1.69.21.55-.05,1.06-.65,1.61-.68.55-.03,1.12.11,1.68.11s1.07.36,1.64.41c.53.04,1.16.2,1.88.36.61.13,1.38-.23,2.02-.08.66.15,1.29.36,1.89.48.77.15,1.43.67,1.91.65.45-.02.97-.72,1.59-.98.57-.24,1.21-.52,1.71-.58.66-.09,1.39-.04,2.1-.02.68.02,1.36.51,2.05.53.71.02,1.4-.36,2.07-.42.61-.06,1.28,0,1.93-.19.62-.17,1.15-.75,1.76-.91.66-.17,1.36.06,1.97.06.49,0,1.01.23,1.61.34.53.1,1.11.03,1.67.16.55.13,1.1.29,1.63.4.59.12,1.18-.03,1.68.01.62.06,1.16.48,1.63.44.6-.05,1.12-.28,1.61-.44.5-.16,1-.32,1.54-.52.46-.17.92-.4,1.51-.55.59-.16,1.24-.12,1.9-.23.61-.1,1.19-.71,1.84-.77.63-.06,1.31.3,1.95.28.65-.03,1.29-.26,1.92-.26.66,0,1.31-.2,1.94-.18.67.02,1.33.04,1.93.08.86.06,1.54,1.16,2.35,1.18.58.02,1.2-.51,1.87-.63.62-.12,1.22-.38,1.84-.51.66-.14,1.38.27,1.96.23.39-.03.99-.56,1.77-.59.54-.02,1.16.41,1.81.4.58-.01,1.18-.24,1.8-.24.6,0,1.21.13,1.81.13.62,0,1.23-.23,1.81-.22.66.01,1.28.07,1.81.1.84.05,1.49.15,1.79.24.45.13,1.17.6,1.71.7"/><path d="M121.7,89.02c.63-.06,1.2.21,1.72.24.61.04,1.19-.06,1.72.05.58.12,1.09.4,1.63.52.54.12,1.11-.08,1.71-.06.59.02,1.21.27,1.88.2.6-.06,1.23-.18,1.87-.28.61-.09,1.27,0,1.89-.1.63-.1,1.25-.16,1.87-.23.64-.07,1.25-.44,1.86-.46.66-.01,1.26.3,1.85.39.98.16,1.31.53,1.38,1.14.06.6-.11,1.28-.88,1.75-.81.21-.83.15-1.67.23-.84.08-.83.11-1.67.19-.84.08-.87-.23-1.71-.15-.84.08-.81.36-1.65.43-.84.08-.83.16-1.67.24-.84.08-.88-.34-1.72-.26s-.82.72-1.67.69c-.55-.24-1.13-.47-1.64-.6-.57-.15-1.05-.68-1.58-.72-.57-.05-1.17-.11-1.72-.07-.56.04-1.07.53-1.63.63-.55.1-1.13.02-1.68.13-.54.11-1.12.02-1.68.13-.54.1-1.05.35-1.62.41-.65.06-1.29.35-1.93.32-.65-.02-1.27-.47-1.91-.53-.64-.06-1.3.02-1.94-.02-.65-.05-1.3-.04-1.94-.02-.65.02-1.25.35-1.88.41-.63.07-1.27.01-1.9.1-.62.08-1.28-.1-1.92-.02-.62.08-1.23.32-1.87.37-.62.05-1.25-.12-1.91-.11-.64,0-1.28.12-1.91.16-.64.04-1.26.19-1.89.24-.63.05-1.28-.02-1.91.03-.63.06-1.27-.08-1.9-.03-.63.04-1.24.67-1.87.68-.53,0-1.08-.49-1.64-.54-.55-.05-1.12.12-1.66.05-.56-.07-1.12.02-1.64-.03-.58-.05-1.12-.4-1.63-.37-.55.03-1.09.52-1.72.67-.57.14-1.21.13-1.8.27-.6.14-1.19.51-1.77.55-.62.04-1.26-.24-1.87-.26-.62-.02-1.26.22-1.88.15-.61-.06-1.15-.74-1.76-.83-.61-.09-1.28.18-1.89.09-.61-.1-1.21-.28-1.81-.37-.62-.09-1.21-.4-1.81-.46-.38-.04-.95.06-1.43.2-.45.13-.83.57-1.23.58-.31.01-.9.25-1.61.26-.51,0-1.08,0-1.64-.02-.57-.03-1.18-.02-1.66-.13-.66-.14-1.25-.57-1.48-.92-.23-.35.11-.8.62-1.44.32-.41.79-.73,1.51-.8.58-.05,1.22.17,1.83.2.7.04,1.36-.16,1.82-.19.64-.05,1.16.07,1.58.03.64-.06,1.09-.14,1.55-.15.45,0,.92-.12,1.57-.06.42.04.89.41,1.52.49.59.07,1.21-.37,1.79-.34.59.03,1.16.04,1.74.03.59,0,1.19.39,1.77.35.59-.04,1.13-.54,1.71-.59.59-.05,1.22.38,1.8.32.58-.06,1.16-.14,1.74-.2.58-.06,1.14-.39,1.72-.43.58-.04,1.17.07,1.75.06.58-.01,1.16.04,1.74.07.62.03,1.22-.2,1.8-.18.6.02,1.19-.02,1.78,0,.59,0,1.18,0,1.77,0,.58,0,1.16-.1,1.77-.12.57-.02,1.17.12,1.78.08.66-.04,1.28,0,1.87-.02.65,0,1.26-.16,1.86-.15.62,0,1.22.47,1.85.48.59,0,1.21-.08,1.86-.1.56-.01,1.18-.17,1.8-.28.57-.11,1.12-.46,1.72-.59.59-.13,1.24.07,1.83-.03.61-.1,1.18-.34,1.76-.36.53-.02,1.1-.26,1.65-.21.54.05,1.07.31,1.61.38.55.07,1.08.29,1.6.34.57.05,1.13.13,1.64.1.54-.03,1.23-.23,1.95-.42.62-.16,1.26-.39,1.89-.56.69-.18,1.32-.57,1.89-.63"/><path d="M121.7,89.02c.63-.06,1.2.21,1.72.24.61.04,1.19-.06,1.72.05.58.12,1.09.4,1.63.52.54.12,1.11-.08,1.71-.06.59.02,1.21.27,1.88.2.6-.06,1.23-.18,1.87-.28.61-.09,1.27,0,1.89-.1.63-.1,1.25-.16,1.87-.23.64-.07,1.25-.44,1.86-.46.66-.01,1.26.3,1.85.39.98.16,1.31.53,1.38,1.14.06.6-.11,1.28-.88,1.75-.81.21-.83.15-1.67.23-.84.08-.83.11-1.67.19-.84.08-.87-.23-1.71-.15-.84.08-.81.36-1.65.43-.84.08-.83.16-1.67.24-.84.08-.88-.34-1.72-.26s-.82.72-1.67.69c-.55-.24-1.13-.47-1.64-.6-.57-.15-1.05-.68-1.58-.72-.57-.05-1.17-.11-1.72-.07-.56.04-1.07.53-1.63.63-.55.1-1.13.02-1.68.13-.54.11-1.12.02-1.68.13-.54.1-1.05.35-1.62.41-.65.06-1.29.35-1.93.32-.65-.02-1.27-.47-1.91-.53-.64-.06-1.3.02-1.94-.02-.65-.05-1.3-.04-1.94-.02-.65.02-1.25.35-1.88.41-.63.07-1.27.01-1.9.1-.62.08-1.28-.1-1.92-.02-.62.08-1.23.32-1.87.37-.62.05-1.25-.12-1.91-.11-.64,0-1.28.12-1.91.16-.64.04-1.26.19-1.89.24-.63.05-1.28-.02-1.91.03-.63.06-1.27-.08-1.9-.03-.63.04-1.24.67-1.87.68-.53,0-1.08-.49-1.64-.54-.55-.05-1.12.12-1.66.05-.56-.07-1.12.02-1.64-.03-.58-.05-1.12-.4-1.63-.37-.55.03-1.09.52-1.72.67-.57.14-1.21.13-1.8.27-.6.14-1.19.51-1.77.55-.62.04-1.26-.24-1.87-.26-.62-.02-1.26.22-1.88.15-.61-.06-1.15-.74-1.76-.83-.61-.09-1.28.18-1.89.09-.61-.1-1.21-.28-1.81-.37-.62-.09-1.21-.4-1.81-.46-.38-.04-.95.06-1.43.2-.45.13-.83.57-1.23.58-.31.01-.9.25-1.61.26-.51,0-1.08,0-1.64-.02-.57-.03-1.18-.02-1.66-.13-.66-.14-1.25-.57-1.48-.92-.23-.35.11-.8.62-1.44.32-.41.79-.73,1.51-.8.58-.05,1.22.17,1.83.2.7.04,1.36-.16,1.82-.19.64-.05,1.16.07,1.58.03.64-.06,1.09-.14,1.55-.15.45,0,.92-.12,1.57-.06.42.04.89.41,1.52.49.59.07,1.21-.37,1.79-.34.59.03,1.16.04,1.74.03.59,0,1.19.39,1.77.35.59-.04,1.13-.54,1.71-.59.59-.05,1.22.38,1.8.32.58-.06,1.16-.14,1.74-.2.58-.06,1.14-.39,1.72-.43.58-.04,1.17.07,1.75.06.58-.01,1.16.04,1.74.07.62.03,1.22-.2,1.8-.18.6.02,1.19-.02,1.78,0,.59,0,1.18,0,1.77,0,.58,0,1.16-.1,1.77-.12.57-.02,1.17.12,1.78.08.66-.04,1.28,0,1.87-.02.65,0,1.26-.16,1.86-.15.62,0,1.22.47,1.85.48.59,0,1.21-.08,1.86-.1.56-.01,1.18-.17,1.8-.28.57-.11,1.12-.46,1.72-.59.59-.13,1.24.07,1.83-.03.61-.1,1.18-.34,1.76-.36.53-.02,1.1-.26,1.65-.21.54.05,1.07.31,1.61.38.55.07,1.08.29,1.6.34.57.05,1.13.13,1.64.1.54-.03,1.23-.23,1.95-.42.62-.16,1.26-.39,1.89-.56.69-.18,1.32-.57,1.89-.63"/><path d="M141.7,101.84c-.02.06-.83.88-1.02.9-.48.06-1.05-.14-1.62-.1-.53.04-1.08-.16-1.61-.14-.56.02-1.1.26-1.59.26-.93.01-1.73-.22-2.64-.18-.59.03-1.08.4-1.68.62-.56.2-1.23.33-1.87.38-.56.04-1.17-.26-1.79-.28-.58-.02-1.16-.15-1.76-.21-.58-.05-1.21.16-1.8.09-.59-.07-1.19-.13-1.78-.2-.6-.08-1.19-.23-1.77-.29-.61-.07-1.19-.43-1.76-.47-.63-.04-1.25.07-1.8.1-.49.02-1.08.16-1.64.34-.5.15-.94.59-1.48.78-.51.19-1.12.11-1.64.26-.54.16-1.01.61-1.53.66-.62.06-1.27-.22-1.91-.21-.63.01-1.25-.04-1.88-.06-.63-.02-1.27.34-1.9.32-.63-.02-1.26-.33-1.88-.34-.64,0-1.27.21-1.89.25-.57.04-1.25-.06-1.92.07-.62.12-1.21.5-1.83.6-.68.12-1.35.32-1.91.31-.56,0-1.02-.53-1.53-.71-.52-.18-1.03-.39-1.54-.56-.52-.17-1.09.09-1.65.13-.48.03-1.02.21-1.66.38-.54.14-1.25-.2-1.82-.05-.59.16-1.14.35-1.66.42-.6.08-1.16.24-1.73.3-.6.06-1.19-.06-1.76-.02-.6.04-1.15.65-1.73.67-.59.02-1.19-.47-1.77-.48-.59,0-1.17-.07-1.75-.09-.59-.02-1.17.07-1.76.04-.58-.03-1.18.17-1.77.12-.58-.04-1.15-.21-1.74-.26-.58-.05-1.16-.15-1.75-.21-.57-.06-1.18.09-1.77.03-.57-.06-1.17-.02-1.76-.07-.57-.05-1.12-.5-1.72-.54-.37-.03-.99.44-1.7.47-.54.02-1.13-.5-1.71-.51-.61-.01-1.16-.04-1.65-.15-.71-.15-1.16-.22-1.24-.71-.13-.85-.15-1.53.29-1.78.43-.25,1.2.09,1.86.03.59-.05,1.19-.51,1.83-.53.6-.01,1.24-.02,1.87-.01.61,0,1.22.48,1.84.51.62.03,1.26-.24,1.87-.19.62.05,1.24.17,1.85.23.63.06,1.2.51,1.81.57.63.07,1.29-.26,1.89-.18.64.08,1.25.17,1.84.25.46.06,1.04.26,1.72.26.53,0,1.1-.28,1.71-.32.56-.03,1.18.4,1.77.35.58-.05,1.14-.44,1.7-.5.6-.06,1.17-.26,1.71-.32.65-.07,1.23-.27,1.71-.32.59-.06,1.27.26,1.88.08.59-.17,1.15-.48,1.74-.63.62-.16,1.21-.27,1.8-.27.58,0,1.19-.1,1.75.06.58.16,1.11.49,1.63.67.62.22,1.18.72,1.65.73.52.01,1.19-.41,1.89-.55.61-.12,1.28-.11,1.91-.23.68-.14,1.3-.36,1.86-.39.62-.04,1.22.01,1.84.03.61.02,1.24-.32,1.85-.28.61.04,1.2.45,1.82.47.61.02,1.22-.15,1.84-.17.61-.03,1.21-.06,1.82-.17.73-.13,1.34-.29,1.92-.47.66-.2,1.21-.57,1.85-.76.59-.17,1.3.15,2.02.09.58-.05,1.22-.55,1.98-.5.63.05,1.24.02,1.85.05.63.02,1.24.26,1.85.27.62.01,1.24,0,1.86.01.62.02,1.21.47,1.83.52.47.04.99-.1,1.49.03.51.14,1.03.45,1.48.44.59-.02,1.3-.21,1.92-.46.61-.25,1.14-.45,1.73-.49.56-.03,1.18,0,1.86.12.68.13,1.38.32,1.93.34.37,0,1-.22,1.67-.3.54-.06,1.11-.15,1.63-.12.64.05.99.26,1.27.68.23.34.6.75.36,1.5"/><path d="M141.7,101.84c-.02.06-.83.88-1.02.9-.48.06-1.05-.14-1.62-.1-.53.04-1.08-.16-1.61-.14-.56.02-1.1.26-1.59.26-.93.01-1.73-.22-2.64-.18-.59.03-1.08.4-1.68.62-.56.2-1.23.33-1.87.38-.56.04-1.17-.26-1.79-.28-.58-.02-1.16-.15-1.76-.21-.58-.05-1.21.16-1.8.09-.59-.07-1.19-.13-1.78-.2-.6-.08-1.19-.23-1.77-.29-.61-.07-1.19-.43-1.76-.47-.63-.04-1.25.07-1.8.1-.49.02-1.08.16-1.64.34-.5.15-.94.59-1.48.78-.51.19-1.12.11-1.64.26-.54.16-1.01.61-1.53.66-.62.06-1.27-.22-1.91-.21-.63.01-1.25-.04-1.88-.06-.63-.02-1.27.34-1.9.32-.63-.02-1.26-.33-1.88-.34-.64,0-1.27.21-1.89.25-.57.04-1.25-.06-1.92.07-.62.12-1.21.5-1.83.6-.68.12-1.35.32-1.91.31-.56,0-1.02-.53-1.53-.71-.52-.18-1.03-.39-1.54-.56-.52-.17-1.09.09-1.65.13-.48.03-1.02.21-1.66.38-.54.14-1.25-.2-1.82-.05-.59.16-1.14.35-1.66.42-.6.08-1.16.24-1.73.3-.6.06-1.19-.06-1.76-.02-.6.04-1.15.65-1.73.67-.59.02-1.19-.47-1.77-.48-.59,0-1.17-.07-1.75-.09-.59-.02-1.17.07-1.76.04-.58-.03-1.18.17-1.77.12-.58-.04-1.15-.21-1.74-.26-.58-.05-1.16-.15-1.75-.21-.57-.06-1.18.09-1.77.03-.57-.06-1.17-.02-1.76-.07-.57-.05-1.12-.5-1.72-.54-.37-.03-.99.44-1.7.47-.54.02-1.13-.5-1.71-.51-.61-.01-1.16-.04-1.65-.15-.71-.15-1.16-.22-1.24-.71-.13-.85-.15-1.53.29-1.78.43-.25,1.2.09,1.86.03.59-.05,1.19-.51,1.83-.53.6-.01,1.24-.02,1.87-.01.61,0,1.22.48,1.84.51.62.03,1.26-.24,1.87-.19.62.05,1.24.17,1.85.23.63.06,1.2.51,1.81.57.63.07,1.29-.26,1.89-.18.64.08,1.25.17,1.84.25.46.06,1.04.26,1.72.26.53,0,1.1-.28,1.71-.32.56-.03,1.18.4,1.77.35.58-.05,1.14-.44,1.7-.5.6-.06,1.17-.26,1.71-.32.65-.07,1.23-.27,1.71-.32.59-.06,1.27.26,1.88.08.59-.17,1.15-.48,1.74-.63.62-.16,1.21-.27,1.8-.27.58,0,1.19-.1,1.75.06.58.16,1.11.49,1.63.67.62.22,1.18.72,1.65.73.52.01,1.19-.41,1.89-.55.61-.12,1.28-.11,1.91-.23.68-.14,1.3-.36,1.86-.39.62-.04,1.22.01,1.84.03.61.02,1.24-.32,1.85-.28.61.04,1.2.45,1.82.47.61.02,1.22-.15,1.84-.17.61-.03,1.21-.06,1.82-.17.73-.13,1.34-.29,1.92-.47.66-.2,1.21-.57,1.85-.76.59-.17,1.3.15,2.02.09.58-.05,1.22-.55,1.98-.5.63.05,1.24.02,1.85.05.63.02,1.24.26,1.85.27.62.01,1.24,0,1.86.01.62.02,1.21.47,1.83.52.47.04.99-.1,1.49.03.51.14,1.03.45,1.48.44.59-.02,1.3-.21,1.92-.46.61-.25,1.14-.45,1.73-.49.56-.03,1.18,0,1.86.12.68.13,1.38.32,1.93.34.37,0,1-.22,1.67-.3.54-.06,1.11-.15,1.63-.12.64.05.99.26,1.27.68.23.34.6.75.36,1.5"/><path d="M59.66,87.52c.35-.34,1.36-.02,2.21-.06.82-.04,1.68.05,2.13,0,.58-.06,1.08-.38,1.59-.46.53-.09,1.03-.26,1.59-.3.49-.03,1.01.06,1.61.12.71.07,1.41.63,2.12.61.66-.02.99-.71,1.47-.77.59-.07,1.18-.24,1.77-.28.59-.04,1.2.06,1.79.04.59-.02,1.19.23,1.78.23.59,0,1.19-.3,1.78-.29.59.01,1.2-.14,1.79-.12.6.02,1.19.04,1.78.06.6.03,1.17.47,1.76.5.6.02,1.19-.04,1.78-.02.57.02,1.17.23,1.74.19.57-.04,1.16-.08,1.73-.16.57-.08,1.06-.64,1.63-.74.57-.1,1.13-.22,1.69-.33.57-.11,1.22.27,1.78.17.57-.1,1.11-.33,1.67-.4.58-.07,1.14-.04,1.7-.05.58-.02,1.14-.19,1.7-.13.59.07,1.21-.16,1.8-.11.59.05,1.16.47,1.76.5.59.03,1.19-.01,1.79,0,.59.02,1.19.11,1.78.13.59.01,1.19-.04,1.79-.03.59.01,1.18.15,1.78.17.59.02,1.19-.15,1.79-.12.57.03,1.13-.13,1.69-.14.56-.02,1.12-.06,1.68-.11.56-.05,1.17.29,1.73.21.56-.07,1.04-.72,1.6-.79.56-.08,1.19.39,1.74.33.56-.06,1.08-.57,1.64-.61.62-.04,1.25.24,1.87.21.62-.02,1.23-.26,1.84-.27.62-.01,1.24-.04,1.85-.05.62,0,1.23-.14,1.85-.14.62,0,1.23.45,1.85.44.62,0,1.23.02,1.85.01.62,0,1.22-.39,1.84-.41.61-.02,1.24.12,1.85.08.61-.04,1.1-.61,1.66-.74.54-.12,1.23.07,1.84.52.75.55.51,1.1.08,1.58-.35.39-.72,1.11-1.34,1.37-.67.28-1.49.08-1.92.14-.6.08-1.19.28-1.79.33-.6.04-1.21.06-1.82.08-.61.02-1.21-.17-1.82-.17-.61,0-1.21,0-1.82,0-.61,0-1.22.09-1.83.09-.61,0-1.22.23-1.82.23-.61,0-1.22-.26-1.82-.24-.61.01-1.2.42-1.8.46-.57.03-1.14-.05-1.73.02-.57.07-1.19-.21-1.77-.13-.57.08-1.12.39-1.69.47-.58.08-1.15.17-1.73.23-.58.07-1.17-.06-1.74-.02-.59.03-1.16.22-1.73.2-.68-.02-1.29.2-1.85.19-.66-.02-1.26,0-1.84-.02-.62-.01-1.21-.3-1.84-.29-.57,0-1.19-.19-1.85-.15-.56.03-1.18-.01-1.85.04-.68.05-1.2.03-1.74-.06-.65-.11-1.25-.06-1.78-.22-.61-.19-1.19-.43-1.78-.44-.53,0-1.24.13-1.99.31-.61.15-1.19.58-1.85.78-.64.19-1.3.38-1.92.54-.71.19-1.41.07-1.98.13-.63.06-1.22-.04-1.83-.08-.63-.04-1.31.43-1.92.35-.62-.09-1.2-.44-1.81-.51-.62-.07-1.24-.05-1.85-.04-.58,0-1.2-.19-1.84-.15-.59.04-1.2.18-1.82.23-.6.05-1.2.19-1.81.25-.61.06-1.19.37-1.8.42-.62.06-1.26-.17-1.86-.12-.62.05-1.23.28-1.82.3-.64.02-1.26-.06-1.84-.08-.62-.02-1.26-.07-1.83-.2-.6-.14-1.13-.49-1.72-.52-.22-.01-.93-.12-1.84-.1-.56.01-1.19.09-1.83.07-.63-.01-1.27.11-1.85.04-.74-.09-1.46-.14-1.86-.37-.55-.31-.72-1.14,0-1.84"/><path d="M59.66,87.52c.35-.34,1.36-.02,2.21-.06.82-.04,1.68.05,2.13,0,.58-.06,1.08-.38,1.59-.46.53-.09,1.03-.26,1.59-.3.49-.03,1.01.06,1.61.12.71.07,1.41.63,2.12.61.66-.02.99-.71,1.47-.77.59-.07,1.18-.24,1.77-.28.59-.04,1.2.06,1.79.04.59-.02,1.19.23,1.78.23.59,0,1.19-.3,1.78-.29.59.01,1.2-.14,1.79-.12.6.02,1.19.04,1.78.06.6.03,1.17.47,1.76.5.6.02,1.19-.04,1.78-.02.57.02,1.17.23,1.74.19.57-.04,1.16-.08,1.73-.16.57-.08,1.06-.64,1.63-.74.57-.1,1.13-.22,1.69-.33.57-.11,1.22.27,1.78.17.57-.1,1.11-.33,1.67-.4.58-.07,1.14-.04,1.7-.05.58-.02,1.14-.19,1.7-.13.59.07,1.21-.16,1.8-.11.59.05,1.16.47,1.76.5.59.03,1.19-.01,1.79,0,.59.02,1.19.11,1.78.13.59.01,1.19-.04,1.79-.03.59.01,1.18.15,1.78.17.59.02,1.19-.15,1.79-.12.57.03,1.13-.13,1.69-.14.56-.02,1.12-.06,1.68-.11.56-.05,1.17.29,1.73.21.56-.07,1.04-.72,1.6-.79.56-.08,1.19.39,1.74.33.56-.06,1.08-.57,1.64-.61.62-.04,1.25.24,1.87.21.62-.02,1.23-.26,1.84-.27.62-.01,1.24-.04,1.85-.05.62,0,1.23-.14,1.85-.14.62,0,1.23.45,1.85.44.62,0,1.23.02,1.85.01.62,0,1.22-.39,1.84-.41.61-.02,1.24.12,1.85.08.61-.04,1.1-.61,1.66-.74.54-.12,1.23.07,1.84.52.75.55.51,1.1.08,1.58-.35.39-.72,1.11-1.34,1.37-.67.28-1.49.08-1.92.14-.6.08-1.19.28-1.79.33-.6.04-1.21.06-1.82.08-.61.02-1.21-.17-1.82-.17-.61,0-1.21,0-1.82,0-.61,0-1.22.09-1.83.09-.61,0-1.22.23-1.82.23-.61,0-1.22-.26-1.82-.24-.61.01-1.2.42-1.8.46-.57.03-1.14-.05-1.73.02-.57.07-1.19-.21-1.77-.13-.57.08-1.12.39-1.69.47-.58.08-1.15.17-1.73.23-.58.07-1.17-.06-1.74-.02-.59.03-1.16.22-1.73.2-.68-.02-1.29.2-1.85.19-.66-.02-1.26,0-1.84-.02-.62-.01-1.21-.3-1.84-.29-.57,0-1.19-.19-1.85-.15-.56.03-1.18-.01-1.85.04-.68.05-1.2.03-1.74-.06-.65-.11-1.25-.06-1.78-.22-.61-.19-1.19-.43-1.78-.44-.53,0-1.24.13-1.99.31-.61.15-1.19.58-1.85.78-.64.19-1.3.38-1.92.54-.71.19-1.41.07-1.98.13-.63.06-1.22-.04-1.83-.08-.63-.04-1.31.43-1.92.35-.62-.09-1.2-.44-1.81-.51-.62-.07-1.24-.05-1.85-.04-.58,0-1.2-.19-1.84-.15-.59.04-1.2.18-1.82.23-.6.05-1.2.19-1.81.25-.61.06-1.19.37-1.8.42-.62.06-1.26-.17-1.86-.12-.62.05-1.23.28-1.82.3-.64.02-1.26-.06-1.84-.08-.62-.02-1.26-.07-1.83-.2-.6-.14-1.13-.49-1.72-.52-.22-.01-.93-.12-1.84-.1-.56.01-1.19.09-1.83.07-.63-.01-1.27.11-1.85.04-.74-.09-1.46-.14-1.86-.37-.55-.31-.72-1.14,0-1.84"/><path d="M126.49,80.06c.71-.05,1.36.1,1.98.13.7.03,1.36-.07,1.99,0,.67.08,1.33.04,1.98.12.64.07,1.29-.05,1.97-.04.44,0,1.14.08,1.91-.05.65-.1,1.33.15,1.94.18.76.04,1.36-.02,1.56.62.2.64.25,1.32-.15,1.67-.34.31-1.02.4-1.61.56-.49.13-1.09-.11-1.64-.06-.55.05-1.08.4-1.59.41-.67,0-1.25.04-1.61.02-.63-.03-1.23-.24-1.82-.24-.63,0-1.23.21-1.83.23-.62.01-1.22.05-1.82.08-.61.03-1.23-.17-1.83-.14-.6.03-1.19.33-1.8.36-.6.03-1.21,0-1.83.02-.59.01-1.2-.13-1.83-.13-.8,0-1.52-.57-2.32-.57-.57,0-1.23.08-1.93.2-.6.1-1.27.07-1.94.21-.62.13-1.25.25-1.89.38-.63.12-1.24.39-1.87.47-.65.08-1.29,0-1.92,0-.7,0-1.43.09-2.09-.12-.77-.24-1.45-.27-2.02-.27-.59,0-1.26-.44-1.92-.32-.6.11-1.22.31-1.85.45-.62.14-1.25.18-1.86.29-.64.11-1.23.64-1.83.64-.51,0-.99-.37-1.47-.46-.51-.09-1.04,0-1.51-.09-.52-.1-.99,0-1.46.02-.52.01-1.11-.17-1.73-.04-.55.11-1.15.13-1.73.27-.57.14-1.07.62-1.62.72-.61.12-1.23-.21-1.77-.2-.51,0-1.05-.08-1.66-.15-.53-.06-1.11.01-1.69-.09-.55-.09-1.13-.11-1.69-.21-.56-.1-1.09-.44-1.64-.53-.58-.09-1.17-.12-1.7-.17-.61-.06-1.2.04-1.71.07-.52.03-1.08.17-1.58.47-.43.26-.77.84-1.36.91-.46.06-1.13.14-1.88.12-.58-.01-1.2-.52-1.84-.56-.63-.04-1.3.42-1.89.37-.72-.05-1.33-.48-1.82-.52-.44-.03-.84-.24-1.28-.37-.46-.14-.98-.14-1.41-.13-.39,0-1.32.37-2.13.43-.79.06-1.6-.1-1.59-1.11,0-.36.49-.88,1.09-1.21.43-.24,1.08-.15,1.56-.33.64-.24,1.17-.44,1.43-.47.64-.06,1.53.59,2.31.63.5.02,1.05.07,1.63.1.53.03,1.1-.2,1.65-.17.56.03,1.11.03,1.64.06.6.03,1.16.32,1.64.31.53-.01,1.14-.69,1.86-1.08.59-.32,1.25-.83,1.97-.84.5,0,1.08.05,1.67.12.52.06.99.64,1.55.74.53.09,1.07.21,1.61.32.55.11,1.18-.27,1.71-.17.57.1,1.08.35,1.59.42.6.08,1.15.26,1.63.25.5,0,1.14-.12,1.83-.28.57-.13,1.12-.53,1.72-.69.61-.17,1.31.04,1.88-.1.69-.17,1.25-.57,1.73-.6.5-.02.98.09,1.4.25.46.18.89.31,1.32.38.56.08,1.09,0,1.62,0,.56-.01,1.11.11,1.64.03.55-.09,1.15.12,1.68,0,.54-.12.95-.81,1.48-.93.54-.12,1.18.29,1.71.22.54-.07,1.05-.13,1.59-.1.86.04,1.44.46,2.13.58.56.1,1.12.27,1.68.27s1.13-.13,1.7-.2c.56-.07,1.13-.16,1.68-.27.56-.11,1.16-.03,1.71-.15.57-.13,1.12-.19,1.67-.29.58-.11,1.08-.65,1.62-.68.61-.04,1.25.43,1.87.42.61-.01,1.22-.29,1.85-.29.61,0,1.23-.06,1.85-.06.61,0,1.24.12,1.86.1.61-.02,1.23-.07,1.86-.11"/><path d="M126.49,80.06c.71-.05,1.36.1,1.98.13.7.03,1.36-.07,1.99,0,.67.08,1.33.04,1.98.12.64.07,1.29-.05,1.97-.04.44,0,1.14.08,1.91-.05.65-.1,1.33.15,1.94.18.76.04,1.36-.02,1.56.62.2.64.25,1.32-.15,1.67-.34.31-1.02.4-1.61.56-.49.13-1.09-.11-1.64-.06-.55.05-1.08.4-1.59.41-.67,0-1.25.04-1.61.02-.63-.03-1.23-.24-1.82-.24-.63,0-1.23.21-1.83.23-.62.01-1.22.05-1.82.08-.61.03-1.23-.17-1.83-.14-.6.03-1.19.33-1.8.36-.6.03-1.21,0-1.83.02-.59.01-1.2-.13-1.83-.13-.8,0-1.52-.57-2.32-.57-.57,0-1.23.08-1.93.2-.6.1-1.27.07-1.94.21-.62.13-1.25.25-1.89.38-.63.12-1.24.39-1.87.47-.65.08-1.29,0-1.92,0-.7,0-1.43.09-2.09-.12-.77-.24-1.45-.27-2.02-.27-.59,0-1.26-.44-1.92-.32-.6.11-1.22.31-1.85.45-.62.14-1.25.18-1.86.29-.64.11-1.23.64-1.83.64-.51,0-.99-.37-1.47-.46-.51-.09-1.04,0-1.51-.09-.52-.1-.99,0-1.46.02-.52.01-1.11-.17-1.73-.04-.55.11-1.15.13-1.73.27-.57.14-1.07.62-1.62.72-.61.12-1.23-.21-1.77-.2-.51,0-1.05-.08-1.66-.15-.53-.06-1.11.01-1.69-.09-.55-.09-1.13-.11-1.69-.21-.56-.1-1.09-.44-1.64-.53-.58-.09-1.17-.12-1.7-.17-.61-.06-1.2.04-1.71.07-.52.03-1.08.17-1.58.47-.43.26-.77.84-1.36.91-.46.06-1.13.14-1.88.12-.58-.01-1.2-.52-1.84-.56-.63-.04-1.3.42-1.89.37-.72-.05-1.33-.48-1.82-.52-.44-.03-.84-.24-1.28-.37-.46-.14-.98-.14-1.41-.13-.39,0-1.32.37-2.13.43-.79.06-1.6-.1-1.59-1.11,0-.36.49-.88,1.09-1.21.43-.24,1.08-.15,1.56-.33.64-.24,1.17-.44,1.43-.47.64-.06,1.53.59,2.31.63.5.02,1.05.07,1.63.1.53.03,1.1-.2,1.65-.17.56.03,1.11.03,1.64.06.6.03,1.16.32,1.64.31.53-.01,1.14-.69,1.86-1.08.59-.32,1.25-.83,1.97-.84.5,0,1.08.05,1.67.12.52.06.99.64,1.55.74.53.09,1.07.21,1.61.32.55.11,1.18-.27,1.71-.17.57.1,1.08.35,1.59.42.6.08,1.15.26,1.63.25.5,0,1.14-.12,1.83-.28.57-.13,1.12-.53,1.72-.69.61-.17,1.31.04,1.88-.1.69-.17,1.25-.57,1.73-.6.5-.02.98.09,1.4.25.46.18.89.31,1.32.38.56.08,1.09,0,1.62,0,.56-.01,1.11.11,1.64.03.55-.09,1.15.12,1.68,0,.54-.12.95-.81,1.48-.93.54-.12,1.18.29,1.71.22.54-.07,1.05-.13,1.59-.1.86.04,1.44.46,2.13.58.56.1,1.12.27,1.68.27s1.13-.13,1.7-.2c.56-.07,1.13-.16,1.68-.27.56-.11,1.16-.03,1.71-.15.57-.13,1.12-.19,1.67-.29.58-.11,1.08-.65,1.62-.68.61-.04,1.25.43,1.87.42.61-.01,1.22-.29,1.85-.29.61,0,1.23-.06,1.85-.06.61,0,1.24.12,1.86.1.61-.02,1.23-.07,1.86-.11"/><path d="M57.91,114.08c.57-.68,1.05-.02,1.94,0,.89,0,.89.24,1.78.25.89.01.89-.18,1.79-.17.89.01.89-.03,1.78-.02.89,0,.89.21,1.78.22.89.01.89.09,1.78.1.89,0,.89.06,1.79.07.89,0,.9-.21,1.79-.2.89,0,.89-.13,1.79-.12.89,0,.89.09,1.78.1.89,0,.89.05,1.78.06.89,0,.89.34,1.78.35.89,0,.89-.05,1.78-.04.89,0,.9-.43,1.78-.42.89,0,.89.39,1.78.4.89,0,.89.12,1.78.13.89,0,.9-.46,1.79-.45.89,0,.89.03,1.79.04.89,0,.89.19,1.78.2.89,0,.89.15,1.78.16.89,0,.89-.27,1.78-.26.89,0,.89.03,1.78.04.89,0,.89.21,1.78.22.89,0,.9-.33,1.79-.32.89,0,.89.45,1.78.46.89,0,.9-.21,1.79-.2.89.01.9-.22,1.79-.21.89,0,.89.11,1.78.12.89,0,.9-.04,1.79-.03.89,0,.89-.04,1.79-.03.89,0,.89.38,1.78.39s.9-.21,1.79-.2c.9.01.89.09,1.79.1.89,0,.9-.18,1.79-.17.89,0,.89.08,1.79.09.9,0,.89.16,1.79.17.9,0,.9-.13,1.79-.12.89.01.89.24,1.78.25.89.01.9-.15,1.79-.14.9,0,.9-.09,1.79-.08.89,0,.89.07,1.79.08.9.01.9.09,1.79.1.9,0,.9.06,1.79.07.9,0,.89.12,1.79.13.9,0,.9.06,1.79.07.9,0,.9.02,1.8.03.9,0,1.23-.79,1.79-.09.68.85.22,1.09.21,2.18-.01,1.09.55,1.43-.15,2.26-.57.68-.99.21-1.88.2-.89,0-.89-.11-1.78-.12-.89-.01-.89-.2-1.78-.21s-.89.15-1.79.14c-.89,0-.89-.32-1.78-.33-.89,0-.89.03-1.78.02-.89,0-.89.06-1.79.05-.89,0-.89.1-1.79.09-.89,0-.89-.06-1.78-.07-.89,0-.89.13-1.79.12-.89,0-.89-.48-1.78-.49-.89,0-.9.2-1.79.19-.89,0-.89.08-1.78.07-.89,0-.89.06-1.78.05-.89,0-.89-.25-1.78-.26-.89,0-.89.11-1.78.1-.89,0-.89-.22-1.78-.23-.89,0-.9.48-1.79.47-.89-.01-.89-.11-1.78-.12s-.89-.25-1.78-.26c-.89,0-.89-.18-1.78-.19-.89,0-.89.28-1.79.27-.89,0-.89.19-1.79.18-.89-.01-.89-.03-1.79-.04-.9,0-.89-.08-1.79-.1-.89,0-.89-.06-1.79-.07-.89,0-.89.1-1.79.09-.89,0-.89-.2-1.78-.21-.89-.01-.89-.3-1.78-.32-.89,0-.9.3-1.79.29-.89,0-.9.29-1.79.28q-.89,0-1.79-.02c-.9,0-.89-.11-1.79-.12-.89-.01-.89-.25-1.78-.26-.9,0-.9.32-1.79.31-.89,0-.89-.16-1.79-.17-.9-.01-.89-.32-1.79-.33-.89-.01-.9.28-1.79.27-.89,0-.89.08-1.79.07-.9,0-.89-.41-1.79-.42-.89,0-.9.34-1.79.33-.9,0-.9,0-1.79-.01-.9-.01-.89-.26-1.79-.26-.89,0-.9.25-1.79.24-.9,0-.9-.07-1.79-.08-.9,0-.9-.09-1.8-.1-.9,0-1.11.53-1.68-.17-.68-.85.13-1.02-.11-2.09-.26-1.2-.82-1.48-.12-2.32"/><path d="M141.63,95.25c-.05.87-.59,1.48-.85,1.82-.4.51-.89.51-1.58.43-.57-.06-1.2,0-1.83,0-.6.02-1.22-.18-1.84-.16-.61.01-1.22-.09-1.84-.07-.62.01-1.23.19-1.84.2-.62.02-1.23.25-1.83.28-.63.03-1.24,0-1.84.04-.61.04-1.28.12-1.97.26-.65.13-1.35.12-2,.23-.7.13-1.35.4-1.97.4-.62,0-1.24-.21-1.87-.26-.62-.05-1.22-.3-1.85-.37-.62-.07-1.26,0-1.89-.06-.62-.06-1.25-.15-1.88-.19-.62-.04-1.26.38-1.89.39-.62,0-1.23-.07-1.86-.01-.61.06-1.2.13-1.8.32-.59.18-1.14.47-1.72.69-.59.23-1.2.42-1.77.61-.62.21-1.23.55-1.81.6-.61.05-1.31-.02-1.97-.09-.63-.07-1.28-.19-1.92-.32-.63-.12-1.25-.39-1.86-.52-.65-.14-1.3-.16-1.9-.25-.68-.1-1.28-.09-1.86-.05-.49.03-1.12-.34-1.64-.15-.51.18-.9.82-1.4.89-.66.1-1.35,0-2.01.04-.66.03-1.33.16-1.98.16-.67,0-1.34-.44-1.99-.42-.67.02-1.33.24-1.98.32-.61.08-1.33.29-1.99.55-.67.27-1.27.9-1.88.92-.51.02-1.19-.3-1.95-.46-.6-.13-1.25-.3-1.91-.47-.65-.16-1.27-.47-1.88-.61-.71-.16-1.4-.28-1.96-.32-.59-.05-1.18.22-1.75.21-.58,0-1.15.17-1.72.19-.58.02-1.18-.33-1.75-.29-.58.03-1.15.07-1.73.09-.57.03-1.15,0-1.73,0-.57,0-1.17.44-1.75.41-.57-.03-1.16-.16-1.74-.24-.29-.04-1.55-.39-1.62-.63-.1-.8.44-1.29.73-1.66.35-.46.76-1.02,1.43-1.08.56-.06,1.24-.06,1.85-.02.65.05,1.26.27,1.76.24.56-.04,1.12-.03,1.66-.08.55-.05,1.14.26,1.69.21.55-.05,1.06-.65,1.61-.68.55-.03,1.12.11,1.68.11s1.07.36,1.64.41c.53.04,1.16.2,1.88.36.61.13,1.38-.23,2.02-.08.66.15,1.29.36,1.89.48.77.15,1.43.67,1.91.65.45-.02.97-.72,1.59-.98.57-.24,1.21-.52,1.71-.58.66-.09,1.39-.04,2.1-.02.68.02,1.36.51,2.05.53.71.02,1.4-.36,2.07-.42.61-.06,1.28,0,1.93-.19.62-.17,1.15-.75,1.76-.91.66-.17,1.36.06,1.97.06.49,0,1.01.23,1.61.34.53.1,1.11.03,1.67.16.55.13,1.1.29,1.63.4.59.12,1.18-.03,1.68.01.62.06,1.16.48,1.63.44.6-.05,1.12-.28,1.61-.44.5-.16,1-.32,1.54-.52.46-.17.92-.4,1.51-.55.59-.16,1.24-.12,1.9-.23.61-.1,1.19-.71,1.84-.77.63-.06,1.31.3,1.95.28.65-.03,1.29-.26,1.92-.26.66,0,1.31-.2,1.94-.18.67.02,1.33.04,1.93.08.86.06,1.54,1.16,2.35,1.18.58.02,1.2-.51,1.87-.63.62-.12,1.22-.38,1.84-.51.66-.14,1.38.27,1.96.23.39-.03.99-.56,1.77-.59.54-.02,1.16.41,1.81.4.58-.01,1.18-.24,1.8-.24.6,0,1.21.13,1.81.13.62,0,1.23-.23,1.81-.22.66.01,1.28.07,1.81.1.84.05,1.49.15,1.79.24.45.13,1.17.6,1.71.7"/><path d="M121.7,89.02c.63-.06,1.2.21,1.72.24.61.04,1.19-.06,1.72.05.58.12,1.09.4,1.63.52.54.12,1.11-.08,1.71-.06.59.02,1.21.27,1.88.2.6-.06,1.23-.18,1.87-.28.61-.09,1.27,0,1.89-.1.63-.1,1.25-.16,1.87-.23.64-.07,1.25-.44,1.86-.46.66-.01,1.26.3,1.85.39.98.16,1.31.53,1.38,1.14.06.6-.11,1.28-.88,1.75-.81.21-.83.15-1.67.23-.84.08-.83.11-1.67.19-.84.08-.87-.23-1.71-.15-.84.08-.81.36-1.65.43-.84.08-.83.16-1.67.24-.84.08-.88-.34-1.72-.26s-.82.72-1.67.69c-.55-.24-1.13-.47-1.64-.6-.57-.15-1.05-.68-1.58-.72-.57-.05-1.17-.11-1.72-.07-.56.04-1.07.53-1.63.63-.55.1-1.13.02-1.68.13-.54.11-1.12.02-1.68.13-.54.1-1.05.35-1.62.41-.65.06-1.29.35-1.93.32-.65-.02-1.27-.47-1.91-.53-.64-.06-1.3.02-1.94-.02-.65-.05-1.3-.04-1.94-.02-.65.02-1.25.35-1.88.41-.63.07-1.27.01-1.9.1-.62.08-1.28-.1-1.92-.02-.62.08-1.23.32-1.87.37-.62.05-1.25-.12-1.91-.11-.64,0-1.28.12-1.91.16-.64.04-1.26.19-1.89.24-.63.05-1.28-.02-1.91.03-.63.06-1.27-.08-1.9-.03-.63.04-1.24.67-1.87.68-.53,0-1.08-.49-1.64-.54-.55-.05-1.12.12-1.66.05-.56-.07-1.12.02-1.64-.03-.58-.05-1.12-.4-1.63-.37-.55.03-1.09.52-1.72.67-.57.14-1.21.13-1.8.27-.6.14-1.19.51-1.77.55-.62.04-1.26-.24-1.87-.26-.62-.02-1.26.22-1.88.15-.61-.06-1.15-.74-1.76-.83-.61-.09-1.28.18-1.89.09-.61-.1-1.21-.28-1.81-.37-.62-.09-1.21-.4-1.81-.46-.38-.04-.95.06-1.43.2-.45.13-.83.57-1.23.58-.31.01-.9.25-1.61.26-.51,0-1.08,0-1.64-.02-.57-.03-1.18-.02-1.66-.13-.66-.14-1.25-.57-1.48-.92-.23-.35.11-.8.62-1.44.32-.41.79-.73,1.51-.8.58-.05,1.22.17,1.83.2.7.04,1.36-.16,1.82-.19.64-.05,1.16.07,1.58.03.64-.06,1.09-.14,1.55-.15.45,0,.92-.12,1.57-.06.42.04.89.41,1.52.49.59.07,1.21-.37,1.79-.34.59.03,1.16.04,1.74.03.59,0,1.19.39,1.77.35.59-.04,1.13-.54,1.71-.59.59-.05,1.22.38,1.8.32.58-.06,1.16-.14,1.74-.2.58-.06,1.14-.39,1.72-.43.58-.04,1.17.07,1.75.06.58-.01,1.16.04,1.74.07.62.03,1.22-.2,1.8-.18.6.02,1.19-.02,1.78,0,.59,0,1.18,0,1.77,0,.58,0,1.16-.1,1.77-.12.57-.02,1.17.12,1.78.08.66-.04,1.28,0,1.87-.02.65,0,1.26-.16,1.86-.15.62,0,1.22.47,1.85.48.59,0,1.21-.08,1.86-.1.56-.01,1.18-.17,1.8-.28.57-.11,1.12-.46,1.72-.59.59-.13,1.24.07,1.83-.03.61-.1,1.18-.34,1.76-.36.53-.02,1.1-.26,1.65-.21.54.05,1.07.31,1.61.38.55.07,1.08.29,1.6.34.57.05,1.13.13,1.64.1.54-.03,1.23-.23,1.95-.42.62-.16,1.26-.39,1.89-.56.69-.18,1.32-.57,1.89-.63"/><path d="M141.7,101.84c-.02.06-.83.88-1.02.9-.48.06-1.05-.14-1.62-.1-.53.04-1.08-.16-1.61-.14-.56.02-1.1.26-1.59.26-.93.01-1.73-.22-2.64-.18-.59.03-1.08.4-1.68.62-.56.2-1.23.33-1.87.38-.56.04-1.17-.26-1.79-.28-.58-.02-1.16-.15-1.76-.21-.58-.05-1.21.16-1.8.09-.59-.07-1.19-.13-1.78-.2-.6-.08-1.19-.23-1.77-.29-.61-.07-1.19-.43-1.76-.47-.63-.04-1.25.07-1.8.1-.49.02-1.08.16-1.64.34-.5.15-.94.59-1.48.78-.51.19-1.12.11-1.64.26-.54.16-1.01.61-1.53.66-.62.06-1.27-.22-1.91-.21-.63.01-1.25-.04-1.88-.06-.63-.02-1.27.34-1.9.32-.63-.02-1.26-.33-1.88-.34-.64,0-1.27.21-1.89.25-.57.04-1.25-.06-1.92.07-.62.12-1.21.5-1.83.6-.68.12-1.35.32-1.91.31-.56,0-1.02-.53-1.53-.71-.52-.18-1.03-.39-1.54-.56-.52-.17-1.09.09-1.65.13-.48.03-1.02.21-1.66.38-.54.14-1.25-.2-1.82-.05-.59.16-1.14.35-1.66.42-.6.08-1.16.24-1.73.3-.6.06-1.19-.06-1.76-.02-.6.04-1.15.65-1.73.67-.59.02-1.19-.47-1.77-.48-.59,0-1.17-.07-1.75-.09-.59-.02-1.17.07-1.76.04-.58-.03-1.18.17-1.77.12-.58-.04-1.15-.21-1.74-.26-.58-.05-1.16-.15-1.75-.21-.57-.06-1.18.09-1.77.03-.57-.06-1.17-.02-1.76-.07-.57-.05-1.12-.5-1.72-.54-.37-.03-.99.44-1.7.47-.54.02-1.13-.5-1.71-.51-.61-.01-1.16-.04-1.65-.15-.71-.15-1.16-.22-1.24-.71-.13-.85-.15-1.53.29-1.78.43-.25,1.2.09,1.86.03.59-.05,1.19-.51,1.83-.53.6-.01,1.24-.02,1.87-.01.61,0,1.22.48,1.84.51.62.03,1.26-.24,1.87-.19.62.05,1.24.17,1.85.23.63.06,1.2.51,1.81.57.63.07,1.29-.26,1.89-.18.64.08,1.25.17,1.84.25.46.06,1.04.26,1.72.26.53,0,1.1-.28,1.71-.32.56-.03,1.18.4,1.77.35.58-.05,1.14-.44,1.7-.5.6-.06,1.17-.26,1.71-.32.65-.07,1.23-.27,1.71-.32.59-.06,1.27.26,1.88.08.59-.17,1.15-.48,1.74-.63.62-.16,1.21-.27,1.8-.27.58,0,1.19-.1,1.75.06.58.16,1.11.49,1.63.67.62.22,1.18.72,1.65.73.52.01,1.19-.41,1.89-.55.61-.12,1.28-.11,1.91-.23.68-.14,1.3-.36,1.86-.39.62-.04,1.22.01,1.84.03.61.02,1.24-.32,1.85-.28.61.04,1.2.45,1.82.47.61.02,1.22-.15,1.84-.17.61-.03,1.21-.06,1.82-.17.73-.13,1.34-.29,1.92-.47.66-.2,1.21-.57,1.85-.76.59-.17,1.3.15,2.02.09.58-.05,1.22-.55,1.98-.5.63.05,1.24.02,1.85.05.63.02,1.24.26,1.85.27.62.01,1.24,0,1.86.01.62.02,1.21.47,1.83.52.47.04.99-.1,1.49.03.51.14,1.03.45,1.48.44.59-.02,1.3-.21,1.92-.46.61-.25,1.14-.45,1.73-.49.56-.03,1.18,0,1.86.12.68.13,1.38.32,1.93.34.37,0,1-.22,1.67-.3.54-.06,1.11-.15,1.63-.12.64.05.99.26,1.27.68.23.34.6.75.36,1.5"/><path d="M59.66,87.52c.35-.34,1.36-.02,2.21-.06.82-.04,1.68.05,2.13,0,.58-.06,1.08-.38,1.59-.46.53-.09,1.03-.26,1.59-.3.49-.03,1.01.06,1.61.12.71.07,1.41.63,2.12.61.66-.02.99-.71,1.47-.77.59-.07,1.18-.24,1.77-.28.59-.04,1.2.06,1.79.04.59-.02,1.19.23,1.78.23.59,0,1.19-.3,1.78-.29.59.01,1.2-.14,1.79-.12.6.02,1.19.04,1.78.06.6.03,1.17.47,1.76.5.6.02,1.19-.04,1.78-.02.57.02,1.17.23,1.74.19.57-.04,1.16-.08,1.73-.16.57-.08,1.06-.64,1.63-.74.57-.1,1.13-.22,1.69-.33.57-.11,1.22.27,1.78.17.57-.1,1.11-.33,1.67-.4.58-.07,1.14-.04,1.7-.05.58-.02,1.14-.19,1.7-.13.59.07,1.21-.16,1.8-.11.59.05,1.16.47,1.76.5.59.03,1.19-.01,1.79,0,.59.02,1.19.11,1.78.13.59.01,1.19-.04,1.79-.03.59.01,1.18.15,1.78.17.59.02,1.19-.15,1.79-.12.57.03,1.13-.13,1.69-.14.56-.02,1.12-.06,1.68-.11.56-.05,1.17.29,1.73.21.56-.07,1.04-.72,1.6-.79.56-.08,1.19.39,1.74.33.56-.06,1.08-.57,1.64-.61.62-.04,1.25.24,1.87.21.62-.02,1.23-.26,1.84-.27.62-.01,1.24-.04,1.85-.05.62,0,1.23-.14,1.85-.14.62,0,1.23.45,1.85.44.62,0,1.23.02,1.85.01.62,0,1.22-.39,1.84-.41.61-.02,1.24.12,1.85.08.61-.04,1.1-.61,1.66-.74.54-.12,1.23.07,1.84.52.75.55.51,1.1.08,1.58-.35.39-.72,1.11-1.34,1.37-.67.28-1.49.08-1.92.14-.6.08-1.19.28-1.79.33-.6.04-1.21.06-1.82.08-.61.02-1.21-.17-1.82-.17-.61,0-1.21,0-1.82,0-.61,0-1.22.09-1.83.09-.61,0-1.22.23-1.82.23-.61,0-1.22-.26-1.82-.24-.61.01-1.2.42-1.8.46-.57.03-1.14-.05-1.73.02-.57.07-1.19-.21-1.77-.13-.57.08-1.12.39-1.69.47-.58.08-1.15.17-1.73.23-.58.07-1.17-.06-1.74-.02-.59.03-1.16.22-1.73.2-.68-.02-1.29.2-1.85.19-.66-.02-1.26,0-1.84-.02-.62-.01-1.21-.3-1.84-.29-.57,0-1.19-.19-1.85-.15-.56.03-1.18-.01-1.85.04-.68.05-1.2.03-1.74-.06-.65-.11-1.25-.06-1.78-.22-.61-.19-1.19-.43-1.78-.44-.53,0-1.24.13-1.99.31-.61.15-1.19.58-1.85.78-.64.19-1.3.38-1.92.54-.71.19-1.41.07-1.98.13-.63.06-1.22-.04-1.83-.08-.63-.04-1.31.43-1.92.35-.62-.09-1.2-.44-1.81-.51-.62-.07-1.24-.05-1.85-.04-.58,0-1.2-.19-1.84-.15-.59.04-1.2.18-1.82.23-.6.05-1.2.19-1.81.25-.61.06-1.19.37-1.8.42-.62.06-1.26-.17-1.86-.12-.62.05-1.23.28-1.82.3-.64.02-1.26-.06-1.84-.08-.62-.02-1.26-.07-1.83-.2-.6-.14-1.13-.49-1.72-.52-.22-.01-.93-.12-1.84-.1-.56.01-1.19.09-1.83.07-.63-.01-1.27.11-1.85.04-.74-.09-1.46-.14-1.86-.37-.55-.31-.72-1.14,0-1.84"/><path d="M126.49,80.06c.71-.05,1.36.1,1.98.13.7.03,1.36-.07,1.99,0,.67.08,1.33.04,1.98.12.64.07,1.29-.05,1.97-.04.44,0,1.14.08,1.91-.05.65-.1,1.33.15,1.94.18.76.04,1.36-.02,1.56.62.2.64.25,1.32-.15,1.67-.34.31-1.02.4-1.61.56-.49.13-1.09-.11-1.64-.06-.55.05-1.08.4-1.59.41-.67,0-1.25.04-1.61.02-.63-.03-1.23-.24-1.82-.24-.63,0-1.23.21-1.83.23-.62.01-1.22.05-1.82.08-.61.03-1.23-.17-1.83-.14-.6.03-1.19.33-1.8.36-.6.03-1.21,0-1.83.02-.59.01-1.2-.13-1.83-.13-.8,0-1.52-.57-2.32-.57-.57,0-1.23.08-1.93.2-.6.1-1.27.07-1.94.21-.62.13-1.25.25-1.89.38-.63.12-1.24.39-1.87.47-.65.08-1.29,0-1.92,0-.7,0-1.43.09-2.09-.12-.77-.24-1.45-.27-2.02-.27-.59,0-1.26-.44-1.92-.32-.6.11-1.22.31-1.85.45-.62.14-1.25.18-1.86.29-.64.11-1.23.64-1.83.64-.51,0-.99-.37-1.47-.46-.51-.09-1.04,0-1.51-.09-.52-.1-.99,0-1.46.02-.52.01-1.11-.17-1.73-.04-.55.11-1.15.13-1.73.27-.57.14-1.07.62-1.62.72-.61.12-1.23-.21-1.77-.2-.51,0-1.05-.08-1.66-.15-.53-.06-1.11.01-1.69-.09-.55-.09-1.13-.11-1.69-.21-.56-.1-1.09-.44-1.64-.53-.58-.09-1.17-.12-1.7-.17-.61-.06-1.2.04-1.71.07-.52.03-1.08.17-1.58.47-.43.26-.77.84-1.36.91-.46.06-1.13.14-1.88.12-.58-.01-1.2-.52-1.84-.56-.63-.04-1.3.42-1.89.37-.72-.05-1.33-.48-1.82-.52-.44-.03-.84-.24-1.28-.37-.46-.14-.98-.14-1.41-.13-.39,0-1.32.37-2.13.43-.79.06-1.6-.1-1.59-1.11,0-.36.49-.88,1.09-1.21.43-.24,1.08-.15,1.56-.33.64-.24,1.17-.44,1.43-.47.64-.06,1.53.59,2.31.63.5.02,1.05.07,1.63.1.53.03,1.1-.2,1.65-.17.56.03,1.11.03,1.64.06.6.03,1.16.32,1.64.31.53-.01,1.14-.69,1.86-1.08.59-.32,1.25-.83,1.97-.84.5,0,1.08.05,1.67.12.52.06.99.64,1.55.74.53.09,1.07.21,1.61.32.55.11,1.18-.27,1.71-.17.57.1,1.08.35,1.59.42.6.08,1.15.26,1.63.25.5,0,1.14-.12,1.83-.28.57-.13,1.12-.53,1.72-.69.61-.17,1.31.04,1.88-.1.69-.17,1.25-.57,1.73-.6.5-.02.98.09,1.4.25.46.18.89.31,1.32.38.56.08,1.09,0,1.62,0,.56-.01,1.11.11,1.64.03.55-.09,1.15.12,1.68,0,.54-.12.95-.81,1.48-.93.54-.12,1.18.29,1.71.22.54-.07,1.05-.13,1.59-.1.86.04,1.44.46,2.13.58.56.1,1.12.27,1.68.27s1.13-.13,1.7-.2c.56-.07,1.13-.16,1.68-.27.56-.11,1.16-.03,1.71-.15.57-.13,1.12-.19,1.67-.29.58-.11,1.08-.65,1.62-.68.61-.04,1.25.43,1.87.42.61-.01,1.22-.29,1.85-.29.61,0,1.23-.06,1.85-.06.61,0,1.24.12,1.86.1.61-.02,1.23-.07,1.86-.11"/></svg>