<?xml version="1.0" encoding="UTF-8"?><svg id="Layer_1" xmlns="http://www.w3.org/2000/svg" viewBox="0 0 200 200"><path d="M118.01,108.92c-.33.35-.43.91-.78,1.23-.35.32-.82.5-1.19.8-.37.29-.71.63-1.11.9-.39.27-.77.56-1.18.8-.41.24-.83.47-1.25.69-.42.21-.85.43-1.28.62-.43.19-.88.36-1.33.52-.44.16-.97.07-1.43.21-.45.14-.87.37-1.33.49s-.89.41-1.35.5c-.47.09-.98-.12-1.45-.05-.47.06-.94.05-1.41.09-.47.04-.93.32-1.41.33-.47.01-.95.01-1.43,0-.47-.02-.96,0-1.43-.05-.47-.04-.92-.35-1.38-.42-.47-.07-.99.13-1.45.04-.47-.1-.84-.55-1.3-.67-.46-.12-1.03.11-1.47-.04-.45-.15-.76-.68-1.19-.86-.44-.18-.92-.25-1.34-.47-.43-.21-.99-.19-1.39-.43-.41-.24-.72-.65-1.11-.92-.39-.28-.62-.75-.98-1.06-.36-.31-.75-.57-1.08-.91-.33-.34-.62-.71-.92-1.07-.3-.37-.69-.66-.96-1.05-.26-.39-.4-.86-.63-1.28-.22-.41-.35-.86-.54-1.3-.19-.43-.5-.8-.65-1.26-.15-.44-.08-.94-.2-1.41-.11-.45-.41-.86-.49-1.34-.07-.46-.23-.92-.27-1.4-.04-.46-.07-.94-.08-1.43,0-.47.34-.93.39-1.43.05-.47.03-.94.12-1.43.08-.47.08-.96.2-1.43.12-.46.21-.94.35-1.4.15-.46.43-.87.6-1.32.17-.45.44-.85.64-1.3.2-.44.39-.87.61-1.31.22-.43.26-.95.5-1.37.24-.42.42-.89.68-1.29.26-.41.48-.86.76-1.25.29-.4.67-.72.98-1.09.31-.38.63-.75.96-1.1.34-.36.57-.83.92-1.15.36-.34.84-.54,1.22-.83.39-.3.96-.31,1.36-.56.42-.25.72-.67,1.14-.88.43-.22.92-.29,1.35-.46.45-.18.8-.62,1.25-.76.46-.14.99-.04,1.44-.13.47-.1.92-.34,1.39-.39.48-.05.97.09,1.44.09.48,0,.98-.26,1.45-.21.48.05.95.25,1.41.35.47.1.92.3,1.37.45.45.15.95.22,1.38.42.43.2.74.66,1.14.9.41.24.83.46,1.21.75.38.29.9.41,1.25.74.35.32.45.89.76,1.25.31.36.54.76.81,1.16.27.39.47.8.69,1.22.22.42.54.78.72,1.22.18.44.36.87.5,1.33.13.45.21.91.3,1.39.08.46.1.93.14,1.41.04.47.44.93.43,1.42,0,.47-.01.97-.07,1.45-.05.46-.59.87-.68,1.34-.09.46-.21.9-.34,1.37-.13.45-.24.89-.41,1.35-.17.46-.19.97-.42,1.4-.23.43-.34.95-.64,1.35-.29.39-.92.5-1.26.86-.33.35-.53.84-.9,1.16-.37.32-.87.45-1.28.74-.4.28-.76.61-1.19.85-.43.24-.84.5-1.28.7-.45.2-.93.3-1.39.46-.47.16-.91.33-1.39.45-.48.12-.91.49-1.39.56-.49.07-1.01-.26-1.5-.25-.49.02-.99.35-1.47.31-.49-.04-.99-.14-1.47-.24-.48-.1-.96-.28-1.41-.45-.46-.17-.8-.59-1.22-.83-.42-.24-.9-.39-1.28-.7-.38-.3-.77-.6-1.1-.98-.32-.36-.38-.89-.62-1.3-.25-.41-.64-.73-.81-1.18-.17-.45-.47-.87-.57-1.34-.09-.47.23-.99.2-1.47-.03-.47-.08-.93-.04-1.41.04-.47-.01-.95.08-1.42.09-.47.36-.88.5-1.34.14-.46-.03-1.03.17-1.47.19-.44.62-.76.86-1.18.24-.42.33-.93.62-1.31.29-.39.59-.79.91-1.13.33-.35.84-.52,1.21-.81.38-.3.81-.49,1.23-.72.42-.23.83-.43,1.28-.58.45-.15.84-.62,1.32-.68.47-.06.98.04,1.47.07.46.03.9.32,1.38.44.44.11.88.26,1.34.45.42.18.82.42,1.24.68.41.25.83.43,1.13.78.31.35.5.76.71,1.19.2.41.4.83.51,1.29.11.45.17.91.2,1.38.03.46-.15.91-.2,1.38-.04.47.32,1.01.21,1.45-.11.46-.45.87-.63,1.28-.2.45-.57.82-.92,1.2-.33.36-.82.51-1.25.79-.41.27-.66.9-1.13,1.09-.47.19-1.06,0-1.55.09-.5.1-.97.08-1.47.07-.51-.01-.97-.06-1.44-.21-.49-.15-.99-.21-1.39-.52-.25-.19-.53-.53-.75-.94-.18-.35-.22-.78-.34-1.16-.14-.45-.23-.84-.23-1.15,0-.16.19-.68.34-1.24.15-.58.09-1.26.16-1.34.03-.03.36.14.58-.04.25-.21.32-.42.76-.67.41-.24.88-.55,1.4-.6.51-.04,1.07.04,1.54.18.52.16.75.65,1.03,1.04.26.38.74.78.59,1.37-.16.62-.78.44-1.31.37-.47-.07-1-.28-1.43-.35-.53-.08-1.07.26-1.06,1.03.01.61.34,1.21.81,1.4.41.17,1-.25,1.54-.35.49-.09,1.05-.02,1.48-.27.47-.28.66-.77.85-1.18.22-.49.56-.9.66-1.38.1-.53.05-1.04-.01-1.53-.06-.53-.1-1.06-.37-1.49-.26-.42-.61-.88-1.08-1.15-.4-.23-.95-.32-1.52-.42-.47-.08-.9-.26-1.29-.26-.46,0-.81.47-1.2.6-.4.13-.93,0-1.29.27-.32.24-.42.76-.73,1.11-.32.36-.53.78-.8,1.2-.26.41-.55.78-.75,1.23-.2.45-.54.83-.68,1.31-.14.47-.25.96-.31,1.44-.06.49-.03.99,0,1.47.02.49.14.96.26,1.44.12.48.18.97.39,1.41.22.43.65.71.97,1.1.31.36.67.62,1.08.92.38.28.76.44,1.26.59.45.13.87.5,1.38.54.48.04.99.04,1.49.02.5-.03.97-.23,1.46-.31.5-.08,1.04.01,1.49-.11.51-.14.92-.51,1.33-.68.44-.19,1.03-.1,1.42-.34.41-.25.69-.7,1.05-1,.37-.3.88-.47,1.2-.81.32-.35.31-.97.58-1.35.27-.38.59-.73.81-1.14.22-.42.34-.87.51-1.31.17-.44.5-.82.62-1.28.12-.46,0-.96.07-1.42.07-.47.25-.92.26-1.39.02-.47.13-.95.1-1.42-.04-.47-.16-.94-.25-1.4-.09-.46-.5-.84-.64-1.28-.15-.45-.03-.99-.24-1.42-.2-.43-.67-.69-.93-1.08-.26-.39-.5-.77-.81-1.12-.31-.35-.63-.66-1-.96-.36-.29-.7-.6-1.12-.84-.4-.23-.79-.49-1.24-.67-.43-.16-.86-.38-1.34-.49-.48-.11-.97-.25-1.44-.3-.49-.05-.99.3-1.47.31-.49.01-1.01-.39-1.49-.32-.48.07-.91.45-1.38.58-.47.13-.92.3-1.36.49-.45.18-.88.4-1.3.63-.42.23-.75.6-1.15.88-.4.27-.83.48-1.2.8-.37.31-.62.73-.97,1.07-.34.34-.7.64-1.02,1.02-.31.37-.79.6-1.08,1-.28.39-.42.88-.68,1.3-.25.41-.75.7-.97,1.13-.22.43-.32.93-.51,1.38-.19.45-.19.96-.35,1.42-.16.46-.64.82-.76,1.29-.12.47.22,1.05.13,1.52-.09.48-.55.9-.6,1.38-.05.48.09.99.07,1.47-.01.49.16.96.19,1.45.03.49-.18,1-.1,1.47.08.48.49.88.61,1.35.12.47.13.96.3,1.41.17.45.5.82.72,1.25.22.43.44.83.71,1.24.27.4.41.87.73,1.25.31.36.74.6,1.1.94.35.33.61.74,1.01,1.04.38.29.86.42,1.28.67.41.24.61.89,1.06,1.11.44.21.95.25,1.39.43.45.18.86.48,1.31.63.46.15.98.11,1.43.22.47.12.94.19,1.41.27.47.09.95.11,1.42.16.48.05.96-.06,1.43-.04.48.01.95.3,1.43.28.48-.02.95-.2,1.42-.25.48-.06.92-.23,1.39-.32.47-.09.94-.14,1.4-.27.46-.13,1.01,0,1.46-.17.45-.16.87-.43,1.31-.62.44-.19.73-.68,1.15-.9.42-.23.84-.42,1.25-.68.4-.25.85-.44,1.24-.72.38-.28.81-.51,1.17-.82.37-.31.68-.67,1.03-1,.35-.33.8-.55,1.13-.9.32-.35.42-.9.72-1.27.3-.37.54-.77.82-1.16.28-.39.59-.74.84-1.14.25-.4.73-.68.96-1.09.23-.42.56-.8.76-1.23.2-.43.26-.94.44-1.38.18-.44.07-.99.22-1.44.15-.45.66-.8.77-1.26.12-.46.24-.94.33-1.41.09-.47-.06-.98,0-1.45.06-.47-.02-.95,0-1.43.02-.48,0-.94,0-1.42,0-.47-.02-.94-.06-1.42-.04-.47,0-.95-.08-1.43-.07-.47.09-.99-.02-1.46-.11-.46-.67-.8-.82-1.26-.14-.45.05-1.02-.12-1.47-.17-.44-.61-.77-.82-1.2-.2-.43-.48-.81-.71-1.23-.23-.41-.47-.8-.73-1.21-.26-.4-.21-1.01-.5-1.4-.28-.38-.77-.6-1.08-.97-.32-.38-.62-.75-.95-1.09-.34-.36-.7-.67-1.05-.99-.36-.33-.76-.6-1.13-.9-.38-.31-.68-.7-1.07-.97-.4-.28-.69-.74-1.11-.98-.42-.25-.9-.41-1.33-.62-.44-.21-.98-.18-1.43-.35-.45-.18-.92-.26-1.38-.4-.47-.14-.84-.65-1.31-.75-.47-.1-.97-.19-1.45-.25-.48-.06-.98-.07-1.46-.1s-.97.24-1.46.25c-.48.01-.98-.17-1.46-.12-.48.04-.92.44-1.39.52-.47.07-.96.04-1.44.15-.47.1-1.01-.06-1.48.07-.46.13-.92.34-1.37.5-.46.16-.8.62-1.25.8-.45.18-.88.37-1.32.57-.44.2-.88.38-1.31.61-.43.22-.85.44-1.27.68-.42.24-.94.31-1.35.56-.41.26-.81.53-1.21.81-.4.27-.61.8-1,1.09-.39.29-.94.37-1.31.67-.37.31-.86.49-1.22.81-.36.32-.72.66-1.07.99-.35.33-.46.91-.8,1.25-.34.35-.75.62-1.07.98-.32.36-.5.84-.81,1.21-.3.37-.55.77-.83,1.18-.27.39-.57.76-.83,1.18-.25.41-.87.62-1.1,1.06-.22.42-.4.9-.6,1.34-.2.44-.44.88-.62,1.33-.18.45-.26.95-.43,1.41-.17.46-.03,1.02-.18,1.48-.15.46-.49.86-.62,1.33-.13.47-.38.91-.5,1.38-.12.47-.21.96-.31,1.43-.1.48.02,1-.07,1.48-.09.48-.44.92-.51,1.4-.07.49-.1.98-.15,1.46-.05.49.11,1,.07,1.48-.04.49-.25.97-.26,1.45-.02.49.25.99.26,1.46,0,.5-.33,1-.3,1.48.03.5.39.96.44,1.43.06.5-.05,1,.04,1.47.09.48.29.93.4,1.4.11.48.15.97.28,1.42.13.47.43.88.58,1.34.16.46.13.99.3,1.43.18.46.27.95.47,1.38.2.44.82.68,1.04,1.1.23.43.38.89.63,1.3.25.42.43.87.71,1.26.28.4.61.75.9,1.13.3.38.44.9.76,1.26.33.36.92.45,1.27.78.35.34.65.71,1.02,1.02.37.31.69.67,1.08.96.39.29.82.51,1.22.77.41.26.71.7,1.13.93.42.23.98.19,1.42.4.43.21.79.58,1.24.76.44.18.87.43,1.33.59.46.15.95.2,1.42.32.46.13.89.45,1.36.55.47.1,1.01-.13,1.49-.05.47.08.96.05,1.44.1.48.06.92.42,1.41.45.48.03.97-.01,1.45,0,.48.01.96-.04,1.45-.05.48,0,.97.15,1.46.13.48-.03.94-.31,1.43-.36.48-.05.98.12,1.46.06.48-.07.92-.37,1.4-.46.47-.08.98,0,1.46-.09.47-.1.89-.43,1.36-.55.47-.12.98-.08,1.44-.23.46-.15.83-.54,1.29-.71.45-.17.97-.18,1.41-.37.44-.2.98-.2,1.42-.41.43-.22.77-.63,1.19-.87.42-.23.82-.51,1.24-.76.42-.25.98-.26,1.39-.52.41-.26.63-.8,1.04-1.08.4-.27.94-.34,1.34-.62.4-.28.73-.65,1.12-.94s.78-.57,1.17-.86c.39-.29.79-.57,1.18-.85.39-.29.9-.41,1.29-.69.39-.29.56-.89.95-1.17.4-.28.88-.43,1.28-.7.4-.28.8-.77,1.2-1.03.52.18,1.21.34,1.73.46.57.13,1.06.49.97,1.32-.06.57-.79,1.27-1.2,1.65-.34.31-.67.68-1.05,1.01-.36.3-.9.42-1.29.73-.37.3-.82.49-1.22.8-.38.29-.8.52-1.2.81-.38.28-.56.87-.96,1.16-.39.28-.82.52-1.23.79-.4.27-.82.51-1.23.78-.41.26-.76.61-1.18.87-.41.26-.97.27-1.39.52-.42.25-.77.61-1.19.84-.43.24-.91.37-1.33.59-.44.23-.79.61-1.22.82-.44.22-1.03.11-1.46.3-.46.2-.86.47-1.3.64-.47.18-.93.29-1.38.43-.48.15-.83.71-1.28.81-.46.11-.98-.04-1.45.06-.47.09-.91.3-1.38.38-.47.08-.96.03-1.43.09s-.95.03-1.43.08c-.47.05-.94.22-1.41.25-.47.04-.96-.01-1.43,0-.48.02-.95,0-1.42,0-.48,0-.95.06-1.43.04-.48-.01-.97.22-1.44.19-.48-.03-.94-.25-1.41-.3-.48-.05-.91-.36-1.38-.43-.47-.07-.99.14-1.45.06-.47-.09-.86-.51-1.33-.61-.47-.11-.92-.22-1.37-.34-.46-.13-1.02.09-1.47-.06-.45-.15-.83-.51-1.27-.68-.44-.17-.94-.21-1.38-.41-.44-.2-.82-.49-1.24-.71-.42-.22-.85-.43-1.25-.67-.41-.24-.84-.45-1.24-.72-.39-.26-.72-.63-1.1-.92-.38-.29-.66-.68-1.02-.99-.36-.31-.95-.37-1.29-.7-.34-.33-.52-.82-.84-1.18-.32-.35-.54-.78-.84-1.15-.29-.37-.62-.71-.89-1.11-.27-.39-.79-.62-1.04-1.03-.25-.4-.26-.95-.49-1.37-.22-.41-.64-.74-.85-1.18-.21-.44-.21-.96-.4-1.39-.19-.44-.23-.93-.4-1.37-.18-.45-.59-.8-.74-1.24-.16-.45-.27-.92-.41-1.37-.14-.46-.39-.89-.5-1.34-.12-.46-.2-.94-.3-1.4-.1-.47,0-.97-.08-1.44-.08-.47-.43-.9-.49-1.37-.06-.47.13-.97.09-1.45-.04-.47-.06-.95-.08-1.42-.02-.47.06-.95.06-1.42s-.13-.95-.11-1.43c.02-.47.08-.95.11-1.42.04-.47.08-.94.13-1.42.05-.47.12-.94.18-1.41.07-.47.15-.93.23-1.41.08-.46.34-.9.43-1.37.09-.46.21-.92.31-1.38.1-.46.09-.95.2-1.42.11-.46.26-.91.38-1.37.12-.46.11-.97.28-1.45.17-.45.53-.83.74-1.28.2-.44.1-1.04.33-1.48.23-.43.53-.84.78-1.26.25-.42.49-.86.76-1.27.27-.42.88-.6,1.16-1,.29-.41.19-1.09.47-1.47.3-.41.63-.79.93-1.15.3-.38.72-.66,1.05-1.03.32-.36.62-.75.96-1.1.33-.35.92-.44,1.27-.78.35-.33.7-.66,1.07-.98.36-.32.56-.84.93-1.15.38-.3.73-.64,1.12-.93.39-.29.83-.51,1.23-.79.4-.27.68-.75,1.09-1.01.41-.26.86-.47,1.28-.72.42-.25.93-.33,1.36-.56.43-.23.9-.36,1.34-.57.44-.21.78-.63,1.23-.83.45-.19.97-.2,1.42-.38.46-.18.91-.34,1.37-.49.46-.15.86-.53,1.32-.67.47-.13,1.05.16,1.52.05.47-.11.86-.64,1.34-.73.48-.09,1.01.15,1.49.1.48-.06.95-.32,1.43-.35.49-.03.98-.02,1.46-.02.49,0,.98.03,1.46.06.49.03.96.19,1.44.26.48.06,1.02-.15,1.49-.06.48.1.83.68,1.31.81.47.13.97.12,1.43.29.45.16.99.14,1.44.34.44.2.84.5,1.27.73.43.23.92.35,1.33.6.41.25.69.71,1.09.98.4.28.74.61,1.12.9.38.3.7.65,1.06.97.36.32.77.58,1.11.91.34.34.74.62,1.06.98.32.36.66.71.96,1.08.3.38.43.88.71,1.27.28.39.53.79.79,1.2.25.41.57.77.8,1.2.23.42.48.83.68,1.27.2.44.6.79.78,1.24.18.45.17.97.32,1.43s.34.9.46,1.37c.12.47.13.96.22,1.43.09.47.02.96.09,1.44s.47.91.51,1.39c.04.48-.16.97-.15,1.45.01.48.25.96.23,1.45-.02.48-.1.96-.15,1.44-.04.48-.2.95-.27,1.42-.07.47-.06.97-.15,1.44-.1.47-.49.87-.61,1.33-.12.46-.33.89-.48,1.35-.15.46,0,1.02-.18,1.47-.17.45-.47.84-.67,1.28-.2.43-.35.9-.57,1.33-.22.42-.68.71-.93,1.12-.25.41-.27.96-.54,1.36-.27.4-.42.89-.71,1.27-.29.38-.85.55-1.16.92-.31.36-.7.65-1.04,1"/><path d="M118.01,108.92c-.33.35-.43.91-.78,1.23-.35.32-.82.5-1.19.8-.37.29-.71.63-1.11.9-.39.27-.77.56-1.18.8-.41.24-.83.47-1.25.69-.42.21-.85.43-1.28.62-.43.19-.88.36-1.33.52-.44.16-.97.07-1.43.21-.45.14-.87.37-1.33.49s-.89.41-1.35.5c-.47.09-.98-.12-1.45-.05-.47.06-.94.05-1.41.09-.47.04-.93.32-1.41.33-.47.01-.95.01-1.43,0-.47-.02-.96,0-1.43-.05-.47-.04-.92-.35-1.38-.42-.47-.07-.99.13-1.45.04-.47-.1-.84-.55-1.3-.67-.46-.12-1.03.11-1.47-.04-.45-.15-.76-.68-1.19-.86-.44-.18-.92-.25-1.34-.47-.43-.21-.99-.19-1.39-.43-.41-.24-.72-.65-1.11-.92-.39-.28-.62-.75-.98-1.06-.36-.31-.75-.57-1.08-.91-.33-.34-.62-.71-.92-1.07-.3-.37-.69-.66-.96-1.05-.26-.39-.4-.86-.63-1.28-.22-.41-.35-.86-.54-1.3-.19-.43-.5-.8-.65-1.26-.15-.44-.08-.94-.2-1.41-.11-.45-.41-.86-.49-1.34-.07-.46-.23-.92-.27-1.4-.04-.46-.07-.94-.08-1.43,0-.47.34-.93.39-1.43.05-.47.03-.94.12-1.43.08-.47.08-.96.2-1.43.12-.46.21-.94.35-1.4.15-.46.43-.87.6-1.32.17-.45.44-.85.64-1.3.2-.44.39-.87.61-1.31.22-.43.26-.95.5-1.37.24-.42.42-.89.68-1.29.26-.41.48-.86.76-1.25.29-.4.67-.72.98-1.09.31-.38.63-.75.96-1.1.34-.36.57-.83.92-1.15.36-.34.84-.54,1.22-.83.39-.3.96-.31,1.36-.56.42-.25.72-.67,1.14-.88.43-.22.92-.29,1.35-.46.45-.18.8-.62,1.25-.76.46-.14.99-.04,1.44-.13.47-.1.92-.34,1.39-.39.48-.05.97.09,1.44.09.48,0,.98-.26,1.45-.21.48.05.95.25,1.41.35.47.1.92.3,1.37.45.45.15.95.22,1.38.42.43.2.74.66,1.14.9.41.24.83.46,1.21.75.38.29.9.41,1.25.74.35.32.45.89.76,1.25.31.36.54.76.81,1.16.27.39.47.8.69,1.22.22.42.54.78.72,1.22.18.44.36.87.5,1.33.13.45.21.91.3,1.39.08.46.1.93.14,1.41.04.47.44.93.43,1.42,0,.47-.01.97-.07,1.45-.05.46-.59.87-.68,1.34-.09.46-.21.9-.34,1.37-.13.45-.24.89-.41,1.35-.17.46-.19.97-.42,1.4-.23.43-.34.95-.64,1.35-.29.39-.92.5-1.26.86-.33.35-.53.84-.9,1.16-.37.32-.87.45-1.28.74-.4.28-.76.61-1.19.85-.43.24-.84.5-1.28.7-.45.2-.93.3-1.39.46-.47.16-.91.33-1.39.45-.48.12-.91.49-1.39.56-.49.07-1.01-.26-1.5-.25-.49.02-.99.35-1.47.31-.49-.04-.99-.14-1.47-.24-.48-.1-.96-.28-1.41-.45-.46-.17-.8-.59-1.22-.83-.42-.24-.9-.39-1.28-.7-.38-.3-.77-.6-1.1-.98-.32-.36-.38-.89-.62-1.3-.25-.41-.64-.73-.81-1.18-.17-.45-.47-.87-.57-1.34-.09-.47.23-.99.2-1.47-.03-.47-.08-.93-.04-1.41.04-.47-.01-.95.08-1.42.09-.47.36-.88.5-1.34.14-.46-.03-1.03.17-1.47.19-.44.62-.76.86-1.18.24-.42.33-.93.62-1.31.29-.39.59-.79.91-1.13.33-.35.84-.52,1.21-.81.38-.3.81-.49,1.23-.72.42-.23.83-.43,1.28-.58.45-.15.84-.62,1.32-.68.47-.06.98.04,1.47.07.46.03.9.32,1.38.44.44.11.88.26,1.34.45.42.18.82.42,1.24.68.41.25.83.43,1.13.78.31.35.5.76.71,1.19.2.41.4.83.51,1.29.11.45.17.91.2,1.38.03.46-.15.91-.2,1.38-.04.47.32,1.01.21,1.45-.11.46-.45.87-.63,1.28-.2.45-.57.82-.92,1.2-.33.36-.82.51-1.25.79-.41.27-.66.9-1.13,1.09-.47.19-1.06,0-1.55.09-.5.1-.97.08-1.47.07-.51-.01-.97-.06-1.44-.21-.49-.15-.99-.21-1.39-.52-.25-.19-.53-.53-.75-.94-.18-.35-.22-.78-.34-1.16-.14-.45-.23-.84-.23-1.15,0-.16.19-.68.34-1.24.15-.58.09-1.26.16-1.34.03-.03.36.14.58-.04.25-.21.32-.42.76-.67.41-.24.88-.55,1.4-.6.51-.04,1.07.04,1.54.18.52.16.75.65,1.03,1.04.26.38.74.78.59,1.37-.16.62-.78.44-1.31.37-.47-.07-1-.28-1.43-.35-.53-.08-1.07.26-1.06,1.03.01.61.34,1.21.81,1.4.41.17,1-.25,1.54-.35.49-.09,1.05-.02,1.48-.27.47-.28.66-.77.85-1.18.22-.49.56-.9.66-1.38.1-.53.05-1.04-.01-1.53-.06-.53-.1-1.06-.37-1.49-.26-.42-.61-.88-1.08-1.15-.4-.23-.95-.32-1.52-.42-.47-.08-.9-.26-1.29-.26-.46,0-.81.47-1.2.6-.4.13-.93,0-1.29.27-.32.24-.42.76-.73,1.11-.32.36-.53.78-.8,1.2-.26.41-.55.78-.75,1.23-.2.45-.54.83-.68,1.31-.14.47-.25.96-.31,1.44-.06.49-.03.99,0,1.47.02.49.14.96.26,1.44.12.48.18.97.39,1.41.22.43.65.71.97,1.1.31.36.67.62,1.08.92.38.28.76.44,1.26.59.45.13.87.5,1.38.54.48.04.99.04,1.49.02.5-.03.97-.23,1.46-.31.5-.08,1.04.01,1.49-.11.51-.14.92-.51,1.33-.68.44-.19,1.03-.1,1.42-.34.41-.25.69-.7,1.05-1,.37-.3.88-.47,1.2-.81.32-.35.31-.97.58-1.35.27-.38.59-.73.81-1.14.22-.42.34-.87.51-1.31.17-.44.5-.82.62-1.28.12-.46,0-.96.07-1.42.07-.47.25-.92.26-1.39.02-.47.13-.95.1-1.42-.04-.47-.16-.94-.25-1.4-.09-.46-.5-.84-.64-1.28-.15-.45-.03-.99-.24-1.42-.2-.43-.67-.69-.93-1.08-.26-.39-.5-.77-.81-1.12-.31-.35-.63-.66-1-.96-.36-.29-.7-.6-1.12-.84-.4-.23-.79-.49-1.24-.67-.43-.16-.86-.38-1.34-.49-.48-.11-.97-.25-1.44-.3-.49-.05-.99.3-1.47.31-.49.01-1.01-.39-1.49-.32-.48.07-.91.45-1.38.58-.47.13-.92.3-1.36.49-.45.18-.88.4-1.3.63-.42.23-.75.6-1.15.88-.4.27-.83.48-1.2.8-.37.31-.62.73-.97,1.07-.34.34-.7.64-1.02,1.02-.31.37-.79.6-1.08,1-.28.39-.42.88-.68,1.3-.25.41-.75.7-.97,1.13-.22.43-.32.93-.51,1.38-.19.45-.19.96-.35,1.42-.16.46-.64.82-.76,1.29-.12.47.22,1.05.13,1.52-.09.48-.55.9-.6,1.38-.05.48.09.99.07,1.47-.01.49.16.96.19,1.45.03.49-.18,1-.1,1.47.08.48.49.88.61,1.35.12.47.13.96.3,1.41.17.45.5.82.72,1.25.22.43.44.83.71,1.24.27.4.41.87.73,1.25.31.36.74.6,1.1.94.35.33.61.74,1.01,1.04.38.29.86.42,1.28.67.41.24.61.89,1.06,1.11.44.21.95.25,1.39.43.45.18.86.48,1.31.63.46.15.98.11,1.43.22.47.12.94.19,1.41.27.47.09.95.11,1.42.16.48.05.96-.06,1.43-.04.48.01.95.3,1.43.28.48-.02.95-.2,1.42-.25.48-.06.92-.23,1.39-.32.47-.09.94-.14,1.4-.27.46-.13,1.01,0,1.46-.17.45-.16.87-.43,1.31-.62.44-.19.73-.68,1.15-.9.42-.23.84-.42,1.25-.68.4-.25.85-.44,1.24-.72.38-.28.81-.51,1.17-.82.37-.31.68-.67,1.03-1,.35-.33.8-.55,1.13-.9.32-.35.42-.9.72-1.27.3-.37.54-.77.82-1.16.28-.39.59-.74.84-1.14.25-.4.73-.68.96-1.09.23-.42.56-.8.76-1.23.2-.43.26-.94.44-1.38.18-.44.07-.99.22-1.44.15-.45.66-.8.77-1.26.12-.46.24-.94.33-1.41.09-.47-.06-.98,0-1.45.06-.47-.02-.95,0-1.43.02-.48,0-.94,0-1.42,0-.47-.02-.94-.06-1.42-.04-.47,0-.95-.08-1.43-.07-.47.09-.99-.02-1.46-.11-.46-.67-.8-.82-1.26-.14-.45.05-1.02-.12-1.47-.17-.44-.61-.77-.82-1.2-.2-.43-.48-.81-.71-1.23-.23-.41-.47-.8-.73-1.21-.26-.4-.21-1.01-.5-1.4-.28-.38-.77-.6-1.08-.97-.32-.38-.62-.75-.95-1.09-.34-.36-.7-.67-1.05-.99-.36-.33-.76-.6-1.13-.9-.38-.31-.68-.7-1.07-.97-.4-.28-.69-.74-1.11-.98-.42-.25-.9-.41-1.33-.62-.44-.21-.98-.18-1.43-.35-.45-.18-.92-.26-1.38-.4-.47-.14-.84-.65-1.31-.75-.47-.1-.97-.19-1.45-.25-.48-.06-.98-.07-1.46-.1s-.97.24-1.46.25c-.48.01-.98-.17-1.46-.12-.48.04-.92.44-1.39.52-.47.07-.96.04-1.44.15-.47.1-1.01-.06-1.48.07-.46.13-.92.34-1.37.5-.46.16-.8.62-1.25.8-.45.18-.88.37-1.32.57-.44.2-.88.38-1.31.61-.43.22-.85.44-1.27.68-.42.24-.94.31-1.35.56-.41.26-.81.53-1.21.81-.4.27-.61.8-1,1.09-.39.29-.94.37-1.31.67-.37.31-.86.49-1.22.81-.36.32-.72.66-1.07.99-.35.33-.46.91-.8,1.25-.34.35-.75.62-1.07.98-.32.36-.5.84-.81,1.21-.3.37-.55.77-.83,1.18-.27.39-.57.76-.83,1.18-.25.41-.87.62-1.1,1.06-.22.42-.4.9-.6,1.34-.2.44-.44.88-.62,1.33-.18.45-.26.95-.43,1.41-.17.46-.03,1.02-.18,1.48-.15.46-.49.86-.62,1.33-.13.47-.38.91-.5,1.38-.12.47-.21.96-.31,1.43-.1.48.02,1-.07,1.48-.09.48-.44.92-.51,1.4-.07.49-.1.98-.15,1.46-.05.49.11,1,.07,1.48-.04.49-.25.97-.26,1.45-.02.49.25.99.26,1.46,0,.5-.33,1-.3,1.48.03.5.39.96.44,1.43.06.5-.05,1,.04,1.47.09.48.29.93.4,1.4.11.48.15.97.28,1.42.13.47.43.88.58,1.34.16.46.13.99.3,1.43.18.46.27.95.47,1.38.2.44.82.68,1.04,1.1.23.43.38.89.63,1.3.25.42.43.87.71,1.26.28.4.61.75.9,1.13.3.38.44.9.76,1.26.33.36.92.45,1.27.78.35.34.65.71,1.02,1.02.37.31.69.67,1.08.96.39.29.82.51,1.22.77.41.26.71.7,1.13.93.42.23.98.19,1.42.4.43.21.79.58,1.24.76.44.18.87.43,1.33.59.46.15.95.2,1.42.32.46.13.89.45,1.36.55.47.1,1.01-.13,1.49-.05.47.08.96.05,1.44.1.48.06.92.42,1.41.45.48.03.97-.01,1.45,0,.48.01.96-.04,1.45-.05.48,0,.97.15,1.46.13.48-.03.94-.31,1.43-.36.48-.05.98.12,1.46.06.48-.07.92-.37,1.4-.46.47-.08.98,0,1.46-.09.47-.1.89-.43,1.36-.55.47-.12.98-.08,1.44-.23.46-.15.83-.54,1.29-.71.45-.17.97-.18,1.41-.37.44-.2.98-.2,1.42-.41.43-.22.77-.63,1.19-.87.42-.23.82-.51,1.24-.76.42-.25.98-.26,1.39-.52.41-.26.63-.8,1.04-1.08.4-.27.94-.34,1.34-.62.4-.28.73-.65,1.12-.94s.78-.57,1.17-.86c.39-.29.79-.57,1.18-.85.39-.29.9-.41,1.29-.69.39-.29.56-.89.95-1.17.4-.28.88-.43,1.28-.7.4-.28.8-.77,1.2-1.03.52.18,1.21.34,1.73.46.57.13,1.06.49.97,1.32-.06.57-.79,1.27-1.2,1.65-.34.31-.67.68-1.05,1.01-.36.3-.9.42-1.29.73-.37.3-.82.49-1.22.8-.38.29-.8.52-1.2.81-.38.28-.56.87-.96,1.16-.39.28-.82.52-1.23.79-.4.27-.82.51-1.23.78-.41.26-.76.61-1.18.87-.41.26-.97.27-1.39.52-.42.25-.77.61-1.19.84-.43.24-.91.37-1.33.59-.44.23-.79.61-1.22.82-.44.22-1.03.11-1.46.3-.46.2-.86.47-1.3.64-.47.18-.93.29-1.38.43-.48.15-.83.71-1.28.81-.46.11-.98-.04-1.45.06-.47.09-.91.3-1.38.38-.47.08-.96.03-1.43.09s-.95.03-1.43.08c-.47.05-.94.22-1.41.25-.47.04-.96-.01-1.43,0-.48.02-.95,0-1.42,0-.48,0-.95.06-1.43.04-.48-.01-.97.22-1.44.19-.48-.03-.94-.25-1.41-.3-.48-.05-.91-.36-1.38-.43-.47-.07-.99.14-1.45.06-.47-.09-.86-.51-1.33-.61-.47-.11-.92-.22-1.37-.34-.46-.13-1.02.09-1.47-.06-.45-.15-.83-.51-1.27-.68-.44-.17-.94-.21-1.38-.41-.44-.2-.82-.49-1.24-.71-.42-.22-.85-.43-1.25-.67-.41-.24-.84-.45-1.24-.72-.39-.26-.72-.63-1.1-.92-.38-.29-.66-.68-1.02-.99-.36-.31-.95-.37-1.29-.7-.34-.33-.52-.82-.84-1.18-.32-.35-.54-.78-.84-1.15-.29-.37-.62-.71-.89-1.11-.27-.39-.79-.62-1.04-1.03-.25-.4-.26-.95-.49-1.37-.22-.41-.64-.74-.85-1.18-.21-.44-.21-.96-.4-1.39-.19-.44-.23-.93-.4-1.37-.18-.45-.59-.8-.74-1.24-.16-.45-.27-.92-.41-1.37-.14-.46-.39-.89-.5-1.34-.12-.46-.2-.94-.3-1.4-.1-.47,0-.97-.08-1.44-.08-.47-.43-.9-.49-1.37-.06-.47.13-.97.09-1.45-.04-.47-.06-.95-.08-1.42-.02-.47.06-.95.06-1.42s-.13-.95-.11-1.43c.02-.47.08-.95.11-1.42.04-.47.08-.94.13-1.42.05-.47.12-.94.18-1.41.07-.47.15-.93.23-1.41.08-.46.34-.9.43-1.37.09-.46.21-.92.31-1.38.1-.46.09-.95.2-1.42.11-.46.26-.91.38-1.37.12-.46.11-.97.28-1.45.17-.45.53-.83.74-1.28.2-.44.1-1.04.33-1.48.23-.43.53-.84.78-1.26.25-.42.49-.86.76-1.27.27-.42.88-.6,1.16-1,.29-.41.19-1.09.47-1.47.3-.41.63-.79.93-1.15.3-.38.72-.66,1.05-1.03.32-.36.62-.75.96-1.1.33-.35.92-.44,1.27-.78.35-.33.7-.66,1.07-.98.36-.32.56-.84.93-1.15.38-.3.73-.64,1.12-.93.39-.29.83-.51,1.23-.79.4-.27.68-.75,1.09-1.01.41-.26.86-.47,1.28-.72.42-.25.93-.33,1.36-.56.43-.23.9-.36,1.34-.57.44-.21.78-.63,1.23-.83.45-.19.97-.2,1.42-.38.46-.18.91-.34,1.37-.49.46-.15.86-.53,1.32-.67.47-.13,1.05.16,1.52.05.47-.11.86-.64,1.34-.73.48-.09,1.01.15,1.49.1.48-.06.95-.32,1.43-.35.49-.03.98-.02,1.46-.02.49,0,.98.03,1.46.06.49.03.96.19,1.44.26.48.06,1.02-.15,1.49-.06.48.1.83.68,1.31.81.47.13.97.12,1.43.29.45.16.99.14,1.44.34.44.2.84.5,1.27.73.43.23.92.35,1.33.6.41.25.69.71,1.09.98.4.28.74.61,1.12.9.38.3.7.65,1.06.97.36.32.77.58,1.11.91.34.34.74.62,1.06.98.32.36.66.71.96,1.08.3.38.43.88.71,1.27.28.39.53.79.79,1.2.25.41.57.77.8,1.2.23.42.48.83.68,1.27.2.44.6.79.78,1.24.18.45.17.97.32,1.43s.34.9.46,1.37c.12.47.13.96.22,1.43.09.47.02.96.09,1.44s.47.91.51,1.39c.04.48-.16.97-.15,1.45.01.48.25.96.23,1.45-.02.48-.1.96-.15,1.44-.04.48-.2.95-.27,1.42-.07.47-.06.97-.15,1.44-.1.47-.49.87-.61,1.33-.12.46-.33.89-.48,1.35-.15.46,0,1.02-.18,1.47-.17.45-.47.84-.67,1.28-.2.43-.35.9-.57,1.33-.22.42-.68.71-.93,1.12-.25.41-.27.96-.54,1.36-.27.4-.42.89-.71,1.27-.29.38-.85.55-1.16.92-.31.36-.7.65-1.04,1"/><path d="M118.01,108.92c-.33.35-.43.91-.78,1.23-.35.32-.82.5-1.19.8-.37.29-.71.63-1.11.9-.39.27-.77.56-1.18.8-.41.24-.83.47-1.25.69-.42.21-.85.43-1.28.62-.43.19-.88.36-1.33.52-.44.16-.97.07-1.43.21-.45.14-.87.37-1.33.49s-.89.41-1.35.5c-.47.09-.98-.12-1.45-.05-.47.06-.94.05-1.41.09-.47.04-.93.32-1.41.33-.47.01-.95.01-1.43,0-.47-.02-.96,0-1.43-.05-.47-.04-.92-.35-1.38-.42-.47-.07-.99.13-1.45.04-.47-.1-.84-.55-1.3-.67-.46-.12-1.03.11-1.47-.04-.45-.15-.76-.68-1.19-.86-.44-.18-.92-.25-1.34-.47-.43-.21-.99-.19-1.39-.43-.41-.24-.72-.65-1.11-.92-.39-.28-.62-.75-.98-1.06-.36-.31-.75-.57-1.08-.91-.33-.34-.62-.71-.92-1.07-.3-.37-.69-.66-.96-1.05-.26-.39-.4-.86-.63-1.28-.22-.41-.35-.86-.54-1.3-.19-.43-.5-.8-.65-1.26-.15-.44-.08-.94-.2-1.41-.11-.45-.41-.86-.49-1.34-.07-.46-.23-.92-.27-1.4-.04-.46-.07-.94-.08-1.43,0-.47.34-.93.39-1.43.05-.47.03-.94.12-1.43.08-.47.08-.96.2-1.43.12-.46.21-.94.35-1.4.15-.46.43-.87.6-1.32.17-.45.44-.85.64-1.3.2-.44.39-.87.61-1.31.22-.43.26-.95.5-1.37.24-.42.42-.89.68-1.29.26-.41.48-.86.76-1.25.29-.4.67-.72.98-1.09.31-.38.63-.75.96-1.1.34-.36.57-.83.92-1.15.36-.34.84-.54,1.22-.83.39-.3.96-.31,1.36-.56.42-.25.72-.67,1.14-.88.43-.22.92-.29,1.35-.46.45-.18.8-.62,1.25-.76.46-.14.99-.04,1.44-.13.47-.1.92-.34,1.39-.39.48-.05.97.09,1.44.09.48,0,.98-.26,1.45-.21.48.05.95.25,1.41.35.47.1.92.3,1.37.45.45.15.95.22,1.38.42.43.2.74.66,1.14.9.41.24.83.46,1.21.75.38.29.9.41,1.25.74.35.32.45.89.76,1.25.31.36.54.76.81,1.16.27.39.47.8.69,1.22.22.42.54.78.72,1.22.18.44.36.87.5,1.33.13.45.21.91.3,1.39.08.46.1.93.14,1.41.04.47.44.93.43,1.42,0,.47-.01.97-.07,1.45-.05.46-.59.87-.68,1.34-.09.46-.21.9-.34,1.37-.13.45-.24.89-.41,1.35-.17.46-.19.97-.42,1.4-.23.43-.34.95-.64,1.35-.29.39-.92.5-1.26.86-.33.35-.53.84-.9,1.16-.37.32-.87.45-1.28.74-.4.28-.76.61-1.19.85-.43.24-.84.5-1.28.7-.45.2-.93.3-1.39.46-.47.16-.91.33-1.39.45-.48.12-.91.49-1.39.56-.49.07-1.01-.26-1.5-.25-.49.02-.99.35-1.47.31-.49-.04-.99-.14-1.47-.24-.48-.1-.96-.28-1.41-.45-.46-.17-.8-.59-1.22-.83-.42-.24-.9-.39-1.28-.7-.38-.3-.77-.6-1.1-.98-.32-.36-.38-.89-.62-1.3-.25-.41-.64-.73-.81-1.18-.17-.45-.47-.87-.57-1.34-.09-.47.23-.99.2-1.47-.03-.47-.08-.93-.04-1.41.04-.47-.01-.95.08-1.42.09-.47.36-.88.5-1.34.14-.46-.03-1.03.17-1.47.19-.44.62-.76.86-1.18.24-.42.33-.93.62-1.31.29-.39.59-.79.91-1.13.33-.35.84-.52,1.21-.81.38-.3.81-.49,1.23-.72.42-.23.83-.43,1.28-.58.45-.15.84-.62,1.32-.68.47-.06.98.04,1.47.07.46.03.9.32,1.38.44.44.11.88.26,1.34.45.42.18.82.42,1.24.68.41.25.83.43,1.13.78.31.35.5.76.71,1.19.2.41.4.83.51,1.29.11.45.17.91.2,1.38.03.46-.15.91-.2,1.38-.04.47.32,1.01.21,1.45-.11.46-.45.87-.63,1.28-.2.45-.57.82-.92,1.2-.33.36-.82.51-1.25.79-.41.27-.66.9-1.13,1.09-.47.19-1.06,0-1.55.09-.5.1-.97.08-1.47.07-.51-.01-.97-.06-1.44-.21-.49-.15-.99-.21-1.39-.52-.25-.19-.53-.53-.75-.94-.18-.35-.22-.78-.34-1.16-.14-.45-.23-.84-.23-1.15,0-.16.19-.68.34-1.24.15-.58.09-1.26.16-1.34.03-.03.36.14.58-.04.25-.21.32-.42.76-.67.41-.24.88-.55,1.4-.6.51-.04,1.07.04,1.54.18.52.16.75.65,1.03,1.04.26.38.74.78.59,1.37-.16.62-.78.44-1.31.37-.47-.07-1-.28-1.43-.35-.53-.08-1.07.26-1.06,1.03.01.61.34,1.21.81,1.4.41.17,1-.25,1.54-.35.49-.09,1.05-.02,1.48-.27.47-.28.66-.77.85-1.18.22-.49.56-.9.66-1.38.1-.53.05-1.04-.01-1.53-.06-.53-.1-1.06-.37-1.49-.26-.42-.61-.88-1.08-1.15-.4-.23-.95-.32-1.52-.42-.47-.08-.9-.26-1.29-.26-.46,0-.81.47-1.2.6-.4.13-.93,0-1.29.27-.32.24-.42.76-.73,1.11-.32.36-.53.78-.8,1.2-.26.41-.55.78-.75,1.23-.2.45-.54.83-.68,1.31-.14.47-.25.96-.31,1.44-.06.49-.03.99,0,1.47.02.49.14.96.26,1.44.12.48.18.97.39,1.41.22.43.65.71.97,1.1.31.36.67.62,1.08.92.38.28.76.44,1.26.59.45.13.87.5,1.38.54.48.04.99.04,1.49.02.5-.03.97-.23,1.46-.31.5-.08,1.04.01,1.49-.11.51-.14.92-.51,1.33-.68.44-.19,1.03-.1,1.42-.34.41-.25.69-.7,1.05-1,.37-.3.88-.47,1.2-.81.32-.35.31-.97.58-1.35.27-.38.59-.73.81-1.14.22-.42.34-.87.51-1.31.17-.44.5-.82.62-1.28.12-.46,0-.96.07-1.42.07-.47.25-.92.26-1.39.02-.47.13-.95.1-1.42-.04-.47-.16-.94-.25-1.4-.09-.46-.5-.84-.64-1.28-.15-.45-.03-.99-.24-1.42-.2-.43-.67-.69-.93-1.08-.26-.39-.5-.77-.81-1.12-.31-.35-.63-.66-1-.96-.36-.29-.7-.6-1.12-.84-.4-.23-.79-.49-1.24-.67-.43-.16-.86-.38-1.34-.49-.48-.11-.97-.25-1.44-.3-.49-.05-.99.3-1.47.31-.49.01-1.01-.39-1.49-.32-.48.07-.91.45-1.38.58-.47.13-.92.3-1.36.49-.45.18-.88.4-1.3.63-.42.23-.75.6-1.15.88-.4.27-.83.48-1.2.8-.37.31-.62.73-.97,1.07-.34.34-.7.64-1.02,1.02-.31.37-.79.6-1.08,1-.28.39-.42.88-.68,1.3-.25.41-.75.7-.97,1.13-.22.43-.32.93-.51,1.38-.19.45-.19.96-.35,1.42-.16.46-.64.82-.76,1.29-.12.47.22,1.05.13,1.52-.09.48-.55.9-.6,1.38-.05.48.09.99.07,1.47-.01.49.16.96.19,1.45.03.49-.18,1-.1,1.47.08.48.49.88.61,1.35.12.47.13.96.3,1.41.17.45.5.82.72,1.25.22.43.44.83.71,1.24.27.4.41.87.73,1.25.31.36.74.6,1.1.94.35.33.61.74,1.01,1.04.38.29.86.42,1.28.67.41.24.61.89,1.06,1.11.44.21.95.25,1.39.43.45.18.86.48,1.31.63.46.15.98.11,1.43.22.47.12.94.19,1.41.27.47.09.95.11,1.42.16.48.05.96-.06,1.43-.04.48.01.95.3,1.43.28.48-.02.95-.2,1.42-.25.48-.06.92-.23,1.39-.32.47-.09.94-.14,1.4-.27.46-.13,1.01,0,1.46-.17.45-.16.87-.43,1.31-.62.44-.19.73-.68,1.15-.9.42-.23.84-.42,1.25-.68.4-.25.85-.44,1.24-.72.38-.28.81-.51,1.17-.82.37-.31.68-.67,1.03-1,.35-.33.8-.55,1.13-.9.32-.35.42-.9.72-1.27.3-.37.54-.77.82-1.16.28-.39.59-.74.84-1.14.25-.4.73-.68.96-1.09.23-.42.56-.8.76-1.23.2-.43.26-.94.44-1.38.18-.44.07-.99.22-1.44.15-.45.66-.8.77-1.26.12-.46.24-.94.33-1.41.09-.47-.06-.98,0-1.45.06-.47-.02-.95,0-1.43.02-.48,0-.94,0-1.42,0-.47-.02-.94-.06-1.42-.04-.47,0-.95-.08-1.43-.07-.47.09-.99-.02-1.46-.11-.46-.67-.8-.82-1.26-.14-.45.05-1.02-.12-1.47-.17-.44-.61-.77-.82-1.2-.2-.43-.48-.81-.71-1.23-.23-.41-.47-.8-.73-1.21-.26-.4-.21-1.01-.5-1.4-.28-.38-.77-.6-1.08-.97-.32-.38-.62-.75-.95-1.09-.34-.36-.7-.67-1.05-.99-.36-.33-.76-.6-1.13-.9-.38-.31-.68-.7-1.07-.97-.4-.28-.69-.74-1.11-.98-.42-.25-.9-.41-1.33-.62-.44-.21-.98-.18-1.43-.35-.45-.18-.92-.26-1.38-.4-.47-.14-.84-.65-1.31-.75-.47-.1-.97-.19-1.45-.25-.48-.06-.98-.07-1.46-.1s-.97.24-1.46.25c-.48.01-.98-.17-1.46-.12-.48.04-.92.44-1.39.52-.47.07-.96.04-1.44.15-.47.1-1.01-.06-1.48.07-.46.13-.92.34-1.37.5-.46.16-.8.62-1.25.8-.45.18-.88.37-1.32.57-.44.2-.88.38-1.31.61-.43.22-.85.44-1.27.68-.42.24-.94.31-1.35.56-.41.26-.81.53-1.21.81-.4.27-.61.8-1,1.09-.39.29-.94.37-1.31.67-.37.31-.86.49-1.22.81-.36.32-.72.66-1.07.99-.35.33-.46.91-.8,1.25-.34.35-.75.62-1.07.98-.32.36-.5.84-.81,1.21-.3.37-.55.77-.83,1.18-.27.39-.57.76-.83,1.18-.25.41-.87.62-1.1,1.06-.22.42-.4.9-.6,1.34-.2.44-.44.88-.62,1.33-.18.45-.26.95-.43,1.41-.17.46-.03,1.02-.18,1.48-.15.46-.49.86-.62,1.33-.13.47-.38.91-.5,1.38-.12.47-.21.96-.31,1.43-.1.48.02,1-.07,1.48-.09.48-.44.92-.51,1.4-.07.49-.1.98-.15,1.46-.05.49.11,1,.07,1.48-.04.49-.25.97-.26,1.45-.02.49.25.99.26,1.46,0,.5-.33,1-.3,1.48.03.5.39.96.44,1.43.06.5-.05,1,.04,1.47.09.48.29.93.4,1.4.11.48.15.97.28,1.42.13.47.43.88.58,1.34.16.46.13.99.3,1.43.18.46.27.95.47,1.38.2.44.82.68,1.04,1.1.23.43.38.89.63,1.3.25.42.43.87.71,1.26.28.4.61.75.9,1.13.3.38.44.9.76,1.26.33.36.92.45,1.27.78.35.34.65.71,1.02,1.02.37.31.69.67,1.08.96.39.29.82.51,1.22.77.41.26.71.7,1.13.93.42.23.98.19,1.42.4.43.21.79.58,1.24.76.44.18.87.43,1.33.59.46.15.95.2,1.42.32.46.13.89.45,1.36.55.47.1,1.01-.13,1.49-.05.47.08.96.05,1.44.1.48.06.92.42,1.41.45.48.03.97-.01,1.45,0,.48.01.96-.04,1.45-.05.48,0,.97.15,1.46.13.48-.03.94-.31,1.43-.36.48-.05.98.12,1.46.06.48-.07.92-.37,1.4-.46.47-.08.98,0,1.46-.09.47-.1.89-.43,1.36-.55.47-.12.98-.08,1.44-.23.46-.15.83-.54,1.29-.71.45-.17.97-.18,1.41-.37.44-.2.98-.2,1.42-.41.43-.22.77-.63,1.19-.87.42-.23.82-.51,1.24-.76.42-.25.98-.26,1.39-.52.41-.26.63-.8,1.04-1.08.4-.27.94-.34,1.34-.62.4-.28.73-.65,1.12-.94s.78-.57,1.17-.86c.39-.29.79-.57,1.18-.85.39-.29.9-.41,1.29-.69.39-.29.56-.89.95-1.17.4-.28.88-.43,1.28-.7.4-.28.8-.77,1.2-1.03.52.18,1.21.34,1.73.46.57.13,1.06.49.97,1.32-.06.57-.79,1.27-1.2,1.65-.34.31-.67.68-1.05,1.01-.36.3-.9.42-1.29.73-.37.3-.82.49-1.22.8-.38.29-.8.52-1.2.81-.38.28-.56.87-.96,1.16-.39.28-.82.52-1.23.79-.4.27-.82.51-1.23.78-.41.26-.76.61-1.18.87-.41.26-.97.27-1.39.52-.42.25-.77.61-1.19.84-.43.24-.91.37-1.33.59-.44.23-.79.61-1.22.82-.44.22-1.03.11-1.46.3-.46.2-.86.47-1.3.64-.47.18-.93.29-1.38.43-.48.15-.83.71-1.28.81-.46.11-.98-.04-1.45.06-.47.09-.91.3-1.38.38-.47.08-.96.03-1.43.09s-.95.03-1.43.08c-.47.05-.94.22-1.41.25-.47.04-.96-.01-1.43,0-.48.02-.95,0-1.42,0-.48,0-.95.06-1.43.04-.48-.01-.97.22-1.44.19-.48-.03-.94-.25-1.41-.3-.48-.05-.91-.36-1.38-.43-.47-.07-.99.14-1.45.06-.47-.09-.86-.51-1.33-.61-.47-.11-.92-.22-1.37-.34-.46-.13-1.02.09-1.47-.06-.45-.15-.83-.51-1.27-.68-.44-.17-.94-.21-1.38-.41-.44-.2-.82-.49-1.24-.71-.42-.22-.85-.43-1.25-.67-.41-.24-.84-.45-1.24-.72-.39-.26-.72-.63-1.1-.92-.38-.29-.66-.68-1.02-.99-.36-.31-.95-.37-1.29-.7-.34-.33-.52-.82-.84-1.18-.32-.35-.54-.78-.84-1.15-.29-.37-.62-.71-.89-1.11-.27-.39-.79-.62-1.04-1.03-.25-.4-.26-.95-.49-1.37-.22-.41-.64-.74-.85-1.18-.21-.44-.21-.96-.4-1.39-.19-.44-.23-.93-.4-1.37-.18-.45-.59-.8-.74-1.24-.16-.45-.27-.92-.41-1.37-.14-.46-.39-.89-.5-1.34-.12-.46-.2-.94-.3-1.4-.1-.47,0-.97-.08-1.44-.08-.47-.43-.9-.49-1.37-.06-.47.13-.97.09-1.45-.04-.47-.06-.95-.08-1.42-.02-.47.06-.95.06-1.42s-.13-.95-.11-1.43c.02-.47.08-.95.11-1.42.04-.47.08-.94.13-1.42.05-.47.12-.94.18-1.41.07-.47.15-.93.23-1.41.08-.46.34-.9.43-1.37.09-.46.21-.92.31-1.38.1-.46.09-.95.2-1.42.11-.46.26-.91.38-1.37.12-.46.11-.97.28-1.45.17-.45.53-.83.74-1.28.2-.44.1-1.04.33-1.48.23-.43.53-.84.78-1.26.25-.42.49-.86.76-1.27.27-.42.88-.6,1.16-1,.29-.41.19-1.09.47-1.47.3-.41.63-.79.93-1.15.3-.38.72-.66,1.05-1.03.32-.36.62-.75.96-1.1.33-.35.92-.44,1.27-.78.35-.33.7-.66,1.07-.98.36-.32.56-.84.93-1.15.38-.3.73-.64,1.12-.93.39-.29.83-.51,1.23-.79.4-.27.68-.75,1.09-1.01.41-.26.86-.47,1.28-.72.42-.25.93-.33,1.36-.56.43-.23.9-.36,1.34-.57.44-.21.78-.63,1.23-.83.45-.19.97-.2,1.42-.38.46-.18.91-.34,1.37-.49.46-.15.86-.53,1.32-.67.47-.13,1.05.16,1.52.05.47-.11.86-.64,1.34-.73.48-.09,1.01.15,1.49.1.48-.06.95-.32,1.43-.35.49-.03.98-.02,1.46-.02.49,0,.98.03,1.46.06.49.03.96.19,1.44.26.48.06,1.02-.15,1.49-.06.48.1.83.68,1.31.81.47.13.97.12,1.43.29.45.16.99.14,1.44.34.44.2.84.5,1.27.73.43.23.92.35,1.33.6.41.25.69.71,1.09.98.4.28.74.61,1.12.9.38.3.7.65,1.06.97.36.32.77.58,1.11.91.34.34.74.62,1.06.98.32.36.66.71.96,1.08.3.38.43.88.71,1.27.28.39.53.79.79,1.2.25.41.57.77.8,1.2.23.42.48.83.68,1.27.2.44.6.79.78,1.24.18.45.17.97.32,1.43s.34.9.46,1.37c.12.47.13.96.22,1.43.09.47.02.96.09,1.44s.47.91.51,1.39c.04.48-.16.97-.15,1.45.01.48.25.96.23,1.45-.02.48-.1.96-.15,1.44-.04.48-.2.95-.27,1.42-.07.47-.06.97-.15,1.44-.1.47-.49.87-.61,1.33-.12.46-.33.89-.48,1.35-.15.46,0,1.02-.18,1.47-.17.45-.47.84-.67,1.28-.2.43-.35.9-.57,1.33-.22.42-.68.71-.93,1.12-.25.41-.27.96-.54,1.36-.27.4-.42.89-.71,1.27-.29.38-.85.55-1.16.92-.31.36-.7.65-1.04,1"/></svg>