<?xml version="1.0" encoding="UTF-8"?><svg id="Layer_1" xmlns="http://www.w3.org/2000/svg" viewBox="0 0 200 200"><path d="M139.71,87.11c.47-.11.88-.32,1.28-.26.48.07.97.21,1.26.48.33.3.26.78.25,1.26,0,.37-.08.72-.37,1.16-.2.31-.13.84-.38,1.16-.23.3-.62.5-.88.81-.24.29-.53.56-.8.85-.26.28-.57.52-.85.81-.27.28-.38.72-.66,1-.27.27-.72.37-1.01.64-.28.26-.65.43-.95.7-.29.26-.58.52-.88.78-.29.25-.47.64-.77.89-.3.25-.6.5-.9.75-.3.24-.74.32-1.05.56-.31.24-.4.75-.72.99-.31.24-.67.42-.98.65-.31.23-.58.53-.9.76-.32.23-.82.21-1.14.43-.32.23-.6.5-.92.73-.32.23-.53.62-.86.84-.33.22-.71.36-1.04.58-.33.22-.64.46-.97.67-.33.22-.57.58-.9.79-.33.21-.79.23-1.12.43-.34.21-.79.22-1.12.42-.34.2-.56.6-.89.79-.34.2-.79.2-1.13.39-.35.19-.59.57-.93.75-.35.19-.69.39-1.03.57-.36.18-.68.4-1.03.57-.36.18-.83.11-1.17.27-.37.17-.54.73-.89.88-.38.16-.91-.13-1.26,0-.37.14-.71.32-1.09.45-.37.13-.69.4-1.07.52-.38.12-.76.19-1.15.29-.38.1-.7.44-1.09.53-.38.09-.8.05-1.19.13-.39.08-.82-.08-1.21,0-.39.07-.76.21-1.15.26-.39.06-.76.31-1.15.35-.39.05-.8-.08-1.2-.05-.39.04-.77.27-1.17.3-.39.03-.8-.1-1.19-.09-.39.01-.79.06-1.18.07-.39,0-.79-.18-1.18-.19-.39,0-.8.39-1.19.37-.39-.01-.78-.22-1.18-.25-.39-.02-.79-.01-1.19-.04-.39-.03-.78-.21-1.17-.25-.39-.04-.79.02-1.19-.03-.39-.05-.76-.31-1.15-.36-.39-.06-.82.15-1.21.08-.39-.06-.75-.32-1.14-.39-.39-.07-.83.11-1.21.04-.39-.08-.77-.18-1.16-.26-.39-.09-.72-.38-1.11-.47-.38-.09-.82.01-1.2-.09-.38-.1-.69-.48-1.07-.59-.38-.11-.86.12-1.24.01-.38-.12-.76-.23-1.14-.36-.38-.12-.75-.25-1.13-.38-.37-.13-.69-.44-1.06-.58-.37-.14-.66-.49-1.03-.63-.37-.14-.89.08-1.25-.07-.37-.15-.66-.48-1.02-.64-.36-.16-.67-.45-1.02-.61-.36-.16-.82-.11-1.18-.29-.36-.17-.66-.46-1.01-.63-.35-.18-.74-.3-1.08-.49-.35-.19-.67-.43-1.01-.62-.35-.19-.63-.49-.97-.69-.34-.2-.82-.18-1.15-.39-.34-.21-.68-.42-1.01-.63-.33-.22-.54-.62-.86-.84-.33-.23-.54-.59-.86-.83-.32-.23-.81-.23-1.12-.47-.32-.24-.52-.62-.82-.87-.31-.25-.57-.56-.87-.81-.3-.26-.67-.44-.96-.7-.29-.27-.76-.34-1.05-.61-.29-.27-.32-.81-.59-1.09-.28-.28-.83-.3-1.09-.59-.27-.29-.23-.85-.49-1.15-.3-.34-.81-.5-.98-.85-.2-.41-.34-.87-.37-1.26-.04-.45.09-.94.26-1.29.18-.39.5-.82.88-1.01.34-.17.82.12,1.29.16.37.04.78-.02,1.22.17.29.13.8.2,1.18.54.28.26.47.68.78,1.01.28.29.57.61.85.93.28.31.55.65.83.96.29.33.59.63.86.92.33.35.48.8.75,1.04.29.26.84.23,1.14.49.3.25.43.71.75.96.31.24.54.6.86.83.32.23.63.49.96.71.32.22.66.45.99.66.33.21.88.09,1.22.3.34.21.47.76.81.96.34.2.89.04,1.24.23.35.19.61.54.96.72.35.18.8.17,1.15.34.36.17.73.29,1.09.45.36.16.63.53.99.68.36.16.76.22,1.13.37.37.15.72.34,1.09.48.37.14.7.39,1.07.52s.83,0,1.21.12c.38.12.71.36,1.09.48s.73.33,1.11.44c.38.11.73.32,1.12.42.38.1.82,0,1.2.09.39.09.76.24,1.14.32.39.08.79.07,1.18.14.39.07.78.1,1.17.16.39.07.73.47,1.12.53.39.06.8.04,1.19.09.39.05.79.11,1.18.15.39.04.79.11,1.18.14.39.03.8-.05,1.19-.03.4.02.8-.23,1.19-.22.4.01.79.3,1.18.3.4,0,.79-.05,1.19-.06.4,0,.8.2,1.2.18.4-.02.8-.04,1.19-.07.4-.03.78-.26,1.17-.3.39-.04.81.08,1.2.03.39-.05.78-.17,1.17-.23.39-.06.72-.48,1.1-.55.39-.08.79-.04,1.18-.13.39-.09.84.09,1.22-.01.38-.1.73-.33,1.11-.44.38-.11.72-.36,1.09-.48.38-.13.77-.18,1.14-.33.35-.14.79-.14,1.17-.3.35-.15.69-.37,1.07-.54.35-.16.65-.47,1.01-.65.35-.17.69-.36,1.05-.55.35-.18.63-.49.98-.68.35-.19.72-.33,1.07-.53.34-.19.74-.29,1.09-.49.34-.2.61-.52.96-.72.34-.2.69-.39,1.03-.6.34-.21.71-.35,1.05-.57.34-.21.81-.21,1.14-.43.33-.22.58-.57.91-.79.33-.22.75-.31,1.08-.54.33-.23.65-.48.97-.71.33-.23.69-.42,1.01-.65.32-.24.5-.67.82-.91.32-.24.72-.37,1.03-.61.32-.25.69-.43.99-.68.31-.26.61-.53.91-.78.31-.26.54-.61.83-.87.3-.27.59-.56.87-.83.3-.28.44-.7.71-.98.29-.29.72-.43.97-.72.21-.24.53-.51.78-.86.21-.3.12-.83.34-1.16.22-.32.74-.42.97-.71.25-.32.4-.69.66-.93.32-.29.67-.36.99-.43"/></svg>