<?xml version="1.0" encoding="UTF-8"?><svg id="Layer_1" xmlns="http://www.w3.org/2000/svg" viewBox="0 0 200 200"><path d="M113.92,98.06c-.49,0-1.19.24-1.59-.03s-.87-.81-1.07-1.27c-.25-.57-.27-1.22-.56-1.77s-.41-1.18-.73-1.72-.66-1.05-1.01-1.56-1.1-.71-1.48-1.2-.59-1.1-1.01-1.56-1.03-.7-1.48-1.13-.59-1.16-1.06-1.57-1.17-.51-1.66-.88-.98-.71-1.5-1.06-.77-1.07-1.31-1.39-.88-1.01-1.43-1.29-1.46.19-2.03-.06-1.06-.65-1.64-.86-1.04-.85-1.64-1.01c-.6-.17-1.39.5-2,.37s-1.16-.4-1.78-.48-1.18-.5-1.8-.54-1.24-.1-1.86-.1-1.22.43-1.84.47-1.2.22-1.81.29-1.25-.14-1.86-.03-1.23.12-1.84.26-1.16.41-1.76.6-1.26.13-1.84.34-1.31.12-1.87.38-.75,1.29-1.3,1.58-1.28.24-1.8.56-.8,1.01-1.3,1.37c-.49.35-.99.6-1.44.97s-1.33.3-1.74.7-.65,1.04-1.02,1.47-.78.9-1.11,1.37-.49,1.09-.76,1.59-1,.87-1.2,1.41.05,1.27-.07,1.84c-.13.68-.56,1.21-1.09,1.56s-1.2.62-1.88.48c-.68-.14-1.59-.37-1.94-.9s-.4-1.5-.27-2.18c.12-.59.31-1.19.49-1.75s.6-1.07.83-1.61.7-.98.99-1.49.42-1.14.75-1.63.54-1.11.91-1.56.59-1.11,1-1.54,1.3-.41,1.73-.81c.45-.41.74-1,1.18-1.36.48-.39.81-.97,1.27-1.29.49-.35,1.09-.55,1.59-.88s1.23-.28,1.75-.57,1.02-.61,1.56-.87,1.05-.56,1.6-.8,1.18-.25,1.74-.46,1.08-.5,1.65-.68.97-.99,1.54-1.14,1.27.14,1.86.02,1.21.03,1.8-.06,1.1-.85,1.7-.91,1.24.54,1.84.52,1.19-.68,1.79-.67,1.19.58,1.78.61,1.21-.17,1.81-.1,1.21.05,1.8.15,1.03.94,1.61,1.07,1.29-.27,1.86-.11c.58.16,1.21.16,1.78.35s1.11.48,1.66.7.96.8,1.5,1.05.98.67,1.51.95,1.31.09,1.83.39,1.12.48,1.62.81.7,1.09,1.18,1.45.96.69,1.43,1.07,1.17.48,1.61.89.38,1.31.8,1.74.84.82,1.23,1.27.8.86,1.17,1.33,1.15.62,1.5,1.11.19,1.3.51,1.81,1.24.64,1.53,1.16-.04,1.37.22,1.91.79.93,1.03,1.48c.27.63.17,1.18-.06,1.77s-.38,1.41-1.01,1.69c-.32.14-.76-.07-1.09-.07Z"/><path d="M115.09,126.35c-.61,0-1.21-.63-1.82-.66s-1.19-.25-1.79-.31-1.31.62-1.92.53-1.06-.96-1.66-1.09-1.27.12-1.86-.05c-.58-.16-1.19-.21-1.76-.4s-1.23-.16-1.79-.38-.76-1.25-1.3-1.5-1.45.24-1.98-.04-.93-.82-1.44-1.12-.74-1.06-1.23-1.39-1.03-.58-1.51-.94-1.08-.54-1.54-.92-1.08-.59-1.52-.99-.57-1.13-.99-1.55-.92-.76-1.32-1.21-.86-.83-1.23-1.3-1-.75-1.35-1.23-.71-.98-1.03-1.49-.7-.99-.99-1.51-.54-1.09-.8-1.62-.32-1.18-.56-1.73c-.27-.63.04-1.27.27-1.87s.56-1,1.19-1.28c.63-.27,1.3-.6,1.89-.36s1.4.69,1.67,1.32c.25.57.59,1.06.87,1.61s.45,1.14.77,1.67.13,1.39.49,1.9,1.18.66,1.57,1.15.24,1.43.65,1.89,1.29.49,1.73.93.73,1.03,1.2,1.43,1.24.42,1.74.79.69,1.15,1.2,1.49.92.89,1.45,1.21,1.17.47,1.72.75,1.33.08,1.89.32.87,1.2,1.45,1.4,1.27.18,1.86.34,1.22.26,1.83.38,1.23.17,1.85.25,1.23.13,1.85.17,1.24.14,1.86.14,1.24-.2,1.85-.24,1.27.26,1.89.19,1.22-.33,1.83-.44,1.26-.08,1.86-.22,1.01-.98,1.6-1.16,1.23-.17,1.81-.39,1.13-.46,1.7-.72.99-.74,1.54-1.03,1.38-.06,1.91-.38,1.1-.6,1.6-.96c.49-.35,1.04-.62,1.48-.99s.56-1.16.97-1.56,1.25-.47,1.62-.9.18-1.36.51-1.83,1.21-.65,1.48-1.15.05-1.28.24-1.82.25-1.11.36-1.67c.13-.68,1.08-.82,1.61-1.18s.87-.37,1.55-.24c.68.14,1.35.03,1.71.56s.97,1.31.84,1.99c-.12.59-1.11.96-1.28,1.52s.4,1.43.16,1.97-1.08.82-1.37,1.33-.59,1.03-.92,1.51-.43,1.18-.8,1.63-.84.88-1.24,1.3-.94.77-1.37,1.16c-.45.41-.9.8-1.35,1.17-.48.39-1.03.64-1.49.97-.48.35-.78.97-1.28,1.29s-1.3.13-1.82.42-.84.93-1.37,1.19-1.19.23-1.74.47-.98.73-1.53.93-1.02.71-1.58.89-1.31-.24-1.88-.09-1.07.59-1.65.71-1.14.38-1.73.47-1.16.39-1.75.45-1.25-.79-1.84-.76-1.16.87-1.75.87Z"/></svg>