<?xml version="1.0" encoding="UTF-8"?><svg id="Layer_1" xmlns="http://www.w3.org/2000/svg" viewBox="0 0 200 200"><path d="M120.58,115.28c-.46.02-.8.14-1.25.14s-.91-.1-1.37-.1c-.45,0-.91,0-1.37-.02s-.91.02-1.37,0-.9-.27-1.36-.27c-.46,0-.91.29-1.37.28-.45,0-.91-.25-1.36-.24-.46,0-.9.29-1.35.31-.48.02-.97-.14-1.45-.11-.48.03-.95.14-1.43.18-.48.04-.97-.09-1.45-.05-.48.04-.97-.03-1.45.02-.48.05-.92.48-1.4.52-.48.05-.97,0-1.44.05-.48.04-.95.17-1.43.21-.48.04-.96.13-1.44.16-.48.03-.96.04-1.44.06-.48.02-.97-.19-1.45-.18-.48,0-.96.07-1.44.07-.48,0-.95-.18-1.43-.2-.48-.02-.97.17-1.45.13-.25-.02-.76-.06-1.38-.17-.41-.07-.81-.53-1.29-.62-.45-.08-.95.02-1.4-.06-.49-.08-.99.01-1.4-.04-.71-.09-1.17-.26-1.3-.17.1.47.13.94.23,1.4.1.47.05.97.15,1.43.1.47.26.92.36,1.39.1.47.12.96.23,1.42.11.46.41.88.53,1.34.12.46.41.87.55,1.33.14.46.2.93.36,1.38.16.45.24.93.42,1.37.18.44.45.84.66,1.27.21.43.5.8.74,1.22.24.41.44.84.71,1.24.25.37.39.84.68,1.21.28.35.54.75.86,1.09.31.33.68.63,1.02.94.34.31.86.4,1.22.69.36.28.78.47,1.16.72.38.26.67.64,1.07.87.4.23.74.59,1.15.78.42.19.91.23,1.34.38.44.15.9.16,1.34.26.45.1.88.22,1.33.26.49.04.99.29,1.48.24.49-.05.97-.21,1.45-.34.47-.12.95-.28,1.41-.46.45-.18.83-.52,1.27-.76.43-.23.77-.59,1.19-.86.41-.27.94-.35,1.34-.65.39-.3.7-.7,1.07-1.02.37-.32.62-.77.97-1.11.35-.34,1.01-.39,1.35-.75.34-.36.6-.8.91-1.17.32-.38.44-.92.73-1.3.31-.4.66-.74.94-1.13.29-.41.8-.66,1.06-1.06.28-.43.37-.96.61-1.36.24-.4.43-.83.65-1.24.22-.41.51-.78.72-1.2.21-.42.48-.81.68-1.23.19-.42.2-.93.38-1.36.19-.43.53-.79.7-1.22.18-.43.4-.85.57-1.29.17-.44.21-.92.37-1.36.16-.44.15-.82.3-1.26M82.44,84.27c-.09-.09-.57.25-1.23.43-.6.16-1.23.25-1.42.31-.44.13-.92.27-1.42.43-.46.14-.92.32-1.41.47-.46.14-1.01.06-1.5.22-.47.15-.84.6-1.31.77-.47.17-1.02.1-1.49.29-.47.18-.82.62-1.28.81-.46.2-.99.23-1.44.44-.46.22-.86.51-1.29.75-.45.25-.97.36-1.37.63-.43.29-.91.5-1.28.81-.4.33-.48.96-.79,1.32-.14.16-.49.52-.83,1.04-.23.35-.41.79-.65,1.18-.25.4-.44.82-.65,1.18-.34.58-.57.96-.6,1.11-.04.25-.03,1.63.05,1.99.11.47.3.9.46,1.33.17.44.22.94.44,1.35.22.41.66.7.93,1.08.27.38.59.71.91,1.06.31.35.38.94.73,1.26.34.31.84.47,1.21.76.37.28.85.41,1.25.67.39.26.74.57,1.15.8.41.23.79.52,1.21.73.42.21.78.55,1.21.74.43.19.89.32,1.32.5.44.18.84.44,1.28.6.44.17.95.15,1.39.3.45.16.95.15,1.39.29.45.15.87.37,1.31.51.46.14.91.37,1.35.5-.01-.52-.09-1.06-.11-1.58-.02-.52-.12-1.04-.14-1.56-.02-.52.02-1.04,0-1.57-.01-.52.15-1.04.15-1.56,0-.52.08-1.04.1-1.56.01-.44,0-.91.03-1.4.03-.46-.2-.95-.16-1.42.04-.47-.02-.95.02-1.41.04-.48.26-.93.31-1.38.05-.5.27-.97.33-1.46.06-.49-.02-1,.05-1.5.07-.49.03-1,.11-1.49.08-.49.21-.97.3-1.46.09-.49.43-.93.52-1.42.09-.49.1-.99.2-1.48.09-.49.19-.97.29-1.46.1-.49.05-1,.15-1.49.1-.49.11-.97.21-1.45M125.57,110.3c.46-.14.77-.37,1.22-.53.46-.16.93-.24,1.37-.42.45-.19.88-.39,1.3-.6.43-.22.83-.48,1.24-.72.41-.25.95-.31,1.34-.59.39-.28.57-.82.93-1.14.35-.32.87-.48,1.19-.84.32-.35.4-.89.68-1.29.27-.39.68-.68.92-1.11.23-.41.37-.87.56-1.33.18-.44.52-.81.67-1.24.16-.45.42-.87.54-1.3.13-.46-.14-1-.06-1.45.09-.47.24-.9.27-1.36.04-.47-.04-.92-.06-1.38-.02-.47-.13-.9-.21-1.35-.09-.46-.18-.88-.34-1.32-.15-.43-.12-.93-.34-1.35-.21-.4-.5-.76-.78-1.15-.26-.37-.43-.83-.74-1.19-.3-.34-.78-.51-1.13-.84-.33-.31-.7-.57-1.07-.88-.37-.29-.52-.88-.9-1.16-.38-.28-.89-.39-1.29-.65-.4-.26-.89-.36-1.3-.6-.41-.24-.78-.55-1.19-.77-.42-.23-.81-.51-1.23-.72-.43-.21-.8-.55-1.23-.74-.44-.2-1.01-.31-1.45-.49.1.47.07,1.07.17,1.55.1.47.38.91.48,1.39.1.48.36.92.45,1.4.1.48.11.97.2,1.45.09.48.09.98.17,1.46.09.48.24.95.32,1.43.08.48.24.95.31,1.44.07.48.09.98.15,1.46.06.49-.06.99-.01,1.48.05.49.01.98.04,1.46.03.49.09.97.11,1.46.01.49.28.98.27,1.46,0,.49.07.99.04,1.48-.03.47-.25.93-.3,1.39-.05.46-.28.9-.35,1.37-.07.46,0,.95-.08,1.41-.08.46-.05.94-.13,1.4-.08.46-.22.91-.3,1.37-.08.46-.41.88-.48,1.34-.07.46.11.84.06,1.31M83.84,111.47c.76.33.79.06,1.61.18.82.12.8.22,1.62.35.82.12.81.14,1.63.24.47,0,.94-.02,1.42-.02.47,0,.95.25,1.42.25.48,0,.95-.3,1.43-.3.47,0,.95.24,1.43.24.47,0,.95-.28,1.42-.29.48,0,.95.18,1.43.17.47,0,.95-.09,1.42-.1.48-.01.96.15,1.43.14.48-.01.96.09,1.43.07.47-.01.94-.42,1.41-.43.48-.02.96.05,1.43.04.48-.02.95-.12,1.42-.14.48-.02.95-.09,1.43-.11s.95-.02,1.43-.04c.48-.02.96.19,1.44.17.48-.02.95-.09,1.43-.11.47-.02.96.12,1.43.11.48-.02.94-.26,1.42-.27.47-.02.95-.08,1.42-.09.47-.02.96.34,1.43.33.35,0,.92-.18,1.54-.18.51,0,1.05-.18,1.54-.22.65-.06,1.17-.09,1.43-.34.11-.1.31-.55.48-1.26.09-.39.33-.82.43-1.32.08-.43.11-.9.2-1.37.08-.45.26-.9.33-1.35.08-.47-.03-.96.04-1.4.08-.5-.01-.99.04-1.39.09-.65.24-1.12.25-1.35.03-.49.15-.98.16-1.48.01-.49-.06-.99-.07-1.48,0-.5-.11-.98-.13-1.48-.02-.49,0-.99-.05-1.48-.04-.49.08-1,.03-1.49-.05-.49-.04-.99-.11-1.49-.07-.49-.18-.98-.26-1.46-.08-.49-.42-.93-.51-1.42-.09-.49-.27-.95-.37-1.44-.1-.49-.02-1-.12-1.49-.1-.48-.04-1-.15-1.49-.11-.48-.36-.93-.47-1.42-.11-.48-.33-.94-.45-1.42s-.17-.96-.28-1.44c-.18-.26-.35-.41-.61-.44-.47-.06-.98-.02-1.48-.06-.48-.03-.98-.05-1.48-.06-.48,0-.98.14-1.48.15-.49,0-.97.16-1.47.18-.49.02-1-.2-1.49-.17-.49.03-.98.17-1.47.21-.49.04-.97.23-1.47.27-.5.04-1.03-.36-1.52-.32-.5.04-.98.18-1.47.22-.5.04-.97.34-1.46.38-.5.04-1,0-1.48.04-.51.04-1.02-.21-1.49-.18-.53.03-1.06.23-1.59.22-.53-.01-1.07,0-1.61,0-.54-.01-1.08-.1-1.61-.07-.51.03-1.03-.01-1.54.02-.51.04-1,.29-1.51.34-.51.05-1.03-.07-1.54,0-.51.06-1.02.07-1.53.15-.5.08-.99.29-1.49.38-.5.09-1.03.08-1.53.18-.5.11-1,.35-1.49.47-.14.46-.44.9-.57,1.36-.14.46.16,1.04.04,1.51-.13.46-.69.81-.8,1.28-.12.47-.25.93-.36,1.4-.11.47-.1.96-.2,1.43-.1.47-.09.96-.18,1.43s-.07.96-.15,1.44c-.08.47-.33.92-.4,1.4-.07.47-.09.96-.15,1.43-.06.48.07.97.01,1.45-.05.48-.33.93-.37,1.41s-.1.96-.14,1.44c-.03.48-.08.96-.11,1.44-.03.48.22.97.2,1.45-.02.48-.26.95-.26,1.44,0,.48.06.96.07,1.44,0,.48-.15.96-.14,1.44s.18.96.2,1.44c.02.48.17.95.19,1.43.03.48.01.84.05,1.32M119.61,77.48c-.19-.44-.44-.74-.64-1.2-.2-.44-.3-.93-.51-1.38-.21-.44-.43-.88-.65-1.31-.22-.43-.49-.85-.73-1.27-.24-.43-.28-.97-.54-1.39-.26-.42-.78-.66-1.06-1.06-.28-.4-.37-.94-.68-1.32-.31-.38-.83-.57-1.16-.93-.34-.36-.54-.84-.9-1.16-.37-.33-.78-.58-1.18-.87-.4-.29-.71-.71-1.14-.95-.42-.24-.79-.57-1.2-.76-.44-.21-1.03-.04-1.45-.2-.46-.17-.87-.39-1.3-.5-.47-.12-.93-.12-1.39-.18-.48-.06-.92-.03-1.38-.03-.48,0-.92.02-1.37.09-.47.07-.96-.05-1.41.08-.45.14-.86.36-1.29.56-.42.2-.92.28-1.32.53-.39.24-.65.7-1.02.99-.36.29-.68.62-1.03.95-.34.32-.93.39-1.25.74-.31.34-.48.83-.77,1.2-.29.36-.44.84-.71,1.22-.27.38-.6.71-.86,1.11-.25.39-.56.75-.81,1.16-.24.4-.6.74-.83,1.15-.1.18-.29.68-.6,1.28-.19.38-.49.77-.71,1.21-.21.42-.24.93-.44,1.36-.22.46-.26.97-.42,1.35-.3.72-.6,1.12-.51,1.21.47-.08.94-.06,1.4-.13.47-.07.93-.21,1.39-.26.47-.06.93-.19,1.4-.24.47-.05.95-.04,1.42-.08.47-.04.95.1,1.42.07.47-.03.94.02,1.42,0,.47-.02.94-.09,1.41-.1.47-.02.93-.3,1.41-.31.47-.01.94-.12,1.41-.13.47-.01.95.15,1.42.14.47-.01.95.15,1.42.13.47-.01.94-.17,1.41-.19.47-.02.94-.15,1.41-.17.48-.02.99-.02,1.52-.08.51-.06,1.05.13,1.56.07.53-.06,1.03-.19,1.51-.21.47-.02.94-.03,1.41-.04.47,0,.94-.15,1.41-.15s.94-.13,1.41-.13c.47,0,.94.25,1.41.25.47,0,.94-.11,1.41-.11.47,0,.83-.02,1.3-.03M80.52,114.61c-.44-.13-.84-.18-1.29-.31-.44-.13-.85-.37-1.3-.5-.44-.14-.88-.27-1.33-.42-.44-.14-.89-.25-1.34-.4-.44-.15-.8-.53-1.24-.69-.44-.16-.98-.04-1.41-.2-.43-.17-.78-.57-1.2-.75-.43-.18-.97-.12-1.39-.31-.42-.19-.76-.57-1.17-.78-.42-.21-.86-.37-1.26-.6-.4-.23-.71-.62-1.1-.87-.39-.25-.7-.61-1.07-.88-.38-.28-.98-.26-1.33-.56-.35-.3-.65-.68-.98-1.01-.33-.32-.72-.61-1.03-.96-.34-.39-.71-.75-1-1.14-.31-.41-.59-.85-.85-1.26-.27-.44-.32-1-.53-1.43-.22-.47-.46-.91-.61-1.37-.16-.49-.11-1-.18-1.49-.07-.5-.32-.98-.31-1.48.02-.5.03-1.02.14-1.51.1-.48.6-.85.78-1.32.17-.45.2-.97.44-1.42.23-.43.34-.94.63-1.37.27-.4.64-.76.96-1.16.3-.38.68-.71,1.03-1.09.33-.36.77-.59,1.15-.92.36-.32.7-.66,1.1-.95.39-.28.85-.47,1.27-.72.41-.25.74-.65,1.18-.88.43-.22.8-.59,1.25-.79.44-.2.93-.32,1.39-.5.45-.18.94-.27,1.41-.44.46-.17.9-.4,1.36-.56.46-.16.91-.39,1.38-.54.47-.15.95-.25,1.42-.39.47-.14.99-.12,1.46-.25.48-.14.97-.2,1.44-.34.48-.14.94-.31,1.4-.45.48-.14.88-.53,1.34-.67.48-.14.91-.38,1.37-.53.48-.15.97-.13,1.42-.29.16-.45.47-.82.65-1.29.17-.44.21-.95.39-1.41.18-.44.25-.94.44-1.4.19-.44.43-.87.63-1.32.2-.44.63-.77.84-1.22.21-.44.35-.91.57-1.34.22-.43.45-.86.68-1.29.23-.43.35-.92.6-1.34.25-.42.39-.91.66-1.32.26-.41.74-.68,1.02-1.08.28-.4.49-.86.78-1.24.3-.39.5-.87.82-1.23.33-.37.98-.42,1.32-.76.35-.35.63-.74,1-1.05.38-.32.61-.81,1-1.09.4-.28.86-.48,1.28-.72.42-.24.97-.2,1.42-.39.46-.19.84-.55,1.29-.7.48-.16.93-.33,1.4-.45.49-.12.98-.12,1.45-.19.49-.07.98-.03,1.46-.05.5-.02.98-.22,1.47-.19.49.03.96.26,1.43.35.49.08.93.25,1.4.38.47.13.97.17,1.42.35.45.18.84.48,1.28.71.43.22.91.36,1.32.62.41.26.73.65,1.12.94.39.29,1.05.25,1.42.57.37.32.42.98.77,1.33.35.34.66.7.99,1.07.33.36.72.66,1.03,1.04.31.38.69.7.98,1.1.29.39.66.74.93,1.15.27.41.38.92.64,1.33.25.42.54.82.77,1.25.24.43.63.78.85,1.22.22.44.22.98.43,1.43.2.45.38.9.56,1.35.19.46.35.91.52,1.37.17.46.55.79.7,1.25.45.19.75.56,1.19.76.44.2.92.33,1.35.53.44.2.81.56,1.24.77.44.21.94.29,1.37.51.43.22.92.35,1.34.58.43.24.88.43,1.29.68.42.25.82.54,1.22.8.4.27.79.57,1.18.86.39.29.64.76,1.01,1.07.37.31.71.65,1.06.98.35.33.65.7.98,1.06.32.36.73.64,1.02,1.03.29.38.77.64,1.03,1.05.26.4.19,1,.42,1.44.23.42.77.7.96,1.15.19.44.39.9.54,1.36.15.45.08.99.2,1.47.12.46.19.94.28,1.43.07.38.02.83,0,1.34-.02.42.03.88-.04,1.36-.07.43.03.92-.08,1.38-.1.44-.46.82-.59,1.26-.12.44-.19.9-.33,1.32-.15.44-.31.87-.47,1.28-.17.45-.36.87-.54,1.25-.21.46-.29.96-.49,1.29-.25.41-.8.61-1.09.98-.29.38-.46.85-.78,1.2-.33.34-.79.54-1.15.85-.36.31-.55.83-.94,1.11-.38.28-.75.6-1.16.85-.4.25-.86.42-1.28.65-.42.22-.87.4-1.3.6-.43.2-.93.24-1.37.43-.44.18-.78.62-1.23.79-.45.17-.91.3-1.36.45-.45.16-.98.07-1.43.22-.46.15-.97.29-1.42.44-.15.44-.17.99-.33,1.43-.16.43-.57.78-.74,1.22-.16.43-.33.87-.5,1.31-.17.43.04,1.01-.13,1.45-.17.43-.52.79-.7,1.22-.18.43-.44.82-.63,1.25-.19.43-.16.95-.36,1.37-.19.42-.39.85-.59,1.27s-.33.88-.54,1.3c-.21.42-.61.74-.83,1.15-.22.41-.62.72-.86,1.12-.24.4-.54.76-.79,1.15-.25.4-.49.79-.75,1.17-.26.39-.24.97-.52,1.35-.28.38-.82.55-1.11.91-.29.37-.5.79-.8,1.14-.29.34-.59.7-.96,1.05-.33.31-.73.58-1.11.89-.36.29-.77.53-1.17.82-.38.28-.54.89-.95,1.15-.4.26-.83.49-1.25.73-.41.24-.97.22-1.39.43-.43.21-.89.36-1.32.54-.45.19-.83.53-1.27.68-.46.15-.97.13-1.42.23-.48.11-.94.18-1.4.22-.49.04-.95.01-1.4-.04-.49-.05-.97-.12-1.46-.23s-.97-.18-1.44-.32c-.47-.14-.99-.18-1.45-.36-.46-.18-.89-.44-1.33-.66-.44-.22-.77-.64-1.2-.89-.43-.25-.89-.42-1.3-.7-.41-.28-.98-.34-1.37-.64s-.75-.66-1.12-.99c-.37-.33-.55-.86-.9-1.21-.35-.35-.97-.46-1.29-.83-.33-.37-.36-1-.66-1.39-.31-.39-.91-.57-1.18-.98-.26-.38-.34-.89-.58-1.28-.23-.4-.24-.91-.45-1.33s-.58-.74-.76-1.16c-.18-.42-.42-.83-.58-1.26-.16-.43-.45-.83-.59-1.26-.14-.44-.12-.93-.25-1.38s-.41-.85-.53-1.3c-.11-.45-.12-.93-.22-1.38-.1-.45-.19-.91-.28-1.36-.09-.45.03-.95-.05-1.4-.08-.46-.27-.89-.35-1.35-.08-.46-.2-.91-.27-1.37-.08-.46-.29-.81-.36-1.26"/><path d="M120.58,115.28c-.46.02-.8.14-1.25.14s-.91-.1-1.37-.1c-.45,0-.91,0-1.37-.02s-.91.02-1.37,0-.9-.27-1.36-.27c-.46,0-.91.29-1.37.28-.45,0-.91-.25-1.36-.24-.46,0-.9.29-1.35.31-.48.02-.97-.14-1.45-.11-.48.03-.95.14-1.43.18-.48.04-.97-.09-1.45-.05-.48.04-.97-.03-1.45.02-.48.05-.92.48-1.4.52-.48.05-.97,0-1.44.05-.48.04-.95.17-1.43.21-.48.04-.96.13-1.44.16-.48.03-.96.04-1.44.06-.48.02-.97-.19-1.45-.18-.48,0-.96.07-1.44.07-.48,0-.95-.18-1.43-.2-.48-.02-.97.17-1.45.13-.25-.02-.76-.06-1.38-.17-.41-.07-.81-.53-1.29-.62-.45-.08-.95.02-1.4-.06-.49-.08-.99.01-1.4-.04-.71-.09-1.17-.26-1.3-.17.1.47.13.94.23,1.4.1.47.05.97.15,1.43.1.47.26.92.36,1.39.1.47.12.96.23,1.42.11.46.41.88.53,1.34.12.46.41.87.55,1.33.14.46.2.93.36,1.38.16.45.24.93.42,1.37.18.44.45.84.66,1.27.21.43.5.8.74,1.22.24.41.44.84.71,1.24.25.37.39.84.68,1.21.28.35.54.75.86,1.09.31.33.68.63,1.02.94.34.31.86.4,1.22.69.36.28.78.47,1.16.72.38.26.67.64,1.07.87.4.23.74.59,1.15.78.42.19.91.23,1.34.38.44.15.9.16,1.34.26.45.1.88.22,1.33.26.49.04.99.29,1.48.24.49-.05.97-.21,1.45-.34.47-.12.95-.28,1.41-.46.45-.18.83-.52,1.27-.76.43-.23.77-.59,1.19-.86.41-.27.94-.35,1.34-.65.39-.3.7-.7,1.07-1.02.37-.32.62-.77.97-1.11.35-.34,1.01-.39,1.35-.75.34-.36.6-.8.91-1.17.32-.38.44-.92.73-1.3.31-.4.66-.74.94-1.13.29-.41.8-.66,1.06-1.06.28-.43.37-.96.61-1.36.24-.4.43-.83.65-1.24.22-.41.51-.78.72-1.2.21-.42.48-.81.68-1.23.19-.42.2-.93.38-1.36.19-.43.53-.79.7-1.22.18-.43.4-.85.57-1.29.17-.44.21-.92.37-1.36.16-.44.15-.82.3-1.26M82.44,84.27c-.09-.09-.57.25-1.23.43-.6.16-1.23.25-1.42.31-.44.13-.92.27-1.42.43-.46.14-.92.32-1.41.47-.46.14-1.01.06-1.5.22-.47.15-.84.6-1.31.77-.47.17-1.02.1-1.49.29-.47.18-.82.62-1.28.81-.46.2-.99.23-1.44.44-.46.22-.86.51-1.29.75-.45.25-.97.36-1.37.63-.43.29-.91.5-1.28.81-.4.33-.48.96-.79,1.32-.14.16-.49.52-.83,1.04-.23.35-.41.79-.65,1.18-.25.4-.44.82-.65,1.18-.34.58-.57.96-.6,1.11-.04.25-.03,1.63.05,1.99.11.47.3.9.46,1.33.17.44.22.94.44,1.35.22.41.66.7.93,1.08.27.38.59.71.91,1.06.31.35.38.94.73,1.26.34.31.84.47,1.21.76.37.28.85.41,1.25.67.39.26.74.57,1.15.8.41.23.79.52,1.21.73.42.21.78.55,1.21.74.43.19.89.32,1.32.5.44.18.84.44,1.28.6.44.17.95.15,1.39.3.45.16.95.15,1.39.29.45.15.87.37,1.31.51.46.14.91.37,1.35.5-.01-.52-.09-1.06-.11-1.58-.02-.52-.12-1.04-.14-1.56-.02-.52.02-1.04,0-1.57-.01-.52.15-1.04.15-1.56,0-.52.08-1.04.1-1.56.01-.44,0-.91.03-1.4.03-.46-.2-.95-.16-1.42.04-.47-.02-.95.02-1.41.04-.48.26-.93.31-1.38.05-.5.27-.97.33-1.46.06-.49-.02-1,.05-1.5.07-.49.03-1,.11-1.49.08-.49.21-.97.3-1.46.09-.49.43-.93.52-1.42.09-.49.1-.99.2-1.48.09-.49.19-.97.29-1.46.1-.49.05-1,.15-1.49.1-.49.11-.97.21-1.45M125.57,110.3c.46-.14.77-.37,1.22-.53.46-.16.93-.24,1.37-.42.45-.19.88-.39,1.3-.6.43-.22.83-.48,1.24-.72.41-.25.95-.31,1.34-.59.39-.28.57-.82.93-1.14.35-.32.87-.48,1.19-.84.32-.35.4-.89.68-1.29.27-.39.68-.68.92-1.11.23-.41.37-.87.56-1.33.18-.44.52-.81.67-1.24.16-.45.42-.87.54-1.3.13-.46-.14-1-.06-1.45.09-.47.24-.9.27-1.36.04-.47-.04-.92-.06-1.38-.02-.47-.13-.9-.21-1.35-.09-.46-.18-.88-.34-1.32-.15-.43-.12-.93-.34-1.35-.21-.4-.5-.76-.78-1.15-.26-.37-.43-.83-.74-1.19-.3-.34-.78-.51-1.13-.84-.33-.31-.7-.57-1.07-.88-.37-.29-.52-.88-.9-1.16-.38-.28-.89-.39-1.29-.65-.4-.26-.89-.36-1.3-.6-.41-.24-.78-.55-1.19-.77-.42-.23-.81-.51-1.23-.72-.43-.21-.8-.55-1.23-.74-.44-.2-1.01-.31-1.45-.49.1.47.07,1.07.17,1.55.1.47.38.91.48,1.39.1.48.36.92.45,1.4.1.48.11.97.2,1.45.09.48.09.98.17,1.46.09.48.24.95.32,1.43.08.48.24.95.31,1.44.07.48.09.98.15,1.46.06.49-.06.99-.01,1.48.05.49.01.98.04,1.46.03.49.09.97.11,1.46.01.49.28.98.27,1.46,0,.49.07.99.04,1.48-.03.47-.25.93-.3,1.39-.05.46-.28.9-.35,1.37-.07.46,0,.95-.08,1.41-.08.46-.05.94-.13,1.4-.08.46-.22.91-.3,1.37-.08.46-.41.88-.48,1.34-.07.46.11.84.06,1.31M83.84,111.47c.76.33.79.06,1.61.18.82.12.8.22,1.62.35.82.12.81.14,1.63.24.47,0,.94-.02,1.42-.02.47,0,.95.25,1.42.25.48,0,.95-.3,1.43-.3.47,0,.95.24,1.43.24.47,0,.95-.28,1.42-.29.48,0,.95.18,1.43.17.47,0,.95-.09,1.42-.1.48-.01.96.15,1.43.14.48-.01.96.09,1.43.07.47-.01.94-.42,1.41-.43.48-.02.96.05,1.43.04.48-.02.95-.12,1.42-.14.48-.02.95-.09,1.43-.11s.95-.02,1.43-.04c.48-.02.96.19,1.44.17.48-.02.95-.09,1.43-.11.47-.02.96.12,1.43.11.48-.02.94-.26,1.42-.27.47-.02.95-.08,1.42-.09.47-.02.96.34,1.43.33.35,0,.92-.18,1.54-.18.51,0,1.05-.18,1.54-.22.65-.06,1.17-.09,1.43-.34.11-.1.31-.55.48-1.26.09-.39.33-.82.43-1.32.08-.43.11-.9.2-1.37.08-.45.26-.9.33-1.35.08-.47-.03-.96.04-1.4.08-.5-.01-.99.04-1.39.09-.65.24-1.12.25-1.35.03-.49.15-.98.16-1.48.01-.49-.06-.99-.07-1.48,0-.5-.11-.98-.13-1.48-.02-.49,0-.99-.05-1.48-.04-.49.08-1,.03-1.49-.05-.49-.04-.99-.11-1.49-.07-.49-.18-.98-.26-1.46-.08-.49-.42-.93-.51-1.42-.09-.49-.27-.95-.37-1.44-.1-.49-.02-1-.12-1.49-.1-.48-.04-1-.15-1.49-.11-.48-.36-.93-.47-1.42-.11-.48-.33-.94-.45-1.42s-.17-.96-.28-1.44c-.18-.26-.35-.41-.61-.44-.47-.06-.98-.02-1.48-.06-.48-.03-.98-.05-1.48-.06-.48,0-.98.14-1.48.15-.49,0-.97.16-1.47.18-.49.02-1-.2-1.49-.17-.49.03-.98.17-1.47.21-.49.04-.97.23-1.47.27-.5.04-1.03-.36-1.52-.32-.5.04-.98.18-1.47.22-.5.04-.97.34-1.46.38-.5.04-1,0-1.48.04-.51.04-1.02-.21-1.49-.18-.53.03-1.06.23-1.59.22-.53-.01-1.07,0-1.61,0-.54-.01-1.08-.1-1.61-.07-.51.03-1.03-.01-1.54.02-.51.04-1,.29-1.51.34-.51.05-1.03-.07-1.54,0-.51.06-1.02.07-1.53.15-.5.08-.99.29-1.49.38-.5.09-1.03.08-1.53.18-.5.11-1,.35-1.49.47-.14.46-.44.9-.57,1.36-.14.46.16,1.04.04,1.51-.13.46-.69.81-.8,1.28-.12.47-.25.93-.36,1.4-.11.47-.1.96-.2,1.43-.1.47-.09.96-.18,1.43s-.07.96-.15,1.44c-.08.47-.33.92-.4,1.4-.07.47-.09.96-.15,1.43-.06.48.07.97.01,1.45-.05.48-.33.93-.37,1.41s-.1.96-.14,1.44c-.03.48-.08.96-.11,1.44-.03.48.22.97.2,1.45-.02.48-.26.95-.26,1.44,0,.48.06.96.07,1.44,0,.48-.15.96-.14,1.44s.18.96.2,1.44c.02.48.17.95.19,1.43.03.48.01.84.05,1.32M119.61,77.48c-.19-.44-.44-.74-.64-1.2-.2-.44-.3-.93-.51-1.38-.21-.44-.43-.88-.65-1.31-.22-.43-.49-.85-.73-1.27-.24-.43-.28-.97-.54-1.39-.26-.42-.78-.66-1.06-1.06-.28-.4-.37-.94-.68-1.32-.31-.38-.83-.57-1.16-.93-.34-.36-.54-.84-.9-1.16-.37-.33-.78-.58-1.18-.87-.4-.29-.71-.71-1.14-.95-.42-.24-.79-.57-1.2-.76-.44-.21-1.03-.04-1.45-.2-.46-.17-.87-.39-1.3-.5-.47-.12-.93-.12-1.39-.18-.48-.06-.92-.03-1.38-.03-.48,0-.92.02-1.37.09-.47.07-.96-.05-1.41.08-.45.14-.86.36-1.29.56-.42.2-.92.28-1.32.53-.39.24-.65.7-1.02.99-.36.29-.68.62-1.03.95-.34.32-.93.39-1.25.74-.31.34-.48.83-.77,1.2-.29.36-.44.84-.71,1.22-.27.38-.6.71-.86,1.11-.25.39-.56.75-.81,1.16-.24.4-.6.74-.83,1.15-.1.18-.29.68-.6,1.28-.19.38-.49.77-.71,1.21-.21.42-.24.93-.44,1.36-.22.46-.26.97-.42,1.35-.3.72-.6,1.12-.51,1.21.47-.08.94-.06,1.4-.13.47-.07.93-.21,1.39-.26.47-.06.93-.19,1.4-.24.47-.05.95-.04,1.42-.08.47-.04.95.1,1.42.07.47-.03.94.02,1.42,0,.47-.02.94-.09,1.41-.1.47-.02.93-.3,1.41-.31.47-.01.94-.12,1.41-.13.47-.01.95.15,1.42.14.47-.01.95.15,1.42.13.47-.01.94-.17,1.41-.19.47-.02.94-.15,1.41-.17.48-.02.99-.02,1.52-.08.51-.06,1.05.13,1.56.07.53-.06,1.03-.19,1.51-.21.47-.02.94-.03,1.41-.04.47,0,.94-.15,1.41-.15s.94-.13,1.41-.13c.47,0,.94.25,1.41.25.47,0,.94-.11,1.41-.11.47,0,.83-.02,1.3-.03M80.52,114.61c-.44-.13-.84-.18-1.29-.31-.44-.13-.85-.37-1.3-.5-.44-.14-.88-.27-1.33-.42-.44-.14-.89-.25-1.34-.4-.44-.15-.8-.53-1.24-.69-.44-.16-.98-.04-1.41-.2-.43-.17-.78-.57-1.2-.75-.43-.18-.97-.12-1.39-.31-.42-.19-.76-.57-1.17-.78-.42-.21-.86-.37-1.26-.6-.4-.23-.71-.62-1.1-.87-.39-.25-.7-.61-1.07-.88-.38-.28-.98-.26-1.33-.56-.35-.3-.65-.68-.98-1.01-.33-.32-.72-.61-1.03-.96-.34-.39-.71-.75-1-1.14-.31-.41-.59-.85-.85-1.26-.27-.44-.32-1-.53-1.43-.22-.47-.46-.91-.61-1.37-.16-.49-.11-1-.18-1.49-.07-.5-.32-.98-.31-1.48.02-.5.03-1.02.14-1.51.1-.48.6-.85.78-1.32.17-.45.2-.97.44-1.42.23-.43.34-.94.63-1.37.27-.4.64-.76.96-1.16.3-.38.68-.71,1.03-1.09.33-.36.77-.59,1.15-.92.36-.32.7-.66,1.1-.95.39-.28.85-.47,1.27-.72.41-.25.74-.65,1.18-.88.43-.22.8-.59,1.25-.79.44-.2.93-.32,1.39-.5.45-.18.94-.27,1.41-.44.46-.17.9-.4,1.36-.56.46-.16.91-.39,1.38-.54.47-.15.95-.25,1.42-.39.47-.14.99-.12,1.46-.25.48-.14.97-.2,1.44-.34.48-.14.94-.31,1.4-.45.48-.14.88-.53,1.34-.67.48-.14.91-.38,1.37-.53.48-.15.97-.13,1.42-.29.16-.45.47-.82.65-1.29.17-.44.21-.95.39-1.41.18-.44.25-.94.44-1.4.19-.44.43-.87.63-1.32.2-.44.63-.77.84-1.22.21-.44.35-.91.57-1.34.22-.43.45-.86.68-1.29.23-.43.35-.92.6-1.34.25-.42.39-.91.66-1.32.26-.41.74-.68,1.02-1.08.28-.4.49-.86.78-1.24.3-.39.5-.87.82-1.23.33-.37.98-.42,1.32-.76.35-.35.63-.74,1-1.05.38-.32.61-.81,1-1.09.4-.28.86-.48,1.28-.72.42-.24.97-.2,1.42-.39.46-.19.84-.55,1.29-.7.48-.16.93-.33,1.4-.45.49-.12.98-.12,1.45-.19.49-.07.98-.03,1.46-.05.5-.02.98-.22,1.47-.19.49.03.96.26,1.43.35.49.08.93.25,1.4.38.47.13.97.17,1.42.35.45.18.84.48,1.28.71.43.22.91.36,1.32.62.41.26.73.65,1.12.94.39.29,1.05.25,1.42.57.37.32.42.98.77,1.33.35.34.66.7.99,1.07.33.36.72.66,1.03,1.04.31.38.69.7.98,1.1.29.39.66.74.93,1.15.27.41.38.92.64,1.33.25.42.54.82.77,1.25.24.43.63.78.85,1.22.22.44.22.98.43,1.43.2.45.38.9.56,1.35.19.46.35.91.52,1.37.17.46.55.79.7,1.25.45.19.75.56,1.19.76.44.2.92.33,1.35.53.44.2.81.56,1.24.77.44.21.94.29,1.37.51.43.22.92.35,1.34.58.43.24.88.43,1.29.68.42.25.82.54,1.22.8.4.27.79.57,1.18.86.39.29.64.76,1.01,1.07.37.31.71.65,1.06.98.35.33.65.7.98,1.06.32.36.73.64,1.02,1.03.29.38.77.64,1.03,1.05.26.4.19,1,.42,1.44.23.42.77.7.96,1.15.19.44.39.9.54,1.36.15.45.08.99.2,1.47.12.46.19.94.28,1.43.07.38.02.83,0,1.34-.02.42.03.88-.04,1.36-.07.43.03.92-.08,1.38-.1.44-.46.82-.59,1.26-.12.44-.19.9-.33,1.32-.15.44-.31.87-.47,1.28-.17.45-.36.87-.54,1.25-.21.46-.29.96-.49,1.29-.25.41-.8.61-1.09.98-.29.38-.46.85-.78,1.2-.33.34-.79.54-1.15.85-.36.31-.55.83-.94,1.11-.38.28-.75.6-1.16.85-.4.25-.86.42-1.28.65-.42.22-.87.4-1.3.6-.43.2-.93.24-1.37.43-.44.18-.78.62-1.23.79-.45.17-.91.3-1.36.45-.45.16-.98.07-1.43.22-.46.15-.97.29-1.42.44-.15.44-.17.99-.33,1.43-.16.43-.57.78-.74,1.22-.16.43-.33.87-.5,1.31-.17.43.04,1.01-.13,1.45-.17.43-.52.79-.7,1.22-.18.43-.44.82-.63,1.25-.19.43-.16.95-.36,1.37-.19.42-.39.85-.59,1.27s-.33.88-.54,1.3c-.21.42-.61.74-.83,1.15-.22.41-.62.72-.86,1.12-.24.4-.54.76-.79,1.15-.25.4-.49.79-.75,1.17-.26.39-.24.97-.52,1.35-.28.38-.82.55-1.11.91-.29.37-.5.79-.8,1.14-.29.34-.59.7-.96,1.05-.33.31-.73.58-1.11.89-.36.29-.77.53-1.17.82-.38.28-.54.89-.95,1.15-.4.26-.83.49-1.25.73-.41.24-.97.22-1.39.43-.43.21-.89.36-1.32.54-.45.19-.83.53-1.27.68-.46.15-.97.13-1.42.23-.48.11-.94.18-1.4.22-.49.04-.95.01-1.4-.04-.49-.05-.97-.12-1.46-.23s-.97-.18-1.44-.32c-.47-.14-.99-.18-1.45-.36-.46-.18-.89-.44-1.33-.66-.44-.22-.77-.64-1.2-.89-.43-.25-.89-.42-1.3-.7-.41-.28-.98-.34-1.37-.64s-.75-.66-1.12-.99c-.37-.33-.55-.86-.9-1.21-.35-.35-.97-.46-1.29-.83-.33-.37-.36-1-.66-1.39-.31-.39-.91-.57-1.18-.98-.26-.38-.34-.89-.58-1.28-.23-.4-.24-.91-.45-1.33s-.58-.74-.76-1.16c-.18-.42-.42-.83-.58-1.26-.16-.43-.45-.83-.59-1.26-.14-.44-.12-.93-.25-1.38s-.41-.85-.53-1.3c-.11-.45-.12-.93-.22-1.38-.1-.45-.19-.91-.28-1.36-.09-.45.03-.95-.05-1.4-.08-.46-.27-.89-.35-1.35-.08-.46-.2-.91-.27-1.37-.08-.46-.29-.81-.36-1.26"/><path d="M120.58,115.28c-.46.02-.8.14-1.25.14s-.91-.1-1.37-.1c-.45,0-.91,0-1.37-.02s-.91.02-1.37,0-.9-.27-1.36-.27c-.46,0-.91.29-1.37.28-.45,0-.91-.25-1.36-.24-.46,0-.9.29-1.35.31-.48.02-.97-.14-1.45-.11-.48.03-.95.14-1.43.18-.48.04-.97-.09-1.45-.05-.48.04-.97-.03-1.45.02-.48.05-.92.48-1.4.52-.48.05-.97,0-1.44.05-.48.04-.95.17-1.43.21-.48.04-.96.13-1.44.16-.48.03-.96.04-1.44.06-.48.02-.97-.19-1.45-.18-.48,0-.96.07-1.44.07-.48,0-.95-.18-1.43-.2-.48-.02-.97.17-1.45.13-.25-.02-.76-.06-1.38-.17-.41-.07-.81-.53-1.29-.62-.45-.08-.95.02-1.4-.06-.49-.08-.99.01-1.4-.04-.71-.09-1.17-.26-1.3-.17.1.47.13.94.23,1.4.1.47.05.97.15,1.43.1.47.26.92.36,1.39.1.47.12.96.23,1.42.11.46.41.88.53,1.34.12.46.41.87.55,1.33.14.46.2.93.36,1.38.16.45.24.93.42,1.37.18.44.45.84.66,1.27.21.43.5.8.74,1.22.24.41.44.84.71,1.24.25.37.39.84.68,1.21.28.35.54.75.86,1.09.31.33.68.63,1.02.94.34.31.86.4,1.22.69.36.28.78.47,1.16.72.38.26.67.64,1.07.87.4.23.74.59,1.15.78.42.19.91.23,1.34.38.44.15.9.16,1.34.26.45.1.88.22,1.33.26.49.04.99.29,1.48.24.49-.05.97-.21,1.45-.34.47-.12.95-.28,1.41-.46.45-.18.83-.52,1.27-.76.43-.23.77-.59,1.19-.86.41-.27.94-.35,1.34-.65.39-.3.7-.7,1.07-1.02.37-.32.62-.77.97-1.11.35-.34,1.01-.39,1.35-.75.34-.36.6-.8.91-1.17.32-.38.44-.92.73-1.3.31-.4.66-.74.94-1.13.29-.41.8-.66,1.06-1.06.28-.43.37-.96.61-1.36.24-.4.43-.83.65-1.24.22-.41.51-.78.72-1.2.21-.42.48-.81.68-1.23.19-.42.2-.93.38-1.36.19-.43.53-.79.7-1.22.18-.43.4-.85.57-1.29.17-.44.21-.92.37-1.36.16-.44.15-.82.3-1.26M82.44,84.27c-.09-.09-.57.25-1.23.43-.6.16-1.23.25-1.42.31-.44.13-.92.27-1.42.43-.46.14-.92.32-1.41.47-.46.14-1.01.06-1.5.22-.47.15-.84.6-1.31.77-.47.17-1.02.1-1.49.29-.47.18-.82.62-1.28.81-.46.2-.99.23-1.44.44-.46.22-.86.51-1.29.75-.45.25-.97.36-1.37.63-.43.29-.91.5-1.28.81-.4.33-.48.96-.79,1.32-.14.16-.49.52-.83,1.04-.23.35-.41.79-.65,1.18-.25.4-.44.82-.65,1.18-.34.58-.57.96-.6,1.11-.04.25-.03,1.63.05,1.99.11.47.3.9.46,1.33.17.44.22.94.44,1.35.22.41.66.7.93,1.08.27.38.59.71.91,1.06.31.35.38.94.73,1.26.34.31.84.47,1.21.76.37.28.85.41,1.25.67.39.26.74.57,1.15.8.41.23.79.52,1.21.73.42.21.78.55,1.21.74.43.19.89.32,1.32.5.44.18.84.44,1.28.6.44.17.95.15,1.39.3.45.16.95.15,1.39.29.45.15.87.37,1.31.51.46.14.91.37,1.35.5-.01-.52-.09-1.06-.11-1.58-.02-.52-.12-1.04-.14-1.56-.02-.52.02-1.04,0-1.57-.01-.52.15-1.04.15-1.56,0-.52.08-1.04.1-1.56.01-.44,0-.91.03-1.4.03-.46-.2-.95-.16-1.42.04-.47-.02-.95.02-1.41.04-.48.26-.93.31-1.38.05-.5.27-.97.33-1.46.06-.49-.02-1,.05-1.5.07-.49.03-1,.11-1.49.08-.49.21-.97.3-1.46.09-.49.43-.93.52-1.42.09-.49.1-.99.2-1.48.09-.49.19-.97.29-1.46.1-.49.05-1,.15-1.49.1-.49.11-.97.21-1.45M125.57,110.3c.46-.14.77-.37,1.22-.53.46-.16.93-.24,1.37-.42.45-.19.88-.39,1.3-.6.43-.22.83-.48,1.24-.72.41-.25.95-.31,1.34-.59.39-.28.57-.82.93-1.14.35-.32.87-.48,1.19-.84.32-.35.4-.89.68-1.29.27-.39.68-.68.92-1.11.23-.41.37-.87.56-1.33.18-.44.52-.81.67-1.24.16-.45.42-.87.54-1.3.13-.46-.14-1-.06-1.45.09-.47.24-.9.27-1.36.04-.47-.04-.92-.06-1.38-.02-.47-.13-.9-.21-1.35-.09-.46-.18-.88-.34-1.32-.15-.43-.12-.93-.34-1.35-.21-.4-.5-.76-.78-1.15-.26-.37-.43-.83-.74-1.19-.3-.34-.78-.51-1.13-.84-.33-.31-.7-.57-1.07-.88-.37-.29-.52-.88-.9-1.16-.38-.28-.89-.39-1.29-.65-.4-.26-.89-.36-1.3-.6-.41-.24-.78-.55-1.19-.77-.42-.23-.81-.51-1.23-.72-.43-.21-.8-.55-1.23-.74-.44-.2-1.01-.31-1.45-.49.1.47.07,1.07.17,1.55.1.47.38.91.48,1.39.1.48.36.92.45,1.4.1.48.11.97.2,1.45.09.48.09.98.17,1.46.09.48.24.95.32,1.43.08.48.24.95.31,1.44.07.48.09.98.15,1.46.06.49-.06.99-.01,1.48.05.49.01.98.04,1.46.03.49.09.97.11,1.46.01.49.28.98.27,1.46,0,.49.07.99.04,1.48-.03.47-.25.93-.3,1.39-.05.46-.28.9-.35,1.37-.07.46,0,.95-.08,1.41-.08.46-.05.94-.13,1.4-.08.46-.22.91-.3,1.37-.08.46-.41.88-.48,1.34-.07.46.11.84.06,1.31M83.84,111.47c.76.33.79.06,1.61.18.82.12.8.22,1.62.35.82.12.81.14,1.63.24.47,0,.94-.02,1.42-.02.47,0,.95.25,1.42.25.48,0,.95-.3,1.43-.3.47,0,.95.24,1.43.24.47,0,.95-.28,1.42-.29.48,0,.95.18,1.43.17.47,0,.95-.09,1.42-.1.48-.01.96.15,1.43.14.48-.01.96.09,1.43.07.47-.01.94-.42,1.41-.43.48-.02.96.05,1.43.04.48-.02.95-.12,1.42-.14.48-.02.95-.09,1.43-.11s.95-.02,1.43-.04c.48-.02.96.19,1.44.17.48-.02.95-.09,1.43-.11.47-.02.96.12,1.43.11.48-.02.94-.26,1.42-.27.47-.02.95-.08,1.42-.09.47-.02.96.34,1.43.33.35,0,.92-.18,1.54-.18.51,0,1.05-.18,1.54-.22.65-.06,1.17-.09,1.43-.34.11-.1.31-.55.48-1.26.09-.39.33-.82.43-1.32.08-.43.11-.9.2-1.37.08-.45.26-.9.33-1.35.08-.47-.03-.96.04-1.4.08-.5-.01-.99.04-1.39.09-.65.24-1.12.25-1.35.03-.49.15-.98.16-1.48.01-.49-.06-.99-.07-1.48,0-.5-.11-.98-.13-1.48-.02-.49,0-.99-.05-1.48-.04-.49.08-1,.03-1.49-.05-.49-.04-.99-.11-1.49-.07-.49-.18-.98-.26-1.46-.08-.49-.42-.93-.51-1.42-.09-.49-.27-.95-.37-1.44-.1-.49-.02-1-.12-1.49-.1-.48-.04-1-.15-1.49-.11-.48-.36-.93-.47-1.42-.11-.48-.33-.94-.45-1.42s-.17-.96-.28-1.44c-.18-.26-.35-.41-.61-.44-.47-.06-.98-.02-1.48-.06-.48-.03-.98-.05-1.48-.06-.48,0-.98.14-1.48.15-.49,0-.97.16-1.47.18-.49.02-1-.2-1.49-.17-.49.03-.98.17-1.47.21-.49.04-.97.23-1.47.27-.5.04-1.03-.36-1.52-.32-.5.04-.98.18-1.47.22-.5.04-.97.34-1.46.38-.5.04-1,0-1.48.04-.51.04-1.02-.21-1.49-.18-.53.03-1.06.23-1.59.22-.53-.01-1.07,0-1.61,0-.54-.01-1.08-.1-1.61-.07-.51.03-1.03-.01-1.54.02-.51.04-1,.29-1.51.34-.51.05-1.03-.07-1.54,0-.51.06-1.02.07-1.53.15-.5.08-.99.29-1.49.38-.5.09-1.03.08-1.53.18-.5.11-1,.35-1.49.47-.14.46-.44.9-.57,1.36-.14.46.16,1.04.04,1.51-.13.46-.69.81-.8,1.28-.12.47-.25.93-.36,1.4-.11.47-.1.96-.2,1.43-.1.47-.09.96-.18,1.43s-.07.96-.15,1.44c-.08.47-.33.92-.4,1.4-.07.47-.09.96-.15,1.43-.06.48.07.97.01,1.45-.05.48-.33.93-.37,1.41s-.1.96-.14,1.44c-.03.48-.08.96-.11,1.44-.03.48.22.97.2,1.45-.02.48-.26.95-.26,1.44,0,.48.06.96.07,1.44,0,.48-.15.96-.14,1.44s.18.96.2,1.44c.02.48.17.95.19,1.43.03.48.01.84.05,1.32M119.61,77.48c-.19-.44-.44-.74-.64-1.2-.2-.44-.3-.93-.51-1.38-.21-.44-.43-.88-.65-1.31-.22-.43-.49-.85-.73-1.27-.24-.43-.28-.97-.54-1.39-.26-.42-.78-.66-1.06-1.06-.28-.4-.37-.94-.68-1.32-.31-.38-.83-.57-1.16-.93-.34-.36-.54-.84-.9-1.16-.37-.33-.78-.58-1.18-.87-.4-.29-.71-.71-1.14-.95-.42-.24-.79-.57-1.2-.76-.44-.21-1.03-.04-1.45-.2-.46-.17-.87-.39-1.3-.5-.47-.12-.93-.12-1.39-.18-.48-.06-.92-.03-1.38-.03-.48,0-.92.02-1.37.09-.47.07-.96-.05-1.41.08-.45.14-.86.36-1.29.56-.42.2-.92.28-1.32.53-.39.24-.65.7-1.02.99-.36.29-.68.62-1.03.95-.34.32-.93.39-1.25.74-.31.34-.48.83-.77,1.2-.29.36-.44.84-.71,1.22-.27.38-.6.71-.86,1.11-.25.39-.56.75-.81,1.16-.24.4-.6.74-.83,1.15-.1.18-.29.68-.6,1.28-.19.38-.49.77-.71,1.21-.21.42-.24.93-.44,1.36-.22.46-.26.97-.42,1.35-.3.72-.6,1.12-.51,1.21.47-.08.94-.06,1.4-.13.47-.07.93-.21,1.39-.26.47-.06.93-.19,1.4-.24.47-.05.95-.04,1.42-.08.47-.04.95.1,1.42.07.47-.03.94.02,1.42,0,.47-.02.94-.09,1.41-.1.47-.02.93-.3,1.41-.31.47-.01.94-.12,1.41-.13.47-.01.95.15,1.42.14.47-.01.95.15,1.42.13.47-.01.94-.17,1.41-.19.47-.02.94-.15,1.41-.17.48-.02.99-.02,1.52-.08.51-.06,1.05.13,1.56.07.53-.06,1.03-.19,1.51-.21.47-.02.94-.03,1.41-.04.47,0,.94-.15,1.41-.15s.94-.13,1.41-.13c.47,0,.94.25,1.41.25.47,0,.94-.11,1.41-.11.47,0,.83-.02,1.3-.03M80.52,114.61c-.44-.13-.84-.18-1.29-.31-.44-.13-.85-.37-1.3-.5-.44-.14-.88-.27-1.33-.42-.44-.14-.89-.25-1.34-.4-.44-.15-.8-.53-1.24-.69-.44-.16-.98-.04-1.41-.2-.43-.17-.78-.57-1.2-.75-.43-.18-.97-.12-1.39-.31-.42-.19-.76-.57-1.17-.78-.42-.21-.86-.37-1.26-.6-.4-.23-.71-.62-1.1-.87-.39-.25-.7-.61-1.07-.88-.38-.28-.98-.26-1.33-.56-.35-.3-.65-.68-.98-1.01-.33-.32-.72-.61-1.03-.96-.34-.39-.71-.75-1-1.14-.31-.41-.59-.85-.85-1.26-.27-.44-.32-1-.53-1.43-.22-.47-.46-.91-.61-1.37-.16-.49-.11-1-.18-1.49-.07-.5-.32-.98-.31-1.48.02-.5.03-1.02.14-1.51.1-.48.6-.85.78-1.32.17-.45.2-.97.44-1.42.23-.43.34-.94.63-1.37.27-.4.64-.76.96-1.16.3-.38.68-.71,1.03-1.09.33-.36.77-.59,1.15-.92.36-.32.7-.66,1.1-.95.39-.28.85-.47,1.27-.72.41-.25.74-.65,1.18-.88.43-.22.8-.59,1.25-.79.44-.2.93-.32,1.39-.5.45-.18.94-.27,1.41-.44.46-.17.9-.4,1.36-.56.46-.16.91-.39,1.38-.54.47-.15.95-.25,1.42-.39.47-.14.99-.12,1.46-.25.48-.14.97-.2,1.44-.34.48-.14.94-.31,1.4-.45.48-.14.88-.53,1.34-.67.48-.14.91-.38,1.37-.53.48-.15.97-.13,1.42-.29.16-.45.47-.82.65-1.29.17-.44.21-.95.39-1.41.18-.44.25-.94.44-1.4.19-.44.43-.87.63-1.32.2-.44.63-.77.84-1.22.21-.44.35-.91.57-1.34.22-.43.45-.86.68-1.29.23-.43.35-.92.6-1.34.25-.42.39-.91.66-1.32.26-.41.74-.68,1.02-1.08.28-.4.49-.86.78-1.24.3-.39.5-.87.82-1.23.33-.37.98-.42,1.32-.76.35-.35.63-.74,1-1.05.38-.32.61-.81,1-1.09.4-.28.86-.48,1.28-.72.42-.24.97-.2,1.42-.39.46-.19.84-.55,1.29-.7.48-.16.93-.33,1.4-.45.49-.12.98-.12,1.45-.19.49-.07.98-.03,1.46-.05.5-.02.98-.22,1.47-.19.49.03.96.26,1.43.35.49.08.93.25,1.4.38.47.13.97.17,1.42.35.45.18.84.48,1.28.71.43.22.91.36,1.32.62.41.26.73.65,1.12.94.39.29,1.05.25,1.42.57.37.32.42.98.77,1.33.35.34.66.7.99,1.07.33.36.72.66,1.03,1.04.31.38.69.7.98,1.1.29.39.66.74.93,1.15.27.41.38.92.64,1.33.25.42.54.82.77,1.25.24.43.63.78.85,1.22.22.44.22.98.43,1.43.2.45.38.9.56,1.35.19.46.35.91.52,1.37.17.46.55.79.7,1.25.45.19.75.56,1.19.76.44.2.92.33,1.35.53.44.2.81.56,1.24.77.44.21.94.29,1.37.51.43.22.92.35,1.34.58.43.24.88.43,1.29.68.42.25.82.54,1.22.8.4.27.79.57,1.18.86.39.29.64.76,1.01,1.07.37.31.71.65,1.06.98.35.33.65.7.98,1.06.32.36.73.64,1.02,1.03.29.38.77.64,1.03,1.05.26.4.19,1,.42,1.44.23.42.77.7.96,1.15.19.44.39.9.54,1.36.15.45.08.99.2,1.47.12.46.19.94.28,1.43.07.38.02.83,0,1.34-.02.42.03.88-.04,1.36-.07.43.03.92-.08,1.38-.1.44-.46.82-.59,1.26-.12.44-.19.9-.33,1.32-.15.44-.31.87-.47,1.28-.17.45-.36.87-.54,1.25-.21.46-.29.96-.49,1.29-.25.41-.8.61-1.09.98-.29.38-.46.85-.78,1.2-.33.34-.79.54-1.15.85-.36.31-.55.83-.94,1.11-.38.28-.75.6-1.16.85-.4.25-.86.42-1.28.65-.42.22-.87.4-1.3.6-.43.2-.93.24-1.37.43-.44.18-.78.62-1.23.79-.45.17-.91.3-1.36.45-.45.16-.98.07-1.43.22-.46.15-.97.29-1.42.44-.15.44-.17.99-.33,1.43-.16.43-.57.78-.74,1.22-.16.43-.33.87-.5,1.31-.17.43.04,1.01-.13,1.45-.17.43-.52.79-.7,1.22-.18.43-.44.82-.63,1.25-.19.43-.16.95-.36,1.37-.19.42-.39.85-.59,1.27s-.33.88-.54,1.3c-.21.42-.61.74-.83,1.15-.22.41-.62.72-.86,1.12-.24.4-.54.76-.79,1.15-.25.4-.49.79-.75,1.17-.26.39-.24.97-.52,1.35-.28.38-.82.55-1.11.91-.29.37-.5.79-.8,1.14-.29.34-.59.7-.96,1.05-.33.31-.73.58-1.11.89-.36.29-.77.53-1.17.82-.38.28-.54.89-.95,1.15-.4.26-.83.49-1.25.73-.41.24-.97.22-1.39.43-.43.21-.89.36-1.32.54-.45.19-.83.53-1.27.68-.46.15-.97.13-1.42.23-.48.11-.94.18-1.4.22-.49.04-.95.01-1.4-.04-.49-.05-.97-.12-1.46-.23s-.97-.18-1.44-.32c-.47-.14-.99-.18-1.45-.36-.46-.18-.89-.44-1.33-.66-.44-.22-.77-.64-1.2-.89-.43-.25-.89-.42-1.3-.7-.41-.28-.98-.34-1.37-.64s-.75-.66-1.12-.99c-.37-.33-.55-.86-.9-1.21-.35-.35-.97-.46-1.29-.83-.33-.37-.36-1-.66-1.39-.31-.39-.91-.57-1.18-.98-.26-.38-.34-.89-.58-1.28-.23-.4-.24-.91-.45-1.33s-.58-.74-.76-1.16c-.18-.42-.42-.83-.58-1.26-.16-.43-.45-.83-.59-1.26-.14-.44-.12-.93-.25-1.38s-.41-.85-.53-1.3c-.11-.45-.12-.93-.22-1.38-.1-.45-.19-.91-.28-1.36-.09-.45.03-.95-.05-1.4-.08-.46-.27-.89-.35-1.35-.08-.46-.2-.91-.27-1.37-.08-.46-.29-.81-.36-1.26"/></svg>