<?xml version="1.0" encoding="UTF-8"?><svg id="Layer_1" xmlns="http://www.w3.org/2000/svg" viewBox="0 0 200 200"><path d="M102.19,143.3c-.07-.24.3-.42.08-.53-.14.35-.57.51-.99.46-.44-.04-.93-.31-1.02-.59.04-.46.1-.93.13-1.39.04-.46.35-.9.39-1.37.04-.46-.06-.94-.02-1.4.03-.46.19-.92.22-1.38.03-.46-.12-.94-.09-1.4.03-.46.09-.93.12-1.39.03-.46.13-.92.16-1.39.03-.46-.31-.95-.29-1.41.02-.46.2-.92.22-1.38.02-.46-.11-.93-.1-1.4.01-.48.28-.95.3-1.43.01-.48-.26-.97-.25-1.45.01-.48.42-.95.44-1.43s-.26-.97-.24-1.45c.01-.48.32-.96.34-1.44.01-.48.06-.96.08-1.45s-.25-.97-.24-1.45c.01-.48.31-.96.32-1.44.01-.48-.03-.97-.01-1.45.01-.48-.15-.97-.14-1.45.01-.48-.03-.97-.01-1.45.01-.48.21-.96.22-1.44.01-.48-.1-.97-.09-1.45.01-.48.02-.97.03-1.45.01-.48.22-.96.23-1.44.01-.48.03-.97.04-1.45.01-.48,0-.97,0-1.45.01-.48-.13-.97-.12-1.45.01-.48-.01-.97,0-1.45,0-.48.08-.96.09-1.45,0-.48-.18-.97-.17-1.45,0-.48.08-.96.09-1.45,0-.48.25-.96.26-1.44,0-.48.02-.97.03-1.45,0-.48-.06-.97-.05-1.45,0-.48-.12-.97-.12-1.45,0-.48.06-.96.07-1.45,0-.48-.09-.96-.08-1.45,0-.48.39-.96.39-1.44,0-.41-.46-.89-.5-1.43-.03-.45.25-.96.22-1.45-.03-.47-.39-.95-.4-1.43-.01-.49.23-.98.27-1.44.04-.51,0-1.02.12-1.44.14-.51.51-.84.83-1.15.45-.44,1.05-.62,1.52-.32.44.28.85.9.96,1.44.09.44.24.93.3,1.45.05.46-.1.97-.07,1.48.03.47.11.96.13,1.46.01.48-.12.97-.12,1.47,0,.48.19.97.19,1.46,0,.49-.28.98-.29,1.47,0,.5.29.99.27,1.47-.01.5.03.99.02,1.47-.02.51-.32.99-.33,1.46-.02.52-.04,1.01-.05,1.46-.01.48-.2.95-.21,1.42-.01.48.09.95.07,1.43-.01.47-.11.95-.12,1.42-.01.48.03.95.02,1.43-.01.48.18.96.17,1.43-.02.48.04.95.02,1.43s-.3.94-.32,1.42c-.02.47.22.96.21,1.44-.02.48-.33.94-.35,1.42-.02.48.25.96.23,1.44-.02.48-.18.95-.19,1.42-.02.48-.09.95-.11,1.43-.02.48.09.96.07,1.43-.02.48-.04.95-.06,1.43-.02.48-.12.95-.14,1.43-.02.48.1.96.08,1.43-.02.48-.21.95-.22,1.42-.02.48-.15.95-.17,1.42-.02.48.31.96.29,1.44-.02.48-.08.95-.1,1.43-.02.48.13.96.11,1.43-.01.48-.26.94-.27,1.42-.01.48.15.96.14,1.43-.01.48-.28.95-.29,1.42s.22.96.21,1.43c-.01.48-.3.95-.31,1.42-.01.48.05.95.04,1.43-.01.48.07.95.06,1.43,0,.48-.31.92-.32,1.4-.1.35,0,.86-.04,1.43-.03.44-.09.92-.1,1.42-.01.47.13.96.11,1.43-.02.51,0,1.01-.06,1.43-.09.59-.48.94-.7,1.2-.07.09-.98.82-1.02.78"/><path d="M102.19,143.3c-.07-.24.3-.42.08-.53-.14.35-.57.51-.99.46-.44-.04-.93-.31-1.02-.59.04-.46.1-.93.13-1.39.04-.46.35-.9.39-1.37.04-.46-.06-.94-.02-1.4.03-.46.19-.92.22-1.38.03-.46-.12-.94-.09-1.4.03-.46.09-.93.12-1.39.03-.46.13-.92.16-1.39.03-.46-.31-.95-.29-1.41.02-.46.2-.92.22-1.38.02-.46-.11-.93-.1-1.4.01-.48.28-.95.3-1.43.01-.48-.26-.97-.25-1.45.01-.48.42-.95.44-1.43s-.26-.97-.24-1.45c.01-.48.32-.96.34-1.44.01-.48.06-.96.08-1.45s-.25-.97-.24-1.45c.01-.48.31-.96.32-1.44.01-.48-.03-.97-.01-1.45.01-.48-.15-.97-.14-1.45.01-.48-.03-.97-.01-1.45.01-.48.21-.96.22-1.44.01-.48-.1-.97-.09-1.45.01-.48.02-.97.03-1.45.01-.48.22-.96.23-1.44.01-.48.03-.97.04-1.45.01-.48,0-.97,0-1.45.01-.48-.13-.97-.12-1.45.01-.48-.01-.97,0-1.45,0-.48.08-.96.09-1.45,0-.48-.18-.97-.17-1.45,0-.48.08-.96.09-1.45,0-.48.25-.96.26-1.44,0-.48.02-.97.03-1.45,0-.48-.06-.97-.05-1.45,0-.48-.12-.97-.12-1.45,0-.48.06-.96.07-1.45,0-.48-.09-.96-.08-1.45,0-.48.39-.96.39-1.44,0-.41-.46-.89-.5-1.43-.03-.45.25-.96.22-1.45-.03-.47-.39-.95-.4-1.43-.01-.49.23-.98.27-1.44.04-.51,0-1.02.12-1.44.14-.51.51-.84.83-1.15.45-.44,1.05-.62,1.52-.32.44.28.85.9.96,1.44.09.44.24.93.3,1.45.05.46-.1.97-.07,1.48.03.47.11.96.13,1.46.01.48-.12.97-.12,1.47,0,.48.19.97.19,1.46,0,.49-.28.98-.29,1.47,0,.5.29.99.27,1.47-.01.5.03.99.02,1.47-.02.51-.32.99-.33,1.46-.02.52-.04,1.01-.05,1.46-.01.48-.2.95-.21,1.42-.01.48.09.95.07,1.43-.01.47-.11.95-.12,1.42-.01.48.03.95.02,1.43-.01.48.18.96.17,1.43-.02.48.04.95.02,1.43s-.3.94-.32,1.42c-.02.47.22.96.21,1.44-.02.48-.33.94-.35,1.42-.02.48.25.96.23,1.44-.02.48-.18.95-.19,1.42-.02.48-.09.95-.11,1.43-.02.48.09.96.07,1.43-.02.48-.04.95-.06,1.43-.02.48-.12.95-.14,1.43-.02.48.1.96.08,1.43-.02.48-.21.95-.22,1.42-.02.48-.15.95-.17,1.42-.02.48.31.96.29,1.44-.02.48-.08.95-.1,1.43-.02.48.13.96.11,1.43-.01.48-.26.94-.27,1.42-.01.48.15.96.14,1.43-.01.48-.28.95-.29,1.42s.22.96.21,1.43c-.01.48-.3.95-.31,1.42-.01.48.05.95.04,1.43-.01.48.07.95.06,1.43,0,.48-.31.92-.32,1.4-.1.35,0,.86-.04,1.43-.03.44-.09.92-.1,1.42-.01.47.13.96.11,1.43-.02.51,0,1.01-.06,1.43-.09.59-.48.94-.7,1.2-.07.09-.98.82-1.02.78"/><path d="M71.12,129.1c-.13.18-1.58.74-1.83.72-.58-.05-1.04-.23-1.33-.42-.4-.28-.25-.79-.26-1.26-.01-.4-.21-.86-.08-1.33.12-.43.36-.84.48-1.26.14-.47.41-.89.55-1.36.15-.46-.07-1.04.08-1.51.15-.46.69-.8.85-1.26.15-.46.19-.96.34-1.42.15-.46.19-.96.35-1.42.16-.46.32-.92.47-1.38.16-.46.41-.89.57-1.35.16-.46.34-.91.5-1.37.16-.46.02-1.02.19-1.48.16-.46.39-.9.55-1.36.16-.46.69-.79.85-1.25s-.1-1.07.07-1.53c.17-.46.5-.86.66-1.32.16-.46.49-.86.65-1.32.17-.46.02-1.03.18-1.49.17-.46.46-.87.62-1.33.17-.46.24-.95.41-1.41.17-.46.36-.91.52-1.37.16-.46.49-.86.66-1.32.16-.46.17-.97.33-1.43.16-.46.25-.94.41-1.4.16-.46.46-.87.62-1.33.16-.46.58-.83.74-1.29.15-.46.2-.96.35-1.42.14-.44.39-.87.53-1.35.13-.45,0-.99.14-1.46.13-.46.09-.97.21-1.44.12-.46.33-.9.46-1.37.12-.46.3-.92.42-1.38.13-.47.35-.91.49-1.37.13-.47.02-1,.16-1.46.14-.47.27-.94.41-1.39.15-.47.63-.82.79-1.26.17-.47.17-.98.35-1.41.19-.46.33-.94.54-1.35.17-.34.63-.6.99-.86.36-.26.78-.49,1.17-.51.41-.02.59.32.85.76.21.35.36.66.34,1.12-.01.4-.09.81-.21,1.25-.11.41.09.94-.07,1.35-.16.42-.59.72-.75,1.11-.18.45-.24.9-.34,1.25-.13.43-.39.81-.51,1.24-.12.43.03.93-.08,1.36s-.31.84-.42,1.27c-.11.43-.17.88-.28,1.31-.11.43-.37.83-.49,1.25-.12.43-.13.89-.26,1.32-.14.46-.38.9-.53,1.36-.15.46-.2.95-.35,1.42-.15.46-.58.83-.73,1.29-.15.46-.14.98-.29,1.44-.15.46-.08,1-.24,1.46-.15.46-.42.89-.57,1.35-.15.46-.19.96-.34,1.42-.15.46-.74.78-.9,1.24-.16.46.1,1.06-.06,1.52-.16.46-.48.86-.63,1.32-.16.46-.52.85-.68,1.31-.16.46-.06,1-.22,1.46s-.28.93-.44,1.39c-.16.46-.28.93-.44,1.39-.16.46-.49.86-.65,1.32-.16.46-.51.85-.67,1.31-.16.46-.3.92-.46,1.38-.16.46-.2.96-.36,1.42-.16.46-.13.98-.29,1.44-.16.46-.35.9-.51,1.37-.16.46-.28.93-.43,1.39-.16.46-.29.93-.45,1.39-.16.46-.51.85-.66,1.31-.15.46-.38.9-.54,1.36-.15.46-.31.92-.46,1.38-.15.46-.22.95-.37,1.41-.15.46-.29.93-.44,1.39-.15.46-.07,1.02-.22,1.48"/><path d="M71.12,129.1c-.13.18-1.58.74-1.83.72-.58-.05-1.04-.23-1.33-.42-.4-.28-.25-.79-.26-1.26-.01-.4-.21-.86-.08-1.33.12-.43.36-.84.48-1.26.14-.47.41-.89.55-1.36.15-.46-.07-1.04.08-1.51.15-.46.69-.8.85-1.26.15-.46.19-.96.34-1.42.15-.46.19-.96.35-1.42.16-.46.32-.92.47-1.38.16-.46.41-.89.57-1.35.16-.46.34-.91.5-1.37.16-.46.02-1.02.19-1.48.16-.46.39-.9.55-1.36.16-.46.69-.79.85-1.25s-.1-1.07.07-1.53c.17-.46.5-.86.66-1.32.16-.46.49-.86.65-1.32.17-.46.02-1.03.18-1.49.17-.46.46-.87.62-1.33.17-.46.24-.95.41-1.41.17-.46.36-.91.52-1.37.16-.46.49-.86.66-1.32.16-.46.17-.97.33-1.43.16-.46.25-.94.41-1.4.16-.46.46-.87.62-1.33.16-.46.58-.83.74-1.29.15-.46.2-.96.35-1.42.14-.44.39-.87.53-1.35.13-.45,0-.99.14-1.46.13-.46.09-.97.21-1.44.12-.46.33-.9.46-1.37.12-.46.3-.92.42-1.38.13-.47.35-.91.49-1.37.13-.47.02-1,.16-1.46.14-.47.27-.94.41-1.39.15-.47.63-.82.79-1.26.17-.47.17-.98.35-1.41.19-.46.33-.94.54-1.35.17-.34.63-.6.99-.86.36-.26.78-.49,1.17-.51.41-.02.59.32.85.76.21.35.36.66.34,1.12-.01.4-.09.81-.21,1.25-.11.41.09.94-.07,1.35-.16.42-.59.72-.75,1.11-.18.45-.24.9-.34,1.25-.13.43-.39.81-.51,1.24-.12.43.03.93-.08,1.36s-.31.84-.42,1.27c-.11.43-.17.88-.28,1.31-.11.43-.37.83-.49,1.25-.12.43-.13.89-.26,1.32-.14.46-.38.9-.53,1.36-.15.46-.2.95-.35,1.42-.15.46-.58.83-.73,1.29-.15.46-.14.98-.29,1.44-.15.46-.08,1-.24,1.46-.15.46-.42.89-.57,1.35-.15.46-.19.96-.34,1.42-.15.46-.74.78-.9,1.24-.16.46.1,1.06-.06,1.52-.16.46-.48.86-.63,1.32-.16.46-.52.85-.68,1.31-.16.46-.06,1-.22,1.46s-.28.93-.44,1.39c-.16.46-.28.93-.44,1.39-.16.46-.49.86-.65,1.32-.16.46-.51.85-.67,1.31-.16.46-.3.92-.46,1.38-.16.46-.2.96-.36,1.42-.16.46-.13.98-.29,1.44-.16.46-.35.9-.51,1.37-.16.46-.28.93-.43,1.39-.16.46-.29.93-.45,1.39-.16.46-.51.85-.66,1.31-.15.46-.38.9-.54,1.36-.15.46-.31.92-.46,1.38-.15.46-.22.95-.37,1.41-.15.46-.29.93-.44,1.39-.15.46-.07,1.02-.22,1.48"/><path d="M131.97,130.18c-.05.1-.32.05-.21.38-.26-.15-.2-.5-.49-.48-.3.52-.63.77-.99.73-.37-.04-.86-.1-1.15-.5-.24-.33-.44-.79-.55-1.22-.12-.47-.13-.96-.25-1.43-.12-.47-.12-.97-.23-1.44-.12-.47-.42-.9-.53-1.37-.11-.47.02-1-.09-1.47-.11-.47-.21-.94-.32-1.41-.11-.47-.46-.89-.57-1.36-.11-.47-.27-.93-.37-1.41-.1-.48.01-1-.09-1.48s-.26-.94-.36-1.42-.28-.94-.38-1.41c-.1-.48-.12-.97-.22-1.45-.1-.48-.34-.92-.45-1.4-.1-.48,0-1-.1-1.47-.11-.48-.36-.92-.47-1.39-.11-.47-.25-.93-.35-1.4-.1-.46-.02-.97-.13-1.44-.11-.46-.1-.95-.21-1.42-.11-.46-.56-.85-.67-1.31-.11-.46-.31-.9-.43-1.37-.11-.46.1-1,0-1.47-.11-.46-.47-.87-.58-1.33-.11-.46.03-.99-.08-1.45-.11-.46-.42-.88-.53-1.35-.11-.46-.19-.94-.3-1.4-.11-.47-.15-.95-.26-1.41-.11-.47-.43-.89-.54-1.35-.11-.47-.02-.98-.12-1.45-.1-.47.04-.99-.06-1.46-.1-.47-.49-.88-.59-1.34-.1-.47-.2-.94-.3-1.4-.09-.47-.01-.97-.1-1.44-.09-.47-.24-.93-.33-1.39-.09-.48,0-.97-.09-1.44-.08-.47-.57-.88-.65-1.34-.08-.47.28-1.01.22-1.48-.05-.34-.22-.77-.27-1.26-.04-.42-.05-.84-.03-1.27.03-.46.06-.85.25-1.2.2-.37.38-.84.87-.94.43-.09.81.24,1.11.54.26.27.42.66.59,1.04.19.41.19.85.28,1.16.12.44.38.85.5,1.3.12.45.4.85.51,1.3.11.45.19.91.29,1.36.1.45.08.93.18,1.38.1.45.33.88.42,1.33.09.45-.04.95.05,1.41.09.46.22.9.31,1.36.09.46.05.93.14,1.39.08.46.16.92.24,1.37.08.46.49.85.57,1.31.09.46-.08.96,0,1.42.09.46.28.9.37,1.35.09.46.38.87.47,1.33.09.46.21.9.31,1.35.1.46.21.9.31,1.35.11.48-.15,1.04-.05,1.51.11.48.23.95.34,1.42.11.48.36.92.47,1.39.11.48.22.95.33,1.43.11.48.39.91.5,1.39.11.47.14.97.25,1.44.11.47.03.99.14,1.47.11.47.28.93.39,1.41.11.47.07.99.18,1.46.11.47.3.93.41,1.41.11.48.4.91.52,1.38.11.47.06.99.17,1.46.11.47.2.96.31,1.43.11.48.53.88.65,1.35.11.47.06.99.18,1.46.11.47,0,1,.11,1.48.11.48.51.88.62,1.36.11.47-.06,1.02.05,1.49.11.47.5.88.62,1.36.11.47.37.92.48,1.39.11.47-.09,1.02.02,1.49.07.47.28.77.25,1.08-.03.31-.25.58-.46,1.01"/><path d="M131.97,130.18c-.05.1-.32.05-.21.38-.26-.15-.2-.5-.49-.48-.3.52-.63.77-.99.73-.37-.04-.86-.1-1.15-.5-.24-.33-.44-.79-.55-1.22-.12-.47-.13-.96-.25-1.43-.12-.47-.12-.97-.23-1.44-.12-.47-.42-.9-.53-1.37-.11-.47.02-1-.09-1.47-.11-.47-.21-.94-.32-1.41-.11-.47-.46-.89-.57-1.36-.11-.47-.27-.93-.37-1.41-.1-.48.01-1-.09-1.48s-.26-.94-.36-1.42-.28-.94-.38-1.41c-.1-.48-.12-.97-.22-1.45-.1-.48-.34-.92-.45-1.4-.1-.48,0-1-.1-1.47-.11-.48-.36-.92-.47-1.39-.11-.47-.25-.93-.35-1.4-.1-.46-.02-.97-.13-1.44-.11-.46-.1-.95-.21-1.42-.11-.46-.56-.85-.67-1.31-.11-.46-.31-.9-.43-1.37-.11-.46.1-1,0-1.47-.11-.46-.47-.87-.58-1.33-.11-.46.03-.99-.08-1.45-.11-.46-.42-.88-.53-1.35-.11-.46-.19-.94-.3-1.4-.11-.47-.15-.95-.26-1.41-.11-.47-.43-.89-.54-1.35-.11-.47-.02-.98-.12-1.45-.1-.47.04-.99-.06-1.46-.1-.47-.49-.88-.59-1.34-.1-.47-.2-.94-.3-1.4-.09-.47-.01-.97-.1-1.44-.09-.47-.24-.93-.33-1.39-.09-.48,0-.97-.09-1.44-.08-.47-.57-.88-.65-1.34-.08-.47.28-1.01.22-1.48-.05-.34-.22-.77-.27-1.26-.04-.42-.05-.84-.03-1.27.03-.46.06-.85.25-1.2.2-.37.38-.84.87-.94.43-.09.81.24,1.11.54.26.27.42.66.59,1.04.19.41.19.85.28,1.16.12.44.38.85.5,1.3.12.45.4.85.51,1.3.11.45.19.91.29,1.36.1.45.08.93.18,1.38.1.45.33.88.42,1.33.09.45-.04.95.05,1.41.09.46.22.9.31,1.36.09.46.05.93.14,1.39.08.46.16.92.24,1.37.08.46.49.85.57,1.31.09.46-.08.96,0,1.42.09.46.28.9.37,1.35.09.46.38.87.47,1.33.09.46.21.9.31,1.35.1.46.21.9.31,1.35.11.48-.15,1.04-.05,1.51.11.48.23.95.34,1.42.11.48.36.92.47,1.39.11.48.22.95.33,1.43.11.48.39.91.5,1.39.11.47.14.97.25,1.44.11.47.03.99.14,1.47.11.47.28.93.39,1.41.11.47.07.99.18,1.46.11.47.3.93.41,1.41.11.48.4.91.52,1.38.11.47.06.99.17,1.46.11.47.2.96.31,1.43.11.48.53.88.65,1.35.11.47.06.99.18,1.46.11.47,0,1,.11,1.48.11.48.51.88.62,1.36.11.47-.06,1.02.05,1.49.11.47.5.88.62,1.36.11.47.37.92.48,1.39.11.47-.09,1.02.02,1.49.07.47.28.77.25,1.08-.03.31-.25.58-.46,1.01"/><path d="M118.45,63.88c-.46-.21-.97-.3-1.44-.5-.47-.2-.97-.28-1.45-.46-.47-.18-.9-.46-1.38-.63-.48-.16-.96-.3-1.45-.44-.49-.14-.97-.28-1.46-.4-.49-.12-.9-.32-1.39-.41.24.49.4.93.38,1.39-.02.49-.17,1.02-.42,1.46-.23.41-.6.79-.97,1.15-.35.33-.73.68-1.16.95-.42.27-.9.45-1.35.65-.47.21-.96.32-1.42.43-.52.13-1.02.1-1.46.08-.41-.02-.99.15-1.53-.02-.47-.15-.89-.53-1.33-.75-.5-.25-1.1-.38-1.4-.67-.36-.36-.4-.87-.56-1.19-.19-.4-.08-.81-.15-1.24-.06-.38-.18-.78-.29-1.25-.08-.31.05-.12-.48-.06-.43.05-.85.07-1.31.2-.42.12-.83.26-1.27.43-.41.16-.91.13-1.33.33-.41.19-.85.33-1.25.54-.4.21-.75.52-1.14.74-.4.23-.65.7-1.03.93-.4.25-.98.17-1.35.4-.4.26-.78.61-1.13.84.35.34.75.68,1.12.97.38.3.84.48,1.24.72.41.25.74.66,1.17.86.44.2.92.29,1.38.45.45.15.94.18,1.41.29.46.11.9.4,1.38.46.47.06.98-.21,1.46-.19.47.02.94.18,1.42.17.48,0,.97.17,1.45.13.47-.04.92-.35,1.4-.42.47-.06,1,.16,1.47.08.47-.09.89-.44,1.36-.54.47-.1.92-.24,1.39-.36.46-.12.92-.25,1.38-.38.46-.13.98-.06,1.44-.2.38-.12.75-.67,1.3-.86.44-.15,1.02-.03,1.52-.21.46-.16.97-.25,1.45-.43.47-.17.83-.67,1.3-.85.48-.19,1.06-.12,1.5-.3.5-.21.92-.51,1.34-.7.55-.25.89-.66,1.22-.86.25-.15.54.21.43-.34M121.35,66.04c-.07.07.1.62-.16.91-.14.15-.57.53-1.22.83-.37.17-.86.26-1.35.47-.41.17-.85.37-1.31.56-.43.17-.87.34-1.32.51-.44.17-.91.28-1.35.45-.45.17-.88.38-1.31.54-.46.17-.9.36-1.32.51-.49.18-.96.29-1.35.43-.6.21-1.06.4-1.33.49-.45.14-.94.21-1.41.34-.46.13-.94.2-1.42.31-.47.11-.96.13-1.43.23-.47.1-.89.47-1.37.55-.47.08-.99-.04-1.47.03-.48.07-.94.35-1.42.4-.48.05-.99-.18-1.47-.15-.49.03-.97-.14-1.45-.14-.49,0-.96.05-1.44.03-.49-.02-1.01.35-1.49.3-.49-.06-.97-.19-1.44-.28-.48-.09-.97-.21-1.43-.34-.38-.11-.77-.49-1.27-.7-.41-.17-.81-.45-1.26-.68-.41-.21-.88-.36-1.29-.61-.41-.24-.97-.29-1.36-.56-.4-.28-.56-.88-.9-1.18-.38-.34-.76-.62-1.03-.97-.32-.42-.56-.82-.66-1.23-.13-.54.03-1.06,0-1.4,0-.13-.24-.12-.24-.24-.02-.34.22-.72.7-1.17.35-.32.71-.73,1.11-1.02.51-.36,1.1-.49,1.36-.66.41-.27.65-.79,1.07-1.04.42-.25.92-.36,1.35-.59.43-.23.95-.27,1.39-.48.44-.21.77-.65,1.22-.85.45-.19,1.01-.09,1.46-.27.46-.17.82-.58,1.28-.74.46-.15.92-.32,1.39-.46.47-.13.94-.26,1.41-.38.47-.12.99,0,1.47-.1.48-.1.89-.58,1.37-.66.48-.07,1.01.16,1.49.1.48-.05.97,0,1.46-.04.49-.03.96-.39,1.45-.4.49,0,.97.27,1.46.28.49.01.98-.07,1.46-.04.49.04,1-.12,1.48-.06.48.06.95.26,1.43.34.48.08.9.47,1.37.58.47.11.98.07,1.45.2.47.13.94.24,1.41.39.46.15.84.52,1.3.69.45.18.92.3,1.36.51.44.2,1.04.09,1.47.32.43.22.65.84,1.07,1.08.35.2.93.15,1.34.41.38.24.68.63,1.02.91.37.31.81.57,1.02.92.24.41.06.86-.08,1.31-.11.35-.12.83-.55,1.21-.8.7-1.67.22-1.73.28"/><path d="M118.45,63.88c-.46-.21-.97-.3-1.44-.5-.47-.2-.97-.28-1.45-.46-.47-.18-.9-.46-1.38-.63-.48-.16-.96-.3-1.45-.44-.49-.14-.97-.28-1.46-.4-.49-.12-.9-.32-1.39-.41.24.49.4.93.38,1.39-.02.49-.17,1.02-.42,1.46-.23.41-.6.79-.97,1.15-.35.33-.73.68-1.16.95-.42.27-.9.45-1.35.65-.47.21-.96.32-1.42.43-.52.13-1.02.1-1.46.08-.41-.02-.99.15-1.53-.02-.47-.15-.89-.53-1.33-.75-.5-.25-1.1-.38-1.4-.67-.36-.36-.4-.87-.56-1.19-.19-.4-.08-.81-.15-1.24-.06-.38-.18-.78-.29-1.25-.08-.31.05-.12-.48-.06-.43.05-.85.07-1.31.2-.42.12-.83.26-1.27.43-.41.16-.91.13-1.33.33-.41.19-.85.33-1.25.54-.4.21-.75.52-1.14.74-.4.23-.65.7-1.03.93-.4.25-.98.17-1.35.4-.4.26-.78.61-1.13.84.35.34.75.68,1.12.97.38.3.84.48,1.24.72.41.25.74.66,1.17.86.44.2.92.29,1.38.45.45.15.94.18,1.41.29.46.11.9.4,1.38.46.47.06.98-.21,1.46-.19.47.02.94.18,1.42.17.48,0,.97.17,1.45.13.47-.04.92-.35,1.4-.42.47-.06,1,.16,1.47.08.47-.09.89-.44,1.36-.54.47-.1.92-.24,1.39-.36.46-.12.92-.25,1.38-.38.46-.13.98-.06,1.44-.2.38-.12.75-.67,1.3-.86.44-.15,1.02-.03,1.52-.21.46-.16.97-.25,1.45-.43.47-.17.83-.67,1.3-.85.48-.19,1.06-.12,1.5-.3.5-.21.92-.51,1.34-.7.55-.25.89-.66,1.22-.86.25-.15.54.21.43-.34M121.35,66.04c-.07.07.1.62-.16.91-.14.15-.57.53-1.22.83-.37.17-.86.26-1.35.47-.41.17-.85.37-1.31.56-.43.17-.87.34-1.32.51-.44.17-.91.28-1.35.45-.45.17-.88.38-1.31.54-.46.17-.9.36-1.32.51-.49.18-.96.29-1.35.43-.6.21-1.06.4-1.33.49-.45.14-.94.21-1.41.34-.46.13-.94.2-1.42.31-.47.11-.96.13-1.43.23-.47.1-.89.47-1.37.55-.47.08-.99-.04-1.47.03-.48.07-.94.35-1.42.4-.48.05-.99-.18-1.47-.15-.49.03-.97-.14-1.45-.14-.49,0-.96.05-1.44.03-.49-.02-1.01.35-1.49.3-.49-.06-.97-.19-1.44-.28-.48-.09-.97-.21-1.43-.34-.38-.11-.77-.49-1.27-.7-.41-.17-.81-.45-1.26-.68-.41-.21-.88-.36-1.29-.61-.41-.24-.97-.29-1.36-.56-.4-.28-.56-.88-.9-1.18-.38-.34-.76-.62-1.03-.97-.32-.42-.56-.82-.66-1.23-.13-.54.03-1.06,0-1.4,0-.13-.24-.12-.24-.24-.02-.34.22-.72.7-1.17.35-.32.71-.73,1.11-1.02.51-.36,1.1-.49,1.36-.66.41-.27.65-.79,1.07-1.04.42-.25.92-.36,1.35-.59.43-.23.95-.27,1.39-.48.44-.21.77-.65,1.22-.85.45-.19,1.01-.09,1.46-.27.46-.17.82-.58,1.28-.74.46-.15.92-.32,1.39-.46.47-.13.94-.26,1.41-.38.47-.12.99,0,1.47-.1.48-.1.89-.58,1.37-.66.48-.07,1.01.16,1.49.1.48-.05.97,0,1.46-.04.49-.03.96-.39,1.45-.4.49,0,.97.27,1.46.28.49.01.98-.07,1.46-.04.49.04,1-.12,1.48-.06.48.06.95.26,1.43.34.48.08.9.47,1.37.58.47.11.98.07,1.45.2.47.13.94.24,1.41.39.46.15.84.52,1.3.69.45.18.92.3,1.36.51.44.2,1.04.09,1.47.32.43.22.65.84,1.07,1.08.35.2.93.15,1.34.41.38.24.68.63,1.02.91.37.31.81.57,1.02.92.24.41.06.86-.08,1.31-.11.35-.12.83-.55,1.21-.8.7-1.67.22-1.73.28"/><path d="M102.19,143.3c-.07-.24.3-.42.08-.53-.14.35-.57.51-.99.46-.44-.04-.93-.31-1.02-.59.04-.46.1-.93.13-1.39.04-.46.35-.9.39-1.37.04-.46-.06-.94-.02-1.4.03-.46.19-.92.22-1.38.03-.46-.12-.94-.09-1.4.03-.46.09-.93.12-1.39.03-.46.13-.92.16-1.39.03-.46-.31-.95-.29-1.41.02-.46.2-.92.22-1.38.02-.46-.11-.93-.1-1.4.01-.48.28-.95.3-1.43.01-.48-.26-.97-.25-1.45.01-.48.42-.95.44-1.43s-.26-.97-.24-1.45c.01-.48.32-.96.34-1.44.01-.48.06-.96.08-1.45s-.25-.97-.24-1.45c.01-.48.31-.96.32-1.44.01-.48-.03-.97-.01-1.45.01-.48-.15-.97-.14-1.45.01-.48-.03-.97-.01-1.45.01-.48.21-.96.22-1.44.01-.48-.1-.97-.09-1.45.01-.48.02-.97.03-1.45.01-.48.22-.96.23-1.44.01-.48.03-.97.04-1.45.01-.48,0-.97,0-1.45.01-.48-.13-.97-.12-1.45.01-.48-.01-.97,0-1.45,0-.48.08-.96.09-1.45,0-.48-.18-.97-.17-1.45,0-.48.08-.96.09-1.45,0-.48.25-.96.26-1.44,0-.48.02-.97.03-1.45,0-.48-.06-.97-.05-1.45,0-.48-.12-.97-.12-1.45,0-.48.06-.96.07-1.45,0-.48-.09-.96-.08-1.45,0-.48.39-.96.39-1.44,0-.41-.46-.89-.5-1.43-.03-.45.25-.96.22-1.45-.03-.47-.39-.95-.4-1.43-.01-.49.23-.98.27-1.44.04-.51,0-1.02.12-1.44.14-.51.51-.84.83-1.15.45-.44,1.05-.62,1.52-.32.44.28.85.9.96,1.44.09.44.24.93.3,1.45.05.46-.1.97-.07,1.48.03.47.11.96.13,1.46.01.48-.12.97-.12,1.47,0,.48.19.97.19,1.46,0,.49-.28.98-.29,1.47,0,.5.29.99.27,1.47-.01.5.03.99.02,1.47-.02.51-.32.99-.33,1.46-.02.52-.04,1.01-.05,1.46-.01.48-.2.95-.21,1.42-.01.48.09.95.07,1.43-.01.47-.11.95-.12,1.42-.01.48.03.95.02,1.43-.01.48.18.96.17,1.43-.02.48.04.95.02,1.43s-.3.94-.32,1.42c-.02.47.22.96.21,1.44-.02.48-.33.94-.35,1.42-.02.48.25.96.23,1.44-.02.48-.18.95-.19,1.42-.02.48-.09.95-.11,1.43-.02.48.09.96.07,1.43-.02.48-.04.95-.06,1.43-.02.48-.12.95-.14,1.43-.02.48.1.96.08,1.43-.02.48-.21.95-.22,1.42-.02.48-.15.95-.17,1.42-.02.48.31.96.29,1.44-.02.48-.08.95-.1,1.43-.02.48.13.96.11,1.43-.01.48-.26.94-.27,1.42-.01.48.15.96.14,1.43-.01.48-.28.95-.29,1.42s.22.96.21,1.43c-.01.48-.3.95-.31,1.42-.01.48.05.95.04,1.43-.01.48.07.95.06,1.43,0,.48-.31.92-.32,1.4-.1.35,0,.86-.04,1.43-.03.44-.09.92-.1,1.42-.01.47.13.96.11,1.43-.02.51,0,1.01-.06,1.43-.09.59-.48.94-.7,1.2-.07.09-.98.82-1.02.78"/><path d="M71.12,129.1c-.13.18-1.58.74-1.83.72-.58-.05-1.04-.23-1.33-.42-.4-.28-.25-.79-.26-1.26-.01-.4-.21-.86-.08-1.33.12-.43.36-.84.48-1.26.14-.47.41-.89.55-1.36.15-.46-.07-1.04.08-1.51.15-.46.69-.8.85-1.26.15-.46.19-.96.34-1.42.15-.46.19-.96.35-1.42.16-.46.32-.92.47-1.38.16-.46.41-.89.57-1.35.16-.46.34-.91.5-1.37.16-.46.02-1.02.19-1.48.16-.46.39-.9.55-1.36.16-.46.69-.79.85-1.25s-.1-1.07.07-1.53c.17-.46.5-.86.66-1.32.16-.46.49-.86.65-1.32.17-.46.02-1.03.18-1.49.17-.46.46-.87.62-1.33.17-.46.24-.95.41-1.41.17-.46.36-.91.52-1.37.16-.46.49-.86.66-1.32.16-.46.17-.97.33-1.43.16-.46.25-.94.41-1.4.16-.46.46-.87.62-1.33.16-.46.58-.83.74-1.29.15-.46.2-.96.35-1.42.14-.44.39-.87.53-1.35.13-.45,0-.99.14-1.46.13-.46.09-.97.21-1.44.12-.46.33-.9.46-1.37.12-.46.3-.92.42-1.38.13-.47.35-.91.49-1.37.13-.47.02-1,.16-1.46.14-.47.27-.94.41-1.39.15-.47.63-.82.79-1.26.17-.47.17-.98.35-1.41.19-.46.33-.94.54-1.35.17-.34.63-.6.99-.86.36-.26.78-.49,1.17-.51.41-.02.59.32.85.76.21.35.36.66.34,1.12-.01.4-.09.81-.21,1.25-.11.41.09.94-.07,1.35-.16.42-.59.72-.75,1.11-.18.45-.24.9-.34,1.25-.13.43-.39.81-.51,1.24-.12.43.03.93-.08,1.36s-.31.84-.42,1.27c-.11.43-.17.88-.28,1.31-.11.43-.37.83-.49,1.25-.12.43-.13.89-.26,1.32-.14.46-.38.9-.53,1.36-.15.46-.2.95-.35,1.42-.15.46-.58.83-.73,1.29-.15.46-.14.98-.29,1.44-.15.46-.08,1-.24,1.46-.15.46-.42.89-.57,1.35-.15.46-.19.96-.34,1.42-.15.46-.74.78-.9,1.24-.16.46.1,1.06-.06,1.52-.16.46-.48.86-.63,1.32-.16.46-.52.85-.68,1.31-.16.46-.06,1-.22,1.46s-.28.93-.44,1.39c-.16.46-.28.93-.44,1.39-.16.46-.49.86-.65,1.32-.16.46-.51.85-.67,1.31-.16.46-.3.92-.46,1.38-.16.46-.2.96-.36,1.42-.16.46-.13.98-.29,1.44-.16.46-.35.9-.51,1.37-.16.46-.28.93-.43,1.39-.16.46-.29.93-.45,1.39-.16.46-.51.85-.66,1.31-.15.46-.38.9-.54,1.36-.15.46-.31.92-.46,1.38-.15.46-.22.95-.37,1.41-.15.46-.29.93-.44,1.39-.15.46-.07,1.02-.22,1.48"/><path d="M131.97,130.18c-.05.1-.32.05-.21.38-.26-.15-.2-.5-.49-.48-.3.52-.63.77-.99.73-.37-.04-.86-.1-1.15-.5-.24-.33-.44-.79-.55-1.22-.12-.47-.13-.96-.25-1.43-.12-.47-.12-.97-.23-1.44-.12-.47-.42-.9-.53-1.37-.11-.47.02-1-.09-1.47-.11-.47-.21-.94-.32-1.41-.11-.47-.46-.89-.57-1.36-.11-.47-.27-.93-.37-1.41-.1-.48.01-1-.09-1.48s-.26-.94-.36-1.42-.28-.94-.38-1.41c-.1-.48-.12-.97-.22-1.45-.1-.48-.34-.92-.45-1.4-.1-.48,0-1-.1-1.47-.11-.48-.36-.92-.47-1.39-.11-.47-.25-.93-.35-1.4-.1-.46-.02-.97-.13-1.44-.11-.46-.1-.95-.21-1.42-.11-.46-.56-.85-.67-1.31-.11-.46-.31-.9-.43-1.37-.11-.46.1-1,0-1.47-.11-.46-.47-.87-.58-1.33-.11-.46.03-.99-.08-1.45-.11-.46-.42-.88-.53-1.35-.11-.46-.19-.94-.3-1.4-.11-.47-.15-.95-.26-1.41-.11-.47-.43-.89-.54-1.35-.11-.47-.02-.98-.12-1.45-.1-.47.04-.99-.06-1.46-.1-.47-.49-.88-.59-1.34-.1-.47-.2-.94-.3-1.4-.09-.47-.01-.97-.1-1.44-.09-.47-.24-.93-.33-1.39-.09-.48,0-.97-.09-1.44-.08-.47-.57-.88-.65-1.34-.08-.47.28-1.01.22-1.48-.05-.34-.22-.77-.27-1.26-.04-.42-.05-.84-.03-1.27.03-.46.06-.85.25-1.2.2-.37.38-.84.87-.94.43-.09.81.24,1.11.54.26.27.42.66.59,1.04.19.41.19.85.28,1.16.12.44.38.85.5,1.3.12.45.4.85.51,1.3.11.45.19.91.29,1.36.1.45.08.93.18,1.38.1.45.33.88.42,1.33.09.45-.04.95.05,1.41.09.46.22.9.31,1.36.09.46.05.93.14,1.39.08.46.16.92.24,1.37.08.46.49.85.57,1.31.09.46-.08.96,0,1.42.09.46.28.9.37,1.35.09.46.38.87.47,1.33.09.46.21.9.31,1.35.1.46.21.9.31,1.35.11.48-.15,1.04-.05,1.51.11.48.23.95.34,1.42.11.48.36.92.47,1.39.11.48.22.95.33,1.43.11.48.39.91.5,1.39.11.47.14.97.25,1.44.11.47.03.99.14,1.47.11.47.28.93.39,1.41.11.47.07.99.18,1.46.11.47.3.93.41,1.41.11.48.4.91.52,1.38.11.47.06.99.17,1.46.11.47.2.96.31,1.43.11.48.53.88.65,1.35.11.47.06.99.18,1.46.11.47,0,1,.11,1.48.11.48.51.88.62,1.36.11.47-.06,1.02.05,1.49.11.47.5.88.62,1.36.11.47.37.92.48,1.39.11.47-.09,1.02.02,1.49.07.47.28.77.25,1.08-.03.31-.25.58-.46,1.01"/><path d="M118.45,63.88c-.46-.21-.97-.3-1.44-.5-.47-.2-.97-.28-1.45-.46-.47-.18-.9-.46-1.38-.63-.48-.16-.96-.3-1.45-.44-.49-.14-.97-.28-1.46-.4-.49-.12-.9-.32-1.39-.41.24.49.4.93.38,1.39-.02.49-.17,1.02-.42,1.46-.23.41-.6.79-.97,1.15-.35.33-.73.68-1.16.95-.42.27-.9.45-1.35.65-.47.21-.96.32-1.42.43-.52.13-1.02.1-1.46.08-.41-.02-.99.15-1.53-.02-.47-.15-.89-.53-1.33-.75-.5-.25-1.1-.38-1.4-.67-.36-.36-.4-.87-.56-1.19-.19-.4-.08-.81-.15-1.24-.06-.38-.18-.78-.29-1.25-.08-.31.05-.12-.48-.06-.43.05-.85.07-1.31.2-.42.12-.83.26-1.27.43-.41.16-.91.13-1.33.33-.41.19-.85.33-1.25.54-.4.21-.75.52-1.14.74-.4.23-.65.7-1.03.93-.4.25-.98.17-1.35.4-.4.26-.78.61-1.13.84.35.34.75.68,1.12.97.38.3.84.48,1.24.72.41.25.74.66,1.17.86.44.2.92.29,1.38.45.45.15.94.18,1.41.29.46.11.9.4,1.38.46.47.06.98-.21,1.46-.19.47.02.94.18,1.42.17.48,0,.97.17,1.45.13.47-.04.92-.35,1.4-.42.47-.06,1,.16,1.47.08.47-.09.89-.44,1.36-.54.47-.1.92-.24,1.39-.36.46-.12.92-.25,1.38-.38.46-.13.98-.06,1.44-.2.38-.12.75-.67,1.3-.86.44-.15,1.02-.03,1.52-.21.46-.16.97-.25,1.45-.43.47-.17.83-.67,1.3-.85.48-.19,1.06-.12,1.5-.3.5-.21.92-.51,1.34-.7.55-.25.89-.66,1.22-.86.25-.15.54.21.43-.34M121.35,66.04c-.07.07.1.62-.16.91-.14.15-.57.53-1.22.83-.37.17-.86.26-1.35.47-.41.17-.85.37-1.31.56-.43.17-.87.34-1.32.51-.44.17-.91.28-1.35.45-.45.17-.88.38-1.31.54-.46.17-.9.36-1.32.51-.49.18-.96.29-1.35.43-.6.21-1.06.4-1.33.49-.45.14-.94.21-1.41.34-.46.13-.94.2-1.42.31-.47.11-.96.13-1.43.23-.47.1-.89.47-1.37.55-.47.08-.99-.04-1.47.03-.48.07-.94.35-1.42.4-.48.05-.99-.18-1.47-.15-.49.03-.97-.14-1.45-.14-.49,0-.96.05-1.44.03-.49-.02-1.01.35-1.49.3-.49-.06-.97-.19-1.44-.28-.48-.09-.97-.21-1.43-.34-.38-.11-.77-.49-1.27-.7-.41-.17-.81-.45-1.26-.68-.41-.21-.88-.36-1.29-.61-.41-.24-.97-.29-1.36-.56-.4-.28-.56-.88-.9-1.18-.38-.34-.76-.62-1.03-.97-.32-.42-.56-.82-.66-1.23-.13-.54.03-1.06,0-1.4,0-.13-.24-.12-.24-.24-.02-.34.22-.72.7-1.17.35-.32.71-.73,1.11-1.02.51-.36,1.1-.49,1.36-.66.41-.27.65-.79,1.07-1.04.42-.25.92-.36,1.35-.59.43-.23.95-.27,1.39-.48.44-.21.77-.65,1.22-.85.45-.19,1.01-.09,1.46-.27.46-.17.82-.58,1.28-.74.46-.15.92-.32,1.39-.46.47-.13.94-.26,1.41-.38.47-.12.99,0,1.47-.1.48-.1.89-.58,1.37-.66.48-.07,1.01.16,1.49.1.48-.05.97,0,1.46-.04.49-.03.96-.39,1.45-.4.49,0,.97.27,1.46.28.49.01.98-.07,1.46-.04.49.04,1-.12,1.48-.06.48.06.95.26,1.43.34.48.08.9.47,1.37.58.47.11.98.07,1.45.2.47.13.94.24,1.41.39.46.15.84.52,1.3.69.45.18.92.3,1.36.51.44.2,1.04.09,1.47.32.43.22.65.84,1.07,1.08.35.2.93.15,1.34.41.38.24.68.63,1.02.91.37.31.81.57,1.02.92.24.41.06.86-.08,1.31-.11.35-.12.83-.55,1.21-.8.7-1.67.22-1.73.28"/></svg>