<?xml version="1.0" encoding="UTF-8"?><svg id="Layer_1" xmlns="http://www.w3.org/2000/svg" viewBox="0 0 200 200"><path d="M72.21,84.48c.18.26.24.6.42.86.18.26.35.53.53.79.18.26.43.48.6.74.18.26.36.52.53.79.18.26.37.52.54.78.18.26.34.54.51.8.18.26.27.58.44.85.18.26.44.47.61.74.18.26.39.5.56.77.17.26.22.62.39.88.17.26.4.5.57.76.17.27.29.57.46.83.17.27.43.48.6.75.17.27.4.5.57.76.17.27.5.43.67.7.17.27.26.59.43.86.17.27.42.48.59.75.17.27.06.71.23.98.17.27.38.51.54.78s.39.5.56.77c.17.27.5.44.67.71.17.27.08.7.24.97.17.27.62.36.79.63s.12.67.29.94c.17.27.38.51.55.78.16.27.22.61.38.88.16.27.59.39.75.66.16.27.05.71.21.98.16.27.48.45.64.73.16.27.41.5.57.77.16.27.19.62.35.9.16.28.14.65.3.92.16.28.57.4.73.68.16.28.09.68.25.95.15.28.43.49.58.77.15.28.43.49.58.76.15.28.08.68.23.96.15.28.42.49.57.77.15.28.31.55.46.83.15.28.26.58.41.86.15.28.31.55.46.83.15.28.22.6.36.88.14.28.41.5.56.78.14.28.05.68.19.97.14.28.28.57.43.85.14.28.53.44.67.73.14.29.33.54.47.83.14.29.2.61.34.89.14.29.31.56.44.84.14.29.12.64.25.93.13.29.21.6.34.89.13.29.51.46.64.75.17.3.06.71.05,1.05-.01.35-.12.66-.29.94-.18.3-.39.56-.71.67-.29.1-.62.09-.99-.08-.18-.08-.51-.23-.75-.56-.16-.21-.21-.57-.39-.85-.15-.24-.34-.49-.5-.77-.15-.26-.21-.57-.36-.85-.14-.27-.39-.49-.53-.76s-.31-.54-.44-.81c-.14-.28-.09-.65-.22-.92-.14-.29-.24-.58-.37-.84-.14-.3-.4-.52-.52-.77-.16-.34-.51-.52-.61-.72-.14-.29-.25-.6-.4-.88-.15-.29-.09-.68-.24-.97-.15-.29-.22-.61-.37-.9-.15-.29-.61-.41-.76-.7-.15-.29,0-.73-.15-1.02-.15-.29-.5-.47-.65-.75-.15-.29-.08-.69-.24-.98-.15-.29-.43-.5-.58-.79-.15-.28-.39-.52-.55-.81-.15-.28-.29-.58-.44-.87-.16-.28-.14-.67-.29-.95-.16-.28-.61-.4-.77-.68-.16-.28-.32-.56-.48-.84-.16-.28-.17-.65-.33-.93-.16-.28-.35-.54-.52-.83-.16-.28-.47-.48-.63-.76-.16-.28-.18-.65-.34-.93-.16-.28-.18-.64-.35-.93-.16-.28-.53-.44-.69-.72-.17-.28-.19-.64-.36-.92-.17-.28-.26-.6-.43-.88s-.49-.46-.65-.74c-.17-.28-.33-.56-.5-.84-.17-.28-.43-.5-.6-.78-.17-.28-.18-.65-.35-.93-.17-.28-.25-.61-.42-.88-.17-.28-.35-.55-.52-.82-.17-.28-.63-.37-.8-.65-.17-.27-.22-.63-.39-.9-.17-.27-.44-.49-.62-.76-.17-.27-.06-.73-.24-1-.17-.27-.66-.35-.83-.62-.15-.24-.09-.69-.31-1-.18-.25-.5-.43-.71-.72-.19-.26-.46-.47-.67-.75-.2-.26-.32-.59-.53-.86-.2-.26-.39-.55-.59-.81-.2-.27-.46-.5-.66-.76-.2-.27-.33-.6-.52-.86-.2-.28-.44-.53-.62-.79-.2-.3-.33-.62-.49-.88-.2-.34-.38-.62-.47-.86-.11-.32-.15-.64-.11-.95.04-.33.2-.61.37-.88.18-.29.39-.52.67-.65.29-.14.57-.15.91-.05.27.08.56.18.82.46"/><path d="M97.42,97.18c.35-.02.28-.51.4-.73.15-.28.34-.55.48-.84.14-.29.35-.54.49-.84.14-.29.3-.57.44-.86.14-.29.44-.51.57-.8.13-.29.1-.66.23-.96.13-.29.22-.6.35-.9.13-.29.48-.49.6-.79.13-.3.24-.6.37-.9.13-.3.22-.61.35-.9s.17-.63.3-.93c.13-.3.18-.62.31-.93.12-.3.37-.55.5-.85.12-.3.13-.65.25-.95.12-.3.32-.57.44-.87.12-.3.38-.54.5-.85.12-.3.12-.65.24-.95.12-.3.07-.67.2-.97.12-.3.34-.56.47-.86.13-.3.3-.58.43-.88.13-.3.16-.64.29-.93.13-.3.26-.6.39-.89.13-.3.38-.54.5-.83.12-.28.2-.59.32-.88.12-.29.17-.61.29-.9.12-.29.51-.46.63-.75.12-.29.11-.63.23-.92.12-.29.16-.61.28-.9.12-.29.42-.5.54-.79.12-.29.19-.6.31-.89.12-.29.26-.57.38-.86.12-.29.23-.58.35-.87.12-.29-.04-.7.08-.99s.25-.58.37-.87c.12-.29.37-.53.49-.82.12-.29.28-.56.41-.85.12-.29.25-.58.37-.87.12-.29.34-.54.47-.83.13-.29.15-.62.28-.91.13-.29.23-.59.36-.87.13-.29.38-.52.51-.8.13-.29.15-.62.29-.9.13-.29.35-.53.49-.81.14-.29.13-.64.27-.92.14-.28.49-.46.62-.74.14-.28.29-.55.43-.83.15-.28.15-.63.29-.9.13-.24.29-.54.47-.85.16-.27.43-.49.62-.75.2-.27.44-.46.68-.65.27-.22.45-.65.77-.68.29-.02.71.06,1.03.28.28.19.48.53.55.79.07.26-.13.58-.21.88-.07.27-.07.59-.21.86-.13.26-.22.56-.36.8-.17.29-.35.51-.45.73-.13.29-.49.49-.62.78-.13.29.03.72-.11,1.02-.13.29-.42.52-.56.81-.13.29-.31.57-.44.86-.13.29-.11.66-.24.95-.13.29-.31.57-.44.86-.14.29-.32.56-.46.86-.14.29-.34.55-.47.85-.13.29-.22.61-.36.9-.14.29-.23.61-.36.9-.13.29-.27.59-.4.88-.13.29-.18.63-.31.92-.14.29-.46.5-.59.8-.13.29-.2.62-.34.91-.13.29-.29.58-.42.87-.13.29-.32.57-.45.86-.13.29-.23.61-.36.9-.13.29-.16.64-.29.93-.13.29-.22.61-.35.91-.13.29-.54.47-.68.76-.13.29-.23.6-.37.9-.13.29-.29.58-.42.87-.13.3-.19.62-.32.92-.13.29-.36.55-.49.85-.13.29-.01.7-.14,1-.13.3-.41.53-.54.82-.13.3-.41.53-.54.82-.13.3.01.71-.12,1.01-.13.3-.41.53-.54.82-.13.3-.32.57-.44.87-.13.3-.27.59-.4.89-.13.3-.08.67-.21.97-.13.3-.37.54-.5.84-.13.3-.3.58-.43.87-.13.3-.15.64-.27.94-.13.3-.22.61-.34.91-.13.3-.18.63-.31.92-.13.3-.52.48-.65.78-.13.3-.08.67-.21.97-.12.3-.24.6-.36.9-.12.3-.25.6-.37.9-.12.3-.25.6-.38.9-.12.3-.1.66-.23.96-.12.3-.49.5-.62.79s-.16.63-.28.93c-.11.27-.1.63-.21.99-.09.31-.42.57-.52.91-.1.32-.13.67-.24.99-.12.33-.37.58-.52.87-.17.33-.14.76-.36.98-.26.25-.62.33-.97.31-.28-.01-.58-.13-.92-.38-.24-.16-.52-.36-.79-.65-.12-.3-.04-.68-.16-.98-.12-.3-.37-.55-.49-.85-.12-.3-.36-.55-.48-.85-.12-.3-.06-.67-.18-.97-.12-.3-.28-.58-.4-.88-.12-.3-.27-.58-.4-.88s-.41-.53-.53-.82-.11-.65-.23-.95c-.12-.3-.23-.6-.36-.9-.13-.3-.39-.54-.51-.83-.13-.3-.35-.55-.48-.85-.13-.3.03-.71-.1-1.01-.13-.3-.49-.49-.61-.79-.13-.3-.31-.57-.44-.87-.13-.3-.14-.64-.26-.94-.13-.3-.18-.62-.31-.92-.13-.3-.36-.55-.49-.84-.13-.3-.02-.69-.14-.99-.13-.3-.26-.59-.38-.89-.13-.3-.29-.57-.42-.87-.13-.3-.41-.53-.53-.83-.13-.3-.27-.59-.4-.88-.13-.3-.11-.65-.24-.95-.12-.3-.38-.54-.5-.84-.12-.3-.03-.69-.15-.99-.12-.3-.49-.49-.61-.79-.12-.3-.09-.66-.21-.96-.12-.3-.22-.61-.35-.9-.12-.3-.3-.57-.42-.87-.12-.3-.43-.52-.55-.82-.12-.3-.19-.62-.32-.92-.12-.3-.01-.69-.13-.99-.12-.3-.38-.54-.5-.85-.12-.3-.37-.55-.49-.85-.12-.3-.13-.65-.24-.95-.12-.3-.15-.63-.26-.94-.11-.3-.08-.66-.2-.96s-.56-.48-.68-.78c-.11-.3-.24-.6-.35-.9-.11-.3-.19-.62-.3-.92-.11-.3-.08-.66-.19-.96-.11-.3-.23-.6-.33-.91-.11-.3-.16-.63-.26-.93-.11-.3-.21-.61-.31-.91-.1-.3-.39-.55-.5-.85-.11-.33-.16-.68-.26-1.01-.11-.33-.03-.7-.08-1.04-.05-.33-.27-.72-.21-1.08.23-.11.6-.15.85-.28.25-.13.49-.23.75-.28.26-.05.37-.01.63.12.25.41.5.29.68.73.18.45.16.46.34.9.18.45.13.47.31.91.18.45.15.46.33.91.18.45.23.43.41.88.18.45.08.49.26.94.18.45.12.47.3.92.18.45.31.39.49.84.18.45.13.47.31.91.18.45.31.39.49.84.18.45-.03.53.15.98.18.45.38.37.56.81.18.45-.11.57.07,1.01.18.45.36.37.54.82.18.45.21.44.39.89.18.45.03.51.21.96.18.45.14.46.32.91.18.45.13.47.31.92.18.45.33.39.51.84.18.45.19.44.38.89.18.45.07.49.25.94.18.45.28.41.46.86.18.45.36.38.54.83.18.45-.1.56.08,1.01.18.45.46.34.64.78.18.45-.09.56.09,1.01.18.45.09.48.27.93.18.45.18.45.36.9.18.45.44.34.63.79.18.45.21.44.39.89.18.45-.01.52.17.97.18.45.38.37.56.81.18.45.04.5.22.95.18.45.35.38.53.83.18.45.03.51.21.96s.3.4.48.85c.18.45.08.49.26.94.18.45.12.47.3.92.18.45.15.46.33.91.18.45.25.42.43.87.18.45.24.43.42.88s.28.41.46.86c.18.45.08.5.19.98.12.5-.02.59.28.96"/><path d="M123.64,78.92c.18.37-.12.44-.07.85.05.41.15.39.13.8-.13.29-.02.66-.15.95-.13.29-.56.45-.69.74-.13.29.02.71-.11,1.01-.13.29-.57.44-.7.74-.13.29-.11.66-.24.95-.13.29-.41.52-.54.81-.13.29-.23.6-.36.89-.13.29-.27.58-.4.88-.13.29-.22.6-.35.9-.13.29-.34.55-.47.84-.13.29-.03.69-.16.98-.13.29-.32.56-.45.85-.13.29-.28.58-.41.87-.13.29-.36.54-.48.84-.13.29-.13.64-.26.94-.13.29-.16.63-.29.92-.13.29-.52.47-.65.77-.13.29.07.72-.06,1.02-.12.29-.31.57-.43.86-.13.29-.44.51-.57.8-.12.29-.11.65-.24.94s-.24.6-.36.89-.28.58-.4.87c-.12.29-.43.51-.55.81s-.12.65-.24.94c-.12.29-.17.62-.29.92-.12.29-.14.64-.26.93-.12.29-.43.51-.56.81-.12.29-.29.57-.41.87-.12.3-.1.65-.23.95-.12.29-.42.52-.55.81-.12.3-.34.55-.47.85s-.23.6-.35.89c-.12.29-.28.58-.4.87-.12.29-.24.59-.37.89s-.04.68-.16.97c-.12.3-.34.55-.47.85s-.29.57-.42.87c-.13.29-.27.58-.39.88-.13.29-.02.69-.14.99-.12.29-.33.56-.45.85-.13.29-.41.52-.53.82-.13.29-.27.58-.4.88-.13.29-.32.56-.44.85-.13.29-.07.67-.2.96-.13.29-.34.55-.47.85-.13.29-.04.68-.17.97-.13.29-.49.49-.62.78-.13.29-.03.69-.16.98-.13.29-.28.57-.41.87-.13.29-.55.46-.68.75-.13.29-.15.64-.28.93s-.06.68-.19.97c-.14.31-.38.57-.56.76-.23.25-.6.21-.86.29-.31.1-.49.05-.76-.07-.26-.12-.6-.13-.75-.43-.12-.24-.23-.56-.24-.9,0-.27.15-.57.23-.92.06-.28.11-.59.21-.91.09-.28.07-.62.18-.93.11-.28.42-.5.55-.79.12-.28.09-.63.22-.93.13-.28.35-.53.48-.82.13-.29.39-.51.53-.79.14-.28.21-.6.35-.88.14-.29.08-.66.22-.94.14-.29.37-.53.51-.8.14-.29.35-.54.48-.81.15-.3.36-.55.48-.82.15-.32.03-.71.14-.96.13-.3.48-.49.61-.79.13-.3.3-.57.42-.87.13-.3.07-.67.19-.97.13-.3.38-.54.51-.83.13-.29.07-.67.2-.97.13-.29.36-.54.49-.84.13-.29.27-.58.4-.88.13-.29.32-.56.45-.85.13-.29.31-.57.44-.86.13-.29.09-.66.22-.96.13-.29.16-.63.29-.92.13-.29.25-.59.38-.88.13-.29.38-.54.5-.83.13-.29.24-.6.37-.89.13-.29.17-.63.3-.92.13-.29.29-.57.42-.87.13-.29.16-.63.28-.93.13-.29.62-.43.75-.72.13-.29.03-.69.16-.98.13-.29.44-.51.57-.8.13-.29-.03-.71.1-1.01.13-.29.54-.46.67-.76.13-.29.2-.61.33-.91.13-.29.24-.6.37-.89.13-.29.08-.67.21-.96.13-.3.46-.51.58-.81.13-.3.07-.67.19-.97.12-.3.27-.59.39-.89.12-.3.21-.61.33-.91.12-.3.34-.56.45-.87.12-.3.31-.58.42-.88.12-.3.11-.65.23-.96.12-.3.47-.51.59-.82.12-.3.12-.65.24-.95.12-.3.35-.56.48-.86.12-.3.26-.6.38-.89.13-.3.04-.69.17-.98.13-.3.21-.62.34-.92.14-.29.33-.56.47-.85.15-.31.18-.67.32-.94.16-.32.42-.57.6-.81.21-.27.53-.4.83-.52.27-.11.58-.37.96-.32.28.03.61.27.97.4"/><path d="M89.81,142.96c.21.24.58.32.8.52.24.23.38.52.53.76.16.26.09.47.03.82-.05.24,0,.54-.21.86-.22.35-.56.53-.96.6-.39.07-.84.13-1.19.02-.2-.06-.39-.41-.73-.69-.22-.18-.42-.43-.68-.68-.22-.21-.61-.28-.85-.53-.22-.23-.34-.56-.57-.8-.22-.23-.5-.42-.72-.66-.22-.24-.3-.61-.52-.85-.22-.25-.41-.51-.62-.75-.22-.25-.53-.41-.74-.65-.22-.26-.43-.51-.63-.74-.23-.27-.57-.41-.77-.63-.26-.3-.26-.75-.43-.92-.22-.23-.72-.19-.94-.42-.22-.23-.18-.72-.4-.95-.22-.23-.57-.34-.79-.57-.22-.23-.5-.41-.72-.63-.22-.23-.45-.45-.67-.68-.22-.23-.46-.44-.69-.66s-.28-.62-.51-.85c-.23-.22-.43-.47-.66-.69-.23-.23-.7-.2-.92-.43-.23-.23-.35-.56-.57-.78-.23-.22-.59-.31-.81-.54-.23-.23-.41-.49-.64-.72-.23-.22-.24-.66-.47-.89-.23-.22-.69-.21-.92-.43-.23-.22-.32-.59-.54-.81-.23-.22-.34-.56-.57-.79-.23-.22-.7-.2-.93-.42-.23-.22-.31-.6-.54-.82-.23-.22-.46-.44-.69-.67-.23-.22-.42-.49-.64-.71-.23-.22-.48-.42-.71-.65-.23-.22-.64-.26-.87-.48-.23-.22-.42-.48-.65-.7-.23-.22-.24-.66-.47-.89-.23-.22-.65-.25-.87-.48-.23-.22-.28-.62-.51-.85-.23-.23-.48-.43-.7-.65-.23-.23-.57-.33-.8-.55-.23-.23-.26-.64-.48-.87-.22-.23-.71-.19-.94-.42-.22-.23-.46-.44-.69-.67-.22-.23-.25-.65-.47-.88s-.4-.5-.62-.73c-.22-.23-.44-.46-.67-.68-.22-.23-.7-.21-.92-.44s-.17-.72-.4-.95c-.11-.12-.66-.16-.96-.51-.22-.25-.31-.66-.52-.91-.32-.38-.54-.72-.59-.83-.17-.37-.31-.7-.28-1,.04-.37.32-.6.58-.83.25-.23.53-.31.89-.36.33-.05.72-.28,1.06-.14.3.12.66.34.91.63.22.24.38.52.6.76.22.24.32.58.55.81.22.23.57.35.79.58.22.23.4.5.63.74s.42.49.64.72c.22.23.5.41.73.64.22.23.25.65.48.88.23.23.58.33.81.56.22.23.47.44.69.67.23.23.48.43.7.66.23.23.45.46.68.68.23.23.49.42.71.65.23.23.4.51.63.74.23.23.38.53.61.75.23.23.46.45.69.68.23.23.62.29.85.52.23.23.41.5.64.73.23.23.28.63.51.86.23.23.69.21.93.44.23.23.22.69.46.92.23.22.59.32.82.54.23.22.36.56.59.78.23.23.41.5.64.73.23.22.71.2.94.42.23.23.34.58.57.8.23.23.39.52.62.75.23.23.56.35.78.58.23.23.53.39.75.61.23.23.49.43.72.65.23.23.27.64.5.87.23.23.64.27.86.5s.36.55.59.78c.23.23.41.5.63.73.23.23.54.37.77.6.23.23.36.55.59.77.22.23.4.51.62.74.22.23.58.33.81.56s.26.64.49.87c.22.23.59.33.81.56.22.23.4.5.63.74.22.23.33.57.55.81.22.23.51.4.73.64.22.24.45.46.67.7.22.24.56.36.78.6.22.24.43.48.64.72.22.24.22.67.43.91.22.24.47.45.68.69"/><path d="M145.07,108.37c.23.28.06.7.02,1.05-.04.3-.1.61-.28.93-.15.28-.44.47-.66.75-.21.26-.22.69-.46.94-.24.25-.65.31-.89.54-.26.25-.32.69-.56.9-.3.27-.62.43-.81.61-.23.21-.5.38-.73.59-.23.21-.49.39-.72.6-.23.21-.43.45-.66.66-.23.21-.42.46-.65.67-.23.21-.51.37-.74.58-.23.21-.37.52-.6.73-.23.21-.4.49-.63.7s-.62.25-.85.45c-.23.21-.37.52-.6.73-.23.21-.55.32-.78.53-.23.21-.48.39-.71.6-.23.21-.43.45-.66.66-.23.21-.37.51-.6.72-.23.21-.6.27-.82.49-.22.22-.2.69-.42.91-.22.22-.6.28-.82.5-.22.22-.26.61-.48.84-.22.22-.66.22-.88.45-.22.23-.47.42-.7.66-.21.23-.24.64-.46.87-.21.23-.58.32-.8.55-.21.23-.47.43-.69.66-.21.23-.28.6-.5.84-.21.24-.35.54-.56.78-.21.24-.5.41-.71.65-.21.24-.28.6-.49.84-.21.24-.47.43-.68.67-.21.24-.56.35-.77.59-.21.24-.48.42-.69.66-.21.24-.18.69-.39.93-.21.24-.68.25-.89.49-.21.24-.18.7-.39.93-.21.24-.65.28-.86.51-.21.24-.4.5-.62.73s-.34.55-.56.79c-.21.24-.5.41-.71.64-.22.24-.5.41-.72.64-.22.23-.22.67-.44.9-.22.23-.61.3-.83.53-.22.23-.41.49-.64.71-.23.23-.52.39-.74.62-.23.23-.4.51-.63.73-.23.22-.43.48-.66.7-.24.22-.45.45-.69.66-.24.21-.59.3-.83.51-.24.21-.48.42-.72.62-.25.21-.35.58-.6.77-.27.21-.54.43-.8.54-.32.14-.67,0-.95-.01-.34-.02-.57-.12-.77-.35-.18-.21-.18-.46-.19-.82-.01-.27-.11-.56,0-.91.04-.16.21-.44.51-.8.18-.21.46-.4.71-.67.2-.22.26-.61.5-.86.21-.22.62-.28.85-.52.22-.23.49-.41.72-.65.22-.22.33-.57.57-.8.23-.23.52-.39.75-.62.23-.23.43-.49.67-.71.24-.23.39-.54.62-.76.24-.23.54-.39.77-.61.24-.24.35-.59.58-.81.25-.24.54-.41.76-.62.26-.25.55-.42.75-.62.29-.29.39-.65.55-.82.22-.24.68-.24.9-.48.22-.24.39-.52.61-.75.22-.23.26-.64.48-.87.22-.24.64-.29.86-.52.22-.24.35-.56.57-.79s.34-.56.56-.8.52-.39.74-.63c.22-.23.36-.54.58-.77.22-.23.43-.47.65-.71.22-.24.47-.44.69-.67.22-.23.37-.53.59-.76.22-.23.7-.22.92-.46.22-.23.23-.66.45-.9.22-.23.48-.43.69-.66.22-.23.55-.36.77-.59.22-.23.38-.52.6-.75.22-.23.58-.33.8-.56.22-.23.22-.67.44-.9.22-.23.39-.51.61-.74.22-.23.7-.2.93-.43.22-.23.29-.6.52-.83.22-.23.52-.38.75-.6.22-.23.45-.45.68-.68.23-.23.45-.45.68-.68.23-.22.49-.41.72-.63.23-.22.48-.42.71-.64.23-.22.47-.43.7-.65.23-.22.4-.5.63-.72.23-.22.34-.57.57-.79.23-.22.57-.33.8-.55.23-.22.45-.46.69-.67.24-.22.5-.4.74-.62.17-.15.32-.46.58-.74.2-.21.54-.32.77-.57.21-.22.29-.58.51-.81.22-.22.58-.3.81-.51.23-.22.49-.39.73-.59.26-.21.45-.46.7-.62.29-.18.48-.55.75-.65.33-.11.7,0,.98.06.29.06.68.11.91.39"/></svg>