<?xml version="1.0" encoding="UTF-8"?><svg id="Layer_1" xmlns="http://www.w3.org/2000/svg" viewBox="0 0 200 200"><path d="M92.09,143.86c.38.15.97.34,1.39.47.41.14.83.3,1.25.38.43.08.87-.3,1.3-.33.42-.03.77-.06,1.17-.26.42-.21.96-.27,1.16-.64.21-.39-.02-.9-.06-1.33-.04-.43-.21-.72-.5-1.06-.26-.31-.4-.9-.87-1.02-.5-.13-.98.35-1.48.55-.46.18-1.15.06-1.56.42-.39.34-.45,1.02-.74,1.43-.32.46-.92.94-1.06,1.38M107.33,107.95c-.33.33-.58.73-.92,1.06-.33.33-.7.62-1.04.95-.33.32-.38.95-.72,1.28-.33.32-.71.61-1.05.93-.34.32-.92.39-1.26.71-.34.33-.44.89-.77,1.22-.34.33-.62.7-.96,1.03-.33.33-.97.36-1.3.69-.33.33-.35.97-.67,1.31-.33.34-1,.35-1.32.69-.32.34-.34.97-.65,1.32-.31.35-.74.6-1.05.95-.31.36-.7.64-1,1-.3.36-.51.8-.79,1.17-.29.37-.53.78-.81,1.15-.28.38-.45.83-.71,1.22-.26.39-.57.75-.81,1.15-.24.4-.46.82-.68,1.23-.22.4-.68.68-.88,1.1-.2.41-.33.86-.52,1.29-.19.42-.47.81-.64,1.24-.17.43-.07.96-.2,1.4-.14.44-.06.93-.17,1.37-.1.45-.3.87-.36,1.32-.06.46-.12.9-.13,1.36,0,.46-.08.92-.03,1.37.05.46.28.87.39,1.32.11.44.15.89.34,1.32.17.41.44.68.68,1.08.55.14.13-.04.28-.24.31-.39.85-.6,1.15-.98.31-.4.7-.69,1.04-1.04.35-.36.41-1.06.82-1.33.4-.27.94-.41,1.44-.54.44-.12.96,0,1.5.02.5.02,1.04-.17,1.5-.06.49.11.9.49,1.33.69.45.21.79.56,1.18.86.39.3.66.67.96,1.05.3.38.61.73.8,1.18.19.44.35.88.43,1.38.08.46.24.94.21,1.45-.03.51-.15,1.02-.36,1.45-.21.44-.49.9-.84,1.25-.34.34-.76.67-1.2.92-.43.25-.97.28-1.43.44-.48.16-.98.07-1.45.12-.48.05-.93.1-1.42.08-.48-.02-.97.11-1.45.02-.47-.08-.89-.37-1.35-.51-.46-.14-.96-.15-1.41-.35-.44-.2-.89-.38-1.31-.62-.42-.25-.78-.57-1.17-.86s-.86-.49-1.21-.83c-.35-.34-.74-.66-1.05-1.03-.31-.38-.31-.97-.57-1.38-.25-.41-.62-.75-.82-1.2-.2-.44-.3-.92-.43-1.38-.13-.46-.48-.9-.53-1.39-.05-.48.3-.98.29-1.45,0-.48.02-.93.05-1.41.04-.47.11-.93.19-1.4.08-.47.15-.92.26-1.39.11-.46-.12-1.02.02-1.47.14-.45.59-.8.76-1.24.17-.44.1-.98.3-1.42.2-.43.58-.77.8-1.2.22-.42.28-.93.52-1.34.23-.41.73-.66.99-1.07.25-.4.53-.78.79-1.18.26-.39.56-.75.84-1.14.27-.38.2-1.03.49-1.41.29-.38.88-.51,1.18-.89.3-.37.44-.86.75-1.23.3-.36.47-.85.78-1.21.31-.36.65-.7.96-1.05.32-.35.87-.5,1.19-.85.32-.35.58-.76.9-1.11.32-.35.75-.6,1.08-.94.33-.34.66-.68.99-1.02.33-.34.5-.85.83-1.19s.89-.46,1.22-.8c.34-.34.55-.8.89-1.13.34-.34.76-.59,1.1-.93.34-.34.42-.94.76-1.27.34-.34.74-.61,1.08-.94.34-.34.83-.52,1.17-.86.34-.34.72-.63,1.06-.96.34-.34.68-.68,1.01-1.01.34-.34.58-.77.91-1.11.34-.35.46-.89.78-1.23.33-.35.79-.57,1.1-.92.33-.36.62-.73.93-1.08.32-.36.76-.61,1.06-.97.31-.37.55-.79.84-1.15.3-.38.6-.75.87-1.12.28-.38.72-.66.99-1.06.26-.39.3-.94.55-1.34.25-.4.66-.72.89-1.13.24-.41.43-.85.65-1.28.22-.42.47-.84.67-1.27.21-.43.47-.84.66-1.27.19-.44.12-.98.3-1.43.17-.44.32-.89.48-1.34.16-.45.21-.93.35-1.38.14-.46.23-.92.35-1.38.12-.46.63-.82.74-1.29.11-.47.25-.93.34-1.4.09-.47.11-.96.17-1.43.06-.47-.04-.97,0-1.44.04-.48.26-.94.27-1.42.02-.48-.17-.96-.17-1.43,0-.48.1-.96.06-1.44-.04-.48-.21-.94-.28-1.41-.07-.47-.28-.91-.38-1.38-.1-.47-.21-.92-.33-1.38-.13-.46-.23-.92-.39-1.36-.16-.45-.04-1.01-.24-1.45-.19-.43-.81-.66-1.04-1.08-.22-.42-.21-.97-.47-1.37-.26-.4-.62-.72-.91-1.1-.29-.37-.69-.64-1.01-1-.31-.35-.55-.77-.9-1.11-.34-.32-.67-.67-1.04-.97-.36-.3-.82-.48-1.21-.76-.38-.27-.82-.46-1.23-.71-.4-.25-.77-.54-1.19-.77-.43-.23-.85-.45-1.3-.63-.45-.19-.83-.57-1.29-.71-.46-.14-.98-.07-1.46-.17-.47-.1-.91-.46-1.4-.52-.48-.05-.99.23-1.48.21-.48-.02-.96.04-1.45.05-.48.02-.98-.21-1.47-.16-.48.05-.98.04-1.46.12-.48.08-.87.58-1.35.68-.47.11-.97.08-1.44.22-.46.13-1.03-.02-1.49.14-.46.16-.78.68-1.24.86-.45.18-.87.4-1.32.61-.44.2-1,.16-1.43.39-.43.22-.9.4-1.32.64-.42.24-.73.67-1.14.94-.41.26-.82.53-1.21.81-.4.29-.92.41-1.29.71-.38.31-.55.86-.92,1.18-.37.32-.77.6-1.11.94-.35.34-.69.68-1.01,1.04-.33.36-.72.67-1.02,1.05-.31.38-.75.67-1.02,1.07-.28.41-.47.88-.71,1.29-.2.35-.28.95-.51,1.51-.19.47-.34,1-.57,1.48-.24.51-.65.89-.95,1.26-.38.46-.74.81-1.25.78-.64-.04-1.19-.17-1.42-.52-.24-.37.06-.94.13-1.49.05-.45.15-.91.31-1.39.16-.47.26-.97.46-1.39.25-.54.63-.93.79-1.24.23-.42.43-.84.68-1.25.25-.4.43-.85.71-1.24.28-.39.32-.97.62-1.34.3-.37.84-.55,1.16-.91.32-.35.73-.62,1.07-.96.34-.34.63-.72.98-1.04.35-.32.77-.56,1.14-.87.37-.31.51-.9.89-1.19.38-.29.98-.28,1.38-.55.39-.27.61-.81,1.02-1.07.41-.26.8-.55,1.21-.79.42-.24.86-.44,1.29-.66.43-.22.99-.17,1.42-.37.44-.2.86-.4,1.31-.59s.88-.36,1.33-.52c.45-.16.91-.29,1.37-.43.46-.14.88-.41,1.34-.53.46-.12.9-.36,1.37-.46.47-.1.98,0,1.45-.07.48-.07.94-.25,1.41-.3.48-.05.97.08,1.45.06.48-.02.96-.36,1.44-.35.48,0,.95.37,1.42.4.48.03.97-.06,1.44,0,.48.07.92.28,1.39.38.47.1,1-.06,1.46.08.46.13.92.3,1.37.47.45.17.82.54,1.25.74.43.2.96.22,1.38.46.42.23.88.42,1.28.69.41.27.83.54,1.21.83.39.3.62.79.99,1.1.37.32.73.65,1.07.98.35.34.85.54,1.17.9.33.36.58.8.88,1.18.31.38.66.74.93,1.13.28.4.38.92.63,1.33.25.42.32.92.54,1.35.22.43.57.79.76,1.24.19.45.27.93.43,1.39.17.46.5.85.64,1.32.14.46.14.96.25,1.44.11.47.33.92.41,1.4.08.48.3.94.36,1.42.06.48.08.97.11,1.46.03.48-.25.98-.24,1.47,0,.48.15.97.14,1.45-.01.48-.15.96-.19,1.44-.04.48-.07.96-.13,1.44-.06.48.02.98-.06,1.46-.08.48-.16.96-.26,1.43-.1.47-.34.92-.46,1.39-.12.47.08,1.03-.06,1.49-.13.47-.34.92-.5,1.38-.15.46-.26.94-.43,1.4-.17.46-.61.81-.8,1.26-.18.45-.4.88-.6,1.32-.21.46-.25.98-.47,1.42-.22.45-.47.88-.71,1.31-.24.44-.64.78-.89,1.2-.26.43-.4.92-.68,1.33-.27.42-.64.76-.93,1.16-.29.4-.51.86-.81,1.25-.3.39-.57.81-.88,1.19-.31.38-.69.71-1.01,1.09-.32.38-.69.7-1.02,1.07-.33.37-.56.82-.9,1.19-.34.36-.69.7-1.04,1.06-.34.35-.59.8-.94,1.16-.34.35-.68.71-1.03,1.06-.35.35-.66.73-1.02,1.09-.35.35-1.04.35-1.4.71"/><path d="M92.09,143.86c.38.15.97.34,1.39.47.41.14.83.3,1.25.38.43.08.87-.3,1.3-.33.42-.03.77-.06,1.17-.26.42-.21.96-.27,1.16-.64.21-.39-.02-.9-.06-1.33-.04-.43-.21-.72-.5-1.06-.26-.31-.4-.9-.87-1.02-.5-.13-.98.35-1.48.55-.46.18-1.15.06-1.56.42-.39.34-.45,1.02-.74,1.43-.32.46-.92.94-1.06,1.38M107.33,107.95c-.33.33-.58.73-.92,1.06-.33.33-.7.62-1.04.95-.33.32-.38.95-.72,1.28-.33.32-.71.61-1.05.93-.34.32-.92.39-1.26.71-.34.33-.44.89-.77,1.22-.34.33-.62.7-.96,1.03-.33.33-.97.36-1.3.69-.33.33-.35.97-.67,1.31-.33.34-1,.35-1.32.69-.32.34-.34.97-.65,1.32-.31.35-.74.6-1.05.95-.31.36-.7.64-1,1-.3.36-.51.8-.79,1.17-.29.37-.53.78-.81,1.15-.28.38-.45.83-.71,1.22-.26.39-.57.75-.81,1.15-.24.4-.46.82-.68,1.23-.22.4-.68.68-.88,1.1-.2.41-.33.86-.52,1.29-.19.42-.47.81-.64,1.24-.17.43-.07.96-.2,1.4-.14.44-.06.93-.17,1.37-.1.45-.3.87-.36,1.32-.06.46-.12.9-.13,1.36,0,.46-.08.92-.03,1.37.05.46.28.87.39,1.32.11.44.15.89.34,1.32.17.41.44.68.68,1.08.55.14.13-.04.28-.24.31-.39.85-.6,1.15-.98.31-.4.7-.69,1.04-1.04.35-.36.41-1.06.82-1.33.4-.27.94-.41,1.44-.54.44-.12.96,0,1.5.02.5.02,1.04-.17,1.5-.06.49.11.9.49,1.33.69.45.21.79.56,1.18.86.39.3.66.67.96,1.05.3.38.61.73.8,1.18.19.44.35.88.43,1.38.08.46.24.94.21,1.45-.03.51-.15,1.02-.36,1.45-.21.44-.49.9-.84,1.25-.34.34-.76.67-1.2.92-.43.25-.97.28-1.43.44-.48.16-.98.07-1.45.12-.48.05-.93.1-1.42.08-.48-.02-.97.11-1.45.02-.47-.08-.89-.37-1.35-.51-.46-.14-.96-.15-1.41-.35-.44-.2-.89-.38-1.31-.62-.42-.25-.78-.57-1.17-.86s-.86-.49-1.21-.83c-.35-.34-.74-.66-1.05-1.03-.31-.38-.31-.97-.57-1.38-.25-.41-.62-.75-.82-1.2-.2-.44-.3-.92-.43-1.38-.13-.46-.48-.9-.53-1.39-.05-.48.3-.98.29-1.45,0-.48.02-.93.05-1.41.04-.47.11-.93.19-1.4.08-.47.15-.92.26-1.39.11-.46-.12-1.02.02-1.47.14-.45.59-.8.76-1.24.17-.44.1-.98.3-1.42.2-.43.58-.77.8-1.2.22-.42.28-.93.52-1.34.23-.41.73-.66.99-1.07.25-.4.53-.78.79-1.18.26-.39.56-.75.84-1.14.27-.38.2-1.03.49-1.41.29-.38.88-.51,1.18-.89.3-.37.44-.86.75-1.23.3-.36.47-.85.78-1.21.31-.36.65-.7.96-1.05.32-.35.87-.5,1.19-.85.32-.35.58-.76.9-1.11.32-.35.75-.6,1.08-.94.33-.34.66-.68.99-1.02.33-.34.5-.85.83-1.19s.89-.46,1.22-.8c.34-.34.55-.8.89-1.13.34-.34.76-.59,1.1-.93.34-.34.42-.94.76-1.27.34-.34.74-.61,1.08-.94.34-.34.83-.52,1.17-.86.34-.34.72-.63,1.06-.96.34-.34.68-.68,1.01-1.01.34-.34.58-.77.91-1.11.34-.35.46-.89.78-1.23.33-.35.79-.57,1.1-.92.33-.36.62-.73.93-1.08.32-.36.76-.61,1.06-.97.31-.37.55-.79.84-1.15.3-.38.6-.75.87-1.12.28-.38.72-.66.99-1.06.26-.39.3-.94.55-1.34.25-.4.66-.72.89-1.13.24-.41.43-.85.65-1.28.22-.42.47-.84.67-1.27.21-.43.47-.84.66-1.27.19-.44.12-.98.3-1.43.17-.44.32-.89.48-1.34.16-.45.21-.93.35-1.38.14-.46.23-.92.35-1.38.12-.46.63-.82.74-1.29.11-.47.25-.93.34-1.4.09-.47.11-.96.17-1.43.06-.47-.04-.97,0-1.44.04-.48.26-.94.27-1.42.02-.48-.17-.96-.17-1.43,0-.48.1-.96.06-1.44-.04-.48-.21-.94-.28-1.41-.07-.47-.28-.91-.38-1.38-.1-.47-.21-.92-.33-1.38-.13-.46-.23-.92-.39-1.36-.16-.45-.04-1.01-.24-1.45-.19-.43-.81-.66-1.04-1.08-.22-.42-.21-.97-.47-1.37-.26-.4-.62-.72-.91-1.1-.29-.37-.69-.64-1.01-1-.31-.35-.55-.77-.9-1.11-.34-.32-.67-.67-1.04-.97-.36-.3-.82-.48-1.21-.76-.38-.27-.82-.46-1.23-.71-.4-.25-.77-.54-1.19-.77-.43-.23-.85-.45-1.3-.63-.45-.19-.83-.57-1.29-.71-.46-.14-.98-.07-1.46-.17-.47-.1-.91-.46-1.4-.52-.48-.05-.99.23-1.48.21-.48-.02-.96.04-1.45.05-.48.02-.98-.21-1.47-.16-.48.05-.98.04-1.46.12-.48.08-.87.58-1.35.68-.47.11-.97.08-1.44.22-.46.13-1.03-.02-1.49.14-.46.16-.78.68-1.24.86-.45.18-.87.4-1.32.61-.44.2-1,.16-1.43.39-.43.22-.9.4-1.32.64-.42.24-.73.67-1.14.94-.41.26-.82.53-1.21.81-.4.29-.92.41-1.29.71-.38.31-.55.86-.92,1.18-.37.32-.77.6-1.11.94-.35.34-.69.68-1.01,1.04-.33.36-.72.67-1.02,1.05-.31.38-.75.67-1.02,1.07-.28.41-.47.88-.71,1.29-.2.35-.28.95-.51,1.51-.19.47-.34,1-.57,1.48-.24.51-.65.89-.95,1.26-.38.46-.74.81-1.25.78-.64-.04-1.19-.17-1.42-.52-.24-.37.06-.94.13-1.49.05-.45.15-.91.31-1.39.16-.47.26-.97.46-1.39.25-.54.63-.93.79-1.24.23-.42.43-.84.68-1.25.25-.4.43-.85.71-1.24.28-.39.32-.97.62-1.34.3-.37.84-.55,1.16-.91.32-.35.73-.62,1.07-.96.34-.34.63-.72.98-1.04.35-.32.77-.56,1.14-.87.37-.31.51-.9.89-1.19.38-.29.98-.28,1.38-.55.39-.27.61-.81,1.02-1.07.41-.26.8-.55,1.21-.79.42-.24.86-.44,1.29-.66.43-.22.99-.17,1.42-.37.44-.2.86-.4,1.31-.59s.88-.36,1.33-.52c.45-.16.91-.29,1.37-.43.46-.14.88-.41,1.34-.53.46-.12.9-.36,1.37-.46.47-.1.98,0,1.45-.07.48-.07.94-.25,1.41-.3.48-.05.97.08,1.45.06.48-.02.96-.36,1.44-.35.48,0,.95.37,1.42.4.48.03.97-.06,1.44,0,.48.07.92.28,1.39.38.47.1,1-.06,1.46.08.46.13.92.3,1.37.47.45.17.82.54,1.25.74.43.2.96.22,1.38.46.42.23.88.42,1.28.69.41.27.83.54,1.21.83.39.3.62.79.99,1.1.37.32.73.65,1.07.98.35.34.85.54,1.17.9.33.36.58.8.88,1.18.31.38.66.74.93,1.13.28.4.38.92.63,1.33.25.42.32.92.54,1.35.22.43.57.79.76,1.24.19.45.27.93.43,1.39.17.46.5.85.64,1.32.14.46.14.96.25,1.44.11.47.33.92.41,1.4.08.48.3.94.36,1.42.06.48.08.97.11,1.46.03.48-.25.98-.24,1.47,0,.48.15.97.14,1.45-.01.48-.15.96-.19,1.44-.04.48-.07.96-.13,1.44-.06.48.02.98-.06,1.46-.08.48-.16.96-.26,1.43-.1.47-.34.92-.46,1.39-.12.47.08,1.03-.06,1.49-.13.47-.34.92-.5,1.38-.15.46-.26.94-.43,1.4-.17.46-.61.81-.8,1.26-.18.45-.4.88-.6,1.32-.21.46-.25.98-.47,1.42-.22.45-.47.88-.71,1.31-.24.44-.64.78-.89,1.2-.26.43-.4.92-.68,1.33-.27.42-.64.76-.93,1.16-.29.4-.51.86-.81,1.25-.3.39-.57.81-.88,1.19-.31.38-.69.71-1.01,1.09-.32.38-.69.7-1.02,1.07-.33.37-.56.82-.9,1.19-.34.36-.69.7-1.04,1.06-.34.35-.59.8-.94,1.16-.34.35-.68.71-1.03,1.06-.35.35-.66.73-1.02,1.09-.35.35-1.04.35-1.4.71"/><path d="M92.09,143.86c.38.15.97.34,1.39.47.41.14.83.3,1.25.38.43.08.87-.3,1.3-.33.42-.03.77-.06,1.17-.26.42-.21.96-.27,1.16-.64.21-.39-.02-.9-.06-1.33-.04-.43-.21-.72-.5-1.06-.26-.31-.4-.9-.87-1.02-.5-.13-.98.35-1.48.55-.46.18-1.15.06-1.56.42-.39.34-.45,1.02-.74,1.43-.32.46-.92.94-1.06,1.38M107.33,107.95c-.33.33-.58.73-.92,1.06-.33.33-.7.62-1.04.95-.33.32-.38.95-.72,1.28-.33.32-.71.61-1.05.93-.34.32-.92.39-1.26.71-.34.33-.44.89-.77,1.22-.34.33-.62.7-.96,1.03-.33.33-.97.36-1.3.69-.33.33-.35.97-.67,1.31-.33.34-1,.35-1.32.69-.32.34-.34.97-.65,1.32-.31.35-.74.6-1.05.95-.31.36-.7.64-1,1-.3.36-.51.8-.79,1.17-.29.37-.53.78-.81,1.15-.28.38-.45.83-.71,1.22-.26.39-.57.75-.81,1.15-.24.4-.46.82-.68,1.23-.22.4-.68.68-.88,1.1-.2.41-.33.86-.52,1.29-.19.42-.47.81-.64,1.24-.17.43-.07.96-.2,1.4-.14.44-.06.93-.17,1.37-.1.45-.3.87-.36,1.32-.06.46-.12.9-.13,1.36,0,.46-.08.92-.03,1.37.05.46.28.87.39,1.32.11.44.15.89.34,1.32.17.41.44.68.68,1.08.55.14.13-.04.28-.24.31-.39.85-.6,1.15-.98.31-.4.7-.69,1.04-1.04.35-.36.41-1.06.82-1.33.4-.27.94-.41,1.44-.54.44-.12.96,0,1.5.02.5.02,1.04-.17,1.5-.06.49.11.9.49,1.33.69.45.21.79.56,1.18.86.39.3.66.67.96,1.05.3.38.61.73.8,1.18.19.44.35.88.43,1.38.08.46.24.94.21,1.45-.03.51-.15,1.02-.36,1.45-.21.44-.49.9-.84,1.25-.34.34-.76.67-1.2.92-.43.25-.97.28-1.43.44-.48.16-.98.07-1.45.12-.48.05-.93.1-1.42.08-.48-.02-.97.11-1.45.02-.47-.08-.89-.37-1.35-.51-.46-.14-.96-.15-1.41-.35-.44-.2-.89-.38-1.31-.62-.42-.25-.78-.57-1.17-.86s-.86-.49-1.21-.83c-.35-.34-.74-.66-1.05-1.03-.31-.38-.31-.97-.57-1.38-.25-.41-.62-.75-.82-1.2-.2-.44-.3-.92-.43-1.38-.13-.46-.48-.9-.53-1.39-.05-.48.3-.98.29-1.45,0-.48.02-.93.05-1.41.04-.47.11-.93.19-1.4.08-.47.15-.92.26-1.39.11-.46-.12-1.02.02-1.47.14-.45.59-.8.76-1.24.17-.44.1-.98.3-1.42.2-.43.58-.77.8-1.2.22-.42.28-.93.52-1.34.23-.41.73-.66.99-1.07.25-.4.53-.78.79-1.18.26-.39.56-.75.84-1.14.27-.38.2-1.03.49-1.41.29-.38.88-.51,1.18-.89.3-.37.44-.86.75-1.23.3-.36.47-.85.78-1.21.31-.36.65-.7.96-1.05.32-.35.87-.5,1.19-.85.32-.35.58-.76.9-1.11.32-.35.75-.6,1.08-.94.33-.34.66-.68.99-1.02.33-.34.5-.85.83-1.19s.89-.46,1.22-.8c.34-.34.55-.8.89-1.13.34-.34.76-.59,1.1-.93.34-.34.42-.94.76-1.27.34-.34.74-.61,1.08-.94.34-.34.83-.52,1.17-.86.34-.34.72-.63,1.06-.96.34-.34.68-.68,1.01-1.01.34-.34.58-.77.91-1.11.34-.35.46-.89.78-1.23.33-.35.79-.57,1.1-.92.33-.36.62-.73.93-1.08.32-.36.76-.61,1.06-.97.31-.37.55-.79.84-1.15.3-.38.6-.75.87-1.12.28-.38.72-.66.99-1.06.26-.39.3-.94.55-1.34.25-.4.66-.72.89-1.13.24-.41.43-.85.65-1.28.22-.42.47-.84.67-1.27.21-.43.47-.84.66-1.27.19-.44.12-.98.3-1.43.17-.44.32-.89.48-1.34.16-.45.21-.93.35-1.38.14-.46.23-.92.35-1.38.12-.46.63-.82.74-1.29.11-.47.25-.93.34-1.4.09-.47.11-.96.17-1.43.06-.47-.04-.97,0-1.44.04-.48.26-.94.27-1.42.02-.48-.17-.96-.17-1.43,0-.48.1-.96.06-1.44-.04-.48-.21-.94-.28-1.41-.07-.47-.28-.91-.38-1.38-.1-.47-.21-.92-.33-1.38-.13-.46-.23-.92-.39-1.36-.16-.45-.04-1.01-.24-1.45-.19-.43-.81-.66-1.04-1.08-.22-.42-.21-.97-.47-1.37-.26-.4-.62-.72-.91-1.1-.29-.37-.69-.64-1.01-1-.31-.35-.55-.77-.9-1.11-.34-.32-.67-.67-1.04-.97-.36-.3-.82-.48-1.21-.76-.38-.27-.82-.46-1.23-.71-.4-.25-.77-.54-1.19-.77-.43-.23-.85-.45-1.3-.63-.45-.19-.83-.57-1.29-.71-.46-.14-.98-.07-1.46-.17-.47-.1-.91-.46-1.4-.52-.48-.05-.99.23-1.48.21-.48-.02-.96.04-1.45.05-.48.02-.98-.21-1.47-.16-.48.05-.98.04-1.46.12-.48.08-.87.58-1.35.68-.47.11-.97.08-1.44.22-.46.13-1.03-.02-1.49.14-.46.16-.78.68-1.24.86-.45.18-.87.4-1.32.61-.44.2-1,.16-1.43.39-.43.22-.9.4-1.32.64-.42.24-.73.67-1.14.94-.41.26-.82.53-1.21.81-.4.29-.92.41-1.29.71-.38.31-.55.86-.92,1.18-.37.32-.77.6-1.11.94-.35.34-.69.68-1.01,1.04-.33.36-.72.67-1.02,1.05-.31.38-.75.67-1.02,1.07-.28.41-.47.88-.71,1.29-.2.35-.28.95-.51,1.51-.19.47-.34,1-.57,1.48-.24.51-.65.89-.95,1.26-.38.46-.74.81-1.25.78-.64-.04-1.19-.17-1.42-.52-.24-.37.06-.94.13-1.49.05-.45.15-.91.31-1.39.16-.47.26-.97.46-1.39.25-.54.63-.93.79-1.24.23-.42.43-.84.68-1.25.25-.4.43-.85.71-1.24.28-.39.32-.97.62-1.34.3-.37.84-.55,1.16-.91.32-.35.73-.62,1.07-.96.34-.34.63-.72.98-1.04.35-.32.77-.56,1.14-.87.37-.31.51-.9.89-1.19.38-.29.98-.28,1.38-.55.39-.27.61-.81,1.02-1.07.41-.26.8-.55,1.21-.79.42-.24.86-.44,1.29-.66.43-.22.99-.17,1.42-.37.44-.2.86-.4,1.31-.59s.88-.36,1.33-.52c.45-.16.91-.29,1.37-.43.46-.14.88-.41,1.34-.53.46-.12.9-.36,1.37-.46.47-.1.98,0,1.45-.07.48-.07.94-.25,1.41-.3.48-.05.97.08,1.45.06.48-.02.96-.36,1.44-.35.48,0,.95.37,1.42.4.48.03.97-.06,1.44,0,.48.07.92.28,1.39.38.47.1,1-.06,1.46.08.46.13.92.3,1.37.47.45.17.82.54,1.25.74.43.2.96.22,1.38.46.42.23.88.42,1.28.69.41.27.83.54,1.21.83.39.3.62.79.99,1.1.37.32.73.65,1.07.98.35.34.85.54,1.17.9.33.36.58.8.88,1.18.31.38.66.74.93,1.13.28.4.38.92.63,1.33.25.42.32.92.54,1.35.22.43.57.79.76,1.24.19.45.27.93.43,1.39.17.46.5.85.64,1.32.14.46.14.96.25,1.44.11.47.33.92.41,1.4.08.48.3.94.36,1.42.06.48.08.97.11,1.46.03.48-.25.98-.24,1.47,0,.48.15.97.14,1.45-.01.48-.15.96-.19,1.44-.04.48-.07.96-.13,1.44-.06.48.02.98-.06,1.46-.08.48-.16.96-.26,1.43-.1.47-.34.92-.46,1.39-.12.47.08,1.03-.06,1.49-.13.47-.34.92-.5,1.38-.15.46-.26.94-.43,1.4-.17.46-.61.81-.8,1.26-.18.45-.4.88-.6,1.32-.21.46-.25.98-.47,1.42-.22.45-.47.88-.71,1.31-.24.44-.64.78-.89,1.2-.26.43-.4.92-.68,1.33-.27.42-.64.76-.93,1.16-.29.4-.51.86-.81,1.25-.3.39-.57.81-.88,1.19-.31.38-.69.71-1.01,1.09-.32.38-.69.7-1.02,1.07-.33.37-.56.82-.9,1.19-.34.36-.69.7-1.04,1.06-.34.35-.59.8-.94,1.16-.34.35-.68.71-1.03,1.06-.35.35-.66.73-1.02,1.09-.35.35-1.04.35-1.4.71"/></svg>