<?xml version="1.0" encoding="UTF-8"?><svg id="Layer_1" xmlns="http://www.w3.org/2000/svg" viewBox="0 0 200 200"><path d="M65.47,104.4c-.42-.43-.57-.84-.4-1.39.16-.54.43-1,1.06-1.12.4.1.98.31,1.64.26.5-.03,1.02-.54,1.58-.61.54-.06,1.14.29,1.67.25.59-.05,1.13-.52,1.62-.5.69.03,1.33.26,1.62.56.5.52.46,1.19.26,1.68-.21.49-.74.65-1.37.8-.28.07-.82.2-1.54.26-.48.04-1.02,0-1.59.02-.53.02-1.06.04-1.59.05-.57,0-1.13.4-1.6.37-.79-.05-1.18-.46-1.35-.63"/><path d="M65.47,104.4c-.42-.43-.57-.84-.4-1.39.16-.54.43-1,1.06-1.12.4.1.98.31,1.64.26.5-.03,1.02-.54,1.58-.61.54-.06,1.14.29,1.67.25.59-.05,1.13-.52,1.62-.5.69.03,1.33.26,1.62.56.5.52.46,1.19.26,1.68-.21.49-.74.65-1.37.8-.28.07-.82.2-1.54.26-.48.04-1.02,0-1.59.02-.53.02-1.06.04-1.59.05-.57,0-1.13.4-1.6.37-.79-.05-1.18-.46-1.35-.63"/><path d="M128.09,97.81c.3-.05.84-.22,1.48-.24.46-.02.98.07,1.5.07.52,0,1.04-.19,1.5-.18.66.03,1.22.25,1.48.34.6.19.84.74.93,1.25.09.51-.18.89-.58,1.32-.33.35-.6,1.01-1.25,1.06-.24.02-.8-.16-1.46-.17-.45,0-.95.2-1.45.18-.5-.02-1-.19-1.44-.22-.69-.04-1.3.02-1.49-.04-.58-.18-1.03-.77-1.15-1.23-.12-.48.32-.92.72-1.33.3-.32.6-.72,1.22-.81"/><path d="M128.09,97.81c.3-.05.84-.22,1.48-.24.46-.02.98.07,1.5.07.52,0,1.04-.19,1.5-.18.66.03,1.22.25,1.48.34.6.19.84.74.93,1.25.09.51-.18.89-.58,1.32-.33.35-.6,1.01-1.25,1.06-.24.02-.8-.16-1.46-.17-.45,0-.95.2-1.45.18-.5-.02-1-.19-1.44-.22-.69-.04-1.3.02-1.49-.04-.58-.18-1.03-.77-1.15-1.23-.12-.48.32-.92.72-1.33.3-.32.6-.72,1.22-.81"/><path d="M104.22,66.14c.16.2.09.92.15,1.73.04.51.32,1.09.33,1.68.01.58-.11,1.17-.12,1.69,0,.74-.34,1.35-.36,1.66-.03.4.19,1.07.06,1.73-.11.58-.27,1.2-.53,1.65-.31.56-.76.67-1.39.54-.33-.07-.45-.27-.65-.65-.19-.37-.76-.67-.8-.96-.04-.31.02-.91,0-1.6-.02-.48.18-1.02.17-1.58,0-.52-.21-1.06-.21-1.58,0-.56-.11-1.11-.1-1.59.02-.71.18-1.29.23-1.59.08-.4.51-.72.85-1,.33-.28.7-.72,1.12-.75.41-.02.92.25,1.25.61"/><path d="M104.22,66.14c.16.2.09.92.15,1.73.04.51.32,1.09.33,1.68.01.58-.11,1.17-.12,1.69,0,.74-.34,1.35-.36,1.66-.03.4.19,1.07.06,1.73-.11.58-.27,1.2-.53,1.65-.31.56-.76.67-1.39.54-.33-.07-.45-.27-.65-.65-.19-.37-.76-.67-.8-.96-.04-.31.02-.91,0-1.6-.02-.48.18-1.02.17-1.58,0-.52-.21-1.06-.21-1.58,0-.56-.11-1.11-.1-1.59.02-.71.18-1.29.23-1.59.08-.4.51-.72.85-1,.33-.28.7-.72,1.12-.75.41-.02.92.25,1.25.61"/><path d="M103.62,125.01c.31.46.56.75.69,1.26.13.51.43,1.03.45,1.57.02.53-.38,1.07-.4,1.6-.02.54.32,1.07.33,1.59,0,.57.11,1.11.17,1.68.05.54-.29,1-.56,1.59-.44.12-.84.13-1.29.16-.47.03-.71.03-1.06-.39-.19-.23-.55-.62-.66-1.33-.07-.46-.22-.99-.25-1.55-.03-.5.18-1.04.18-1.57s.08-1.05.11-1.56c.04-.57,0-1.09.08-1.56.11-.69.1-1.46.31-1.71.87-.29.98.1,1.91.22"/><path d="M103.62,125.01c.31.46.56.75.69,1.26.13.51.43,1.03.45,1.57.02.53-.38,1.07-.4,1.6-.02.54.32,1.07.33,1.59,0,.57.11,1.11.17,1.68.05.54-.29,1-.56,1.59-.44.12-.84.13-1.29.16-.47.03-.71.03-1.06-.39-.19-.23-.55-.62-.66-1.33-.07-.46-.22-.99-.25-1.55-.03-.5.18-1.04.18-1.57s.08-1.05.11-1.56c.04-.57,0-1.09.08-1.56.11-.69.1-1.46.31-1.71.87-.29.98.1,1.91.22"/><path d="M104.67,98.8c.06.03.48,1.14.53,1.27.15.38.6.71.65,1.16.04.43.13.93.05,1.35-.08.44-.27.93-.49,1.28-.11.18-.87.09-1.4.26-.52.17-1,.31-1.21.33-.55.04-1.05.28-1.45.12-.49-.18-.86-.57-1.14-.94-.29-.39-.55-.86-.61-1.35-.06-.47.36-.89.53-1.36.16-.44.02-1.11.38-1.46.33-.31.86-.51,1.35-.69.42-.14.93-.14,1.46-.14.32,0,1.14.02,1.36.15"/><path d="M104.67,98.8c.06.03.48,1.14.53,1.27.15.38.6.71.65,1.16.04.43.13.93.05,1.35-.08.44-.27.93-.49,1.28-.11.18-.87.09-1.4.26-.52.17-1,.31-1.21.33-.55.04-1.05.28-1.45.12-.49-.18-.86-.57-1.14-.94-.29-.39-.55-.86-.61-1.35-.06-.47.36-.89.53-1.36.16-.44.02-1.11.38-1.46.33-.31.86-.51,1.35-.69.42-.14.93-.14,1.46-.14.32,0,1.14.02,1.36.15"/><path d="M65.47,104.4c-.42-.43-.57-.84-.4-1.39.16-.54.43-1,1.06-1.12.4.1.98.31,1.64.26.5-.03,1.02-.54,1.58-.61.54-.06,1.14.29,1.67.25.59-.05,1.13-.52,1.62-.5.69.03,1.33.26,1.62.56.5.52.46,1.19.26,1.68-.21.49-.74.65-1.37.8-.28.07-.82.2-1.54.26-.48.04-1.02,0-1.59.02-.53.02-1.06.04-1.59.05-.57,0-1.13.4-1.6.37-.79-.05-1.18-.46-1.35-.63"/><path d="M128.09,97.81c.3-.05.84-.22,1.48-.24.46-.02.98.07,1.5.07.52,0,1.04-.19,1.5-.18.66.03,1.22.25,1.48.34.6.19.84.74.93,1.25.09.51-.18.89-.58,1.32-.33.35-.6,1.01-1.25,1.06-.24.02-.8-.16-1.46-.17-.45,0-.95.2-1.45.18-.5-.02-1-.19-1.44-.22-.69-.04-1.3.02-1.49-.04-.58-.18-1.03-.77-1.15-1.23-.12-.48.32-.92.72-1.33.3-.32.6-.72,1.22-.81"/><path d="M104.22,66.14c.16.2.09.92.15,1.73.04.51.32,1.09.33,1.68.01.58-.11,1.17-.12,1.69,0,.74-.34,1.35-.36,1.66-.03.4.19,1.07.06,1.73-.11.58-.27,1.2-.53,1.65-.31.56-.76.67-1.39.54-.33-.07-.45-.27-.65-.65-.19-.37-.76-.67-.8-.96-.04-.31.02-.91,0-1.6-.02-.48.18-1.02.17-1.58,0-.52-.21-1.06-.21-1.58,0-.56-.11-1.11-.1-1.59.02-.71.18-1.29.23-1.59.08-.4.51-.72.85-1,.33-.28.7-.72,1.12-.75.41-.02.92.25,1.25.61"/><path d="M103.62,125.01c.31.46.56.75.69,1.26.13.51.43,1.03.45,1.57.02.53-.38,1.07-.4,1.6-.02.54.32,1.07.33,1.59,0,.57.11,1.11.17,1.68.05.54-.29,1-.56,1.59-.44.12-.84.13-1.29.16-.47.03-.71.03-1.06-.39-.19-.23-.55-.62-.66-1.33-.07-.46-.22-.99-.25-1.55-.03-.5.18-1.04.18-1.57s.08-1.05.11-1.56c.04-.57,0-1.09.08-1.56.11-.69.1-1.46.31-1.71.87-.29.98.1,1.91.22"/><path d="M104.67,98.8c.06.03.48,1.14.53,1.27.15.38.6.71.65,1.16.04.43.13.93.05,1.35-.08.44-.27.93-.49,1.28-.11.18-.87.09-1.4.26-.52.17-1,.31-1.21.33-.55.04-1.05.28-1.45.12-.49-.18-.86-.57-1.14-.94-.29-.39-.55-.86-.61-1.35-.06-.47.36-.89.53-1.36.16-.44.02-1.11.38-1.46.33-.31.86-.51,1.35-.69.42-.14.93-.14,1.46-.14.32,0,1.14.02,1.36.15"/></svg>