<?xml version="1.0" encoding="UTF-8"?><svg id="Layer_1" xmlns="http://www.w3.org/2000/svg" viewBox="0 0 200 200"><path d="M100.67,66.47c-.18.22-.64.62-1.26.87-.42.17-1.04-.03-1.53.14-.48.16-.92.45-1.36.6-.58.2-1.15.24-1.45.38-.43.21-.8.56-1.2.81-.4.25-.86.46-1.23.75-.37.29-.52.85-.87,1.18-.35.32-.8.54-1.13.89-.32.35-.61.73-.9,1.11-.29.38-.44.85-.71,1.24-.26.4-.85.6-1.09,1.01s-.18.99-.39,1.42c-.21.43-.69.74-.87,1.18-.18.44-.27.93-.42,1.38-.15.46-.02.99-.14,1.45-.12.47-.44.88-.52,1.35-.09.5.13,1.03.07,1.52-.07.5-.59.94-.63,1.43-.04.5.32,1.02.31,1.51-.01.5-.17,1-.15,1.49.02.5.32.97.37,1.46.05.5,0,1,.08,1.48.09.49.12.99.24,1.47.12.48.38.92.53,1.39.16.47.05,1.05.24,1.51.2.46.5.88.73,1.31.23.44.53.84.8,1.26.27.42.44.91.74,1.31.3.39.81.62,1.14.99.33.37.77.62,1.13.96.35.34.48.95.86,1.27.38.31.75.67,1.16.96.4.29,1.02.25,1.45.51.42.26.74.69,1.18.93.43.23.93.32,1.39.53.25.03.66-.13,1.17-.46.36-.23.9-.3,1.27-.56.45-.32.73-.77,1-.91.44-.22.95-.27,1.4-.45.46-.19.76-.78,1.22-.94.47-.16,1.07.13,1.54,0,.48-.13.88-.54,1.36-.63.48-.09.97-.25,1.45-.31.49-.06.99-.08,1.48-.1.49-.03.99.08,1.48.09.49,0,.97.25,1.45.29.49.04,1.02-.25,1.5-.17.49.08.96.27,1.43.38.48.11.88.5,1.35.64.47.14,1.03.02,1.49.19.46.17.85.51,1.3.71.45.21,1,.2,1.43.44.43.24.88.48,1.29.74.41.27.61.85,1,1.15.39.29.76.6,1.13.92.37.32.8.57,1.15.92.34.35.83.57,1.15.94.32.37.62.78.91,1.17.29.39.61.79.87,1.2.26.41.17,1.03.4,1.47.23.43.54.81.74,1.27.19.45.38.9.55,1.36.16.46.22.95.34,1.43.12.47.23.94.32,1.42.09.48.53.91.59,1.4.05.48.04.99.07,1.49.02.39.03.9.01,1.44-.02.45-.03.97-.1,1.45-.07.48-.31.96-.46,1.39-.17.48-.53.84-.83,1.17-.32.36-.67.71-1.17.78-.64.08-1.1-.14-1.37-.47-.27-.33-.12-.85-.16-1.41-.03-.45-.2-.93-.16-1.44.04-.49-.2-1.02-.15-1.49.06-.56.36-1.04.34-1.43-.03-.47-.23-.92-.31-1.39-.08-.47-.3-.89-.43-1.35-.12-.46-.2-.91-.36-1.36-.16-.44-.34-.87-.54-1.3-.2-.43-.08-1.02-.31-1.44-.23-.41-.82-.61-1.08-1.01-.26-.4-.48-.81-.77-1.19-.29-.38-.46-.85-.78-1.2-.32-.35-.71-.64-1.05-.97-.35-.33-.81-.51-1.18-.8-.37-.3-.71-.62-1.1-.88-.4-.27-.59-.87-1.01-1.1-.42-.23-1.03-.08-1.46-.27-.44-.19-.89-.29-1.34-.43-.46-.15-.9-.41-1.41-.49-.48-.08-.97-.17-1.49-.19-.49-.02-.99.02-1.5.05-.5.02-1,.03-1.5.09-.5.06-1.01.07-1.5.16-.49.09-1.04.02-1.52.15-.49.13-.84.73-1.32.88-.48.16-1.03.1-1.49.29-.48.19-.91.45-1.35.67-.46.23-1,.3-1.42.56-.45.27-.7.72-1.08,1.02-.02.49-.11.94-.13,1.43-.01.49-.11.98-.12,1.47-.02.49.13.99.11,1.48-.02.49-.03.99-.06,1.47-.03.49-.39.95-.44,1.44-.05.49.07.99,0,1.48-.07.48-.27.94-.36,1.43-.09.48-.09.98-.21,1.46-.12.47-.06,1-.21,1.47-.15.46-.29.93-.47,1.38-.18.45-.62.78-.83,1.22-.21.43-.27.95-.51,1.37-.24.42-.53.81-.8,1.21-.27.4-.48.85-.77,1.24-.29.38-.64.73-.96,1.1-.32.36-.66.71-1,1.05s-.67.7-1.04,1.02c-.36.32-.71.67-1.1.96-.38.29-.76.63-1.16.89-.41.26-1.03.17-1.45.4-.42.23-.76.63-1.2.83-.44.2-.91.33-1.36.49-.45.16-.96.14-1.42.26-.47.12-.92.23-1.4.31-.47.08-.93.18-1.42.21-.48.03-.96.31-1.44.3-.48-.01-.94-.32-1.42-.38-.47-.06-.98.04-1.45-.06-.3-.07-.73-.36-1.3-.56-.4-.15-.78-.46-1.24-.66-.42-.18-.99-.04-1.42-.25-.42-.21-.73-.64-1.14-.87-.43-.24-.79-.52-1.15-.78-.43-.3-.83-.53-1.1-.83-.39-.43-.83-.81-.77-1.2.06-.44.59-.71.93-1.01.34-.31.64-.59,1.12-.47.42.1.83.53,1.39.84.46.25,1,.45,1.48.72.52.3,1.09.45,1.53.62.48.19.97.31,1.45.44.5.13.97.43,1.46.5.51.07,1.04-.06,1.54-.05.51,0,.99-.26,1.49-.32.51-.06,1.07.28,1.57.16.49-.12,1.01-.23,1.49-.4.47-.17.77-.77,1.23-.99.45-.22.87-.47,1.3-.74.43-.26.98-.34,1.39-.64.4-.3.61-.84.99-1.18.38-.33.77-.63,1.12-1,.35-.37.78-.65,1.11-1.04.31-.38.83-.61,1.1-1.02.27-.41.49-.87.72-1.29.23-.43.28-.95.48-1.4.19-.45.16-.97.32-1.43.16-.46.55-.84.68-1.31.13-.47.05-.98.15-1.46.1-.48.14-.95.21-1.44.07-.48.41-.92.46-1.41.05-.48-.17-.99-.14-1.48.03-.49.45-.95.47-1.44.02-.49-.17-.98-.16-1.47,0-.49-.02-.96-.02-1.44-.44-.23-.84-.51-1.27-.75-.43-.25-.95-.36-1.36-.63-.42-.27-.76-.66-1.16-.95-.41-.29-.78-.62-1.17-.92-.39-.31-.71-.69-1.09-1.02-.38-.33-.71-.69-1.06-1.04-.36-.35-.73-.67-1.06-1.04-.34-.37-.83-.59-1.15-.98-.31-.39-.69-.74-.97-1.14-.29-.4-.25-1.03-.51-1.45-.26-.42-.77-.7-1-1.13-.24-.44-.33-.95-.54-1.4-.21-.45-.18-.99-.36-1.45-.18-.46-.67-.81-.82-1.29-.14-.47-.28-.96-.39-1.44-.11-.48-.32-.96-.41-1.45-.08-.49.09-1.02.04-1.51-.05-.49.12-.99.1-1.49-.02-.49-.11-.98-.1-1.47.01-.49.15-.97.18-1.47.04-.49-.29-1.02-.23-1.52.06-.49.14-.98.23-1.48.09-.48.34-.94.45-1.43.11-.48.22-.96.36-1.44.13-.47.28-.93.44-1.38.16-.46.18-.97.37-1.42.19-.45.41-.89.62-1.32.21-.43.46-.86.7-1.27.24-.42.51-.83.78-1.23.26-.4.73-.67,1.02-1.05.29-.39.35-.96.66-1.33.31-.37.74-.64,1.07-.99.33-.35.79-.57,1.14-.9.35-.33.73-.62,1.1-.93.3-.26.65-.66,1.16-1,.39-.26.81-.59,1.27-.87.43-.26.81-.65,1.27-.9.46-.25,1.1-.14,1.55-.36.5-.24.86-.7,1.3-.88.58-.22,1.09-.49,1.48-.53.53-.06,1.03.28,1.46.49.49.24.87.57,1.01,1.03.13.43.15.97-.26,1.45"/></svg>