<?xml version="1.0" encoding="UTF-8"?><svg id="Layer_1" xmlns="http://www.w3.org/2000/svg" viewBox="0 0 200 200"><path d="M112.9,151.95c-.21.32.45.4.24.71-.2.3-.55-.37-.67-.02-.14.4.26.2.17.62-.69.33-.63.54-1.58.23-.18-.06-.44-.31-.87-.85-.25-.31-.71-.53-1-.94-.25-.35-.41-.79-.68-1.18-.25-.37-.59-.69-.84-1.08-.25-.38-.67-.66-.92-1.03-.26-.4-.28-.92-.51-1.29-.27-.42-.62-.74-.83-1.09-.33-.53-.43-1.03-.55-1.25-.23-.43-.68-.75-.88-1.18-.2-.44-.4-.9-.57-1.34-.17-.45-.28-.94-.42-1.4-.14-.46-.08-.98-.19-1.45-.11-.47-.21-.94-.29-1.41-.08-.48-.38-.93-.43-1.4-.05-.48.17-.98.15-1.46-.02-.48.06-.96.07-1.44,0-.48-.2-.97-.16-1.45.03-.48-.07-.98-.02-1.46.06-.48.52-.9.6-1.38.08-.47.1-.95.2-1.42.1-.47.15-.95.26-1.42.12-.46.36-.9.49-1.36.14-.46.18-.95.33-1.41.15-.46.12-.98.29-1.43.17-.45.54-.82.72-1.27.18-.45.38-.88.57-1.32.19-.44.28-.93.48-1.37.19-.41.48-.78.69-1.19.21-.4.37-.84.59-1.24.22-.4.6-.71.82-1.12.22-.4.33-.87.55-1.26.22-.4.28-.89.49-1.3.21-.41.71-.68.9-1.09.2-.42.33-.87.5-1.29.18-.47.02-1.04.15-1.49.14-.48.52-.88.61-1.35.1-.49.11-.98.16-1.46.05-.5.25-.98.25-1.46,0-.5-.28-.97-.33-1.45-.05-.49.19-1.03.09-1.5-.1-.48-.36-.93-.5-1.4-.14-.47-.63-.81-.8-1.27-.18-.45-.16-.98-.37-1.43-.2-.44-.6-.78-.83-1.22-.22-.43-.4-.88-.65-1.31-.24-.42-.31-.95-.56-1.37-.26-.41-.4-.9-.67-1.31-.26-.41-.58-.79-.85-1.2-.27-.41-.78-.66-1.04-1.07-.27-.41-.26-.99-.53-1.4-.26-.41-.88-.6-1.14-1.02-.26-.41-.34-.94-.59-1.36-.25-.42-.24-.98-.48-1.41-.23-.43-.56-.8-.77-1.24-.21-.44-.49-.85-.68-1.3-.19-.45-.62-.8-.78-1.24-.16-.46-.13-.98-.26-1.43-.13-.46-.15-.95-.26-1.42-.1-.47-.02-.96-.1-1.43-.08-.47-.38-.91-.43-1.38-.05-.48-.18-.95-.21-1.43-.02-.48.24-.96.25-1.44,0-.48-.13-.96-.1-1.43s-.03-.96.02-1.44c.05-.48.27-.93.35-1.4.07-.47.34-.9.43-1.38.09-.47.18-.93.29-1.39.11-.46.12-.95.24-1.41.12-.46.07-.97.2-1.43.13-.46.41-.87.55-1.33.14-.45.11-.97.26-1.42.15-.45.23-.93.39-1.39.16-.45.71-.76.88-1.21.17-.45,0-1.02.17-1.47.17-.45.41-.87.59-1.31.18-.45.24-.93.42-1.38s.32-.9.5-1.35c.18-.45.69-.76.87-1.2.18-.45.21-.95.38-1.39.17-.44.47-.82.64-1.26.44-.47.82-.99,1.28-1.08.59-.11.96.41,1.28.9.24.37.74.8.64,1.5-.07.47-.31.98-.47,1.51-.14.47-.37.95-.57,1.45-.19.47-.5.91-.71,1.39-.21.48-.41.96-.62,1.43-.22.49-.38.99-.58,1.45-.22.51-.6.93-.75,1.38-.16.45-.18.99-.35,1.48-.16.46-.07,1.03-.23,1.52-.15.47-.63.85-.78,1.34-.15.48-.34.95-.48,1.44-.14.49-.15,1.01-.28,1.5-.13.49-.02,1.04-.13,1.53-.12.5-.13,1.01-.23,1.5-.1.51-.65.93-.72,1.41-.08.52-.07,1.04-.11,1.52-.04.48-.13.98-.13,1.45,0,.49.06.98.09,1.45.04.48.2.96.28,1.43.08.48.16.96.27,1.42.11.47.26.93.4,1.39.14.46.47.85.64,1.3.17.45.41.86.61,1.3.19.44.04,1.04.26,1.47.21.43.68.73.91,1.15.23.42.26.96.5,1.37.24.41.5.82.75,1.23.25.41.64.73.9,1.14.26.41.69.7.95,1.1.26.4.53.8.79,1.21.26.4.17,1.03.42,1.43.25.41.78.65,1.02,1.06.25.41.34.91.58,1.33.24.42.35.9.57,1.32.22.43.53.8.73,1.24.21.43.63.77.82,1.21.18.44.39.89.55,1.34.16.45.14.97.26,1.43.12.46.26.93.35,1.4.09.47-.09.97-.04,1.45.05.47.48.93.49,1.41,0,.47-.43.94-.47,1.42-.03.47.05.95-.03,1.43-.07.46.16,1,.05,1.48-.11.46-.65.8-.8,1.27-.14.44-.23.91-.41,1.37-.18.46-.44.88-.63,1.33-.2.46-.1,1.04-.31,1.47-.21.45-.52.85-.74,1.28-.22.44-.59.81-.81,1.24-.23.44-.45.88-.67,1.31-.23.44-.24.99-.47,1.42-.23.44-.5.85-.72,1.28-.22.44-.48.86-.69,1.3-.21.44-.29.94-.49,1.39-.2.45-.34.9-.53,1.36-.18.45-.47.85-.63,1.32-.16.46-.52.85-.66,1.33-.14.46-.04.99-.16,1.47-.11.47-.08.96-.17,1.45-.08.47-.35.92-.41,1.41-.06.47.07.97.03,1.47-.03.48-.37.95-.38,1.45-.01.48-.08.98-.07,1.48.01.46.03.96.1,1.43.07.46.44.87.56,1.33.12.44,0,.98.16,1.43.15.44.57.78.76,1.22.18.43.36.86.57,1.28.21.42.31.9.53,1.31.23.41.39.86.64,1.26.24.4.61.73.87,1.12.26.4.44.84.71,1.22.27.39.82.58,1.09.96.28.39.47.83.74,1.2.29.39.66.69.93,1.05.29.38.2.75.48,1.11-.25.41-.31.17-.59.6"/><path d="M112.9,151.95c-.21.32.45.4.24.71-.2.3-.55-.37-.67-.02-.14.4.26.2.17.62-.69.33-.63.54-1.58.23-.18-.06-.44-.31-.87-.85-.25-.31-.71-.53-1-.94-.25-.35-.41-.79-.68-1.18-.25-.37-.59-.69-.84-1.08-.25-.38-.67-.66-.92-1.03-.26-.4-.28-.92-.51-1.29-.27-.42-.62-.74-.83-1.09-.33-.53-.43-1.03-.55-1.25-.23-.43-.68-.75-.88-1.18-.2-.44-.4-.9-.57-1.34-.17-.45-.28-.94-.42-1.4-.14-.46-.08-.98-.19-1.45-.11-.47-.21-.94-.29-1.41-.08-.48-.38-.93-.43-1.4-.05-.48.17-.98.15-1.46-.02-.48.06-.96.07-1.44,0-.48-.2-.97-.16-1.45.03-.48-.07-.98-.02-1.46.06-.48.52-.9.6-1.38.08-.47.1-.95.2-1.42.1-.47.15-.95.26-1.42.12-.46.36-.9.49-1.36.14-.46.18-.95.33-1.41.15-.46.12-.98.29-1.43.17-.45.54-.82.72-1.27.18-.45.38-.88.57-1.32.19-.44.28-.93.48-1.37.19-.41.48-.78.69-1.19.21-.4.37-.84.59-1.24.22-.4.6-.71.82-1.12.22-.4.33-.87.55-1.26.22-.4.28-.89.49-1.3.21-.41.71-.68.9-1.09.2-.42.33-.87.5-1.29.18-.47.02-1.04.15-1.49.14-.48.52-.88.61-1.35.1-.49.11-.98.16-1.46.05-.5.25-.98.25-1.46,0-.5-.28-.97-.33-1.45-.05-.49.19-1.03.09-1.5-.1-.48-.36-.93-.5-1.4-.14-.47-.63-.81-.8-1.27-.18-.45-.16-.98-.37-1.43-.2-.44-.6-.78-.83-1.22-.22-.43-.4-.88-.65-1.31-.24-.42-.31-.95-.56-1.37-.26-.41-.4-.9-.67-1.31-.26-.41-.58-.79-.85-1.2-.27-.41-.78-.66-1.04-1.07-.27-.41-.26-.99-.53-1.4-.26-.41-.88-.6-1.14-1.02-.26-.41-.34-.94-.59-1.36-.25-.42-.24-.98-.48-1.41-.23-.43-.56-.8-.77-1.24-.21-.44-.49-.85-.68-1.3-.19-.45-.62-.8-.78-1.24-.16-.46-.13-.98-.26-1.43-.13-.46-.15-.95-.26-1.42-.1-.47-.02-.96-.1-1.43-.08-.47-.38-.91-.43-1.38-.05-.48-.18-.95-.21-1.43-.02-.48.24-.96.25-1.44,0-.48-.13-.96-.1-1.43s-.03-.96.02-1.44c.05-.48.27-.93.35-1.4.07-.47.34-.9.43-1.38.09-.47.18-.93.29-1.39.11-.46.12-.95.24-1.41.12-.46.07-.97.2-1.43.13-.46.41-.87.55-1.33.14-.45.11-.97.26-1.42.15-.45.23-.93.39-1.39.16-.45.71-.76.88-1.21.17-.45,0-1.02.17-1.47.17-.45.41-.87.59-1.31.18-.45.24-.93.42-1.38s.32-.9.5-1.35c.18-.45.69-.76.87-1.2.18-.45.21-.95.38-1.39.17-.44.47-.82.64-1.26.44-.47.82-.99,1.28-1.08.59-.11.96.41,1.28.9.24.37.74.8.64,1.5-.07.47-.31.98-.47,1.51-.14.47-.37.95-.57,1.45-.19.47-.5.91-.71,1.39-.21.48-.41.96-.62,1.43-.22.49-.38.99-.58,1.45-.22.51-.6.93-.75,1.38-.16.45-.18.99-.35,1.48-.16.46-.07,1.03-.23,1.52-.15.47-.63.85-.78,1.34-.15.48-.34.95-.48,1.44-.14.49-.15,1.01-.28,1.5-.13.49-.02,1.04-.13,1.53-.12.5-.13,1.01-.23,1.5-.1.51-.65.93-.72,1.41-.08.52-.07,1.04-.11,1.52-.04.48-.13.98-.13,1.45,0,.49.06.98.09,1.45.04.48.2.96.28,1.43.08.48.16.96.27,1.42.11.47.26.93.4,1.39.14.46.47.85.64,1.3.17.45.41.86.61,1.3.19.44.04,1.04.26,1.47.21.43.68.73.91,1.15.23.42.26.96.5,1.37.24.41.5.82.75,1.23.25.41.64.73.9,1.14.26.41.69.7.95,1.1.26.4.53.8.79,1.21.26.4.17,1.03.42,1.43.25.41.78.65,1.02,1.06.25.41.34.91.58,1.33.24.42.35.9.57,1.32.22.43.53.8.73,1.24.21.43.63.77.82,1.21.18.44.39.89.55,1.34.16.45.14.97.26,1.43.12.46.26.93.35,1.4.09.47-.09.97-.04,1.45.05.47.48.93.49,1.41,0,.47-.43.94-.47,1.42-.03.47.05.95-.03,1.43-.07.46.16,1,.05,1.48-.11.46-.65.8-.8,1.27-.14.44-.23.91-.41,1.37-.18.46-.44.88-.63,1.33-.2.46-.1,1.04-.31,1.47-.21.45-.52.85-.74,1.28-.22.44-.59.81-.81,1.24-.23.44-.45.88-.67,1.31-.23.44-.24.99-.47,1.42-.23.44-.5.85-.72,1.28-.22.44-.48.86-.69,1.3-.21.44-.29.94-.49,1.39-.2.45-.34.9-.53,1.36-.18.45-.47.85-.63,1.32-.16.46-.52.85-.66,1.33-.14.46-.04.99-.16,1.47-.11.47-.08.96-.17,1.45-.08.47-.35.92-.41,1.41-.06.47.07.97.03,1.47-.03.48-.37.95-.38,1.45-.01.48-.08.98-.07,1.48.01.46.03.96.1,1.43.07.46.44.87.56,1.33.12.44,0,.98.16,1.43.15.44.57.78.76,1.22.18.43.36.86.57,1.28.21.42.31.9.53,1.31.23.41.39.86.64,1.26.24.4.61.73.87,1.12.26.4.44.84.71,1.22.27.39.82.58,1.09.96.28.39.47.83.74,1.2.29.39.66.69.93,1.05.29.38.2.75.48,1.11-.25.41-.31.17-.59.6"/><path d="M134.54,152.57c-.02-.36.18-1.04.02-.72-.27.55.1.64-.38,1.02-.47.38-.46.29-1.07.26-.6-.03-.57-.15-1.13-.36-.11-.45-.28-.72-.3-1.17-.01-.45.32-.87.37-1.33.05-.44-.16-.93-.07-1.37.09-.44.43-.83.53-1.27.1-.44-.14-.95-.06-1.4.09-.44.18-.88.23-1.32.05-.45.05-.88.04-1.33,0-.48.01-.95-.02-1.42-.03-.48-.1-.95-.15-1.41-.05-.48.27-1,.2-1.46-.07-.48-.31-.92-.4-1.38-.09-.47-.1-.96-.2-1.41-.11-.47-.39-.89-.52-1.34-.13-.46-.05-.99-.2-1.43-.15-.45-.65-.78-.82-1.22-.17-.44-.39-.86-.58-1.29-.19-.44-.11-.99-.32-1.41-.2-.43-.52-.8-.74-1.22-.22-.42-.43-.85-.65-1.26-.22-.41-.35-.89-.58-1.3-.23-.41-.46-.83-.69-1.24-.23-.41-.46-.82-.7-1.23-.24-.4-.63-.72-.87-1.13-.24-.41-.26-.93-.5-1.35-.23-.41-.44-.83-.67-1.25-.23-.41-.78-.65-1.01-1.07-.22-.41-.37-.87-.58-1.3-.21-.42-.56-.78-.77-1.21-.2-.42-.07-1.01-.26-1.45-.2-.44-.43-.85-.6-1.29-.18-.45-.63-.8-.78-1.24-.15-.46.16-1.05.04-1.5-.13-.47-.53-.85-.62-1.31-.1-.47.13-.99.06-1.45-.07-.48-.22-.93-.25-1.4-.03-.48-.11-.94-.11-1.41,0-.48-.01-.95.02-1.42.03-.48-.15-.97-.1-1.44.06-.47.11-.96.19-1.42.08-.47.5-.87.61-1.33.11-.46.07-.96.2-1.42.13-.46.09-.97.24-1.42.15-.45.58-.81.74-1.26.16-.44.35-.88.52-1.32.17-.44.42-.85.6-1.29.18-.44.2-.94.38-1.38.18-.44.37-.87.56-1.31.19-.43.51-.81.7-1.25.19-.43.31-.9.5-1.34.19-.43.19-.95.38-1.39.18-.44.27-.91.45-1.35.18-.44.61-.78.78-1.22.17-.44.48-.84.64-1.29.16-.45-.05-1.02.1-1.48.15-.45.33-.88.46-1.34.13-.45.32-.89.43-1.36.12-.46.26-.91.36-1.38.1-.48.12-.98.21-1.46.09-.48.28-.95.35-1.43.07-.49-.04-1,.02-1.48.06-.49.37-.95.42-1.44.04-.49-.09-.99-.07-1.48.02-.49.1-.98.1-1.47,0-.49.06-.98.04-1.48-.01-.49-.2-.97-.24-1.46-.04-.49-.18-.96-.24-1.45-.06-.49.21-1.02.12-1.51s-.41-.92-.52-1.4c-.11-.48-.14-.97-.28-1.45-.13-.47-.32-.93-.48-1.39-.16-.46-.37-.9-.56-1.36-.16-.38-.24-.84-.45-1.28-.19-.39-.62-.68-.83-1.09-.21-.39-.12-.95-.33-1.36-.21-.4-.35-.84-.56-1.24-.21-.41-.76-.65-.94-1.05-.21-.43-.13-.96-.28-1.36-.18-.46-.63-.81-.71-1.2-.11-.53.34-.89.68-1.14.33-.24.75-.52,1.23-.44.41.07.94.24,1.28.59.23.24.38.78.71,1.3.23.36.41.82.67,1.28.23.4.57.76.81,1.2.22.42.43.86.65,1.3.22.44.36.91.57,1.34.22.45.67.78.87,1.2.22.48.13,1.05.31,1.45.24.55.54.97.65,1.29.15.46.15.97.27,1.45.12.47.29.93.39,1.42.09.47.37.93.44,1.42.07.48-.19,1-.14,1.5.05.48.04.97.07,1.46.03.49.11.97.12,1.46.01.49.33.98.33,1.47,0,.49-.02.98-.04,1.48-.02.49-.1.98-.13,1.47-.03.49-.33.96-.38,1.45-.05.49.25,1.02.19,1.5-.06.49-.25.96-.32,1.45-.07.49-.06.99-.15,1.47-.09.49-.42.93-.52,1.4-.1.49-.05,1-.17,1.47-.12.49-.02,1.02-.15,1.48-.13.48-.59.86-.74,1.32-.15.46-.1.99-.27,1.44-.17.45-.26.94-.45,1.39-.18.45-.47.85-.67,1.3-.19.44-.28.94-.48,1.38-.2.44-.48.84-.69,1.28-.2.44-.53.82-.74,1.26-.2.44-.5.83-.71,1.27-.2.44-.32.92-.51,1.36-.19.44-.43.87-.61,1.32-.18.45-.34.91-.51,1.36-.17.46-.1.99-.25,1.45-.15.47-.47.88-.6,1.32-.13.48-.23.95-.34,1.4-.12.48-.28.94-.37,1.4-.09.49-.29.95-.35,1.41-.07.49.29,1.01.26,1.47-.04.49-.49.95-.49,1.42,0,.49.04.99.07,1.45.04.49.38.93.46,1.4.08.48.12.95.23,1.41.12.47.16.96.31,1.41.15.45.55.81.73,1.25.19.44.32.89.53,1.33.21.42.42.85.65,1.28.22.41.53.79.77,1.21.23.41.17,1,.42,1.42.24.4.69.69.94,1.11.24.4.65.71.9,1.13.24.4.28.94.52,1.36.24.4.28.93.52,1.35.23.41.86.61,1.09,1.04.22.41.45.84.67,1.28.22.42.36.88.57,1.31.21.43.19.96.39,1.39.19.43.61.77.79,1.21.18.44.1.98.28,1.43.17.44.48.83.64,1.28.16.45.07.97.22,1.43.14.45.37.88.5,1.33.13.46.14.94.25,1.4.11.46.36.89.45,1.35.1.47.13.94.21,1.41.08.47.03.95.09,1.42.06.47.1.94.14,1.41.04.47.1.94.12,1.41.02.48.32.95.31,1.42,0,.48.02.96-.01,1.43-.03.48-.43.91-.49,1.38-.06.47.31,1.01.23,1.47-.08.47-.53.86-.64,1.33-.06.26.11.93-.04,1.5-.16.62-.47,1.2-.56,1.38-.05.11-.38.29-.42.22"/><path d="M134.54,152.57c-.02-.36.18-1.04.02-.72-.27.55.1.64-.38,1.02-.47.38-.46.29-1.07.26-.6-.03-.57-.15-1.13-.36-.11-.45-.28-.72-.3-1.17-.01-.45.32-.87.37-1.33.05-.44-.16-.93-.07-1.37.09-.44.43-.83.53-1.27.1-.44-.14-.95-.06-1.4.09-.44.18-.88.23-1.32.05-.45.05-.88.04-1.33,0-.48.01-.95-.02-1.42-.03-.48-.1-.95-.15-1.41-.05-.48.27-1,.2-1.46-.07-.48-.31-.92-.4-1.38-.09-.47-.1-.96-.2-1.41-.11-.47-.39-.89-.52-1.34-.13-.46-.05-.99-.2-1.43-.15-.45-.65-.78-.82-1.22-.17-.44-.39-.86-.58-1.29-.19-.44-.11-.99-.32-1.41-.2-.43-.52-.8-.74-1.22-.22-.42-.43-.85-.65-1.26-.22-.41-.35-.89-.58-1.3-.23-.41-.46-.83-.69-1.24-.23-.41-.46-.82-.7-1.23-.24-.4-.63-.72-.87-1.13-.24-.41-.26-.93-.5-1.35-.23-.41-.44-.83-.67-1.25-.23-.41-.78-.65-1.01-1.07-.22-.41-.37-.87-.58-1.3-.21-.42-.56-.78-.77-1.21-.2-.42-.07-1.01-.26-1.45-.2-.44-.43-.85-.6-1.29-.18-.45-.63-.8-.78-1.24-.15-.46.16-1.05.04-1.5-.13-.47-.53-.85-.62-1.31-.1-.47.13-.99.06-1.45-.07-.48-.22-.93-.25-1.4-.03-.48-.11-.94-.11-1.41,0-.48-.01-.95.02-1.42.03-.48-.15-.97-.1-1.44.06-.47.11-.96.19-1.42.08-.47.5-.87.61-1.33.11-.46.07-.96.2-1.42.13-.46.09-.97.24-1.42.15-.45.58-.81.74-1.26.16-.44.35-.88.52-1.32.17-.44.42-.85.6-1.29.18-.44.2-.94.38-1.38.18-.44.37-.87.56-1.31.19-.43.51-.81.7-1.25.19-.43.31-.9.5-1.34.19-.43.19-.95.38-1.39.18-.44.27-.91.45-1.35.18-.44.61-.78.78-1.22.17-.44.48-.84.64-1.29.16-.45-.05-1.02.1-1.48.15-.45.33-.88.46-1.34.13-.45.32-.89.43-1.36.12-.46.26-.91.36-1.38.1-.48.12-.98.21-1.46.09-.48.28-.95.35-1.43.07-.49-.04-1,.02-1.48.06-.49.37-.95.42-1.44.04-.49-.09-.99-.07-1.48.02-.49.1-.98.1-1.47,0-.49.06-.98.04-1.48-.01-.49-.2-.97-.24-1.46-.04-.49-.18-.96-.24-1.45-.06-.49.21-1.02.12-1.51s-.41-.92-.52-1.4c-.11-.48-.14-.97-.28-1.45-.13-.47-.32-.93-.48-1.39-.16-.46-.37-.9-.56-1.36-.16-.38-.24-.84-.45-1.28-.19-.39-.62-.68-.83-1.09-.21-.39-.12-.95-.33-1.36-.21-.4-.35-.84-.56-1.24-.21-.41-.76-.65-.94-1.05-.21-.43-.13-.96-.28-1.36-.18-.46-.63-.81-.71-1.2-.11-.53.34-.89.68-1.14.33-.24.75-.52,1.23-.44.41.07.94.24,1.28.59.23.24.38.78.71,1.3.23.36.41.82.67,1.28.23.4.57.76.81,1.2.22.42.43.86.65,1.3.22.44.36.91.57,1.34.22.45.67.78.87,1.2.22.48.13,1.05.31,1.45.24.55.54.97.65,1.29.15.46.15.97.27,1.45.12.47.29.93.39,1.42.09.47.37.93.44,1.42.07.48-.19,1-.14,1.5.05.48.04.97.07,1.46.03.49.11.97.12,1.46.01.49.33.98.33,1.47,0,.49-.02.98-.04,1.48-.02.49-.1.98-.13,1.47-.03.49-.33.96-.38,1.45-.05.49.25,1.02.19,1.5-.06.49-.25.96-.32,1.45-.07.49-.06.99-.15,1.47-.09.49-.42.93-.52,1.4-.1.49-.05,1-.17,1.47-.12.49-.02,1.02-.15,1.48-.13.48-.59.86-.74,1.32-.15.46-.1.99-.27,1.44-.17.45-.26.94-.45,1.39-.18.45-.47.85-.67,1.3-.19.44-.28.94-.48,1.38-.2.44-.48.84-.69,1.28-.2.44-.53.82-.74,1.26-.2.44-.5.83-.71,1.27-.2.44-.32.92-.51,1.36-.19.44-.43.87-.61,1.32-.18.45-.34.91-.51,1.36-.17.46-.1.99-.25,1.45-.15.47-.47.88-.6,1.32-.13.48-.23.95-.34,1.4-.12.48-.28.94-.37,1.4-.09.49-.29.95-.35,1.41-.07.49.29,1.01.26,1.47-.04.49-.49.95-.49,1.42,0,.49.04.99.07,1.45.04.49.38.93.46,1.4.08.48.12.95.23,1.41.12.47.16.96.31,1.41.15.45.55.81.73,1.25.19.44.32.89.53,1.33.21.42.42.85.65,1.28.22.41.53.79.77,1.21.23.41.17,1,.42,1.42.24.4.69.69.94,1.11.24.4.65.71.9,1.13.24.4.28.94.52,1.36.24.4.28.93.52,1.35.23.41.86.61,1.09,1.04.22.41.45.84.67,1.28.22.42.36.88.57,1.31.21.43.19.96.39,1.39.19.43.61.77.79,1.21.18.44.1.98.28,1.43.17.44.48.83.64,1.28.16.45.07.97.22,1.43.14.45.37.88.5,1.33.13.46.14.94.25,1.4.11.46.36.89.45,1.35.1.47.13.94.21,1.41.08.47.03.95.09,1.42.06.47.1.94.14,1.41.04.47.1.94.12,1.41.02.48.32.95.31,1.42,0,.48.02.96-.01,1.43-.03.48-.43.91-.49,1.38-.06.47.31,1.01.23,1.47-.08.47-.53.86-.64,1.33-.06.26.11.93-.04,1.5-.16.62-.47,1.2-.56,1.38-.05.11-.38.29-.42.22"/><path d="M79.4,147.82c-.49.08-.53-.37-.83.03-.37.49.43.56.3,1.16-.45-.23-1.06-.26-1.41-.08-.37.19-.63.52-1.06.31-.18-.09-.55-.55-1.04-1.16-.31-.37-.7-.76-1.04-1.2-.33-.43-.53-.97-.82-1.37-.42-.57-.76-1.05-.92-1.28-.28-.4-.88-.58-1.14-.98-.27-.41-.28-.98-.53-1.38-.25-.42-.64-.75-.87-1.17-.24-.43-.55-.81-.77-1.24-.22-.44-.43-.88-.62-1.31-.2-.44-.25-.95-.43-1.39-.18-.45-.36-.9-.51-1.35-.16-.46-.45-.88-.58-1.33-.13-.47-.09-.98-.2-1.45-.11-.47-.19-.95-.27-1.42-.08-.48-.15-.95-.2-1.43-.05-.48.05-.96.03-1.45-.02-.48-.09-.95-.08-1.43,0-.48.16-.95.19-1.43.03-.48-.11-.97-.05-1.45.06-.47-.04-.97.05-1.45.08-.47.22-.94.33-1.41.1-.47.4-.89.52-1.36.12-.46.07-.97.21-1.44.14-.46.15-.96.3-1.42.15-.45.56-.82.73-1.28.17-.45.28-.92.46-1.37.18-.44.35-.9.54-1.34.19-.44.45-.85.66-1.29.2-.44.3-.91.52-1.34.21-.43.27-.94.49-1.36.22-.42.59-.77.82-1.19.23-.42.45-.84.68-1.26.22-.42.67-.73.88-1.16.21-.43.17-.98.36-1.41.19-.44.66-.77.82-1.22.16-.45-.13-1.04,0-1.5.12-.46.33-.88.41-1.35.08-.46.07-.93.1-1.41.03-.47.01-.92,0-1.41-.02-.48.34-1.02.25-1.49-.09-.47-.64-.83-.8-1.29-.15-.45-.22-.93-.42-1.38-.2-.43-.52-.8-.76-1.23-.23-.42-.08-1.07-.34-1.49-.26-.41-.84-.61-1.12-1.01-.27-.4-.38-.92-.67-1.31-.29-.39-.78-.63-1.07-1.01-.29-.39-.64-.74-.93-1.12-.3-.39-.25-1.03-.54-1.41-.3-.39-.82-.61-1.1-.99-.29-.4-.5-.85-.76-1.24-.27-.41-.49-.85-.73-1.25-.25-.43-.35-.92-.57-1.35-.22-.44-.78-.72-.97-1.17-.19-.46-.21-.98-.36-1.43-.15-.47-.19-.97-.31-1.43-.12-.48-.5-.91-.57-1.38-.08-.49-.09-.99-.12-1.47-.04-.49-.01-.99,0-1.47,0-.49.37-.96.41-1.44.04-.49-.03-.97.05-1.46.08-.48.01-.99.13-1.46.11-.47.32-.93.46-1.39.14-.46.51-.85.67-1.31.16-.46.03-1.03.21-1.48.19-.45.51-.84.71-1.28.21-.44.45-.86.67-1.3.22-.43.37-.9.61-1.33.24-.42.35-.92.6-1.35.25-.42.64-.75.9-1.16.26-.41.7-.71.97-1.11.26-.41.32-.95.6-1.36.27-.4.47-.86.75-1.26.28-.4.82-.62,1.1-1.02.28-.4.5-.84.78-1.24s.36-.92.64-1.31c.06-.2.67-.26,1.17-.3.54-.04,1.22-.14,1.27-.11.23.18.42.76.54,1.24.12.46-.01.96-.08,1.25-.09.37-.06.97-.36,1.49-.23.4-.85.62-1.15,1.06-.27.4-.33.98-.64,1.39-.3.41-.62.81-.91,1.21-.32.43-.64.82-.92,1.2-.34.47-.84.76-1.05,1.11-.26.41-.28.97-.53,1.39-.24.42-.44.87-.66,1.3-.23.43-.46.85-.67,1.29-.21.44-.38.9-.56,1.34-.19.45-.65.8-.81,1.25-.16.46-.12.99-.25,1.46-.13.47-.26.94-.36,1.41-.1.48-.24.95-.3,1.43-.06.48-.2.97-.22,1.46-.02.48.06.98.09,1.47.03.48-.06,1,.01,1.48.07.48.17.98.29,1.45.12.46.59.83.76,1.3.16.45.43.85.64,1.3.2.43.12,1.02.37,1.45.23.41.62.74.89,1.16.26.4.68.69.97,1.09.28.39.4.89.7,1.28.29.38.72.66,1.02,1.05.29.38.4.91.7,1.29.3.38.58.77.88,1.16s.79.62,1.07,1.02c.28.4.34.95.6,1.35.27.41.52.82.76,1.23.25.42.42.87.64,1.3.22.44.75.73.93,1.18.18.45.35.93.47,1.4.13.47-.01,1,.06,1.48.07.49.07.97.09,1.44.02.49.08.97.06,1.44-.02.49-.07.97-.13,1.44-.06.48-.26.93-.36,1.4-.1.47-.04.98-.17,1.44-.13.46-.43.87-.59,1.33-.16.45-.11.99-.29,1.44-.18.44-.67.76-.87,1.2-.2.44-.1,1.02-.31,1.45-.21.43-.75.7-.97,1.13-.22.43-.23.96-.45,1.39-.22.43-.3.93-.52,1.36-.22.43-.7.73-.91,1.16-.21.43-.22.96-.42,1.4-.2.44-.53.82-.72,1.27-.18.45-.39.89-.56,1.34-.16.46-.36.91-.51,1.36-.15.47.06,1.03-.07,1.49-.13.47-.41.89-.52,1.35-.12.47-.36.91-.45,1.38-.1.48-.28.94-.35,1.41-.07.48-.05.98-.1,1.45-.05.48.25.98.24,1.46-.02.48-.15.95-.14,1.43.01.48.05.95.1,1.43.05.48-.08.98,0,1.45.08.47.31.92.42,1.39.11.46-.04,1.01.1,1.47.14.45.53.83.7,1.29.17.44.44.85.64,1.29.19.43.4.86.61,1.3.21.42.35.89.59,1.31.23.41.49.82.75,1.23.25.4.64.71.92,1.12.24.36.55.7.86,1.08.29.35.53.75.85,1.11.31.35.42.89.72,1.24.32.37.81.57,1.08.92.31.4.55.82.76,1.18.19.34.25.48.19.88"/><path d="M79.4,147.82c-.49.08-.53-.37-.83.03-.37.49.43.56.3,1.16-.45-.23-1.06-.26-1.41-.08-.37.19-.63.52-1.06.31-.18-.09-.55-.55-1.04-1.16-.31-.37-.7-.76-1.04-1.2-.33-.43-.53-.97-.82-1.37-.42-.57-.76-1.05-.92-1.28-.28-.4-.88-.58-1.14-.98-.27-.41-.28-.98-.53-1.38-.25-.42-.64-.75-.87-1.17-.24-.43-.55-.81-.77-1.24-.22-.44-.43-.88-.62-1.31-.2-.44-.25-.95-.43-1.39-.18-.45-.36-.9-.51-1.35-.16-.46-.45-.88-.58-1.33-.13-.47-.09-.98-.2-1.45-.11-.47-.19-.95-.27-1.42-.08-.48-.15-.95-.2-1.43-.05-.48.05-.96.03-1.45-.02-.48-.09-.95-.08-1.43,0-.48.16-.95.19-1.43.03-.48-.11-.97-.05-1.45.06-.47-.04-.97.05-1.45.08-.47.22-.94.33-1.41.1-.47.4-.89.52-1.36.12-.46.07-.97.21-1.44.14-.46.15-.96.3-1.42.15-.45.56-.82.73-1.28.17-.45.28-.92.46-1.37.18-.44.35-.9.54-1.34.19-.44.45-.85.66-1.29.2-.44.3-.91.52-1.34.21-.43.27-.94.49-1.36.22-.42.59-.77.82-1.19.23-.42.45-.84.68-1.26.22-.42.67-.73.88-1.16.21-.43.17-.98.36-1.41.19-.44.66-.77.82-1.22.16-.45-.13-1.04,0-1.5.12-.46.33-.88.41-1.35.08-.46.07-.93.1-1.41.03-.47.01-.92,0-1.41-.02-.48.34-1.02.25-1.49-.09-.47-.64-.83-.8-1.29-.15-.45-.22-.93-.42-1.38-.2-.43-.52-.8-.76-1.23-.23-.42-.08-1.07-.34-1.49-.26-.41-.84-.61-1.12-1.01-.27-.4-.38-.92-.67-1.31-.29-.39-.78-.63-1.07-1.01-.29-.39-.64-.74-.93-1.12-.3-.39-.25-1.03-.54-1.41-.3-.39-.82-.61-1.1-.99-.29-.4-.5-.85-.76-1.24-.27-.41-.49-.85-.73-1.25-.25-.43-.35-.92-.57-1.35-.22-.44-.78-.72-.97-1.17-.19-.46-.21-.98-.36-1.43-.15-.47-.19-.97-.31-1.43-.12-.48-.5-.91-.57-1.38-.08-.49-.09-.99-.12-1.47-.04-.49-.01-.99,0-1.47,0-.49.37-.96.41-1.44.04-.49-.03-.97.05-1.46.08-.48.01-.99.13-1.46.11-.47.32-.93.46-1.39.14-.46.51-.85.67-1.31.16-.46.03-1.03.21-1.48.19-.45.51-.84.71-1.28.21-.44.45-.86.67-1.3.22-.43.37-.9.61-1.33.24-.42.35-.92.6-1.35.25-.42.64-.75.9-1.16.26-.41.7-.71.97-1.11.26-.41.32-.95.6-1.36.27-.4.47-.86.75-1.26.28-.4.82-.62,1.1-1.02.28-.4.5-.84.78-1.24s.36-.92.64-1.31c.06-.2.67-.26,1.17-.3.54-.04,1.22-.14,1.27-.11.23.18.42.76.54,1.24.12.46-.01.96-.08,1.25-.09.37-.06.97-.36,1.49-.23.4-.85.62-1.15,1.06-.27.4-.33.98-.64,1.39-.3.41-.62.81-.91,1.21-.32.43-.64.82-.92,1.2-.34.47-.84.76-1.05,1.11-.26.41-.28.97-.53,1.39-.24.42-.44.87-.66,1.3-.23.43-.46.85-.67,1.29-.21.44-.38.9-.56,1.34-.19.45-.65.8-.81,1.25-.16.46-.12.99-.25,1.46-.13.47-.26.94-.36,1.41-.1.48-.24.95-.3,1.43-.06.48-.2.97-.22,1.46-.02.48.06.98.09,1.47.03.48-.06,1,.01,1.48.07.48.17.98.29,1.45.12.46.59.83.76,1.3.16.45.43.85.64,1.3.2.43.12,1.02.37,1.45.23.41.62.74.89,1.16.26.4.68.69.97,1.09.28.39.4.89.7,1.28.29.38.72.66,1.02,1.05.29.38.4.91.7,1.29.3.38.58.77.88,1.16s.79.62,1.07,1.02c.28.4.34.95.6,1.35.27.41.52.82.76,1.23.25.42.42.87.64,1.3.22.44.75.73.93,1.18.18.45.35.93.47,1.4.13.47-.01,1,.06,1.48.07.49.07.97.09,1.44.02.49.08.97.06,1.44-.02.49-.07.97-.13,1.44-.06.48-.26.93-.36,1.4-.1.47-.04.98-.17,1.44-.13.46-.43.87-.59,1.33-.16.45-.11.99-.29,1.44-.18.44-.67.76-.87,1.2-.2.44-.1,1.02-.31,1.45-.21.43-.75.7-.97,1.13-.22.43-.23.96-.45,1.39-.22.43-.3.93-.52,1.36-.22.43-.7.73-.91,1.16-.21.43-.22.96-.42,1.4-.2.44-.53.82-.72,1.27-.18.45-.39.89-.56,1.34-.16.46-.36.91-.51,1.36-.15.47.06,1.03-.07,1.49-.13.47-.41.89-.52,1.35-.12.47-.36.91-.45,1.38-.1.48-.28.94-.35,1.41-.07.48-.05.98-.1,1.45-.05.48.25.98.24,1.46-.02.48-.15.95-.14,1.43.01.48.05.95.1,1.43.05.48-.08.98,0,1.45.08.47.31.92.42,1.39.11.46-.04,1.01.1,1.47.14.45.53.83.7,1.29.17.44.44.85.64,1.29.19.43.4.86.61,1.3.21.42.35.89.59,1.31.23.41.49.82.75,1.23.25.4.64.71.92,1.12.24.36.55.7.86,1.08.29.35.53.75.85,1.11.31.35.42.89.72,1.24.32.37.81.57,1.08.92.31.4.55.82.76,1.18.19.34.25.48.19.88"/><path d="M94.66,136.91c-.05.08.36.54.28.79-.15.46-.19.97-.34,1.44-.15.47-.4.9-.56,1.37-.15.46-.32.92-.48,1.39-.16.46-.59.82-.76,1.29-.17.45-.15.98-.35,1.44-.11.26-.43.77-.73,1.43-.21.46-.14,1.1-.38,1.6-.24.51-.86.82-1.09,1.26-.37.7-.41,1.51-.59,1.62-.6.34-1.23.52-1.66.51-.6-.01-.85-.6-.99-1.22-.1-.42-.22-.93-.05-1.59.09-.35.33-.74.54-1.21.18-.38.37-.78.59-1.19.2-.39.44-.77.65-1.16.22-.4.49-.77.68-1.15.22-.43.35-.88.5-1.24.18-.46.44-.88.6-1.33.17-.46.05-1.02.2-1.47.16-.47.26-.94.4-1.4.14-.47.26-.94.37-1.4.12-.48.15-.96.24-1.43.1-.48.33-.92.4-1.4.07-.48.1-.96.14-1.44.04-.49.15-.96.17-1.44.01-.48.13-.97.11-1.46-.02-.48.11-.99.06-1.47-.05-.48-.49-.91-.58-1.39-.09-.47.17-1.02.05-1.5-.12-.46-.58-.84-.73-1.31-.15-.45-.41-.86-.59-1.32-.17-.44.01-1.05-.19-1.5-.2-.43-.67-.74-.9-1.18-.23-.44-.56-.81-.79-1.23-.24-.43-.43-.88-.68-1.3-.25-.42-.16-1.05-.42-1.47-.26-.42-.78-.67-1.04-1.08-.26-.42-.4-.9-.65-1.32-.26-.42-.69-.73-.93-1.16-.25-.42-.42-.89-.65-1.32-.23-.43-.59-.8-.79-1.25-.2-.44-.21-.98-.39-1.44-.17-.45-.35-.91-.5-1.38-.14-.46-.36-.91-.47-1.4-.11-.47-.12-.97-.19-1.47-.07-.47-.15-.96-.19-1.46-.03-.49-.2-.97-.2-1.45,0-.49.2-.97.23-1.44.03-.48.05-.97.11-1.44.06-.48.18-.95.27-1.42.09-.47.4-.89.52-1.36.12-.47.24-.92.38-1.38.14-.46.24-.93.4-1.38.16-.45.06-1.01.24-1.45.18-.45.4-.88.59-1.32.19-.44.66-.76.86-1.19.2-.44.26-.94.47-1.37.21-.43.38-.88.6-1.31.21-.43.29-.93.51-1.36.22-.43.74-.71.95-1.13.22-.43.42-.87.63-1.3.21-.43.37-.89.58-1.32.21-.43.43-.86.63-1.3.2-.44.31-.91.49-1.36s.32-.9.49-1.35c.17-.45.54-.83.69-1.29.15-.46-.06-1.02.07-1.48.12-.46.25-.92.35-1.39.1-.47.49-.89.56-1.37.07-.47.14-.96.18-1.44.04-.48-.2-.98-.19-1.46.01-.48-.11-.96-.12-1.44-.01-.48.03-.96,0-1.44-.03-.48.22-.99.16-1.47-.06-.48-.39-.92-.47-1.39-.08-.48-.06-.97-.16-1.44-.1-.47-.24-.93-.37-1.4-.13-.47-.13-.97-.28-1.43-.15-.46-.25-.95-.42-1.4-.17-.45-.43-.88-.62-1.32-.19-.44-.33-.92-.54-1.35-.21-.43-.47-.85-.7-1.27-.23-.42-.53-.81-.78-1.23-.25-.41-.6-.76-.87-1.16-.27-.4-.46-.83-.74-1.22-.13-.69.07-1.07.33-1.44.32-.45.68-.65,1.27-.58.48.06.9.3,1.35.72.34.32.72.6,1.03.99.29.36.42.84.69,1.26.26.39.59.74.82,1.17.22.41.69.72.9,1.16.2.43.08,1,.26,1.46.18.44.4.86.57,1.32.16.45.39.88.53,1.34.14.46.16.95.28,1.41.12.46.58.85.69,1.31.11.47-.15,1.02-.06,1.49.09.48.19.94.26,1.41.08.48.23.94.29,1.41.06.49,0,.97.05,1.44.04.49.08.97.1,1.43.02.5.06.97.06,1.43,0,.5.27.99.23,1.45-.03.48-.35.94-.41,1.42-.06.48.12,1,.03,1.48-.09.48-.18.96-.3,1.43-.12.47-.36.91-.5,1.37-.14.46-.27.93-.43,1.39-.16.46-.54.83-.72,1.28-.17.45-.38.88-.56,1.33-.19.45-.14.99-.34,1.43-.2.44-.62.78-.83,1.22-.2.44-.37.89-.58,1.33-.21.44-.28.94-.5,1.38-.21.44-.49.84-.7,1.28-.21.44-.35.91-.56,1.34-.21.44-.26.95-.46,1.39-.21.44-.42.87-.62,1.31-.2.45-.64.78-.82,1.23-.19.45-.25.95-.42,1.4-.17.46-.44.87-.6,1.33-.15.46-.23.95-.36,1.41-.13.47-.31.93-.41,1.4-.1.47.12,1,.05,1.48-.07.48-.39.92-.42,1.41-.04.48-.23.97-.23,1.45,0,.48.39.95.43,1.44.04.48-.24,1-.15,1.49.08.47.34.92.46,1.4.12.46.39.88.55,1.35.15.45.14.97.34,1.43.19.43.32.92.54,1.36.22.43.74.69.96,1.1.23.42.43.85.66,1.25.24.42.22.98.46,1.38.25.41.47.84.71,1.23.25.41.73.67.98,1.07.25.41.38.88.62,1.29.24.41.63.74.86,1.15.23.41.56.78.78,1.2.21.42.16.97.36,1.4.19.43.69.73.86,1.18.16.44-.11,1.03.03,1.49.14.44.64.79.75,1.26.11.45.21.92.29,1.4.08.45.13.93.18,1.41.05.46-.22.96-.19,1.44.03.46.09.93.09,1.42,0,.44.2.9.18,1.38-.02.45-.22.9-.27,1.36-.05.46.04.94-.05,1.39-.09.47-.06.98-.21,1.39-.16.46-.74.69-.97,1.06"/><path d="M94.66,136.91c-.05.08.36.54.28.79-.15.46-.19.97-.34,1.44-.15.47-.4.9-.56,1.37-.15.46-.32.92-.48,1.39-.16.46-.59.82-.76,1.29-.17.45-.15.98-.35,1.44-.11.26-.43.77-.73,1.43-.21.46-.14,1.1-.38,1.6-.24.51-.86.82-1.09,1.26-.37.7-.41,1.51-.59,1.62-.6.34-1.23.52-1.66.51-.6-.01-.85-.6-.99-1.22-.1-.42-.22-.93-.05-1.59.09-.35.33-.74.54-1.21.18-.38.37-.78.59-1.19.2-.39.44-.77.65-1.16.22-.4.49-.77.68-1.15.22-.43.35-.88.5-1.24.18-.46.44-.88.6-1.33.17-.46.05-1.02.2-1.47.16-.47.26-.94.4-1.4.14-.47.26-.94.37-1.4.12-.48.15-.96.24-1.43.1-.48.33-.92.4-1.4.07-.48.1-.96.14-1.44.04-.49.15-.96.17-1.44.01-.48.13-.97.11-1.46-.02-.48.11-.99.06-1.47-.05-.48-.49-.91-.58-1.39-.09-.47.17-1.02.05-1.5-.12-.46-.58-.84-.73-1.31-.15-.45-.41-.86-.59-1.32-.17-.44.01-1.05-.19-1.5-.2-.43-.67-.74-.9-1.18-.23-.44-.56-.81-.79-1.23-.24-.43-.43-.88-.68-1.3-.25-.42-.16-1.05-.42-1.47-.26-.42-.78-.67-1.04-1.08-.26-.42-.4-.9-.65-1.32-.26-.42-.69-.73-.93-1.16-.25-.42-.42-.89-.65-1.32-.23-.43-.59-.8-.79-1.25-.2-.44-.21-.98-.39-1.44-.17-.45-.35-.91-.5-1.38-.14-.46-.36-.91-.47-1.4-.11-.47-.12-.97-.19-1.47-.07-.47-.15-.96-.19-1.46-.03-.49-.2-.97-.2-1.45,0-.49.2-.97.23-1.44.03-.48.05-.97.11-1.44.06-.48.18-.95.27-1.42.09-.47.4-.89.52-1.36.12-.47.24-.92.38-1.38.14-.46.24-.93.4-1.38.16-.45.06-1.01.24-1.45.18-.45.4-.88.59-1.32.19-.44.66-.76.86-1.19.2-.44.26-.94.47-1.37.21-.43.38-.88.6-1.31.21-.43.29-.93.51-1.36.22-.43.74-.71.95-1.13.22-.43.42-.87.63-1.3.21-.43.37-.89.58-1.32.21-.43.43-.86.63-1.3.2-.44.31-.91.49-1.36s.32-.9.49-1.35c.17-.45.54-.83.69-1.29.15-.46-.06-1.02.07-1.48.12-.46.25-.92.35-1.39.1-.47.49-.89.56-1.37.07-.47.14-.96.18-1.44.04-.48-.2-.98-.19-1.46.01-.48-.11-.96-.12-1.44-.01-.48.03-.96,0-1.44-.03-.48.22-.99.16-1.47-.06-.48-.39-.92-.47-1.39-.08-.48-.06-.97-.16-1.44-.1-.47-.24-.93-.37-1.4-.13-.47-.13-.97-.28-1.43-.15-.46-.25-.95-.42-1.4-.17-.45-.43-.88-.62-1.32-.19-.44-.33-.92-.54-1.35-.21-.43-.47-.85-.7-1.27-.23-.42-.53-.81-.78-1.23-.25-.41-.6-.76-.87-1.16-.27-.4-.46-.83-.74-1.22-.13-.69.07-1.07.33-1.44.32-.45.68-.65,1.27-.58.48.06.9.3,1.35.72.34.32.72.6,1.03.99.29.36.42.84.69,1.26.26.39.59.74.82,1.17.22.41.69.72.9,1.16.2.43.08,1,.26,1.46.18.44.4.86.57,1.32.16.45.39.88.53,1.34.14.46.16.95.28,1.41.12.46.58.85.69,1.31.11.47-.15,1.02-.06,1.49.09.48.19.94.26,1.41.08.48.23.94.29,1.41.06.49,0,.97.05,1.44.04.49.08.97.1,1.43.02.5.06.97.06,1.43,0,.5.27.99.23,1.45-.03.48-.35.94-.41,1.42-.06.48.12,1,.03,1.48-.09.48-.18.96-.3,1.43-.12.47-.36.91-.5,1.37-.14.46-.27.93-.43,1.39-.16.46-.54.83-.72,1.28-.17.45-.38.88-.56,1.33-.19.45-.14.99-.34,1.43-.2.44-.62.78-.83,1.22-.2.44-.37.89-.58,1.33-.21.44-.28.94-.5,1.38-.21.44-.49.84-.7,1.28-.21.44-.35.91-.56,1.34-.21.44-.26.95-.46,1.39-.21.44-.42.87-.62,1.31-.2.45-.64.78-.82,1.23-.19.45-.25.95-.42,1.4-.17.46-.44.87-.6,1.33-.15.46-.23.95-.36,1.41-.13.47-.31.93-.41,1.4-.1.47.12,1,.05,1.48-.07.48-.39.92-.42,1.41-.04.48-.23.97-.23,1.45,0,.48.39.95.43,1.44.04.48-.24,1-.15,1.49.08.47.34.92.46,1.4.12.46.39.88.55,1.35.15.45.14.97.34,1.43.19.43.32.92.54,1.36.22.43.74.69.96,1.1.23.42.43.85.66,1.25.24.42.22.98.46,1.38.25.41.47.84.71,1.23.25.41.73.67.98,1.07.25.41.38.88.62,1.29.24.41.63.74.86,1.15.23.41.56.78.78,1.2.21.42.16.97.36,1.4.19.43.69.73.86,1.18.16.44-.11,1.03.03,1.49.14.44.64.79.75,1.26.11.45.21.92.29,1.4.08.45.13.93.18,1.41.05.46-.22.96-.19,1.44.03.46.09.93.09,1.42,0,.44.2.9.18,1.38-.02.45-.22.9-.27,1.36-.05.46.04.94-.05,1.39-.09.47-.06.98-.21,1.39-.16.46-.74.69-.97,1.06"/><path d="M112.9,151.95c-.21.32.45.4.24.71-.2.3-.55-.37-.67-.02-.14.4.26.2.17.62-.69.33-.63.54-1.58.23-.18-.06-.44-.31-.87-.85-.25-.31-.71-.53-1-.94-.25-.35-.41-.79-.68-1.18-.25-.37-.59-.69-.84-1.08-.25-.38-.67-.66-.92-1.03-.26-.4-.28-.92-.51-1.29-.27-.42-.62-.74-.83-1.09-.33-.53-.43-1.03-.55-1.25-.23-.43-.68-.75-.88-1.18-.2-.44-.4-.9-.57-1.34-.17-.45-.28-.94-.42-1.4-.14-.46-.08-.98-.19-1.45-.11-.47-.21-.94-.29-1.41-.08-.48-.38-.93-.43-1.4-.05-.48.17-.98.15-1.46-.02-.48.06-.96.07-1.44,0-.48-.2-.97-.16-1.45.03-.48-.07-.98-.02-1.46.06-.48.52-.9.6-1.38.08-.47.1-.95.2-1.42.1-.47.15-.95.26-1.42.12-.46.36-.9.49-1.36.14-.46.18-.95.33-1.41.15-.46.12-.98.29-1.43.17-.45.54-.82.72-1.27.18-.45.38-.88.57-1.32.19-.44.28-.93.48-1.37.19-.41.48-.78.69-1.19.21-.4.37-.84.59-1.24.22-.4.6-.71.82-1.12.22-.4.33-.87.55-1.26.22-.4.28-.89.49-1.3.21-.41.71-.68.9-1.09.2-.42.33-.87.5-1.29.18-.47.02-1.04.15-1.49.14-.48.52-.88.61-1.35.1-.49.11-.98.16-1.46.05-.5.25-.98.25-1.46,0-.5-.28-.97-.33-1.45-.05-.49.19-1.03.09-1.5-.1-.48-.36-.93-.5-1.4-.14-.47-.63-.81-.8-1.27-.18-.45-.16-.98-.37-1.43-.2-.44-.6-.78-.83-1.22-.22-.43-.4-.88-.65-1.31-.24-.42-.31-.95-.56-1.37-.26-.41-.4-.9-.67-1.31-.26-.41-.58-.79-.85-1.2-.27-.41-.78-.66-1.04-1.07-.27-.41-.26-.99-.53-1.4-.26-.41-.88-.6-1.14-1.02-.26-.41-.34-.94-.59-1.36-.25-.42-.24-.98-.48-1.41-.23-.43-.56-.8-.77-1.24-.21-.44-.49-.85-.68-1.3-.19-.45-.62-.8-.78-1.24-.16-.46-.13-.98-.26-1.43-.13-.46-.15-.95-.26-1.42-.1-.47-.02-.96-.1-1.43-.08-.47-.38-.91-.43-1.38-.05-.48-.18-.95-.21-1.43-.02-.48.24-.96.25-1.44,0-.48-.13-.96-.1-1.43s-.03-.96.02-1.44c.05-.48.27-.93.35-1.4.07-.47.34-.9.43-1.38.09-.47.18-.93.29-1.39.11-.46.12-.95.24-1.41.12-.46.07-.97.2-1.43.13-.46.41-.87.55-1.33.14-.45.11-.97.26-1.42.15-.45.23-.93.39-1.39.16-.45.71-.76.88-1.21.17-.45,0-1.02.17-1.47.17-.45.41-.87.59-1.31.18-.45.24-.93.42-1.38s.32-.9.5-1.35c.18-.45.69-.76.87-1.2.18-.45.21-.95.38-1.39.17-.44.47-.82.64-1.26.44-.47.82-.99,1.28-1.08.59-.11.96.41,1.28.9.24.37.74.8.64,1.5-.07.47-.31.98-.47,1.51-.14.47-.37.95-.57,1.45-.19.47-.5.91-.71,1.39-.21.48-.41.96-.62,1.43-.22.49-.38.99-.58,1.45-.22.51-.6.93-.75,1.38-.16.45-.18.99-.35,1.48-.16.46-.07,1.03-.23,1.52-.15.47-.63.85-.78,1.34-.15.48-.34.95-.48,1.44-.14.49-.15,1.01-.28,1.5-.13.49-.02,1.04-.13,1.53-.12.5-.13,1.01-.23,1.5-.1.51-.65.93-.72,1.41-.08.52-.07,1.04-.11,1.52-.04.48-.13.98-.13,1.45,0,.49.06.98.09,1.45.04.48.2.96.28,1.43.08.48.16.96.27,1.42.11.47.26.93.4,1.39.14.46.47.85.64,1.3.17.45.41.86.61,1.3.19.44.04,1.04.26,1.47.21.43.68.73.91,1.15.23.42.26.96.5,1.37.24.41.5.82.75,1.23.25.41.64.73.9,1.14.26.41.69.7.95,1.1.26.4.53.8.79,1.21.26.4.17,1.03.42,1.43.25.41.78.65,1.02,1.06.25.41.34.91.58,1.33.24.42.35.9.57,1.32.22.43.53.8.73,1.24.21.43.63.77.82,1.21.18.44.39.89.55,1.34.16.45.14.97.26,1.43.12.46.26.93.35,1.4.09.47-.09.97-.04,1.45.05.47.48.93.49,1.41,0,.47-.43.94-.47,1.42-.03.47.05.95-.03,1.43-.07.46.16,1,.05,1.48-.11.46-.65.8-.8,1.27-.14.44-.23.91-.41,1.37-.18.46-.44.88-.63,1.33-.2.46-.1,1.04-.31,1.47-.21.45-.52.85-.74,1.28-.22.44-.59.81-.81,1.24-.23.44-.45.88-.67,1.31-.23.44-.24.99-.47,1.42-.23.44-.5.85-.72,1.28-.22.44-.48.86-.69,1.3-.21.44-.29.94-.49,1.39-.2.45-.34.9-.53,1.36-.18.45-.47.85-.63,1.32-.16.46-.52.85-.66,1.33-.14.46-.04.99-.16,1.47-.11.47-.08.96-.17,1.45-.08.47-.35.92-.41,1.41-.06.47.07.97.03,1.47-.03.48-.37.95-.38,1.45-.01.48-.08.98-.07,1.48.01.46.03.96.1,1.43.07.46.44.87.56,1.33.12.44,0,.98.16,1.43.15.44.57.78.76,1.22.18.43.36.86.57,1.28.21.42.31.9.53,1.31.23.41.39.86.64,1.26.24.4.61.73.87,1.12.26.4.44.84.71,1.22.27.39.82.58,1.09.96.28.39.47.83.74,1.2.29.39.66.69.93,1.05.29.38.2.75.48,1.11-.25.41-.31.17-.59.6"/><path d="M134.54,152.57c-.02-.36.18-1.04.02-.72-.27.55.1.64-.38,1.02-.47.38-.46.29-1.07.26-.6-.03-.57-.15-1.13-.36-.11-.45-.28-.72-.3-1.17-.01-.45.32-.87.37-1.33.05-.44-.16-.93-.07-1.37.09-.44.43-.83.53-1.27.1-.44-.14-.95-.06-1.4.09-.44.18-.88.23-1.32.05-.45.05-.88.04-1.33,0-.48.01-.95-.02-1.42-.03-.48-.1-.95-.15-1.41-.05-.48.27-1,.2-1.46-.07-.48-.31-.92-.4-1.38-.09-.47-.1-.96-.2-1.41-.11-.47-.39-.89-.52-1.34-.13-.46-.05-.99-.2-1.43-.15-.45-.65-.78-.82-1.22-.17-.44-.39-.86-.58-1.29-.19-.44-.11-.99-.32-1.41-.2-.43-.52-.8-.74-1.22-.22-.42-.43-.85-.65-1.26-.22-.41-.35-.89-.58-1.3-.23-.41-.46-.83-.69-1.24-.23-.41-.46-.82-.7-1.23-.24-.4-.63-.72-.87-1.13-.24-.41-.26-.93-.5-1.35-.23-.41-.44-.83-.67-1.25-.23-.41-.78-.65-1.01-1.07-.22-.41-.37-.87-.58-1.3-.21-.42-.56-.78-.77-1.21-.2-.42-.07-1.01-.26-1.45-.2-.44-.43-.85-.6-1.29-.18-.45-.63-.8-.78-1.24-.15-.46.16-1.05.04-1.5-.13-.47-.53-.85-.62-1.31-.1-.47.13-.99.06-1.45-.07-.48-.22-.93-.25-1.4-.03-.48-.11-.94-.11-1.41,0-.48-.01-.95.02-1.42.03-.48-.15-.97-.1-1.44.06-.47.11-.96.19-1.42.08-.47.5-.87.61-1.33.11-.46.07-.96.2-1.42.13-.46.09-.97.24-1.42.15-.45.58-.81.74-1.26.16-.44.35-.88.52-1.32.17-.44.42-.85.6-1.29.18-.44.2-.94.38-1.38.18-.44.37-.87.56-1.31.19-.43.51-.81.7-1.25.19-.43.31-.9.5-1.34.19-.43.19-.95.38-1.39.18-.44.27-.91.45-1.35.18-.44.61-.78.78-1.22.17-.44.48-.84.64-1.29.16-.45-.05-1.02.1-1.48.15-.45.33-.88.46-1.34.13-.45.32-.89.43-1.36.12-.46.26-.91.36-1.38.1-.48.12-.98.21-1.46.09-.48.28-.95.35-1.43.07-.49-.04-1,.02-1.48.06-.49.37-.95.42-1.44.04-.49-.09-.99-.07-1.48.02-.49.1-.98.1-1.47,0-.49.06-.98.04-1.48-.01-.49-.2-.97-.24-1.46-.04-.49-.18-.96-.24-1.45-.06-.49.21-1.02.12-1.51s-.41-.92-.52-1.4c-.11-.48-.14-.97-.28-1.45-.13-.47-.32-.93-.48-1.39-.16-.46-.37-.9-.56-1.36-.16-.38-.24-.84-.45-1.28-.19-.39-.62-.68-.83-1.09-.21-.39-.12-.95-.33-1.36-.21-.4-.35-.84-.56-1.24-.21-.41-.76-.65-.94-1.05-.21-.43-.13-.96-.28-1.36-.18-.46-.63-.81-.71-1.2-.11-.53.34-.89.68-1.14.33-.24.75-.52,1.23-.44.41.07.94.24,1.28.59.23.24.38.78.71,1.3.23.36.41.82.67,1.28.23.4.57.76.81,1.2.22.42.43.86.65,1.3.22.44.36.91.57,1.34.22.45.67.78.87,1.2.22.48.13,1.05.31,1.45.24.55.54.97.65,1.29.15.46.15.97.27,1.45.12.47.29.93.39,1.42.09.47.37.93.44,1.42.07.48-.19,1-.14,1.5.05.48.04.97.07,1.46.03.49.11.97.12,1.46.01.49.33.98.33,1.47,0,.49-.02.98-.04,1.48-.02.49-.1.98-.13,1.47-.03.49-.33.96-.38,1.45-.05.49.25,1.02.19,1.5-.06.49-.25.96-.32,1.45-.07.49-.06.99-.15,1.47-.09.49-.42.93-.52,1.4-.1.49-.05,1-.17,1.47-.12.49-.02,1.02-.15,1.48-.13.48-.59.86-.74,1.32-.15.46-.1.99-.27,1.44-.17.45-.26.94-.45,1.39-.18.45-.47.85-.67,1.3-.19.44-.28.94-.48,1.38-.2.44-.48.84-.69,1.28-.2.44-.53.82-.74,1.26-.2.44-.5.83-.71,1.27-.2.44-.32.92-.51,1.36-.19.44-.43.87-.61,1.32-.18.45-.34.91-.51,1.36-.17.46-.1.99-.25,1.45-.15.47-.47.88-.6,1.32-.13.48-.23.95-.34,1.4-.12.48-.28.94-.37,1.4-.09.49-.29.95-.35,1.41-.07.49.29,1.01.26,1.47-.04.49-.49.95-.49,1.42,0,.49.04.99.07,1.45.04.49.38.93.46,1.4.08.48.12.95.23,1.41.12.47.16.96.31,1.41.15.45.55.81.73,1.25.19.44.32.89.53,1.33.21.42.42.85.65,1.28.22.41.53.79.77,1.21.23.41.17,1,.42,1.42.24.4.69.69.94,1.11.24.4.65.71.9,1.13.24.4.28.94.52,1.36.24.4.28.93.52,1.35.23.41.86.61,1.09,1.04.22.41.45.84.67,1.28.22.42.36.88.57,1.31.21.43.19.96.39,1.39.19.43.61.77.79,1.21.18.44.1.98.28,1.43.17.44.48.83.64,1.28.16.45.07.97.22,1.43.14.45.37.88.5,1.33.13.46.14.94.25,1.4.11.46.36.89.45,1.35.1.47.13.94.21,1.41.08.47.03.95.09,1.42.06.47.1.94.14,1.41.04.47.1.94.12,1.41.02.48.32.95.31,1.42,0,.48.02.96-.01,1.43-.03.48-.43.91-.49,1.38-.06.47.31,1.01.23,1.47-.08.47-.53.86-.64,1.33-.06.26.11.93-.04,1.5-.16.62-.47,1.2-.56,1.38-.05.11-.38.29-.42.22"/><path d="M79.4,147.82c-.49.08-.53-.37-.83.03-.37.49.43.56.3,1.16-.45-.23-1.06-.26-1.41-.08-.37.19-.63.52-1.06.31-.18-.09-.55-.55-1.04-1.16-.31-.37-.7-.76-1.04-1.2-.33-.43-.53-.97-.82-1.37-.42-.57-.76-1.05-.92-1.28-.28-.4-.88-.58-1.14-.98-.27-.41-.28-.98-.53-1.38-.25-.42-.64-.75-.87-1.17-.24-.43-.55-.81-.77-1.24-.22-.44-.43-.88-.62-1.31-.2-.44-.25-.95-.43-1.39-.18-.45-.36-.9-.51-1.35-.16-.46-.45-.88-.58-1.33-.13-.47-.09-.98-.2-1.45-.11-.47-.19-.95-.27-1.42-.08-.48-.15-.95-.2-1.43-.05-.48.05-.96.03-1.45-.02-.48-.09-.95-.08-1.43,0-.48.16-.95.19-1.43.03-.48-.11-.97-.05-1.45.06-.47-.04-.97.05-1.45.08-.47.22-.94.33-1.41.1-.47.4-.89.52-1.36.12-.46.07-.97.21-1.44.14-.46.15-.96.3-1.42.15-.45.56-.82.73-1.28.17-.45.28-.92.46-1.37.18-.44.35-.9.54-1.34.19-.44.45-.85.66-1.29.2-.44.3-.91.52-1.34.21-.43.27-.94.49-1.36.22-.42.59-.77.82-1.19.23-.42.45-.84.68-1.26.22-.42.67-.73.88-1.16.21-.43.17-.98.36-1.41.19-.44.66-.77.82-1.22.16-.45-.13-1.04,0-1.5.12-.46.33-.88.41-1.35.08-.46.07-.93.1-1.41.03-.47.01-.92,0-1.41-.02-.48.34-1.02.25-1.49-.09-.47-.64-.83-.8-1.29-.15-.45-.22-.93-.42-1.38-.2-.43-.52-.8-.76-1.23-.23-.42-.08-1.07-.34-1.49-.26-.41-.84-.61-1.12-1.01-.27-.4-.38-.92-.67-1.31-.29-.39-.78-.63-1.07-1.01-.29-.39-.64-.74-.93-1.12-.3-.39-.25-1.03-.54-1.41-.3-.39-.82-.61-1.1-.99-.29-.4-.5-.85-.76-1.24-.27-.41-.49-.85-.73-1.25-.25-.43-.35-.92-.57-1.35-.22-.44-.78-.72-.97-1.17-.19-.46-.21-.98-.36-1.43-.15-.47-.19-.97-.31-1.43-.12-.48-.5-.91-.57-1.38-.08-.49-.09-.99-.12-1.47-.04-.49-.01-.99,0-1.47,0-.49.37-.96.41-1.44.04-.49-.03-.97.05-1.46.08-.48.01-.99.13-1.46.11-.47.32-.93.46-1.39.14-.46.51-.85.67-1.31.16-.46.03-1.03.21-1.48.19-.45.51-.84.71-1.28.21-.44.45-.86.67-1.3.22-.43.37-.9.61-1.33.24-.42.35-.92.6-1.35.25-.42.64-.75.9-1.16.26-.41.7-.71.97-1.11.26-.41.32-.95.6-1.36.27-.4.47-.86.75-1.26.28-.4.82-.62,1.1-1.02.28-.4.5-.84.78-1.24s.36-.92.64-1.31c.06-.2.67-.26,1.17-.3.54-.04,1.22-.14,1.27-.11.23.18.42.76.54,1.24.12.46-.01.96-.08,1.25-.09.37-.06.97-.36,1.49-.23.4-.85.62-1.15,1.06-.27.4-.33.98-.64,1.39-.3.41-.62.81-.91,1.21-.32.43-.64.82-.92,1.2-.34.47-.84.76-1.05,1.11-.26.41-.28.97-.53,1.39-.24.42-.44.87-.66,1.3-.23.43-.46.85-.67,1.29-.21.44-.38.9-.56,1.34-.19.45-.65.8-.81,1.25-.16.46-.12.99-.25,1.46-.13.47-.26.94-.36,1.41-.1.48-.24.95-.3,1.43-.06.48-.2.97-.22,1.46-.02.48.06.98.09,1.47.03.48-.06,1,.01,1.48.07.48.17.98.29,1.45.12.46.59.83.76,1.3.16.45.43.85.64,1.3.2.43.12,1.02.37,1.45.23.41.62.74.89,1.16.26.4.68.69.97,1.09.28.39.4.89.7,1.28.29.38.72.66,1.02,1.05.29.38.4.91.7,1.29.3.38.58.77.88,1.16s.79.62,1.07,1.02c.28.4.34.95.6,1.35.27.41.52.82.76,1.23.25.42.42.87.64,1.3.22.44.75.73.93,1.18.18.45.35.93.47,1.4.13.47-.01,1,.06,1.48.07.49.07.97.09,1.44.02.49.08.97.06,1.44-.02.49-.07.97-.13,1.44-.06.48-.26.93-.36,1.4-.1.47-.04.98-.17,1.44-.13.46-.43.87-.59,1.33-.16.45-.11.99-.29,1.44-.18.44-.67.76-.87,1.2-.2.44-.1,1.02-.31,1.45-.21.43-.75.7-.97,1.13-.22.43-.23.96-.45,1.39-.22.43-.3.93-.52,1.36-.22.43-.7.73-.91,1.16-.21.43-.22.96-.42,1.4-.2.44-.53.82-.72,1.27-.18.45-.39.89-.56,1.34-.16.46-.36.91-.51,1.36-.15.47.06,1.03-.07,1.49-.13.47-.41.89-.52,1.35-.12.47-.36.91-.45,1.38-.1.48-.28.94-.35,1.41-.07.48-.05.98-.1,1.45-.05.48.25.98.24,1.46-.02.48-.15.95-.14,1.43.01.48.05.95.1,1.43.05.48-.08.98,0,1.45.08.47.31.92.42,1.39.11.46-.04,1.01.1,1.47.14.45.53.83.7,1.29.17.44.44.85.64,1.29.19.43.4.86.61,1.3.21.42.35.89.59,1.31.23.41.49.82.75,1.23.25.4.64.71.92,1.12.24.36.55.7.86,1.08.29.35.53.75.85,1.11.31.35.42.89.72,1.24.32.37.81.57,1.08.92.31.4.55.82.76,1.18.19.34.25.48.19.88"/><path d="M94.66,136.91c-.05.08.36.54.28.79-.15.46-.19.97-.34,1.44-.15.47-.4.9-.56,1.37-.15.46-.32.92-.48,1.39-.16.46-.59.82-.76,1.29-.17.45-.15.98-.35,1.44-.11.26-.43.77-.73,1.43-.21.46-.14,1.1-.38,1.6-.24.51-.86.82-1.09,1.26-.37.7-.41,1.51-.59,1.62-.6.34-1.23.52-1.66.51-.6-.01-.85-.6-.99-1.22-.1-.42-.22-.93-.05-1.59.09-.35.33-.74.54-1.21.18-.38.37-.78.59-1.19.2-.39.44-.77.65-1.16.22-.4.49-.77.68-1.15.22-.43.35-.88.5-1.24.18-.46.44-.88.6-1.33.17-.46.05-1.02.2-1.47.16-.47.26-.94.4-1.4.14-.47.26-.94.37-1.4.12-.48.15-.96.24-1.43.1-.48.33-.92.4-1.4.07-.48.1-.96.14-1.44.04-.49.15-.96.17-1.44.01-.48.13-.97.11-1.46-.02-.48.11-.99.06-1.47-.05-.48-.49-.91-.58-1.39-.09-.47.17-1.02.05-1.5-.12-.46-.58-.84-.73-1.31-.15-.45-.41-.86-.59-1.32-.17-.44.01-1.05-.19-1.5-.2-.43-.67-.74-.9-1.18-.23-.44-.56-.81-.79-1.23-.24-.43-.43-.88-.68-1.3-.25-.42-.16-1.05-.42-1.47-.26-.42-.78-.67-1.04-1.08-.26-.42-.4-.9-.65-1.32-.26-.42-.69-.73-.93-1.16-.25-.42-.42-.89-.65-1.32-.23-.43-.59-.8-.79-1.25-.2-.44-.21-.98-.39-1.44-.17-.45-.35-.91-.5-1.38-.14-.46-.36-.91-.47-1.4-.11-.47-.12-.97-.19-1.47-.07-.47-.15-.96-.19-1.46-.03-.49-.2-.97-.2-1.45,0-.49.2-.97.23-1.44.03-.48.05-.97.11-1.44.06-.48.18-.95.27-1.42.09-.47.4-.89.52-1.36.12-.47.24-.92.38-1.38.14-.46.24-.93.4-1.38.16-.45.06-1.01.24-1.45.18-.45.4-.88.59-1.32.19-.44.66-.76.86-1.19.2-.44.26-.94.47-1.37.21-.43.38-.88.6-1.31.21-.43.29-.93.51-1.36.22-.43.74-.71.95-1.13.22-.43.42-.87.63-1.3.21-.43.37-.89.58-1.32.21-.43.43-.86.63-1.3.2-.44.31-.91.49-1.36s.32-.9.49-1.35c.17-.45.54-.83.69-1.29.15-.46-.06-1.02.07-1.48.12-.46.25-.92.35-1.39.1-.47.49-.89.56-1.37.07-.47.14-.96.18-1.44.04-.48-.2-.98-.19-1.46.01-.48-.11-.96-.12-1.44-.01-.48.03-.96,0-1.44-.03-.48.22-.99.16-1.47-.06-.48-.39-.92-.47-1.39-.08-.48-.06-.97-.16-1.44-.1-.47-.24-.93-.37-1.4-.13-.47-.13-.97-.28-1.43-.15-.46-.25-.95-.42-1.4-.17-.45-.43-.88-.62-1.32-.19-.44-.33-.92-.54-1.35-.21-.43-.47-.85-.7-1.27-.23-.42-.53-.81-.78-1.23-.25-.41-.6-.76-.87-1.16-.27-.4-.46-.83-.74-1.22-.13-.69.07-1.07.33-1.44.32-.45.68-.65,1.27-.58.48.06.9.3,1.35.72.34.32.72.6,1.03.99.29.36.42.84.69,1.26.26.39.59.74.82,1.17.22.41.69.72.9,1.16.2.43.08,1,.26,1.46.18.44.4.86.57,1.32.16.45.39.88.53,1.34.14.46.16.95.28,1.41.12.46.58.85.69,1.31.11.47-.15,1.02-.06,1.49.09.48.19.94.26,1.41.08.48.23.94.29,1.41.06.49,0,.97.05,1.44.04.49.08.97.1,1.43.02.5.06.97.06,1.43,0,.5.27.99.23,1.45-.03.48-.35.94-.41,1.42-.06.48.12,1,.03,1.48-.09.48-.18.96-.3,1.43-.12.47-.36.91-.5,1.37-.14.46-.27.93-.43,1.39-.16.46-.54.83-.72,1.28-.17.45-.38.88-.56,1.33-.19.45-.14.99-.34,1.43-.2.44-.62.78-.83,1.22-.2.44-.37.89-.58,1.33-.21.44-.28.94-.5,1.38-.21.44-.49.84-.7,1.28-.21.44-.35.91-.56,1.34-.21.44-.26.95-.46,1.39-.21.44-.42.87-.62,1.31-.2.45-.64.78-.82,1.23-.19.45-.25.95-.42,1.4-.17.46-.44.87-.6,1.33-.15.46-.23.95-.36,1.41-.13.47-.31.93-.41,1.4-.1.47.12,1,.05,1.48-.07.48-.39.92-.42,1.41-.04.48-.23.97-.23,1.45,0,.48.39.95.43,1.44.04.48-.24,1-.15,1.49.08.47.34.92.46,1.4.12.46.39.88.55,1.35.15.45.14.97.34,1.43.19.43.32.92.54,1.36.22.43.74.69.96,1.1.23.42.43.85.66,1.25.24.42.22.98.46,1.38.25.41.47.84.71,1.23.25.41.73.67.98,1.07.25.41.38.88.62,1.29.24.41.63.74.86,1.15.23.41.56.78.78,1.2.21.42.16.97.36,1.4.19.43.69.73.86,1.18.16.44-.11,1.03.03,1.49.14.44.64.79.75,1.26.11.45.21.92.29,1.4.08.45.13.93.18,1.41.05.46-.22.96-.19,1.44.03.46.09.93.09,1.42,0,.44.2.9.18,1.38-.02.45-.22.9-.27,1.36-.05.46.04.94-.05,1.39-.09.47-.06.98-.21,1.39-.16.46-.74.69-.97,1.06"/></svg>