<?xml version="1.0" encoding="UTF-8"?><svg id="Layer_1" xmlns="http://www.w3.org/2000/svg" viewBox="0 0 200 200"><path d="M124.66,139.54c-.38.47-1.29.52-1.97.42-.68-.09-1.36-.47-1.7-.87-.28-.33-.55-1.07-.81-1.93-.19-.65-.34-1.37-.51-2.04-.21-.82-.55-1.48-.7-1.93-.42-.44-.37-.05-.43.37-.05.4-.02.97-.03,1.61-.01.51-.01,1.07-.05,1.62-.04.56.08,1.17-.03,1.66-.14.63-.75.82-1.09,1.09-.29-.01-.76.21-1.32.15-.62-.06-1.05-.35-1.21-.49-.36-.3-.71-.72-.74-1.46-.03-.55-.06-1.18,0-1.81.06-.61.4-1.19.48-1.75.1-.73-.07-1.39-.06-1.81.02-.61.34-1.21.35-1.79,0-.61-.36-1.21-.37-1.79-.01-.61-.2-1.2-.23-1.78-.03-.61.32-1.23.28-1.81-.05-.61-.15-1.2-.21-1.78-.07-.6-.39-1.16-.47-1.74-.08-.6.04-1.22-.06-1.8-.1-.59-.39-1.14-.5-1.72-.12-.58-.13-1.18-.26-1.76-.13-.58-.33-1.14-.47-1.72-.14-.57,0-1.22-.15-1.8-.15-.57-.54-1.08-.7-1.66-.15-.56-.1-1.19-.26-1.78-.15-.56-.62-1.05-.77-1.64-.15-.56.01-1.22-.14-1.81-.15-.56-.22-1.16-.37-1.75-.15-.59-.46-1.13-.61-1.72-.14-.59-.08-1.23-.22-1.82-.14-.59-.71-1.08-.85-1.67-.14-.59-.18-1.2-.31-1.79-.14-.59-.42-1.15-.55-1.74-.13-.59-.17-1.2-.3-1.8-.13-.59.09-1.26-.04-1.85-.13-.59-.17-1.2-.3-1.79-.13-.59-.4-1.15-.53-1.74-.13-.59-.58-1.11-.71-1.7-.13-.59-.22-1.19-.35-1.78-.13-.59-.25-1.18-.39-1.78-.13-.59-.11-1.22-.25-1.81s-.38-1.16-.52-1.75c-.14-.59-.17-1.2-.31-1.79-.14-.59-.23-1.19-.37-1.78s-.59-1.1-.74-1.69c-.15-.59-.15-1.21-.3-1.8-.15-.59-.08-1.23-.24-1.82-.13-.47-.63-1-.87-1.69-.19-.55-.47-1.13-.67-1.75-.2-.59-.34-1.23-.51-1.82-.18-.64.01-1.34-.09-1.91-.13-.75-.14-1.3,0-1.76.2-.66.58-1.06,1.2-1.21.65-.15,1.44-.17,1.85.35.22.28.26,1.05.55,1.85.2.55.68,1.08.88,1.71.2.62.2,1.31.37,1.88.23.76.39,1.43.52,1.83.18.59.46,1.16.64,1.75.17.6.23,1.22.4,1.82.17.6.29,1.21.45,1.81.16.6.72,1.09.88,1.7.16.6-.03,1.29.11,1.9.15.6.09,1.25.23,1.86.15.6.41,1.18.55,1.78.14.6.23,1.22.36,1.83.14.61.62,1.13.76,1.74.14.61-.14,1.3,0,1.91.13.61.57,1.15.7,1.76.13.61-.01,1.28.12,1.88.13.61.31,1.2.45,1.81.13.61.71,1.11.85,1.72.13.61.18,1.38.31,1.99.34-.36.2-.58.26-1.07-.02-.6-.43-1.21-.44-1.81s-.11-1.19-.12-1.79c-.02-.6.51-1.21.49-1.8-.02-.6-.58-1.18-.59-1.78-.02-.6-.01-1.19-.03-1.79-.02-.6.39-1.2.37-1.8-.02-.6-.48-1.18-.5-1.77-.02-.6.42-1.21.39-1.81-.02-.59-.12-1.19-.15-1.78-.03-.6.13-1.2.1-1.8-.03-.59-.29-1.18-.33-1.77s-.41-1.17-.46-1.76c-.04-.59.29-1.22.24-1.81-.05-.59-.24-1.18-.29-1.77-.06-.59-.21-1.17-.28-1.77-.06-.59.26-1.23.18-1.82-.07-.59-.45-1.15-.54-1.74,0-.68.01-1.36.18-1.92.21-.71.58-1.35.99-1.69.49-.4,1.3-.51,1.95-.06.39.28.93.85,1.34,1.54.19.9-.17.97-.11,1.88.07.92.06.92.12,1.84.07.91.05.92.11,1.83.07.91.19.91.26,1.82.07.92.28.9.34,1.82.07.92-.47.95-.4,1.87.07.92.5.89.56,1.8.07.92.18.91.24,1.83.07.92-.47.96-.4,1.87.07.92.27.9.33,1.82.07.92.33.9.39,1.82.07.92-.13.94-.1,1.86.03.85-.31.85-.32,1.7,0,.85.13.85.13,1.7,0,.85.46.85.45,1.7,0,.85.04.85.04,1.71,0,.85-.45.85-.45,1.7,0,.85.06.85.06,1.71,0,.86.07.86.07,1.71s.2.85.22,1.7c.07.63-.17,1.28-.12,1.92.05.64-.07,1.28-.04,1.92.03.64.58,1.25.61,1.89.02.64-.4,1.29-.37,1.93.02.64.18,1.27.21,1.91.03.64-.21,1.3-.17,1.93.04.64.28,1.27.34,1.9.06.64.17,1.27.25,1.9.08.64.52,1.21.64,1.83.1.57.05,1.17.19,1.75.14.56-.06,1.22.11,1.8.16.56.51,1.07.7,1.63.18.56.54,1.06.73,1.61.19.55.55,1.05.76,1.6.2.55.03,1.24.23,1.79.21.55.37,1.12.58,1.67.21.55.49,1.08.69,1.62.21.55.48,1.08.67,1.63.2.56.27,1.16.45,1.71.19.56.62,1.04.78,1.6.17.57.3,1.15.44,1.71.11.42-.01,1.02.13,1.57.13.51.59.99.61,1.48.02.57-.03,1.26-.34,1.65"/><path d="M124.66,139.54c-.38.47-1.29.52-1.97.42-.68-.09-1.36-.47-1.7-.87-.28-.33-.55-1.07-.81-1.93-.19-.65-.34-1.37-.51-2.04-.21-.82-.55-1.48-.7-1.93-.42-.44-.37-.05-.43.37-.05.4-.02.97-.03,1.61-.01.51-.01,1.07-.05,1.62-.04.56.08,1.17-.03,1.66-.14.63-.75.82-1.09,1.09-.29-.01-.76.21-1.32.15-.62-.06-1.05-.35-1.21-.49-.36-.3-.71-.72-.74-1.46-.03-.55-.06-1.18,0-1.81.06-.61.4-1.19.48-1.75.1-.73-.07-1.39-.06-1.81.02-.61.34-1.21.35-1.79,0-.61-.36-1.21-.37-1.79-.01-.61-.2-1.2-.23-1.78-.03-.61.32-1.23.28-1.81-.05-.61-.15-1.2-.21-1.78-.07-.6-.39-1.16-.47-1.74-.08-.6.04-1.22-.06-1.8-.1-.59-.39-1.14-.5-1.72-.12-.58-.13-1.18-.26-1.76-.13-.58-.33-1.14-.47-1.72-.14-.57,0-1.22-.15-1.8-.15-.57-.54-1.08-.7-1.66-.15-.56-.1-1.19-.26-1.78-.15-.56-.62-1.05-.77-1.64-.15-.56.01-1.22-.14-1.81-.15-.56-.22-1.16-.37-1.75-.15-.59-.46-1.13-.61-1.72-.14-.59-.08-1.23-.22-1.82-.14-.59-.71-1.08-.85-1.67-.14-.59-.18-1.2-.31-1.79-.14-.59-.42-1.15-.55-1.74-.13-.59-.17-1.2-.3-1.8-.13-.59.09-1.26-.04-1.85-.13-.59-.17-1.2-.3-1.79-.13-.59-.4-1.15-.53-1.74-.13-.59-.58-1.11-.71-1.7-.13-.59-.22-1.19-.35-1.78-.13-.59-.25-1.18-.39-1.78-.13-.59-.11-1.22-.25-1.81s-.38-1.16-.52-1.75c-.14-.59-.17-1.2-.31-1.79-.14-.59-.23-1.19-.37-1.78s-.59-1.1-.74-1.69c-.15-.59-.15-1.21-.3-1.8-.15-.59-.08-1.23-.24-1.82-.13-.47-.63-1-.87-1.69-.19-.55-.47-1.13-.67-1.75-.2-.59-.34-1.23-.51-1.82-.18-.64.01-1.34-.09-1.91-.13-.75-.14-1.3,0-1.76.2-.66.58-1.06,1.2-1.21.65-.15,1.44-.17,1.85.35.22.28.26,1.05.55,1.85.2.55.68,1.08.88,1.71.2.62.2,1.31.37,1.88.23.76.39,1.43.52,1.83.18.59.46,1.16.64,1.75.17.6.23,1.22.4,1.82.17.6.29,1.21.45,1.81.16.6.72,1.09.88,1.7.16.6-.03,1.29.11,1.9.15.6.09,1.25.23,1.86.15.6.41,1.18.55,1.78.14.6.23,1.22.36,1.83.14.61.62,1.13.76,1.74.14.61-.14,1.3,0,1.91.13.61.57,1.15.7,1.76.13.61-.01,1.28.12,1.88.13.61.31,1.2.45,1.81.13.61.71,1.11.85,1.72.13.61.18,1.38.31,1.99.34-.36.2-.58.26-1.07-.02-.6-.43-1.21-.44-1.81s-.11-1.19-.12-1.79c-.02-.6.51-1.21.49-1.8-.02-.6-.58-1.18-.59-1.78-.02-.6-.01-1.19-.03-1.79-.02-.6.39-1.2.37-1.8-.02-.6-.48-1.18-.5-1.77-.02-.6.42-1.21.39-1.81-.02-.59-.12-1.19-.15-1.78-.03-.6.13-1.2.1-1.8-.03-.59-.29-1.18-.33-1.77s-.41-1.17-.46-1.76c-.04-.59.29-1.22.24-1.81-.05-.59-.24-1.18-.29-1.77-.06-.59-.21-1.17-.28-1.77-.06-.59.26-1.23.18-1.82-.07-.59-.45-1.15-.54-1.74,0-.68.01-1.36.18-1.92.21-.71.58-1.35.99-1.69.49-.4,1.3-.51,1.95-.06.39.28.93.85,1.34,1.54.19.9-.17.97-.11,1.88.07.92.06.92.12,1.84.07.91.05.92.11,1.83.07.91.19.91.26,1.82.07.92.28.9.34,1.82.07.92-.47.95-.4,1.87.07.92.5.89.56,1.8.07.92.18.91.24,1.83.07.92-.47.96-.4,1.87.07.92.27.9.33,1.82.07.92.33.9.39,1.82.07.92-.13.94-.1,1.86.03.85-.31.85-.32,1.7,0,.85.13.85.13,1.7,0,.85.46.85.45,1.7,0,.85.04.85.04,1.71,0,.85-.45.85-.45,1.7,0,.85.06.85.06,1.71,0,.86.07.86.07,1.71s.2.85.22,1.7c.07.63-.17,1.28-.12,1.92.05.64-.07,1.28-.04,1.92.03.64.58,1.25.61,1.89.02.64-.4,1.29-.37,1.93.02.64.18,1.27.21,1.91.03.64-.21,1.3-.17,1.93.04.64.28,1.27.34,1.9.06.64.17,1.27.25,1.9.08.64.52,1.21.64,1.83.1.57.05,1.17.19,1.75.14.56-.06,1.22.11,1.8.16.56.51,1.07.7,1.63.18.56.54,1.06.73,1.61.19.55.55,1.05.76,1.6.2.55.03,1.24.23,1.79.21.55.37,1.12.58,1.67.21.55.49,1.08.69,1.62.21.55.48,1.08.67,1.63.2.56.27,1.16.45,1.71.19.56.62,1.04.78,1.6.17.57.3,1.15.44,1.71.11.42-.01,1.02.13,1.57.13.51.59.99.61,1.48.02.57-.03,1.26-.34,1.65"/><path d="M95.19,137.75c-.72.18-1.39-.17-1.89-.15-.83.03-1.16-.08-1.5-.41-.4-.39-.84-.76-.86-1.47-.01-.55-.13-1.2-.06-1.86.06-.6.56-1.19.57-1.8.01-.6-.1-1.21-.08-1.82.01-.6-.23-1.21-.22-1.82.01-.61.05-1.21.06-1.82.01-.6.09-1.21.1-1.81.01-.6.29-1.21.29-1.81,0-.6-.17-1.21-.16-1.82,0-.61,0-1.21,0-1.82,0-.6.05-1.21.05-1.82,0-.61-.06-1.21-.06-1.82,0-.61.37-1.21.38-1.81,0-.6-.2-1.21-.19-1.82s-.29-1.21-.29-1.82c0-.61.25-1.21.25-1.82,0-.61.1-1.21.1-1.82,0-.61-.19-1.21-.19-1.82,0-.61.03-1.21.03-1.82,0-.61.02-1.21.02-1.82,0-.61-.18-1.21-.18-1.82,0-.61.39-1.21.39-1.82,0-.6.04-1.21.03-1.82,0-.61-.24-1.21-.24-1.82,0-.61.21-1.21.21-1.82s.06-1.21.05-1.82c0-.6-.35-1.21-.35-1.82,0-.6.04-1.21.04-1.82,0-.6-.17-1.21-.17-1.81,0-.6.24-1.21.24-1.81,0-.6.2-1.21.2-1.81,0-.6.07-1.23.06-1.88-.01-.61-.28-1.23-.3-1.87-.02-.62.2-1.25.18-1.89-.02-.62-.09-1.25-.1-1.88-.02-.63-.03-1.25-.04-1.88-.02-.63-.26-1.25-.26-1.88,0-.63-.31-1.26-.31-1.88,0-.64.16-1.27.18-1.89.02-.64.43-1.25.47-1.86.04-.65-.35-1.31-.28-1.91.1-.88.68-1.41,1.14-1.71.57-.37,1.29-.36,1.92.03.52.32,1.09.83,1.32,1.57.17.55,0,1.18.01,1.8.02.58.36,1.18.34,1.78-.02.6-.2,1.18-.17,1.76.03.6-.21,1.23-.03,1.78-.01.6.13,1.17.12,1.77-.01.6.22,1.21.22,1.81,0,.6-.27,1.2-.28,1.81,0,.6.35,1.21.35,1.81,0,.6-.02,1.2-.03,1.81s-.39,1.2-.39,1.81c0,.6-.13,1.21-.13,1.81s.39,1.2.39,1.81c0,.6-.41,1.21-.41,1.81,0,.6.08,1.2.08,1.81,0,.6.27,1.2.27,1.81,0,.6.17,1.2.17,1.81,0,.6-.2,1.21-.19,1.81,0,.6.21,1.2.22,1.81,0,.6-.27,1.21-.27,1.81,0,.6.08,1.21.09,1.81,0,.6.07,1.21.08,1.81,0,.6-.2,1.21-.2,1.81,0,.6.21,1.21.21,1.81,0,.6-.38,1.21-.37,1.81,0,.6.05,1.21.05,1.81,0,.6.32,1.21.32,1.81,0,.6.16,1.21.16,1.81,0,.6-.13,1.21-.14,1.81,0,.6-.02,1.21-.03,1.81,0,.6-.03,1.21-.04,1.81,0,.6.12,1.21.11,1.81-.01.6-.36,1.2-.38,1.8-.01.6-.02,1.21-.03,1.81-.02.6-.08,1.2-.1,1.81-.02.6.32,1.22.3,1.82-.02.6-.07,1.2-.1,1.81-.03.6-.1,1.2-.12,1.8-.03.6-.08,1.2-.12,1.8-.03.6-.35,1.19-.39,1.79-.02.36-.02.99,0,1.68.01.55.47,1.15.44,1.68-.04.75-.3,1.53-.55,1.74"/><path d="M95.19,137.75c-.72.18-1.39-.17-1.89-.15-.83.03-1.16-.08-1.5-.41-.4-.39-.84-.76-.86-1.47-.01-.55-.13-1.2-.06-1.86.06-.6.56-1.19.57-1.8.01-.6-.1-1.21-.08-1.82.01-.6-.23-1.21-.22-1.82.01-.61.05-1.21.06-1.82.01-.6.09-1.21.1-1.81.01-.6.29-1.21.29-1.81,0-.6-.17-1.21-.16-1.82,0-.61,0-1.21,0-1.82,0-.6.05-1.21.05-1.82,0-.61-.06-1.21-.06-1.82,0-.61.37-1.21.38-1.81,0-.6-.2-1.21-.19-1.82s-.29-1.21-.29-1.82c0-.61.25-1.21.25-1.82,0-.61.1-1.21.1-1.82,0-.61-.19-1.21-.19-1.82,0-.61.03-1.21.03-1.82,0-.61.02-1.21.02-1.82,0-.61-.18-1.21-.18-1.82,0-.61.39-1.21.39-1.82,0-.6.04-1.21.03-1.82,0-.61-.24-1.21-.24-1.82,0-.61.21-1.21.21-1.82s.06-1.21.05-1.82c0-.6-.35-1.21-.35-1.82,0-.6.04-1.21.04-1.82,0-.6-.17-1.21-.17-1.81,0-.6.24-1.21.24-1.81,0-.6.2-1.21.2-1.81,0-.6.07-1.23.06-1.88-.01-.61-.28-1.23-.3-1.87-.02-.62.2-1.25.18-1.89-.02-.62-.09-1.25-.1-1.88-.02-.63-.03-1.25-.04-1.88-.02-.63-.26-1.25-.26-1.88,0-.63-.31-1.26-.31-1.88,0-.64.16-1.27.18-1.89.02-.64.43-1.25.47-1.86.04-.65-.35-1.31-.28-1.91.1-.88.68-1.41,1.14-1.71.57-.37,1.29-.36,1.92.03.52.32,1.09.83,1.32,1.57.17.55,0,1.18.01,1.8.02.58.36,1.18.34,1.78-.02.6-.2,1.18-.17,1.76.03.6-.21,1.23-.03,1.78-.01.6.13,1.17.12,1.77-.01.6.22,1.21.22,1.81,0,.6-.27,1.2-.28,1.81,0,.6.35,1.21.35,1.81,0,.6-.02,1.2-.03,1.81s-.39,1.2-.39,1.81c0,.6-.13,1.21-.13,1.81s.39,1.2.39,1.81c0,.6-.41,1.21-.41,1.81,0,.6.08,1.2.08,1.81,0,.6.27,1.2.27,1.81,0,.6.17,1.2.17,1.81,0,.6-.2,1.21-.19,1.81,0,.6.21,1.2.22,1.81,0,.6-.27,1.21-.27,1.81,0,.6.08,1.21.09,1.81,0,.6.07,1.21.08,1.81,0,.6-.2,1.21-.2,1.81,0,.6.21,1.21.21,1.81,0,.6-.38,1.21-.37,1.81,0,.6.05,1.21.05,1.81,0,.6.32,1.21.32,1.81,0,.6.16,1.21.16,1.81,0,.6-.13,1.21-.14,1.81,0,.6-.02,1.21-.03,1.81,0,.6-.03,1.21-.04,1.81,0,.6.12,1.21.11,1.81-.01.6-.36,1.2-.38,1.8-.01.6-.02,1.21-.03,1.81-.02.6-.08,1.2-.1,1.81-.02.6.32,1.22.3,1.82-.02.6-.07,1.2-.1,1.81-.03.6-.1,1.2-.12,1.8-.03.6-.08,1.2-.12,1.8-.03.6-.35,1.19-.39,1.79-.02.36-.02.99,0,1.68.01.55.47,1.15.44,1.68-.04.75-.3,1.53-.55,1.74"/><path d="M87.06,137.77c-.06.11-.41.79-.54.99-1.07.08-1.13.15-2.02-.45-1.07-.73-1.06-.79-1.58-1.98.02-.6.17-1.28.19-1.88.02-.6.13-1.2.15-1.8.02-.6-.13-1.21-.11-1.81.02-.6,0-1.21.02-1.81.02-.6,0-1.21,0-1.81.02-.6.32-1.2.33-1.8.02-.6.26-1.2.28-1.8.02-.6-.09-1.21-.08-1.81.01-.6.05-1.2.06-1.81s-.39-1.21-.38-1.82c.01-.6.09-1.2.1-1.81.01-.6.22-1.2.23-1.8.01-.6-.26-1.21-.25-1.81,0-.6.56-1.2.57-1.8,0-.6-.33-1.21-.32-1.81,0-.6.36-1.2.37-1.8,0-.6-.59-1.21-.58-1.81,0-.6.31-1.2.31-1.81,0-.6-.02-1.2-.02-1.81,0-.6.31-1.2.32-1.81,0-.6-.46-1.21-.46-1.81,0-.6.32-1.2.32-1.81,0-.6-.34-1.21-.34-1.81,0-.6.36-1.2.36-1.81s.12-1.21.12-1.81c0-.6.03-1.21.02-1.81,0-.6-.42-1.2-.42-1.81,0-.6.05-1.2.05-1.81,0-.6.04-1.2.04-1.81,0-.6.16-1.21.15-1.81,0-.6.11-1.21.11-1.81,0-.6-.49-1.2-.5-1.8,0-.6.02-1.21,0-1.81,0-.6.12-1.21.12-1.81,0-.6-.16-1.2-.16-1.81,0-.6,0-1.21-.01-1.81,0-.63-.09-1.27-.15-1.96-.05-.64.18-1.32.13-1.99-.05-.66-.3-1.31-.32-1.96-.02-.67.13-1.34.19-1.97.06-.69.22-1.25.48-1.65.36-.56.91-.63,1.45-.63.52,0,1.17-.05,1.61.44.33.37.31,1.04.48,1.67.09.32.18.86.25,1.44.07.56.44,1.09.46,1.45.04.61-.35,1.25-.31,1.86.03.61.14,1.22.17,1.83.03.61.27,1.22.29,1.83.02.61.02,1.23.04,1.84.02.61.09,1.23.1,1.84,0,.61-.01,1.23,0,1.84,0,.61-.3,1.23-.29,1.84,0,.61.48,1.23.48,1.84,0,.61-.39,1.23-.39,1.84,0,.61-.04,1.23-.05,1.84,0,.61-.14,1.23-.14,1.84-.01.61.29,1.23.28,1.85,0,.61-.19,1.23-.2,1.84-.01.61,0,1.23-.01,1.85-.01.62-.03,1.23-.04,1.85,0,.62.19,1.23.19,1.85,0,.62.02,1.23.01,1.85,0,.61-.36,1.23-.36,1.84,0,.62.2,1.23.21,1.85,0,.62.1,1.23.1,1.85,0,.62.04,1.23.06,1.84.01.62.22,1.23.24,1.84.02.61-.25,1.23-.22,1.84-.06.61-.26,1.2-.3,1.82-.05.61.34,1.25.31,1.86-.03.61-.07,1.22-.09,1.83-.02.61-.2,1.22-.21,1.83,0,.61-.22,1.22-.23,1.84,0,.61.1,1.23.11,1.84s.34,1.22.34,1.83c0,.61-.08,1.23-.07,1.84,0,.61-.33,1.23-.32,1.84,0,.61.12,1.22.12,1.84,0,.61-.19,1.23-.19,1.84,0,.61.13,1.23.12,1.84-.01.62.29,1.24.27,1.85-.02.61-.03,1.23-.06,1.84-.03.61-.22,1.22-.27,1.83-.06.71-.37,1.12-.68,1.77"/><path d="M87.06,137.77c-.06.11-.41.79-.54.99-1.07.08-1.13.15-2.02-.45-1.07-.73-1.06-.79-1.58-1.98.02-.6.17-1.28.19-1.88.02-.6.13-1.2.15-1.8.02-.6-.13-1.21-.11-1.81.02-.6,0-1.21.02-1.81.02-.6,0-1.21,0-1.81.02-.6.32-1.2.33-1.8.02-.6.26-1.2.28-1.8.02-.6-.09-1.21-.08-1.81.01-.6.05-1.2.06-1.81s-.39-1.21-.38-1.82c.01-.6.09-1.2.1-1.81.01-.6.22-1.2.23-1.8.01-.6-.26-1.21-.25-1.81,0-.6.56-1.2.57-1.8,0-.6-.33-1.21-.32-1.81,0-.6.36-1.2.37-1.8,0-.6-.59-1.21-.58-1.81,0-.6.31-1.2.31-1.81,0-.6-.02-1.2-.02-1.81,0-.6.31-1.2.32-1.81,0-.6-.46-1.21-.46-1.81,0-.6.32-1.2.32-1.81,0-.6-.34-1.21-.34-1.81,0-.6.36-1.2.36-1.81s.12-1.21.12-1.81c0-.6.03-1.21.02-1.81,0-.6-.42-1.2-.42-1.81,0-.6.05-1.2.05-1.81,0-.6.04-1.2.04-1.81,0-.6.16-1.21.15-1.81,0-.6.11-1.21.11-1.81,0-.6-.49-1.2-.5-1.8,0-.6.02-1.21,0-1.81,0-.6.12-1.21.12-1.81,0-.6-.16-1.2-.16-1.81,0-.6,0-1.21-.01-1.81,0-.63-.09-1.27-.15-1.96-.05-.64.18-1.32.13-1.99-.05-.66-.3-1.31-.32-1.96-.02-.67.13-1.34.19-1.97.06-.69.22-1.25.48-1.65.36-.56.91-.63,1.45-.63.52,0,1.17-.05,1.61.44.33.37.31,1.04.48,1.67.09.32.18.86.25,1.44.07.56.44,1.09.46,1.45.04.61-.35,1.25-.31,1.86.03.61.14,1.22.17,1.83.03.61.27,1.22.29,1.83.02.61.02,1.23.04,1.84.02.61.09,1.23.1,1.84,0,.61-.01,1.23,0,1.84,0,.61-.3,1.23-.29,1.84,0,.61.48,1.23.48,1.84,0,.61-.39,1.23-.39,1.84,0,.61-.04,1.23-.05,1.84,0,.61-.14,1.23-.14,1.84-.01.61.29,1.23.28,1.85,0,.61-.19,1.23-.2,1.84-.01.61,0,1.23-.01,1.85-.01.62-.03,1.23-.04,1.85,0,.62.19,1.23.19,1.85,0,.62.02,1.23.01,1.85,0,.61-.36,1.23-.36,1.84,0,.62.2,1.23.21,1.85,0,.62.1,1.23.1,1.85,0,.62.04,1.23.06,1.84.01.62.22,1.23.24,1.84.02.61-.25,1.23-.22,1.84-.06.61-.26,1.2-.3,1.82-.05.61.34,1.25.31,1.86-.03.61-.07,1.22-.09,1.83-.02.61-.2,1.22-.21,1.83,0,.61-.22,1.22-.23,1.84,0,.61.1,1.23.11,1.84s.34,1.22.34,1.83c0,.61-.08,1.23-.07,1.84,0,.61-.33,1.23-.32,1.84,0,.61.12,1.22.12,1.84,0,.61-.19,1.23-.19,1.84,0,.61.13,1.23.12,1.84-.01.62.29,1.24.27,1.85-.02.61-.03,1.23-.06,1.84-.03.61-.22,1.22-.27,1.83-.06.71-.37,1.12-.68,1.77"/><path d="M77.86,61.58c.76-.08,1.08.37,1.48.97.39.58,1.16,1.13,1.24,1.75.04.63,0,1.28.04,1.91.03.63-.05,1.27-.02,1.9.03.63-.08,1.27-.05,1.9.02.63.13,1.26.15,1.9.02.63-.29,1.27-.28,1.9.01.63.17,1.26.17,1.9,0,.63-.1,1.27-.1,1.9,0,.63.26,1.26.26,1.9,0,.63,0,1.26-.01,1.9,0,.63.07,1.27.06,1.9-.01.62-.07,1.23-.08,1.85-.01.62-.29,1.23-.3,1.84-.01.62.33,1.24.31,1.85s-.31,1.23-.32,1.84c-.01.62-.11,1.23-.12,1.85-.01.62.41,1.24.4,1.86-.02.62-.51,1.22-.53,1.84-.01.62.15,1.24.14,1.85-.02.62-.07,1.23-.09,1.85-.02.61-.1,1.23-.12,1.85-.02.62-.15,1.23-.16,1.84-.01.62.39,1.24.37,1.86-.02.61.15,1.24.14,1.85-.02.62-.22,1.23-.23,1.84-.01.61.11,1.23.1,1.85-.01.62-.54,1.22-.55,1.84-.01.62.02,1.23,0,1.85-.01.62.42,1.24.41,1.86-.01.62-.43,1.22-.44,1.84-.01.62.18,1.24.17,1.85-.01.62-.25,1.23-.26,1.84,0,.62.19,1.24.19,1.85,0,.62.22,1.23.21,1.85,0,.62.02,1.23.02,1.85,0,.62-.44,1.23-.45,1.84,0,.62.45,1.23.45,1.85,0,.62-.01,1.23-.01,1.85,0,.62-.45,1.23-.45,1.85,0,.62.06,1.2.07,1.81-.41.68-.77,1.31-1.33,1.48-.66.2-1.58.07-2.1-.4-.42-.38-.68-1.16-.8-1.95-.08-.52.16-1.14.12-1.77-.04-.55-.31-1.12-.33-1.73-.02-.56-.22-1.15-.22-1.75,0-.57.32-1.16.33-1.75,0-.58-.19-1.17-.17-1.76.02-.59.33-1.17.35-1.74.02-.6.1-1.18.12-1.75.02-.61-.38-1.21-.36-1.76.02-.62-.01-1.2,0-1.74,0-.62.51-1.23.52-1.85.01-.62-.12-1.24-.11-1.86.01-.62-.35-1.25-.33-1.87.02-.62.02-1.24.04-1.86.02-.62.52-1.22.54-1.84s-.05-1.24-.03-1.86c.02-.62.04-1.24.07-1.86.02-.62-.01-1.24.02-1.86.03-.62-.22-1.25-.2-1.87.03-.62.03-1.24.05-1.86.03-.62.6-1.22.63-1.84.03-.62-.37-1.26-.34-1.88.03-.62.44-1.22.47-1.84.03-.62-.16-1.25-.13-1.87.03-.62.2-1.24.22-1.86.02-.62-.02-1.24,0-1.86.02-.62-.13-1.25-.11-1.87s.07-1.24.08-1.86-.02-1.24,0-1.86c.01-.62-.01-1.24,0-1.86.01-.58.26-1.18.26-1.79-.01-.59-.14-1.18-.16-1.79-.02-.59-.04-1.19-.07-1.79-.03-.59-.16-1.18-.19-1.78-.03-.6.13-1.21.1-1.8-.03-.6-.15-1.19-.18-1.79-.03-.6-.07-1.2-.09-1.79-.02-.6-.17-1.2-.18-1.79,0-.61.03-1.21.04-1.8.01-.61.38-1.19.42-1.77.04-.61-.32-1.23-.25-1.81.1-.83.56-1.63,1.53-1.74"/><path d="M77.86,61.58c.76-.08,1.08.37,1.48.97.39.58,1.16,1.13,1.24,1.75.04.63,0,1.28.04,1.91.03.63-.05,1.27-.02,1.9.03.63-.08,1.27-.05,1.9.02.63.13,1.26.15,1.9.02.63-.29,1.27-.28,1.9.01.63.17,1.26.17,1.9,0,.63-.1,1.27-.1,1.9,0,.63.26,1.26.26,1.9,0,.63,0,1.26-.01,1.9,0,.63.07,1.27.06,1.9-.01.62-.07,1.23-.08,1.85-.01.62-.29,1.23-.3,1.84-.01.62.33,1.24.31,1.85s-.31,1.23-.32,1.84c-.01.62-.11,1.23-.12,1.85-.01.62.41,1.24.4,1.86-.02.62-.51,1.22-.53,1.84-.01.62.15,1.24.14,1.85-.02.62-.07,1.23-.09,1.85-.02.61-.1,1.23-.12,1.85-.02.62-.15,1.23-.16,1.84-.01.62.39,1.24.37,1.86-.02.61.15,1.24.14,1.85-.02.62-.22,1.23-.23,1.84-.01.61.11,1.23.1,1.85-.01.62-.54,1.22-.55,1.84-.01.62.02,1.23,0,1.85-.01.62.42,1.24.41,1.86-.01.62-.43,1.22-.44,1.84-.01.62.18,1.24.17,1.85-.01.62-.25,1.23-.26,1.84,0,.62.19,1.24.19,1.85,0,.62.22,1.23.21,1.85,0,.62.02,1.23.02,1.85,0,.62-.44,1.23-.45,1.84,0,.62.45,1.23.45,1.85,0,.62-.01,1.23-.01,1.85,0,.62-.45,1.23-.45,1.85,0,.62.06,1.2.07,1.81-.41.68-.77,1.31-1.33,1.48-.66.2-1.58.07-2.1-.4-.42-.38-.68-1.16-.8-1.95-.08-.52.16-1.14.12-1.77-.04-.55-.31-1.12-.33-1.73-.02-.56-.22-1.15-.22-1.75,0-.57.32-1.16.33-1.75,0-.58-.19-1.17-.17-1.76.02-.59.33-1.17.35-1.74.02-.6.1-1.18.12-1.75.02-.61-.38-1.21-.36-1.76.02-.62-.01-1.2,0-1.74,0-.62.51-1.23.52-1.85.01-.62-.12-1.24-.11-1.86.01-.62-.35-1.25-.33-1.87.02-.62.02-1.24.04-1.86.02-.62.52-1.22.54-1.84s-.05-1.24-.03-1.86c.02-.62.04-1.24.07-1.86.02-.62-.01-1.24.02-1.86.03-.62-.22-1.25-.2-1.87.03-.62.03-1.24.05-1.86.03-.62.6-1.22.63-1.84.03-.62-.37-1.26-.34-1.88.03-.62.44-1.22.47-1.84.03-.62-.16-1.25-.13-1.87.03-.62.2-1.24.22-1.86.02-.62-.02-1.24,0-1.86.02-.62-.13-1.25-.11-1.87s.07-1.24.08-1.86-.02-1.24,0-1.86c.01-.62-.01-1.24,0-1.86.01-.58.26-1.18.26-1.79-.01-.59-.14-1.18-.16-1.79-.02-.59-.04-1.19-.07-1.79-.03-.59-.16-1.18-.19-1.78-.03-.6.13-1.21.1-1.8-.03-.6-.15-1.19-.18-1.79-.03-.6-.07-1.2-.09-1.79-.02-.6-.17-1.2-.18-1.79,0-.61.03-1.21.04-1.8.01-.61.38-1.19.42-1.77.04-.61-.32-1.23-.25-1.81.1-.83.56-1.63,1.53-1.74"/><path d="M124.66,139.54c-.38.47-1.29.52-1.97.42-.68-.09-1.36-.47-1.7-.87-.28-.33-.55-1.07-.81-1.93-.19-.65-.34-1.37-.51-2.04-.21-.82-.55-1.48-.7-1.93-.42-.44-.37-.05-.43.37-.05.4-.02.97-.03,1.61-.01.51-.01,1.07-.05,1.62-.04.56.08,1.17-.03,1.66-.14.63-.75.82-1.09,1.09-.29-.01-.76.21-1.32.15-.62-.06-1.05-.35-1.21-.49-.36-.3-.71-.72-.74-1.46-.03-.55-.06-1.18,0-1.81.06-.61.4-1.19.48-1.75.1-.73-.07-1.39-.06-1.81.02-.61.34-1.21.35-1.79,0-.61-.36-1.21-.37-1.79-.01-.61-.2-1.2-.23-1.78-.03-.61.32-1.23.28-1.81-.05-.61-.15-1.2-.21-1.78-.07-.6-.39-1.16-.47-1.74-.08-.6.04-1.22-.06-1.8-.1-.59-.39-1.14-.5-1.72-.12-.58-.13-1.18-.26-1.76-.13-.58-.33-1.14-.47-1.72-.14-.57,0-1.22-.15-1.8-.15-.57-.54-1.08-.7-1.66-.15-.56-.1-1.19-.26-1.78-.15-.56-.62-1.05-.77-1.64-.15-.56.01-1.22-.14-1.81-.15-.56-.22-1.16-.37-1.75-.15-.59-.46-1.13-.61-1.72-.14-.59-.08-1.23-.22-1.82-.14-.59-.71-1.08-.85-1.67-.14-.59-.18-1.2-.31-1.79-.14-.59-.42-1.15-.55-1.74-.13-.59-.17-1.2-.3-1.8-.13-.59.09-1.26-.04-1.85-.13-.59-.17-1.2-.3-1.79-.13-.59-.4-1.15-.53-1.74-.13-.59-.58-1.11-.71-1.7-.13-.59-.22-1.19-.35-1.78-.13-.59-.25-1.18-.39-1.78-.13-.59-.11-1.22-.25-1.81s-.38-1.16-.52-1.75c-.14-.59-.17-1.2-.31-1.79-.14-.59-.23-1.19-.37-1.78s-.59-1.1-.74-1.69c-.15-.59-.15-1.21-.3-1.8-.15-.59-.08-1.23-.24-1.82-.13-.47-.63-1-.87-1.69-.19-.55-.47-1.13-.67-1.75-.2-.59-.34-1.23-.51-1.82-.18-.64.01-1.34-.09-1.91-.13-.75-.14-1.3,0-1.76.2-.66.58-1.06,1.2-1.21.65-.15,1.44-.17,1.85.35.22.28.26,1.05.55,1.85.2.55.68,1.08.88,1.71.2.62.2,1.31.37,1.88.23.76.39,1.43.52,1.83.18.59.46,1.16.64,1.75.17.6.23,1.22.4,1.82.17.6.29,1.21.45,1.81.16.6.72,1.09.88,1.7.16.6-.03,1.29.11,1.9.15.6.09,1.25.23,1.86.15.6.41,1.18.55,1.78.14.6.23,1.22.36,1.83.14.61.62,1.13.76,1.74.14.61-.14,1.3,0,1.91.13.61.57,1.15.7,1.76.13.61-.01,1.28.12,1.88.13.61.31,1.2.45,1.81.13.61.71,1.11.85,1.72.13.61.18,1.38.31,1.99.34-.36.2-.58.26-1.07-.02-.6-.43-1.21-.44-1.81s-.11-1.19-.12-1.79c-.02-.6.51-1.21.49-1.8-.02-.6-.58-1.18-.59-1.78-.02-.6-.01-1.19-.03-1.79-.02-.6.39-1.2.37-1.8-.02-.6-.48-1.18-.5-1.77-.02-.6.42-1.21.39-1.81-.02-.59-.12-1.19-.15-1.78-.03-.6.13-1.2.1-1.8-.03-.59-.29-1.18-.33-1.77s-.41-1.17-.46-1.76c-.04-.59.29-1.22.24-1.81-.05-.59-.24-1.18-.29-1.77-.06-.59-.21-1.17-.28-1.77-.06-.59.26-1.23.18-1.82-.07-.59-.45-1.15-.54-1.74,0-.68.01-1.36.18-1.92.21-.71.58-1.35.99-1.69.49-.4,1.3-.51,1.95-.06.39.28.93.85,1.34,1.54.19.9-.17.97-.11,1.88.07.92.06.92.12,1.84.07.91.05.92.11,1.83.07.91.19.91.26,1.82.07.92.28.9.34,1.82.07.92-.47.95-.4,1.87.07.92.5.89.56,1.8.07.92.18.91.24,1.83.07.92-.47.96-.4,1.87.07.92.27.9.33,1.82.07.92.33.9.39,1.82.07.92-.13.94-.1,1.86.03.85-.31.85-.32,1.7,0,.85.13.85.13,1.7,0,.85.46.85.45,1.7,0,.85.04.85.04,1.71,0,.85-.45.85-.45,1.7,0,.85.06.85.06,1.71,0,.86.07.86.07,1.71s.2.85.22,1.7c.07.63-.17,1.28-.12,1.92.05.64-.07,1.28-.04,1.92.03.64.58,1.25.61,1.89.02.64-.4,1.29-.37,1.93.02.64.18,1.27.21,1.91.03.64-.21,1.3-.17,1.93.04.64.28,1.27.34,1.9.06.64.17,1.27.25,1.9.08.64.52,1.21.64,1.83.1.57.05,1.17.19,1.75.14.56-.06,1.22.11,1.8.16.56.51,1.07.7,1.63.18.56.54,1.06.73,1.61.19.55.55,1.05.76,1.6.2.55.03,1.24.23,1.79.21.55.37,1.12.58,1.67.21.55.49,1.08.69,1.62.21.55.48,1.08.67,1.63.2.56.27,1.16.45,1.71.19.56.62,1.04.78,1.6.17.57.3,1.15.44,1.71.11.42-.01,1.02.13,1.57.13.51.59.99.61,1.48.02.57-.03,1.26-.34,1.65"/><path d="M95.19,137.75c-.72.18-1.39-.17-1.89-.15-.83.03-1.16-.08-1.5-.41-.4-.39-.84-.76-.86-1.47-.01-.55-.13-1.2-.06-1.86.06-.6.56-1.19.57-1.8.01-.6-.1-1.21-.08-1.82.01-.6-.23-1.21-.22-1.82.01-.61.05-1.21.06-1.82.01-.6.09-1.21.1-1.81.01-.6.29-1.21.29-1.81,0-.6-.17-1.21-.16-1.82,0-.61,0-1.21,0-1.82,0-.6.05-1.21.05-1.82,0-.61-.06-1.21-.06-1.82,0-.61.37-1.21.38-1.81,0-.6-.2-1.21-.19-1.82s-.29-1.21-.29-1.82c0-.61.25-1.21.25-1.82,0-.61.1-1.21.1-1.82,0-.61-.19-1.21-.19-1.82,0-.61.03-1.21.03-1.82,0-.61.02-1.21.02-1.82,0-.61-.18-1.21-.18-1.82,0-.61.39-1.21.39-1.82,0-.6.04-1.21.03-1.82,0-.61-.24-1.21-.24-1.82,0-.61.21-1.21.21-1.82s.06-1.21.05-1.82c0-.6-.35-1.21-.35-1.82,0-.6.04-1.21.04-1.82,0-.6-.17-1.21-.17-1.81,0-.6.24-1.21.24-1.81,0-.6.2-1.21.2-1.81,0-.6.07-1.23.06-1.88-.01-.61-.28-1.23-.3-1.87-.02-.62.2-1.25.18-1.89-.02-.62-.09-1.25-.1-1.88-.02-.63-.03-1.25-.04-1.88-.02-.63-.26-1.25-.26-1.88,0-.63-.31-1.26-.31-1.88,0-.64.16-1.27.18-1.89.02-.64.43-1.25.47-1.86.04-.65-.35-1.31-.28-1.91.1-.88.68-1.41,1.14-1.71.57-.37,1.29-.36,1.92.03.52.32,1.09.83,1.32,1.57.17.55,0,1.18.01,1.8.02.58.36,1.18.34,1.78-.02.6-.2,1.18-.17,1.76.03.6-.21,1.23-.03,1.78-.01.6.13,1.17.12,1.77-.01.6.22,1.21.22,1.81,0,.6-.27,1.2-.28,1.81,0,.6.35,1.21.35,1.81,0,.6-.02,1.2-.03,1.81s-.39,1.2-.39,1.81c0,.6-.13,1.21-.13,1.81s.39,1.2.39,1.81c0,.6-.41,1.21-.41,1.81,0,.6.08,1.2.08,1.81,0,.6.27,1.2.27,1.81,0,.6.17,1.2.17,1.81,0,.6-.2,1.21-.19,1.81,0,.6.21,1.2.22,1.81,0,.6-.27,1.21-.27,1.81,0,.6.08,1.21.09,1.81,0,.6.07,1.21.08,1.81,0,.6-.2,1.21-.2,1.81,0,.6.21,1.21.21,1.81,0,.6-.38,1.21-.37,1.81,0,.6.05,1.21.05,1.81,0,.6.32,1.21.32,1.81,0,.6.16,1.21.16,1.81,0,.6-.13,1.21-.14,1.81,0,.6-.02,1.21-.03,1.81,0,.6-.03,1.21-.04,1.81,0,.6.12,1.21.11,1.81-.01.6-.36,1.2-.38,1.8-.01.6-.02,1.21-.03,1.81-.02.6-.08,1.2-.1,1.81-.02.6.32,1.22.3,1.82-.02.6-.07,1.2-.1,1.81-.03.6-.1,1.2-.12,1.8-.03.6-.08,1.2-.12,1.8-.03.6-.35,1.19-.39,1.79-.02.36-.02.99,0,1.68.01.55.47,1.15.44,1.68-.04.75-.3,1.53-.55,1.74"/><path d="M87.06,137.77c-.06.11-.41.79-.54.99-1.07.08-1.13.15-2.02-.45-1.07-.73-1.06-.79-1.58-1.98.02-.6.17-1.28.19-1.88.02-.6.13-1.2.15-1.8.02-.6-.13-1.21-.11-1.81.02-.6,0-1.21.02-1.81.02-.6,0-1.21,0-1.81.02-.6.32-1.2.33-1.8.02-.6.26-1.2.28-1.8.02-.6-.09-1.21-.08-1.81.01-.6.05-1.2.06-1.81s-.39-1.21-.38-1.82c.01-.6.09-1.2.1-1.81.01-.6.22-1.2.23-1.8.01-.6-.26-1.21-.25-1.81,0-.6.56-1.2.57-1.8,0-.6-.33-1.21-.32-1.81,0-.6.36-1.2.37-1.8,0-.6-.59-1.21-.58-1.81,0-.6.31-1.2.31-1.81,0-.6-.02-1.2-.02-1.81,0-.6.31-1.2.32-1.81,0-.6-.46-1.21-.46-1.81,0-.6.32-1.2.32-1.81,0-.6-.34-1.21-.34-1.81,0-.6.36-1.2.36-1.81s.12-1.21.12-1.81c0-.6.03-1.21.02-1.81,0-.6-.42-1.2-.42-1.81,0-.6.05-1.2.05-1.81,0-.6.04-1.2.04-1.81,0-.6.16-1.21.15-1.81,0-.6.11-1.21.11-1.81,0-.6-.49-1.2-.5-1.8,0-.6.02-1.21,0-1.81,0-.6.12-1.21.12-1.81,0-.6-.16-1.2-.16-1.81,0-.6,0-1.21-.01-1.81,0-.63-.09-1.27-.15-1.96-.05-.64.18-1.32.13-1.99-.05-.66-.3-1.31-.32-1.96-.02-.67.13-1.34.19-1.97.06-.69.22-1.25.48-1.65.36-.56.91-.63,1.45-.63.52,0,1.17-.05,1.61.44.33.37.31,1.04.48,1.67.09.32.18.86.25,1.44.07.56.44,1.09.46,1.45.04.61-.35,1.25-.31,1.86.03.61.14,1.22.17,1.83.03.61.27,1.22.29,1.83.02.61.02,1.23.04,1.84.02.61.09,1.23.1,1.84,0,.61-.01,1.23,0,1.84,0,.61-.3,1.23-.29,1.84,0,.61.48,1.23.48,1.84,0,.61-.39,1.23-.39,1.84,0,.61-.04,1.23-.05,1.84,0,.61-.14,1.23-.14,1.84-.01.61.29,1.23.28,1.85,0,.61-.19,1.23-.2,1.84-.01.61,0,1.23-.01,1.85-.01.62-.03,1.23-.04,1.85,0,.62.19,1.23.19,1.85,0,.62.02,1.23.01,1.85,0,.61-.36,1.23-.36,1.84,0,.62.2,1.23.21,1.85,0,.62.1,1.23.1,1.85,0,.62.04,1.23.06,1.84.01.62.22,1.23.24,1.84.02.61-.25,1.23-.22,1.84-.06.61-.26,1.2-.3,1.82-.05.61.34,1.25.31,1.86-.03.61-.07,1.22-.09,1.83-.02.61-.2,1.22-.21,1.83,0,.61-.22,1.22-.23,1.84,0,.61.1,1.23.11,1.84s.34,1.22.34,1.83c0,.61-.08,1.23-.07,1.84,0,.61-.33,1.23-.32,1.84,0,.61.12,1.22.12,1.84,0,.61-.19,1.23-.19,1.84,0,.61.13,1.23.12,1.84-.01.62.29,1.24.27,1.85-.02.61-.03,1.23-.06,1.84-.03.61-.22,1.22-.27,1.83-.06.71-.37,1.12-.68,1.77"/><path d="M77.86,61.58c.76-.08,1.08.37,1.48.97.39.58,1.16,1.13,1.24,1.75.04.63,0,1.28.04,1.91.03.63-.05,1.27-.02,1.9.03.63-.08,1.27-.05,1.9.02.63.13,1.26.15,1.9.02.63-.29,1.27-.28,1.9.01.63.17,1.26.17,1.9,0,.63-.1,1.27-.1,1.9,0,.63.26,1.26.26,1.9,0,.63,0,1.26-.01,1.9,0,.63.07,1.27.06,1.9-.01.62-.07,1.23-.08,1.85-.01.62-.29,1.23-.3,1.84-.01.62.33,1.24.31,1.85s-.31,1.23-.32,1.84c-.01.62-.11,1.23-.12,1.85-.01.62.41,1.24.4,1.86-.02.62-.51,1.22-.53,1.84-.01.62.15,1.24.14,1.85-.02.62-.07,1.23-.09,1.85-.02.61-.1,1.23-.12,1.85-.02.62-.15,1.23-.16,1.84-.01.62.39,1.24.37,1.86-.02.61.15,1.24.14,1.85-.02.62-.22,1.23-.23,1.84-.01.61.11,1.23.1,1.85-.01.62-.54,1.22-.55,1.84-.01.62.02,1.23,0,1.85-.01.62.42,1.24.41,1.86-.01.62-.43,1.22-.44,1.84-.01.62.18,1.24.17,1.85-.01.62-.25,1.23-.26,1.84,0,.62.19,1.24.19,1.85,0,.62.22,1.23.21,1.85,0,.62.02,1.23.02,1.85,0,.62-.44,1.23-.45,1.84,0,.62.45,1.23.45,1.85,0,.62-.01,1.23-.01,1.85,0,.62-.45,1.23-.45,1.85,0,.62.06,1.2.07,1.81-.41.68-.77,1.31-1.33,1.48-.66.2-1.58.07-2.1-.4-.42-.38-.68-1.16-.8-1.95-.08-.52.16-1.14.12-1.77-.04-.55-.31-1.12-.33-1.73-.02-.56-.22-1.15-.22-1.75,0-.57.32-1.16.33-1.75,0-.58-.19-1.17-.17-1.76.02-.59.33-1.17.35-1.74.02-.6.1-1.18.12-1.75.02-.61-.38-1.21-.36-1.76.02-.62-.01-1.2,0-1.74,0-.62.51-1.23.52-1.85.01-.62-.12-1.24-.11-1.86.01-.62-.35-1.25-.33-1.87.02-.62.02-1.24.04-1.86.02-.62.52-1.22.54-1.84s-.05-1.24-.03-1.86c.02-.62.04-1.24.07-1.86.02-.62-.01-1.24.02-1.86.03-.62-.22-1.25-.2-1.87.03-.62.03-1.24.05-1.86.03-.62.6-1.22.63-1.84.03-.62-.37-1.26-.34-1.88.03-.62.44-1.22.47-1.84.03-.62-.16-1.25-.13-1.87.03-.62.2-1.24.22-1.86.02-.62-.02-1.24,0-1.86.02-.62-.13-1.25-.11-1.87s.07-1.24.08-1.86-.02-1.24,0-1.86c.01-.62-.01-1.24,0-1.86.01-.58.26-1.18.26-1.79-.01-.59-.14-1.18-.16-1.79-.02-.59-.04-1.19-.07-1.79-.03-.59-.16-1.18-.19-1.78-.03-.6.13-1.21.1-1.8-.03-.6-.15-1.19-.18-1.79-.03-.6-.07-1.2-.09-1.79-.02-.6-.17-1.2-.18-1.79,0-.61.03-1.21.04-1.8.01-.61.38-1.19.42-1.77.04-.61-.32-1.23-.25-1.81.1-.83.56-1.63,1.53-1.74"/></svg>