<?xml version="1.0" encoding="UTF-8"?><svg id="Layer_1" xmlns="http://www.w3.org/2000/svg" viewBox="0 0 200 200"><path d="M75.13,90.72c-.61-.1-.5-.04-.63.25-.21.47-.1,1.11-.27,1.66-.16.52-.68.95-.84,1.47-.16.55-.29,1.07-.48,1.55-.18.45-.07,1.02-.26,1.46-.19.45-.25.95-.45,1.39-.2.44-.42.88-.62,1.32-.21.44-.53.82-.75,1.25-.22.43-.55.81-.78,1.23-.23.43-.26.97-.5,1.39-.24.42-.87.61-1.13,1.02-.25.41-.46.85-.72,1.26-.27.4-.54.8-.82,1.2-.28.4-.39.91-.68,1.3-.29.39-.49.85-.79,1.23-.3.38-.84.57-1.15.93-.31.37-.53.82-.86,1.18-.32.36-.63.74-.96,1.09-.33.35-.82.54-1.17.88-.34.34-.48.9-.84,1.23-.35.33-.68.7-1.05,1.02-.25.22-.73.42-1.19.79-.33.26-.68.6-1.08.9-.36.27-.85.41-1.24.69-.38.28-.81.48-1.2.75-.4.28-.75.61-1.12.85-.43.28-.75.66-1.12.88-.52.31-.97.57-1.27.66-.31.09-.73.08-1.11.12-.39.04-.83.14-1.14.04-.42-.14-.43-.9-.47-1.56-.03-.63-.03-1.25.22-1.55.12-.15.62-.46,1.28-.84.41-.24.88-.49,1.35-.76.47-.26.93-.53,1.35-.77.58-.33.92-.84,1.18-1.02.39-.27.87-.43,1.26-.72.38-.29.91-.4,1.28-.71.37-.3.78-.58,1.14-.9.36-.32.64-.73,1-1.06.35-.33.71-.66,1.04-1.01.33-.34.43-.92.75-1.27.32-.35.69-.67,1-1.04.31-.37.75-.63,1.05-1.01.3-.38.6-.76.89-1.14.29-.38.7-.69.98-1.08.28-.39.54-.81.8-1.21.27-.4.52-.82.77-1.23.25-.41.43-.87.67-1.29.24-.42.53-.81.76-1.24.23-.43.34-.91.56-1.34.22-.43.24-.95.44-1.39.2-.44.55-.81.74-1.25.19-.45.42-.87.59-1.32.1-.27.28-.75.47-1.36.13-.41.41-.83.57-1.33.14-.43.14-.94.29-1.42.14-.45.15-.95.3-1.41.15-.46.21-.95.36-1.4.15-.47.7-.79.85-1.23.17-.48.28-.95.43-1.37.19-.5.2-1.02.36-1.4.3-.67.48-1.28.66-1.37.22-.1.73-.17,1.16-.17.43,0,.87.23,1.08.35.23.13.58.56.85,1.24.16.41.39.88.55,1.41.14.45.06,1.01.2,1.51.13.48.54.9.66,1.38.13.5-.17,1.1-.05,1.57.14.52.29,1.01.41,1.45.17.61.58,1.04.7,1.35.17.45.43.85.63,1.27.2.44.39.86.6,1.28.22.43.21.97.45,1.38.24.41.66.71.92,1.1.26.4.4.88.68,1.26.28.38.49.83.79,1.2.3.36.74.62,1.06.97.32.35.69.65,1.02.99.33.33.7.63,1.05.96.34.32.6.74.97,1.05.36.31.77.56,1.14.86.36.3.61.76.98,1.06.37.29.99.25,1.38.53s.56.86.96,1.13c.39.27.88.42,1.28.68.4.26.74.62,1.15.87.41.25.97.23,1.39.47.42.24.75.61,1.18.83.42.22.91.32,1.34.53.43.21.88.37,1.31.57.43.2.82.5,1.26.69.44.19.85.43,1.3.61.44.18.92.26,1.37.43.45.17.87.4,1.32.56.45.16.85.48,1.3.62.45.15.91.31,1.37.44.46.14,1.03-.14,1.49-.01.46.13.9.32,1.36.44.46.12.93.2,1.4.31.46.11.89.38,1.36.48.47.1.92.27,1.39.36.47.09.98-.06,1.45.02.47.08.92.29,1.39.37.47.08.94.18,1.41.25.47.07.95.09,1.42.15.47.06.93.29,1.4.34.47.06.98-.17,1.45-.12.48.05.93.29,1.41.33.47.04.95.13,1.42.17.48.04.97-.17,1.44-.14.48.03.94.33,1.41.36.48.03.95.11,1.43.13.48.02.96-.17,1.44-.16.48.02.96,0,1.43.01.48.01.95.11,1.43.12.48.01.96-.1,1.43-.09.48,0,.95.33,1.43.33.48,0,.96-.31,1.43-.32.48,0,.96.26,1.44.26.48,0,.95-.22,1.43-.22.48,0,.96.12,1.44.11s.95-.23,1.42-.24c.35,0,.83.06,1.37,0,.42-.05.87-.32,1.35-.37.46-.05.95.06,1.4.05.49-.02.96.11,1.37.17.54.08.95.22,1.2.52.29.34.43.87.33,1.39-.11.56-.4,1.21-.78,1.34-.08.03-.66-.1-1.31-.05-.4.03-.86,0-1.27.03-.58.04-1.07.17-1.25.18-.47.02-.96-.22-1.44-.2-.48.02-.95.1-1.43.11-.48.01-.94.44-1.42.45-.48.01-.96-.31-1.44-.31-.48,0-.95-.05-1.43-.05-.48,0-.95.14-1.43.14s-.95.05-1.43.05c-.48,0-.95-.19-1.43-.19-.48,0-.96.24-1.44.22-.48-.01-.94-.37-1.42-.39-.48-.02-.97.33-1.45.31-.48-.02-.96-.02-1.44-.05-.48-.03-.96.03-1.44,0-.48-.03-.93-.43-1.41-.47-.48-.04-.95-.14-1.43-.18-.48-.04-.97.15-1.45.11-.48-.05-.97.08-1.45.03-.48-.05-.93-.29-1.41-.34-.48-.06-.92-.35-1.4-.41-.47-.06-.95-.11-1.42-.18-.47-.07-.99.14-1.46.06-.47-.08-.95-.11-1.43-.19-.47-.08-.94-.21-1.41-.3-.47-.09-.95-.13-1.42-.23-.47-.1-.89-.43-1.36-.53-.47-.11-.95-.15-1.42-.26-.47-.11-.87-.45-1.34-.57-.47-.12-.96-.1-1.42-.22-.46-.13-.96-.12-1.42-.26-.46-.14-.83-.55-1.29-.7-.46-.15-1.01,0-1.46-.15-.45-.16-.94-.23-1.39-.4-.45-.16-.92-.3-1.36-.47-.45-.17-.88-.39-1.32-.57-.44-.18-.79-.6-1.22-.8-.44-.2-.96-.21-1.39-.42-.43-.21-.81-.54-1.23-.75-.43-.22-.93-.3-1.35-.52-.42-.23-.74-.64-1.15-.88-.42-.24-.98-.23-1.39-.48-.41-.25-.73-.64-1.13-.91-.4-.26-.84-.47-1.23-.75-.39-.28-.54-.88-.92-1.17-.38-.29-.83-.48-1.21-.78-.37-.3-.83-.5-1.19-.81-.36-.31-.68-.67-1.03-1-.35-.32-.67-.68-1.01-1.02-.34-.34-.72-.63-1.05-.98-.33-.35-.76-.61-1.07-.97-.32-.36-.4-.91-.71-1.28-.29-.35-.69-.63-.96-1.03-.26-.38-.71-.66-.95-1.06-.24-.39-.34-.89-.56-1.3-.22-.41-.18-.96-.38-1.38-.2-.42-.4-.84-.58-1.27-.19-.43-.53-.79-.69-1.23-.17-.44-.41-.86-.55-1.3-.15-.45-.14-.95-.26-1.39-.13-.46-.38-.86-.47-1.31"/><path d="M75.13,90.72c-.61-.1-.5-.04-.63.25-.21.47-.1,1.11-.27,1.66-.16.52-.68.95-.84,1.47-.16.55-.29,1.07-.48,1.55-.18.45-.07,1.02-.26,1.46-.19.45-.25.95-.45,1.39-.2.44-.42.88-.62,1.32-.21.44-.53.82-.75,1.25-.22.43-.55.81-.78,1.23-.23.43-.26.97-.5,1.39-.24.42-.87.61-1.13,1.02-.25.41-.46.85-.72,1.26-.27.4-.54.8-.82,1.2-.28.4-.39.91-.68,1.3-.29.39-.49.85-.79,1.23-.3.38-.84.57-1.15.93-.31.37-.53.82-.86,1.18-.32.36-.63.74-.96,1.09-.33.35-.82.54-1.17.88-.34.34-.48.9-.84,1.23-.35.33-.68.7-1.05,1.02-.25.22-.73.42-1.19.79-.33.26-.68.6-1.08.9-.36.27-.85.41-1.24.69-.38.28-.81.48-1.2.75-.4.28-.75.61-1.12.85-.43.28-.75.66-1.12.88-.52.31-.97.57-1.27.66-.31.09-.73.08-1.11.12-.39.04-.83.14-1.14.04-.42-.14-.43-.9-.47-1.56-.03-.63-.03-1.25.22-1.55.12-.15.62-.46,1.28-.84.41-.24.88-.49,1.35-.76.47-.26.93-.53,1.35-.77.58-.33.92-.84,1.18-1.02.39-.27.87-.43,1.26-.72.38-.29.91-.4,1.28-.71.37-.3.78-.58,1.14-.9.36-.32.64-.73,1-1.06.35-.33.71-.66,1.04-1.01.33-.34.43-.92.75-1.27.32-.35.69-.67,1-1.04.31-.37.75-.63,1.05-1.01.3-.38.6-.76.89-1.14.29-.38.7-.69.98-1.08.28-.39.54-.81.8-1.21.27-.4.52-.82.77-1.23.25-.41.43-.87.67-1.29.24-.42.53-.81.76-1.24.23-.43.34-.91.56-1.34.22-.43.24-.95.44-1.39.2-.44.55-.81.74-1.25.19-.45.42-.87.59-1.32.1-.27.28-.75.47-1.36.13-.41.41-.83.57-1.33.14-.43.14-.94.29-1.42.14-.45.15-.95.3-1.41.15-.46.21-.95.36-1.4.15-.47.7-.79.85-1.23.17-.48.28-.95.43-1.37.19-.5.2-1.02.36-1.4.3-.67.48-1.28.66-1.37.22-.1.73-.17,1.16-.17.43,0,.87.23,1.08.35.23.13.58.56.85,1.24.16.41.39.88.55,1.41.14.45.06,1.01.2,1.51.13.48.54.9.66,1.38.13.5-.17,1.1-.05,1.57.14.52.29,1.01.41,1.45.17.61.58,1.04.7,1.35.17.45.43.85.63,1.27.2.44.39.86.6,1.28.22.43.21.97.45,1.38.24.41.66.71.92,1.1.26.4.4.88.68,1.26.28.38.49.83.79,1.2.3.36.74.62,1.06.97.32.35.69.65,1.02.99.33.33.7.63,1.05.96.34.32.6.74.97,1.05.36.31.77.56,1.14.86.36.3.61.76.98,1.06.37.29.99.25,1.38.53s.56.86.96,1.13c.39.27.88.42,1.28.68.4.26.74.62,1.15.87.41.25.97.23,1.39.47.42.24.75.61,1.18.83.42.22.91.32,1.34.53.43.21.88.37,1.31.57.43.2.82.5,1.26.69.44.19.85.43,1.3.61.44.18.92.26,1.37.43.45.17.87.4,1.32.56.45.16.85.48,1.3.62.45.15.91.31,1.37.44.46.14,1.03-.14,1.49-.01.46.13.9.32,1.36.44.46.12.93.2,1.4.31.46.11.89.38,1.36.48.47.1.92.27,1.39.36.47.09.98-.06,1.45.02.47.08.92.29,1.39.37.47.08.94.18,1.41.25.47.07.95.09,1.42.15.47.06.93.29,1.4.34.47.06.98-.17,1.45-.12.48.05.93.29,1.41.33.47.04.95.13,1.42.17.48.04.97-.17,1.44-.14.48.03.94.33,1.41.36.48.03.95.11,1.43.13.48.02.96-.17,1.44-.16.48.02.96,0,1.43.01.48.01.95.11,1.43.12.48.01.96-.1,1.43-.09.48,0,.95.33,1.43.33.48,0,.96-.31,1.43-.32.48,0,.96.26,1.44.26.48,0,.95-.22,1.43-.22.48,0,.96.12,1.44.11s.95-.23,1.42-.24c.35,0,.83.06,1.37,0,.42-.05.87-.32,1.35-.37.46-.05.95.06,1.4.05.49-.02.96.11,1.37.17.54.08.95.22,1.2.52.29.34.43.87.33,1.39-.11.56-.4,1.21-.78,1.34-.08.03-.66-.1-1.31-.05-.4.03-.86,0-1.27.03-.58.04-1.07.17-1.25.18-.47.02-.96-.22-1.44-.2-.48.02-.95.1-1.43.11-.48.01-.94.44-1.42.45-.48.01-.96-.31-1.44-.31-.48,0-.95-.05-1.43-.05-.48,0-.95.14-1.43.14s-.95.05-1.43.05c-.48,0-.95-.19-1.43-.19-.48,0-.96.24-1.44.22-.48-.01-.94-.37-1.42-.39-.48-.02-.97.33-1.45.31-.48-.02-.96-.02-1.44-.05-.48-.03-.96.03-1.44,0-.48-.03-.93-.43-1.41-.47-.48-.04-.95-.14-1.43-.18-.48-.04-.97.15-1.45.11-.48-.05-.97.08-1.45.03-.48-.05-.93-.29-1.41-.34-.48-.06-.92-.35-1.4-.41-.47-.06-.95-.11-1.42-.18-.47-.07-.99.14-1.46.06-.47-.08-.95-.11-1.43-.19-.47-.08-.94-.21-1.41-.3-.47-.09-.95-.13-1.42-.23-.47-.1-.89-.43-1.36-.53-.47-.11-.95-.15-1.42-.26-.47-.11-.87-.45-1.34-.57-.47-.12-.96-.1-1.42-.22-.46-.13-.96-.12-1.42-.26-.46-.14-.83-.55-1.29-.7-.46-.15-1.01,0-1.46-.15-.45-.16-.94-.23-1.39-.4-.45-.16-.92-.3-1.36-.47-.45-.17-.88-.39-1.32-.57-.44-.18-.79-.6-1.22-.8-.44-.2-.96-.21-1.39-.42-.43-.21-.81-.54-1.23-.75-.43-.22-.93-.3-1.35-.52-.42-.23-.74-.64-1.15-.88-.42-.24-.98-.23-1.39-.48-.41-.25-.73-.64-1.13-.91-.4-.26-.84-.47-1.23-.75-.39-.28-.54-.88-.92-1.17-.38-.29-.83-.48-1.21-.78-.37-.3-.83-.5-1.19-.81-.36-.31-.68-.67-1.03-1-.35-.32-.67-.68-1.01-1.02-.34-.34-.72-.63-1.05-.98-.33-.35-.76-.61-1.07-.97-.32-.36-.4-.91-.71-1.28-.29-.35-.69-.63-.96-1.03-.26-.38-.71-.66-.95-1.06-.24-.39-.34-.89-.56-1.3-.22-.41-.18-.96-.38-1.38-.2-.42-.4-.84-.58-1.27-.19-.43-.53-.79-.69-1.23-.17-.44-.41-.86-.55-1.3-.15-.45-.14-.95-.26-1.39-.13-.46-.38-.86-.47-1.31"/><path d="M89.48,81.47c-.57.08-1.09.22-1.5.58-.41.35-.6.89-.85,1.38-.25.5-.44,1-.53,1.52-.06.36-.34.83-.23,1.3.09.4.55.72.72,1.12.17.4.12.93.35,1.27.27.4.62.76.91.98.4.3.88.59,1.34.7.47.12.98-.28,1.46-.34.48-.06,1.05.2,1.49,0,.44-.2.76-.65,1.12-.97.36-.32.74-.66.97-1.08.24-.42.52-.89.57-1.38.05-.46,0-1.01-.16-1.5-.07-.23-.44-.6-.71-1.04-.21-.34-.47-.69-.71-1-.32-.42-.61-.84-.82-.94-.46-.2-1.08.21-1.55.06-.78-.25-.79-.84-1.89-.69M88.96,77.99c.43-.03.95.11,1.5.21.47.08,1.01.05,1.51.2.48.14.96.36,1.42.55.48.21.79.71,1.2.95.48.29,1.08.32,1.39.64.36.37.44.93.71,1.31.29.41.55.8.75,1.23.22.46.31.9.43,1.37.12.49.62.91.64,1.39.02.5-.42.96-.49,1.44-.08.49,0,.99-.18,1.45-.18.46-.46.86-.72,1.27-.27.41-.65.7-1,1.05-.34.34-.69.64-1.1.91-.4.26-.75.62-1.21.81-.44.18-.91.33-1.4.43-.47.09-.95.06-1.46.07-.47,0-.99.3-1.5.23-.48-.07-.87-.49-1.31-.65-.45-.17-.8-.45-1.19-.71-.39-.26-.94-.32-1.27-.65-.34-.33-.56-.77-.84-1.15-.27-.38-.42-.83-.63-1.26-.21-.42-.52-.8-.66-1.26-.14-.45-.24-.92-.31-1.39-.07-.47-.26-.95-.25-1.42,0-.47.32-.93.41-1.39.09-.46.06-.97.23-1.4.18-.44.57-.76.84-1.15.26-.38.32-.98.67-1.3.34-.31.97-.26,1.39-.5.22-.12.6-.61,1.11-.83.53-.23,1.09-.42,1.31-.44"/><path d="M89.48,81.47c-.57.08-1.09.22-1.5.58-.41.35-.6.89-.85,1.38-.25.5-.44,1-.53,1.52-.06.36-.34.83-.23,1.3.09.4.55.72.72,1.12.17.4.12.93.35,1.27.27.4.62.76.91.98.4.3.88.59,1.34.7.47.12.98-.28,1.46-.34.48-.06,1.05.2,1.49,0,.44-.2.76-.65,1.12-.97.36-.32.74-.66.97-1.08.24-.42.52-.89.57-1.38.05-.46,0-1.01-.16-1.5-.07-.23-.44-.6-.71-1.04-.21-.34-.47-.69-.71-1-.32-.42-.61-.84-.82-.94-.46-.2-1.08.21-1.55.06-.78-.25-.79-.84-1.89-.69M88.96,77.99c.43-.03.95.11,1.5.21.47.08,1.01.05,1.51.2.48.14.96.36,1.42.55.48.21.79.71,1.2.95.48.29,1.08.32,1.39.64.36.37.44.93.71,1.31.29.41.55.8.75,1.23.22.46.31.9.43,1.37.12.49.62.91.64,1.39.02.5-.42.96-.49,1.44-.08.49,0,.99-.18,1.45-.18.46-.46.86-.72,1.27-.27.41-.65.7-1,1.05-.34.34-.69.64-1.1.91-.4.26-.75.62-1.21.81-.44.18-.91.33-1.4.43-.47.09-.95.06-1.46.07-.47,0-.99.3-1.5.23-.48-.07-.87-.49-1.31-.65-.45-.17-.8-.45-1.19-.71-.39-.26-.94-.32-1.27-.65-.34-.33-.56-.77-.84-1.15-.27-.38-.42-.83-.63-1.26-.21-.42-.52-.8-.66-1.26-.14-.45-.24-.92-.31-1.39-.07-.47-.26-.95-.25-1.42,0-.47.32-.93.41-1.39.09-.46.06-.97.23-1.4.18-.44.57-.76.84-1.15.26-.38.32-.98.67-1.3.34-.31.97-.26,1.39-.5.22-.12.6-.61,1.11-.83.53-.23,1.09-.42,1.31-.44"/><path d="M75.13,90.72c-.61-.1-.5-.04-.63.25-.21.47-.1,1.11-.27,1.66-.16.52-.68.95-.84,1.47-.16.55-.29,1.07-.48,1.55-.18.45-.07,1.02-.26,1.46-.19.45-.25.95-.45,1.39-.2.44-.42.88-.62,1.32-.21.44-.53.82-.75,1.25-.22.43-.55.81-.78,1.23-.23.43-.26.97-.5,1.39-.24.42-.87.61-1.13,1.02-.25.41-.46.85-.72,1.26-.27.4-.54.8-.82,1.2-.28.4-.39.91-.68,1.3-.29.39-.49.85-.79,1.23-.3.38-.84.57-1.15.93-.31.37-.53.82-.86,1.18-.32.36-.63.74-.96,1.09-.33.35-.82.54-1.17.88-.34.34-.48.9-.84,1.23-.35.33-.68.7-1.05,1.02-.25.22-.73.42-1.19.79-.33.26-.68.6-1.08.9-.36.27-.85.41-1.24.69-.38.28-.81.48-1.2.75-.4.28-.75.61-1.12.85-.43.28-.75.66-1.12.88-.52.31-.97.57-1.27.66-.31.09-.73.08-1.11.12-.39.04-.83.14-1.14.04-.42-.14-.43-.9-.47-1.56-.03-.63-.03-1.25.22-1.55.12-.15.62-.46,1.28-.84.41-.24.88-.49,1.35-.76.47-.26.93-.53,1.35-.77.58-.33.92-.84,1.18-1.02.39-.27.87-.43,1.26-.72.38-.29.91-.4,1.28-.71.37-.3.78-.58,1.14-.9.36-.32.64-.73,1-1.06.35-.33.71-.66,1.04-1.01.33-.34.43-.92.75-1.27.32-.35.69-.67,1-1.04.31-.37.75-.63,1.05-1.01.3-.38.6-.76.89-1.14.29-.38.7-.69.98-1.08.28-.39.54-.81.8-1.21.27-.4.52-.82.77-1.23.25-.41.43-.87.67-1.29.24-.42.53-.81.76-1.24.23-.43.34-.91.56-1.34.22-.43.24-.95.44-1.39.2-.44.55-.81.74-1.25.19-.45.42-.87.59-1.32.1-.27.28-.75.47-1.36.13-.41.41-.83.57-1.33.14-.43.14-.94.29-1.42.14-.45.15-.95.3-1.41.15-.46.21-.95.36-1.4.15-.47.7-.79.85-1.23.17-.48.28-.95.43-1.37.19-.5.2-1.02.36-1.4.3-.67.48-1.28.66-1.37.22-.1.73-.17,1.16-.17.43,0,.87.23,1.08.35.23.13.58.56.85,1.24.16.41.39.88.55,1.41.14.45.06,1.01.2,1.51.13.48.54.9.66,1.38.13.5-.17,1.1-.05,1.57.14.52.29,1.01.41,1.45.17.61.58,1.04.7,1.35.17.45.43.85.63,1.27.2.44.39.86.6,1.28.22.43.21.97.45,1.38.24.41.66.71.92,1.1.26.4.4.88.68,1.26.28.38.49.83.79,1.2.3.36.74.62,1.06.97.32.35.69.65,1.02.99.33.33.7.63,1.05.96.34.32.6.74.97,1.05.36.31.77.56,1.14.86.36.3.61.76.98,1.06.37.29.99.25,1.38.53s.56.86.96,1.13c.39.27.88.42,1.28.68.4.26.74.62,1.15.87.41.25.97.23,1.39.47.42.24.75.61,1.18.83.42.22.91.32,1.34.53.43.21.88.37,1.31.57.43.2.82.5,1.26.69.44.19.85.43,1.3.61.44.18.92.26,1.37.43.45.17.87.4,1.32.56.45.16.85.48,1.3.62.45.15.91.31,1.37.44.46.14,1.03-.14,1.49-.01.46.13.9.32,1.36.44.46.12.93.2,1.4.31.46.11.89.38,1.36.48.47.1.92.27,1.39.36.47.09.98-.06,1.45.02.47.08.92.29,1.39.37.47.08.94.18,1.41.25.47.07.95.09,1.42.15.47.06.93.29,1.4.34.47.06.98-.17,1.45-.12.48.05.93.29,1.41.33.47.04.95.13,1.42.17.48.04.97-.17,1.44-.14.48.03.94.33,1.41.36.48.03.95.11,1.43.13.48.02.96-.17,1.44-.16.48.02.96,0,1.43.01.48.01.95.11,1.43.12.48.01.96-.1,1.43-.09.48,0,.95.33,1.43.33.48,0,.96-.31,1.43-.32.48,0,.96.26,1.44.26.48,0,.95-.22,1.43-.22.48,0,.96.12,1.44.11s.95-.23,1.42-.24c.35,0,.83.06,1.37,0,.42-.05.87-.32,1.35-.37.46-.05.95.06,1.4.05.49-.02.96.11,1.37.17.54.08.95.22,1.2.52.29.34.43.87.33,1.39-.11.56-.4,1.21-.78,1.34-.08.03-.66-.1-1.31-.05-.4.03-.86,0-1.27.03-.58.04-1.07.17-1.25.18-.47.02-.96-.22-1.44-.2-.48.02-.95.1-1.43.11-.48.01-.94.44-1.42.45-.48.01-.96-.31-1.44-.31-.48,0-.95-.05-1.43-.05-.48,0-.95.14-1.43.14s-.95.05-1.43.05c-.48,0-.95-.19-1.43-.19-.48,0-.96.24-1.44.22-.48-.01-.94-.37-1.42-.39-.48-.02-.97.33-1.45.31-.48-.02-.96-.02-1.44-.05-.48-.03-.96.03-1.44,0-.48-.03-.93-.43-1.41-.47-.48-.04-.95-.14-1.43-.18-.48-.04-.97.15-1.45.11-.48-.05-.97.08-1.45.03-.48-.05-.93-.29-1.41-.34-.48-.06-.92-.35-1.4-.41-.47-.06-.95-.11-1.42-.18-.47-.07-.99.14-1.46.06-.47-.08-.95-.11-1.43-.19-.47-.08-.94-.21-1.41-.3-.47-.09-.95-.13-1.42-.23-.47-.1-.89-.43-1.36-.53-.47-.11-.95-.15-1.42-.26-.47-.11-.87-.45-1.34-.57-.47-.12-.96-.1-1.42-.22-.46-.13-.96-.12-1.42-.26-.46-.14-.83-.55-1.29-.7-.46-.15-1.01,0-1.46-.15-.45-.16-.94-.23-1.39-.4-.45-.16-.92-.3-1.36-.47-.45-.17-.88-.39-1.32-.57-.44-.18-.79-.6-1.22-.8-.44-.2-.96-.21-1.39-.42-.43-.21-.81-.54-1.23-.75-.43-.22-.93-.3-1.35-.52-.42-.23-.74-.64-1.15-.88-.42-.24-.98-.23-1.39-.48-.41-.25-.73-.64-1.13-.91-.4-.26-.84-.47-1.23-.75-.39-.28-.54-.88-.92-1.17-.38-.29-.83-.48-1.21-.78-.37-.3-.83-.5-1.19-.81-.36-.31-.68-.67-1.03-1-.35-.32-.67-.68-1.01-1.02-.34-.34-.72-.63-1.05-.98-.33-.35-.76-.61-1.07-.97-.32-.36-.4-.91-.71-1.28-.29-.35-.69-.63-.96-1.03-.26-.38-.71-.66-.95-1.06-.24-.39-.34-.89-.56-1.3-.22-.41-.18-.96-.38-1.38-.2-.42-.4-.84-.58-1.27-.19-.43-.53-.79-.69-1.23-.17-.44-.41-.86-.55-1.3-.15-.45-.14-.95-.26-1.39-.13-.46-.38-.86-.47-1.31"/><path d="M89.48,81.47c-.57.08-1.09.22-1.5.58-.41.35-.6.89-.85,1.38-.25.5-.44,1-.53,1.52-.06.36-.34.83-.23,1.3.09.4.55.72.72,1.12.17.4.12.93.35,1.27.27.4.62.76.91.98.4.3.88.59,1.34.7.47.12.98-.28,1.46-.34.48-.06,1.05.2,1.49,0,.44-.2.76-.65,1.12-.97.36-.32.74-.66.97-1.08.24-.42.52-.89.57-1.38.05-.46,0-1.01-.16-1.5-.07-.23-.44-.6-.71-1.04-.21-.34-.47-.69-.71-1-.32-.42-.61-.84-.82-.94-.46-.2-1.08.21-1.55.06-.78-.25-.79-.84-1.89-.69M88.96,77.99c.43-.03.95.11,1.5.21.47.08,1.01.05,1.51.2.48.14.96.36,1.42.55.48.21.79.71,1.2.95.48.29,1.08.32,1.39.64.36.37.44.93.71,1.31.29.41.55.8.75,1.23.22.46.31.9.43,1.37.12.49.62.91.64,1.39.02.5-.42.96-.49,1.44-.08.49,0,.99-.18,1.45-.18.46-.46.86-.72,1.27-.27.41-.65.7-1,1.05-.34.34-.69.64-1.1.91-.4.26-.75.62-1.21.81-.44.18-.91.33-1.4.43-.47.09-.95.06-1.46.07-.47,0-.99.3-1.5.23-.48-.07-.87-.49-1.31-.65-.45-.17-.8-.45-1.19-.71-.39-.26-.94-.32-1.27-.65-.34-.33-.56-.77-.84-1.15-.27-.38-.42-.83-.63-1.26-.21-.42-.52-.8-.66-1.26-.14-.45-.24-.92-.31-1.39-.07-.47-.26-.95-.25-1.42,0-.47.32-.93.41-1.39.09-.46.06-.97.23-1.4.18-.44.57-.76.84-1.15.26-.38.32-.98.67-1.3.34-.31.97-.26,1.39-.5.22-.12.6-.61,1.11-.83.53-.23,1.09-.42,1.31-.44"/></svg>