<?xml version="1.0" encoding="UTF-8"?><svg id="Layer_1" xmlns="http://www.w3.org/2000/svg" viewBox="0 0 200 200"><path d="M109.66,120.1c.53.53,1.02-.95,1.13-1.22.23-.56-.03-1.3.14-1.9.17-.58.77-1.06.9-1.67.12-.59.21-1.21.3-1.83.09-.6-.05-1.24.01-1.86.06-.6.02-1.22.07-1.84.05-.61.49-1.19.54-1.8.05-.61-.36-1.26-.31-1.87s.05-1.23.11-1.84c.06-.61.2-1.22.28-1.83.08-.61.26-1.21.37-1.81.11-.61.2-1.22.35-1.82.15-.6.18-1.24.38-1.82.15-.44.58-1.01.9-1.72.25-.53.36-1.22.68-1.81.3-.55.83-1.01,1.19-1.54.36-.55.95-.91,1.35-1.37.46-.52.74-1.18,1.22-1.49.6-.37,1.28-.48,1.88-.33.6.15.97.65,1.42,1.11.4.41.71.88,1.02,1.48.26.52.38,1.1.58,1.73.18.57.94,1.01,1.08,1.63.13.59-.31,1.32-.21,1.94.1.61.44,1.19.52,1.8.08.62-.03,1.26.04,1.87.07.64,0,1.27.05,1.87.06.66.39,1.26.45,1.83.08.71.09,1.36.19,1.85.12.58.29,1.15.46,1.71.18.56.27,1.14.45,1.69.17.55.41,1.18.52,1.76.72.17.56-.29.74-.55.34-.49.63-1.01.86-1.56.24-.54.32-1.14.49-1.72.17-.57.21-1.17.35-1.76.14-.58.72-1.06.86-1.64.15-.59-.05-1.27.14-1.83.19-.57.79-.97,1.06-1.49.28-.53.4-1.13.8-1.59.38-.44.94-.65,1.46-1,.64-.43,1.13-.8,1.65-.96.74-.23,1.27-.12,1.82.09.59.22,1.07.51,1.5,1.08.37.48.51,1.12.8,1.76.26.58.46,1.18.68,1.82.13.39.86.79,1.06,1.48.15.51-.19,1.23-.04,1.82.15.56.77,1.02.89,1.58.14.6,0,1.24.08,1.77.11.74.51,1.41.43,1.78-.16.73-.95,1.32-1.61,1.6-.65.27-1.32-.05-1.96-.46-.28-.18-.53-.68-.8-1.56-.17-.56-.42-1.17-.59-1.85-.15-.62-.28-1.27-.43-1.9-.16-.66-.18-1.36-.36-1.93-.23-.76-.6-1.41-.85-1.8-.19-.3-.13-.47-.83-.33-.19.54-.05,1.2-.22,1.76-.17.55-.66,1-.82,1.55-.16.55-.42,1.07-.59,1.63-.17.55-.33,1.1-.51,1.65-.19.55-.37,1.09-.59,1.62-.22.54-.5,1.03-.76,1.54-.26.51-.22,1.21-.54,1.69-.32.48-1,.68-1.39,1.11-.4.45-.7,1-1.21,1.16-.53.17-1.17.21-1.73.11-.54-.1-1.18-.25-1.66-.55-.47-.3-.49-1.07-.81-1.54-.34-.5-.88-.88-1.15-1.44-.26-.55-.65-1.07-.85-1.66-.2-.58-.04-1.27-.19-1.88-.15-.59-.61-1.13-.73-1.74-.11-.6-.16-1.23-.25-1.85-.09-.61-.03-1.25-.11-1.86-.08-.62.08-1.26,0-1.87-.07-.62-.54-1.19-.61-1.8-.08-.63.07-1.27-.02-1.87-.09-.63-.32-1.22-.43-1.81-.05-.28-.08-2.01-.71-1.4-.21.51-.43,1-.65,1.51-.22.51-.53.98-.75,1.49-.22.51-.3,1.07-.5,1.59-.2.52-.46,1.01-.63,1.54-.16.53-.46,1.03-.57,1.57-.12.57-.1,1.17-.18,1.75-.08.58-.26,1.15-.31,1.73-.06.58-.03,1.17-.07,1.76-.04.58-.33,1.15-.36,1.74-.04.58,0,1.17-.04,1.76-.04.58.43,1.21.38,1.79-.05.58-.34,1.15-.41,1.73-.07.58-.41,1.12-.52,1.69-.1.57.07,1.21-.08,1.78-.1.37-.35.89-.54,1.5-.15.48-.23,1.03-.41,1.55-.18.52-.48,1-.66,1.46-.23.61-.36,1.19-.54,1.51-.34.62-1.03.71-1.67.88-.6.16-1.23.42-1.92.28-.64-.13-1.18-.59-1.75-.92-.61-.35-1.39-.53-1.74-1.02-.31-.43-.4-1.09-.63-1.71-.19-.52-.46-1.07-.6-1.7-.13-.55.01-1.19-.08-1.81-.09-.57-.21-1.15-.28-1.77-.06-.58-.54-1.14-.58-1.76-.04-.59.05-1.2.03-1.81-.02-.59.2-1.2.19-1.81-.01-.59.06-1.19.06-1.8,0-.6-.26-1.2-.26-1.8,0-.6.34-1.2.35-1.8,0-.6-.19-1.21-.18-1.81.01-.61.22-1.21.23-1.8.02-.61.07-1.22.09-1.81.02-.62-.35-1.23-.33-1.81.02-.63.04-1.23.05-1.8.01-.64.13-1.24.12-1.8,0-.66-.05-1.26-.08-1.79-.02-.52-.02-1.13-.07-1.81-.04-.57.04-1.19-.02-1.82-.05-.59-.32-1.17-.39-1.79-.07-.6-.1-1.21-.19-1.81-.09-.61.18-1.29.07-1.86-.12-.63-.75-1.12-.9-1.66-.18-.66-.16-1.3-.37-1.77-.45-.97-.79-.88-1.21-.52-.35.3-.65.82-.92,1.44-.27.63-.51,1.27-.65,1.67-.2.58-.35,1.18-.53,1.77-.17.59-.36,1.17-.52,1.77-.15.6-.31,1.19-.45,1.79-.13.6-.13,1.23-.25,1.84-.12.6-.73,1.12-.83,1.73-.1.61.37,1.31.27,1.92-.09.61-.4,1.19-.48,1.8-.09.61-.16,1.22-.24,1.84-.08.61-.54,1.18-.61,1.79-.07.61-.1,1.23-.18,1.85-.07.61.11,1.26.04,1.87-.07.61,0,1.24-.08,1.86-.07.61-.46,1.19-.54,1.8-.08.61.05,1.25-.04,1.86-.09.61-.19,1.22-.29,1.83-.1.61-.06,1.25-.17,1.85-.11.61-.49,1.16-.61,1.76-.13.61.08,1.29-.06,1.89-.15.6-.47,1.16-.64,1.75-.17.59-.75,1.06-.94,1.64-.2.61-.04,1.35-.34,1.88-.32.56-.61,1.18-1.02,1.62-.43.46-1.01.85-1.53,1.17-.53.32-1.16.61-1.77.76-.58.15-1.25-.19-1.9-.2-.59-.01-1.18-.04-1.82-.2-.55-.14-.99-.43-1.41-.91-.35-.4-.82-.8-1.09-1.38-.24-.5-.23-1.14-.42-1.72-.17-.54-.34-1.1-.47-1.68-.13-.57-.39-1.12-.49-1.7-.1-.59.06-1.22-.01-1.78-.08-.62-.14-1.21-.2-1.74-.07-.69-.16-1.28-.2-1.74-.04-.62-.1-1.19-.1-1.75,0-.61-.36-1.19-.33-1.76.02-.59.33-1.15.37-1.73.04-.57-.22-1.17-.17-1.76.04-.56.62-1.11.65-1.72.03-.69-.07-1.37-.08-2.04,0-.68-.26-1.35-.32-2.01-.07-.67-.12-1.34-.26-2.01-.13-.65-.4-1.18-.62-1.83-.55.14-1.13.14-1.48.55-.35.4-.62.98-.84,1.48-.22.52-.23,1.13-.38,1.6-.17.54-.42,1.12-.56,1.76-.12.57.17,1.25.06,1.87-.1.58-.34,1.16-.44,1.78-.1.59-.53,1.14-.63,1.75-.1.6.14,1.26.03,1.86-.11.61-.39,1.18-.51,1.77-.13.61-.5,1.14-.65,1.72-.16.61-.1,1.26-.31,1.81-.22.6-.38,1.21-.65,1.72-.3.57-.74,1.02-1.12,1.45-.39.44-.79.82-1.25,1.05-.51.26-1.05.4-1.59.42-.54.03-1.17.1-1.68-.1-.5-.19-1.05-.49-1.48-.86-.39-.35-.45-1.03-.74-1.52-.32-.54-.47-1.11-.66-1.72-.18-.59-.4-1.16-.51-1.79-.1-.61-.12-1.24-.2-1.87-.08-.63-.59-1.2-.68-1.82-.09-.63-.14-1.24-.28-1.85-.15-.62-.17-1.13-.43-1.69-.5.4-.75.88-.98,1.58-.2.62-.39,1.29-.55,1.96-.16.7-.24,1.42-.54,1.98-.32.62-.9.94-1.62,1.12-.69.18-1.25-.98-1.36-1.56-.1-.51-.35-1.06-.28-1.68.06-.54.38-1.06.56-1.63.16-.54.32-1.08.57-1.61.24-.52.48-1.04.78-1.52.32-.5.68-.94,1.05-1.35.4-.45.85-.77,1.3-1.08.5-.34.96-.6,1.5-.71.68-.13,1.18-.05,1.68.22.5.27,1.09.53,1.43,1.09.29.47.15,1.19.35,1.8.18.55.46,1.08.59,1.68.12.58.51,1.13.6,1.73.09.61.28,1.21.36,1.78.08.64-.37,1.32-.29,1.86.1.74.65,1.25.78,1.67.18.55-.11,1.14.69,1.03.14-.64.61-1.07.89-1.72.27-.66.72-1.28.87-1.9.13-.52-.23-1.2-.12-1.82.1-.55.56-1.06.66-1.66.09-.56.35-1.12.45-1.71.1-.57.01-1.18.12-1.76.11-.57.41-1.11.54-1.68.12-.58,0-1.21.16-1.77.15-.58.45-1.1.64-1.64.19-.57.49-1.06.73-1.58.25-.55.18-1.26.49-1.73.33-.5.98-.73,1.38-1.13.42-.41.76-.9,1.27-1.18.64-.34,1.19-.72,1.73-.86.71-.18,1.44-.34,1.99-.21.64.14.96.92,1.41,1.38.42.42,1.18.7,1.46,1.31.25.55.47,1.21.63,1.85.15.6-.11,1.32-.02,1.96.09.63.15,1.26.19,1.89.04.66.36,1.29.36,1.9,0,.69-.47,1.32-.5,1.89-.04.59.32,1.19.29,1.76-.04.59-.12,1.16-.16,1.73-.04.58-.37,1.15-.4,1.72-.03.58.13,1.17.11,1.74-.01.58-.15,1.16-.14,1.74,0,.57.12,1.15.16,1.73.04.57,0,1.16.07,1.74.07.56.4,1.1.5,1.68.1.56-.09,1.19.05,1.77.17.69.59,1.21.82,1.64.38.71.85.94,1.34.97.49.03,1.02-.11,1.49-.76.29-.4.56-.95.81-1.62.21-.55.3-1.16.47-1.78.16-.57.65-1.08.79-1.7.13-.58.26-1.2.37-1.81.11-.59-.23-1.27-.14-1.89.09-.6.14-1.21.21-1.82.07-.6.36-1.19.43-1.8.07-.61.33-1.2.39-1.81.06-.61-.04-1.24.02-1.85.06-.62-.01-1.24.05-1.84.06-.62.35-1.21.41-1.81.06-.62,0-1.25.06-1.84.07-.63.35-1.21.44-1.79.07-.49-.25-1.14-.13-1.81.09-.53.35-1.09.46-1.71.1-.55.17-1.14.3-1.74.11-.56.45-1.1.58-1.68.12-.57.2-1.16.33-1.74.14-.57.42-1.11.56-1.68.15-.58-.2-1.29-.04-1.85.16-.58.76-1.03.93-1.57.18-.59.03-1.27.23-1.79.22-.6.46-1.16.69-1.64.29-.62.71-1.08,1.01-1.47.37-.48.71-.98,1.13-1.34.46-.4,1.02-.63,1.52-.85.55-.25,1.11-.42,1.67-.45.57-.03,1.24-.15,1.79.07.5.2.76.9,1.22,1.31.39.36.79.73,1.13,1.25.3.46.52,1.03.76,1.72.2.56.83,1.05,1,1.71.15.6-.08,1.31.04,1.96.12.62.47,1.22.56,1.86.09.64.21,1.28.29,1.91.08.66.18,1.3.24,1.92.06.68.07,1.33.12,1.93.05.72.14,1.37.17,1.92.03.61-.18,1.24-.17,1.86.01.62-.27,1.23-.27,1.85,0,.62.35,1.23.34,1.85-.01.62-.42,1.22-.44,1.84-.02.61.43,1.24.41,1.86-.02.61.02,1.23,0,1.85-.02.61-.24,1.22-.25,1.84s.09,1.23.08,1.84c0,.62-.44,1.23-.44,1.84,0,.62.26,1.23.27,1.84.02.61.17,1.22.21,1.84.04.61-.16,1.24-.1,1.86.06.61.03,1.24.11,1.85.08.61.37,1.19.48,1.8.11.6.45,1.08.58,1.68"/></svg>