<?xml version="1.0" encoding="UTF-8"?><svg id="Layer_1" xmlns="http://www.w3.org/2000/svg" viewBox="0 0 200 200"><path d="M96.61,133.73c-.06-.41,0-1.06-.07-1.85-.06-.57-.21-1.19-.25-1.85-.04-.61.02-1.24.02-1.87,0-.64-.37-1.3-.32-1.9.06-.69.17-1.38.34-1.9.24-.74.79-1.33,1.32-1.48.92-.26,1.36.25,1.72.78.32.48.86,1.06.9,1.84.04.67-.52,1.39-.56,2.07-.04.79.44,1.54.45,2.07.01.65-.1,1.28-.04,1.86.07.74,0,1.37-.17,1.84-.2.5-.6.72-1.51.67-.47-.02-1.06-.06-1.82-.28"/><path d="M96.61,133.73c-.06-.41,0-1.06-.07-1.85-.06-.57-.21-1.19-.25-1.85-.04-.61.02-1.24.02-1.87,0-.64-.37-1.3-.32-1.9.06-.69.17-1.38.34-1.9.24-.74.79-1.33,1.32-1.48.92-.26,1.36.25,1.72.78.32.48.86,1.06.9,1.84.04.67-.52,1.39-.56,2.07-.04.79.44,1.54.45,2.07.01.65-.1,1.28-.04,1.86.07.74,0,1.37-.17,1.84-.2.5-.6.72-1.51.67-.47-.02-1.06-.06-1.82-.28"/><path d="M129.69,66.5c.55-.52,1.05-.57,1.51-.41.48.16,1.15.4,1.46.94.28.49.27,1.2.34,1.73.05.37.26,1,.29,1.79.02.54-.4,1.17-.39,1.81.01.58.58,1.18.58,1.79,0,.61-.4,1.22-.41,1.8,0,.65.01,1.26,0,1.8-.03.8.2,1.48.13,1.83-.14.71-.86,1.03-1.46,1.19-.58.15-1.18,0-1.72-.37-.47-.33-.75-.78-.87-1.51-.06-.41-.16-1-.2-1.72-.02-.53.02-1.12.01-1.75-.01-.57-.43-1.16-.43-1.75,0-.59.45-1.18.46-1.75.01-.62-.08-1.22-.06-1.76.03-.71.09-1.31.14-1.74.05-.48.3-1.63.62-1.93"/><path d="M129.69,66.5c.55-.52,1.05-.57,1.51-.41.48.16,1.15.4,1.46.94.28.49.27,1.2.34,1.73.05.37.26,1,.29,1.79.02.54-.4,1.17-.39,1.81.01.58.58,1.18.58,1.79,0,.61-.4,1.22-.41,1.8,0,.65.01,1.26,0,1.8-.03.8.2,1.48.13,1.83-.14.71-.86,1.03-1.46,1.19-.58.15-1.18,0-1.72-.37-.47-.33-.75-.78-.87-1.51-.06-.41-.16-1-.2-1.72-.02-.53.02-1.12.01-1.75-.01-.57-.43-1.16-.43-1.75,0-.59.45-1.18.46-1.75.01-.62-.08-1.22-.06-1.76.03-.71.09-1.31.14-1.74.05-.48.3-1.63.62-1.93"/><path d="M138.8,79.94c-.44.5-1.17.45-1.88.26-.69-.19-1.1-.6-1.34-1.2-.12-.31-.17-.83-.21-1.6-.03-.51-.51-1.08-.52-1.68,0-.56.31-1.14.32-1.71,0-.6.09-1.18.11-1.71.03-.73-.28-1.35-.25-1.72.04-.44.52-1.14.65-1.86.15-.77.04-1.64.35-1.92.72-.62,1.62-.63,2.25-.28.62.34,1.35,1.08,1.5,1.9-.03.36-.66,1.08-.68,1.95-.01.58.34,1.24.33,1.93-.01.62-.02,1.28-.03,1.93-.01.65-.14,1.3-.17,1.92-.03.7-.3,1.34-.35,1.9-.08.98.09,1.7-.07,1.89"/><path d="M138.8,79.94c-.44.5-1.17.45-1.88.26-.69-.19-1.1-.6-1.34-1.2-.12-.31-.17-.83-.21-1.6-.03-.51-.51-1.08-.52-1.68,0-.56.31-1.14.32-1.71,0-.6.09-1.18.11-1.71.03-.73-.28-1.35-.25-1.72.04-.44.52-1.14.65-1.86.15-.77.04-1.64.35-1.92.72-.62,1.62-.63,2.25-.28.62.34,1.35,1.08,1.5,1.9-.03.36-.66,1.08-.68,1.95-.01.58.34,1.24.33,1.93-.01.62-.02,1.28-.03,1.93-.01.65-.14,1.3-.17,1.92-.03.7-.3,1.34-.35,1.9-.08.98.09,1.7-.07,1.89"/><path d="M119.41,79.75c-.39.28-1.11,0-1.71-.01-.61-.01-1.44.26-1.75-.19-.21-.3-.26-1.13-.36-1.98-.07-.58-.08-1.25-.12-1.92-.04-.65.32-1.33.3-1.93-.03-.79-.27-1.46-.3-1.9-.05-.56-.41-1.16-.54-1.8-.13-.63.15-1.28.19-1.85.04-.63.1-1.09.66-1.49.76-.56,1.18-.97,2.06-.44.39.23.32.99.54,1.68.16.48.73.94.83,1.57.09.54.26,1.12.31,1.71.06.57-.04,1.16,0,1.74.04.59-.08,1.18-.03,1.74.05.62-.05,1.22.02,1.74.09.69.56,1.21.72,1.61.03.44-.5,1.52-.81,1.74"/><path d="M119.41,79.75c-.39.28-1.11,0-1.71-.01-.61-.01-1.44.26-1.75-.19-.21-.3-.26-1.13-.36-1.98-.07-.58-.08-1.25-.12-1.92-.04-.65.32-1.33.3-1.93-.03-.79-.27-1.46-.3-1.9-.05-.56-.41-1.16-.54-1.8-.13-.63.15-1.28.19-1.85.04-.63.1-1.09.66-1.49.76-.56,1.18-.97,2.06-.44.39.23.32.99.54,1.68.16.48.73.94.83,1.57.09.54.26,1.12.31,1.71.06.57-.04,1.16,0,1.74.04.59-.08,1.18-.03,1.74.05.62-.05,1.22.02,1.74.09.69.56,1.21.72,1.61.03.44-.5,1.52-.81,1.74"/><path d="M122.78,66.72c.42-.08.93-.33,1.37-.11.45.23,1.06.54,1.25.91.14.29.07,1.09.21,1.96.09.55-.17,1.23-.09,1.91.07.6.46,1.2.51,1.84.06.64-.21,1.29-.17,1.9.04.68.54,1.3.55,1.86.02.87.06,1.6-.01,1.93-.18.82-1.19,1.04-1.96,1.11-.79.07-1.5-.11-1.78-.88-.01-.55-.28-1.09-.34-1.66-.06-.56.22-1.17.13-1.74-.09-.56-.24-1.12-.33-1.68-.1-.56-.06-1.15-.15-1.71-.09-.57-.35-1.1-.42-1.65-.07-.58-.35-1.13-.37-1.68-.02-.55.09-1.15.3-1.62.22-.48.68-.57,1.32-.69"/><path d="M122.78,66.72c.42-.08.93-.33,1.37-.11.45.23,1.06.54,1.25.91.14.29.07,1.09.21,1.96.09.55-.17,1.23-.09,1.91.07.6.46,1.2.51,1.84.06.64-.21,1.29-.17,1.9.04.68.54,1.3.55,1.86.02.87.06,1.6-.01,1.93-.18.82-1.19,1.04-1.96,1.11-.79.07-1.5-.11-1.78-.88-.01-.55-.28-1.09-.34-1.66-.06-.56.22-1.17.13-1.74-.09-.56-.24-1.12-.33-1.68-.1-.56-.06-1.15-.15-1.71-.09-.57-.35-1.1-.42-1.65-.07-.58-.35-1.13-.37-1.68-.02-.55.09-1.15.3-1.62.22-.48.68-.57,1.32-.69"/><path d="M112.55,79.78c-.29.57-.49.79-1,.75-.47-.03-.99-.2-1.48-.21-.35-.18-.56-1.39-.62-1.79-.08-.54-.46-1.17-.54-1.91-.07-.62.06-1.3,0-1.98-.05-.65-.1-1.32-.14-1.96-.04-.68-.23-1.34-.25-1.96-.03-.75.36-1.42.37-1.96.02-.8-.27-1.63.1-2.04.49-.54,1.4-.55,2.02-.34.52.18.95.68,1.22,1.46.05.63-.15,1.29-.08,1.93.07.63.64,1.21.72,1.85.08.63-.03,1.3.04,1.93.07.64-.15,1.3-.1,1.94.06.65.14,1.27.16,1.9.04,1.09.05,1.43-.44,2.39"/><path d="M112.55,79.78c-.29.57-.49.79-1,.75-.47-.03-.99-.2-1.48-.21-.35-.18-.56-1.39-.62-1.79-.08-.54-.46-1.17-.54-1.91-.07-.62.06-1.3,0-1.98-.05-.65-.1-1.32-.14-1.96-.04-.68-.23-1.34-.25-1.96-.03-.75.36-1.42.37-1.96.02-.8-.27-1.63.1-2.04.49-.54,1.4-.55,2.02-.34.52.18.95.68,1.22,1.46.05.63-.15,1.29-.08,1.93.07.63.64,1.21.72,1.85.08.63-.03,1.3.04,1.93.07.64-.15,1.3-.1,1.94.06.65.14,1.27.16,1.9.04,1.09.05,1.43-.44,2.39"/><path d="M74.14,69.62c.87-.26,1.39.4,1.8.98.36.52.8,1.14.94,1.88.15.78-.11,1.61-.04,2.16.06.47.24,1.1.31,1.82.05.59.05,1.22.09,1.85.04.64-.08,1.27-.07,1.85,0,.74.56,1.43.48,1.88-.13.83-.95,1.44-1.62,1.62-.7.18-1.43-.23-1.93-.8-.25-.29-.39-.88-.51-1.75-.07-.57-.4-1.2-.43-1.9-.03-.62.16-1.28.15-1.94-.01-.65.11-1.31.1-1.93,0-.69-.11-1.35-.12-1.93-.02-.82-.16-1.49-.22-1.92-.03-.63.49-1.7,1.08-1.88"/><path d="M74.14,69.62c.87-.26,1.39.4,1.8.98.36.52.8,1.14.94,1.88.15.78-.11,1.61-.04,2.16.06.47.24,1.1.31,1.82.05.59.05,1.22.09,1.85.04.64-.08,1.27-.07,1.85,0,.74.56,1.43.48,1.88-.13.83-.95,1.44-1.62,1.62-.7.18-1.43-.23-1.93-.8-.25-.29-.39-.88-.51-1.75-.07-.57-.4-1.2-.43-1.9-.03-.62.16-1.28.15-1.94-.01-.65.11-1.31.1-1.93,0-.69-.11-1.35-.12-1.93-.02-.82-.16-1.49-.22-1.92-.03-.63.49-1.7,1.08-1.88"/><path d="M95.5,67.93c.82-.24,1.46-.04,1.88.35.43.39.68,1.05.87,1.73.18.64.18,1.34.28,1.92.08.47.18,1.1.28,1.82.08.58.34,1.18.41,1.81.07.63,0,1.27.05,1.85.05.73.4,1.39.38,1.85-.03.76-.55,1.46-1.01,1.81-.53.4-1.34.44-1.95.32-.64-.12-1.07-.6-1.22-1.3-.12-.56-.19-1.13-.25-1.72-.06-.57,0-1.16-.02-1.75-.03-.58-.18-1.16-.2-1.75-.02-.59-.01-1.18-.05-1.76-.04-.59-.19-1.16-.27-1.74-.08-.59-.3-1.15-.44-1.7-.02-.65.67-1.56,1.27-1.74"/><path d="M95.5,67.93c.82-.24,1.46-.04,1.88.35.43.39.68,1.05.87,1.73.18.64.18,1.34.28,1.92.08.47.18,1.1.28,1.82.08.58.34,1.18.41,1.81.07.63,0,1.27.05,1.85.05.73.4,1.39.38,1.85-.03.76-.55,1.46-1.01,1.81-.53.4-1.34.44-1.95.32-.64-.12-1.07-.6-1.22-1.3-.12-.56-.19-1.13-.25-1.72-.06-.57,0-1.16-.02-1.75-.03-.58-.18-1.16-.2-1.75-.02-.59-.01-1.18-.05-1.76-.04-.59-.19-1.16-.27-1.74-.08-.59-.3-1.15-.44-1.7-.02-.65.67-1.56,1.27-1.74"/><path d="M105.85,80.02c-.19.16-.56.75-1.16.81-.58.06-1.27.05-1.53-.04-.41-.14-.47-1-.66-1.88-.12-.55-.48-1.16-.54-1.86-.06-.61-.12-1.27-.16-1.93-.03-.65.04-1.31.01-1.93-.03-.69.02-1.35-.02-1.93-.06-.83-.29-1.52-.43-1.9.28-.82.95-1.19,1.35-1.52.6-.49,1.01-.56,1.57.01.37.37.82.87,1.05,1.7.14.49.12,1.16.24,1.89.1.58.34,1.2.42,1.86.08.62.26,1.26.32,1.88.06.66.28,1.29.32,1.89.05.73-.05,1.4-.04,1.91,0,.38-.45.81-.74,1.05"/><path d="M105.85,80.02c-.19.16-.56.75-1.16.81-.58.06-1.27.05-1.53-.04-.41-.14-.47-1-.66-1.88-.12-.55-.48-1.16-.54-1.86-.06-.61-.12-1.27-.16-1.93-.03-.65.04-1.31.01-1.93-.03-.69.02-1.35-.02-1.93-.06-.83-.29-1.52-.43-1.9.28-.82.95-1.19,1.35-1.52.6-.49,1.01-.56,1.57.01.37.37.82.87,1.05,1.7.14.49.12,1.16.24,1.89.1.58.34,1.2.42,1.86.08.62.26,1.26.32,1.88.06.66.28,1.29.32,1.89.05.73-.05,1.4-.04,1.91,0,.38-.45.81-.74,1.05"/><path d="M69.76,71.53c.22.31.62.82.71,1.61.06.53-.25,1.16-.22,1.8.02.57.24,1.17.26,1.77.01.6-.28,1.21-.26,1.79.02.63.03,1.25.07,1.79.06.73.15,1.33.29,1.74-.06.88-.29,1.18-.8,1.49-.6.35-1.05.33-1.67-.06-.53-.33-.87-.66-1-1.47.06-.44-.32-1.05-.36-1.77-.03-.55-.26-1.14-.32-1.77-.05-.58-.04-1.2-.08-1.8-.05-.61-.07-1.23-.1-1.81-.02-.65-.11-1.3-.06-1.83.06-.76.59-1.26.88-1.6.36-.43.82-.48,1.36-.45.56.03,1,.15,1.31.58"/><path d="M69.76,71.53c.22.31.62.82.71,1.61.06.53-.25,1.16-.22,1.8.02.57.24,1.17.26,1.77.01.6-.28,1.21-.26,1.79.02.63.03,1.25.07,1.79.06.73.15,1.33.29,1.74-.06.88-.29,1.18-.8,1.49-.6.35-1.05.33-1.67-.06-.53-.33-.87-.66-1-1.47.06-.44-.32-1.05-.36-1.77-.03-.55-.26-1.14-.32-1.77-.05-.58-.04-1.2-.08-1.8-.05-.61-.07-1.23-.1-1.81-.02-.65-.11-1.3-.06-1.83.06-.76.59-1.26.88-1.6.36-.43.82-.48,1.36-.45.56.03,1,.15,1.31.58"/><path d="M90.42,68.52c.3.3.57.95.67,1.59.08.52-.27,1.14-.22,1.68.06.62.44,1.18.58,1.58-.13.45-.05,1.14.03,1.95.06.62.07,1.31.14,1.98.08.7-.26,1.39-.27,1.99-.02.85.11,1.56-.36,1.83-.59.34-1.11.16-1.53.14-.56-.03-.75-.22-1.05-.73-.24-.4-.87-.74-.96-1.34-.07-.46.27-1.13.21-1.82-.05-.55-.28-1.14-.32-1.76-.04-.59-.24-1.19-.27-1.78-.02-.62-.14-1.24-.14-1.79,0-.7.06-1.34.12-1.8.09-.76.42-1.51,1.05-1.98.53-.28,1.92-.14,2.32.26"/><path d="M90.42,68.52c.3.3.57.95.67,1.59.08.52-.27,1.14-.22,1.68.06.62.44,1.18.58,1.58-.13.45-.05,1.14.03,1.95.06.62.07,1.31.14,1.98.08.7-.26,1.39-.27,1.99-.02.85.11,1.56-.36,1.83-.59.34-1.11.16-1.53.14-.56-.03-.75-.22-1.05-.73-.24-.4-.87-.74-.96-1.34-.07-.46.27-1.13.21-1.82-.05-.55-.28-1.14-.32-1.76-.04-.59-.24-1.19-.27-1.78-.02-.62-.14-1.24-.14-1.79,0-.7.06-1.34.12-1.8.09-.76.42-1.51,1.05-1.98.53-.28,1.92-.14,2.32.26"/><path d="M81.2,81.44c-.41-.54-.54-1.06-.53-1.62.01-.62.24-1.24.18-1.77-.06-.55-.44-1.11-.54-1.75-.09-.58-.28-1.17-.37-1.78-.09-.61.06-1.25,0-1.83-.07-.65-.26-1.27-.24-1.81.02-.7.66-1.42,1.27-1.79.62-.37,1.55-.48,2.13.12.24.25.43,1.03.63,1.88.14.57.26,1.23.37,1.88.11.65.38,1.29.46,1.88.1.81.11,1.53.14,1.92.05.64-.35,1.35-.33,1.99.03.73.18,1.38.02,1.92-.2.67-.51,1.42-1.29,1.48-.48.04-1.09-.4-1.89-.72"/><path d="M81.2,81.44c-.41-.54-.54-1.06-.53-1.62.01-.62.24-1.24.18-1.77-.06-.55-.44-1.11-.54-1.75-.09-.58-.28-1.17-.37-1.78-.09-.61.06-1.25,0-1.83-.07-.65-.26-1.27-.24-1.81.02-.7.66-1.42,1.27-1.79.62-.37,1.55-.48,2.13.12.24.25.43,1.03.63,1.88.14.57.26,1.23.37,1.88.11.65.38,1.29.46,1.88.1.81.11,1.53.14,1.92.05.64-.35,1.35-.33,1.99.03.73.18,1.38.02,1.92-.2.67-.51,1.42-1.29,1.48-.48.04-1.09-.4-1.89-.72"/><path d="M64.68,83.4c-.83.33-1.55.79-2.13.79-.6,0-1.04-.53-1.42-1.65-.11-.34-.32-.93-.42-1.67-.07-.52.13-1.13.08-1.74-.05-.57-.09-1.15-.13-1.72-.04-.61-.24-1.19-.25-1.71-.02-.74-.21-1.38-.17-1.74.07-.61.74-1.86,1.34-2.06.65-.18,1.31-.41,1.72-.06.41.35.71,1.04.85,1.62.09.4.16,1.01.25,1.68.07.52.02,1.11.08,1.69.06.57-.19,1.17-.15,1.7.06.66.18,1.23.21,1.66.01.25.51.92.52,1.6,0,.76-.3,1.54-.37,1.62"/><path d="M64.68,83.4c-.83.33-1.55.79-2.13.79-.6,0-1.04-.53-1.42-1.65-.11-.34-.32-.93-.42-1.67-.07-.52.13-1.13.08-1.74-.05-.57-.09-1.15-.13-1.72-.04-.61-.24-1.19-.25-1.71-.02-.74-.21-1.38-.17-1.74.07-.61.74-1.86,1.34-2.06.65-.18,1.31-.41,1.72-.06.41.35.71,1.04.85,1.62.09.4.16,1.01.25,1.68.07.52.02,1.11.08,1.69.06.57-.19,1.17-.15,1.7.06.66.18,1.23.21,1.66.01.25.51.92.52,1.6,0,.76-.3,1.54-.37,1.62"/><path d="M96.61,133.73c-.06-.41,0-1.06-.07-1.85-.06-.57-.21-1.19-.25-1.85-.04-.61.02-1.24.02-1.87,0-.64-.37-1.3-.32-1.9.06-.69.17-1.38.34-1.9.24-.74.79-1.33,1.32-1.48.92-.26,1.36.25,1.72.78.32.48.86,1.06.9,1.84.04.67-.52,1.39-.56,2.07-.04.79.44,1.54.45,2.07.01.65-.1,1.28-.04,1.86.07.74,0,1.37-.17,1.84-.2.5-.6.72-1.51.67-.47-.02-1.06-.06-1.82-.28"/><path d="M129.69,66.5c.55-.52,1.05-.57,1.51-.41.48.16,1.15.4,1.46.94.28.49.27,1.2.34,1.73.05.37.26,1,.29,1.79.02.54-.4,1.17-.39,1.81.01.58.58,1.18.58,1.79,0,.61-.4,1.22-.41,1.8,0,.65.01,1.26,0,1.8-.03.8.2,1.48.13,1.83-.14.71-.86,1.03-1.46,1.19-.58.15-1.18,0-1.72-.37-.47-.33-.75-.78-.87-1.51-.06-.41-.16-1-.2-1.72-.02-.53.02-1.12.01-1.75-.01-.57-.43-1.16-.43-1.75,0-.59.45-1.18.46-1.75.01-.62-.08-1.22-.06-1.76.03-.71.09-1.31.14-1.74.05-.48.3-1.63.62-1.93"/><path d="M138.8,79.94c-.44.5-1.17.45-1.88.26-.69-.19-1.1-.6-1.34-1.2-.12-.31-.17-.83-.21-1.6-.03-.51-.51-1.08-.52-1.68,0-.56.31-1.14.32-1.71,0-.6.09-1.18.11-1.71.03-.73-.28-1.35-.25-1.72.04-.44.52-1.14.65-1.86.15-.77.04-1.64.35-1.92.72-.62,1.62-.63,2.25-.28.62.34,1.35,1.08,1.5,1.9-.03.36-.66,1.08-.68,1.95-.01.58.34,1.24.33,1.93-.01.62-.02,1.28-.03,1.93-.01.65-.14,1.3-.17,1.92-.03.7-.3,1.34-.35,1.9-.08.98.09,1.7-.07,1.89"/><path d="M119.41,79.75c-.39.28-1.11,0-1.71-.01-.61-.01-1.44.26-1.75-.19-.21-.3-.26-1.13-.36-1.98-.07-.58-.08-1.25-.12-1.92-.04-.65.32-1.33.3-1.93-.03-.79-.27-1.46-.3-1.9-.05-.56-.41-1.16-.54-1.8-.13-.63.15-1.28.19-1.85.04-.63.1-1.09.66-1.49.76-.56,1.18-.97,2.06-.44.39.23.32.99.54,1.68.16.48.73.94.83,1.57.09.54.26,1.12.31,1.71.06.57-.04,1.16,0,1.74.04.59-.08,1.18-.03,1.74.05.62-.05,1.22.02,1.74.09.69.56,1.21.72,1.61.03.44-.5,1.52-.81,1.74"/><path d="M122.78,66.72c.42-.08.93-.33,1.37-.11.45.23,1.06.54,1.25.91.14.29.07,1.09.21,1.96.09.55-.17,1.23-.09,1.91.07.6.46,1.2.51,1.84.06.64-.21,1.29-.17,1.9.04.68.54,1.3.55,1.86.02.87.06,1.6-.01,1.93-.18.82-1.19,1.04-1.96,1.11-.79.07-1.5-.11-1.78-.88-.01-.55-.28-1.09-.34-1.66-.06-.56.22-1.17.13-1.74-.09-.56-.24-1.12-.33-1.68-.1-.56-.06-1.15-.15-1.71-.09-.57-.35-1.1-.42-1.65-.07-.58-.35-1.13-.37-1.68-.02-.55.09-1.15.3-1.62.22-.48.68-.57,1.32-.69"/><path d="M112.55,79.78c-.29.57-.49.79-1,.75-.47-.03-.99-.2-1.48-.21-.35-.18-.56-1.39-.62-1.79-.08-.54-.46-1.17-.54-1.91-.07-.62.06-1.3,0-1.98-.05-.65-.1-1.32-.14-1.96-.04-.68-.23-1.34-.25-1.96-.03-.75.36-1.42.37-1.96.02-.8-.27-1.63.1-2.04.49-.54,1.4-.55,2.02-.34.52.18.95.68,1.22,1.46.05.63-.15,1.29-.08,1.93.07.63.64,1.21.72,1.85.08.63-.03,1.3.04,1.93.07.64-.15,1.3-.1,1.94.06.65.14,1.27.16,1.9.04,1.09.05,1.43-.44,2.39"/><path d="M74.14,69.62c.87-.26,1.39.4,1.8.98.36.52.8,1.14.94,1.88.15.78-.11,1.61-.04,2.16.06.47.24,1.1.31,1.82.05.59.05,1.22.09,1.85.04.64-.08,1.27-.07,1.85,0,.74.56,1.43.48,1.88-.13.83-.95,1.44-1.62,1.62-.7.18-1.43-.23-1.93-.8-.25-.29-.39-.88-.51-1.75-.07-.57-.4-1.2-.43-1.9-.03-.62.16-1.28.15-1.94-.01-.65.11-1.31.1-1.93,0-.69-.11-1.35-.12-1.93-.02-.82-.16-1.49-.22-1.92-.03-.63.49-1.7,1.08-1.88"/><path d="M95.5,67.93c.82-.24,1.46-.04,1.88.35.43.39.68,1.05.87,1.73.18.64.18,1.34.28,1.92.08.47.18,1.1.28,1.82.08.58.34,1.18.41,1.81.07.63,0,1.27.05,1.85.05.73.4,1.39.38,1.85-.03.76-.55,1.46-1.01,1.81-.53.4-1.34.44-1.95.32-.64-.12-1.07-.6-1.22-1.3-.12-.56-.19-1.13-.25-1.72-.06-.57,0-1.16-.02-1.75-.03-.58-.18-1.16-.2-1.75-.02-.59-.01-1.18-.05-1.76-.04-.59-.19-1.16-.27-1.74-.08-.59-.3-1.15-.44-1.7-.02-.65.67-1.56,1.27-1.74"/><path d="M105.85,80.02c-.19.16-.56.75-1.16.81-.58.06-1.27.05-1.53-.04-.41-.14-.47-1-.66-1.88-.12-.55-.48-1.16-.54-1.86-.06-.61-.12-1.27-.16-1.93-.03-.65.04-1.31.01-1.93-.03-.69.02-1.35-.02-1.93-.06-.83-.29-1.52-.43-1.9.28-.82.95-1.19,1.35-1.52.6-.49,1.01-.56,1.57.01.37.37.82.87,1.05,1.7.14.49.12,1.16.24,1.89.1.58.34,1.2.42,1.86.08.62.26,1.26.32,1.88.06.66.28,1.29.32,1.89.05.73-.05,1.4-.04,1.91,0,.38-.45.81-.74,1.05"/><path d="M69.76,71.53c.22.31.62.82.71,1.61.06.53-.25,1.16-.22,1.8.02.57.24,1.17.26,1.77.01.6-.28,1.21-.26,1.79.02.63.03,1.25.07,1.79.06.73.15,1.33.29,1.74-.06.88-.29,1.18-.8,1.49-.6.35-1.05.33-1.67-.06-.53-.33-.87-.66-1-1.47.06-.44-.32-1.05-.36-1.77-.03-.55-.26-1.14-.32-1.77-.05-.58-.04-1.2-.08-1.8-.05-.61-.07-1.23-.1-1.81-.02-.65-.11-1.3-.06-1.83.06-.76.59-1.26.88-1.6.36-.43.82-.48,1.36-.45.56.03,1,.15,1.31.58"/><path d="M90.42,68.52c.3.3.57.95.67,1.59.08.52-.27,1.14-.22,1.68.06.62.44,1.18.58,1.58-.13.45-.05,1.14.03,1.95.06.62.07,1.31.14,1.98.08.7-.26,1.39-.27,1.99-.02.85.11,1.56-.36,1.83-.59.34-1.11.16-1.53.14-.56-.03-.75-.22-1.05-.73-.24-.4-.87-.74-.96-1.34-.07-.46.27-1.13.21-1.82-.05-.55-.28-1.14-.32-1.76-.04-.59-.24-1.19-.27-1.78-.02-.62-.14-1.24-.14-1.79,0-.7.06-1.34.12-1.8.09-.76.42-1.51,1.05-1.98.53-.28,1.92-.14,2.32.26"/><path d="M81.2,81.44c-.41-.54-.54-1.06-.53-1.62.01-.62.24-1.24.18-1.77-.06-.55-.44-1.11-.54-1.75-.09-.58-.28-1.17-.37-1.78-.09-.61.06-1.25,0-1.83-.07-.65-.26-1.27-.24-1.81.02-.7.66-1.42,1.27-1.79.62-.37,1.55-.48,2.13.12.24.25.43,1.03.63,1.88.14.57.26,1.23.37,1.88.11.65.38,1.29.46,1.88.1.81.11,1.53.14,1.92.05.64-.35,1.35-.33,1.99.03.73.18,1.38.02,1.92-.2.67-.51,1.42-1.29,1.48-.48.04-1.09-.4-1.89-.72"/><path d="M64.68,83.4c-.83.33-1.55.79-2.13.79-.6,0-1.04-.53-1.42-1.65-.11-.34-.32-.93-.42-1.67-.07-.52.13-1.13.08-1.74-.05-.57-.09-1.15-.13-1.72-.04-.61-.24-1.19-.25-1.71-.02-.74-.21-1.38-.17-1.74.07-.61.74-1.86,1.34-2.06.65-.18,1.31-.41,1.72-.06.41.35.71,1.04.85,1.62.09.4.16,1.01.25,1.68.07.52.02,1.11.08,1.69.06.57-.19,1.17-.15,1.7.06.66.18,1.23.21,1.66.01.25.51.92.52,1.6,0,.76-.3,1.54-.37,1.62"/></svg>