<?xml version="1.0" encoding="UTF-8"?><svg id="Layer_1" xmlns="http://www.w3.org/2000/svg" viewBox="0 0 200 200"><path d="M125.07,90.38c.4.39.8.8,1.21,1.22.39.41.92.7,1.31,1.14.38.42.6.99.98,1.43.36.44.68.91,1.04,1.37.35.45.77.85,1.11,1.31.34.46.42,1.1.75,1.57.33.47.87.79,1.18,1.27.31.48.37,1.12.67,1.61.3.49.96.76,1.24,1.26.28.5.36,1.11.63,1.62.27.51.51,1.02.76,1.54.25.52.77.91,1,1.44.23.53-.01,1.25.19,1.78.21.54.58,1,.77,1.54.19.55.18,1.14.34,1.69.16.56.3,1.1.43,1.65.13.56.81,1.01.91,1.57.1.57-.2,1.2-.15,1.76.06.58-.05,1.14-.03,1.71.01.62.15,1.29.05,1.93-.12.69-.08,1.51-.5,1.95-.4.42-1.13.28-1.95.22-.85-.06-1.58.02-1.82-.41-.27-.47.11-1.24.16-1.9.04-.6.01-1.24-.04-1.81-.05-.55-.37-1.07-.47-1.65-.09-.55-.15-1.1-.28-1.67-.13-.54-.1-1.13-.26-1.69-.16-.54-.51-1.02-.69-1.56-.18-.53-.34-1.07-.55-1.61-.2-.52-.19-1.14-.42-1.67-.22-.52-.46-1.04-.71-1.55-.24-.51-.73-.9-.99-1.41-.26-.5-.45-1.04-.73-1.54-.28-.5-.39-1.09-.68-1.58-.29-.49-.84-.82-1.15-1.29-.31-.48-.34-1.14-.67-1.6-.33-.47-.83-.81-1.17-1.26-.35-.46-.5-1.07-.86-1.5-.37-.44-.79-.84-1.17-1.25-.39-.43-.77-.86-1.17-1.25-.41-.41-1.03-.58-1.45-.95-.44-.38-.78-.86-1.22-1.19-.47-.35-.79-.91-1.26-1.19-.51-.31-1.08-.52-1.59-.8-.52-.29-1.25-.16-1.77-.41-.54-.26-1.08-.45-1.62-.67-.55-.23-.93-.89-1.48-1.08-.56-.19-1.17-.23-1.74-.39-.57-.16-1.22.02-1.79-.11-.58-.13-1.1-.46-1.68-.55-.58-.09-1.16-.17-1.75-.23-.59-.06-1.17-.13-1.76-.15-.59-.02-1.18-.33-1.77-.32-.59,0-1.18.24-1.76.29-.59.04-1.18.09-1.76.17-.58.08-1.2.02-1.77.13-.58.11-1.12.44-1.69.58-.57.14-1.19.13-1.75.3-.56.17-1.05.57-1.61.77-.55.2-1.16.26-1.71.48-.54.22-1.01.63-1.54.88-.53.25-.98.66-1.5.93-.52.27-1.24.19-1.75.48-.51.29-1.05.55-1.55.87-.5.32-.97.67-1.46,1.01-.48.34-.68,1.05-1.15,1.41-.47.36-1.11.49-1.56.86-.45.37-.96.7-1.39,1.09-.44.39-1,.66-1.42,1.07-.42.41-.53,1.13-.94,1.56-.41.42-.92.74-1.31,1.18-.39.44-.88.8-1.25,1.25-.37.45-.67.98-1.02,1.45-.36.47-.81.87-1.15,1.35-.34.48-.31,1.21-.64,1.7-.32.49-.94.8-1.24,1.3-.3.51-.41,1.12-.7,1.64-.29.54-.53,1.06-.77,1.54-.27.55-.75.97-.96,1.47-.23.56-.33,1.14-.51,1.66-.19.57-.1,1.18-.23,1.73-.14.56-.45,1.08-.54,1.64-.1.56-.41,1.09-.49,1.67-.08.55-.12,1.12-.2,1.71-.07.54.25,1.17.16,1.76-.08.54-.43,1.07-.52,1.67-.11.67-.36,1.31-.85,1.57-.51.27-1.12-.12-1.7-.35-.5-.19-.93-.38-1.24-.98-.23-.45-.38-.96-.38-1.65,0-.58-.31-1.18-.26-1.76.04-.58.45-1.12.53-1.71.08-.58.15-1.15.26-1.72.11-.57.14-1.15.29-1.72.14-.56.24-1.14.41-1.7.17-.55.61-1.02.81-1.57.2-.55.09-1.21.31-1.75.22-.54.55-1.03.8-1.56.25-.52.4-1.1.67-1.62.27-.51.55-1.03.84-1.54.29-.5.88-.83,1.19-1.32.31-.49.35-1.16.68-1.64.33-.48.86-.82,1.2-1.3.34-.47.78-.87,1.14-1.33.36-.46.5-1.09.88-1.54.37-.45.63-1,1.02-1.43.39-.44.78-.88,1.18-1.3.4-.42,1.07-.59,1.49-.99.42-.41.59-1.08,1.02-1.47.43-.4.87-.79,1.31-1.17.44-.38,1.04-.58,1.5-.94.46-.37.98-.65,1.44-1,.47-.35.99-.61,1.47-.95.48-.34.88-.78,1.37-1.09.49-.32.99-.62,1.49-.92.51-.3.92-.75,1.43-1.03.52-.28,1.1-.42,1.62-.68.53-.26,1.15-.28,1.68-.51.54-.23.99-.66,1.54-.86.55-.21,1.06-.52,1.61-.7.56-.18,1.13-.33,1.69-.47.57-.14,1.22.07,1.81-.05.58-.12,1.16-.15,1.75-.24.58-.09,1.1-.66,1.7-.73.59-.06,1.2.01,1.79-.02.59-.04,1.19-.07,1.78-.08.59-.01,1.18.19,1.78.2.59.01,1.2-.26,1.79-.22.59.04,1.16.41,1.75.47.59.06,1.24-.28,1.82-.19.59.09,1.07.74,1.65.86.58.12,1.19.1,1.76.25.58.15,1.1.45,1.66.62.57.18,1.23.06,1.79.26.56.21,1.19.26,1.73.5.54.24.99.7,1.51.98.53.28.9.81,1.4,1.12.51.31,1.04.55,1.53.89.48.34.91.74,1.36,1.12.46.38,1.04.61,1.46,1.02"/><path d="M125.07,90.38c.4.39.8.8,1.21,1.22.39.41.92.7,1.31,1.14.38.42.6.99.98,1.43.36.44.68.91,1.04,1.37.35.45.77.85,1.11,1.31.34.46.42,1.1.75,1.57.33.47.87.79,1.18,1.27.31.48.37,1.12.67,1.61.3.49.96.76,1.24,1.26.28.5.36,1.11.63,1.62.27.51.51,1.02.76,1.54.25.52.77.91,1,1.44.23.53-.01,1.25.19,1.78.21.54.58,1,.77,1.54.19.55.18,1.14.34,1.69.16.56.3,1.1.43,1.65.13.56.81,1.01.91,1.57.1.57-.2,1.2-.15,1.76.06.58-.05,1.14-.03,1.71.01.62.15,1.29.05,1.93-.12.69-.08,1.51-.5,1.95-.4.42-1.13.28-1.95.22-.85-.06-1.58.02-1.82-.41-.27-.47.11-1.24.16-1.9.04-.6.01-1.24-.04-1.81-.05-.55-.37-1.07-.47-1.65-.09-.55-.15-1.1-.28-1.67-.13-.54-.1-1.13-.26-1.69-.16-.54-.51-1.02-.69-1.56-.18-.53-.34-1.07-.55-1.61-.2-.52-.19-1.14-.42-1.67-.22-.52-.46-1.04-.71-1.55-.24-.51-.73-.9-.99-1.41-.26-.5-.45-1.04-.73-1.54-.28-.5-.39-1.09-.68-1.58-.29-.49-.84-.82-1.15-1.29-.31-.48-.34-1.14-.67-1.6-.33-.47-.83-.81-1.17-1.26-.35-.46-.5-1.07-.86-1.5-.37-.44-.79-.84-1.17-1.25-.39-.43-.77-.86-1.17-1.25-.41-.41-1.03-.58-1.45-.95-.44-.38-.78-.86-1.22-1.19-.47-.35-.79-.91-1.26-1.19-.51-.31-1.08-.52-1.59-.8-.52-.29-1.25-.16-1.77-.41-.54-.26-1.08-.45-1.62-.67-.55-.23-.93-.89-1.48-1.08-.56-.19-1.17-.23-1.74-.39-.57-.16-1.22.02-1.79-.11-.58-.13-1.1-.46-1.68-.55-.58-.09-1.16-.17-1.75-.23-.59-.06-1.17-.13-1.76-.15-.59-.02-1.18-.33-1.77-.32-.59,0-1.18.24-1.76.29-.59.04-1.18.09-1.76.17-.58.08-1.2.02-1.77.13-.58.11-1.12.44-1.69.58-.57.14-1.19.13-1.75.3-.56.17-1.05.57-1.61.77-.55.2-1.16.26-1.71.48-.54.22-1.01.63-1.54.88-.53.25-.98.66-1.5.93-.52.27-1.24.19-1.75.48-.51.29-1.05.55-1.55.87-.5.32-.97.67-1.46,1.01-.48.34-.68,1.05-1.15,1.41-.47.36-1.11.49-1.56.86-.45.37-.96.7-1.39,1.09-.44.39-1,.66-1.42,1.07-.42.41-.53,1.13-.94,1.56-.41.42-.92.74-1.31,1.18-.39.44-.88.8-1.25,1.25-.37.45-.67.98-1.02,1.45-.36.47-.81.87-1.15,1.35-.34.48-.31,1.21-.64,1.7-.32.49-.94.8-1.24,1.3-.3.51-.41,1.12-.7,1.64-.29.54-.53,1.06-.77,1.54-.27.55-.75.97-.96,1.47-.23.56-.33,1.14-.51,1.66-.19.57-.1,1.18-.23,1.73-.14.56-.45,1.08-.54,1.64-.1.56-.41,1.09-.49,1.67-.08.55-.12,1.12-.2,1.71-.07.54.25,1.17.16,1.76-.08.54-.43,1.07-.52,1.67-.11.67-.36,1.31-.85,1.57-.51.27-1.12-.12-1.7-.35-.5-.19-.93-.38-1.24-.98-.23-.45-.38-.96-.38-1.65,0-.58-.31-1.18-.26-1.76.04-.58.45-1.12.53-1.71.08-.58.15-1.15.26-1.72.11-.57.14-1.15.29-1.72.14-.56.24-1.14.41-1.7.17-.55.61-1.02.81-1.57.2-.55.09-1.21.31-1.75.22-.54.55-1.03.8-1.56.25-.52.4-1.1.67-1.62.27-.51.55-1.03.84-1.54.29-.5.88-.83,1.19-1.32.31-.49.35-1.16.68-1.64.33-.48.86-.82,1.2-1.3.34-.47.78-.87,1.14-1.33.36-.46.5-1.09.88-1.54.37-.45.63-1,1.02-1.43.39-.44.78-.88,1.18-1.3.4-.42,1.07-.59,1.49-.99.42-.41.59-1.08,1.02-1.47.43-.4.87-.79,1.31-1.17.44-.38,1.04-.58,1.5-.94.46-.37.98-.65,1.44-1,.47-.35.99-.61,1.47-.95.48-.34.88-.78,1.37-1.09.49-.32.99-.62,1.49-.92.51-.3.92-.75,1.43-1.03.52-.28,1.1-.42,1.62-.68.53-.26,1.15-.28,1.68-.51.54-.23.99-.66,1.54-.86.55-.21,1.06-.52,1.61-.7.56-.18,1.13-.33,1.69-.47.57-.14,1.22.07,1.81-.05.58-.12,1.16-.15,1.75-.24.58-.09,1.1-.66,1.7-.73.59-.06,1.2.01,1.79-.02.59-.04,1.19-.07,1.78-.08.59-.01,1.18.19,1.78.2.59.01,1.2-.26,1.79-.22.59.04,1.16.41,1.75.47.59.06,1.24-.28,1.82-.19.59.09,1.07.74,1.65.86.58.12,1.19.1,1.76.25.58.15,1.1.45,1.66.62.57.18,1.23.06,1.79.26.56.21,1.19.26,1.73.5.54.24.99.7,1.51.98.53.28.9.81,1.4,1.12.51.31,1.04.55,1.53.89.48.34.91.74,1.36,1.12.46.38,1.04.61,1.46,1.02"/><path d="M101.32,96.15c-.6.1-1.15.34-1.72.48-.59.15-1.12.4-1.67.59-.57.2-1.08.47-1.61.72-.55.25-1.31.07-1.82.38-.52.31-1.05.63-1.52.98-.48.36-.93.78-1.37,1.19-.44.4-.81.9-1.2,1.34-.4.44-.59,1.05-.95,1.53-.35.48-.79.9-1.1,1.41-.31.51-.47,1.09-.74,1.63-.26.53-.67,1-.89,1.56-.22.55-.26,1.17-.45,1.74-.18.56-.51,1.09-.65,1.67-.14.57-.04,1.2-.14,1.79-.1.58-.07,1.18-.14,1.77-.06.59-.21,1.16-.24,1.76-.03.59.03,1.18.04,1.77,0,.59-.34,1.2-.3,1.79.04.59.48,1.15.56,1.74.07.59-.25,1.25-.06,1.77.2.55.6,1.03.9,1.5.31.48.54,1.08.95,1.49.4.4.93.72,1.41,1.05.46.32,1.02.54,1.54.81.5.25.98.64,1.52.84.53.19,1.19.02,1.75.16.55.14,1.11.22,1.67.32.56.1,1.09.5,1.66.56.57.05,1.17-.28,1.73-.26.58.01,1.14.08,1.71.05.58-.03,1.13-.22,1.68-.29.58-.08,1.11-.24,1.65-.37.58-.14,1.27.18,1.78,0,.5-.18.94-.61,1.46-.85.49-.22,1.06-.35,1.56-.62.48-.26.86-.72,1.34-1.02.47-.3.96-.56,1.4-.9.45-.34.95-.61,1.36-.99.41-.38.91-.71,1.27-1.12.37-.43.37-1.13.66-1.59.3-.48.56-.94.75-1.45.21-.56.52-1.06.69-1.6.18-.57.2-1.16.33-1.71.14-.58.2-1.15.29-1.71.09-.59.32-1.13.36-1.7.04-.59.04-1.16.02-1.74-.02-.58-.27-1.13-.35-1.7-.08-.57-.01-1.16-.15-1.73-.14-.56-.08-1.19-.29-1.74-.2-.54-.49-1.06-.74-1.59-.25-.51-.65-.95-.96-1.46-.29-.49-.71-.89-1.06-1.38-.33-.46-.32-1.2-.7-1.66-.34-.43-.78-.91-1.27-1.35-.43-.39-1.19-.42-1.7-.79-.48-.35-.98-.66-1.51-.97-.52-.31-.91-.89-1.45-1.14-.56-.26-1.28-.07-1.84-.25-.6-.19-1.15-.3-1.72-.38-.63-.08-1.2-.39-1.77-.3M111.08,131c-.49.34-.93.76-1.44,1.05-.52.3-1.01.66-1.55.91-.54.25-1.08.55-1.63.75-.56.21-1.28-.09-1.85.07-.57.17-1.13.27-1.71.4-.58.12-1.14.26-1.73.33-.59.07-1.16.21-1.75.24-.6.03-1.18.27-1.77.25-.6-.02-1.18-.19-1.76-.26-.59-.07-1.2-.02-1.78-.14-.59-.12-1.12-.43-1.69-.59-.57-.17-1.19-.2-1.73-.42-.55-.22-1.02-.63-1.54-.9-.53-.27-1.16-.37-1.65-.7-.5-.33-1.06-.6-1.51-.98-.46-.38-.84-.87-1.25-1.3-.41-.43-.86-.85-1.22-1.32-.35-.47-.38-1.17-.68-1.69-.29-.51-.91-.86-1.15-1.41-.23-.53,0-1.25-.17-1.83-.17-.55-.45-1.08-.56-1.67-.11-.57.01-1.17-.05-1.77-.06-.58-.17-1.14-.18-1.75,0-.59-.08-1.18-.05-1.77.03-.59.25-1.15.32-1.74.07-.59-.21-1.22-.1-1.8.11-.58.19-1.18.33-1.75.14-.58.62-1.05.8-1.62.18-.56.03-1.24.24-1.79.21-.55.52-1.08.76-1.61.25-.54.39-1.14.67-1.66.28-.52.53-1.08.84-1.58.31-.5,1.06-.72,1.4-1.2.35-.48.53-1.08.91-1.53.38-.45.88-.8,1.29-1.22.41-.42.7-.97,1.15-1.36.44-.39.95-.71,1.42-1.07.47-.35,1.02-.59,1.52-.91.5-.31,1.06-.49,1.59-.76.52-.27.88-.89,1.43-1.12.58-.24,1.17-.45,1.75-.66.59-.21,1.23-.29,1.82-.46.6-.17,1.19-.45,1.8-.55.62-.1,1.25-.22,1.88-.24.62-.02,1.25.18,1.87.27.6.09,1.22.21,1.83.41.55.18,1.17.19,1.69.39.54.21,1,.61,1.5.86.52.25.91.73,1.39,1.01.5.29,1,.54,1.46.86.47.33,1.01.56,1.45.92.44.37.96.66,1.36,1.06.41.41.46,1.12.82,1.56.36.44.68.88,1,1.35.32.47,1,.71,1.27,1.21.27.5.54,1.02.77,1.54.23.52.12,1.17.3,1.71.18.53.76.96.9,1.52.14.55.27,1.12.36,1.69.09.56-.21,1.18-.16,1.75.05.56.46,1.11.48,1.69.02.56-.04,1.15-.06,1.72-.02.56-.53,1.1-.58,1.68-.05.56,0,1.13-.08,1.7-.09.6-.24,1.16-.35,1.71-.12.6-.35,1.13-.5,1.67-.16.59.13,1.29-.07,1.82-.21.56-.56,1.07-.81,1.58-.26.53-.61,1.01-.93,1.49s-.59,1.02-.97,1.47c-.37.44-.95.69-1.38,1.11-.4.4-.95.64-1.41,1.03-.43.36-.81.8-1.3,1.16-.45.34-.81.83-1.31,1.17"/><path d="M101.32,96.15c-.6.1-1.15.34-1.72.48-.59.15-1.12.4-1.67.59-.57.2-1.08.47-1.61.72-.55.25-1.31.07-1.82.38-.52.31-1.05.63-1.52.98-.48.36-.93.78-1.37,1.19-.44.4-.81.9-1.2,1.34-.4.44-.59,1.05-.95,1.53-.35.48-.79.9-1.1,1.41-.31.51-.47,1.09-.74,1.63-.26.53-.67,1-.89,1.56-.22.55-.26,1.17-.45,1.74-.18.56-.51,1.09-.65,1.67-.14.57-.04,1.2-.14,1.79-.1.58-.07,1.18-.14,1.77-.06.59-.21,1.16-.24,1.76-.03.59.03,1.18.04,1.77,0,.59-.34,1.2-.3,1.79.04.59.48,1.15.56,1.74.07.59-.25,1.25-.06,1.77.2.55.6,1.03.9,1.5.31.48.54,1.08.95,1.49.4.4.93.72,1.41,1.05.46.32,1.02.54,1.54.81.5.25.98.64,1.52.84.53.19,1.19.02,1.75.16.55.14,1.11.22,1.67.32.56.1,1.09.5,1.66.56.57.05,1.17-.28,1.73-.26.58.01,1.14.08,1.71.05.58-.03,1.13-.22,1.68-.29.58-.08,1.11-.24,1.65-.37.58-.14,1.27.18,1.78,0,.5-.18.94-.61,1.46-.85.49-.22,1.06-.35,1.56-.62.48-.26.86-.72,1.34-1.02.47-.3.96-.56,1.4-.9.45-.34.95-.61,1.36-.99.41-.38.91-.71,1.27-1.12.37-.43.37-1.13.66-1.59.3-.48.56-.94.75-1.45.21-.56.52-1.06.69-1.6.18-.57.2-1.16.33-1.71.14-.58.2-1.15.29-1.71.09-.59.32-1.13.36-1.7.04-.59.04-1.16.02-1.74-.02-.58-.27-1.13-.35-1.7-.08-.57-.01-1.16-.15-1.73-.14-.56-.08-1.19-.29-1.74-.2-.54-.49-1.06-.74-1.59-.25-.51-.65-.95-.96-1.46-.29-.49-.71-.89-1.06-1.38-.33-.46-.32-1.2-.7-1.66-.34-.43-.78-.91-1.27-1.35-.43-.39-1.19-.42-1.7-.79-.48-.35-.98-.66-1.51-.97-.52-.31-.91-.89-1.45-1.14-.56-.26-1.28-.07-1.84-.25-.6-.19-1.15-.3-1.72-.38-.63-.08-1.2-.39-1.77-.3M111.08,131c-.49.34-.93.76-1.44,1.05-.52.3-1.01.66-1.55.91-.54.25-1.08.55-1.63.75-.56.21-1.28-.09-1.85.07-.57.17-1.13.27-1.71.4-.58.12-1.14.26-1.73.33-.59.07-1.16.21-1.75.24-.6.03-1.18.27-1.77.25-.6-.02-1.18-.19-1.76-.26-.59-.07-1.2-.02-1.78-.14-.59-.12-1.12-.43-1.69-.59-.57-.17-1.19-.2-1.73-.42-.55-.22-1.02-.63-1.54-.9-.53-.27-1.16-.37-1.65-.7-.5-.33-1.06-.6-1.51-.98-.46-.38-.84-.87-1.25-1.3-.41-.43-.86-.85-1.22-1.32-.35-.47-.38-1.17-.68-1.69-.29-.51-.91-.86-1.15-1.41-.23-.53,0-1.25-.17-1.83-.17-.55-.45-1.08-.56-1.67-.11-.57.01-1.17-.05-1.77-.06-.58-.17-1.14-.18-1.75,0-.59-.08-1.18-.05-1.77.03-.59.25-1.15.32-1.74.07-.59-.21-1.22-.1-1.8.11-.58.19-1.18.33-1.75.14-.58.62-1.05.8-1.62.18-.56.03-1.24.24-1.79.21-.55.52-1.08.76-1.61.25-.54.39-1.14.67-1.66.28-.52.53-1.08.84-1.58.31-.5,1.06-.72,1.4-1.2.35-.48.53-1.08.91-1.53.38-.45.88-.8,1.29-1.22.41-.42.7-.97,1.15-1.36.44-.39.95-.71,1.42-1.07.47-.35,1.02-.59,1.52-.91.5-.31,1.06-.49,1.59-.76.52-.27.88-.89,1.43-1.12.58-.24,1.17-.45,1.75-.66.59-.21,1.23-.29,1.82-.46.6-.17,1.19-.45,1.8-.55.62-.1,1.25-.22,1.88-.24.62-.02,1.25.18,1.87.27.6.09,1.22.21,1.83.41.55.18,1.17.19,1.69.39.54.21,1,.61,1.5.86.52.25.91.73,1.39,1.01.5.29,1,.54,1.46.86.47.33,1.01.56,1.45.92.44.37.96.66,1.36,1.06.41.41.46,1.12.82,1.56.36.44.68.88,1,1.35.32.47,1,.71,1.27,1.21.27.5.54,1.02.77,1.54.23.52.12,1.17.3,1.71.18.53.76.96.9,1.52.14.55.27,1.12.36,1.69.09.56-.21,1.18-.16,1.75.05.56.46,1.11.48,1.69.02.56-.04,1.15-.06,1.72-.02.56-.53,1.1-.58,1.68-.05.56,0,1.13-.08,1.7-.09.6-.24,1.16-.35,1.71-.12.6-.35,1.13-.5,1.67-.16.59.13,1.29-.07,1.82-.21.56-.56,1.07-.81,1.58-.26.53-.61,1.01-.93,1.49s-.59,1.02-.97,1.47c-.37.44-.95.69-1.38,1.11-.4.4-.95.64-1.41,1.03-.43.36-.81.8-1.3,1.16-.45.34-.81.83-1.31,1.17"/><path d="M106.72,70.87c0,.62-.51,1.15-.69,1.71-.19.58-.47,1.03-.82,1.52-.36.49-.45,1.24-.94,1.59-.48.35-1.04.76-1.63.95-.56.18-1.25.3-1.87.3s-1.18-.51-1.75-.7c-.58-.19-1.04-.52-1.52-.87-.49-.36-.87-.75-1.22-1.24-.35-.48-.82-.89-1-1.48-.18-.56-.09-1.16-.09-1.79s-.18-1.25,0-1.81c.19-.58.78-.93,1.13-1.42.36-.49.45-1.24.94-1.59.48-.35,1.05-.76,1.63-.95.56-.18,1.25-.05,1.88-.05s1.21.19,1.77.37c.58.19,1.1.47,1.59.82.49.36,1.08.65,1.44,1.14.35.48.47,1.13.66,1.71.18.56.49,1.15.49,1.77"/><path d="M106.72,70.87c0,.62-.51,1.15-.69,1.71-.19.58-.47,1.03-.82,1.52-.36.49-.45,1.24-.94,1.59-.48.35-1.04.76-1.63.95-.56.18-1.25.3-1.87.3s-1.18-.51-1.75-.7c-.58-.19-1.04-.52-1.52-.87-.49-.36-.87-.75-1.22-1.24-.35-.48-.82-.89-1-1.48-.18-.56-.09-1.16-.09-1.79s-.18-1.25,0-1.81c.19-.58.78-.93,1.13-1.42.36-.49.45-1.24.94-1.59.48-.35,1.05-.76,1.63-.95.56-.18,1.25-.05,1.88-.05s1.21.19,1.77.37c.58.19,1.1.47,1.59.82.49.36,1.08.65,1.44,1.14.35.48.47,1.13.66,1.71.18.56.49,1.15.49,1.77"/><path d="M125.07,90.38c.4.39.8.8,1.21,1.22.39.41.92.7,1.31,1.14.38.42.6.99.98,1.43.36.44.68.91,1.04,1.37.35.45.77.85,1.11,1.31.34.46.42,1.1.75,1.57.33.47.87.79,1.18,1.27.31.48.37,1.12.67,1.61.3.49.96.76,1.24,1.26.28.5.36,1.11.63,1.62.27.51.51,1.02.76,1.54.25.52.77.91,1,1.44.23.53-.01,1.25.19,1.78.21.54.58,1,.77,1.54.19.55.18,1.14.34,1.69.16.56.3,1.1.43,1.65.13.56.81,1.01.91,1.57.1.57-.2,1.2-.15,1.76.06.58-.05,1.14-.03,1.71.01.62.15,1.29.05,1.93-.12.69-.08,1.51-.5,1.95-.4.42-1.13.28-1.95.22-.85-.06-1.58.02-1.82-.41-.27-.47.11-1.24.16-1.9.04-.6.01-1.24-.04-1.81-.05-.55-.37-1.07-.47-1.65-.09-.55-.15-1.1-.28-1.67-.13-.54-.1-1.13-.26-1.69-.16-.54-.51-1.02-.69-1.56-.18-.53-.34-1.07-.55-1.61-.2-.52-.19-1.14-.42-1.67-.22-.52-.46-1.04-.71-1.55-.24-.51-.73-.9-.99-1.41-.26-.5-.45-1.04-.73-1.54-.28-.5-.39-1.09-.68-1.58-.29-.49-.84-.82-1.15-1.29-.31-.48-.34-1.14-.67-1.6-.33-.47-.83-.81-1.17-1.26-.35-.46-.5-1.07-.86-1.5-.37-.44-.79-.84-1.17-1.25-.39-.43-.77-.86-1.17-1.25-.41-.41-1.03-.58-1.45-.95-.44-.38-.78-.86-1.22-1.19-.47-.35-.79-.91-1.26-1.19-.51-.31-1.08-.52-1.59-.8-.52-.29-1.25-.16-1.77-.41-.54-.26-1.08-.45-1.62-.67-.55-.23-.93-.89-1.48-1.08-.56-.19-1.17-.23-1.74-.39-.57-.16-1.22.02-1.79-.11-.58-.13-1.1-.46-1.68-.55-.58-.09-1.16-.17-1.75-.23-.59-.06-1.17-.13-1.76-.15-.59-.02-1.18-.33-1.77-.32-.59,0-1.18.24-1.76.29-.59.04-1.18.09-1.76.17-.58.08-1.2.02-1.77.13-.58.11-1.12.44-1.69.58-.57.14-1.19.13-1.75.3-.56.17-1.05.57-1.61.77-.55.2-1.16.26-1.71.48-.54.22-1.01.63-1.54.88-.53.25-.98.66-1.5.93-.52.27-1.24.19-1.75.48-.51.29-1.05.55-1.55.87-.5.32-.97.67-1.46,1.01-.48.34-.68,1.05-1.15,1.41-.47.36-1.11.49-1.56.86-.45.37-.96.7-1.39,1.09-.44.39-1,.66-1.42,1.07-.42.41-.53,1.13-.94,1.56-.41.42-.92.74-1.31,1.18-.39.44-.88.8-1.25,1.25-.37.45-.67.98-1.02,1.45-.36.47-.81.87-1.15,1.35-.34.48-.31,1.21-.64,1.7-.32.49-.94.8-1.24,1.3-.3.51-.41,1.12-.7,1.64-.29.54-.53,1.06-.77,1.54-.27.55-.75.97-.96,1.47-.23.56-.33,1.14-.51,1.66-.19.57-.1,1.18-.23,1.73-.14.56-.45,1.08-.54,1.64-.1.56-.41,1.09-.49,1.67-.08.55-.12,1.12-.2,1.71-.07.54.25,1.17.16,1.76-.08.54-.43,1.07-.52,1.67-.11.67-.36,1.31-.85,1.57-.51.27-1.12-.12-1.7-.35-.5-.19-.93-.38-1.24-.98-.23-.45-.38-.96-.38-1.65,0-.58-.31-1.18-.26-1.76.04-.58.45-1.12.53-1.71.08-.58.15-1.15.26-1.72.11-.57.14-1.15.29-1.72.14-.56.24-1.14.41-1.7.17-.55.61-1.02.81-1.57.2-.55.09-1.21.31-1.75.22-.54.55-1.03.8-1.56.25-.52.4-1.1.67-1.62.27-.51.55-1.03.84-1.54.29-.5.88-.83,1.19-1.32.31-.49.35-1.16.68-1.64.33-.48.86-.82,1.2-1.3.34-.47.78-.87,1.14-1.33.36-.46.5-1.09.88-1.54.37-.45.63-1,1.02-1.43.39-.44.78-.88,1.18-1.3.4-.42,1.07-.59,1.49-.99.42-.41.59-1.08,1.02-1.47.43-.4.87-.79,1.31-1.17.44-.38,1.04-.58,1.5-.94.46-.37.98-.65,1.44-1,.47-.35.99-.61,1.47-.95.48-.34.88-.78,1.37-1.09.49-.32.99-.62,1.49-.92.51-.3.92-.75,1.43-1.03.52-.28,1.1-.42,1.62-.68.53-.26,1.15-.28,1.68-.51.54-.23.99-.66,1.54-.86.55-.21,1.06-.52,1.61-.7.56-.18,1.13-.33,1.69-.47.57-.14,1.22.07,1.81-.05.58-.12,1.16-.15,1.75-.24.58-.09,1.1-.66,1.7-.73.59-.06,1.2.01,1.79-.02.59-.04,1.19-.07,1.78-.08.59-.01,1.18.19,1.78.2.59.01,1.2-.26,1.79-.22.59.04,1.16.41,1.75.47.59.06,1.24-.28,1.82-.19.59.09,1.07.74,1.65.86.58.12,1.19.1,1.76.25.58.15,1.1.45,1.66.62.57.18,1.23.06,1.79.26.56.21,1.19.26,1.73.5.54.24.99.7,1.51.98.53.28.9.81,1.4,1.12.51.31,1.04.55,1.53.89.48.34.91.74,1.36,1.12.46.38,1.04.61,1.46,1.02"/><path d="M101.32,96.15c-.6.1-1.15.34-1.72.48-.59.15-1.12.4-1.67.59-.57.2-1.08.47-1.61.72-.55.25-1.31.07-1.82.38-.52.31-1.05.63-1.52.98-.48.36-.93.78-1.37,1.19-.44.4-.81.9-1.2,1.34-.4.44-.59,1.05-.95,1.53-.35.48-.79.9-1.1,1.41-.31.51-.47,1.09-.74,1.63-.26.53-.67,1-.89,1.56-.22.55-.26,1.17-.45,1.74-.18.56-.51,1.09-.65,1.67-.14.57-.04,1.2-.14,1.79-.1.58-.07,1.18-.14,1.77-.06.59-.21,1.16-.24,1.76-.03.59.03,1.18.04,1.77,0,.59-.34,1.2-.3,1.79.04.59.48,1.15.56,1.74.07.59-.25,1.25-.06,1.77.2.55.6,1.03.9,1.5.31.48.54,1.08.95,1.49.4.4.93.72,1.41,1.05.46.32,1.02.54,1.54.81.5.25.98.64,1.52.84.53.19,1.19.02,1.75.16.55.14,1.11.22,1.67.32.56.1,1.09.5,1.66.56.57.05,1.17-.28,1.73-.26.58.01,1.14.08,1.71.05.58-.03,1.13-.22,1.68-.29.58-.08,1.11-.24,1.65-.37.58-.14,1.27.18,1.78,0,.5-.18.94-.61,1.46-.85.49-.22,1.06-.35,1.56-.62.48-.26.86-.72,1.34-1.02.47-.3.96-.56,1.4-.9.45-.34.95-.61,1.36-.99.41-.38.91-.71,1.27-1.12.37-.43.37-1.13.66-1.59.3-.48.56-.94.75-1.45.21-.56.52-1.06.69-1.6.18-.57.2-1.16.33-1.71.14-.58.2-1.15.29-1.71.09-.59.32-1.13.36-1.7.04-.59.04-1.16.02-1.74-.02-.58-.27-1.13-.35-1.7-.08-.57-.01-1.16-.15-1.73-.14-.56-.08-1.19-.29-1.74-.2-.54-.49-1.06-.74-1.59-.25-.51-.65-.95-.96-1.46-.29-.49-.71-.89-1.06-1.38-.33-.46-.32-1.2-.7-1.66-.34-.43-.78-.91-1.27-1.35-.43-.39-1.19-.42-1.7-.79-.48-.35-.98-.66-1.51-.97-.52-.31-.91-.89-1.45-1.14-.56-.26-1.28-.07-1.84-.25-.6-.19-1.15-.3-1.72-.38-.63-.08-1.2-.39-1.77-.3M111.08,131c-.49.34-.93.76-1.44,1.05-.52.3-1.01.66-1.55.91-.54.25-1.08.55-1.63.75-.56.21-1.28-.09-1.85.07-.57.17-1.13.27-1.71.4-.58.12-1.14.26-1.73.33-.59.07-1.16.21-1.75.24-.6.03-1.18.27-1.77.25-.6-.02-1.18-.19-1.76-.26-.59-.07-1.2-.02-1.78-.14-.59-.12-1.12-.43-1.69-.59-.57-.17-1.19-.2-1.73-.42-.55-.22-1.02-.63-1.54-.9-.53-.27-1.16-.37-1.65-.7-.5-.33-1.06-.6-1.51-.98-.46-.38-.84-.87-1.25-1.3-.41-.43-.86-.85-1.22-1.32-.35-.47-.38-1.17-.68-1.69-.29-.51-.91-.86-1.15-1.41-.23-.53,0-1.25-.17-1.83-.17-.55-.45-1.08-.56-1.67-.11-.57.01-1.17-.05-1.77-.06-.58-.17-1.14-.18-1.75,0-.59-.08-1.18-.05-1.77.03-.59.25-1.15.32-1.74.07-.59-.21-1.22-.1-1.8.11-.58.19-1.18.33-1.75.14-.58.62-1.05.8-1.62.18-.56.03-1.24.24-1.79.21-.55.52-1.08.76-1.61.25-.54.39-1.14.67-1.66.28-.52.53-1.08.84-1.58.31-.5,1.06-.72,1.4-1.2.35-.48.53-1.08.91-1.53.38-.45.88-.8,1.29-1.22.41-.42.7-.97,1.15-1.36.44-.39.95-.71,1.42-1.07.47-.35,1.02-.59,1.52-.91.5-.31,1.06-.49,1.59-.76.52-.27.88-.89,1.43-1.12.58-.24,1.17-.45,1.75-.66.59-.21,1.23-.29,1.82-.46.6-.17,1.19-.45,1.8-.55.62-.1,1.25-.22,1.88-.24.62-.02,1.25.18,1.87.27.6.09,1.22.21,1.83.41.55.18,1.17.19,1.69.39.54.21,1,.61,1.5.86.52.25.91.73,1.39,1.01.5.29,1,.54,1.46.86.47.33,1.01.56,1.45.92.44.37.96.66,1.36,1.06.41.41.46,1.12.82,1.56.36.44.68.88,1,1.35.32.47,1,.71,1.27,1.21.27.5.54,1.02.77,1.54.23.52.12,1.17.3,1.71.18.53.76.96.9,1.52.14.55.27,1.12.36,1.69.09.56-.21,1.18-.16,1.75.05.56.46,1.11.48,1.69.02.56-.04,1.15-.06,1.72-.02.56-.53,1.1-.58,1.68-.05.56,0,1.13-.08,1.7-.09.6-.24,1.16-.35,1.71-.12.6-.35,1.13-.5,1.67-.16.59.13,1.29-.07,1.82-.21.56-.56,1.07-.81,1.58-.26.53-.61,1.01-.93,1.49s-.59,1.02-.97,1.47c-.37.44-.95.69-1.38,1.11-.4.4-.95.64-1.41,1.03-.43.36-.81.8-1.3,1.16-.45.34-.81.83-1.31,1.17"/><path d="M106.72,70.87c0,.62-.51,1.15-.69,1.71-.19.58-.47,1.03-.82,1.52-.36.49-.45,1.24-.94,1.59-.48.35-1.04.76-1.63.95-.56.18-1.25.3-1.87.3s-1.18-.51-1.75-.7c-.58-.19-1.04-.52-1.52-.87-.49-.36-.87-.75-1.22-1.24-.35-.48-.82-.89-1-1.48-.18-.56-.09-1.16-.09-1.79s-.18-1.25,0-1.81c.19-.58.78-.93,1.13-1.42.36-.49.45-1.24.94-1.59.48-.35,1.05-.76,1.63-.95.56-.18,1.25-.05,1.88-.05s1.21.19,1.77.37c.58.19,1.1.47,1.59.82.49.36,1.08.65,1.44,1.14.35.48.47,1.13.66,1.71.18.56.49,1.15.49,1.77"/></svg>