<?xml version="1.0" encoding="UTF-8"?><svg id="Layer_1" xmlns="http://www.w3.org/2000/svg" viewBox="0 0 200 200"><path d="M113.1,65.05c.07.09.29.09.3.25-.14.45-.19.93-.33,1.38-.14.45-.4.87-.54,1.32-.14.45-.26.91-.4,1.36-.14.45-.35.88-.48,1.34-.14.45.03,1-.11,1.45-.14.45-.38.88-.51,1.33s-.53.82-.68,1.28c-.14.45.15,1.04.01,1.49-.14.45-.49.84-.63,1.29-.14.45-.22.92-.36,1.38-.14.45-.47.84-.61,1.3-.14.45-.3.9-.44,1.35-.14.45-.38.88-.52,1.33-.14.45-.09.96-.23,1.42-.14.45-.19.93-.33,1.39-.14.45-.29.9-.42,1.36-.14.45-.38.88-.51,1.33s-.29.9-.42,1.36c-.13.46-.06.97-.19,1.43-.13.45-.22.92-.35,1.38-.13.46-.44.86-.57,1.32-.13.46-.31.9-.43,1.35-.12.46-.18.93-.3,1.39-.12.46-.25.91-.37,1.37-.12.46-.04.98-.15,1.45-.12.47-.19.94-.3,1.41-.11.47-.67.83-.78,1.3-.11.47.1,1.01,0,1.48-.1.47-.15.95-.26,1.42-.1.47-.19.95-.29,1.42-.1.47-.39.9-.49,1.37-.1.47-.29.92-.39,1.39-.11.47-.03.98-.14,1.45-.11.47-.38.9-.49,1.37-.11.47-.36.9-.48,1.37-.12.47.17,1.05.04,1.51-.13.46-.33.91-.47,1.37-.14.46-.51.85-.65,1.31-.13.4-.39.95-.64,1.49-.26.57-.47.93-.95,1.01-.64.1-1.22.39-1.57.12-.38-.29-.44-.95-.61-1.48-.15-.47-.36-.97-.45-1.47-.09-.55-.28-1.03-.4-1.45-.13-.46-.21-.93-.35-1.38-.14-.45-.22-.92-.36-1.38-.14-.46,0-1-.14-1.45-.14-.45-.57-.82-.71-1.27-.14-.45-.38-.88-.52-1.33-.14-.45.14-1.04,0-1.49-.14-.45-.48-.85-.62-1.3-.14-.45-.53-.83-.66-1.29-.14-.46-.25-.92-.39-1.38-.14-.46-.18-.94-.31-1.4-.13-.46-.3-.91-.42-1.36-.13-.46-.07-.97-.19-1.43-.12-.46-.36-.9-.48-1.36-.11-.46-.01-.98-.12-1.45-.11-.47-.2-.94-.3-1.4-.11-.47-.3-.91-.4-1.38s-.37-.9-.46-1.37c-.1-.47-.23-.93-.32-1.4-.09-.47-.09-.96-.19-1.43-.09-.47-.03-.97-.12-1.44-.09-.47-.49-.88-.58-1.36-.09-.47.11-.99.02-1.46-.08-.47-.18-.94-.26-1.41-.08-.47-.4-.9-.48-1.38-.08-.47-.23-.93-.32-1.4-.08-.47-.04-.96-.12-1.44s-.29-.92-.38-1.39c-.08-.47-.15-.95-.23-1.42-.08-.47.1-.99.01-1.46-.08-.47-.33-.91-.42-1.38-.08-.47-.14-.95-.23-1.42-.09-.47-.09-.96-.18-1.43-.09-.47-.21-.93-.31-1.4-.09-.47-.33-.96-.43-1.42.12-.34.51-.73.69-1.1.19-.37.39-.79.89-.74.45.07.72.49.97.82.21.27.57.65.77,1.19.14.39.19.87.33,1.36.12.42.18.88.29,1.36.1.43.07.91.17,1.38.09.44.03.92.12,1.39.09.45.48.85.56,1.3.08.45-.09.96-.01,1.41.08.46.22.9.3,1.36.08.47.18.92.26,1.37.07.47.3.91.37,1.35.07.48.14.94.21,1.37.08.5-.11,1-.05,1.41.09.54.37.97.44,1.33.09.47-.06.98.03,1.44.09.47.36.9.45,1.36.09.46.3.91.4,1.37s-.07.98.03,1.45c.1.46.29.91.39,1.37.1.46.26.91.37,1.37.11.46.51.85.62,1.31.11.46.14.94.25,1.4.11.46.19.93.31,1.38.11.46.08.96.2,1.42.12.46.14.94.26,1.4.12.46.59.82.71,1.28.12.46.29.9.42,1.36.13.46-.04.99.09,1.45.13.46.39.87.53,1.33.13.46.22.92.36,1.37.13.45.15.94.29,1.4.14.45.21.93.35,1.38.14.45.64.79.79,1.24.14.45.09.75.23,1.2.15-.43.48-.59.62-1.03.14-.44.22-.9.35-1.34.13-.44-.11-.98.01-1.43.12-.44.35-.86.46-1.31.11-.45.22-.89.32-1.34.1-.45.36-.86.46-1.31s0-.94.11-1.39c.1-.45.44-.85.54-1.3.1-.45.33-.87.44-1.32.1-.45.13-.91.24-1.36.11-.45.17-.9.29-1.35.12-.48.08-1,.21-1.48.13-.48.49-.89.62-1.37.13-.47-.05-1.04.08-1.51.13-.48.37-.92.5-1.4.13-.48.21-.97.35-1.44.13-.48.3-.94.43-1.42.13-.48.23-.96.37-1.44.13-.48.42-.91.56-1.39.14-.48.3-.94.44-1.42.14-.48.2-.97.34-1.45.14-.48.46-.9.6-1.37.14-.48-.15-1.08-.01-1.55.14-.48.56-.87.71-1.34.14-.47.03-1.02.17-1.49.13-.43.54-.81.67-1.28.13-.44.34-.88.47-1.34.13-.45.29-.89.42-1.36.13-.45.05-.97.18-1.43.13-.46.19-.94.32-1.39.14-.46.17-.95.31-1.39.15-.46.57-.83.72-1.26.16-.46.15-.97.32-1.4.18-.46.41-.88.6-1.29.22-.49.5-.93.83-1.16.4-.28,1-.46,1.46-.3.37.13.71.58,1.04,1.02"/><path d="M113.1,65.05c.07.09.29.09.3.25-.14.45-.19.93-.33,1.38-.14.45-.4.87-.54,1.32-.14.45-.26.91-.4,1.36-.14.45-.35.88-.48,1.34-.14.45.03,1-.11,1.45-.14.45-.38.88-.51,1.33s-.53.82-.68,1.28c-.14.45.15,1.04.01,1.49-.14.45-.49.84-.63,1.29-.14.45-.22.92-.36,1.38-.14.45-.47.84-.61,1.3-.14.45-.3.9-.44,1.35-.14.45-.38.88-.52,1.33-.14.45-.09.96-.23,1.42-.14.45-.19.93-.33,1.39-.14.45-.29.9-.42,1.36-.14.45-.38.88-.51,1.33s-.29.9-.42,1.36c-.13.46-.06.97-.19,1.43-.13.45-.22.92-.35,1.38-.13.46-.44.86-.57,1.32-.13.46-.31.9-.43,1.35-.12.46-.18.93-.3,1.39-.12.46-.25.91-.37,1.37-.12.46-.04.98-.15,1.45-.12.47-.19.94-.3,1.41-.11.47-.67.83-.78,1.3-.11.47.1,1.01,0,1.48-.1.47-.15.95-.26,1.42-.1.47-.19.95-.29,1.42-.1.47-.39.9-.49,1.37-.1.47-.29.92-.39,1.39-.11.47-.03.98-.14,1.45-.11.47-.38.9-.49,1.37-.11.47-.36.9-.48,1.37-.12.47.17,1.05.04,1.51-.13.46-.33.91-.47,1.37-.14.46-.51.85-.65,1.31-.13.4-.39.95-.64,1.49-.26.57-.47.93-.95,1.01-.64.1-1.22.39-1.57.12-.38-.29-.44-.95-.61-1.48-.15-.47-.36-.97-.45-1.47-.09-.55-.28-1.03-.4-1.45-.13-.46-.21-.93-.35-1.38-.14-.45-.22-.92-.36-1.38-.14-.46,0-1-.14-1.45-.14-.45-.57-.82-.71-1.27-.14-.45-.38-.88-.52-1.33-.14-.45.14-1.04,0-1.49-.14-.45-.48-.85-.62-1.3-.14-.45-.53-.83-.66-1.29-.14-.46-.25-.92-.39-1.38-.14-.46-.18-.94-.31-1.4-.13-.46-.3-.91-.42-1.36-.13-.46-.07-.97-.19-1.43-.12-.46-.36-.9-.48-1.36-.11-.46-.01-.98-.12-1.45-.11-.47-.2-.94-.3-1.4-.11-.47-.3-.91-.4-1.38s-.37-.9-.46-1.37c-.1-.47-.23-.93-.32-1.4-.09-.47-.09-.96-.19-1.43-.09-.47-.03-.97-.12-1.44-.09-.47-.49-.88-.58-1.36-.09-.47.11-.99.02-1.46-.08-.47-.18-.94-.26-1.41-.08-.47-.4-.9-.48-1.38-.08-.47-.23-.93-.32-1.4-.08-.47-.04-.96-.12-1.44s-.29-.92-.38-1.39c-.08-.47-.15-.95-.23-1.42-.08-.47.1-.99.01-1.46-.08-.47-.33-.91-.42-1.38-.08-.47-.14-.95-.23-1.42-.09-.47-.09-.96-.18-1.43-.09-.47-.21-.93-.31-1.4-.09-.47-.33-.96-.43-1.42.12-.34.51-.73.69-1.1.19-.37.39-.79.89-.74.45.07.72.49.97.82.21.27.57.65.77,1.19.14.39.19.87.33,1.36.12.42.18.88.29,1.36.1.43.07.91.17,1.38.09.44.03.92.12,1.39.09.45.48.85.56,1.3.08.45-.09.96-.01,1.41.08.46.22.9.3,1.36.08.47.18.92.26,1.37.07.47.3.91.37,1.35.07.48.14.94.21,1.37.08.5-.11,1-.05,1.41.09.54.37.97.44,1.33.09.47-.06.98.03,1.44.09.47.36.9.45,1.36.09.46.3.91.4,1.37s-.07.98.03,1.45c.1.46.29.91.39,1.37.1.46.26.91.37,1.37.11.46.51.85.62,1.31.11.46.14.94.25,1.4.11.46.19.93.31,1.38.11.46.08.96.2,1.42.12.46.14.94.26,1.4.12.46.59.82.71,1.28.12.46.29.9.42,1.36.13.46-.04.99.09,1.45.13.46.39.87.53,1.33.13.46.22.92.36,1.37.13.45.15.94.29,1.4.14.45.21.93.35,1.38.14.45.64.79.79,1.24.14.45.09.75.23,1.2.15-.43.48-.59.62-1.03.14-.44.22-.9.35-1.34.13-.44-.11-.98.01-1.43.12-.44.35-.86.46-1.31.11-.45.22-.89.32-1.34.1-.45.36-.86.46-1.31s0-.94.11-1.39c.1-.45.44-.85.54-1.3.1-.45.33-.87.44-1.32.1-.45.13-.91.24-1.36.11-.45.17-.9.29-1.35.12-.48.08-1,.21-1.48.13-.48.49-.89.62-1.37.13-.47-.05-1.04.08-1.51.13-.48.37-.92.5-1.4.13-.48.21-.97.35-1.44.13-.48.3-.94.43-1.42.13-.48.23-.96.37-1.44.13-.48.42-.91.56-1.39.14-.48.3-.94.44-1.42.14-.48.2-.97.34-1.45.14-.48.46-.9.6-1.37.14-.48-.15-1.08-.01-1.55.14-.48.56-.87.71-1.34.14-.47.03-1.02.17-1.49.13-.43.54-.81.67-1.28.13-.44.34-.88.47-1.34.13-.45.29-.89.42-1.36.13-.45.05-.97.18-1.43.13-.46.19-.94.32-1.39.14-.46.17-.95.31-1.39.15-.46.57-.83.72-1.26.16-.46.15-.97.32-1.4.18-.46.41-.88.6-1.29.22-.49.5-.93.83-1.16.4-.28,1-.46,1.46-.3.37.13.71.58,1.04,1.02"/><path d="M106.73,120.71c.48.03.34.5.82.54.58-.37.25-.84.18-1.36.58.2.81.14,1.16-.42.31-.37.71-.67,1.01-1.05.31-.38.4-.93.7-1.31.3-.38.72-.67,1.02-1.05.3-.38.52-.82.82-1.21.29-.39.76-.64,1.05-1.03.29-.39.62-.75.91-1.14.29-.39.47-.86.75-1.26.28-.39.72-.68,1-1.07.28-.39.21-1.04.49-1.44.28-.4.59-.77.87-1.17.28-.4.75-.66,1.03-1.06.28-.4.69-.71.97-1.1.28-.4.25-1.01.52-1.41.28-.4.87-.58,1.14-.98.28-.4.54-.81.82-1.21.28-.4.19-1.05.47-1.45.28-.4.9-.56,1.18-.96.28-.4.33-.96.61-1.35.28-.4.7-.7.98-1.09.28-.4.68-.71.97-1.1.29-.39.35-.95.64-1.34.29-.39.55-.8.84-1.19.29-.39.54-.81.84-1.19.29-.39.87-.56,1.17-.94.3-.38.42-.9.72-1.28.3-.38.53-.82.84-1.2.31-.38.74-.65,1.05-1.02.31-.37.44-.9.75-1.27.26-.29.83-.61,1.28-1.1.38-.41.81-.8,1.22-1.13.54-.43,1.04-.77,1.47-.7.24.04.7.25,1.03.58.32.31.72.77.69,1.08-.03.33-.55.68-.88,1.16-.24.34-.33.88-.65,1.25-.29.35-.59.73-.9,1.06-.33.36-.63.72-.92,1.04-.37.4-.92.56-1.13.83-.29.37-.67.66-.95,1.03-.28.37-.41.85-.69,1.22-.28.37-.75.6-1.03.97-.28.37-.31.93-.59,1.3s-.53.76-.8,1.14c-.27.38-.56.74-.83,1.12-.27.38-.59.72-.86,1.1-.27.38-.59.72-.86,1.1-.27.38-.62.7-.89,1.08-.27.38-.5.79-.77,1.17-.27.38-.27.95-.54,1.33s-.91.49-1.19.86c-.27.38-.51.78-.78,1.15-.27.38-.44.83-.72,1.21-.28.37-.59.72-.87,1.09-.29.38-.5.83-.8,1.24-.29.39-.47.86-.77,1.26-.29.39-.82.61-1.12,1.01-.29.39-.38.93-.67,1.33-.29.39-.56.81-.85,1.21-.29.4-.57.8-.87,1.19-.29.4-.87.59-1.16.99-.3.4-.3,1.01-.6,1.4-.3.4-.76.67-1.06,1.06-.3.39-.47.89-.77,1.28-.31.39-.82.62-1.12,1-.32.39-.62.78-.94,1.14-.33.38-.52.87-.84,1.23-.34.38-.79.63-1.12.97-.36.37-.52,1.03-.92,1.32-.41.29-1,.2-1.59.06-.82-.2-1.17-.49-1.2-.89-.03-.45.47-.85.84-1.32.46-.59,1.05-1.2,1.06-1.37.02-.26-.81-.52-.66-.94"/><path d="M106.73,120.71c.48.03.34.5.82.54.58-.37.25-.84.18-1.36.58.2.81.14,1.16-.42.31-.37.71-.67,1.01-1.05.31-.38.4-.93.7-1.31.3-.38.72-.67,1.02-1.05.3-.38.52-.82.82-1.21.29-.39.76-.64,1.05-1.03.29-.39.62-.75.91-1.14.29-.39.47-.86.75-1.26.28-.39.72-.68,1-1.07.28-.39.21-1.04.49-1.44.28-.4.59-.77.87-1.17.28-.4.75-.66,1.03-1.06.28-.4.69-.71.97-1.1.28-.4.25-1.01.52-1.41.28-.4.87-.58,1.14-.98.28-.4.54-.81.82-1.21.28-.4.19-1.05.47-1.45.28-.4.9-.56,1.18-.96.28-.4.33-.96.61-1.35.28-.4.7-.7.98-1.09.28-.4.68-.71.97-1.1.29-.39.35-.95.64-1.34.29-.39.55-.8.84-1.19.29-.39.54-.81.84-1.19.29-.39.87-.56,1.17-.94.3-.38.42-.9.72-1.28.3-.38.53-.82.84-1.2.31-.38.74-.65,1.05-1.02.31-.37.44-.9.75-1.27.26-.29.83-.61,1.28-1.1.38-.41.81-.8,1.22-1.13.54-.43,1.04-.77,1.47-.7.24.04.7.25,1.03.58.32.31.72.77.69,1.08-.03.33-.55.68-.88,1.16-.24.34-.33.88-.65,1.25-.29.35-.59.73-.9,1.06-.33.36-.63.72-.92,1.04-.37.4-.92.56-1.13.83-.29.37-.67.66-.95,1.03-.28.37-.41.85-.69,1.22-.28.37-.75.6-1.03.97-.28.37-.31.93-.59,1.3s-.53.76-.8,1.14c-.27.38-.56.74-.83,1.12-.27.38-.59.72-.86,1.1-.27.38-.59.72-.86,1.1-.27.38-.62.7-.89,1.08-.27.38-.5.79-.77,1.17-.27.38-.27.95-.54,1.33s-.91.49-1.19.86c-.27.38-.51.78-.78,1.15-.27.38-.44.83-.72,1.21-.28.37-.59.72-.87,1.09-.29.38-.5.83-.8,1.24-.29.39-.47.86-.77,1.26-.29.39-.82.61-1.12,1.01-.29.39-.38.93-.67,1.33-.29.39-.56.81-.85,1.21-.29.4-.57.8-.87,1.19-.29.4-.87.59-1.16.99-.3.4-.3,1.01-.6,1.4-.3.4-.76.67-1.06,1.06-.3.39-.47.89-.77,1.28-.31.39-.82.62-1.12,1-.32.39-.62.78-.94,1.14-.33.38-.52.87-.84,1.23-.34.38-.79.63-1.12.97-.36.37-.52,1.03-.92,1.32-.41.29-1,.2-1.59.06-.82-.2-1.17-.49-1.2-.89-.03-.45.47-.85.84-1.32.46-.59,1.05-1.2,1.06-1.37.02-.26-.81-.52-.66-.94"/><path d="M61.83,90.25c.18-.19.49-.71.95-.8.45-.09,1.08.05,1.31.3.3.38.66.73.95,1.11.29.39.59.77.88,1.16s.27,1.01.56,1.4c.29.39.9.55,1.18.94.28.39.27,1,.55,1.4.28.39.83.6,1.11,1,.28.4.57.79.85,1.18.28.4.19,1.05.47,1.45.28.4.62.75.89,1.15.28.4.81.62,1.08,1.02.27.4.53.81.8,1.21.27.4.5.84.77,1.24.27.4.54.8.81,1.21.27.4.53.81.8,1.22.27.4.54.81.81,1.21.27.4.39.91.66,1.31.27.4.61.76.88,1.16.27.4.47.85.74,1.25.27.4.44.87.71,1.28.27.4.57.79.83,1.19.27.4.65.74.92,1.14s.57.79.84,1.19c.27.4.48.85.75,1.25.27.4.72.69.99,1.09.27.4.59.77.86,1.17.27.4.58.78.86,1.18.28.4.5.83.78,1.23.28.4.35.94.63,1.34s.69.7.97,1.1c.35.46.54,1.05.45,1.53-.1.55-.64.81-1.09,1.02-.42.19-.74.19-1.28-.2-.17-.12-.76-.37-1.22-.99-.29-.39-.5-.92-.82-1.36-.32-.44-.58-.93-.87-1.33-.4-.57-.85-.97-1.02-1.21-.28-.39-.74-.65-1.02-1.04-.28-.39-.37-.92-.64-1.31-.28-.39-.47-.84-.74-1.24-.27-.4-.56-.78-.83-1.18-.27-.4-.54-.8-.81-1.19-.27-.4-.54-.79-.81-1.19-.27-.4-.67-.71-.94-1.11-.27-.4-.33-.93-.6-1.33-.27-.4-.72-.68-.98-1.08-.26-.4-.53-.8-.8-1.2-.26-.4-.28-.97-.54-1.37-.26-.4-.59-.76-.86-1.16-.26-.4-.68-.7-.94-1.1-.27-.4-.7-.68-.97-1.08-.27-.4-.55-.79-.81-1.19-.27-.4-.24-1-.51-1.39-.27-.4-.44-.86-.71-1.26-.27-.4-.6-.76-.87-1.15-.27-.39-.62-.74-.89-1.13-.28-.39-.77-.63-1.05-1.02-.28-.39-.37-.92-.65-1.31-.28-.39-.75-.64-1.04-1.02-.29-.39-.42-.88-.71-1.27-.29-.38-.44-.87-.73-1.25-.29-.38-.56-.77-.86-1.15-.18-.25-.59-.56-.58-.99.01-.44.36-.79.56-1.01"/><path d="M61.83,90.25c.18-.19.49-.71.95-.8.45-.09,1.08.05,1.31.3.3.38.66.73.95,1.11.29.39.59.77.88,1.16s.27,1.01.56,1.4c.29.39.9.55,1.18.94.28.39.27,1,.55,1.4.28.39.83.6,1.11,1,.28.4.57.79.85,1.18.28.4.19,1.05.47,1.45.28.4.62.75.89,1.15.28.4.81.62,1.08,1.02.27.4.53.81.8,1.21.27.4.5.84.77,1.24.27.4.54.8.81,1.21.27.4.53.81.8,1.22.27.4.54.81.81,1.21.27.4.39.91.66,1.31.27.4.61.76.88,1.16.27.4.47.85.74,1.25.27.4.44.87.71,1.28.27.4.57.79.83,1.19.27.4.65.74.92,1.14s.57.79.84,1.19c.27.4.48.85.75,1.25.27.4.72.69.99,1.09.27.4.59.77.86,1.17.27.4.58.78.86,1.18.28.4.5.83.78,1.23.28.4.35.94.63,1.34s.69.7.97,1.1c.35.46.54,1.05.45,1.53-.1.55-.64.81-1.09,1.02-.42.19-.74.19-1.28-.2-.17-.12-.76-.37-1.22-.99-.29-.39-.5-.92-.82-1.36-.32-.44-.58-.93-.87-1.33-.4-.57-.85-.97-1.02-1.21-.28-.39-.74-.65-1.02-1.04-.28-.39-.37-.92-.64-1.31-.28-.39-.47-.84-.74-1.24-.27-.4-.56-.78-.83-1.18-.27-.4-.54-.8-.81-1.19-.27-.4-.54-.79-.81-1.19-.27-.4-.67-.71-.94-1.11-.27-.4-.33-.93-.6-1.33-.27-.4-.72-.68-.98-1.08-.26-.4-.53-.8-.8-1.2-.26-.4-.28-.97-.54-1.37-.26-.4-.59-.76-.86-1.16-.26-.4-.68-.7-.94-1.1-.27-.4-.7-.68-.97-1.08-.27-.4-.55-.79-.81-1.19-.27-.4-.24-1-.51-1.39-.27-.4-.44-.86-.71-1.26-.27-.4-.6-.76-.87-1.15-.27-.39-.62-.74-.89-1.13-.28-.39-.77-.63-1.05-1.02-.28-.39-.37-.92-.65-1.31-.28-.39-.75-.64-1.04-1.02-.29-.39-.42-.88-.71-1.27-.29-.38-.44-.87-.73-1.25-.29-.38-.56-.77-.86-1.15-.18-.25-.59-.56-.58-.99.01-.44.36-.79.56-1.01"/><path d="M95.67,126.68c-.48.09-.84.4-1.25.76-.39.34-.8.63-1.02,1.09-.23.48-.52,1-.45,1.5.08.55.36,1.01.59,1.4.27.46.54.96.95,1.21.43.27,1.01.34,1.5.38.5.03,1.05-.04,1.5-.26.44-.21.87-.55,1.16-.99.25-.38.33-.9.4-1.45.06-.44-.11-.9-.2-1.46-.07-.45-.15-.92-.53-1.28-.35-.34-.86-.43-1.31-.61-.5-.2-.92-.38-1.35-.3M95.15,123.16c.48-.1,1.02-.22,1.55-.17.49.05.99.3,1.48.46.48.16.86.53,1.3.79.44.26.91.46,1.27.8.38.35.56.82.8,1.26.25.44.51.84.57,1.35.05.47.05.92.04,1.37-.02.47-.08.92-.17,1.36-.1.46-.11.94-.28,1.36-.18.43-.25.94-.5,1.33-.26.39-.72.64-1.04.96-.33.33-.59.78-.98,1.03-.39.24-.91.27-1.36.42-.43.15-.86.37-1.33.43-.44.05-.93.16-1.41.13-.44-.03-.9-.26-1.37-.37-.38-.09-.86-.28-1.24-.62-.31-.28-.71-.59-1-.97-.27-.36-.15-.99-.37-1.38-.23-.41-.62-.73-.76-1.13-.18-.49-.48-.94-.5-1.31-.02-.48.35-.98.49-1.5.12-.48.12-1.03.36-1.5.22-.46.56-.87.86-1.29.3-.42.47-.99.83-1.35.38-.37.83-.73,1.25-.98.46-.28,1.04-.36,1.52-.46"/><path d="M95.67,126.68c-.48.09-.84.4-1.25.76-.39.34-.8.63-1.02,1.09-.23.48-.52,1-.45,1.5.08.55.36,1.01.59,1.4.27.46.54.96.95,1.21.43.27,1.01.34,1.5.38.5.03,1.05-.04,1.5-.26.44-.21.87-.55,1.16-.99.25-.38.33-.9.4-1.45.06-.44-.11-.9-.2-1.46-.07-.45-.15-.92-.53-1.28-.35-.34-.86-.43-1.31-.61-.5-.2-.92-.38-1.35-.3M95.15,123.16c.48-.1,1.02-.22,1.55-.17.49.05.99.3,1.48.46.48.16.86.53,1.3.79.44.26.91.46,1.27.8.38.35.56.82.8,1.26.25.44.51.84.57,1.35.05.47.05.92.04,1.37-.02.47-.08.92-.17,1.36-.1.46-.11.94-.28,1.36-.18.43-.25.94-.5,1.33-.26.39-.72.64-1.04.96-.33.33-.59.78-.98,1.03-.39.24-.91.27-1.36.42-.43.15-.86.37-1.33.43-.44.05-.93.16-1.41.13-.44-.03-.9-.26-1.37-.37-.38-.09-.86-.28-1.24-.62-.31-.28-.71-.59-1-.97-.27-.36-.15-.99-.37-1.38-.23-.41-.62-.73-.76-1.13-.18-.49-.48-.94-.5-1.31-.02-.48.35-.98.49-1.5.12-.48.12-1.03.36-1.5.22-.46.56-.87.86-1.29.3-.42.47-.99.83-1.35.38-.37.83-.73,1.25-.98.46-.28,1.04-.36,1.52-.46"/><path d="M113.1,65.05c.07.09.29.09.3.25-.14.45-.19.93-.33,1.38-.14.45-.4.87-.54,1.32-.14.45-.26.91-.4,1.36-.14.45-.35.88-.48,1.34-.14.45.03,1-.11,1.45-.14.45-.38.88-.51,1.33s-.53.82-.68,1.28c-.14.45.15,1.04.01,1.49-.14.45-.49.84-.63,1.29-.14.45-.22.92-.36,1.38-.14.45-.47.84-.61,1.3-.14.45-.3.9-.44,1.35-.14.45-.38.88-.52,1.33-.14.45-.09.96-.23,1.42-.14.45-.19.93-.33,1.39-.14.45-.29.9-.42,1.36-.14.45-.38.88-.51,1.33s-.29.9-.42,1.36c-.13.46-.06.97-.19,1.43-.13.45-.22.92-.35,1.38-.13.46-.44.86-.57,1.32-.13.46-.31.9-.43,1.35-.12.46-.18.93-.3,1.39-.12.46-.25.91-.37,1.37-.12.46-.04.98-.15,1.45-.12.47-.19.94-.3,1.41-.11.47-.67.83-.78,1.3-.11.47.1,1.01,0,1.48-.1.47-.15.95-.26,1.42-.1.47-.19.95-.29,1.42-.1.47-.39.9-.49,1.37-.1.47-.29.92-.39,1.39-.11.47-.03.98-.14,1.45-.11.47-.38.9-.49,1.37-.11.47-.36.9-.48,1.37-.12.47.17,1.05.04,1.51-.13.46-.33.91-.47,1.37-.14.46-.51.85-.65,1.31-.13.4-.39.95-.64,1.49-.26.57-.47.93-.95,1.01-.64.1-1.22.39-1.57.12-.38-.29-.44-.95-.61-1.48-.15-.47-.36-.97-.45-1.47-.09-.55-.28-1.03-.4-1.45-.13-.46-.21-.93-.35-1.38-.14-.45-.22-.92-.36-1.38-.14-.46,0-1-.14-1.45-.14-.45-.57-.82-.71-1.27-.14-.45-.38-.88-.52-1.33-.14-.45.14-1.04,0-1.49-.14-.45-.48-.85-.62-1.3-.14-.45-.53-.83-.66-1.29-.14-.46-.25-.92-.39-1.38-.14-.46-.18-.94-.31-1.4-.13-.46-.3-.91-.42-1.36-.13-.46-.07-.97-.19-1.43-.12-.46-.36-.9-.48-1.36-.11-.46-.01-.98-.12-1.45-.11-.47-.2-.94-.3-1.4-.11-.47-.3-.91-.4-1.38s-.37-.9-.46-1.37c-.1-.47-.23-.93-.32-1.4-.09-.47-.09-.96-.19-1.43-.09-.47-.03-.97-.12-1.44-.09-.47-.49-.88-.58-1.36-.09-.47.11-.99.02-1.46-.08-.47-.18-.94-.26-1.41-.08-.47-.4-.9-.48-1.38-.08-.47-.23-.93-.32-1.4-.08-.47-.04-.96-.12-1.44s-.29-.92-.38-1.39c-.08-.47-.15-.95-.23-1.42-.08-.47.1-.99.01-1.46-.08-.47-.33-.91-.42-1.38-.08-.47-.14-.95-.23-1.42-.09-.47-.09-.96-.18-1.43-.09-.47-.21-.93-.31-1.4-.09-.47-.33-.96-.43-1.42.12-.34.51-.73.69-1.1.19-.37.39-.79.89-.74.45.07.72.49.97.82.21.27.57.65.77,1.19.14.39.19.87.33,1.36.12.42.18.88.29,1.36.1.43.07.91.17,1.38.09.44.03.92.12,1.39.09.45.48.85.56,1.3.08.45-.09.96-.01,1.41.08.46.22.9.3,1.36.08.47.18.92.26,1.37.07.47.3.91.37,1.35.07.48.14.94.21,1.37.08.5-.11,1-.05,1.41.09.54.37.97.44,1.33.09.47-.06.98.03,1.44.09.47.36.9.45,1.36.09.46.3.91.4,1.37s-.07.98.03,1.45c.1.46.29.91.39,1.37.1.46.26.91.37,1.37.11.46.51.85.62,1.31.11.46.14.94.25,1.4.11.46.19.93.31,1.38.11.46.08.96.2,1.42.12.46.14.94.26,1.4.12.46.59.82.71,1.28.12.46.29.9.42,1.36.13.46-.04.99.09,1.45.13.46.39.87.53,1.33.13.46.22.92.36,1.37.13.45.15.94.29,1.4.14.45.21.93.35,1.38.14.45.64.79.79,1.24.14.45.09.75.23,1.2.15-.43.48-.59.62-1.03.14-.44.22-.9.35-1.34.13-.44-.11-.98.01-1.43.12-.44.35-.86.46-1.31.11-.45.22-.89.32-1.34.1-.45.36-.86.46-1.31s0-.94.11-1.39c.1-.45.44-.85.54-1.3.1-.45.33-.87.44-1.32.1-.45.13-.91.24-1.36.11-.45.17-.9.29-1.35.12-.48.08-1,.21-1.48.13-.48.49-.89.62-1.37.13-.47-.05-1.04.08-1.51.13-.48.37-.92.5-1.4.13-.48.21-.97.35-1.44.13-.48.3-.94.43-1.42.13-.48.23-.96.37-1.44.13-.48.42-.91.56-1.39.14-.48.3-.94.44-1.42.14-.48.2-.97.34-1.45.14-.48.46-.9.6-1.37.14-.48-.15-1.08-.01-1.55.14-.48.56-.87.71-1.34.14-.47.03-1.02.17-1.49.13-.43.54-.81.67-1.28.13-.44.34-.88.47-1.34.13-.45.29-.89.42-1.36.13-.45.05-.97.18-1.43.13-.46.19-.94.32-1.39.14-.46.17-.95.31-1.39.15-.46.57-.83.72-1.26.16-.46.15-.97.32-1.4.18-.46.41-.88.6-1.29.22-.49.5-.93.83-1.16.4-.28,1-.46,1.46-.3.37.13.71.58,1.04,1.02"/><path d="M106.73,120.71c.48.03.34.5.82.54.58-.37.25-.84.18-1.36.58.2.81.14,1.16-.42.31-.37.71-.67,1.01-1.05.31-.38.4-.93.7-1.31.3-.38.72-.67,1.02-1.05.3-.38.52-.82.82-1.21.29-.39.76-.64,1.05-1.03.29-.39.62-.75.91-1.14.29-.39.47-.86.75-1.26.28-.39.72-.68,1-1.07.28-.39.21-1.04.49-1.44.28-.4.59-.77.87-1.17.28-.4.75-.66,1.03-1.06.28-.4.69-.71.97-1.1.28-.4.25-1.01.52-1.41.28-.4.87-.58,1.14-.98.28-.4.54-.81.82-1.21.28-.4.19-1.05.47-1.45.28-.4.9-.56,1.18-.96.28-.4.33-.96.61-1.35.28-.4.7-.7.98-1.09.28-.4.68-.71.97-1.1.29-.39.35-.95.64-1.34.29-.39.55-.8.84-1.19.29-.39.54-.81.84-1.19.29-.39.87-.56,1.17-.94.3-.38.42-.9.72-1.28.3-.38.53-.82.84-1.2.31-.38.74-.65,1.05-1.02.31-.37.44-.9.75-1.27.26-.29.83-.61,1.28-1.1.38-.41.81-.8,1.22-1.13.54-.43,1.04-.77,1.47-.7.24.04.7.25,1.03.58.32.31.72.77.69,1.08-.03.33-.55.68-.88,1.16-.24.34-.33.88-.65,1.25-.29.35-.59.73-.9,1.06-.33.36-.63.72-.92,1.04-.37.4-.92.56-1.13.83-.29.37-.67.66-.95,1.03-.28.37-.41.85-.69,1.22-.28.37-.75.6-1.03.97-.28.37-.31.93-.59,1.3s-.53.76-.8,1.14c-.27.38-.56.74-.83,1.12-.27.38-.59.72-.86,1.1-.27.38-.59.72-.86,1.1-.27.38-.62.7-.89,1.08-.27.38-.5.79-.77,1.17-.27.38-.27.95-.54,1.33s-.91.49-1.19.86c-.27.38-.51.78-.78,1.15-.27.38-.44.83-.72,1.21-.28.37-.59.72-.87,1.09-.29.38-.5.83-.8,1.24-.29.39-.47.86-.77,1.26-.29.39-.82.61-1.12,1.01-.29.39-.38.93-.67,1.33-.29.39-.56.81-.85,1.21-.29.4-.57.8-.87,1.19-.29.4-.87.59-1.16.99-.3.4-.3,1.01-.6,1.4-.3.4-.76.67-1.06,1.06-.3.39-.47.89-.77,1.28-.31.39-.82.62-1.12,1-.32.39-.62.78-.94,1.14-.33.38-.52.87-.84,1.23-.34.38-.79.63-1.12.97-.36.37-.52,1.03-.92,1.32-.41.29-1,.2-1.59.06-.82-.2-1.17-.49-1.2-.89-.03-.45.47-.85.84-1.32.46-.59,1.05-1.2,1.06-1.37.02-.26-.81-.52-.66-.94"/><path d="M61.83,90.25c.18-.19.49-.71.95-.8.45-.09,1.08.05,1.31.3.3.38.66.73.95,1.11.29.39.59.77.88,1.16s.27,1.01.56,1.4c.29.39.9.55,1.18.94.28.39.27,1,.55,1.4.28.39.83.6,1.11,1,.28.4.57.79.85,1.18.28.4.19,1.05.47,1.45.28.4.62.75.89,1.15.28.4.81.62,1.08,1.02.27.4.53.81.8,1.21.27.4.5.84.77,1.24.27.4.54.8.81,1.21.27.4.53.81.8,1.22.27.4.54.81.81,1.21.27.4.39.91.66,1.31.27.4.61.76.88,1.16.27.4.47.85.74,1.25.27.4.44.87.71,1.28.27.4.57.79.83,1.19.27.4.65.74.92,1.14s.57.79.84,1.19c.27.4.48.85.75,1.25.27.4.72.69.99,1.09.27.4.59.77.86,1.17.27.4.58.78.86,1.18.28.4.5.83.78,1.23.28.4.35.94.63,1.34s.69.7.97,1.1c.35.46.54,1.05.45,1.53-.1.55-.64.81-1.09,1.02-.42.19-.74.19-1.28-.2-.17-.12-.76-.37-1.22-.99-.29-.39-.5-.92-.82-1.36-.32-.44-.58-.93-.87-1.33-.4-.57-.85-.97-1.02-1.21-.28-.39-.74-.65-1.02-1.04-.28-.39-.37-.92-.64-1.31-.28-.39-.47-.84-.74-1.24-.27-.4-.56-.78-.83-1.18-.27-.4-.54-.8-.81-1.19-.27-.4-.54-.79-.81-1.19-.27-.4-.67-.71-.94-1.11-.27-.4-.33-.93-.6-1.33-.27-.4-.72-.68-.98-1.08-.26-.4-.53-.8-.8-1.2-.26-.4-.28-.97-.54-1.37-.26-.4-.59-.76-.86-1.16-.26-.4-.68-.7-.94-1.1-.27-.4-.7-.68-.97-1.08-.27-.4-.55-.79-.81-1.19-.27-.4-.24-1-.51-1.39-.27-.4-.44-.86-.71-1.26-.27-.4-.6-.76-.87-1.15-.27-.39-.62-.74-.89-1.13-.28-.39-.77-.63-1.05-1.02-.28-.39-.37-.92-.65-1.31-.28-.39-.75-.64-1.04-1.02-.29-.39-.42-.88-.71-1.27-.29-.38-.44-.87-.73-1.25-.29-.38-.56-.77-.86-1.15-.18-.25-.59-.56-.58-.99.01-.44.36-.79.56-1.01"/><path d="M95.67,126.68c-.48.09-.84.4-1.25.76-.39.34-.8.63-1.02,1.09-.23.48-.52,1-.45,1.5.08.55.36,1.01.59,1.4.27.46.54.96.95,1.21.43.27,1.01.34,1.5.38.5.03,1.05-.04,1.5-.26.44-.21.87-.55,1.16-.99.25-.38.33-.9.4-1.45.06-.44-.11-.9-.2-1.46-.07-.45-.15-.92-.53-1.28-.35-.34-.86-.43-1.31-.61-.5-.2-.92-.38-1.35-.3M95.15,123.16c.48-.1,1.02-.22,1.55-.17.49.05.99.3,1.48.46.48.16.86.53,1.3.79.44.26.91.46,1.27.8.38.35.56.82.8,1.26.25.44.51.84.57,1.35.05.47.05.92.04,1.37-.02.47-.08.92-.17,1.36-.1.46-.11.94-.28,1.36-.18.43-.25.94-.5,1.33-.26.39-.72.64-1.04.96-.33.33-.59.78-.98,1.03-.39.24-.91.27-1.36.42-.43.15-.86.37-1.33.43-.44.05-.93.16-1.41.13-.44-.03-.9-.26-1.37-.37-.38-.09-.86-.28-1.24-.62-.31-.28-.71-.59-1-.97-.27-.36-.15-.99-.37-1.38-.23-.41-.62-.73-.76-1.13-.18-.49-.48-.94-.5-1.31-.02-.48.35-.98.49-1.5.12-.48.12-1.03.36-1.5.22-.46.56-.87.86-1.29.3-.42.47-.99.83-1.35.38-.37.83-.73,1.25-.98.46-.28,1.04-.36,1.52-.46"/></svg>