<?xml version="1.0" encoding="UTF-8"?><svg id="Layer_1" xmlns="http://www.w3.org/2000/svg" viewBox="0 0 200 200"><path d="M73.99,66.16c.52-.02,1.04.05,1.54.05.52,0,1.01.41,1.52.43.51.02,1.02,0,1.53.04.51.03,1.02.05,1.53.08.51.04,1.02.06,1.53.09.51.03,1.03-.19,1.54-.17.51.02,1.01.13,1.53.12.39,0,.79-.28,1.25-.36.42-.07.86-.1,1.28-.17.46-.08.92.07,1.3.07.46,0,1.03-.15,1.58,0,.48.12.94.48,1.43.64.51.16,1.05.18,1.52.31.57.16,1.05.45,1.46.45.32,0,.74-.42,1.34-.7.43-.2,1.06-.03,1.56-.21.48-.17.9-.69,1.4-.71.55-.02.92.41,1.26.49.49.11.94,0,1.3.19.34.18.59.69,1.09.82.1.03.71-.25,1.48-.23.42.01.9.29,1.41.3.46,0,.94-.28,1.43-.28.48,0,.96-.03,1.42-.02.52,0,1-.01,1.42-.01.72,0,1.23-.06,1.4-.08.67-.08,1.11-.45,1.9-.53.47-.05.97.44,1.46.47.48.03.96-.04,1.44.03.48.07.99-.04,1.46.03.49.07.97.05,1.44.08.5.04.96.08,1.42.03.45-.05.75-.29,1.12-.45.37-.16.82-.17,1.23-.3.36-.11.77-.19,1.25-.18.39.01.82-.06,1.17.04.36.11.67.19,1.04.23.43.05.88.18,1.37.17.48,0,.97.08,1.39.15.51.08.97.24,1.22.63.19.3.03.74-.04,1.35-.06.56-.08,1.02-.49,1.24-.37.2-.9-.03-1.43-.01-.45.01-.91.08-1.4.03-.49-.05-.99.03-1.43-.03-.57-.08-1.08-.3-1.42-.28-.49.04-.99.21-1.4.44-.4.22-.69.76-1.2.83-.5.06-1.04-.12-1.58-.15-.51-.03-1.03-.14-1.55-.21-.52-.07-1.03-.2-1.54-.26-.53-.07-1.07.23-1.57.22-.46,0-.93-.42-1.4-.4-.46.03-.9.37-1.37.42-.46.04-.95-.2-1.41-.15-.46.05-.9.39-1.36.42-.47.03-.94-.14-1.4-.13-.35,0-.78.33-1.25.34-.4.01-.84-.24-1.27-.24-.43,0-.86-.1-1.26-.1-.48,0-.9-.01-1.24-.05-.43-.05-.77-.22-1.16-.39-.4-.18-.78-.37-1.15-.54-.4-.18-.88-.2-1.3-.2-.54,0-1.14.02-1.64.24-.49.22-.85.73-1.34.95-.5.22-1.03.47-1.57.46-.42,0-.93-.06-1.43-.19-.44-.11-.82-.54-1.29-.68-.45-.13-.96-.09-1.42-.19-.48-.12-.93-.26-1.38-.3-.44-.03-.89-.13-1.33-.11-.44.02-.9-.07-1.34-.03-.44.04-.86.27-1.3.31-.44.03-.88.24-1.32.24-.47,0-.96-.32-1.48-.37-.49-.04-1,0-1.5-.06s-1.01-.08-1.49-.13c-.52-.05-1.03.15-1.5.14-.35,0-.8.04-1.33.07-.41.02-.88-.08-1.35-.04-.43.03-.91-.25-1.37-.22-.45.02-.9.17-1.34.18-.47.01-.92-.04-1.35-.05-.49-.01-.96.14-1.36.08-.56-.08-.91-.36-1.18-.56-.41-.31-.96-.65-1.01-1.15-.05-.49.37-.99.73-1.36.18-.19.67-.16,1.33-.25.43-.06.89-.29,1.39-.32.49-.03.97-.29,1.41-.3.6-.02,1.11-.02,1.42-.03"/><path d="M73.99,66.16c.52-.02,1.04.05,1.54.05.52,0,1.01.41,1.52.43.51.02,1.02,0,1.53.04.51.03,1.02.05,1.53.08.51.04,1.02.06,1.53.09.51.03,1.03-.19,1.54-.17.51.02,1.01.13,1.53.12.39,0,.79-.28,1.25-.36.42-.07.86-.1,1.28-.17.46-.08.92.07,1.3.07.46,0,1.03-.15,1.58,0,.48.12.94.48,1.43.64.51.16,1.05.18,1.52.31.57.16,1.05.45,1.46.45.32,0,.74-.42,1.34-.7.43-.2,1.06-.03,1.56-.21.48-.17.9-.69,1.4-.71.55-.02.92.41,1.26.49.49.11.94,0,1.3.19.34.18.59.69,1.09.82.1.03.71-.25,1.48-.23.42.01.9.29,1.41.3.46,0,.94-.28,1.43-.28.48,0,.96-.03,1.42-.02.52,0,1-.01,1.42-.01.72,0,1.23-.06,1.4-.08.67-.08,1.11-.45,1.9-.53.47-.05.97.44,1.46.47.48.03.96-.04,1.44.03.48.07.99-.04,1.46.03.49.07.97.05,1.44.08.5.04.96.08,1.42.03.45-.05.75-.29,1.12-.45.37-.16.82-.17,1.23-.3.36-.11.77-.19,1.25-.18.39.01.82-.06,1.17.04.36.11.67.19,1.04.23.43.05.88.18,1.37.17.48,0,.97.08,1.39.15.51.08.97.24,1.22.63.19.3.03.74-.04,1.35-.06.56-.08,1.02-.49,1.24-.37.2-.9-.03-1.43-.01-.45.01-.91.08-1.4.03-.49-.05-.99.03-1.43-.03-.57-.08-1.08-.3-1.42-.28-.49.04-.99.21-1.4.44-.4.22-.69.76-1.2.83-.5.06-1.04-.12-1.58-.15-.51-.03-1.03-.14-1.55-.21-.52-.07-1.03-.2-1.54-.26-.53-.07-1.07.23-1.57.22-.46,0-.93-.42-1.4-.4-.46.03-.9.37-1.37.42-.46.04-.95-.2-1.41-.15-.46.05-.9.39-1.36.42-.47.03-.94-.14-1.4-.13-.35,0-.78.33-1.25.34-.4.01-.84-.24-1.27-.24-.43,0-.86-.1-1.26-.1-.48,0-.9-.01-1.24-.05-.43-.05-.77-.22-1.16-.39-.4-.18-.78-.37-1.15-.54-.4-.18-.88-.2-1.3-.2-.54,0-1.14.02-1.64.24-.49.22-.85.73-1.34.95-.5.22-1.03.47-1.57.46-.42,0-.93-.06-1.43-.19-.44-.11-.82-.54-1.29-.68-.45-.13-.96-.09-1.42-.19-.48-.12-.93-.26-1.38-.3-.44-.03-.89-.13-1.33-.11-.44.02-.9-.07-1.34-.03-.44.04-.86.27-1.3.31-.44.03-.88.24-1.32.24-.47,0-.96-.32-1.48-.37-.49-.04-1,0-1.5-.06s-1.01-.08-1.49-.13c-.52-.05-1.03.15-1.5.14-.35,0-.8.04-1.33.07-.41.02-.88-.08-1.35-.04-.43.03-.91-.25-1.37-.22-.45.02-.9.17-1.34.18-.47.01-.92-.04-1.35-.05-.49-.01-.96.14-1.36.08-.56-.08-.91-.36-1.18-.56-.41-.31-.96-.65-1.01-1.15-.05-.49.37-.99.73-1.36.18-.19.67-.16,1.33-.25.43-.06.89-.29,1.39-.32.49-.03.97-.29,1.41-.3.6-.02,1.11-.02,1.42-.03"/><path d="M131.65,131.85c-.16.17-.92.42-1.19.46-.54.07-1.06.28-1.59.29-.55.01-1.08-.18-1.61-.21-.54-.02-1.09.18-1.62.16-.55-.02-1.09-.27-1.62-.25-.51.02-1,.43-1.53.49-.51.05-1.06-.21-1.58-.15-.52.06-1.03.21-1.54.25-.53.04-1.05,0-1.56,0-.46,0-.92-.12-1.39-.14-.46-.03-.94.2-1.41.16-.47-.03-.91-.31-1.38-.34-.47-.03-.94.37-1.4.36-.47,0-.93-.21-1.39-.17-.42.03-.89-.08-1.32.02-.42.1-.82.33-1.23.46-.42.13-.79.44-1.19.54-.45.11-.9.08-1.3.09-.48.01-.96-.06-1.45-.13-.48-.06-1,.05-1.48-.06-.48-.1-.87-.59-1.34-.7-.48-.11-1-.07-1.47-.16-.5-.09-.99-.22-1.45-.23-.46-.02-.89.31-1.34.39-.45.08-.95-.15-1.4-.08-.45.08-.87.2-1.33.19-.49,0-.95-.19-1.47-.28-.49-.09-.99-.16-1.49-.27-.5-.11-1-.24-1.49-.33-.52-.1-1.07,0-1.54-.01-.37-.02-.77.16-1.18.2-.39.04-.83-.24-1.23-.2-.41.05-.8.4-1.17.4-.47,0-.94-.28-1.4-.29-.47-.01-.96.36-1.42.34-.47-.02-.91-.48-1.38-.51-.47-.03-.94-.01-1.4-.04-.47-.03-.95.14-1.41.11-.47-.03-.92-.31-1.39-.33-.47-.03-.94-.02-1.41-.03-.39-.01-.9.05-1.45.09-.46.03-.95-.03-1.43-.01-.5.02-.99.21-1.43.16-.57-.06-1.13-.09-1.42-.35-.47-.42-.69-1.13-.62-1.69.07-.57.51-1.04,1.17-1.25.41.02.86-.06,1.32-.11.44-.05.9,0,1.33-.05.47-.06.91-.4,1.31-.4.48,0,1.06,0,1.63.07.52.07,1.04.34,1.56.41.57.07,1.11.18,1.59.19.49,0,.99-.11,1.51-.12.5,0,1,.17,1.51.15.5-.01,1-.26,1.5-.27.5-.01,1.01.31,1.52.3.51-.01,1.01-.05,1.51-.05.51,0,1.01,0,1.5.01.51.02,1,.11,1.49.15.42.04.87-.11,1.31,0,.42.1.8.4,1.22.49.43.09.9-.19,1.32-.16.43.02.86.33,1.29.31.43-.02.84-.36,1.27-.4.43-.04.87.08,1.31.05.43-.03.86-.19,1.29-.2.43,0,.85.39,1.28.43.41.04.84.06,1.31.17.43.09.95-.15,1.39-.04.44.11.81.58,1.23.65.47.09.96-.25,1.36-.25.44,0,.86.02,1.31-.05.43-.07.9.01,1.34-.1.42-.1.79-.48,1.23-.58.42-.1.88-.14,1.33-.22.43-.08.89-.09,1.35-.12.43-.03.88.13,1.34.15.46.02.92.19,1.39.21s.93-.12,1.4-.1c.46.01.93.17,1.39.18.46,0,.93-.21,1.39-.21.46,0,.93.11,1.39.11.46,0,.93-.24,1.39-.23.46,0,.93.19,1.39.19.46,0,.93-.04,1.39-.04.46,0,.92.1,1.39.12.46,0,.93.01,1.39.03.38.01.95.13,1.55.09.5-.04,1.02-.5,1.52-.49.56.02,1.01.46,1.42.64.48.21,1.1.38,1.14.98.02.35-.4.93-.63,1.18"/><path d="M131.65,131.85c-.16.17-.92.42-1.19.46-.54.07-1.06.28-1.59.29-.55.01-1.08-.18-1.61-.21-.54-.02-1.09.18-1.62.16-.55-.02-1.09-.27-1.62-.25-.51.02-1,.43-1.53.49-.51.05-1.06-.21-1.58-.15-.52.06-1.03.21-1.54.25-.53.04-1.05,0-1.56,0-.46,0-.92-.12-1.39-.14-.46-.03-.94.2-1.41.16-.47-.03-.91-.31-1.38-.34-.47-.03-.94.37-1.4.36-.47,0-.93-.21-1.39-.17-.42.03-.89-.08-1.32.02-.42.1-.82.33-1.23.46-.42.13-.79.44-1.19.54-.45.11-.9.08-1.3.09-.48.01-.96-.06-1.45-.13-.48-.06-1,.05-1.48-.06-.48-.1-.87-.59-1.34-.7-.48-.11-1-.07-1.47-.16-.5-.09-.99-.22-1.45-.23-.46-.02-.89.31-1.34.39-.45.08-.95-.15-1.4-.08-.45.08-.87.2-1.33.19-.49,0-.95-.19-1.47-.28-.49-.09-.99-.16-1.49-.27-.5-.11-1-.24-1.49-.33-.52-.1-1.07,0-1.54-.01-.37-.02-.77.16-1.18.2-.39.04-.83-.24-1.23-.2-.41.05-.8.4-1.17.4-.47,0-.94-.28-1.4-.29-.47-.01-.96.36-1.42.34-.47-.02-.91-.48-1.38-.51-.47-.03-.94-.01-1.4-.04-.47-.03-.95.14-1.41.11-.47-.03-.92-.31-1.39-.33-.47-.03-.94-.02-1.41-.03-.39-.01-.9.05-1.45.09-.46.03-.95-.03-1.43-.01-.5.02-.99.21-1.43.16-.57-.06-1.13-.09-1.42-.35-.47-.42-.69-1.13-.62-1.69.07-.57.51-1.04,1.17-1.25.41.02.86-.06,1.32-.11.44-.05.9,0,1.33-.05.47-.06.91-.4,1.31-.4.48,0,1.06,0,1.63.07.52.07,1.04.34,1.56.41.57.07,1.11.18,1.59.19.49,0,.99-.11,1.51-.12.5,0,1,.17,1.51.15.5-.01,1-.26,1.5-.27.5-.01,1.01.31,1.52.3.51-.01,1.01-.05,1.51-.05.51,0,1.01,0,1.5.01.51.02,1,.11,1.49.15.42.04.87-.11,1.31,0,.42.1.8.4,1.22.49.43.09.9-.19,1.32-.16.43.02.86.33,1.29.31.43-.02.84-.36,1.27-.4.43-.04.87.08,1.31.05.43-.03.86-.19,1.29-.2.43,0,.85.39,1.28.43.41.04.84.06,1.31.17.43.09.95-.15,1.39-.04.44.11.81.58,1.23.65.47.09.96-.25,1.36-.25.44,0,.86.02,1.31-.05.43-.07.9.01,1.34-.1.42-.1.79-.48,1.23-.58.42-.1.88-.14,1.33-.22.43-.08.89-.09,1.35-.12.43-.03.88.13,1.34.15.46.02.92.19,1.39.21s.93-.12,1.4-.1c.46.01.93.17,1.39.18.46,0,.93-.21,1.39-.21.46,0,.93.11,1.39.11.46,0,.93-.24,1.39-.23.46,0,.93.19,1.39.19.46,0,.93-.04,1.39-.04.46,0,.92.1,1.39.12.46,0,.93.01,1.39.03.38.01.95.13,1.55.09.5-.04,1.02-.5,1.52-.49.56.02,1.01.46,1.42.64.48.21,1.1.38,1.14.98.02.35-.4.93-.63,1.18"/><path d="M100.83,84.61c.49-.04,1,0,1.46.03.49.03.97.12,1.44.19.47.07.88.51,1.35.6.47.09.95.08,1.43.17.46.08.94.15,1.43.2.46.05.94-.07,1.44-.07.46,0,.94.05,1.43,0,.52-.06,1-.2,1.46-.24.52-.06,1.02.07,1.5.03.51-.04.99-.05,1.47-.08.49-.03.97-.17,1.47-.19.48-.01.97.12,1.48.12.47,0,.96-.33,1.48-.32.47,0,.95.41,1.47.43.45.01.92.04,1.39.04.46,0,.91-.38,1.38-.4.46-.01.93-.12,1.39-.13.47,0,.94.34,1.38.35.48.01.94-.08,1.38-.04.51.05,1.09.18,1.63.37.57.2,1.01.51,1.3.93.28.4.35.83.12,1.51-.14.41-.4.67-.89.74-.37.06-.81-.13-1.26-.17-.42-.04-.84-.19-1.26-.24-.48-.06-.95.25-1.29.27-.58.04-1.11-.05-1.59-.03-.57.02-1.08.29-1.58.29-.53,0-1.05-.33-1.58-.34-.5,0-1.02.16-1.58.14-.48-.02-1-.03-1.58-.06-.47-.02-.94.02-1.41.03-.47.01-.96-.22-1.43-.18-.47.04-.94.17-1.4.23-.47.06-.91.38-1.37.44-.47.06-.97-.15-1.44-.09-.47.06-.94.08-1.41.12-.47.04-.94.02-1.41.03-.47,0-.92-.15-1.39-.18-.52-.04-.99-.08-1.48-.2-.5-.12-1.06.1-1.56-.03-.48-.12-.91-.59-1.43-.66-.48-.06-1,.3-1.54.33-.44.03-.92-.06-1.39.07-.45.13-.97.09-1.4.21-.49.14-.9.24-1.31.25-.44.02-.99.17-1.55.05-.53-.11-1.06-.45-1.52-.47-.51-.02-1.03.16-1.54.21-.51.06-1.02.13-1.52.18-.52.05-1.03.14-1.52.08-.71-.09-1.14-.5-1.9-.51-.4,0-.8.19-1.24.28-.42.08-.92-.18-1.34-.07-.43.11-.76.57-1.16.66-.46.11-.93-.02-1.3,0-.45,0-.93-.11-1.44-.24-.47-.12-.96-.24-1.43-.38-.5-.14-1-.21-1.45-.26-.44-.04-.93.06-1.44.05-.47,0-.95-.02-1.44-.01-.48,0-.97-.05-1.44-.03-.5.01-.99-.07-1.44-.07-.61,0-1.01.4-1.43.43-.38.03-.91-.08-1.45-.57-.48-.43-.52-1.03-.49-1.44.04-.47.43-.75.89-1.06.39-.26.79-.47,1.32-.53.4-.05.91.05,1.48.03.47-.02.96-.46,1.48-.47.49,0,1,.38,1.49.38.52,0,1.03-.39,1.5-.37.57.02,1.07.21,1.48.24.51.05,1.05.43,1.63.59.59.16,1.22.34,1.73.33.39,0,.8-.42,1.28-.53.42-.09.9,0,1.35-.1.44-.11.85-.36,1.28-.44.46-.08.93.14,1.35.14.42,0,.78.02,1.17.14.39.12.8.35,1.21.38.48.04.97-.26,1.46-.31.47-.05.96-.01,1.45-.06.47-.05.95-.12,1.44-.09.44.02,1-.1,1.48.01.51.12.94.32,1.36.31.38-.01.89.19,1.37.06.42-.12.77-.57,1.21-.68.45-.12.92-.3,1.34-.33"/><path d="M100.83,84.61c.49-.04,1,0,1.46.03.49.03.97.12,1.44.19.47.07.88.51,1.35.6.47.09.95.08,1.43.17.46.08.94.15,1.43.2.46.05.94-.07,1.44-.07.46,0,.94.05,1.43,0,.52-.06,1-.2,1.46-.24.52-.06,1.02.07,1.5.03.51-.04.99-.05,1.47-.08.49-.03.97-.17,1.47-.19.48-.01.97.12,1.48.12.47,0,.96-.33,1.48-.32.47,0,.95.41,1.47.43.45.01.92.04,1.39.04.46,0,.91-.38,1.38-.4.46-.01.93-.12,1.39-.13.47,0,.94.34,1.38.35.48.01.94-.08,1.38-.04.51.05,1.09.18,1.63.37.57.2,1.01.51,1.3.93.28.4.35.83.12,1.51-.14.41-.4.67-.89.74-.37.06-.81-.13-1.26-.17-.42-.04-.84-.19-1.26-.24-.48-.06-.95.25-1.29.27-.58.04-1.11-.05-1.59-.03-.57.02-1.08.29-1.58.29-.53,0-1.05-.33-1.58-.34-.5,0-1.02.16-1.58.14-.48-.02-1-.03-1.58-.06-.47-.02-.94.02-1.41.03-.47.01-.96-.22-1.43-.18-.47.04-.94.17-1.4.23-.47.06-.91.38-1.37.44-.47.06-.97-.15-1.44-.09-.47.06-.94.08-1.41.12-.47.04-.94.02-1.41.03-.47,0-.92-.15-1.39-.18-.52-.04-.99-.08-1.48-.2-.5-.12-1.06.1-1.56-.03-.48-.12-.91-.59-1.43-.66-.48-.06-1,.3-1.54.33-.44.03-.92-.06-1.39.07-.45.13-.97.09-1.4.21-.49.14-.9.24-1.31.25-.44.02-.99.17-1.55.05-.53-.11-1.06-.45-1.52-.47-.51-.02-1.03.16-1.54.21-.51.06-1.02.13-1.52.18-.52.05-1.03.14-1.52.08-.71-.09-1.14-.5-1.9-.51-.4,0-.8.19-1.24.28-.42.08-.92-.18-1.34-.07-.43.11-.76.57-1.16.66-.46.11-.93-.02-1.3,0-.45,0-.93-.11-1.44-.24-.47-.12-.96-.24-1.43-.38-.5-.14-1-.21-1.45-.26-.44-.04-.93.06-1.44.05-.47,0-.95-.02-1.44-.01-.48,0-.97-.05-1.44-.03-.5.01-.99-.07-1.44-.07-.61,0-1.01.4-1.43.43-.38.03-.91-.08-1.45-.57-.48-.43-.52-1.03-.49-1.44.04-.47.43-.75.89-1.06.39-.26.79-.47,1.32-.53.4-.05.91.05,1.48.03.47-.02.96-.46,1.48-.47.49,0,1,.38,1.49.38.52,0,1.03-.39,1.5-.37.57.02,1.07.21,1.48.24.51.05,1.05.43,1.63.59.59.16,1.22.34,1.73.33.39,0,.8-.42,1.28-.53.42-.09.9,0,1.35-.1.44-.11.85-.36,1.28-.44.46-.08.93.14,1.35.14.42,0,.78.02,1.17.14.39.12.8.35,1.21.38.48.04.97-.26,1.46-.31.47-.05.96-.01,1.45-.06.47-.05.95-.12,1.44-.09.44.02,1-.1,1.48.01.51.12.94.32,1.36.31.38-.01.89.19,1.37.06.42-.12.77-.57,1.21-.68.45-.12.92-.3,1.34-.33"/><path d="M131.21,101.67c.24.26.2.75.16,1.29-.04.54.01,1.12-.43,1.25-.48.14-1.14.06-1.79.02-.62-.04-1.26-.18-1.78-.1-.56.09-.95.65-1.48.8-.53.15-1.01.38-1.44.39-.51.02-.98-.32-1.44-.4-.46-.09-.88-.39-1.37-.49-.43-.09-.94-.08-1.46-.12-.47-.03-.94-.06-1.37-.03-.46.02-.87.4-1.31.47-.45.07-.97-.24-1.41-.14-.44.1-.83.39-1.27.5-.44.1-.88.17-1.32.25-.43.08-.86.22-1.32.25-.43.03-.87-.09-1.34-.12-.49-.03-.98.03-1.47,0-.49-.04-.96-.27-1.45-.31-.48-.04-1,.18-1.48.13-.49-.05-.98-.03-1.47-.08-.49-.05-.96-.25-1.45-.3-.49-.05-.96-.24-1.45-.29-.49-.05-.99.03-1.48-.02-.49-.05-.97-.25-1.45-.29-.49-.04-1.01.4-1.5.37-.47-.03-.91-.53-1.38-.56-.47-.02-.94-.03-1.41-.05-.47-.02-.96.38-1.43.37-.47-.01-.93-.4-1.4-.41-.47-.01-.95.35-1.42.34-.47-.01-.93-.35-1.4-.36-.47-.01-.94.16-1.42.14-.47-.02-.94-.05-1.41-.08-.47-.02-.93-.16-1.4-.19-.49-.03-1,.15-1.51.15-.5,0-.99.07-1.5.08-.5.01-.99.06-1.5.09-.5.03-1.02-.27-1.52-.24-.5.03-.98.39-1.48.42-.5.03-1.01-.01-1.51.02-.5.03-1.01.03-1.5.05-.51.02-1.01-.16-1.51-.15-.51,0-1-.14-1.5-.15-.51-.01-1.01.11-1.5.07-.63-.05-1.02-.29-1.34-.61-.41-.41-.5-.85-.45-1.33.06-.54.2-1.18.76-1.29.5-.03,1.03.19,1.53.15.5-.04.99-.28,1.49-.32.5-.04,1-.15,1.5-.19.51-.04,1.04.36,1.54.33.5-.03.99-.45,1.49-.47.51-.02,1.01.06,1.52.05.48,0,.96-.18,1.44-.18.48,0,.95.42,1.43.44.48.02.98-.36,1.46-.33s.95.18,1.43.21c.48.03.96.04,1.44.07.48.03.96.04,1.44.06s.96.07,1.43.08c.48.01.96.21,1.44.2.48,0,.97.08,1.45.06.48-.02.95-.24,1.43-.28.55-.05,1,.13,1.39.12.54-.01.97-.31,1.39-.28.43.04.87-.07,1.39-.01.39.04.79.54,1.34.58.44.04.91-.31,1.36-.3.44.02.88.29,1.33.3.45,0,.9-.08,1.35-.08.45,0,.91-.22,1.35-.2.45.02.9.15,1.34.19.42.04.83.44,1.31.51.43.07.96-.32,1.41-.24.44.08.86.33,1.31.4.45.07.88.36,1.32.42.47.06.95-.14,1.38-.12.49.02.93.06,1.35,0,.49-.06,1.01-.08,1.49-.24.47-.16.86-.59,1.35-.74.47-.14,1-.23,1.51-.27.49-.04,1,.01,1.47.04.49.03.96.21,1.44.28.49.07.96.22,1.43.31.49.09.98.12,1.44.18.5.07.99-.02,1.44-.04.31-.01.81-.03,1.27-.24.42-.19.82-.43,1.18-.49.38-.06.93.08,1.55.1.52.02,1.1-.27,1.6-.17.61.13,1.06.5,1.34.79"/><path d="M131.21,101.67c.24.26.2.75.16,1.29-.04.54.01,1.12-.43,1.25-.48.14-1.14.06-1.79.02-.62-.04-1.26-.18-1.78-.1-.56.09-.95.65-1.48.8-.53.15-1.01.38-1.44.39-.51.02-.98-.32-1.44-.4-.46-.09-.88-.39-1.37-.49-.43-.09-.94-.08-1.46-.12-.47-.03-.94-.06-1.37-.03-.46.02-.87.4-1.31.47-.45.07-.97-.24-1.41-.14-.44.1-.83.39-1.27.5-.44.1-.88.17-1.32.25-.43.08-.86.22-1.32.25-.43.03-.87-.09-1.34-.12-.49-.03-.98.03-1.47,0-.49-.04-.96-.27-1.45-.31-.48-.04-1,.18-1.48.13-.49-.05-.98-.03-1.47-.08-.49-.05-.96-.25-1.45-.3-.49-.05-.96-.24-1.45-.29-.49-.05-.99.03-1.48-.02-.49-.05-.97-.25-1.45-.29-.49-.04-1.01.4-1.5.37-.47-.03-.91-.53-1.38-.56-.47-.02-.94-.03-1.41-.05-.47-.02-.96.38-1.43.37-.47-.01-.93-.4-1.4-.41-.47-.01-.95.35-1.42.34-.47-.01-.93-.35-1.4-.36-.47-.01-.94.16-1.42.14-.47-.02-.94-.05-1.41-.08-.47-.02-.93-.16-1.4-.19-.49-.03-1,.15-1.51.15-.5,0-.99.07-1.5.08-.5.01-.99.06-1.5.09-.5.03-1.02-.27-1.52-.24-.5.03-.98.39-1.48.42-.5.03-1.01-.01-1.51.02-.5.03-1.01.03-1.5.05-.51.02-1.01-.16-1.51-.15-.51,0-1-.14-1.5-.15-.51-.01-1.01.11-1.5.07-.63-.05-1.02-.29-1.34-.61-.41-.41-.5-.85-.45-1.33.06-.54.2-1.18.76-1.29.5-.03,1.03.19,1.53.15.5-.04.99-.28,1.49-.32.5-.04,1-.15,1.5-.19.51-.04,1.04.36,1.54.33.5-.03.99-.45,1.49-.47.51-.02,1.01.06,1.52.05.48,0,.96-.18,1.44-.18.48,0,.95.42,1.43.44.48.02.98-.36,1.46-.33s.95.18,1.43.21c.48.03.96.04,1.44.07.48.03.96.04,1.44.06s.96.07,1.43.08c.48.01.96.21,1.44.2.48,0,.97.08,1.45.06.48-.02.95-.24,1.43-.28.55-.05,1,.13,1.39.12.54-.01.97-.31,1.39-.28.43.04.87-.07,1.39-.01.39.04.79.54,1.34.58.44.04.91-.31,1.36-.3.44.02.88.29,1.33.3.45,0,.9-.08,1.35-.08.45,0,.91-.22,1.35-.2.45.02.9.15,1.34.19.42.04.83.44,1.31.51.43.07.96-.32,1.41-.24.44.08.86.33,1.31.4.45.07.88.36,1.32.42.47.06.95-.14,1.38-.12.49.02.93.06,1.35,0,.49-.06,1.01-.08,1.49-.24.47-.16.86-.59,1.35-.74.47-.14,1-.23,1.51-.27.49-.04,1,.01,1.47.04.49.03.96.21,1.44.28.49.07.96.22,1.43.31.49.09.98.12,1.44.18.5.07.99-.02,1.44-.04.31-.01.81-.03,1.27-.24.42-.19.82-.43,1.18-.49.38-.06.93.08,1.55.1.52.02,1.1-.27,1.6-.17.61.13,1.06.5,1.34.79"/><path d="M70.18,115.98c.47-.05,1-.18,1.58-.18.51,0,1.05.12,1.6.15.54.02,1.08.07,1.6.1.57.03,1.13-.33,1.62-.32.5.01.99.44,1.5.46.5.02,1,.03,1.5.05.5.02,1.01-.26,1.52-.23.5.02,1.01-.03,1.51,0,.5.02.99.38,1.49.4.5.02,1.01,0,1.51.02.5.02,1.01.07,1.51.08.51.02,1.01.07,1.51.08.5.01,1.01-.25,1.52-.25.5,0,1.01.1,1.51.1.43,0,.93.19,1.42.11.45-.07.88-.37,1.34-.46.46-.09.9-.31,1.35-.38.48-.07.96,0,1.4,0,.49,0,1.05.05,1.61.16.53.1,1.06.28,1.58.39.58.12,1.13.21,1.6.21.39,0,.85.12,1.3.05.41-.07.79-.39,1.21-.48.42-.09.81-.37,1.22-.44.44-.08.91.23,1.3.23.42,0,.9-.33,1.34-.27.43.06.88.14,1.31.23.43.09.85.27,1.27.36.44.1.84.3,1.26.37.45.07.88.24,1.29.24.54,0,1.09-.31,1.66-.42.57-.12,1.15-.34,1.68-.38.48-.03.97.22,1.46.24.48.01.97-.15,1.46-.11.48.04.95.23,1.42.28.48.05.94.3,1.41.34.48.05.97.06,1.44.09.37.02.92-.05,1.56-.07.48-.01,1.01.05,1.55.05.52,0,1.05-.14,1.56-.12.56.03,1.07.18,1.52.27.64.13,1.23.2,1.45.52.36.54.31,1.16.11,1.63-.2.48-.59.96-1.25,1.05-.44.06-.91-.1-1.37-.08-.45.02-.9-.08-1.36-.09-.45,0-.92.35-1.38.32-.45-.03-.9-.24-1.35-.27-.45-.04-.92.08-1.37.04-.46-.04-.89-.28-1.34-.32-.46-.04-.9-.18-1.35-.22-.46-.04-.92.04-1.37.02-.46-.02-.92-.14-1.36-.13-.45,0-.97-.02-1.47.06-.47.07-.95.19-1.43.26-.49.07-.95.44-1.42.45-.42,0-.89.01-1.33-.05-.43-.06-.79-.54-1.22-.63-.43-.09-.88-.05-1.31-.14-.43-.09-.91.12-1.33.05-.44-.07-.84-.51-1.26-.51-.45,0-.87.45-1.33.52-.45.07-.92-.02-1.37.06-.46.08-.91.27-1.36.29-.54.03-1.07-.2-1.58-.24-.54-.04-1.08.07-1.59,0-.52-.08-1.02-.28-1.53-.34-.51-.06-1.03-.35-1.56-.33-.51.01-1.01.52-1.56.62-.53.1-1.1.03-1.62.12-.55.1-1.1.11-1.6.13-.4.02-.84,0-1.31-.01-.42-.02-.88.17-1.33.14-.44-.03-.85-.42-1.29-.44-.45-.03-.9.06-1.33.06-.48,0-.96.16-1.44.15-.49,0-.96-.18-1.44-.19-.48-.01-.96-.06-1.44-.08-.48-.02-.97.14-1.45.11-.48-.02-.96,0-1.44-.03-.48-.03-.95-.1-1.43-.13-.48-.03-.96.02-1.44-.01-.48-.03-.96-.06-1.45-.09-.34-.02-.82.04-1.4.06-.43.02-.92-.11-1.42-.1-.47.01-.95.11-1.43.09-.49-.02-.97-.14-1.42-.21-.52-.08-1.08-.08-1.44-.28-.45-.25-.69-.78-.72-1.28-.04-.73.32-1.13.79-1.37.46-.23,1.08-.09,1.63-.14"/><path d="M70.18,115.98c.47-.05,1-.18,1.58-.18.51,0,1.05.12,1.6.15.54.02,1.08.07,1.6.1.57.03,1.13-.33,1.62-.32.5.01.99.44,1.5.46.5.02,1,.03,1.5.05.5.02,1.01-.26,1.52-.23.5.02,1.01-.03,1.51,0,.5.02.99.38,1.49.4.5.02,1.01,0,1.51.02.5.02,1.01.07,1.51.08.51.02,1.01.07,1.51.08.5.01,1.01-.25,1.52-.25.5,0,1.01.1,1.51.1.43,0,.93.19,1.42.11.45-.07.88-.37,1.34-.46.46-.09.9-.31,1.35-.38.48-.07.96,0,1.4,0,.49,0,1.05.05,1.61.16.53.1,1.06.28,1.58.39.58.12,1.13.21,1.6.21.39,0,.85.12,1.3.05.41-.07.79-.39,1.21-.48.42-.09.81-.37,1.22-.44.44-.08.91.23,1.3.23.42,0,.9-.33,1.34-.27.43.06.88.14,1.31.23.43.09.85.27,1.27.36.44.1.84.3,1.26.37.45.07.88.24,1.29.24.54,0,1.09-.31,1.66-.42.57-.12,1.15-.34,1.68-.38.48-.03.97.22,1.46.24.48.01.97-.15,1.46-.11.48.04.95.23,1.42.28.48.05.94.3,1.41.34.48.05.97.06,1.44.09.37.02.92-.05,1.56-.07.48-.01,1.01.05,1.55.05.52,0,1.05-.14,1.56-.12.56.03,1.07.18,1.52.27.64.13,1.23.2,1.45.52.36.54.31,1.16.11,1.63-.2.48-.59.96-1.25,1.05-.44.06-.91-.1-1.37-.08-.45.02-.9-.08-1.36-.09-.45,0-.92.35-1.38.32-.45-.03-.9-.24-1.35-.27-.45-.04-.92.08-1.37.04-.46-.04-.89-.28-1.34-.32-.46-.04-.9-.18-1.35-.22-.46-.04-.92.04-1.37.02-.46-.02-.92-.14-1.36-.13-.45,0-.97-.02-1.47.06-.47.07-.95.19-1.43.26-.49.07-.95.44-1.42.45-.42,0-.89.01-1.33-.05-.43-.06-.79-.54-1.22-.63-.43-.09-.88-.05-1.31-.14-.43-.09-.91.12-1.33.05-.44-.07-.84-.51-1.26-.51-.45,0-.87.45-1.33.52-.45.07-.92-.02-1.37.06-.46.08-.91.27-1.36.29-.54.03-1.07-.2-1.58-.24-.54-.04-1.08.07-1.59,0-.52-.08-1.02-.28-1.53-.34-.51-.06-1.03-.35-1.56-.33-.51.01-1.01.52-1.56.62-.53.1-1.1.03-1.62.12-.55.1-1.1.11-1.6.13-.4.02-.84,0-1.31-.01-.42-.02-.88.17-1.33.14-.44-.03-.85-.42-1.29-.44-.45-.03-.9.06-1.33.06-.48,0-.96.16-1.44.15-.49,0-.96-.18-1.44-.19-.48-.01-.96-.06-1.44-.08-.48-.02-.97.14-1.45.11-.48-.02-.96,0-1.44-.03-.48-.03-.95-.1-1.43-.13-.48-.03-.96.02-1.44-.01-.48-.03-.96-.06-1.45-.09-.34-.02-.82.04-1.4.06-.43.02-.92-.11-1.42-.1-.47.01-.95.11-1.43.09-.49-.02-.97-.14-1.42-.21-.52-.08-1.08-.08-1.44-.28-.45-.25-.69-.78-.72-1.28-.04-.73.32-1.13.79-1.37.46-.23,1.08-.09,1.63-.14"/><path d="M73.99,66.16c.52-.02,1.04.05,1.54.05.52,0,1.01.41,1.52.43.51.02,1.02,0,1.53.04.51.03,1.02.05,1.53.08.51.04,1.02.06,1.53.09.51.03,1.03-.19,1.54-.17.51.02,1.01.13,1.53.12.39,0,.79-.28,1.25-.36.42-.07.86-.1,1.28-.17.46-.08.92.07,1.3.07.46,0,1.03-.15,1.58,0,.48.12.94.48,1.43.64.51.16,1.05.18,1.52.31.57.16,1.05.45,1.46.45.32,0,.74-.42,1.34-.7.43-.2,1.06-.03,1.56-.21.48-.17.9-.69,1.4-.71.55-.02.92.41,1.26.49.49.11.94,0,1.3.19.34.18.59.69,1.09.82.1.03.71-.25,1.48-.23.42.01.9.29,1.41.3.46,0,.94-.28,1.43-.28.48,0,.96-.03,1.42-.02.52,0,1-.01,1.42-.01.72,0,1.23-.06,1.4-.08.67-.08,1.11-.45,1.9-.53.47-.05.97.44,1.46.47.48.03.96-.04,1.44.03.48.07.99-.04,1.46.03.49.07.97.05,1.44.08.5.04.96.08,1.42.03.45-.05.75-.29,1.12-.45.37-.16.82-.17,1.23-.3.36-.11.77-.19,1.25-.18.39.01.82-.06,1.17.04.36.11.67.19,1.04.23.43.05.88.18,1.37.17.48,0,.97.08,1.39.15.51.08.97.24,1.22.63.19.3.03.74-.04,1.35-.06.56-.08,1.02-.49,1.24-.37.2-.9-.03-1.43-.01-.45.01-.91.08-1.4.03-.49-.05-.99.03-1.43-.03-.57-.08-1.08-.3-1.42-.28-.49.04-.99.21-1.4.44-.4.22-.69.76-1.2.83-.5.06-1.04-.12-1.58-.15-.51-.03-1.03-.14-1.55-.21-.52-.07-1.03-.2-1.54-.26-.53-.07-1.07.23-1.57.22-.46,0-.93-.42-1.4-.4-.46.03-.9.37-1.37.42-.46.04-.95-.2-1.41-.15-.46.05-.9.39-1.36.42-.47.03-.94-.14-1.4-.13-.35,0-.78.33-1.25.34-.4.01-.84-.24-1.27-.24-.43,0-.86-.1-1.26-.1-.48,0-.9-.01-1.24-.05-.43-.05-.77-.22-1.16-.39-.4-.18-.78-.37-1.15-.54-.4-.18-.88-.2-1.3-.2-.54,0-1.14.02-1.64.24-.49.22-.85.73-1.34.95-.5.22-1.03.47-1.57.46-.42,0-.93-.06-1.43-.19-.44-.11-.82-.54-1.29-.68-.45-.13-.96-.09-1.42-.19-.48-.12-.93-.26-1.38-.3-.44-.03-.89-.13-1.33-.11-.44.02-.9-.07-1.34-.03-.44.04-.86.27-1.3.31-.44.03-.88.24-1.32.24-.47,0-.96-.32-1.48-.37-.49-.04-1,0-1.5-.06s-1.01-.08-1.49-.13c-.52-.05-1.03.15-1.5.14-.35,0-.8.04-1.33.07-.41.02-.88-.08-1.35-.04-.43.03-.91-.25-1.37-.22-.45.02-.9.17-1.34.18-.47.01-.92-.04-1.35-.05-.49-.01-.96.14-1.36.08-.56-.08-.91-.36-1.18-.56-.41-.31-.96-.65-1.01-1.15-.05-.49.37-.99.73-1.36.18-.19.67-.16,1.33-.25.43-.06.89-.29,1.39-.32.49-.03.97-.29,1.41-.3.6-.02,1.11-.02,1.42-.03"/><path d="M131.65,131.85c-.16.17-.92.42-1.19.46-.54.07-1.06.28-1.59.29-.55.01-1.08-.18-1.61-.21-.54-.02-1.09.18-1.62.16-.55-.02-1.09-.27-1.62-.25-.51.02-1,.43-1.53.49-.51.05-1.06-.21-1.58-.15-.52.06-1.03.21-1.54.25-.53.04-1.05,0-1.56,0-.46,0-.92-.12-1.39-.14-.46-.03-.94.2-1.41.16-.47-.03-.91-.31-1.38-.34-.47-.03-.94.37-1.4.36-.47,0-.93-.21-1.39-.17-.42.03-.89-.08-1.32.02-.42.1-.82.33-1.23.46-.42.13-.79.44-1.19.54-.45.11-.9.08-1.3.09-.48.01-.96-.06-1.45-.13-.48-.06-1,.05-1.48-.06-.48-.1-.87-.59-1.34-.7-.48-.11-1-.07-1.47-.16-.5-.09-.99-.22-1.45-.23-.46-.02-.89.31-1.34.39-.45.08-.95-.15-1.4-.08-.45.08-.87.2-1.33.19-.49,0-.95-.19-1.47-.28-.49-.09-.99-.16-1.49-.27-.5-.11-1-.24-1.49-.33-.52-.1-1.07,0-1.54-.01-.37-.02-.77.16-1.18.2-.39.04-.83-.24-1.23-.2-.41.05-.8.4-1.17.4-.47,0-.94-.28-1.4-.29-.47-.01-.96.36-1.42.34-.47-.02-.91-.48-1.38-.51-.47-.03-.94-.01-1.4-.04-.47-.03-.95.14-1.41.11-.47-.03-.92-.31-1.39-.33-.47-.03-.94-.02-1.41-.03-.39-.01-.9.05-1.45.09-.46.03-.95-.03-1.43-.01-.5.02-.99.21-1.43.16-.57-.06-1.13-.09-1.42-.35-.47-.42-.69-1.13-.62-1.69.07-.57.51-1.04,1.17-1.25.41.02.86-.06,1.32-.11.44-.05.9,0,1.33-.05.47-.06.91-.4,1.31-.4.48,0,1.06,0,1.63.07.52.07,1.04.34,1.56.41.57.07,1.11.18,1.59.19.49,0,.99-.11,1.51-.12.5,0,1,.17,1.51.15.5-.01,1-.26,1.5-.27.5-.01,1.01.31,1.52.3.51-.01,1.01-.05,1.51-.05.51,0,1.01,0,1.5.01.51.02,1,.11,1.49.15.42.04.87-.11,1.31,0,.42.1.8.4,1.22.49.43.09.9-.19,1.32-.16.43.02.86.33,1.29.31.43-.02.84-.36,1.27-.4.43-.04.87.08,1.31.05.43-.03.86-.19,1.29-.2.43,0,.85.39,1.28.43.41.04.84.06,1.31.17.43.09.95-.15,1.39-.04.44.11.81.58,1.23.65.47.09.96-.25,1.36-.25.44,0,.86.02,1.31-.05.43-.07.9.01,1.34-.1.42-.1.79-.48,1.23-.58.42-.1.88-.14,1.33-.22.43-.08.89-.09,1.35-.12.43-.03.88.13,1.34.15.46.02.92.19,1.39.21s.93-.12,1.4-.1c.46.01.93.17,1.39.18.46,0,.93-.21,1.39-.21.46,0,.93.11,1.39.11.46,0,.93-.24,1.39-.23.46,0,.93.19,1.39.19.46,0,.93-.04,1.39-.04.46,0,.92.1,1.39.12.46,0,.93.01,1.39.03.38.01.95.13,1.55.09.5-.04,1.02-.5,1.52-.49.56.02,1.01.46,1.42.64.48.21,1.1.38,1.14.98.02.35-.4.93-.63,1.18"/><path d="M100.83,84.61c.49-.04,1,0,1.46.03.49.03.97.12,1.44.19.47.07.88.51,1.35.6.47.09.95.08,1.43.17.46.08.94.15,1.43.2.46.05.94-.07,1.44-.07.46,0,.94.05,1.43,0,.52-.06,1-.2,1.46-.24.52-.06,1.02.07,1.5.03.51-.04.99-.05,1.47-.08.49-.03.97-.17,1.47-.19.48-.01.97.12,1.48.12.47,0,.96-.33,1.48-.32.47,0,.95.41,1.47.43.45.01.92.04,1.39.04.46,0,.91-.38,1.38-.4.46-.01.93-.12,1.39-.13.47,0,.94.34,1.38.35.48.01.94-.08,1.38-.04.51.05,1.09.18,1.63.37.57.2,1.01.51,1.3.93.28.4.35.83.12,1.51-.14.41-.4.67-.89.74-.37.06-.81-.13-1.26-.17-.42-.04-.84-.19-1.26-.24-.48-.06-.95.25-1.29.27-.58.04-1.11-.05-1.59-.03-.57.02-1.08.29-1.58.29-.53,0-1.05-.33-1.58-.34-.5,0-1.02.16-1.58.14-.48-.02-1-.03-1.58-.06-.47-.02-.94.02-1.41.03-.47.01-.96-.22-1.43-.18-.47.04-.94.17-1.4.23-.47.06-.91.38-1.37.44-.47.06-.97-.15-1.44-.09-.47.06-.94.08-1.41.12-.47.04-.94.02-1.41.03-.47,0-.92-.15-1.39-.18-.52-.04-.99-.08-1.48-.2-.5-.12-1.06.1-1.56-.03-.48-.12-.91-.59-1.43-.66-.48-.06-1,.3-1.54.33-.44.03-.92-.06-1.39.07-.45.13-.97.09-1.4.21-.49.14-.9.24-1.31.25-.44.02-.99.17-1.55.05-.53-.11-1.06-.45-1.52-.47-.51-.02-1.03.16-1.54.21-.51.06-1.02.13-1.52.18-.52.05-1.03.14-1.52.08-.71-.09-1.14-.5-1.9-.51-.4,0-.8.19-1.24.28-.42.08-.92-.18-1.34-.07-.43.11-.76.57-1.16.66-.46.11-.93-.02-1.3,0-.45,0-.93-.11-1.44-.24-.47-.12-.96-.24-1.43-.38-.5-.14-1-.21-1.45-.26-.44-.04-.93.06-1.44.05-.47,0-.95-.02-1.44-.01-.48,0-.97-.05-1.44-.03-.5.01-.99-.07-1.44-.07-.61,0-1.01.4-1.43.43-.38.03-.91-.08-1.45-.57-.48-.43-.52-1.03-.49-1.44.04-.47.43-.75.89-1.06.39-.26.79-.47,1.32-.53.4-.05.91.05,1.48.03.47-.02.96-.46,1.48-.47.49,0,1,.38,1.49.38.52,0,1.03-.39,1.5-.37.57.02,1.07.21,1.48.24.51.05,1.05.43,1.63.59.59.16,1.22.34,1.73.33.39,0,.8-.42,1.28-.53.42-.09.9,0,1.35-.1.44-.11.85-.36,1.28-.44.46-.08.93.14,1.35.14.42,0,.78.02,1.17.14.39.12.8.35,1.21.38.48.04.97-.26,1.46-.31.47-.05.96-.01,1.45-.06.47-.05.95-.12,1.44-.09.44.02,1-.1,1.48.01.51.12.94.32,1.36.31.38-.01.89.19,1.37.06.42-.12.77-.57,1.21-.68.45-.12.92-.3,1.34-.33"/><path d="M131.21,101.67c.24.26.2.75.16,1.29-.04.54.01,1.12-.43,1.25-.48.14-1.14.06-1.79.02-.62-.04-1.26-.18-1.78-.1-.56.09-.95.65-1.48.8-.53.15-1.01.38-1.44.39-.51.02-.98-.32-1.44-.4-.46-.09-.88-.39-1.37-.49-.43-.09-.94-.08-1.46-.12-.47-.03-.94-.06-1.37-.03-.46.02-.87.4-1.31.47-.45.07-.97-.24-1.41-.14-.44.1-.83.39-1.27.5-.44.1-.88.17-1.32.25-.43.08-.86.22-1.32.25-.43.03-.87-.09-1.34-.12-.49-.03-.98.03-1.47,0-.49-.04-.96-.27-1.45-.31-.48-.04-1,.18-1.48.13-.49-.05-.98-.03-1.47-.08-.49-.05-.96-.25-1.45-.3-.49-.05-.96-.24-1.45-.29-.49-.05-.99.03-1.48-.02-.49-.05-.97-.25-1.45-.29-.49-.04-1.01.4-1.5.37-.47-.03-.91-.53-1.38-.56-.47-.02-.94-.03-1.41-.05-.47-.02-.96.38-1.43.37-.47-.01-.93-.4-1.4-.41-.47-.01-.95.35-1.42.34-.47-.01-.93-.35-1.4-.36-.47-.01-.94.16-1.42.14-.47-.02-.94-.05-1.41-.08-.47-.02-.93-.16-1.4-.19-.49-.03-1,.15-1.51.15-.5,0-.99.07-1.5.08-.5.01-.99.06-1.5.09-.5.03-1.02-.27-1.52-.24-.5.03-.98.39-1.48.42-.5.03-1.01-.01-1.51.02-.5.03-1.01.03-1.5.05-.51.02-1.01-.16-1.51-.15-.51,0-1-.14-1.5-.15-.51-.01-1.01.11-1.5.07-.63-.05-1.02-.29-1.34-.61-.41-.41-.5-.85-.45-1.33.06-.54.2-1.18.76-1.29.5-.03,1.03.19,1.53.15.5-.04.99-.28,1.49-.32.5-.04,1-.15,1.5-.19.51-.04,1.04.36,1.54.33.5-.03.99-.45,1.49-.47.51-.02,1.01.06,1.52.05.48,0,.96-.18,1.44-.18.48,0,.95.42,1.43.44.48.02.98-.36,1.46-.33s.95.18,1.43.21c.48.03.96.04,1.44.07.48.03.96.04,1.44.06s.96.07,1.43.08c.48.01.96.21,1.44.2.48,0,.97.08,1.45.06.48-.02.95-.24,1.43-.28.55-.05,1,.13,1.39.12.54-.01.97-.31,1.39-.28.43.04.87-.07,1.39-.01.39.04.79.54,1.34.58.44.04.91-.31,1.36-.3.44.02.88.29,1.33.3.45,0,.9-.08,1.35-.08.45,0,.91-.22,1.35-.2.45.02.9.15,1.34.19.42.04.83.44,1.31.51.43.07.96-.32,1.41-.24.44.08.86.33,1.31.4.45.07.88.36,1.32.42.47.06.95-.14,1.38-.12.49.02.93.06,1.35,0,.49-.06,1.01-.08,1.49-.24.47-.16.86-.59,1.35-.74.47-.14,1-.23,1.51-.27.49-.04,1,.01,1.47.04.49.03.96.21,1.44.28.49.07.96.22,1.43.31.49.09.98.12,1.44.18.5.07.99-.02,1.44-.04.31-.01.81-.03,1.27-.24.42-.19.82-.43,1.18-.49.38-.06.93.08,1.55.1.52.02,1.1-.27,1.6-.17.61.13,1.06.5,1.34.79"/><path d="M70.18,115.98c.47-.05,1-.18,1.58-.18.51,0,1.05.12,1.6.15.54.02,1.08.07,1.6.1.57.03,1.13-.33,1.62-.32.5.01.99.44,1.5.46.5.02,1,.03,1.5.05.5.02,1.01-.26,1.52-.23.5.02,1.01-.03,1.51,0,.5.02.99.38,1.49.4.5.02,1.01,0,1.51.02.5.02,1.01.07,1.51.08.51.02,1.01.07,1.51.08.5.01,1.01-.25,1.52-.25.5,0,1.01.1,1.51.1.43,0,.93.19,1.42.11.45-.07.88-.37,1.34-.46.46-.09.9-.31,1.35-.38.48-.07.96,0,1.4,0,.49,0,1.05.05,1.61.16.53.1,1.06.28,1.58.39.58.12,1.13.21,1.6.21.39,0,.85.12,1.3.05.41-.07.79-.39,1.21-.48.42-.09.81-.37,1.22-.44.44-.08.91.23,1.3.23.42,0,.9-.33,1.34-.27.43.06.88.14,1.31.23.43.09.85.27,1.27.36.44.1.84.3,1.26.37.45.07.88.24,1.29.24.54,0,1.09-.31,1.66-.42.57-.12,1.15-.34,1.68-.38.48-.03.97.22,1.46.24.48.01.97-.15,1.46-.11.48.04.95.23,1.42.28.48.05.94.3,1.41.34.48.05.97.06,1.44.09.37.02.92-.05,1.56-.07.48-.01,1.01.05,1.55.05.52,0,1.05-.14,1.56-.12.56.03,1.07.18,1.52.27.64.13,1.23.2,1.45.52.36.54.31,1.16.11,1.63-.2.48-.59.96-1.25,1.05-.44.06-.91-.1-1.37-.08-.45.02-.9-.08-1.36-.09-.45,0-.92.35-1.38.32-.45-.03-.9-.24-1.35-.27-.45-.04-.92.08-1.37.04-.46-.04-.89-.28-1.34-.32-.46-.04-.9-.18-1.35-.22-.46-.04-.92.04-1.37.02-.46-.02-.92-.14-1.36-.13-.45,0-.97-.02-1.47.06-.47.07-.95.19-1.43.26-.49.07-.95.44-1.42.45-.42,0-.89.01-1.33-.05-.43-.06-.79-.54-1.22-.63-.43-.09-.88-.05-1.31-.14-.43-.09-.91.12-1.33.05-.44-.07-.84-.51-1.26-.51-.45,0-.87.45-1.33.52-.45.07-.92-.02-1.37.06-.46.08-.91.27-1.36.29-.54.03-1.07-.2-1.58-.24-.54-.04-1.08.07-1.59,0-.52-.08-1.02-.28-1.53-.34-.51-.06-1.03-.35-1.56-.33-.51.01-1.01.52-1.56.62-.53.1-1.1.03-1.62.12-.55.1-1.1.11-1.6.13-.4.02-.84,0-1.31-.01-.42-.02-.88.17-1.33.14-.44-.03-.85-.42-1.29-.44-.45-.03-.9.06-1.33.06-.48,0-.96.16-1.44.15-.49,0-.96-.18-1.44-.19-.48-.01-.96-.06-1.44-.08-.48-.02-.97.14-1.45.11-.48-.02-.96,0-1.44-.03-.48-.03-.95-.1-1.43-.13-.48-.03-.96.02-1.44-.01-.48-.03-.96-.06-1.45-.09-.34-.02-.82.04-1.4.06-.43.02-.92-.11-1.42-.1-.47.01-.95.11-1.43.09-.49-.02-.97-.14-1.42-.21-.52-.08-1.08-.08-1.44-.28-.45-.25-.69-.78-.72-1.28-.04-.73.32-1.13.79-1.37.46-.23,1.08-.09,1.63-.14"/></svg>