<?xml version="1.0" encoding="UTF-8"?><svg id="Layer_1" xmlns="http://www.w3.org/2000/svg" viewBox="0 0 200 200"><path d="M91.43,88.43c-.49-.06-.88-.24-1.34-.34-.48-.1-.98-.1-1.43-.24-.47-.15-.94-.28-1.37-.47-.45-.19-.79-.59-1.2-.82-.42-.24-.78-.55-1.16-.83-.39-.28-.71-.62-1.07-.94-.35-.32-.78-.56-1.1-.92-.32-.36-.84-.56-1.12-.95-.28-.38-.22-1-.47-1.41-.24-.41-.83-.63-1.05-1.07-.21-.43-.32-.92-.51-1.36-.18-.44,0-1.01-.16-1.47-.15-.45-.33-.88-.46-1.35-.12-.46-.46-.87-.56-1.34-.1-.45-.06-1.02-.12-1.6-.06-.54-.36-1.11-.3-1.61.07-.59.36-1.17.72-1.51.33-.31.87-.3,1.56-.21.39.18.61,0,.88.34.13.45.19,1.03.31,1.49.12.46.25.92.37,1.38.11.46-.02.99.1,1.45.12.46.27.92.4,1.38.13.46.34.9.5,1.34.16.45.44.85.63,1.28.19.44.45.83.68,1.24.24.42.54.76.83,1.13.28.38.42.87.76,1.21.34.32.75.57,1.15.84.38.26.81.42,1.26.63.42.19.74.68,1.22.82.46.14,1.03-.06,1.53,0,.5.07,1.02.03,1.5.1.52.08.96.42,1.39.61.46.2.74.53,1,.98.21.36.62.75.64,1.35.02.47-.08.97-.08,1.47,0,.48-.22.96-.24,1.46-.02.48.03.97,0,1.47-.03.48.24.99.2,1.49-.04.48-.04.98-.09,1.47-.05.49-.32.95-.38,1.44-.06.49,0,.99-.06,1.48-.06.49-.44.93-.51,1.42-.07.49-.06.99-.14,1.48-.08.49.07,1.02,0,1.5-.08.49-.17.98-.25,1.45-.09.49-.29.96-.38,1.43-.1.49-.02,1.01-.11,1.48-.1.5-.21.98-.31,1.44-.1.47-.5.88-.63,1.35-.13.46-.2.95-.35,1.42-.15.46-.44.87-.61,1.33-.16.45-.16.97-.35,1.43-.18.45-.39.89-.59,1.34-.19.44-.57.81-.78,1.25-.21.44-.17,1-.39,1.43-.22.43-.68.74-.91,1.18-.23.43-.45.86-.69,1.28-.24.42-.25.98-.5,1.4-.25.42-.58.79-.84,1.2-.26.42-.42.89-.68,1.3-.26.41-.63.76-.9,1.16-.27.41-.5.84-.77,1.24s-.53.82-.82,1.22c-.28.4-.55.81-.83,1.2-.29.4-.8.62-1.09,1.01-.3.39-.55.81-.85,1.19-.3.39-.49.86-.79,1.24-.31.38-.76.64-1.07,1.02-.31.38-.68.71-.99,1.07-.32.38-.35,1-.66,1.36-.33.37-.98.44-1.3.79-.33.37-.63.75-.96,1.1-.35.37-.56.84-.89,1.17-.36.35-.69.7-1.04,1.02-.37.34-.65.76-1.02,1.06-.38.32-.92.42-1.3.71-.39.3-.66.74-1.05,1.03-.39.29-.71.66-1.11.95-.39.28-.93.36-1.33.65-.38.28-.62.77-1.03,1.07-.38.28-.91.39-1.31.7-.39.3-.67.87-1.09,1.29-.41.41-1.01.57-1.45.83-.51.29-.88.45-1.44.19-.18-.09-.45-.41-.75-.78-.3-.38-.58-.65-.53-.88.06-.29.13-.79.56-1.21.28-.28.64-.59,1.02-.9.33-.27.84-.36,1.22-.64.35-.26.76-.47,1.13-.74.37-.26.77-.48,1.14-.73.39-.26.75-.53,1.11-.78.4-.27.54-.89.87-1.12.47-.32.86-.56,1.1-.75.36-.29.79-.51,1.17-.84.35-.31.63-.7.99-1.04.34-.32.87-.47,1.21-.81.33-.33.57-.78.91-1.13.33-.34.75-.61,1.08-.97.32-.35.61-.74.93-1.1.31-.36.59-.76.9-1.13.31-.36.73-.64,1.03-1.02.3-.37.52-.82.82-1.2.3-.38.68-.69.98-1.07.29-.38.68-.69.97-1.08.29-.38.49-.84.77-1.23.28-.39.29-.97.57-1.37.28-.4.53-.8.8-1.2.27-.4.88-.57,1.15-.98.27-.41.6-.77.85-1.18.26-.41.24-1,.49-1.4.25-.41.63-.75.87-1.16.25-.42.57-.79.81-1.21.24-.43.33-.93.56-1.35.23-.43.28-.95.49-1.37.22-.44.49-.84.69-1.26.21-.45.38-.89.57-1.33.2-.45.38-.89.55-1.32.18-.46.35-.9.5-1.34.14-.4.6-.75.73-1.23.12-.42-.11-.97.01-1.44.11-.43.62-.79.72-1.26.1-.44-.11-.96-.01-1.43.1-.45.5-.84.59-1.3.09-.45-.05-.95.04-1.41.08-.46.31-.89.39-1.35.08-.46-.21-.98-.14-1.44.07-.46.3-.9.37-1.35.07-.47.03-.94.09-1.4.06-.47.34-.91.39-1.36.05-.47-.06-.96-.02-1.41.04-.48.43-.92.46-1.37.03-.49-.15-.97-.13-1.41.02-.5-.18-.96-.18-1.39,0-.57-.1-1.1-.07-1.68"/><path d="M91.43,88.43c-.49-.06-.88-.24-1.34-.34-.48-.1-.98-.1-1.43-.24-.47-.15-.94-.28-1.37-.47-.45-.19-.79-.59-1.2-.82-.42-.24-.78-.55-1.16-.83-.39-.28-.71-.62-1.07-.94-.35-.32-.78-.56-1.1-.92-.32-.36-.84-.56-1.12-.95-.28-.38-.22-1-.47-1.41-.24-.41-.83-.63-1.05-1.07-.21-.43-.32-.92-.51-1.36-.18-.44,0-1.01-.16-1.47-.15-.45-.33-.88-.46-1.35-.12-.46-.46-.87-.56-1.34-.1-.45-.06-1.02-.12-1.6-.06-.54-.36-1.11-.3-1.61.07-.59.36-1.17.72-1.51.33-.31.87-.3,1.56-.21.39.18.61,0,.88.34.13.45.19,1.03.31,1.49.12.46.25.92.37,1.38.11.46-.02.99.1,1.45.12.46.27.92.4,1.38.13.46.34.9.5,1.34.16.45.44.85.63,1.28.19.44.45.83.68,1.24.24.42.54.76.83,1.13.28.38.42.87.76,1.21.34.32.75.57,1.15.84.38.26.81.42,1.26.63.42.19.74.68,1.22.82.46.14,1.03-.06,1.53,0,.5.07,1.02.03,1.5.1.52.08.96.42,1.39.61.46.2.74.53,1,.98.21.36.62.75.64,1.35.02.47-.08.97-.08,1.47,0,.48-.22.96-.24,1.46-.02.48.03.97,0,1.47-.03.48.24.99.2,1.49-.04.48-.04.98-.09,1.47-.05.49-.32.95-.38,1.44-.06.49,0,.99-.06,1.48-.06.49-.44.93-.51,1.42-.07.49-.06.99-.14,1.48-.08.49.07,1.02,0,1.5-.08.49-.17.98-.25,1.45-.09.49-.29.96-.38,1.43-.1.49-.02,1.01-.11,1.48-.1.5-.21.98-.31,1.44-.1.47-.5.88-.63,1.35-.13.46-.2.95-.35,1.42-.15.46-.44.87-.61,1.33-.16.45-.16.97-.35,1.43-.18.45-.39.89-.59,1.34-.19.44-.57.81-.78,1.25-.21.44-.17,1-.39,1.43-.22.43-.68.74-.91,1.18-.23.43-.45.86-.69,1.28-.24.42-.25.98-.5,1.4-.25.42-.58.79-.84,1.2-.26.42-.42.89-.68,1.3-.26.41-.63.76-.9,1.16-.27.41-.5.84-.77,1.24s-.53.82-.82,1.22c-.28.4-.55.81-.83,1.2-.29.4-.8.62-1.09,1.01-.3.39-.55.81-.85,1.19-.3.39-.49.86-.79,1.24-.31.38-.76.64-1.07,1.02-.31.38-.68.71-.99,1.07-.32.38-.35,1-.66,1.36-.33.37-.98.44-1.3.79-.33.37-.63.75-.96,1.1-.35.37-.56.84-.89,1.17-.36.35-.69.7-1.04,1.02-.37.34-.65.76-1.02,1.06-.38.32-.92.42-1.3.71-.39.3-.66.74-1.05,1.03-.39.29-.71.66-1.11.95-.39.28-.93.36-1.33.65-.38.28-.62.77-1.03,1.07-.38.28-.91.39-1.31.7-.39.3-.67.87-1.09,1.29-.41.41-1.01.57-1.45.83-.51.29-.88.45-1.44.19-.18-.09-.45-.41-.75-.78-.3-.38-.58-.65-.53-.88.06-.29.13-.79.56-1.21.28-.28.64-.59,1.02-.9.33-.27.84-.36,1.22-.64.35-.26.76-.47,1.13-.74.37-.26.77-.48,1.14-.73.39-.26.75-.53,1.11-.78.4-.27.54-.89.87-1.12.47-.32.86-.56,1.1-.75.36-.29.79-.51,1.17-.84.35-.31.63-.7.99-1.04.34-.32.87-.47,1.21-.81.33-.33.57-.78.91-1.13.33-.34.75-.61,1.08-.97.32-.35.61-.74.93-1.1.31-.36.59-.76.9-1.13.31-.36.73-.64,1.03-1.02.3-.37.52-.82.82-1.2.3-.38.68-.69.98-1.07.29-.38.68-.69.97-1.08.29-.38.49-.84.77-1.23.28-.39.29-.97.57-1.37.28-.4.53-.8.8-1.2.27-.4.88-.57,1.15-.98.27-.41.6-.77.85-1.18.26-.41.24-1,.49-1.4.25-.41.63-.75.87-1.16.25-.42.57-.79.81-1.21.24-.43.33-.93.56-1.35.23-.43.28-.95.49-1.37.22-.44.49-.84.69-1.26.21-.45.38-.89.57-1.33.2-.45.38-.89.55-1.32.18-.46.35-.9.5-1.34.14-.4.6-.75.73-1.23.12-.42-.11-.97.01-1.44.11-.43.62-.79.72-1.26.1-.44-.11-.96-.01-1.43.1-.45.5-.84.59-1.3.09-.45-.05-.95.04-1.41.08-.46.31-.89.39-1.35.08-.46-.21-.98-.14-1.44.07-.46.3-.9.37-1.35.07-.47.03-.94.09-1.4.06-.47.34-.91.39-1.36.05-.47-.06-.96-.02-1.41.04-.48.43-.92.46-1.37.03-.49-.15-.97-.13-1.41.02-.5-.18-.96-.18-1.39,0-.57-.1-1.1-.07-1.68"/><path d="M118.86,68.43c.33.27.51.78.55,1.29.03.41.12.93.03,1.4-.08.45-.21.93-.33,1.35-.15.5-.62.85-.74,1.18-.16.45-.41.85-.6,1.28-.19.44-.29.9-.52,1.32-.22.42-.27.95-.52,1.35-.26.4-.64.72-.93,1.1-.28.38-.55.78-.86,1.14-.31.36-.65.69-.99,1.03-.33.33-.85.47-1.21.78-.35.31-.63.71-1.01,1-.37.29-.78.53-1.17.81-.39.27-.82.46-1.22.71-.4.25-.8.5-1.21.73-.23.13-.6.41-1.09.62-.38.16-.72.51-1.09.68-.55.26-.82.41-.89.58.02.47.04.91.08,1.38.04.47-.1.95-.05,1.42.05.47-.01.95.05,1.42.07.47.18.93.26,1.39.08.46.39.89.48,1.35.09.46-.09.98,0,1.44s.13.94.23,1.4c.11.46.47.86.59,1.31.11.46.08.95.2,1.41.12.46.34.88.47,1.34.13.46.38.87.52,1.32.14.47-.1,1.05.04,1.52.15.47.6.83.75,1.29.16.46.38.9.55,1.35.17.46.12,1,.3,1.45.18.45.58.82.77,1.26.19.45.4.89.6,1.33.21.44.52.83.73,1.26.22.44.43.87.66,1.3.23.43.16,1.02.4,1.45.24.42.62.77.88,1.18.25.42.43.88.7,1.29.27.41.74.68,1.01,1.08.28.4.44.88.73,1.27.29.39.65.73.96,1.11.3.38.44.9.76,1.27.32.37.69.69,1.02,1.05.33.36.8.58,1.14.93.34.35.65.72,1,1.06.35.34.63.75.99,1.07.36.33.71.66,1.09.98.37.31.7.68,1.09.98.38.3.89.43,1.29.72.39.29.83.5,1.24.78.4.28.6.84,1.01,1.11.41.26,1,.24,1.42.49.41.25.67.78,1.09,1.02.42.24.92.35,1.35.58.43.23.78.61,1.22.83.44.21.99.18,1.44.39.44.2.86.46,1.31.65.34.14.81.15,1.28.28.4.11.74.53,1.16.67.43.14.94.03,1.31.22.42.21.59.65.86.96.28.32.54.57.54,1.05,0,.64-.1,1.15-.48,1.38-.37.22-.95.31-1.51.28-.46-.03-.95-.29-1.44-.41-.49-.12-.93-.42-1.37-.57-.56-.2-1.12-.21-1.45-.35-.45-.18-.91-.35-1.35-.54-.45-.2-.9-.36-1.34-.57-.44-.21-.84-.49-1.27-.71-.43-.22-.83-.51-1.25-.75-.43-.23-.98-.24-1.4-.49-.42-.25-.77-.6-1.18-.86-.41-.26-.88-.43-1.28-.7-.4-.27-.66-.76-1.05-1.04-.39-.28-.7-.68-1.08-.98-.38-.3-.95-.36-1.32-.67-.38-.31-.74-.63-1.1-.95-.37-.32-.76-.6-1.12-.93-.36-.33-.65-.73-.99-1.07-.35-.34-.73-.64-1.06-.99-.34-.35-.6-.77-.92-1.13-.33-.36-.48-.86-.8-1.23-.31-.37-.63-.73-.94-1.1-.3-.38-.9-.52-1.19-.91-.29-.38-.46-.87-.74-1.26-.28-.39-.6-.77-.87-1.17-.27-.4-.25-.99-.51-1.4-.26-.41-.7-.7-.95-1.11-.25-.41-.42-.87-.66-1.29-.24-.42-.62-.76-.85-1.19-.23-.43-.61-.78-.83-1.21-.22-.43-.1-1.03-.31-1.47-.21-.43-.45-.85-.65-1.29-.2-.44-.62-.79-.81-1.23-.19-.44-.33-.91-.51-1.36-.18-.45-.07-1.01-.24-1.46-.17-.45-.62-.8-.78-1.26-.16-.46-.33-.91-.48-1.37-.15-.46.04-1.03-.1-1.49-.14-.46-.63-.82-.76-1.29-.13-.46,0-1-.13-1.47-.12-.47-.28-.92-.4-1.39s-.21-.94-.32-1.41c-.11-.47-.43-.9-.53-1.37-.1-.47.11-1.01.02-1.48-.09-.48-.38-.91-.46-1.39-.08-.48-.04-.97-.11-1.45-.07-.48-.25-.94-.31-1.42-.06-.41-.24-.97-.31-1.59-.06-.53.09-1.11.08-1.62-.01-.64-.06-1.22.11-1.58.1-.21.53-.48,1.11-.8.36-.2.79-.4,1.25-.62.41-.2.74-.62,1.16-.81.45-.2,1.05-.04,1.44-.22.53-.24.97-.51,1.24-.67.4-.24.81-.5,1.21-.78.38-.27.77-.57,1.14-.87.37-.3.52-.84.86-1.17.35-.32.67-.65.99-1,.32-.35.73-.62,1.02-.99.29-.38.76-.63,1.02-1.03.26-.4.2-.99.42-1.4.22-.42.57-.78.74-1.22.12-.31.41-.78.57-1.38.12-.45,0-1.02.18-1.5.17-.49.64-.82.88-1.22.29-.49.45-1.03.88-1.14.39-.1.93,0,1.45.41"/><path d="M118.86,68.43c.33.27.51.78.55,1.29.03.41.12.93.03,1.4-.08.45-.21.93-.33,1.35-.15.5-.62.85-.74,1.18-.16.45-.41.85-.6,1.28-.19.44-.29.9-.52,1.32-.22.42-.27.95-.52,1.35-.26.4-.64.72-.93,1.1-.28.38-.55.78-.86,1.14-.31.36-.65.69-.99,1.03-.33.33-.85.47-1.21.78-.35.31-.63.71-1.01,1-.37.29-.78.53-1.17.81-.39.27-.82.46-1.22.71-.4.25-.8.5-1.21.73-.23.13-.6.41-1.09.62-.38.16-.72.51-1.09.68-.55.26-.82.41-.89.58.02.47.04.91.08,1.38.04.47-.1.95-.05,1.42.05.47-.01.95.05,1.42.07.47.18.93.26,1.39.08.46.39.89.48,1.35.09.46-.09.98,0,1.44s.13.94.23,1.4c.11.46.47.86.59,1.31.11.46.08.95.2,1.41.12.46.34.88.47,1.34.13.46.38.87.52,1.32.14.47-.1,1.05.04,1.52.15.47.6.83.75,1.29.16.46.38.9.55,1.35.17.46.12,1,.3,1.45.18.45.58.82.77,1.26.19.45.4.89.6,1.33.21.44.52.83.73,1.26.22.44.43.87.66,1.3.23.43.16,1.02.4,1.45.24.42.62.77.88,1.18.25.42.43.88.7,1.29.27.41.74.68,1.01,1.08.28.4.44.88.73,1.27.29.39.65.73.96,1.11.3.38.44.9.76,1.27.32.37.69.69,1.02,1.05.33.36.8.58,1.14.93.34.35.65.72,1,1.06.35.34.63.75.99,1.07.36.33.71.66,1.09.98.37.31.7.68,1.09.98.38.3.89.43,1.29.72.39.29.83.5,1.24.78.4.28.6.84,1.01,1.11.41.26,1,.24,1.42.49.41.25.67.78,1.09,1.02.42.24.92.35,1.35.58.43.23.78.61,1.22.83.44.21.99.18,1.44.39.44.2.86.46,1.31.65.34.14.81.15,1.28.28.4.11.74.53,1.16.67.43.14.94.03,1.31.22.42.21.59.65.86.96.28.32.54.57.54,1.05,0,.64-.1,1.15-.48,1.38-.37.22-.95.31-1.51.28-.46-.03-.95-.29-1.44-.41-.49-.12-.93-.42-1.37-.57-.56-.2-1.12-.21-1.45-.35-.45-.18-.91-.35-1.35-.54-.45-.2-.9-.36-1.34-.57-.44-.21-.84-.49-1.27-.71-.43-.22-.83-.51-1.25-.75-.43-.23-.98-.24-1.4-.49-.42-.25-.77-.6-1.18-.86-.41-.26-.88-.43-1.28-.7-.4-.27-.66-.76-1.05-1.04-.39-.28-.7-.68-1.08-.98-.38-.3-.95-.36-1.32-.67-.38-.31-.74-.63-1.1-.95-.37-.32-.76-.6-1.12-.93-.36-.33-.65-.73-.99-1.07-.35-.34-.73-.64-1.06-.99-.34-.35-.6-.77-.92-1.13-.33-.36-.48-.86-.8-1.23-.31-.37-.63-.73-.94-1.1-.3-.38-.9-.52-1.19-.91-.29-.38-.46-.87-.74-1.26-.28-.39-.6-.77-.87-1.17-.27-.4-.25-.99-.51-1.4-.26-.41-.7-.7-.95-1.11-.25-.41-.42-.87-.66-1.29-.24-.42-.62-.76-.85-1.19-.23-.43-.61-.78-.83-1.21-.22-.43-.1-1.03-.31-1.47-.21-.43-.45-.85-.65-1.29-.2-.44-.62-.79-.81-1.23-.19-.44-.33-.91-.51-1.36-.18-.45-.07-1.01-.24-1.46-.17-.45-.62-.8-.78-1.26-.16-.46-.33-.91-.48-1.37-.15-.46.04-1.03-.1-1.49-.14-.46-.63-.82-.76-1.29-.13-.46,0-1-.13-1.47-.12-.47-.28-.92-.4-1.39s-.21-.94-.32-1.41c-.11-.47-.43-.9-.53-1.37-.1-.47.11-1.01.02-1.48-.09-.48-.38-.91-.46-1.39-.08-.48-.04-.97-.11-1.45-.07-.48-.25-.94-.31-1.42-.06-.41-.24-.97-.31-1.59-.06-.53.09-1.11.08-1.62-.01-.64-.06-1.22.11-1.58.1-.21.53-.48,1.11-.8.36-.2.79-.4,1.25-.62.41-.2.74-.62,1.16-.81.45-.2,1.05-.04,1.44-.22.53-.24.97-.51,1.24-.67.4-.24.81-.5,1.21-.78.38-.27.77-.57,1.14-.87.37-.3.52-.84.86-1.17.35-.32.67-.65.99-1,.32-.35.73-.62,1.02-.99.29-.38.76-.63,1.02-1.03.26-.4.2-.99.42-1.4.22-.42.57-.78.74-1.22.12-.31.41-.78.57-1.38.12-.45,0-1.02.18-1.5.17-.49.64-.82.88-1.22.29-.49.45-1.03.88-1.14.39-.1.93,0,1.45.41"/><path d="M98.44,55.61c-.47.05-.9.24-1.35.34-.46.1-1-.11-1.43.03-.45.14-.88.37-1.29.56-.43.19-.9.32-1.3.55-.4.24-.71.65-1.08.92-.37.28-.57.75-.91,1.07-.34.32-.95.38-1.25.74-.3.36-.32.93-.57,1.32-.25.39-.66.69-.87,1.11-.2.41-.27.89-.43,1.33-.15.43-.24.89-.35,1.34-.11.45-.49.86-.55,1.32-.06.45.2.95.19,1.42-.01.46-.22.93-.19,1.4.03.4.15.86.24,1.35.08.42.36.83.48,1.29.11.43.33.83.48,1.27.14.43-.02.97.15,1.4.17.42.43.82.64,1.22.21.41.42.83.67,1.2.26.39.66.66.96.98.33.35.57.79.94,1.02.4.25.94.05,1.38.13.5.09.72-.16,1.27-.22.47-.05,1.02,0,1.58.1.51.08,1.03.03,1.55.02.48-.02,1,.23,1.5.14.47-.08.88-.52,1.37-.66.47-.13.91-.3,1.38-.48.46-.18,1.01-.13,1.46-.35.44-.22.82-.56,1.25-.82.43-.26.99-.31,1.39-.6.4-.29.73-.7,1.1-1.03.38-.33.75-.68,1.08-1.04.34-.37.57-.83.85-1.23.29-.42.65-.79.86-1.23.22-.45.41-.93.53-1.41.11-.45.18-.91.26-1.37.08-.45.3-.91.34-1.37.04-.46-.33-.94-.33-1.41,0-.46.3-.95.25-1.41-.05-.46-.38-.88-.48-1.33-.1-.45.03-.98-.13-1.42-.16-.43-.7-.7-.92-1.1-.22-.4-.14-1.02-.43-1.39-.31-.39-.78-.63-1.1-.95-.34-.36-.56-.85-.92-1.14-.38-.31-.86-.5-1.26-.73-.42-.24-.95-.21-1.4-.37-.44-.16-.85-.46-1.32-.55-.46-.09-.94-.03-1.43-.06-.46-.03-.92.16-1.42.18-.46.02-.94-.14-1.43-.09M100.36,51.68c.49-.01.99-.12,1.47-.08.49.04.92.44,1.4.54.48.1.95.16,1.41.31.46.15.87.41,1.31.61.44.2.95.26,1.37.51s.96.33,1.35.62c.39.29.51.91.87,1.24s.93.44,1.25.81c.32.36.47.87.75,1.27.28.4.65.74.89,1.16.24.42.5.85.69,1.29.19.45.07,1,.21,1.47.14.46.54.86.62,1.34.08.48-.08.98-.05,1.47.03.48.08.95.05,1.44-.03.49.12.98.07,1.44-.05.49-.02.98-.1,1.44-.08.48-.51.88-.62,1.33-.11.47-.18.94-.32,1.39-.15.46-.35.89-.54,1.32-.19.44-.27.93-.5,1.34-.24.42-.64.71-.92,1.1-.28.39-.27,1-.59,1.36-.31.35-.79.56-1.15.89-.34.32-.7.64-1.08.94-.37.28-.69.67-1.1.93-.39.25-.95.24-1.38.48-.41.23-.68.74-1.12.96-.42.2-.86.42-1.31.61-.43.19-.99.11-1.44.27-.45.16-.87.41-1.34.54-.46.13-.99-.02-1.46.07-.47.09-.92.28-1.39.34-.48.06-.95.08-1.43.09-.48.01-.96.11-1.44.08-.48-.03-.94-.21-1.41-.29-.48-.09-.93-.21-1.38-.36-.46-.15-.9-.3-1.33-.51-.43-.21-.73-.58-1.12-.87-.38-.28-.99-.29-1.33-.64-.33-.33-.39-.91-.67-1.31-.28-.39-.75-.64-.99-1.04-.25-.41-.23-.96-.44-1.37-.21-.43-.75-.7-.93-1.13-.18-.44.05-1.02-.09-1.47-.14-.45-.47-.85-.57-1.3-.11-.46.02-.96-.04-1.42-.07-.47-.22-.92-.25-1.39-.03-.47-.29-.94-.28-1.41.01-.47.23-.94.28-1.4.05-.47,0-.96.09-1.42.09-.47.02-.98.14-1.43.13-.46.68-.77.85-1.22.16-.44,0-1.02.2-1.45.2-.43.39-.88.63-1.29.24-.41.54-.8.81-1.19.27-.39.7-.66,1.01-1.02.3-.36.74-.59,1.08-.93.33-.34.56-.77.92-1.08.36-.3.77-.54,1.16-.82.38-.27.77-.53,1.18-.76.41-.24.78-.53,1.21-.73.42-.2.82-.48,1.27-.65.44-.16.96-.07,1.42-.19.45-.12.85-.5,1.32-.59.46-.08.93-.19,1.41-.24.46-.05.95.06,1.43.04"/><path d="M98.44,55.61c-.47.05-.9.24-1.35.34-.46.1-1-.11-1.43.03-.45.14-.88.37-1.29.56-.43.19-.9.32-1.3.55-.4.24-.71.65-1.08.92-.37.28-.57.75-.91,1.07-.34.32-.95.38-1.25.74-.3.36-.32.93-.57,1.32-.25.39-.66.69-.87,1.11-.2.41-.27.89-.43,1.33-.15.43-.24.89-.35,1.34-.11.45-.49.86-.55,1.32-.06.45.2.95.19,1.42-.01.46-.22.93-.19,1.4.03.4.15.86.24,1.35.08.42.36.83.48,1.29.11.43.33.83.48,1.27.14.43-.02.97.15,1.4.17.42.43.82.64,1.22.21.41.42.83.67,1.2.26.39.66.66.96.98.33.35.57.79.94,1.02.4.25.94.05,1.38.13.5.09.72-.16,1.27-.22.47-.05,1.02,0,1.58.1.51.08,1.03.03,1.55.02.48-.02,1,.23,1.5.14.47-.08.88-.52,1.37-.66.47-.13.91-.3,1.38-.48.46-.18,1.01-.13,1.46-.35.44-.22.82-.56,1.25-.82.43-.26.99-.31,1.39-.6.4-.29.73-.7,1.1-1.03.38-.33.75-.68,1.08-1.04.34-.37.57-.83.85-1.23.29-.42.65-.79.86-1.23.22-.45.41-.93.53-1.41.11-.45.18-.91.26-1.37.08-.45.3-.91.34-1.37.04-.46-.33-.94-.33-1.41,0-.46.3-.95.25-1.41-.05-.46-.38-.88-.48-1.33-.1-.45.03-.98-.13-1.42-.16-.43-.7-.7-.92-1.1-.22-.4-.14-1.02-.43-1.39-.31-.39-.78-.63-1.1-.95-.34-.36-.56-.85-.92-1.14-.38-.31-.86-.5-1.26-.73-.42-.24-.95-.21-1.4-.37-.44-.16-.85-.46-1.32-.55-.46-.09-.94-.03-1.43-.06-.46-.03-.92.16-1.42.18-.46.02-.94-.14-1.43-.09M100.36,51.68c.49-.01.99-.12,1.47-.08.49.04.92.44,1.4.54.48.1.95.16,1.41.31.46.15.87.41,1.31.61.44.2.95.26,1.37.51s.96.33,1.35.62c.39.29.51.91.87,1.24s.93.44,1.25.81c.32.36.47.87.75,1.27.28.4.65.74.89,1.16.24.42.5.85.69,1.29.19.45.07,1,.21,1.47.14.46.54.86.62,1.34.08.48-.08.98-.05,1.47.03.48.08.95.05,1.44-.03.49.12.98.07,1.44-.05.49-.02.98-.1,1.44-.08.48-.51.88-.62,1.33-.11.47-.18.94-.32,1.39-.15.46-.35.89-.54,1.32-.19.44-.27.93-.5,1.34-.24.42-.64.71-.92,1.1-.28.39-.27,1-.59,1.36-.31.35-.79.56-1.15.89-.34.32-.7.64-1.08.94-.37.28-.69.67-1.1.93-.39.25-.95.24-1.38.48-.41.23-.68.74-1.12.96-.42.2-.86.42-1.31.61-.43.19-.99.11-1.44.27-.45.16-.87.41-1.34.54-.46.13-.99-.02-1.46.07-.47.09-.92.28-1.39.34-.48.06-.95.08-1.43.09-.48.01-.96.11-1.44.08-.48-.03-.94-.21-1.41-.29-.48-.09-.93-.21-1.38-.36-.46-.15-.9-.3-1.33-.51-.43-.21-.73-.58-1.12-.87-.38-.28-.99-.29-1.33-.64-.33-.33-.39-.91-.67-1.31-.28-.39-.75-.64-.99-1.04-.25-.41-.23-.96-.44-1.37-.21-.43-.75-.7-.93-1.13-.18-.44.05-1.02-.09-1.47-.14-.45-.47-.85-.57-1.3-.11-.46.02-.96-.04-1.42-.07-.47-.22-.92-.25-1.39-.03-.47-.29-.94-.28-1.41.01-.47.23-.94.28-1.4.05-.47,0-.96.09-1.42.09-.47.02-.98.14-1.43.13-.46.68-.77.85-1.22.16-.44,0-1.02.2-1.45.2-.43.39-.88.63-1.29.24-.41.54-.8.81-1.19.27-.39.7-.66,1.01-1.02.3-.36.74-.59,1.08-.93.33-.34.56-.77.92-1.08.36-.3.77-.54,1.16-.82.38-.27.77-.53,1.18-.76.41-.24.78-.53,1.21-.73.42-.2.82-.48,1.27-.65.44-.16.96-.07,1.42-.19.45-.12.85-.5,1.32-.59.46-.08.93-.19,1.41-.24.46-.05.95.06,1.43.04"/><path d="M91.43,88.43c-.49-.06-.88-.24-1.34-.34-.48-.1-.98-.1-1.43-.24-.47-.15-.94-.28-1.37-.47-.45-.19-.79-.59-1.2-.82-.42-.24-.78-.55-1.16-.83-.39-.28-.71-.62-1.07-.94-.35-.32-.78-.56-1.1-.92-.32-.36-.84-.56-1.12-.95-.28-.38-.22-1-.47-1.41-.24-.41-.83-.63-1.05-1.07-.21-.43-.32-.92-.51-1.36-.18-.44,0-1.01-.16-1.47-.15-.45-.33-.88-.46-1.35-.12-.46-.46-.87-.56-1.34-.1-.45-.06-1.02-.12-1.6-.06-.54-.36-1.11-.3-1.61.07-.59.36-1.17.72-1.51.33-.31.87-.3,1.56-.21.39.18.61,0,.88.34.13.45.19,1.03.31,1.49.12.46.25.92.37,1.38.11.46-.02.99.1,1.45.12.46.27.92.4,1.38.13.46.34.9.5,1.34.16.45.44.85.63,1.28.19.44.45.83.68,1.24.24.42.54.76.83,1.13.28.38.42.87.76,1.21.34.32.75.57,1.15.84.38.26.81.42,1.26.63.42.19.74.68,1.22.82.46.14,1.03-.06,1.53,0,.5.07,1.02.03,1.5.1.52.08.96.42,1.39.61.46.2.74.53,1,.98.21.36.62.75.64,1.35.02.47-.08.97-.08,1.47,0,.48-.22.96-.24,1.46-.02.48.03.97,0,1.47-.03.48.24.99.2,1.49-.04.48-.04.98-.09,1.47-.05.49-.32.95-.38,1.44-.06.49,0,.99-.06,1.48-.06.49-.44.93-.51,1.42-.07.49-.06.99-.14,1.48-.08.49.07,1.02,0,1.5-.08.49-.17.98-.25,1.45-.09.49-.29.96-.38,1.43-.1.49-.02,1.01-.11,1.48-.1.5-.21.98-.31,1.44-.1.47-.5.88-.63,1.35-.13.46-.2.95-.35,1.42-.15.46-.44.87-.61,1.33-.16.45-.16.97-.35,1.43-.18.45-.39.89-.59,1.34-.19.44-.57.81-.78,1.25-.21.44-.17,1-.39,1.43-.22.43-.68.74-.91,1.18-.23.43-.45.86-.69,1.28-.24.42-.25.98-.5,1.4-.25.42-.58.79-.84,1.2-.26.42-.42.89-.68,1.3-.26.41-.63.76-.9,1.16-.27.41-.5.84-.77,1.24s-.53.82-.82,1.22c-.28.4-.55.81-.83,1.2-.29.4-.8.62-1.09,1.01-.3.39-.55.81-.85,1.19-.3.39-.49.86-.79,1.24-.31.38-.76.64-1.07,1.02-.31.38-.68.71-.99,1.07-.32.38-.35,1-.66,1.36-.33.37-.98.44-1.3.79-.33.37-.63.75-.96,1.1-.35.37-.56.84-.89,1.17-.36.35-.69.7-1.04,1.02-.37.34-.65.76-1.02,1.06-.38.32-.92.42-1.3.71-.39.3-.66.74-1.05,1.03-.39.29-.71.66-1.11.95-.39.28-.93.36-1.33.65-.38.28-.62.77-1.03,1.07-.38.28-.91.39-1.31.7-.39.3-.67.87-1.09,1.29-.41.41-1.01.57-1.45.83-.51.29-.88.45-1.44.19-.18-.09-.45-.41-.75-.78-.3-.38-.58-.65-.53-.88.06-.29.13-.79.56-1.21.28-.28.64-.59,1.02-.9.33-.27.84-.36,1.22-.64.35-.26.76-.47,1.13-.74.37-.26.77-.48,1.14-.73.39-.26.75-.53,1.11-.78.4-.27.54-.89.87-1.12.47-.32.86-.56,1.1-.75.36-.29.79-.51,1.17-.84.35-.31.63-.7.99-1.04.34-.32.87-.47,1.21-.81.33-.33.57-.78.91-1.13.33-.34.75-.61,1.08-.97.32-.35.61-.74.93-1.1.31-.36.59-.76.9-1.13.31-.36.73-.64,1.03-1.02.3-.37.52-.82.82-1.2.3-.38.68-.69.98-1.07.29-.38.68-.69.97-1.08.29-.38.49-.84.77-1.23.28-.39.29-.97.57-1.37.28-.4.53-.8.8-1.2.27-.4.88-.57,1.15-.98.27-.41.6-.77.85-1.18.26-.41.24-1,.49-1.4.25-.41.63-.75.87-1.16.25-.42.57-.79.81-1.21.24-.43.33-.93.56-1.35.23-.43.28-.95.49-1.37.22-.44.49-.84.69-1.26.21-.45.38-.89.57-1.33.2-.45.38-.89.55-1.32.18-.46.35-.9.5-1.34.14-.4.6-.75.73-1.23.12-.42-.11-.97.01-1.44.11-.43.62-.79.72-1.26.1-.44-.11-.96-.01-1.43.1-.45.5-.84.59-1.3.09-.45-.05-.95.04-1.41.08-.46.31-.89.39-1.35.08-.46-.21-.98-.14-1.44.07-.46.3-.9.37-1.35.07-.47.03-.94.09-1.4.06-.47.34-.91.39-1.36.05-.47-.06-.96-.02-1.41.04-.48.43-.92.46-1.37.03-.49-.15-.97-.13-1.41.02-.5-.18-.96-.18-1.39,0-.57-.1-1.1-.07-1.68"/><path d="M118.86,68.43c.33.27.51.78.55,1.29.03.41.12.93.03,1.4-.08.45-.21.93-.33,1.35-.15.5-.62.85-.74,1.18-.16.45-.41.85-.6,1.28-.19.44-.29.9-.52,1.32-.22.42-.27.95-.52,1.35-.26.4-.64.72-.93,1.1-.28.38-.55.78-.86,1.14-.31.36-.65.69-.99,1.03-.33.33-.85.47-1.21.78-.35.31-.63.71-1.01,1-.37.29-.78.53-1.17.81-.39.27-.82.46-1.22.71-.4.25-.8.5-1.21.73-.23.13-.6.41-1.09.62-.38.16-.72.51-1.09.68-.55.26-.82.41-.89.58.02.47.04.91.08,1.38.04.47-.1.95-.05,1.42.05.47-.01.95.05,1.42.07.47.18.93.26,1.39.08.46.39.89.48,1.35.09.46-.09.98,0,1.44s.13.94.23,1.4c.11.46.47.86.59,1.31.11.46.08.95.2,1.41.12.46.34.88.47,1.34.13.46.38.87.52,1.32.14.47-.1,1.05.04,1.52.15.47.6.83.75,1.29.16.46.38.9.55,1.35.17.46.12,1,.3,1.45.18.45.58.82.77,1.26.19.45.4.89.6,1.33.21.44.52.83.73,1.26.22.44.43.87.66,1.3.23.43.16,1.02.4,1.45.24.42.62.77.88,1.18.25.42.43.88.7,1.29.27.41.74.68,1.01,1.08.28.4.44.88.73,1.27.29.39.65.73.96,1.11.3.38.44.9.76,1.27.32.37.69.69,1.02,1.05.33.36.8.58,1.14.93.34.35.65.72,1,1.06.35.34.63.75.99,1.07.36.33.71.66,1.09.98.37.31.7.68,1.09.98.38.3.89.43,1.29.72.39.29.83.5,1.24.78.4.28.6.84,1.01,1.11.41.26,1,.24,1.42.49.41.25.67.78,1.09,1.02.42.24.92.35,1.35.58.43.23.78.61,1.22.83.44.21.99.18,1.44.39.44.2.86.46,1.31.65.34.14.81.15,1.28.28.4.11.74.53,1.16.67.43.14.94.03,1.31.22.42.21.59.65.86.96.28.32.54.57.54,1.05,0,.64-.1,1.15-.48,1.38-.37.22-.95.31-1.51.28-.46-.03-.95-.29-1.44-.41-.49-.12-.93-.42-1.37-.57-.56-.2-1.12-.21-1.45-.35-.45-.18-.91-.35-1.35-.54-.45-.2-.9-.36-1.34-.57-.44-.21-.84-.49-1.27-.71-.43-.22-.83-.51-1.25-.75-.43-.23-.98-.24-1.4-.49-.42-.25-.77-.6-1.18-.86-.41-.26-.88-.43-1.28-.7-.4-.27-.66-.76-1.05-1.04-.39-.28-.7-.68-1.08-.98-.38-.3-.95-.36-1.32-.67-.38-.31-.74-.63-1.1-.95-.37-.32-.76-.6-1.12-.93-.36-.33-.65-.73-.99-1.07-.35-.34-.73-.64-1.06-.99-.34-.35-.6-.77-.92-1.13-.33-.36-.48-.86-.8-1.23-.31-.37-.63-.73-.94-1.1-.3-.38-.9-.52-1.19-.91-.29-.38-.46-.87-.74-1.26-.28-.39-.6-.77-.87-1.17-.27-.4-.25-.99-.51-1.4-.26-.41-.7-.7-.95-1.11-.25-.41-.42-.87-.66-1.29-.24-.42-.62-.76-.85-1.19-.23-.43-.61-.78-.83-1.21-.22-.43-.1-1.03-.31-1.47-.21-.43-.45-.85-.65-1.29-.2-.44-.62-.79-.81-1.23-.19-.44-.33-.91-.51-1.36-.18-.45-.07-1.01-.24-1.46-.17-.45-.62-.8-.78-1.26-.16-.46-.33-.91-.48-1.37-.15-.46.04-1.03-.1-1.49-.14-.46-.63-.82-.76-1.29-.13-.46,0-1-.13-1.47-.12-.47-.28-.92-.4-1.39s-.21-.94-.32-1.41c-.11-.47-.43-.9-.53-1.37-.1-.47.11-1.01.02-1.48-.09-.48-.38-.91-.46-1.39-.08-.48-.04-.97-.11-1.45-.07-.48-.25-.94-.31-1.42-.06-.41-.24-.97-.31-1.59-.06-.53.09-1.11.08-1.62-.01-.64-.06-1.22.11-1.58.1-.21.53-.48,1.11-.8.36-.2.79-.4,1.25-.62.41-.2.74-.62,1.16-.81.45-.2,1.05-.04,1.44-.22.53-.24.97-.51,1.24-.67.4-.24.81-.5,1.21-.78.38-.27.77-.57,1.14-.87.37-.3.52-.84.86-1.17.35-.32.67-.65.99-1,.32-.35.73-.62,1.02-.99.29-.38.76-.63,1.02-1.03.26-.4.2-.99.42-1.4.22-.42.57-.78.74-1.22.12-.31.41-.78.57-1.38.12-.45,0-1.02.18-1.5.17-.49.64-.82.88-1.22.29-.49.45-1.03.88-1.14.39-.1.93,0,1.45.41"/><path d="M98.44,55.61c-.47.05-.9.24-1.35.34-.46.1-1-.11-1.43.03-.45.14-.88.37-1.29.56-.43.19-.9.32-1.3.55-.4.24-.71.65-1.08.92-.37.28-.57.75-.91,1.07-.34.32-.95.38-1.25.74-.3.36-.32.93-.57,1.32-.25.39-.66.69-.87,1.11-.2.41-.27.89-.43,1.33-.15.43-.24.89-.35,1.34-.11.45-.49.86-.55,1.32-.06.45.2.95.19,1.42-.01.46-.22.93-.19,1.4.03.4.15.86.24,1.35.08.42.36.83.48,1.29.11.43.33.83.48,1.27.14.43-.02.97.15,1.4.17.42.43.82.64,1.22.21.41.42.83.67,1.2.26.39.66.66.96.98.33.35.57.79.94,1.02.4.25.94.05,1.38.13.5.09.72-.16,1.27-.22.47-.05,1.02,0,1.58.1.51.08,1.03.03,1.55.02.48-.02,1,.23,1.5.14.47-.08.88-.52,1.37-.66.47-.13.91-.3,1.38-.48.46-.18,1.01-.13,1.46-.35.44-.22.82-.56,1.25-.82.43-.26.99-.31,1.39-.6.4-.29.73-.7,1.1-1.03.38-.33.75-.68,1.08-1.04.34-.37.57-.83.85-1.23.29-.42.65-.79.86-1.23.22-.45.41-.93.53-1.41.11-.45.18-.91.26-1.37.08-.45.3-.91.34-1.37.04-.46-.33-.94-.33-1.41,0-.46.3-.95.25-1.41-.05-.46-.38-.88-.48-1.33-.1-.45.03-.98-.13-1.42-.16-.43-.7-.7-.92-1.1-.22-.4-.14-1.02-.43-1.39-.31-.39-.78-.63-1.1-.95-.34-.36-.56-.85-.92-1.14-.38-.31-.86-.5-1.26-.73-.42-.24-.95-.21-1.4-.37-.44-.16-.85-.46-1.32-.55-.46-.09-.94-.03-1.43-.06-.46-.03-.92.16-1.42.18-.46.02-.94-.14-1.43-.09M100.36,51.68c.49-.01.99-.12,1.47-.08.49.04.92.44,1.4.54.48.1.95.16,1.41.31.46.15.87.41,1.31.61.44.2.95.26,1.37.51s.96.33,1.35.62c.39.29.51.91.87,1.24s.93.44,1.25.81c.32.36.47.87.75,1.27.28.4.65.74.89,1.16.24.42.5.85.69,1.29.19.45.07,1,.21,1.47.14.46.54.86.62,1.34.08.48-.08.98-.05,1.47.03.48.08.95.05,1.44-.03.49.12.98.07,1.44-.05.49-.02.98-.1,1.44-.08.48-.51.88-.62,1.33-.11.47-.18.94-.32,1.39-.15.46-.35.89-.54,1.32-.19.44-.27.93-.5,1.34-.24.42-.64.71-.92,1.1-.28.39-.27,1-.59,1.36-.31.35-.79.56-1.15.89-.34.32-.7.64-1.08.94-.37.28-.69.67-1.1.93-.39.25-.95.24-1.38.48-.41.23-.68.74-1.12.96-.42.2-.86.42-1.31.61-.43.19-.99.11-1.44.27-.45.16-.87.41-1.34.54-.46.13-.99-.02-1.46.07-.47.09-.92.28-1.39.34-.48.06-.95.08-1.43.09-.48.01-.96.11-1.44.08-.48-.03-.94-.21-1.41-.29-.48-.09-.93-.21-1.38-.36-.46-.15-.9-.3-1.33-.51-.43-.21-.73-.58-1.12-.87-.38-.28-.99-.29-1.33-.64-.33-.33-.39-.91-.67-1.31-.28-.39-.75-.64-.99-1.04-.25-.41-.23-.96-.44-1.37-.21-.43-.75-.7-.93-1.13-.18-.44.05-1.02-.09-1.47-.14-.45-.47-.85-.57-1.3-.11-.46.02-.96-.04-1.42-.07-.47-.22-.92-.25-1.39-.03-.47-.29-.94-.28-1.41.01-.47.23-.94.28-1.4.05-.47,0-.96.09-1.42.09-.47.02-.98.14-1.43.13-.46.68-.77.85-1.22.16-.44,0-1.02.2-1.45.2-.43.39-.88.63-1.29.24-.41.54-.8.81-1.19.27-.39.7-.66,1.01-1.02.3-.36.74-.59,1.08-.93.33-.34.56-.77.92-1.08.36-.3.77-.54,1.16-.82.38-.27.77-.53,1.18-.76.41-.24.78-.53,1.21-.73.42-.2.82-.48,1.27-.65.44-.16.96-.07,1.42-.19.45-.12.85-.5,1.32-.59.46-.08.93-.19,1.41-.24.46-.05.95.06,1.43.04"/></svg>