<?xml version="1.0" encoding="UTF-8"?><svg id="Layer_1" xmlns="http://www.w3.org/2000/svg" viewBox="0 0 200 200"><path d="M87.57,95.3c.19.26.69.57,1.03.76.33.19.79.14,1.08.28.42.21.85.39,1.27.59.42.2.79.5,1.22.7.42.19.86.36,1.29.55.43.19.84.4,1.27.59.43.19.77.58,1.2.77.43.18.92.22,1.35.41s.91.25,1.34.43c.43.18.72.69,1.15.87.43.18.91.26,1.34.44s.86.38,1.29.56c.43.18.81.49,1.24.68.43.18.94.18,1.37.36.43.19.87.35,1.3.54.43.19.85.4,1.27.6.43.19.9.29,1.32.48.43.19.78.54,1.21.74.43.2.84.41,1.26.61.42.2.86.38,1.27.59.42.21.83.43,1.24.65.42.22.87.35,1.28.58.47.25.98.37,1.23.62.38.39.27.95.23,1.35-.04.38-.37.61-.71,1-.26.3-.38.79-.76,1.09-.37.3-.66.73-1.05,1.02-.38.28-.91.39-1.31.66-.39.27-.75.62-1.16.88-.4.26-.93.32-1.35.58-.41.25-.7.7-1.12.95-.42.24-.9.37-1.32.61-.42.24-.92.32-1.35.55-.42.23-.72.69-1.15.91-.43.23-.86.44-1.29.66-.43.22-.94.28-1.37.5-.43.22-.82.53-1.25.75-.43.22-.89.4-1.32.61-.44.22-.92.34-1.35.55-.44.21-.67.83-1.11,1.04-.44.21-.99.19-1.42.41-.43.22-.83.5-1.26.71-.43.22-.8.56-1.23.78-.43.22-.97.24-1.39.46-.43.23-.94.37-1.35.6-.09.18-.46.47-.93.75-.34.2-.63.58-.96.78-.54.32-1.2.64-1.12.81.1.21.78.3,1.41.66.36.21.8.42,1.29.65.41.2.79.52,1.26.73.43.19.92.27,1.38.47.44.19.93.27,1.38.46.45.19.85.48,1.3.67.46.19.91.36,1.35.54.47.19.92.39,1.34.56.49.2.92.44,1.32.61.59.24,1.08.4,1.35.52.42.19.85.37,1.27.57.42.2.82.45,1.23.65.42.2.85.38,1.26.59.42.21.8.47,1.21.68.41.21.8.47,1.22.68.41.21.79.5,1.2.71.41.21.95.17,1.37.38.41.21.74.6,1.15.8.42.21.93.21,1.35.41.42.2.72.64,1.14.83.42.2.77.56,1.19.75.42.19.86.31,1.29.49.48.32,1.12.55,1.28,1.04.18.56.05,1.33-.25,1.74-.27.36-.92.66-1.63.59-.24-.02-.68-.41-1.28-.66-.38-.16-.78-.42-1.24-.63-.41-.19-.87-.3-1.3-.51-.43-.2-.97-.17-1.38-.36-.45-.22-.71-.77-1.09-.95-.53-.26-1.01-.42-1.28-.55-.42-.2-.85-.39-1.28-.59-.42-.2-.89-.3-1.32-.5-.42-.2-.76-.58-1.19-.78-.43-.19-.89-.3-1.32-.5-.43-.19-.9-.29-1.33-.48-.43-.19-.77-.57-1.2-.77-.43-.19-.99-.09-1.42-.28-.43-.19-.8-.52-1.22-.71-.43-.19-.77-.57-1.2-.76-.43-.19-.96-.15-1.39-.35-.43-.2-.72-.67-1.15-.87-.43-.2-.96-.17-1.38-.37-.43-.21-.86-.39-1.28-.6-.42-.21-.84-.42-1.26-.63-.42-.21-.73-.63-1.14-.84-.45-.24-1.09-.11-1.53-.36-.44-.25-.72-.77-1.14-1.05-.42-.28-.76-.65-1.14-.98-.38-.33-.98-.46-1.29-.86-.31-.38-.35-.93-.59-1.39.14-.42.33-.82.67-1.1.37-.31.65-.77,1.05-1.07.39-.29.88-.46,1.3-.74.41-.27.98-.28,1.41-.53.42-.25.76-.64,1.2-.88.43-.24.84-.51,1.28-.74.43-.23.97-.27,1.41-.5.44-.22.85-.5,1.29-.72.44-.22.73-.76,1.18-.97.45-.22,1.08-.04,1.52-.26.45-.22.75-.74,1.19-.95.45-.22.96-.31,1.39-.53.45-.22.82-.58,1.25-.81.45-.23,1.02-.2,1.45-.43.4-.22.67-.68,1.07-.91.4-.23.87-.33,1.26-.57.39-.23.89-.3,1.28-.54.39-.24.77-.5,1.17-.74.39-.24.75-.54,1.14-.78.39-.24.63-.72,1.02-.97.39-.24.79-.46,1.18-.71s.84-.39,1.23-.63c.39-.24.87-.57,1.26-.8-.55-.53-.79-.2-1.47-.55-.68-.35-.57-.57-1.24-.92q-.68-.35-1.36-.7c-.68-.35-.8-.13-1.48-.48-.68-.35-.7-.3-1.39-.65-.44-.21-.78-.62-1.23-.82-.44-.2-.91-.36-1.36-.55-.45-.2-.93-.32-1.38-.51-.45-.19-.87-.46-1.32-.65-.45-.19-.96-.25-1.41-.43-.45-.19-.82-.58-1.27-.76-.45-.19-.97-.23-1.42-.42-.45-.19-.92-.34-1.37-.54-.45-.19-.82-.56-1.27-.76-.45-.2-.85-.5-1.29-.7-.45-.2-1.04-.09-1.48-.3-.44-.21-.93-.34-1.36-.56-.44-.22-.72-.74-1.15-.97-.43-.23-1-.25-1.42-.49-.43-.25-.7-.73-1.09-1.03-.39-.3-.89-.49-1.19-.88-.3-.37-.52-.88-.71-1.36.44-.58.64-.38,1.24-.81.59-.43.46-.61,1.06-1.03.6-.43.71-.27,1.3-.69.59-.43.74-.22,1.33-.65.59-.43.42-.67,1.01-1.09.59-.43.59-.43,1.18-.86.59-.43.7-.28,1.29-.71.59-.43.56-.48,1.15-.91.59-.43.69-.29,1.28-.72.59-.43.35-.77.94-1.19.6-.43.85-.08,1.44-.5.59-.43.54-.5,1.13-.93.6-.43.61-.41,1.2-.84.59-.43.57-.45,1.16-.88.6-.43.44-.64,1.04-1.06.59-.43.68-.3,1.28-.73.59-.43.63-.37,1.22-.8.6-.43.67-.32,1.27-.75.59-.43.51-.54,1.11-.97.6-.43.49-.57,1.09-1,.6-.43.61-.4,1.21-.83.6-.43.67-.33,1.26-.76.6-.43.51-.54,1.11-.97.6-.43.73-.25,1.33-.67.6-.43.75-.31,1.19-.91-.43-.19-.83-.6-1.26-.79-.43-.2-.84-.41-1.26-.62-.42-.2-.99-.12-1.4-.33-.42-.21-.72-.65-1.14-.86-.42-.22-.88-.34-1.3-.56s-.93-.26-1.34-.48c-.41-.22-.84-.43-1.25-.65-.41-.23-.83-.44-1.24-.67-.41-.23-.63-.79-1.04-1.02-.41-.23-.82-.45-1.23-.68-.41-.23-.89-.34-1.29-.57-.41-.23-.82-.46-1.22-.7-.41-.23-.9-.31-1.31-.54-.41-.23-.77-.54-1.18-.77s-.72-.63-1.13-.86c-.41-.23-.85-.4-1.26-.63-.41-.23-.75-.59-1.16-.81-.41-.22-.86-.38-1.28-.6-.25-.13-.81-.19-1.41-.47-.4-.18-.79-.55-1.27-.77-.43-.2-.88-.43-1.33-.64-.46-.21-1.05-.13-1.47-.34-.49-.23-.87-.6-1.26-.8-.69-.35-.97-.75-1.04-.88-.15-.25-.5-.6-.49-1.04.01-.46.29-.7.56-.87.58-.24,1.15-.57,1.76-.47.28.04.87.09,1.5.34.43.17.79.67,1.27.89.48.21,1.03.26,1.46.46.58.27,1.13.38,1.43.52.45.22.86.51,1.31.74.44.23.87.48,1.31.73.44.24.69.8,1.13,1.05.43.25,1.01.24,1.44.49.43.25.81.59,1.24.84.43.26.79.62,1.22.88.43.26,1.05.18,1.48.44.43.25.65.87,1.08,1.12.43.25.93.39,1.36.63.44.24.93.38,1.37.61.43.23.85.45,1.28.67.43.22.82.52,1.26.73.43.21.86.44,1.3.65.44.21,1.01.13,1.45.33.44.21.85.47,1.28.68.44.21.71.76,1.14.97.44.21,1.07.02,1.5.24.43.22.78.6,1.21.83.43.23.77.61,1.19.85.45.26,1.02.21,1.36.43.47.3.77.7,1.04.95.44.42.75.88.71,1.27-.04.36-.35.82-.77,1.24-.27.28-.74.45-1.16.78-.32.26-.59.67-1,.97-.37.28-.72.62-1.1.89-.38.27-.86.4-1.25.67-.39.26-.94.27-1.33.53-.39.25-.73.61-1.12.86-.4.25-.85.42-1.24.67-.4.26-.64.74-1.03,1-.39.26-.68.67-1.06.94-.39.28-.83.48-1.22.76-.39.28-.81.51-1.2.79-.39.28-.84.48-1.23.76-.39.28-.63.76-1.02,1.05-.39.28-.76.58-1.15.86-.39.28-.97.29-1.36.57-.39.28-.67.71-1.06.99-.39.28-.74.62-1.12.9-.39.28-.88.42-1.26.7-.39.28-.75.6-1.14.88-.39.27-.95.31-1.35.58-.39.27-.73.63-1.12.9-.4.27-.79.54-1.19.8-.4.26-.6.83-1,1.09-.4.26-.96.28-1.36.53-.4.26-.97.47-1.38.72"/><path d="M87.57,95.3c.19.26.69.57,1.03.76.33.19.79.14,1.08.28.42.21.85.39,1.27.59.42.2.79.5,1.22.7.42.19.86.36,1.29.55.43.19.84.4,1.27.59.43.19.77.58,1.2.77.43.18.92.22,1.35.41s.91.25,1.34.43c.43.18.72.69,1.15.87.43.18.91.26,1.34.44s.86.38,1.29.56c.43.18.81.49,1.24.68.43.18.94.18,1.37.36.43.19.87.35,1.3.54.43.19.85.4,1.27.6.43.19.9.29,1.32.48.43.19.78.54,1.21.74.43.2.84.41,1.26.61.42.2.86.38,1.27.59.42.21.83.43,1.24.65.42.22.87.35,1.28.58.47.25.98.37,1.23.62.38.39.27.95.23,1.35-.04.38-.37.61-.71,1-.26.3-.38.79-.76,1.09-.37.3-.66.73-1.05,1.02-.38.28-.91.39-1.31.66-.39.27-.75.62-1.16.88-.4.26-.93.32-1.35.58-.41.25-.7.7-1.12.95-.42.24-.9.37-1.32.61-.42.24-.92.32-1.35.55-.42.23-.72.69-1.15.91-.43.23-.86.44-1.29.66-.43.22-.94.28-1.37.5-.43.22-.82.53-1.25.75-.43.22-.89.4-1.32.61-.44.22-.92.34-1.35.55-.44.21-.67.83-1.11,1.04-.44.21-.99.19-1.42.41-.43.22-.83.5-1.26.71-.43.22-.8.56-1.23.78-.43.22-.97.24-1.39.46-.43.23-.94.37-1.35.6-.09.18-.46.47-.93.75-.34.2-.63.58-.96.78-.54.32-1.2.64-1.12.81.1.21.78.3,1.41.66.36.21.8.42,1.29.65.41.2.79.52,1.26.73.43.19.92.27,1.38.47.44.19.93.27,1.38.46.45.19.85.48,1.3.67.46.19.91.36,1.35.54.47.19.92.39,1.34.56.49.2.92.44,1.32.61.59.24,1.08.4,1.35.52.42.19.85.37,1.27.57.42.2.82.45,1.23.65.42.2.85.38,1.26.59.42.21.8.47,1.21.68.41.21.8.47,1.22.68.41.21.79.5,1.2.71.41.21.95.17,1.37.38.41.21.74.6,1.15.8.42.21.93.21,1.35.41.42.2.72.64,1.14.83.42.2.77.56,1.19.75.42.19.86.31,1.29.49.48.32,1.12.55,1.28,1.04.18.56.05,1.33-.25,1.74-.27.36-.92.66-1.63.59-.24-.02-.68-.41-1.28-.66-.38-.16-.78-.42-1.24-.63-.41-.19-.87-.3-1.3-.51-.43-.2-.97-.17-1.38-.36-.45-.22-.71-.77-1.09-.95-.53-.26-1.01-.42-1.28-.55-.42-.2-.85-.39-1.28-.59-.42-.2-.89-.3-1.32-.5-.42-.2-.76-.58-1.19-.78-.43-.19-.89-.3-1.32-.5-.43-.19-.9-.29-1.33-.48-.43-.19-.77-.57-1.2-.77-.43-.19-.99-.09-1.42-.28-.43-.19-.8-.52-1.22-.71-.43-.19-.77-.57-1.2-.76-.43-.19-.96-.15-1.39-.35-.43-.2-.72-.67-1.15-.87-.43-.2-.96-.17-1.38-.37-.43-.21-.86-.39-1.28-.6-.42-.21-.84-.42-1.26-.63-.42-.21-.73-.63-1.14-.84-.45-.24-1.09-.11-1.53-.36-.44-.25-.72-.77-1.14-1.05-.42-.28-.76-.65-1.14-.98-.38-.33-.98-.46-1.29-.86-.31-.38-.35-.93-.59-1.39.14-.42.33-.82.67-1.1.37-.31.65-.77,1.05-1.07.39-.29.88-.46,1.3-.74.41-.27.98-.28,1.41-.53.42-.25.76-.64,1.2-.88.43-.24.84-.51,1.28-.74.43-.23.97-.27,1.41-.5.44-.22.85-.5,1.29-.72.44-.22.73-.76,1.18-.97.45-.22,1.08-.04,1.52-.26.45-.22.75-.74,1.19-.95.45-.22.96-.31,1.39-.53.45-.22.82-.58,1.25-.81.45-.23,1.02-.2,1.45-.43.4-.22.67-.68,1.07-.91.4-.23.87-.33,1.26-.57.39-.23.89-.3,1.28-.54.39-.24.77-.5,1.17-.74.39-.24.75-.54,1.14-.78.39-.24.63-.72,1.02-.97.39-.24.79-.46,1.18-.71s.84-.39,1.23-.63c.39-.24.87-.57,1.26-.8-.55-.53-.79-.2-1.47-.55-.68-.35-.57-.57-1.24-.92q-.68-.35-1.36-.7c-.68-.35-.8-.13-1.48-.48-.68-.35-.7-.3-1.39-.65-.44-.21-.78-.62-1.23-.82-.44-.2-.91-.36-1.36-.55-.45-.2-.93-.32-1.38-.51-.45-.19-.87-.46-1.32-.65-.45-.19-.96-.25-1.41-.43-.45-.19-.82-.58-1.27-.76-.45-.19-.97-.23-1.42-.42-.45-.19-.92-.34-1.37-.54-.45-.19-.82-.56-1.27-.76-.45-.2-.85-.5-1.29-.7-.45-.2-1.04-.09-1.48-.3-.44-.21-.93-.34-1.36-.56-.44-.22-.72-.74-1.15-.97-.43-.23-1-.25-1.42-.49-.43-.25-.7-.73-1.09-1.03-.39-.3-.89-.49-1.19-.88-.3-.37-.52-.88-.71-1.36.44-.58.64-.38,1.24-.81.59-.43.46-.61,1.06-1.03.6-.43.71-.27,1.3-.69.59-.43.74-.22,1.33-.65.59-.43.42-.67,1.01-1.09.59-.43.59-.43,1.18-.86.59-.43.7-.28,1.29-.71.59-.43.56-.48,1.15-.91.59-.43.69-.29,1.28-.72.59-.43.35-.77.94-1.19.6-.43.85-.08,1.44-.5.59-.43.54-.5,1.13-.93.6-.43.61-.41,1.2-.84.59-.43.57-.45,1.16-.88.6-.43.44-.64,1.04-1.06.59-.43.68-.3,1.28-.73.59-.43.63-.37,1.22-.8.6-.43.67-.32,1.27-.75.59-.43.51-.54,1.11-.97.6-.43.49-.57,1.09-1,.6-.43.61-.4,1.21-.83.6-.43.67-.33,1.26-.76.6-.43.51-.54,1.11-.97.6-.43.73-.25,1.33-.67.6-.43.75-.31,1.19-.91-.43-.19-.83-.6-1.26-.79-.43-.2-.84-.41-1.26-.62-.42-.2-.99-.12-1.4-.33-.42-.21-.72-.65-1.14-.86-.42-.22-.88-.34-1.3-.56s-.93-.26-1.34-.48c-.41-.22-.84-.43-1.25-.65-.41-.23-.83-.44-1.24-.67-.41-.23-.63-.79-1.04-1.02-.41-.23-.82-.45-1.23-.68-.41-.23-.89-.34-1.29-.57-.41-.23-.82-.46-1.22-.7-.41-.23-.9-.31-1.31-.54-.41-.23-.77-.54-1.18-.77s-.72-.63-1.13-.86c-.41-.23-.85-.4-1.26-.63-.41-.23-.75-.59-1.16-.81-.41-.22-.86-.38-1.28-.6-.25-.13-.81-.19-1.41-.47-.4-.18-.79-.55-1.27-.77-.43-.2-.88-.43-1.33-.64-.46-.21-1.05-.13-1.47-.34-.49-.23-.87-.6-1.26-.8-.69-.35-.97-.75-1.04-.88-.15-.25-.5-.6-.49-1.04.01-.46.29-.7.56-.87.58-.24,1.15-.57,1.76-.47.28.04.87.09,1.5.34.43.17.79.67,1.27.89.48.21,1.03.26,1.46.46.58.27,1.13.38,1.43.52.45.22.86.51,1.31.74.44.23.87.48,1.31.73.44.24.69.8,1.13,1.05.43.25,1.01.24,1.44.49.43.25.81.59,1.24.84.43.26.79.62,1.22.88.43.26,1.05.18,1.48.44.43.25.65.87,1.08,1.12.43.25.93.39,1.36.63.44.24.93.38,1.37.61.43.23.85.45,1.28.67.43.22.82.52,1.26.73.43.21.86.44,1.3.65.44.21,1.01.13,1.45.33.44.21.85.47,1.28.68.44.21.71.76,1.14.97.44.21,1.07.02,1.5.24.43.22.78.6,1.21.83.43.23.77.61,1.19.85.45.26,1.02.21,1.36.43.47.3.77.7,1.04.95.44.42.75.88.71,1.27-.04.36-.35.82-.77,1.24-.27.28-.74.45-1.16.78-.32.26-.59.67-1,.97-.37.28-.72.62-1.1.89-.38.27-.86.4-1.25.67-.39.26-.94.27-1.33.53-.39.25-.73.61-1.12.86-.4.25-.85.42-1.24.67-.4.26-.64.74-1.03,1-.39.26-.68.67-1.06.94-.39.28-.83.48-1.22.76-.39.28-.81.51-1.2.79-.39.28-.84.48-1.23.76-.39.28-.63.76-1.02,1.05-.39.28-.76.58-1.15.86-.39.28-.97.29-1.36.57-.39.28-.67.71-1.06.99-.39.28-.74.62-1.12.9-.39.28-.88.42-1.26.7-.39.28-.75.6-1.14.88-.39.27-.95.31-1.35.58-.39.27-.73.63-1.12.9-.4.27-.79.54-1.19.8-.4.26-.6.83-1,1.09-.4.26-.96.28-1.36.53-.4.26-.97.47-1.38.72"/><path d="M87.57,95.3c.19.26.69.57,1.03.76.33.19.79.14,1.08.28.42.21.85.39,1.27.59.42.2.79.5,1.22.7.42.19.86.36,1.29.55.43.19.84.4,1.27.59.43.19.77.58,1.2.77.43.18.92.22,1.35.41s.91.25,1.34.43c.43.18.72.69,1.15.87.43.18.91.26,1.34.44s.86.38,1.29.56c.43.18.81.49,1.24.68.43.18.94.18,1.37.36.43.19.87.35,1.3.54.43.19.85.4,1.27.6.43.19.9.29,1.32.48.43.19.78.54,1.21.74.43.2.84.41,1.26.61.42.2.86.38,1.27.59.42.21.83.43,1.24.65.42.22.87.35,1.28.58.47.25.98.37,1.23.62.38.39.27.95.23,1.35-.04.38-.37.61-.71,1-.26.3-.38.79-.76,1.09-.37.3-.66.73-1.05,1.02-.38.28-.91.39-1.31.66-.39.27-.75.62-1.16.88-.4.26-.93.32-1.35.58-.41.25-.7.7-1.12.95-.42.24-.9.37-1.32.61-.42.24-.92.32-1.35.55-.42.23-.72.69-1.15.91-.43.23-.86.44-1.29.66-.43.22-.94.28-1.37.5-.43.22-.82.53-1.25.75-.43.22-.89.4-1.32.61-.44.22-.92.34-1.35.55-.44.21-.67.83-1.11,1.04-.44.21-.99.19-1.42.41-.43.22-.83.5-1.26.71-.43.22-.8.56-1.23.78-.43.22-.97.24-1.39.46-.43.23-.94.37-1.35.6-.09.18-.46.47-.93.75-.34.2-.63.58-.96.78-.54.32-1.2.64-1.12.81.1.21.78.3,1.41.66.36.21.8.42,1.29.65.41.2.79.52,1.26.73.43.19.92.27,1.38.47.44.19.93.27,1.38.46.45.19.85.48,1.3.67.46.19.91.36,1.35.54.47.19.92.39,1.34.56.49.2.92.44,1.32.61.59.24,1.08.4,1.35.52.42.19.85.37,1.27.57.42.2.82.45,1.23.65.42.2.85.38,1.26.59.42.21.8.47,1.21.68.41.21.8.47,1.22.68.41.21.79.5,1.2.71.41.21.95.17,1.37.38.41.21.74.6,1.15.8.42.21.93.21,1.35.41.42.2.72.64,1.14.83.42.2.77.56,1.19.75.42.19.86.31,1.29.49.48.32,1.12.55,1.28,1.04.18.56.05,1.33-.25,1.74-.27.36-.92.66-1.63.59-.24-.02-.68-.41-1.28-.66-.38-.16-.78-.42-1.24-.63-.41-.19-.87-.3-1.3-.51-.43-.2-.97-.17-1.38-.36-.45-.22-.71-.77-1.09-.95-.53-.26-1.01-.42-1.28-.55-.42-.2-.85-.39-1.28-.59-.42-.2-.89-.3-1.32-.5-.42-.2-.76-.58-1.19-.78-.43-.19-.89-.3-1.32-.5-.43-.19-.9-.29-1.33-.48-.43-.19-.77-.57-1.2-.77-.43-.19-.99-.09-1.42-.28-.43-.19-.8-.52-1.22-.71-.43-.19-.77-.57-1.2-.76-.43-.19-.96-.15-1.39-.35-.43-.2-.72-.67-1.15-.87-.43-.2-.96-.17-1.38-.37-.43-.21-.86-.39-1.28-.6-.42-.21-.84-.42-1.26-.63-.42-.21-.73-.63-1.14-.84-.45-.24-1.09-.11-1.53-.36-.44-.25-.72-.77-1.14-1.05-.42-.28-.76-.65-1.14-.98-.38-.33-.98-.46-1.29-.86-.31-.38-.35-.93-.59-1.39.14-.42.33-.82.67-1.1.37-.31.65-.77,1.05-1.07.39-.29.88-.46,1.3-.74.41-.27.98-.28,1.41-.53.42-.25.76-.64,1.2-.88.43-.24.84-.51,1.28-.74.43-.23.97-.27,1.41-.5.44-.22.85-.5,1.29-.72.44-.22.73-.76,1.18-.97.45-.22,1.08-.04,1.52-.26.45-.22.75-.74,1.19-.95.45-.22.96-.31,1.39-.53.45-.22.82-.58,1.25-.81.45-.23,1.02-.2,1.45-.43.4-.22.67-.68,1.07-.91.4-.23.87-.33,1.26-.57.39-.23.89-.3,1.28-.54.39-.24.77-.5,1.17-.74.39-.24.75-.54,1.14-.78.39-.24.63-.72,1.02-.97.39-.24.79-.46,1.18-.71s.84-.39,1.23-.63c.39-.24.87-.57,1.26-.8-.55-.53-.79-.2-1.47-.55-.68-.35-.57-.57-1.24-.92q-.68-.35-1.36-.7c-.68-.35-.8-.13-1.48-.48-.68-.35-.7-.3-1.39-.65-.44-.21-.78-.62-1.23-.82-.44-.2-.91-.36-1.36-.55-.45-.2-.93-.32-1.38-.51-.45-.19-.87-.46-1.32-.65-.45-.19-.96-.25-1.41-.43-.45-.19-.82-.58-1.27-.76-.45-.19-.97-.23-1.42-.42-.45-.19-.92-.34-1.37-.54-.45-.19-.82-.56-1.27-.76-.45-.2-.85-.5-1.29-.7-.45-.2-1.04-.09-1.48-.3-.44-.21-.93-.34-1.36-.56-.44-.22-.72-.74-1.15-.97-.43-.23-1-.25-1.42-.49-.43-.25-.7-.73-1.09-1.03-.39-.3-.89-.49-1.19-.88-.3-.37-.52-.88-.71-1.36.44-.58.64-.38,1.24-.81.59-.43.46-.61,1.06-1.03.6-.43.71-.27,1.3-.69.59-.43.74-.22,1.33-.65.59-.43.42-.67,1.01-1.09.59-.43.59-.43,1.18-.86.59-.43.7-.28,1.29-.71.59-.43.56-.48,1.15-.91.59-.43.69-.29,1.28-.72.59-.43.35-.77.94-1.19.6-.43.85-.08,1.44-.5.59-.43.54-.5,1.13-.93.6-.43.61-.41,1.2-.84.59-.43.57-.45,1.16-.88.6-.43.44-.64,1.04-1.06.59-.43.68-.3,1.28-.73.59-.43.63-.37,1.22-.8.6-.43.67-.32,1.27-.75.59-.43.51-.54,1.11-.97.6-.43.49-.57,1.09-1,.6-.43.61-.4,1.21-.83.6-.43.67-.33,1.26-.76.6-.43.51-.54,1.11-.97.6-.43.73-.25,1.33-.67.6-.43.75-.31,1.19-.91-.43-.19-.83-.6-1.26-.79-.43-.2-.84-.41-1.26-.62-.42-.2-.99-.12-1.4-.33-.42-.21-.72-.65-1.14-.86-.42-.22-.88-.34-1.3-.56s-.93-.26-1.34-.48c-.41-.22-.84-.43-1.25-.65-.41-.23-.83-.44-1.24-.67-.41-.23-.63-.79-1.04-1.02-.41-.23-.82-.45-1.23-.68-.41-.23-.89-.34-1.29-.57-.41-.23-.82-.46-1.22-.7-.41-.23-.9-.31-1.31-.54-.41-.23-.77-.54-1.18-.77s-.72-.63-1.13-.86c-.41-.23-.85-.4-1.26-.63-.41-.23-.75-.59-1.16-.81-.41-.22-.86-.38-1.28-.6-.25-.13-.81-.19-1.41-.47-.4-.18-.79-.55-1.27-.77-.43-.2-.88-.43-1.33-.64-.46-.21-1.05-.13-1.47-.34-.49-.23-.87-.6-1.26-.8-.69-.35-.97-.75-1.04-.88-.15-.25-.5-.6-.49-1.04.01-.46.29-.7.56-.87.58-.24,1.15-.57,1.76-.47.28.04.87.09,1.5.34.43.17.79.67,1.27.89.48.21,1.03.26,1.46.46.58.27,1.13.38,1.43.52.45.22.86.51,1.31.74.44.23.87.48,1.31.73.44.24.69.8,1.13,1.05.43.25,1.01.24,1.44.49.43.25.81.59,1.24.84.43.26.79.62,1.22.88.43.26,1.05.18,1.48.44.43.25.65.87,1.08,1.12.43.25.93.39,1.36.63.44.24.93.38,1.37.61.43.23.85.45,1.28.67.43.22.82.52,1.26.73.43.21.86.44,1.3.65.44.21,1.01.13,1.45.33.44.21.85.47,1.28.68.44.21.71.76,1.14.97.44.21,1.07.02,1.5.24.43.22.78.6,1.21.83.43.23.77.61,1.19.85.45.26,1.02.21,1.36.43.47.3.77.7,1.04.95.44.42.75.88.71,1.27-.04.36-.35.82-.77,1.24-.27.28-.74.45-1.16.78-.32.26-.59.67-1,.97-.37.28-.72.62-1.1.89-.38.27-.86.4-1.25.67-.39.26-.94.27-1.33.53-.39.25-.73.61-1.12.86-.4.25-.85.42-1.24.67-.4.26-.64.74-1.03,1-.39.26-.68.67-1.06.94-.39.28-.83.48-1.22.76-.39.28-.81.51-1.2.79-.39.28-.84.48-1.23.76-.39.28-.63.76-1.02,1.05-.39.28-.76.58-1.15.86-.39.28-.97.29-1.36.57-.39.28-.67.71-1.06.99-.39.28-.74.62-1.12.9-.39.28-.88.42-1.26.7-.39.28-.75.6-1.14.88-.39.27-.95.31-1.35.58-.39.27-.73.63-1.12.9-.4.27-.79.54-1.19.8-.4.26-.6.83-1,1.09-.4.26-.96.28-1.36.53-.4.26-.97.47-1.38.72"/></svg>