<?xml version="1.0" encoding="UTF-8"?><svg id="Layer_1" xmlns="http://www.w3.org/2000/svg" viewBox="0 0 200 200"><path d="M96.36,94.2c.24.24.48.51.72.8.22.26.4.58.62.88.21.28.67.4.88.7.2.29.07.81.27,1.12.19.3.54.5.73.81.19.3.28.67.46.98.18.31.38.61.56.92s.5.55.68.86c.18.32.23.7.4,1.02.18.32.24.7.42,1.01.18.32.67.46.84.77.18.32.18.73.36,1.04.18.32.23.72.4,1.01.19.32.54.53.73.82.19.3.34.62.53.91s.48.53.67.82c.19.3.45.54.64.84.19.3.28.65.48.95.19.3.21.7.4,1,.19.29.59.45.78.75.19.29.39.59.58.88.19.29.21.7.4,1,.19.29.62.44.81.73.19.29.24.69.43.98.19.29.38.59.57.88.19.3.47.54.66.83.19.3.25.67.45.97.19.3.38.59.57.89.19.3.59.45.79.75.19.3.16.73.35,1.03.19.3.36.61.55.9.19.3.38.59.57.88.19.3.54.49.72.79.19.3.35.61.53.91s.43.57.62.87c.17.35-.01.77,0,1.11.01.38.24.8.09,1.12-.16.33-.5.6-.78.82-.28.22-.66.33-1.02.4-.34.06-.65-.14-1.01-.27-.31-.11-.74-.09-1.03-.37-.18-.3-.46-.56-.65-.86-.19-.3-.1-.77-.29-1.07s-.65-.43-.83-.72c-.19-.3-.29-.65-.47-.95-.19-.3-.2-.71-.39-1.01s-.6-.45-.79-.75c-.19-.3-.17-.73-.36-1.03-.19-.3-.54-.49-.74-.78-.19-.3-.22-.7-.41-1-.19-.3-.48-.53-.67-.83-.19-.3-.41-.57-.6-.87-.19-.3-.31-.64-.51-.93-.19-.3-.35-.61-.54-.91-.19-.3-.31-.64-.5-.93-.19-.3-.37-.6-.56-.9-.19-.3-.63-.43-.82-.73-.19-.3-.2-.71-.39-1.01-.19-.3-.47-.54-.66-.83-.19-.3-.52-.51-.71-.8-.19-.3-.14-.75-.33-1.05-.19-.3-.56-.48-.75-.78-.19-.3-.22-.69-.41-.99-.18-.29-.54-.48-.72-.79-.18-.3-.26-.66-.44-.96-.17-.3-.5-.52-.67-.83-.17-.3-.36-.6-.53-.91-.17-.31-.26-.65-.43-.96-.17-.31-.42-.57-.59-.88-.17-.31-.08-.76-.26-1.06-.18-.31-.28-.66-.46-.95-.18-.3-.51-.52-.7-.81-.19-.3-.37-.6-.56-.89-.2-.29-.49-.51-.7-.79-.24-.32-.55-.54-.75-.8-.25-.32-.46-.6-.69-.82-.3-.3-.53-.52-.8-.66-.34-.18-.62-.28-.98-.22-.3.05-.64.13-1,.35-.27.17-.59.34-.91.6-.25.21-.44.55-.74.82-.27.25-.7.32-.97.58s-.29.75-.54,1.01c-.26.26-.54.49-.79.76-.25.27-.5.53-.75.8-.24.27-.45.58-.69.86-.24.28-.44.59-.67.87-.24.28-.8.29-1.03.57-.23.28-.34.67-.58.95-.23.28-.58.48-.81.76-.23.29-.15.82-.38,1.11-.23.29-.66.41-.89.7-.23.29-.45.58-.67.87-.23.29-.25.74-.48,1.02-.23.29-.51.53-.74.82-.23.29-.57.48-.8.77-.23.29-.58.47-.81.76-.23.28-.3.7-.53.98-.23.28-.45.57-.68.85-.23.28-.38.63-.62.9-.23.28-.48.54-.72.82-.24.28-.68.38-.91.65-.24.28-.35.66-.59.93-.24.28-.41.61-.65.88-.24.28-.75.32-.99.59-.24.28-.35.66-.58.94-.23.28-.52.52-.75.8-.23.28-.43.59-.66.88-.23.28-.27.71-.49,1-.2.25-.65.37-.87.69-.19.28-.34.62-.54.93-.19.29-.15.74-.35,1.05-.19.3-.45.55-.65.85-.2.3-.63.45-.83.74-.2.31-.16.76-.36,1.05-.21.31-.42.6-.62.88-.22.31-.4.64-.61.9-.25.32-.54.58-.75.79-.29.28-.66.52-.98.62-.37.12-.78-.07-1.13-.14-.37-.09-.64-.29-.88-.56-.23-.27-.33-.55-.33-.96,0-.24-.18-.66,0-1.08.13-.28.6-.45.78-.78.16-.29.21-.67.4-.98.18-.29.28-.65.48-.95.19-.3.37-.61.56-.9.2-.3.47-.55.66-.82.22-.31.58-.5.76-.76.25-.35.18-.84.33-1.05.2-.28.52-.48.72-.76.21-.28.48-.51.69-.79.21-.28.41-.56.62-.84.21-.27.28-.66.5-.93.21-.27.44-.53.66-.81.22-.27.48-.5.7-.77.22-.27.61-.4.83-.67.22-.27.27-.68.49-.95.22-.27.41-.56.64-.83.22-.27.64-.37.86-.64.22-.27.54-.46.76-.72s.39-.58.61-.85c.22-.27.48-.51.7-.77.22-.27.4-.57.62-.84.22-.27.44-.54.66-.81.22-.27.25-.69.47-.96.2-.25.63-.36.87-.66.2-.26.18-.73.41-1.02.21-.27.57-.43.79-.72.21-.27.31-.63.54-.92.21-.27.47-.52.69-.8.21-.27.63-.39.85-.67.22-.27.44-.55.66-.83.22-.27.43-.55.65-.82.22-.27.25-.7.47-.98.22-.27.37-.61.6-.88.23-.27.47-.53.7-.8.23-.27.67-.36.9-.62.24-.27.27-.71.5-.98.24-.26.62-.4.86-.65.24-.26.49-.51.74-.76.25-.26.42-.59.67-.83.26-.25.7-.29.96-.52.27-.24.51-.49.78-.71.29-.23.49-.54.76-.73.3-.21.58-.44.87-.6.33-.19.67-.28.98-.39.34-.12.65-.45.99-.5.36-.05.75-.06,1.11-.03.36.02.74.1,1.09.18.34.09.68.28,1.01.42.33.14.55.48.86.67.31.18.77.15,1.05.37.28.22.39.65.64.9"/><path d="M113.7,105.04c-.06.03,0,.48-.23.58-.23.1-.57.29-.95.31-.3.01-.62-.37-.96-.4-.32-.03-.63-.03-.95-.09-.33-.06-.67-.02-.96-.1-.36-.11-.75-.07-.97-.21-.2-.12-.44-.43-.75-.77-.21-.23-.29-.63-.53-.93-.21-.25-.56-.42-.78-.72-.21-.27-.46-.52-.68-.81-.2-.28-.19-.73-.4-1.02-.2-.28-.59-.44-.79-.73-.21-.29-.57-.47-.78-.76-.21-.29-.1-.8-.29-1.09-.21-.3-.41-.59-.6-.87-.21-.31-.4-.61-.58-.88-.22-.32-.54-.53-.71-.8-.24-.35-.37-.69-.52-.91-.2-.29-.58-.45-.78-.75-.2-.29-.41-.57-.62-.86-.2-.29-.42-.56-.63-.86-.2-.29-.11-.78-.31-1.07-.2-.29-.74-.34-.95-.64-.2-.29-.37-.6-.57-.89-.2-.29-.42-.56-.63-.86-.2-.29-.37-.61-.57-.9-.2-.29-.16-.75-.36-1.04-.2-.29-.31-.65-.5-.95-.2-.3-.74-.37-.93-.66-.2-.3-.25-.69-.45-.99-.2-.3-.54-.5-.73-.8-.2-.3-.22-.71-.41-1.01-.19-.3-.47-.55-.66-.85-.19-.3-.44-.57-.63-.87-.19-.3-.14-.75-.33-1.05-.19-.31-.62-.46-.79-.76-.18-.31-.34-.63-.51-.93-.18-.31-.38-.6-.55-.91-.18-.31-.14-.73-.31-1.04-.18-.34-.33-.66-.42-.98-.11-.38-.3-.73-.3-1.06,0-.39.36-.68.49-.98.16-.35.19-.81.49-.98.3-.17.73-.18,1.12-.11.31.05.72.12,1.06.35.26.18.39.59.65.9.2.29.61.44.81.73.2.29.24.69.43.99.2.3.25.68.44.98.19.3.58.47.77.76.19.3.14.75.34,1.05.19.3.46.55.65.85.19.3.53.5.72.8.19.3.36.61.55.91.19.3.2.71.39,1.01.19.3.65.43.84.73.19.3.41.58.6.88.19.3.23.69.42.99.19.3.35.62.54.92.19.3.52.51.71.81.19.3.2.71.39,1.01.19.3.43.56.63.86.19.3.56.48.75.78.19.3.06.81.26,1.1.19.3.48.53.68.83.19.3.34.62.54.92.2.3.6.45.8.74s.2.72.4,1.01c.2.29.61.44.82.73.2.29.2.73.4,1.02.2.29.47.54.67.83.17.24.44.52.69.88.19.28.5.53.73.85.21.3.21.76.42,1.07.22.31.53.56.75.85.24.33.52.59.73.86.29.37.64.55.84.73.33.31.51.73.83.79.37.07.68-.32,1.04-.47.33-.14.76-.13,1.07-.37.3-.23.7-.36.98-.59.26-.22.36-.65.63-.9.25-.24.38-.61.64-.87.24-.25.73-.28.98-.55.24-.26.54-.47.78-.75.23-.26.35-.64.58-.92.23-.27.44-.56.67-.84.22-.27.3-.67.53-.95.22-.28.69-.36.91-.65.22-.28.26-.7.48-.99.22-.28.53-.49.75-.77.22-.28.49-.52.71-.81.21-.29.37-.62.59-.9.21-.29.52-.51.73-.8.21-.29.26-.7.47-.99.21-.29.32-.65.53-.94.21-.29.6-.45.81-.74.21-.29.54-.5.75-.79.21-.3.43-.58.63-.87.21-.3.12-.81.33-1.09.21-.3.39-.61.59-.89.21-.3.71-.38.91-.67.21-.3.42-.59.62-.87.22-.3.42-.59.62-.87.19-.26.13-.73.34-1.03.19-.28.66-.38.85-.68.19-.28.43-.54.62-.84.18-.29.3-.63.49-.92.18-.29.45-.53.63-.83.19-.29.16-.72.35-1.01.19-.29.58-.46.77-.74.19-.29.16-.73.35-1.01.2-.29.6-.44.8-.71.21-.29.19-.74.4-1,.23-.28.58-.44.8-.68.26-.28.4-.66.67-.83.32-.2.74-.12,1.05-.19.37-.08.76-.34,1.07-.24.33.11.49.56.69.85.17.26.37.55.39.93.01.3-.25.59-.36.96-.09.3-.19.58-.37.91-.16.3-.28.63-.46.93-.17.29-.42.54-.61.84-.18.29-.37.58-.56.87-.19.28-.08.78-.28,1.07-.2.28-.4.56-.61.85-.2.28-.4.56-.61.84-.21.28-.66.37-.87.64-.21.27-.53.47-.74.74-.21.27-.29.65-.51.92-.22.27-.47.51-.68.79-.22.27-.18.74-.4,1.01-.22.27-.77.28-.98.55-.22.28-.22.71-.44.99-.21.28-.53.47-.74.74-.21.28-.19.72-.39,1-.2.28-.49.5-.7.8-.2.28-.57.45-.78.74-.2.28-.19.72-.39,1.01-.2.29-.42.56-.62.86-.2.29-.36.6-.57.9-.2.29-.72.35-.92.64-.2.29-.34.61-.55.9-.2.29-.15.76-.35,1.05-.2.29-.64.41-.84.7-.21.29-.24.7-.45.99-.21.29-.46.54-.68.82-.21.28-.52.5-.73.78-.22.28-.48.53-.7.8-.22.28-.22.74-.44,1.01-.23.27-.46.55-.69.81-.23.27-.56.46-.8.72-.24.26-.66.36-.9.61-.25.26-.51.48-.77.73-.26.25-.52.48-.78.71-.27.24-.34.69-.61.92-.28.23-.62.36-.9.57-.29.22-.53.49-.82.69-.3.2-.53.51-.83.69-.31.18-.8.03-1.11.18"/></svg>