<?xml version="1.0" encoding="UTF-8"?><svg id="Layer_1" xmlns="http://www.w3.org/2000/svg" viewBox="0 0 200 200"><path d="M98.18,123.5c.75-.17,1.34-.12,1.75.28.4.39.57,1.03.58,1.74-.03.52-.24,1.04-.26,1.57-.02.53.2,1.06.18,1.59-.02.53.02,1.06.01,1.58,0,.53.05,1.05.05,1.58,0,.53-.35,1.05-.35,1.58,0,.53.35,1.05.36,1.58,0,.53-.39,1.06-.38,1.58,0,.53.03,1.06.03,1.58,0,.53.01,1.06.02,1.58,0,.53.4,1.06.4,1.58,0,.53-.23,1.06-.23,1.59,0,.53-.15,1.06-.16,1.58,0,.53.42,1.06.41,1.59-.01.53-.06,1.06-.07,1.58-.02.53-.31,1.05-.34,1.57-.03.53-.06,1.05-.1,1.58-.04.53.04,1.06,0,1.58-.04.49-.14,1.56-.34,1.96-.22.45-.9.53-1.49.56-.59.04-1.31.13-1.65-.06-.36-.21-.22-.81-.25-1.34-.02-.42.11-.85.18-1.29.08-.53,0-1.06,0-1.36.01-.51-.15-1.02-.13-1.53.01-.51-.07-1.02-.06-1.52.01-.51.4-1.01.41-1.51.01-.51-.04-1.02-.03-1.52.01-.51-.3-1.02-.29-1.53.01-.51-.03-1.02-.02-1.52,0-.51.1-1.01.11-1.52,0-.51-.06-1.02-.05-1.52,0-.51.09-1.01.1-1.52,0-.51.12-1.01.12-1.52,0-.51-.13-1.02-.13-1.53,0-.51.44-1.01.45-1.52,0-.51,0-1.02.01-1.52,0-.51-.49-1.02-.49-1.52,0-.51.43-1.02.42-1.53,0-.51-.24-1.01-.25-1.52,0-.51-.13-1.04-.14-1.55.19-.68.9-1.32,1.62-1.48"/><path d="M98.18,123.5c.75-.17,1.34-.12,1.75.28.4.39.57,1.03.58,1.74-.03.52-.24,1.04-.26,1.57-.02.53.2,1.06.18,1.59-.02.53.02,1.06.01,1.58,0,.53.05,1.05.05,1.58,0,.53-.35,1.05-.35,1.58,0,.53.35,1.05.36,1.58,0,.53-.39,1.06-.38,1.58,0,.53.03,1.06.03,1.58,0,.53.01,1.06.02,1.58,0,.53.4,1.06.4,1.58,0,.53-.23,1.06-.23,1.59,0,.53-.15,1.06-.16,1.58,0,.53.42,1.06.41,1.59-.01.53-.06,1.06-.07,1.58-.02.53-.31,1.05-.34,1.57-.03.53-.06,1.05-.1,1.58-.04.53.04,1.06,0,1.58-.04.49-.14,1.56-.34,1.96-.22.45-.9.53-1.49.56-.59.04-1.31.13-1.65-.06-.36-.21-.22-.81-.25-1.34-.02-.42.11-.85.18-1.29.08-.53,0-1.06,0-1.36.01-.51-.15-1.02-.13-1.53.01-.51-.07-1.02-.06-1.52.01-.51.4-1.01.41-1.51.01-.51-.04-1.02-.03-1.52.01-.51-.3-1.02-.29-1.53.01-.51-.03-1.02-.02-1.52,0-.51.1-1.01.11-1.52,0-.51-.06-1.02-.05-1.52,0-.51.09-1.01.1-1.52,0-.51.12-1.01.12-1.52,0-.51-.13-1.02-.13-1.53,0-.51.44-1.01.45-1.52,0-.51,0-1.02.01-1.52,0-.51-.49-1.02-.49-1.52,0-.51.43-1.02.42-1.53,0-.51-.24-1.01-.25-1.52,0-.51-.13-1.04-.14-1.55.19-.68.9-1.32,1.62-1.48"/><path d="M98.92,45.03c.48-.11.83.14,1.18.3.39.17,1,.15,1.23.53.21.35,0,.91.06,1.36.07.48.14.97.2,1.48.05.48.29.96.33,1.47.04.49-.2,1-.18,1.51.03.49.22.98.24,1.49.02.49.2.99.21,1.49,0,.5-.34,1-.34,1.51,0,.5.22,1,.22,1.5,0,.5.1,1.01.1,1.51,0,.51.13,1.01.12,1.51,0,.51-.03,1.01-.05,1.51-.01.51-.37,1-.38,1.49-.01.51.05,1.01.03,1.5-.02.51.17,1.02.15,1.5-.02.52-.42,1-.44,1.48-.01.33.34,1.01.29,1.74-.04.56-.21,1.16-.26,1.71-.08.81-.07,1.58-.18,1.76-.22.38-.78.59-1.25.7-.45.11-.88-.17-1.3-.31-.47-.16-1.16-.22-1.22-.7-.05-.43.32-.94.3-1.45-.02-.45-.35-.92-.34-1.4,0-.46.37-.93.39-1.41.01-.47,0-.95.02-1.42.02-.48-.32-.97-.31-1.42.01-.5.23-.97.23-1.41,0-.49-.13-.98-.13-1.47,0-.49-.1-.98-.1-1.47,0-.49.03-.98.03-1.47,0-.49.05-.98.06-1.47,0-.49.43-.98.43-1.47,0-.49-.24-.98-.24-1.48,0-.49-.12-.98-.12-1.47,0-.49.31-.99.29-1.48-.01-.46-.48-.93-.54-1.45-.05-.48.06-.99,0-1.49-.06-.5-.27-.98-.32-1.45-.05-.52.26-1.03.26-1.49,0-.42.21-.68.47-1.02.26-.34.43-.77.84-.86"/><path d="M98.92,45.03c.48-.11.83.14,1.18.3.39.17,1,.15,1.23.53.21.35,0,.91.06,1.36.07.48.14.97.2,1.48.05.48.29.96.33,1.47.04.49-.2,1-.18,1.51.03.49.22.98.24,1.49.02.49.2.99.21,1.49,0,.5-.34,1-.34,1.51,0,.5.22,1,.22,1.5,0,.5.1,1.01.1,1.51,0,.51.13,1.01.12,1.51,0,.51-.03,1.01-.05,1.51-.01.51-.37,1-.38,1.49-.01.51.05,1.01.03,1.5-.02.51.17,1.02.15,1.5-.02.52-.42,1-.44,1.48-.01.33.34,1.01.29,1.74-.04.56-.21,1.16-.26,1.71-.08.81-.07,1.58-.18,1.76-.22.38-.78.59-1.25.7-.45.11-.88-.17-1.3-.31-.47-.16-1.16-.22-1.22-.7-.05-.43.32-.94.3-1.45-.02-.45-.35-.92-.34-1.4,0-.46.37-.93.39-1.41.01-.47,0-.95.02-1.42.02-.48-.32-.97-.31-1.42.01-.5.23-.97.23-1.41,0-.49-.13-.98-.13-1.47,0-.49-.1-.98-.1-1.47,0-.49.03-.98.03-1.47,0-.49.05-.98.06-1.47,0-.49.43-.98.43-1.47,0-.49-.24-.98-.24-1.48,0-.49-.12-.98-.12-1.47,0-.49.31-.99.29-1.48-.01-.46-.48-.93-.54-1.45-.05-.48.06-.99,0-1.49-.06-.5-.27-.98-.32-1.45-.05-.52.26-1.03.26-1.49,0-.42.21-.68.47-1.02.26-.34.43-.77.84-.86"/><path d="M67.49,120.31c-.42-.41-.32-1.11-.19-1.69.13-.57.42-1.05.92-1.31.29-.15.78-.3,1.41-.31.45,0,.98-.21,1.49-.18.5.03,1.01.07,1.48.1.57.04,1.08.53,1.46.52.51-.01,1.02-.23,1.53-.24.51-.01,1.02-.08,1.53-.09.51-.01,1.03.13,1.54.12.51-.01,1.02-.36,1.53-.38.51-.01,1.03.18,1.55.16.51-.01,1.02-.3,1.53-.31.51-.02,1.05.11,1.61.07.52-.04,1.06-.07,1.61-.12.53-.05,1.05-.27,1.59-.32.54-.05,1.1.25,1.64.21.54-.04,1.07-.25,1.6-.27.55-.02,1.1-.13,1.62-.12.56,0,1.09.23,1.6.28.61.07,1.13.2,1.5.49.37.29.37.73.34,1.43-.03.74-.26.96-.78,1.19-.48.22-1.01.63-1.62.64-.64,0-1.28-.15-1.75-.11-.51.04-1.02-.05-1.52-.02-.51.03-1,.18-1.5.21-.51.03-1,.25-1.51.27-.51.02-1.02-.31-1.52-.3-.5.02-1-.04-1.5-.03-.5.01-1,.2-1.5.21-.5.01-1,.18-1.5.19-.5,0-1-.02-1.51-.01-.5.01-1.01-.18-1.52-.16-.55.01-1.07.34-1.6.38-.54.04-1.11-.31-1.65-.26-.54.05-1.06.34-1.59.38-.54.04-1.08-.03-1.62-.02-.53.01-1.07.07-1.62.04-.53-.03-1.09.12-1.64.04-.32-.04-1.21-.47-1.42-.68"/><path d="M67.49,120.31c-.42-.41-.32-1.11-.19-1.69.13-.57.42-1.05.92-1.31.29-.15.78-.3,1.41-.31.45,0,.98-.21,1.49-.18.5.03,1.01.07,1.48.1.57.04,1.08.53,1.46.52.51-.01,1.02-.23,1.53-.24.51-.01,1.02-.08,1.53-.09.51-.01,1.03.13,1.54.12.51-.01,1.02-.36,1.53-.38.51-.01,1.03.18,1.55.16.51-.01,1.02-.3,1.53-.31.51-.02,1.05.11,1.61.07.52-.04,1.06-.07,1.61-.12.53-.05,1.05-.27,1.59-.32.54-.05,1.1.25,1.64.21.54-.04,1.07-.25,1.6-.27.55-.02,1.1-.13,1.62-.12.56,0,1.09.23,1.6.28.61.07,1.13.2,1.5.49.37.29.37.73.34,1.43-.03.74-.26.96-.78,1.19-.48.22-1.01.63-1.62.64-.64,0-1.28-.15-1.75-.11-.51.04-1.02-.05-1.52-.02-.51.03-1,.18-1.5.21-.51.03-1,.25-1.51.27-.51.02-1.02-.31-1.52-.3-.5.02-1-.04-1.5-.03-.5.01-1,.2-1.5.21-.5.01-1,.18-1.5.19-.5,0-1-.02-1.51-.01-.5.01-1.01-.18-1.52-.16-.55.01-1.07.34-1.6.38-.54.04-1.11-.31-1.65-.26-.54.05-1.06.34-1.59.38-.54.04-1.08-.03-1.62-.02-.53.01-1.07.07-1.62.04-.53-.03-1.09.12-1.64.04-.32-.04-1.21-.47-1.42-.68"/><path d="M129.93,76.89c.51-.02,1.04-.15,1.45.01.48.19.93.55,1.19.9.29.4.3.96.18,1.43-.1.39-.52.57-.99.91-.17.12-.56.28-1.27.34-.43.04-.9.38-1.42.41-.47.02-.97,0-1.45,0-.51.01-1.01,0-1.45,0-.63.01-1.16-.14-1.45-.12-.49.03-.97.16-1.45.2-.49.04-.96.28-1.44.31-.49.04-1-.26-1.48-.22-.49.03-.97.08-1.46.11-.49.03-.97.04-1.46.06-.49.02-.97.15-1.46.17-.49.02-.97.26-1.46.27-.49,0-.98-.34-1.47-.34-.49,0-.98.34-1.47.33s-.97-.22-1.46-.25c-.38-.02-1.05-.27-1.72-.33-.71-.07-1.44.04-1.75-.06-.65-.19-.87-.73-1.03-1.24-.17-.54-.04-1,.26-1.5.28-.47.59-.75,1.23-.83.35-.05.84-.49,1.4-.45.44.03.91.28,1.39.33.47.05.93.3,1.38.34.53.05,1.03.02,1.41.01.52,0,1.05-.04,1.57-.05.52-.01,1.04-.22,1.56-.24.52-.02,1.06.22,1.58.2.52-.02,1.05.06,1.57.03.52-.03,1.03-.31,1.55-.34.52-.03,1.04-.19,1.56-.22.52-.03,1.05-.03,1.57-.06.52-.03,1.05.09,1.58.05.52-.03,1.03-.31,1.55-.34.52-.03,1.06.27,1.58.24.52-.02,1.04-.05,1.57-.07"/><path d="M129.93,76.89c.51-.02,1.04-.15,1.45.01.48.19.93.55,1.19.9.29.4.3.96.18,1.43-.1.39-.52.57-.99.91-.17.12-.56.28-1.27.34-.43.04-.9.38-1.42.41-.47.02-.97,0-1.45,0-.51.01-1.01,0-1.45,0-.63.01-1.16-.14-1.45-.12-.49.03-.97.16-1.45.2-.49.04-.96.28-1.44.31-.49.04-1-.26-1.48-.22-.49.03-.97.08-1.46.11-.49.03-.97.04-1.46.06-.49.02-.97.15-1.46.17-.49.02-.97.26-1.46.27-.49,0-.98-.34-1.47-.34-.49,0-.98.34-1.47.33s-.97-.22-1.46-.25c-.38-.02-1.05-.27-1.72-.33-.71-.07-1.44.04-1.75-.06-.65-.19-.87-.73-1.03-1.24-.17-.54-.04-1,.26-1.5.28-.47.59-.75,1.23-.83.35-.05.84-.49,1.4-.45.44.03.91.28,1.39.33.47.05.93.3,1.38.34.53.05,1.03.02,1.41.01.52,0,1.05-.04,1.57-.05.52-.01,1.04-.22,1.56-.24.52-.02,1.06.22,1.58.2.52-.02,1.05.06,1.57.03.52-.03,1.03-.31,1.55-.34.52-.03,1.04-.19,1.56-.22.52-.03,1.05-.03,1.57-.06.52-.03,1.05.09,1.58.05.52-.03,1.03-.31,1.55-.34.52-.03,1.06.27,1.58.24.52-.02,1.04-.05,1.57-.07"/><path d="M100.94,110.21c-.21.4-.59.81-1.08.91-.45.09-.93-.24-1.36-.41-.46-.18-1.05-.31-1.2-.78,0-.48.37-.98.37-1.47,0-.48-.18-.96-.18-1.44s.13-.96.13-1.44c0-.48-.26-.96-.26-1.44,0-.48-.07-.96-.08-1.44,0-.48.07-.96.07-1.44s.32-.96.32-1.44-.14-.96-.13-1.44c0-.46-.06-.93-.03-1.41.03-.46.07-.93.1-1.41.03-.47-.13-.95-.1-1.42.02-.47.21-.93.21-1.4,0-.5.22-1.09.18-1.69-.04-.54-.44-1.08-.49-1.64-.05-.57-.17-1.13-.19-1.67-.02-.6.06-1.19.12-1.68.06-.52.43-.9.72-1.25.32-.39.69-.7,1.16-.74.43-.04.83.18,1.27.53.38.3.67.71.84,1.31.13.47.47,1,.5,1.58.03.52-.02,1.09-.04,1.65-.02.54-.4,1.07-.44,1.61-.04.57-.01,1.12-.05,1.63-.05.63-.08,1.19-.08,1.63,0,.52-.14,1.04-.14,1.57,0,.52.03,1.04.04,1.57,0,.52.28,1.04.3,1.56.01.52,0,1.05.01,1.57.01.52-.11,1.05-.1,1.57,0,.52-.14,1.05-.14,1.57,0,.53.28,1.05.28,1.57,0,.53.12,1.06.1,1.57-.02.53-.01,1.06-.05,1.57-.03.44-.42,1.77-.57,2.07"/><path d="M100.94,110.21c-.21.4-.59.81-1.08.91-.45.09-.93-.24-1.36-.41-.46-.18-1.05-.31-1.2-.78,0-.48.37-.98.37-1.47,0-.48-.18-.96-.18-1.44s.13-.96.13-1.44c0-.48-.26-.96-.26-1.44,0-.48-.07-.96-.08-1.44,0-.48.07-.96.07-1.44s.32-.96.32-1.44-.14-.96-.13-1.44c0-.46-.06-.93-.03-1.41.03-.46.07-.93.1-1.41.03-.47-.13-.95-.1-1.42.02-.47.21-.93.21-1.4,0-.5.22-1.09.18-1.69-.04-.54-.44-1.08-.49-1.64-.05-.57-.17-1.13-.19-1.67-.02-.6.06-1.19.12-1.68.06-.52.43-.9.72-1.25.32-.39.69-.7,1.16-.74.43-.04.83.18,1.27.53.38.3.67.71.84,1.31.13.47.47,1,.5,1.58.03.52-.02,1.09-.04,1.65-.02.54-.4,1.07-.44,1.61-.04.57-.01,1.12-.05,1.63-.05.63-.08,1.19-.08,1.63,0,.52-.14,1.04-.14,1.57,0,.52.03,1.04.04,1.57,0,.52.28,1.04.3,1.56.01.52,0,1.05.01,1.57.01.52-.11,1.05-.1,1.57,0,.52-.14,1.05-.14,1.57,0,.53.28,1.05.28,1.57,0,.53.12,1.06.1,1.57-.02.53-.01,1.06-.05,1.57-.03.44-.42,1.77-.57,2.07"/><path d="M114.57,48.02c.48-.09.93.04,1.4.33.48.29.95.57.97,1.11.01.37-.27.8-.52,1.32-.19.4-.21.96-.47,1.39-.26.42-.68.74-.93,1.13-.3.47-.47.95-.64,1.28-.23.46-.48.92-.71,1.39-.23.46-.72.8-.95,1.27-.23.47-.16,1.08-.38,1.55-.22.47-.71.82-.93,1.29-.22.47-.3,1.01-.52,1.48-.22.47-.43.96-.64,1.43-.22.48-.53.91-.74,1.38-.21.48-.27,1.02-.48,1.49-.21.48-.6.87-.81,1.35-.16.36-.2.97-.38,1.57-.15.5-.54.93-.74,1.42-.23.54-.39.98-.73,1.3-.39.35-.8.8-1.41.58-.6-.22-.77-.81-.94-1.27-.18-.46-.1-.92-.01-1.49.08-.51.07-1.06.25-1.56.19-.55.35-1.09.51-1.51.19-.48.47-.94.67-1.44.19-.48.11-1.09.32-1.59.2-.48.56-.91.77-1.4.21-.48.63-.88.84-1.36.22-.48.42-.98.64-1.46.22-.48.43-.97.66-1.45.23-.49.52-.93.75-1.41.24-.48.38-1,.62-1.47.25-.48.36-1.02.6-1.48.18-.34.35-.94.67-1.55.25-.47.67-.9.97-1.39.31-.5.84-.83,1.16-1.23.45-.56.74-.93,1.14-1.01"/><path d="M114.57,48.02c.48-.09.93.04,1.4.33.48.29.95.57.97,1.11.01.37-.27.8-.52,1.32-.19.4-.21.96-.47,1.39-.26.42-.68.74-.93,1.13-.3.47-.47.95-.64,1.28-.23.46-.48.92-.71,1.39-.23.46-.72.8-.95,1.27-.23.47-.16,1.08-.38,1.55-.22.47-.71.82-.93,1.29-.22.47-.3,1.01-.52,1.48-.22.47-.43.96-.64,1.43-.22.48-.53.91-.74,1.38-.21.48-.27,1.02-.48,1.49-.21.48-.6.87-.81,1.35-.16.36-.2.97-.38,1.57-.15.5-.54.93-.74,1.42-.23.54-.39.98-.73,1.3-.39.35-.8.8-1.41.58-.6-.22-.77-.81-.94-1.27-.18-.46-.1-.92-.01-1.49.08-.51.07-1.06.25-1.56.19-.55.35-1.09.51-1.51.19-.48.47-.94.67-1.44.19-.48.11-1.09.32-1.59.2-.48.56-.91.77-1.4.21-.48.63-.88.84-1.36.22-.48.42-.98.64-1.46.22-.48.43-.97.66-1.45.23-.49.52-.93.75-1.41.24-.48.38-1,.62-1.47.25-.48.36-1.02.6-1.48.18-.34.35-.94.67-1.55.25-.47.67-.9.97-1.39.31-.5.84-.83,1.16-1.23.45-.56.74-.93,1.14-1.01"/><path d="M94.42,108.01c-.68.1-1.03.52-1.45.81-.36.25-.88.57-1.68.23-.21-.09-.43-.75-.88-1.38-.26-.36-.5-.82-.81-1.3-.26-.41-.66-.77-.94-1.22-.26-.43-.72-.76-.99-1.2-.27-.44-.41-.96-.67-1.39-.27-.46-.28-1.05-.52-1.47-.28-.48-.5-.96-.73-1.35-.34-.59-.92-.87-1.08-1.14-.22-.35-.24-.97-.58-1.46-.27-.39-.82-.65-1.13-1.09-.29-.41-.73-.73-1.03-1.17-.29-.43-.59-.86-.87-1.29-.29-.44-.56-.9-.81-1.33-.29-.48-.27-1.09-.48-1.51-.29-.56-.54-1.01-.61-1.39-.1-.57.15-.97.46-1.33.33-.38.69-.45,1.24-.41.45.03,1.1-.21,1.55.2.33.3.51.87.88,1.33.3.37.49.88.81,1.33.29.4.51.87.81,1.32.28.42.55.86.83,1.31.27.43.86.69,1.13,1.14.26.45.35,1,.61,1.45.26.45.45.95.7,1.4.26.46.7.81.95,1.25.26.47.47.95.71,1.38.27.48.32,1.05.56,1.47.28.5.59.93.82,1.32.27.45.68.84.99,1.27.31.43.69.82.99,1.26.3.45.45.96.66,1.44.22.49.53.97.58,1.51"/><path d="M94.42,108.01c-.68.1-1.03.52-1.45.81-.36.25-.88.57-1.68.23-.21-.09-.43-.75-.88-1.38-.26-.36-.5-.82-.81-1.3-.26-.41-.66-.77-.94-1.22-.26-.43-.72-.76-.99-1.2-.27-.44-.41-.96-.67-1.39-.27-.46-.28-1.05-.52-1.47-.28-.48-.5-.96-.73-1.35-.34-.59-.92-.87-1.08-1.14-.22-.35-.24-.97-.58-1.46-.27-.39-.82-.65-1.13-1.09-.29-.41-.73-.73-1.03-1.17-.29-.43-.59-.86-.87-1.29-.29-.44-.56-.9-.81-1.33-.29-.48-.27-1.09-.48-1.51-.29-.56-.54-1.01-.61-1.39-.1-.57.15-.97.46-1.33.33-.38.69-.45,1.24-.41.45.03,1.1-.21,1.55.2.33.3.51.87.88,1.33.3.37.49.88.81,1.33.29.4.51.87.81,1.32.28.42.55.86.83,1.31.27.43.86.69,1.13,1.14.26.45.35,1,.61,1.45.26.45.45.95.7,1.4.26.46.7.81.95,1.25.26.47.47.95.71,1.38.27.48.32,1.05.56,1.47.28.5.59.93.82,1.32.27.45.68.84.99,1.27.31.43.69.82.99,1.26.3.45.45.96.66,1.44.22.49.53.97.58,1.51"/><path d="M128.57,59.73c-.38.32-.61.83-1,1.15s-1,.37-1.39.68c-.39.32-.81.6-1.2.91-.39.32-.73.7-1.12,1.01-.39.32-.73.7-1.12,1.01-.39.31-.64.81-1.03,1.12-.39.31-.99.37-1.39.68-.39.32-.77.65-1.16.97-.39.32-.61.84-1,1.16-.29.24-.79.55-1.31,1.02-.37.35-.72.82-1.15,1.22-.41.38-.82.78-1.22,1.15-.44.4-.97.67-1.36,1-.59.5-1.04.98-1.3,1.09-.59.26-1.35.17-1.87-.1-.55-.28-1.03-.89-1.03-1.55,0-.27.32-.81.73-1.33.28-.34.67-.68,1.02-1.05.34-.36.86-.55,1.19-.87.45-.43.67-.97.88-1.17.37-.35.82-.65,1.23-1.02.38-.35.86-.61,1.27-.98.39-.34.57-.95.98-1.31.4-.34,1.11-.34,1.52-.69.4-.34.55-1,.96-1.34.41-.34,1.01-.46,1.42-.8.42-.34.8-.72,1.21-1.05.42-.34.66-.91,1.07-1.23.43-.34.91-.59,1.32-.91.44-.34.88-.64,1.29-.94.52-.38,1.06-.67,1.54-.8.64-.17,1.19.18,1.64.35.58.22,1.04.51,1.06,1.1,0,.45-.25.94-.72,1.49"/><path d="M128.57,59.73c-.38.32-.61.83-1,1.15s-1,.37-1.39.68c-.39.32-.81.6-1.2.91-.39.32-.73.7-1.12,1.01-.39.32-.73.7-1.12,1.01-.39.31-.64.81-1.03,1.12-.39.31-.99.37-1.39.68-.39.32-.77.65-1.16.97-.39.32-.61.84-1,1.16-.29.24-.79.55-1.31,1.02-.37.35-.72.82-1.15,1.22-.41.38-.82.78-1.22,1.15-.44.4-.97.67-1.36,1-.59.5-1.04.98-1.3,1.09-.59.26-1.35.17-1.87-.1-.55-.28-1.03-.89-1.03-1.55,0-.27.32-.81.73-1.33.28-.34.67-.68,1.02-1.05.34-.36.86-.55,1.19-.87.45-.43.67-.97.88-1.17.37-.35.82-.65,1.23-1.02.38-.35.86-.61,1.27-.98.39-.34.57-.95.98-1.31.4-.34,1.11-.34,1.52-.69.4-.34.55-1,.96-1.34.41-.34,1.01-.46,1.42-.8.42-.34.8-.72,1.21-1.05.42-.34.66-.91,1.07-1.23.43-.34.91-.59,1.32-.91.44-.34.88-.64,1.29-.94.52-.38,1.06-.67,1.54-.8.64-.17,1.19.18,1.64.35.58.22,1.04.51,1.06,1.1,0,.45-.25.94-.72,1.49"/><path d="M106.85,83.79c.23-.03.78.4,1.47.64.45.15.89.46,1.4.66.49.19,1.08.15,1.53.32.61.24,1.06.63,1.38.73.52.17,1.12.13,1.65.29.53.16,1.1.16,1.63.31.53.15.97.64,1.5.78.54.14,1.16-.05,1.69.1.53.15,1.01.51,1.53.66.53.15,1.05.33,1.58.5.3.1.78.19,1.3.39.4.15.77.48,1.2.66.44.18,1.06-.04,1.44.15.52.26.99.6,1.18.82.45.51.6,1.32.47,1.84-.14.53-.72.98-1.39,1.19-.56.17-1.14.33-1.63.22-.51-.12-.85-.75-1.33-.99-.47-.23-1.11-.05-1.61-.2-.41-.13-.79-.67-1.37-.82-.46-.12-.94-.32-1.48-.46-.47-.12-.98-.22-1.5-.36-.48-.13-1.01-.16-1.52-.3-.49-.13-1.06-.03-1.56-.18-.5-.14-.95-.44-1.45-.58-.5-.15-.99-.34-1.47-.5-.51-.16-1-.32-1.47-.48-.51-.18-1.03-.28-1.48-.46-.52-.22-.88-.65-1.29-.87-.54-.29-.88-.6-1.18-.88-.41-.4-.59-.7-.68-1.11-.11-.51-.3-1.04.05-1.4.29-.29.82-.57,1.4-.64"/><path d="M106.85,83.79c.23-.03.78.4,1.47.64.45.15.89.46,1.4.66.49.19,1.08.15,1.53.32.61.24,1.06.63,1.38.73.52.17,1.12.13,1.65.29.53.16,1.1.16,1.63.31.53.15.97.64,1.5.78.54.14,1.16-.05,1.69.1.53.15,1.01.51,1.53.66.53.15,1.05.33,1.58.5.3.1.78.19,1.3.39.4.15.77.48,1.2.66.44.18,1.06-.04,1.44.15.52.26.99.6,1.18.82.45.51.6,1.32.47,1.84-.14.53-.72.98-1.39,1.19-.56.17-1.14.33-1.63.22-.51-.12-.85-.75-1.33-.99-.47-.23-1.11-.05-1.61-.2-.41-.13-.79-.67-1.37-.82-.46-.12-.94-.32-1.48-.46-.47-.12-.98-.22-1.5-.36-.48-.13-1.01-.16-1.52-.3-.49-.13-1.06-.03-1.56-.18-.5-.14-.95-.44-1.45-.58-.5-.15-.99-.34-1.47-.5-.51-.16-1-.32-1.47-.48-.51-.18-1.03-.28-1.48-.46-.52-.22-.88-.65-1.29-.87-.54-.29-.88-.6-1.18-.88-.41-.4-.59-.7-.68-1.11-.11-.51-.3-1.04.05-1.4.29-.29.82-.57,1.4-.64"/><path d="M90.97,129.42c.5-.1,1.03-.02,1.41.14.45.19.95.55,1.09.99.12.38-.12.9-.34,1.4-.32.4-.6.83-.92,1.22-.33.39-.87.6-1.2.99s-.32,1.07-.65,1.46c-.33.39-.72.73-1.05,1.12-.33.39-.79.66-1.13,1.05-.33.39-.71.74-1.03,1.13-.33.39-.51.91-.83,1.3-.3.37-.51.85-.83,1.28-.29.4-.91.58-1.21,1-.29.41-.26,1.06-.56,1.47-.3.42-.9.62-1.19,1.03-.31.43-.44.97-.75,1.35-.34.43-.86.65-1.18.99-.36.38-.68.67-1.12.79-.44.12-.82.1-1.28-.26-.54-.43-.88-.88-.81-1.42.06-.51.64-.91.95-1.42.31-.51.41-1.16.69-1.57.27-.4.73-.67,1.03-1.08.28-.39.53-.82.83-1.22.29-.39.34-.97.65-1.37.3-.39.65-.74.96-1.13.31-.39.8-.62,1.12-1,.31-.38.64-.76.95-1.14.32-.38.71-.7,1.02-1.08.32-.38.48-.9.79-1.27.33-.38.85-.59,1.16-.95.25-.29.3-1.07.76-1.6.37-.42.93-.74,1.32-1.12.53-.52,1.03-1.02,1.37-1.09"/><path d="M90.97,129.42c.5-.1,1.03-.02,1.41.14.45.19.95.55,1.09.99.12.38-.12.9-.34,1.4-.32.4-.6.83-.92,1.22-.33.39-.87.6-1.2.99s-.32,1.07-.65,1.46c-.33.39-.72.73-1.05,1.12-.33.39-.79.66-1.13,1.05-.33.39-.71.74-1.03,1.13-.33.39-.51.91-.83,1.3-.3.37-.51.85-.83,1.28-.29.4-.91.58-1.21,1-.29.41-.26,1.06-.56,1.47-.3.42-.9.62-1.19,1.03-.31.43-.44.97-.75,1.35-.34.43-.86.65-1.18.99-.36.38-.68.67-1.12.79-.44.12-.82.1-1.28-.26-.54-.43-.88-.88-.81-1.42.06-.51.64-.91.95-1.42.31-.51.41-1.16.69-1.57.27-.4.73-.67,1.03-1.08.28-.39.53-.82.83-1.22.29-.39.34-.97.65-1.37.3-.39.65-.74.96-1.13.31-.39.8-.62,1.12-1,.31-.38.64-.76.95-1.14.32-.38.71-.7,1.02-1.08.32-.38.48-.9.79-1.27.33-.38.85-.59,1.16-.95.25-.29.3-1.07.76-1.6.37-.42.93-.74,1.32-1.12.53-.52,1.03-1.02,1.37-1.09"/><path d="M87.65,124.34c.67-.13,1.28.12,1.73.39.57.33.86.84.81,1.43-.04.48-.41.79-1.07,1.21-.38.24-.81.54-1.36.79-.45.21-.89.55-1.41.76-.48.2-1.03.28-1.53.47-.5.19-.89.68-1.39.87-.52.19-1.04.33-1.52.52-.54.21-1.04.42-1.47.61-.38.17-.9.31-1.44.57-.43.21-.88.48-1.37.72-.45.22-.84.59-1.32.82-.46.22-1.07.16-1.54.38-.48.22-1,.31-1.47.5-.5.21-.82.84-1.28,1-.53.18-1.13,0-1.59.1-.6.13-1.1.24-1.51.17-.55-.11-1.03-.51-1.2-1.02-.17-.52,0-1.08.47-1.45.48-.19.87-.56,1.34-.77.47-.2,1.02-.23,1.49-.44.47-.21.93-.44,1.4-.66.46-.22.8-.7,1.26-.93.46-.23,1.04-.21,1.5-.44s.97-.35,1.44-.57c.46-.22.78-.76,1.24-.97.47-.22,1.11-.04,1.58-.25.38-.17.74-.61,1.26-.85.42-.2.8-.59,1.28-.81.45-.21,1.09-.01,1.55-.22.47-.21.76-.81,1.21-1,.49-.21,1.04-.21,1.48-.37.56-.2,1.03-.46,1.41-.53"/><path d="M87.65,124.34c.67-.13,1.28.12,1.73.39.57.33.86.84.81,1.43-.04.48-.41.79-1.07,1.21-.38.24-.81.54-1.36.79-.45.21-.89.55-1.41.76-.48.2-1.03.28-1.53.47-.5.19-.89.68-1.39.87-.52.19-1.04.33-1.52.52-.54.21-1.04.42-1.47.61-.38.17-.9.31-1.44.57-.43.21-.88.48-1.37.72-.45.22-.84.59-1.32.82-.46.22-1.07.16-1.54.38-.48.22-1,.31-1.47.5-.5.21-.82.84-1.28,1-.53.18-1.13,0-1.59.1-.6.13-1.1.24-1.51.17-.55-.11-1.03-.51-1.2-1.02-.17-.52,0-1.08.47-1.45.48-.19.87-.56,1.34-.77.47-.2,1.02-.23,1.49-.44.47-.21.93-.44,1.4-.66.46-.22.8-.7,1.26-.93.46-.23,1.04-.21,1.5-.44s.97-.35,1.44-.57c.46-.22.78-.76,1.24-.97.47-.22,1.11-.04,1.58-.25.38-.17.74-.61,1.26-.85.42-.2.8-.59,1.28-.81.45-.21,1.09-.01,1.55-.22.47-.21.76-.81,1.21-1,.49-.21,1.04-.21,1.48-.37.56-.2,1.03-.46,1.41-.53"/><path d="M89.71,110.99c-.24.33-.54.79-.93.97-.4.19-.9-.1-1.3-.2-.48-.12-.97-.22-1.45-.36-.48-.14-1.03-.06-1.51-.21-.48-.15-.84-.63-1.32-.8-.47-.17-1.06,0-1.54-.18-.47-.17-.97-.27-1.44-.45-.47-.18-.78-.77-1.24-.95-.47-.18-.97-.28-1.43-.47-.47-.18-.92-.4-1.39-.58-.47-.18-1.08.03-1.55-.15-.47-.18-.94-.36-1.41-.52-.48-.17-.81-.75-1.29-.9-.48-.15-1.13.16-1.61.03-.56-.29-.77-.99-.88-1.48-.12-.54.05-1.08.39-1.5.32-.39.78-.81,1.41-.78.47.12.96.21,1.42.34.47.13.86.5,1.33.63.46.13.89.39,1.35.53.46.14,1,.02,1.46.16.46.14.88.43,1.34.58.46.15.92.3,1.37.45.33.11.91-.05,1.49.14.42.14.88.31,1.38.48.45.15.8.63,1.27.79.46.15,1.01.07,1.47.23.47.16.9.43,1.34.59.5.18.86.59,1.26.76.6.25,1.24.12,1.48.29.52.37.97.75,1.08,1.11.12.39-.16.91-.55,1.45"/><path d="M89.71,110.99c-.24.33-.54.79-.93.97-.4.19-.9-.1-1.3-.2-.48-.12-.97-.22-1.45-.36-.48-.14-1.03-.06-1.51-.21-.48-.15-.84-.63-1.32-.8-.47-.17-1.06,0-1.54-.18-.47-.17-.97-.27-1.44-.45-.47-.18-.78-.77-1.24-.95-.47-.18-.97-.28-1.43-.47-.47-.18-.92-.4-1.39-.58-.47-.18-1.08.03-1.55-.15-.47-.18-.94-.36-1.41-.52-.48-.17-.81-.75-1.29-.9-.48-.15-1.13.16-1.61.03-.56-.29-.77-.99-.88-1.48-.12-.54.05-1.08.39-1.5.32-.39.78-.81,1.41-.78.47.12.96.21,1.42.34.47.13.86.5,1.33.63.46.13.89.39,1.35.53.46.14,1,.02,1.46.16.46.14.88.43,1.34.58.46.15.92.3,1.37.45.33.11.91-.05,1.49.14.42.14.88.31,1.38.48.45.15.8.63,1.27.79.46.15,1.01.07,1.47.23.47.16.9.43,1.34.59.5.18.86.59,1.26.76.6.25,1.24.12,1.48.29.52.37.97.75,1.08,1.11.12.39-.16.91-.55,1.45"/><path d="M107.18,90.81c.19.23.51.58.75,1.11.19.41.47.81.65,1.23.21.51.6.88.73,1.19.2.46.1,1.05.29,1.51.19.47.57.85.75,1.32.18.47.2,1,.37,1.47.18.47.3.96.48,1.43.17.47.34.95.52,1.42.18.47.58.86.76,1.32.18.47,0,1.08.19,1.55.19.47.58.84.78,1.3-.12.63-.37,1.12-.74,1.45-.43.39-.97.54-1.53.45-.48-.07-.86-.37-1.31-.84-.35-.65-.58-.55-.86-1.23-.27-.68-.29-.68-.56-1.36-.27-.68-.3-.67-.57-1.36-.28-.69-.18-.72-.46-1.41-.28-.68-.1-.76-.38-1.44-.28-.69-.14-.74-.42-1.43-.28-.69-.6-.55-.88-1.24-.28-.69-.02-.79-.3-1.47-.28-.69-.62-.55-.9-1.24-.28-.69.1-.84-.18-1.53-.28-.69-.69-.56-.85-1.28.08-.66.67-1.01,1.04-1.33.43-.38.85-.78,1.42-.67.5.1.8.6,1.21,1.09"/><path d="M107.18,90.81c.19.23.51.58.75,1.11.19.41.47.81.65,1.23.21.51.6.88.73,1.19.2.46.1,1.05.29,1.51.19.47.57.85.75,1.32.18.47.2,1,.37,1.47.18.47.3.96.48,1.43.17.47.34.95.52,1.42.18.47.58.86.76,1.32.18.47,0,1.08.19,1.55.19.47.58.84.78,1.3-.12.63-.37,1.12-.74,1.45-.43.39-.97.54-1.53.45-.48-.07-.86-.37-1.31-.84-.35-.65-.58-.55-.86-1.23-.27-.68-.29-.68-.56-1.36-.27-.68-.3-.67-.57-1.36-.28-.69-.18-.72-.46-1.41-.28-.68-.1-.76-.38-1.44-.28-.69-.14-.74-.42-1.43-.28-.69-.6-.55-.88-1.24-.28-.69-.02-.79-.3-1.47-.28-.69-.62-.55-.9-1.24-.28-.69.1-.84-.18-1.53-.28-.69-.69-.56-.85-1.28.08-.66.67-1.01,1.04-1.33.43-.38.85-.78,1.42-.67.5.1.8.6,1.21,1.09"/><path d="M98.18,123.5c.75-.17,1.34-.12,1.75.28.4.39.57,1.03.58,1.74-.03.52-.24,1.04-.26,1.57-.02.53.2,1.06.18,1.59-.02.53.02,1.06.01,1.58,0,.53.05,1.05.05,1.58,0,.53-.35,1.05-.35,1.58,0,.53.35,1.05.36,1.58,0,.53-.39,1.06-.38,1.58,0,.53.03,1.06.03,1.58,0,.53.01,1.06.02,1.58,0,.53.4,1.06.4,1.58,0,.53-.23,1.06-.23,1.59,0,.53-.15,1.06-.16,1.58,0,.53.42,1.06.41,1.59-.01.53-.06,1.06-.07,1.58-.02.53-.31,1.05-.34,1.57-.03.53-.06,1.05-.1,1.58-.04.53.04,1.06,0,1.58-.04.49-.14,1.56-.34,1.96-.22.45-.9.53-1.49.56-.59.04-1.31.13-1.65-.06-.36-.21-.22-.81-.25-1.34-.02-.42.11-.85.18-1.29.08-.53,0-1.06,0-1.36.01-.51-.15-1.02-.13-1.53.01-.51-.07-1.02-.06-1.52.01-.51.4-1.01.41-1.51.01-.51-.04-1.02-.03-1.52.01-.51-.3-1.02-.29-1.53.01-.51-.03-1.02-.02-1.52,0-.51.1-1.01.11-1.52,0-.51-.06-1.02-.05-1.52,0-.51.09-1.01.1-1.52,0-.51.12-1.01.12-1.52,0-.51-.13-1.02-.13-1.53,0-.51.44-1.01.45-1.52,0-.51,0-1.02.01-1.52,0-.51-.49-1.02-.49-1.52,0-.51.43-1.02.42-1.53,0-.51-.24-1.01-.25-1.52,0-.51-.13-1.04-.14-1.55.19-.68.9-1.32,1.62-1.48"/><path d="M98.92,45.03c.48-.11.83.14,1.18.3.39.17,1,.15,1.23.53.21.35,0,.91.06,1.36.07.48.14.97.2,1.48.05.48.29.96.33,1.47.04.49-.2,1-.18,1.51.03.49.22.98.24,1.49.02.49.2.99.21,1.49,0,.5-.34,1-.34,1.51,0,.5.22,1,.22,1.5,0,.5.1,1.01.1,1.51,0,.51.13,1.01.12,1.51,0,.51-.03,1.01-.05,1.51-.01.51-.37,1-.38,1.49-.01.51.05,1.01.03,1.5-.02.51.17,1.02.15,1.5-.02.52-.42,1-.44,1.48-.01.33.34,1.01.29,1.74-.04.56-.21,1.16-.26,1.71-.08.81-.07,1.58-.18,1.76-.22.38-.78.59-1.25.7-.45.11-.88-.17-1.3-.31-.47-.16-1.16-.22-1.22-.7-.05-.43.32-.94.3-1.45-.02-.45-.35-.92-.34-1.4,0-.46.37-.93.39-1.41.01-.47,0-.95.02-1.42.02-.48-.32-.97-.31-1.42.01-.5.23-.97.23-1.41,0-.49-.13-.98-.13-1.47,0-.49-.1-.98-.1-1.47,0-.49.03-.98.03-1.47,0-.49.05-.98.06-1.47,0-.49.43-.98.43-1.47,0-.49-.24-.98-.24-1.48,0-.49-.12-.98-.12-1.47,0-.49.31-.99.29-1.48-.01-.46-.48-.93-.54-1.45-.05-.48.06-.99,0-1.49-.06-.5-.27-.98-.32-1.45-.05-.52.26-1.03.26-1.49,0-.42.21-.68.47-1.02.26-.34.43-.77.84-.86"/><path d="M67.49,120.31c-.42-.41-.32-1.11-.19-1.69.13-.57.42-1.05.92-1.31.29-.15.78-.3,1.41-.31.45,0,.98-.21,1.49-.18.5.03,1.01.07,1.48.1.57.04,1.08.53,1.46.52.51-.01,1.02-.23,1.53-.24.51-.01,1.02-.08,1.53-.09.51-.01,1.03.13,1.54.12.51-.01,1.02-.36,1.53-.38.51-.01,1.03.18,1.55.16.51-.01,1.02-.3,1.53-.31.51-.02,1.05.11,1.61.07.52-.04,1.06-.07,1.61-.12.53-.05,1.05-.27,1.59-.32.54-.05,1.1.25,1.64.21.54-.04,1.07-.25,1.6-.27.55-.02,1.1-.13,1.62-.12.56,0,1.09.23,1.6.28.61.07,1.13.2,1.5.49.37.29.37.73.34,1.43-.03.74-.26.96-.78,1.19-.48.22-1.01.63-1.62.64-.64,0-1.28-.15-1.75-.11-.51.04-1.02-.05-1.52-.02-.51.03-1,.18-1.5.21-.51.03-1,.25-1.51.27-.51.02-1.02-.31-1.52-.3-.5.02-1-.04-1.5-.03-.5.01-1,.2-1.5.21-.5.01-1,.18-1.5.19-.5,0-1-.02-1.51-.01-.5.01-1.01-.18-1.52-.16-.55.01-1.07.34-1.6.38-.54.04-1.11-.31-1.65-.26-.54.05-1.06.34-1.59.38-.54.04-1.08-.03-1.62-.02-.53.01-1.07.07-1.62.04-.53-.03-1.09.12-1.64.04-.32-.04-1.21-.47-1.42-.68"/><path d="M129.93,76.89c.51-.02,1.04-.15,1.45.01.48.19.93.55,1.19.9.29.4.3.96.18,1.43-.1.39-.52.57-.99.91-.17.12-.56.28-1.27.34-.43.04-.9.38-1.42.41-.47.02-.97,0-1.45,0-.51.01-1.01,0-1.45,0-.63.01-1.16-.14-1.45-.12-.49.03-.97.16-1.45.2-.49.04-.96.28-1.44.31-.49.04-1-.26-1.48-.22-.49.03-.97.08-1.46.11-.49.03-.97.04-1.46.06-.49.02-.97.15-1.46.17-.49.02-.97.26-1.46.27-.49,0-.98-.34-1.47-.34-.49,0-.98.34-1.47.33s-.97-.22-1.46-.25c-.38-.02-1.05-.27-1.72-.33-.71-.07-1.44.04-1.75-.06-.65-.19-.87-.73-1.03-1.24-.17-.54-.04-1,.26-1.5.28-.47.59-.75,1.23-.83.35-.05.84-.49,1.4-.45.44.03.91.28,1.39.33.47.05.93.3,1.38.34.53.05,1.03.02,1.41.01.52,0,1.05-.04,1.57-.05.52-.01,1.04-.22,1.56-.24.52-.02,1.06.22,1.58.2.52-.02,1.05.06,1.57.03.52-.03,1.03-.31,1.55-.34.52-.03,1.04-.19,1.56-.22.52-.03,1.05-.03,1.57-.06.52-.03,1.05.09,1.58.05.52-.03,1.03-.31,1.55-.34.52-.03,1.06.27,1.58.24.52-.02,1.04-.05,1.57-.07"/><path d="M100.94,110.21c-.21.4-.59.81-1.08.91-.45.09-.93-.24-1.36-.41-.46-.18-1.05-.31-1.2-.78,0-.48.37-.98.37-1.47,0-.48-.18-.96-.18-1.44s.13-.96.13-1.44c0-.48-.26-.96-.26-1.44,0-.48-.07-.96-.08-1.44,0-.48.07-.96.07-1.44s.32-.96.32-1.44-.14-.96-.13-1.44c0-.46-.06-.93-.03-1.41.03-.46.07-.93.1-1.41.03-.47-.13-.95-.1-1.42.02-.47.21-.93.21-1.4,0-.5.22-1.09.18-1.69-.04-.54-.44-1.08-.49-1.64-.05-.57-.17-1.13-.19-1.67-.02-.6.06-1.19.12-1.68.06-.52.43-.9.72-1.25.32-.39.69-.7,1.16-.74.43-.04.83.18,1.27.53.38.3.67.71.84,1.31.13.47.47,1,.5,1.58.03.52-.02,1.09-.04,1.65-.02.54-.4,1.07-.44,1.61-.04.57-.01,1.12-.05,1.63-.05.63-.08,1.19-.08,1.63,0,.52-.14,1.04-.14,1.57,0,.52.03,1.04.04,1.57,0,.52.28,1.04.3,1.56.01.52,0,1.05.01,1.57.01.52-.11,1.05-.1,1.57,0,.52-.14,1.05-.14,1.57,0,.53.28,1.05.28,1.57,0,.53.12,1.06.1,1.57-.02.53-.01,1.06-.05,1.57-.03.44-.42,1.77-.57,2.07"/><path d="M114.57,48.02c.48-.09.93.04,1.4.33.48.29.95.57.97,1.11.01.37-.27.8-.52,1.32-.19.4-.21.96-.47,1.39-.26.42-.68.74-.93,1.13-.3.47-.47.95-.64,1.28-.23.46-.48.92-.71,1.39-.23.46-.72.8-.95,1.27-.23.47-.16,1.08-.38,1.55-.22.47-.71.82-.93,1.29-.22.47-.3,1.01-.52,1.48-.22.47-.43.96-.64,1.43-.22.48-.53.91-.74,1.38-.21.48-.27,1.02-.48,1.49-.21.48-.6.87-.81,1.35-.16.36-.2.97-.38,1.57-.15.5-.54.93-.74,1.42-.23.54-.39.98-.73,1.3-.39.35-.8.8-1.41.58-.6-.22-.77-.81-.94-1.27-.18-.46-.1-.92-.01-1.49.08-.51.07-1.06.25-1.56.19-.55.35-1.09.51-1.51.19-.48.47-.94.67-1.44.19-.48.11-1.09.32-1.59.2-.48.56-.91.77-1.4.21-.48.63-.88.84-1.36.22-.48.42-.98.64-1.46.22-.48.43-.97.66-1.45.23-.49.52-.93.75-1.41.24-.48.38-1,.62-1.47.25-.48.36-1.02.6-1.48.18-.34.35-.94.67-1.55.25-.47.67-.9.97-1.39.31-.5.84-.83,1.16-1.23.45-.56.74-.93,1.14-1.01"/><path d="M94.42,108.01c-.68.1-1.03.52-1.45.81-.36.25-.88.57-1.68.23-.21-.09-.43-.75-.88-1.38-.26-.36-.5-.82-.81-1.3-.26-.41-.66-.77-.94-1.22-.26-.43-.72-.76-.99-1.2-.27-.44-.41-.96-.67-1.39-.27-.46-.28-1.05-.52-1.47-.28-.48-.5-.96-.73-1.35-.34-.59-.92-.87-1.08-1.14-.22-.35-.24-.97-.58-1.46-.27-.39-.82-.65-1.13-1.09-.29-.41-.73-.73-1.03-1.17-.29-.43-.59-.86-.87-1.29-.29-.44-.56-.9-.81-1.33-.29-.48-.27-1.09-.48-1.51-.29-.56-.54-1.01-.61-1.39-.1-.57.15-.97.46-1.33.33-.38.69-.45,1.24-.41.45.03,1.1-.21,1.55.2.33.3.51.87.88,1.33.3.37.49.88.81,1.33.29.4.51.87.81,1.32.28.42.55.86.83,1.31.27.43.86.69,1.13,1.14.26.45.35,1,.61,1.45.26.45.45.95.7,1.4.26.46.7.81.95,1.25.26.47.47.95.71,1.38.27.48.32,1.05.56,1.47.28.5.59.93.82,1.32.27.45.68.84.99,1.27.31.43.69.82.99,1.26.3.45.45.96.66,1.44.22.49.53.97.58,1.51"/><path d="M128.57,59.73c-.38.32-.61.83-1,1.15s-1,.37-1.39.68c-.39.32-.81.6-1.2.91-.39.32-.73.7-1.12,1.01-.39.32-.73.7-1.12,1.01-.39.31-.64.81-1.03,1.12-.39.31-.99.37-1.39.68-.39.32-.77.65-1.16.97-.39.32-.61.84-1,1.16-.29.24-.79.55-1.31,1.02-.37.35-.72.82-1.15,1.22-.41.38-.82.78-1.22,1.15-.44.4-.97.67-1.36,1-.59.5-1.04.98-1.3,1.09-.59.26-1.35.17-1.87-.1-.55-.28-1.03-.89-1.03-1.55,0-.27.32-.81.73-1.33.28-.34.67-.68,1.02-1.05.34-.36.86-.55,1.19-.87.45-.43.67-.97.88-1.17.37-.35.82-.65,1.23-1.02.38-.35.86-.61,1.27-.98.39-.34.57-.95.98-1.31.4-.34,1.11-.34,1.52-.69.4-.34.55-1,.96-1.34.41-.34,1.01-.46,1.42-.8.42-.34.8-.72,1.21-1.05.42-.34.66-.91,1.07-1.23.43-.34.91-.59,1.32-.91.44-.34.88-.64,1.29-.94.52-.38,1.06-.67,1.54-.8.64-.17,1.19.18,1.64.35.58.22,1.04.51,1.06,1.1,0,.45-.25.94-.72,1.49"/><path d="M106.85,83.79c.23-.03.78.4,1.47.64.45.15.89.46,1.4.66.49.19,1.08.15,1.53.32.61.24,1.06.63,1.38.73.52.17,1.12.13,1.65.29.53.16,1.1.16,1.63.31.53.15.97.64,1.5.78.54.14,1.16-.05,1.69.1.53.15,1.01.51,1.53.66.53.15,1.05.33,1.58.5.3.1.78.19,1.3.39.4.15.77.48,1.2.66.44.18,1.06-.04,1.44.15.52.26.99.6,1.18.82.45.51.6,1.32.47,1.84-.14.53-.72.98-1.39,1.19-.56.17-1.14.33-1.63.22-.51-.12-.85-.75-1.33-.99-.47-.23-1.11-.05-1.61-.2-.41-.13-.79-.67-1.37-.82-.46-.12-.94-.32-1.48-.46-.47-.12-.98-.22-1.5-.36-.48-.13-1.01-.16-1.52-.3-.49-.13-1.06-.03-1.56-.18-.5-.14-.95-.44-1.45-.58-.5-.15-.99-.34-1.47-.5-.51-.16-1-.32-1.47-.48-.51-.18-1.03-.28-1.48-.46-.52-.22-.88-.65-1.29-.87-.54-.29-.88-.6-1.18-.88-.41-.4-.59-.7-.68-1.11-.11-.51-.3-1.04.05-1.4.29-.29.82-.57,1.4-.64"/><path d="M90.97,129.42c.5-.1,1.03-.02,1.41.14.45.19.95.55,1.09.99.12.38-.12.9-.34,1.4-.32.4-.6.83-.92,1.22-.33.39-.87.6-1.2.99s-.32,1.07-.65,1.46c-.33.39-.72.73-1.05,1.12-.33.39-.79.66-1.13,1.05-.33.39-.71.74-1.03,1.13-.33.39-.51.91-.83,1.3-.3.37-.51.85-.83,1.28-.29.4-.91.58-1.21,1-.29.41-.26,1.06-.56,1.47-.3.42-.9.62-1.19,1.03-.31.43-.44.97-.75,1.35-.34.43-.86.65-1.18.99-.36.38-.68.67-1.12.79-.44.12-.82.1-1.28-.26-.54-.43-.88-.88-.81-1.42.06-.51.64-.91.95-1.42.31-.51.41-1.16.69-1.57.27-.4.73-.67,1.03-1.08.28-.39.53-.82.83-1.22.29-.39.34-.97.65-1.37.3-.39.65-.74.96-1.13.31-.39.8-.62,1.12-1,.31-.38.64-.76.95-1.14.32-.38.71-.7,1.02-1.08.32-.38.48-.9.79-1.27.33-.38.85-.59,1.16-.95.25-.29.3-1.07.76-1.6.37-.42.93-.74,1.32-1.12.53-.52,1.03-1.02,1.37-1.09"/><path d="M87.65,124.34c.67-.13,1.28.12,1.73.39.57.33.86.84.81,1.43-.04.48-.41.79-1.07,1.21-.38.24-.81.54-1.36.79-.45.21-.89.55-1.41.76-.48.2-1.03.28-1.53.47-.5.19-.89.68-1.39.87-.52.19-1.04.33-1.52.52-.54.21-1.04.42-1.47.61-.38.17-.9.31-1.44.57-.43.21-.88.48-1.37.72-.45.22-.84.59-1.32.82-.46.22-1.07.16-1.54.38-.48.22-1,.31-1.47.5-.5.21-.82.84-1.28,1-.53.18-1.13,0-1.59.1-.6.13-1.1.24-1.51.17-.55-.11-1.03-.51-1.2-1.02-.17-.52,0-1.08.47-1.45.48-.19.87-.56,1.34-.77.47-.2,1.02-.23,1.49-.44.47-.21.93-.44,1.4-.66.46-.22.8-.7,1.26-.93.46-.23,1.04-.21,1.5-.44s.97-.35,1.44-.57c.46-.22.78-.76,1.24-.97.47-.22,1.11-.04,1.58-.25.38-.17.74-.61,1.26-.85.42-.2.8-.59,1.28-.81.45-.21,1.09-.01,1.55-.22.47-.21.76-.81,1.21-1,.49-.21,1.04-.21,1.48-.37.56-.2,1.03-.46,1.41-.53"/><path d="M89.71,110.99c-.24.33-.54.79-.93.97-.4.19-.9-.1-1.3-.2-.48-.12-.97-.22-1.45-.36-.48-.14-1.03-.06-1.51-.21-.48-.15-.84-.63-1.32-.8-.47-.17-1.06,0-1.54-.18-.47-.17-.97-.27-1.44-.45-.47-.18-.78-.77-1.24-.95-.47-.18-.97-.28-1.43-.47-.47-.18-.92-.4-1.39-.58-.47-.18-1.08.03-1.55-.15-.47-.18-.94-.36-1.41-.52-.48-.17-.81-.75-1.29-.9-.48-.15-1.13.16-1.61.03-.56-.29-.77-.99-.88-1.48-.12-.54.05-1.08.39-1.5.32-.39.78-.81,1.41-.78.47.12.96.21,1.42.34.47.13.86.5,1.33.63.46.13.89.39,1.35.53.46.14,1,.02,1.46.16.46.14.88.43,1.34.58.46.15.92.3,1.37.45.33.11.91-.05,1.49.14.42.14.88.31,1.38.48.45.15.8.63,1.27.79.46.15,1.01.07,1.47.23.47.16.9.43,1.34.59.5.18.86.59,1.26.76.6.25,1.24.12,1.48.29.52.37.97.75,1.08,1.11.12.39-.16.91-.55,1.45"/><path d="M107.18,90.81c.19.23.51.58.75,1.11.19.41.47.81.65,1.23.21.51.6.88.73,1.19.2.46.1,1.05.29,1.51.19.47.57.85.75,1.32.18.47.2,1,.37,1.47.18.47.3.96.48,1.43.17.47.34.95.52,1.42.18.47.58.86.76,1.32.18.47,0,1.08.19,1.55.19.47.58.84.78,1.3-.12.63-.37,1.12-.74,1.45-.43.39-.97.54-1.53.45-.48-.07-.86-.37-1.31-.84-.35-.65-.58-.55-.86-1.23-.27-.68-.29-.68-.56-1.36-.27-.68-.3-.67-.57-1.36-.28-.69-.18-.72-.46-1.41-.28-.68-.1-.76-.38-1.44-.28-.69-.14-.74-.42-1.43-.28-.69-.6-.55-.88-1.24-.28-.69-.02-.79-.3-1.47-.28-.69-.62-.55-.9-1.24-.28-.69.1-.84-.18-1.53-.28-.69-.69-.56-.85-1.28.08-.66.67-1.01,1.04-1.33.43-.38.85-.78,1.42-.67.5.1.8.6,1.21,1.09"/></svg>