<?xml version="1.0" encoding="UTF-8"?><svg id="Layer_1" xmlns="http://www.w3.org/2000/svg" viewBox="0 0 200 200"><path d="M100.03,60.01c.64-.02,1.25-.03,1.56.3.32.34.37.98.44,1.55.06.47.22,1.02.18,1.55-.03.52-.47,1.01-.53,1.49-.07.59-.13,1.14-.14,1.54,0,.52.3,1.05.3,1.57,0,.52-.3,1.04-.31,1.56,0,.52.15,1.04.15,1.57s-.24,1.04-.24,1.57c0,.52.02,1.04.02,1.57,0,.52.4,1.04.4,1.56,0,.52-.19,1.05-.18,1.57,0,.52.02,1.04.02,1.56,0,.52-.08,1.04-.07,1.57,0,.52.19,1.04.19,1.56,0,.52-.17,1.05-.16,1.57,0,.52.36,1.04.36,1.56,0,.52-.47,1.05-.46,1.57,0,.52.29,1.04.3,1.56,0,.52.18,1.04.18,1.56s-.42,1.04-.42,1.56c0,.52.09,1.04.09,1.56s-.07,1.04-.08,1.56c0,.52.24,1.05.23,1.57,0,.52,0,1.04,0,1.56-.01.52-.26,1.04-.28,1.56-.01.52.1,1.05.08,1.57-.02.52-.07,1.04-.09,1.56-.02.52.07,1.05.05,1.57-.03.52-.11,1.04-.14,1.56-.03.52-.33,1.02-.36,1.54-.04.52.27,1.06.23,1.59-.03.51-.32,1.01-.34,1.52-.02.51.34,1.03.33,1.55,0,.51-.07,1.02-.07,1.54,0,.51.06,1.02.07,1.54,0,.51-.4,1.03-.39,1.55,0,.51.27,1.02.29,1.54.01.51-.21,1.03-.2,1.55.02.51.02,1.03.03,1.54.02.51.33,1.02.35,1.53.02.51-.08,1.03-.06,1.55.02.52-.14,1.03-.13,1.55.01.52.3,1.02.31,1.54.01.52-.34,1.04-.34,1.55,0,.52.21,1.03.21,1.54,0,.52-.19,1.03-.2,1.54,0,.52.46,1.04.44,1.55-.02.52-.38,1.01-.41,1.53-.03.51-.22,1.01-.26,1.52-.03.4.05.92-.07,1.44-.11.49-.09,1.06-.35,1.44-.28.42-.76.71-1.3.71-.55,0-.75-.41-.96-.8-.2-.38-.19-.82-.24-1.26-.06-.53-.53-1.02-.57-1.56-.04-.53.37-1.09.35-1.62-.02-.53-.05-1.06-.06-1.6,0-.53-.22-1.06-.22-1.6,0-.53.18-1.06.18-1.6,0-.53.03-1.07.05-1.6.02-.54-.25-1.08-.23-1.61.02-.54.03-1.07.05-1.61.02-.53.16-1.06.18-1.6.02-.53-.02-1.07,0-1.6.01-.54.15-1.07.16-1.6,0-.52-.14-1.03-.13-1.55,0-.52.25-1.03.26-1.55,0-.52-.31-1.04-.3-1.55,0-.52.37-1.03.37-1.54,0-.52-.43-1.04-.42-1.56,0-.52.01-1.03.02-1.55,0-.52.31-1.03.31-1.54,0-.52-.27-1.04-.27-1.55,0-.52.42-1.03.43-1.54,0-.52-.18-1.04-.17-1.55,0-.52-.03-1.03-.02-1.55,0-.52,0-1.03.02-1.55,0-.52-.14-1.03-.13-1.55,0-.52.3-1.03.31-1.54,0-.52.17-1.03.18-1.55,0-.52-.11-1.03-.1-1.55,0-.52.03-1.03.04-1.55,0-.52-.13-1.03-.12-1.55,0-.52.23-1.03.23-1.55,0-.52-.33-1.04-.32-1.55,0-.52.17-1.03.18-1.55,0-.52-.15-1.03-.15-1.55,0-.52.14-1.03.14-1.55,0-.52-.07-1.03-.07-1.55,0-.52-.11-1.03-.11-1.55,0-.52.39-1.03.39-1.55,0-.52-.14-1.03-.14-1.55,0-.52-.21-1.03-.21-1.55s.47-1.03.47-1.55-.29-1.03-.28-1.55c0-.52.09-1.03.09-1.55,0-.52.14-1.03.13-1.55,0-.52-.06-1.03-.06-1.55,0-.52.07-1.03.07-1.55,0-.52-.42-1.03-.42-1.55,0-.52-.02-1.03-.02-1.55s.31-1.04.3-1.55c0-.52-.25-1.03-.25-1.55,0-.43.33-.85.66-1.13.32-.28.78-.36,1.18-.37"/><path d="M100.03,60.01c.64-.02,1.25-.03,1.56.3.32.34.37.98.44,1.55.06.47.22,1.02.18,1.55-.03.52-.47,1.01-.53,1.49-.07.59-.13,1.14-.14,1.54,0,.52.3,1.05.3,1.57,0,.52-.3,1.04-.31,1.56,0,.52.15,1.04.15,1.57s-.24,1.04-.24,1.57c0,.52.02,1.04.02,1.57,0,.52.4,1.04.4,1.56,0,.52-.19,1.05-.18,1.57,0,.52.02,1.04.02,1.56,0,.52-.08,1.04-.07,1.57,0,.52.19,1.04.19,1.56,0,.52-.17,1.05-.16,1.57,0,.52.36,1.04.36,1.56,0,.52-.47,1.05-.46,1.57,0,.52.29,1.04.3,1.56,0,.52.18,1.04.18,1.56s-.42,1.04-.42,1.56c0,.52.09,1.04.09,1.56s-.07,1.04-.08,1.56c0,.52.24,1.05.23,1.57,0,.52,0,1.04,0,1.56-.01.52-.26,1.04-.28,1.56-.01.52.1,1.05.08,1.57-.02.52-.07,1.04-.09,1.56-.02.52.07,1.05.05,1.57-.03.52-.11,1.04-.14,1.56-.03.52-.33,1.02-.36,1.54-.04.52.27,1.06.23,1.59-.03.51-.32,1.01-.34,1.52-.02.51.34,1.03.33,1.55,0,.51-.07,1.02-.07,1.54,0,.51.06,1.02.07,1.54,0,.51-.4,1.03-.39,1.55,0,.51.27,1.02.29,1.54.01.51-.21,1.03-.2,1.55.02.51.02,1.03.03,1.54.02.51.33,1.02.35,1.53.02.51-.08,1.03-.06,1.55.02.52-.14,1.03-.13,1.55.01.52.3,1.02.31,1.54.01.52-.34,1.04-.34,1.55,0,.52.21,1.03.21,1.54,0,.52-.19,1.03-.2,1.54,0,.52.46,1.04.44,1.55-.02.52-.38,1.01-.41,1.53-.03.51-.22,1.01-.26,1.52-.03.4.05.92-.07,1.44-.11.49-.09,1.06-.35,1.44-.28.42-.76.71-1.3.71-.55,0-.75-.41-.96-.8-.2-.38-.19-.82-.24-1.26-.06-.53-.53-1.02-.57-1.56-.04-.53.37-1.09.35-1.62-.02-.53-.05-1.06-.06-1.6,0-.53-.22-1.06-.22-1.6,0-.53.18-1.06.18-1.6,0-.53.03-1.07.05-1.6.02-.54-.25-1.08-.23-1.61.02-.54.03-1.07.05-1.61.02-.53.16-1.06.18-1.6.02-.53-.02-1.07,0-1.6.01-.54.15-1.07.16-1.6,0-.52-.14-1.03-.13-1.55,0-.52.25-1.03.26-1.55,0-.52-.31-1.04-.3-1.55,0-.52.37-1.03.37-1.54,0-.52-.43-1.04-.42-1.56,0-.52.01-1.03.02-1.55,0-.52.31-1.03.31-1.54,0-.52-.27-1.04-.27-1.55,0-.52.42-1.03.43-1.54,0-.52-.18-1.04-.17-1.55,0-.52-.03-1.03-.02-1.55,0-.52,0-1.03.02-1.55,0-.52-.14-1.03-.13-1.55,0-.52.3-1.03.31-1.54,0-.52.17-1.03.18-1.55,0-.52-.11-1.03-.1-1.55,0-.52.03-1.03.04-1.55,0-.52-.13-1.03-.12-1.55,0-.52.23-1.03.23-1.55,0-.52-.33-1.04-.32-1.55,0-.52.17-1.03.18-1.55,0-.52-.15-1.03-.15-1.55,0-.52.14-1.03.14-1.55,0-.52-.07-1.03-.07-1.55,0-.52-.11-1.03-.11-1.55,0-.52.39-1.03.39-1.55,0-.52-.14-1.03-.14-1.55,0-.52-.21-1.03-.21-1.55s.47-1.03.47-1.55-.29-1.03-.28-1.55c0-.52.09-1.03.09-1.55,0-.52.14-1.03.13-1.55,0-.52-.06-1.03-.06-1.55,0-.52.07-1.03.07-1.55,0-.52-.42-1.03-.42-1.55,0-.52-.02-1.03-.02-1.55s.31-1.04.3-1.55c0-.52-.25-1.03-.25-1.55,0-.43.33-.85.66-1.13.32-.28.78-.36,1.18-.37"/><path d="M90.77,69.25c.58-.08,1.16.01,1.54.37.38.36.51.95.59,1.49.07.52.1,1.11-.22,1.58-.33.37-.58.8-.9,1.18-.31.38-.91.53-1.22.91-.3.39-.48.87-.78,1.26-.3.39-.45.89-.75,1.28-.3.39-.66.73-.97,1.12-.3.39-.53.84-.84,1.22-.31.38-.66.73-.98,1.11-.3.35-.82.61-1.19,1.05-.33.38-.72.75-1.08,1.16-.34.4-.73.76-1.08,1.15-.37.41-.39,1.11-.74,1.47-.41.42-1.04.53-1.39.83-.39.34-.73.52-1.15.61-.43.1-.96.45-1.43.2-.66-.35-.9-1-.97-1.5-.07-.48.32-.95.62-1.56.18-.37.16-1.06.58-1.55.32-.38.81-.7,1.2-1.11.37-.38.72-.81,1.1-1.2.4-.4.77-.79,1.13-1.16.43-.44.89-.76,1.17-1.1.33-.4.88-.65,1.21-1.09.31-.42.25-1.13.57-1.57.31-.43.98-.61,1.3-1.05.31-.44.28-1.13.6-1.55.32-.44.73-.81,1.05-1.22.35-.43.8-.75,1.15-1.13.42-.45,1.27-1.14,1.87-1.23"/><path d="M90.77,69.25c.58-.08,1.16.01,1.54.37.38.36.51.95.59,1.49.07.52.1,1.11-.22,1.58-.33.37-.58.8-.9,1.18-.31.38-.91.53-1.22.91-.3.39-.48.87-.78,1.26-.3.39-.45.89-.75,1.28-.3.39-.66.73-.97,1.12-.3.39-.53.84-.84,1.22-.31.38-.66.73-.98,1.11-.3.35-.82.61-1.19,1.05-.33.38-.72.75-1.08,1.16-.34.4-.73.76-1.08,1.15-.37.41-.39,1.11-.74,1.47-.41.42-1.04.53-1.39.83-.39.34-.73.52-1.15.61-.43.1-.96.45-1.43.2-.66-.35-.9-1-.97-1.5-.07-.48.32-.95.62-1.56.18-.37.16-1.06.58-1.55.32-.38.81-.7,1.2-1.11.37-.38.72-.81,1.1-1.2.4-.4.77-.79,1.13-1.16.43-.44.89-.76,1.17-1.1.33-.4.88-.65,1.21-1.09.31-.42.25-1.13.57-1.57.31-.43.98-.61,1.3-1.05.31-.44.28-1.13.6-1.55.32-.44.73-.81,1.05-1.22.35-.43.8-.75,1.15-1.13.42-.45,1.27-1.14,1.87-1.23"/><path d="M106.91,66.85c.3-.3.96-.56,1.53-.49.55.07.93.63,1.19.98.5.56.73.36,1.24.91.51.56.4.66.92,1.21.51.55.36.7.87,1.25.51.56.79.3,1.3.86.51.56.45.62.96,1.17.51.56.37.69.88,1.24.51.56.73.35,1.25.91.51.55.36.69.87,1.25.51.56.72.37,1.23.93.51.56.34.72.85,1.28.52.56.7.39,1.21.95.52.56.37.69.89,1.25.46.49.63,1.08.69,1.65.06.57.09,1.24-.45,1.75-.47.44-1.05.29-1.57.17-.46-.11-.94-.32-1.4-.71-.4-.33-.73-.77-1.1-1.18-.37-.42-.61-.93-.93-1.33-.4-.5-.81-.93-1.08-1.22-.33-.35-.97-.46-1.36-.85-.35-.35-.53-.91-.92-1.29-.37-.35-.62-.84-1.01-1.2-.37-.36-1.1-.36-1.47-.72-.38-.37-.45-1.04-.81-1.4-.38-.38-.69-.8-1.04-1.16-.37-.39-.87-.64-1.19-1.01-.37-.42-.7-.82-.98-1.21-.26-.35-.34-.85-.53-1.31-.18-.46-.24-.85-.23-1.32.01-.48-.14-.99.22-1.36"/><path d="M106.91,66.85c.3-.3.96-.56,1.53-.49.55.07.93.63,1.19.98.5.56.73.36,1.24.91.51.56.4.66.92,1.21.51.55.36.7.87,1.25.51.56.79.3,1.3.86.51.56.45.62.96,1.17.51.56.37.69.88,1.24.51.56.73.35,1.25.91.51.55.36.69.87,1.25.51.56.72.37,1.23.93.51.56.34.72.85,1.28.52.56.7.39,1.21.95.52.56.37.69.89,1.25.46.49.63,1.08.69,1.65.06.57.09,1.24-.45,1.75-.47.44-1.05.29-1.57.17-.46-.11-.94-.32-1.4-.71-.4-.33-.73-.77-1.1-1.18-.37-.42-.61-.93-.93-1.33-.4-.5-.81-.93-1.08-1.22-.33-.35-.97-.46-1.36-.85-.35-.35-.53-.91-.92-1.29-.37-.35-.62-.84-1.01-1.2-.37-.36-1.1-.36-1.47-.72-.38-.37-.45-1.04-.81-1.4-.38-.38-.69-.8-1.04-1.16-.37-.39-.87-.64-1.19-1.01-.37-.42-.7-.82-.98-1.21-.26-.35-.34-.85-.53-1.31-.18-.46-.24-.85-.23-1.32.01-.48-.14-.99.22-1.36"/><path d="M100.03,60.01c.64-.02,1.25-.03,1.56.3.32.34.37.98.44,1.55.06.47.22,1.02.18,1.55-.03.52-.47,1.01-.53,1.49-.07.59-.13,1.14-.14,1.54,0,.52.3,1.05.3,1.57,0,.52-.3,1.04-.31,1.56,0,.52.15,1.04.15,1.57s-.24,1.04-.24,1.57c0,.52.02,1.04.02,1.57,0,.52.4,1.04.4,1.56,0,.52-.19,1.05-.18,1.57,0,.52.02,1.04.02,1.56,0,.52-.08,1.04-.07,1.57,0,.52.19,1.04.19,1.56,0,.52-.17,1.05-.16,1.57,0,.52.36,1.04.36,1.56,0,.52-.47,1.05-.46,1.57,0,.52.29,1.04.3,1.56,0,.52.18,1.04.18,1.56s-.42,1.04-.42,1.56c0,.52.09,1.04.09,1.56s-.07,1.04-.08,1.56c0,.52.24,1.05.23,1.57,0,.52,0,1.04,0,1.56-.01.52-.26,1.04-.28,1.56-.01.52.1,1.05.08,1.57-.02.52-.07,1.04-.09,1.56-.02.52.07,1.05.05,1.57-.03.52-.11,1.04-.14,1.56-.03.52-.33,1.02-.36,1.54-.04.52.27,1.06.23,1.59-.03.51-.32,1.01-.34,1.52-.02.51.34,1.03.33,1.55,0,.51-.07,1.02-.07,1.54,0,.51.06,1.02.07,1.54,0,.51-.4,1.03-.39,1.55,0,.51.27,1.02.29,1.54.01.51-.21,1.03-.2,1.55.02.51.02,1.03.03,1.54.02.51.33,1.02.35,1.53.02.51-.08,1.03-.06,1.55.02.52-.14,1.03-.13,1.55.01.52.3,1.02.31,1.54.01.52-.34,1.04-.34,1.55,0,.52.21,1.03.21,1.54,0,.52-.19,1.03-.2,1.54,0,.52.46,1.04.44,1.55-.02.52-.38,1.01-.41,1.53-.03.51-.22,1.01-.26,1.52-.03.4.05.92-.07,1.44-.11.49-.09,1.06-.35,1.44-.28.42-.76.71-1.3.71-.55,0-.75-.41-.96-.8-.2-.38-.19-.82-.24-1.26-.06-.53-.53-1.02-.57-1.56-.04-.53.37-1.09.35-1.62-.02-.53-.05-1.06-.06-1.6,0-.53-.22-1.06-.22-1.6,0-.53.18-1.06.18-1.6,0-.53.03-1.07.05-1.6.02-.54-.25-1.08-.23-1.61.02-.54.03-1.07.05-1.61.02-.53.16-1.06.18-1.6.02-.53-.02-1.07,0-1.6.01-.54.15-1.07.16-1.6,0-.52-.14-1.03-.13-1.55,0-.52.25-1.03.26-1.55,0-.52-.31-1.04-.3-1.55,0-.52.37-1.03.37-1.54,0-.52-.43-1.04-.42-1.56,0-.52.01-1.03.02-1.55,0-.52.31-1.03.31-1.54,0-.52-.27-1.04-.27-1.55,0-.52.42-1.03.43-1.54,0-.52-.18-1.04-.17-1.55,0-.52-.03-1.03-.02-1.55,0-.52,0-1.03.02-1.55,0-.52-.14-1.03-.13-1.55,0-.52.3-1.03.31-1.54,0-.52.17-1.03.18-1.55,0-.52-.11-1.03-.1-1.55,0-.52.03-1.03.04-1.55,0-.52-.13-1.03-.12-1.55,0-.52.23-1.03.23-1.55,0-.52-.33-1.04-.32-1.55,0-.52.17-1.03.18-1.55,0-.52-.15-1.03-.15-1.55,0-.52.14-1.03.14-1.55,0-.52-.07-1.03-.07-1.55,0-.52-.11-1.03-.11-1.55,0-.52.39-1.03.39-1.55,0-.52-.14-1.03-.14-1.55,0-.52-.21-1.03-.21-1.55s.47-1.03.47-1.55-.29-1.03-.28-1.55c0-.52.09-1.03.09-1.55,0-.52.14-1.03.13-1.55,0-.52-.06-1.03-.06-1.55,0-.52.07-1.03.07-1.55,0-.52-.42-1.03-.42-1.55,0-.52-.02-1.03-.02-1.55s.31-1.04.3-1.55c0-.52-.25-1.03-.25-1.55,0-.43.33-.85.66-1.13.32-.28.78-.36,1.18-.37"/><path d="M90.77,69.25c.58-.08,1.16.01,1.54.37.38.36.51.95.59,1.49.07.52.1,1.11-.22,1.58-.33.37-.58.8-.9,1.18-.31.38-.91.53-1.22.91-.3.39-.48.87-.78,1.26-.3.39-.45.89-.75,1.28-.3.39-.66.73-.97,1.12-.3.39-.53.84-.84,1.22-.31.38-.66.73-.98,1.11-.3.35-.82.61-1.19,1.05-.33.38-.72.75-1.08,1.16-.34.4-.73.76-1.08,1.15-.37.41-.39,1.11-.74,1.47-.41.42-1.04.53-1.39.83-.39.34-.73.52-1.15.61-.43.1-.96.45-1.43.2-.66-.35-.9-1-.97-1.5-.07-.48.32-.95.62-1.56.18-.37.16-1.06.58-1.55.32-.38.81-.7,1.2-1.11.37-.38.72-.81,1.1-1.2.4-.4.77-.79,1.13-1.16.43-.44.89-.76,1.17-1.1.33-.4.88-.65,1.21-1.09.31-.42.25-1.13.57-1.57.31-.43.98-.61,1.3-1.05.31-.44.28-1.13.6-1.55.32-.44.73-.81,1.05-1.22.35-.43.8-.75,1.15-1.13.42-.45,1.27-1.14,1.87-1.23"/><path d="M106.91,66.85c.3-.3.96-.56,1.53-.49.55.07.93.63,1.19.98.5.56.73.36,1.24.91.51.56.4.66.92,1.21.51.55.36.7.87,1.25.51.56.79.3,1.3.86.51.56.45.62.96,1.17.51.56.37.69.88,1.24.51.56.73.35,1.25.91.51.55.36.69.87,1.25.51.56.72.37,1.23.93.51.56.34.72.85,1.28.52.56.7.39,1.21.95.52.56.37.69.89,1.25.46.49.63,1.08.69,1.65.06.57.09,1.24-.45,1.75-.47.44-1.05.29-1.57.17-.46-.11-.94-.32-1.4-.71-.4-.33-.73-.77-1.1-1.18-.37-.42-.61-.93-.93-1.33-.4-.5-.81-.93-1.08-1.22-.33-.35-.97-.46-1.36-.85-.35-.35-.53-.91-.92-1.29-.37-.35-.62-.84-1.01-1.2-.37-.36-1.1-.36-1.47-.72-.38-.37-.45-1.04-.81-1.4-.38-.38-.69-.8-1.04-1.16-.37-.39-.87-.64-1.19-1.01-.37-.42-.7-.82-.98-1.21-.26-.35-.34-.85-.53-1.31-.18-.46-.24-.85-.23-1.32.01-.48-.14-.99.22-1.36"/></svg>