<?xml version="1.0" encoding="UTF-8"?><svg id="Layer_1" xmlns="http://www.w3.org/2000/svg" viewBox="0 0 200 200"><path d="M96.87,92.57c-.4.05-.81.45-1.3.66-.42.18-.94.23-1.35.5-.41.27-.73.65-1.06.97-.38.37-.54.81-.68,1.19-.14.38-.53.78-.53,1.29,0,.43.3.88.38,1.35.08.45.05.94.19,1.37.15.45.29.92.51,1.3.25.44.65.73.96.99.29.24.61.65,1.08.89.38.19.93.13,1.37.31.43.16.84.38,1.28.52.46.14.95.05,1.38.13.52.1.94.3,1.31.29.42-.01.78-.19,1.21-.39.38-.18.94-.13,1.3-.42.34-.27.38-.87.67-1.2.29-.34.68-.58.9-.95.24-.4.67-.71.79-1.11.14-.46.19-.98.15-1.39-.05-.49-.47-.9-.62-1.35-.16-.46-.44-.82-.69-1.22-.25-.41-.43-.83-.76-1.18-.33-.35-.58-.78-.98-1.06-.39-.28-.86-.43-1.3-.63-.44-.2-.93-.18-1.39-.3-.47-.12-.9-.18-1.38-.21-.48-.03-.96-.41-1.44-.35M97.39,89.01c.5-.02,1-.27,1.48-.23.5.04.96.32,1.43.43.49.11.99.15,1.45.32.47.17.99.25,1.42.48.44.23.69.77,1.09,1.05.4.29.95.4,1.31.73.36.34.59.81.9,1.19.31.38.54.81.79,1.24.25.42.6.8.79,1.25.19.46.16.97.27,1.45.11.48.46.92.49,1.42.03.49-.05.99-.1,1.49-.05.48.06,1.03-.07,1.51-.13.46-.44.9-.65,1.37-.19.44-.37.93-.63,1.36-.27.43-.83.63-1.14.99-.32.38-.39,1.01-.76,1.33-.38.33-.9.49-1.31.74-.43.26-.97.24-1.42.41-.46.18-.89.34-1.37.44-.48.11-.92.49-1.41.52-.49.03-1.01.13-1.5.09-.49-.04-.98-.23-1.46-.33-.48-.1-.91-.4-1.38-.57-.46-.17-.95-.27-1.39-.5-.44-.23-.97-.34-1.37-.62-.4-.28-.82-.6-1.18-.93-.36-.33-.4-.98-.71-1.36-.31-.38-.94-.53-1.2-.96-.26-.41-.06-1.07-.25-1.53-.19-.45-.6-.81-.73-1.29-.12-.47-.43-.93-.49-1.43-.06-.48.02-1,.03-1.5,0-.48.25-.96.32-1.46.07-.5.11-1.02.31-1.49.19-.46.32-1,.61-1.43.28-.41.67-.79,1.03-1.16.35-.37.73-.74,1.13-1.05.4-.32.99-.37,1.42-.62.44-.26.9-.45,1.36-.64.48-.2.9-.52,1.38-.64.51-.12,1.02-.07,1.51-.09"/><path d="M97.59,155.06c-.29-.26-.64-.76-.76-1.41-.11-.61.05-1.27.02-1.67-.03-.38-.4-.82-.43-1.33-.03-.42-.1-.88-.12-1.35-.02-.44.02-.91,0-1.36,0-.46-.01-.92,0-1.36,0-.48.17-.94.21-1.35.05-.52.28-.93.38-1.29.14-.49.23-1.01.57-1.3.38-.32.92-.56,1.38-.54.44.02,1,.24,1.36.65.21.24-.01.86.07,1.48.05.41.4.86.42,1.38.01.45.06.93.05,1.42,0,.46,0,.95-.02,1.43-.02.48-.03.96-.05,1.42-.02.49-.43.96-.45,1.41-.02.51.45,1,.45,1.43,0,.58.03,1.07.09,1.42-.08.49-.61.8-.92,1.06-.34.29-.73.67-1.18.64-.41-.03-.73-.46-1.09-.79"/><path d="M57.3,71.02c.2-.02.58.46,1.22.76.37.17.81.32,1.27.56.39.21.87.3,1.3.54.39.23.86.35,1.27.6.4.24.82.46,1.21.71.4.26.68.7,1.06.95.41.27.9.39,1.26.64.42.3.85.53,1.17.78.55.44.6,1,.66,1.19.19.62.34,1.08.14,1.44-.24.43-.7.85-1.25.94-.46.07-.91-.35-1.43-.52-.65-.36-.61-.4-1.24-.8-.62-.4-.71-.27-1.33-.67-.63-.4-.76-.2-1.38-.6-.62-.4-.43-.7-1.06-1.1-.63-.4-.77-.17-1.4-.57-.63-.4-.49-.62-1.12-1.02-.63-.4-.81-.13-1.42-.55-.36-.3-.37-.83-.36-1.27.01-.43.09-.89.34-1.24.27-.37.67-.73,1.08-.77"/><path d="M145.74,72.9c.64-.07,1.17.32,1.56.63.45.37.69.84.64,1.41-.04.49-.13,1.15-.66,1.57-.31.24-.74.51-1.21.77-.38.21-1,.03-1.45.24-.41.19-.68.74-1.12.93-.43.19-.83.47-1.25.66-.45.2-1.05,0-1.46.19-.47.21-.85.54-1.21.73-.4.21-.63.69-.99.94-.4.28-.9.32-1.32.31-.35-.01-.88-.02-1.29-.47-.45-.49-.35-1.08-.28-1.52.07-.46.37-.83.78-1.21.35-.33.75-.67,1.19-.94.47-.3,1.01-.43,1.39-.65.43-.25.68-.87,1.13-1.1.45-.22.91-.44,1.37-.65.46-.21,1.03-.18,1.49-.38s.89-.48,1.34-.7c.46-.21.9-.51,1.34-.75"/><path d="M118.41,134.66c.48.03.82.61,1.24,1.11.39.48.85.93,1.08,1.31.18.31.34.85.63,1.43.21.43.54.86.78,1.36.22.47.42.96.63,1.43.22.51.4,1.01.58,1.46.25.61.54,1.1.63,1.43.14.51-.18.85-.4,1.21-.24.37-.51.54-.96.68-.43.13-.79.22-1.23.09-.3-.09-.57-.41-.93-1.02-.23-.38-.58-.77-.82-1.27-.2-.43-.33-.93-.54-1.41-.2-.46-.41-.92-.6-1.39-.2-.48-.57-.88-.76-1.32-.22-.5-.29-1.03-.49-1.44-.28-.58-.53-1.04-.76-1.29-.17-.43-.24-.86-.11-1.21.14-.37.52-.62.89-.82.34-.18.74-.35,1.16-.33"/><path d="M119.83,66.8c-.14-.47-.73-.35-1.07-.59-.33-.24-.72-.68-.74-1.24-.01-.36.47-.76.69-1.27.17-.37.28-.82.53-1.25.22-.37.59-.68.85-1.08.25-.37.29-.9.56-1.28.26-.38.72-.62.98-.99.27-.38.47-.81.72-1.17.28-.4.55-.78.77-1.13.29-.45.35-.99.5-1.32.33-.29.89-.24,1.31-.2.41.04.93.05,1.25.32.31.27.65.75.71,1.17.05.38-.38.92-.65,1.51-.2.43-.36.96-.65,1.43-.27.43-.66.82-.95,1.25-.31.45-.48.98-.76,1.38-.36.51-.71.93-.91,1.26-.3.48-.57.94-.79,1.42-.24.52-.39,1.15-.79,1.5-.36.32-.89.21-1.56.25"/><path d="M76.85,53.05c.19.19.45.66.81,1.28.24.42.64.81.9,1.29.25.48.75.83.97,1.26.3.6.37,1.2.51,1.49.13.26.4.62.61,1.05.18.36.11.87.27,1.23.21.46.59.8.63,1.05.08.5-.15.88-.33,1.22-.21.4-.51.58-.92.72-.4.13-.88.49-1.3.34-.38-.13-.78-.53-1.07-.92-.33-.59-.04-.74-.34-1.35-.3-.6-.44-.53-.74-1.14-.3-.6-.43-.54-.73-1.15-.3-.6-.11-.7-.42-1.3-.3-.6-.48-.52-.78-1.12-.31-.61-.33-.6-.63-1.2-.31-.61-.41-.57-.67-1.2-.11-.53.24-1.13.59-1.52.34-.38.85-.52,1.37-.56.48-.04.86.12,1.28.53"/><path d="M61.89,117.17c.46-.06.91-.04,1.27.14.39.2.85.5,1.02.88.17.38.06.9-.07,1.34-.11.36-.38.69-.75,1.03-.19.18-.61.45-1.16.79-.36.22-.75.51-1.2.76-.39.23-.89.32-1.31.55-.42.23-.78.58-1.18.79-.45.24-.91.39-1.3.57-.59.28-1.01.58-1.26.63-.49.11-.93.02-1.32-.04-.5-.08-1.06-.07-1.33-.38-.29-.33-.21-.86-.13-1.36.06-.37.24-.7.56-1.13.54-.39.51-.43,1.09-.75.58-.32.58-.33,1.16-.65.59-.32.68-.16,1.26-.48.58-.32.61-.27,1.2-.59.59-.32.57-.35,1.16-.67.59-.32.57-.35,1.15-.69.58-.34.5-.48,1.11-.75"/><path d="M79.33,131.18c.15.1.95,1.3.93,1.6-.02.3-.24.65-.56,1.17-.21.35-.41.76-.71,1.17-.26.35-.26.94-.56,1.31-.28.35-.83.51-1.13.87-.3.36-.37.91-.66,1.26-.31.37-.72.63-1,.97-.32.39-.73.66-.98.99-.35.45-.73.74-.88,1.03-.42.33-.66.68-1.03.7-.47.03-1.06-.06-1.34-.39-.27-.31-.07-.88-.07-1.36,0-.4-.18-.89.06-1.32.42-.59.48-.54.92-1.11.44-.57.46-.56.89-1.13.44-.57.44-.57.88-1.14.44-.57.46-.55.9-1.13.44-.57.61-.44,1.05-1.01.44-.57.42-.59.86-1.16.44-.57.08-.85.53-1.42.17-.2,1.81.05,1.89.1"/><path d="M130.91,118.71c.49-.47,1.21-1.02,1.86-.73.42.32.79.72,1.24,1,.44.28.75.79,1.2,1.05.45.26.94.46,1.39.72.45.27.92.49,1.35.78.31.21.88.42,1.41.8.43.31,1,.55,1.38.89.52.47.67,1.08.7,1.44.05.55.14,1.02,0,1.38-.18.48-.54.86-1.03.94-.37.06-.91.06-1.44-.15-.2-.08-.66-.5-1.29-.92-.38-.26-.88-.47-1.34-.79-.42-.29-.73-.77-1.15-1.07-.45-.32-.99-.48-1.37-.76-.56-.41-.9-.9-1.13-1.08-.35-.27-.77-.64-1.19-1.01-.42-.37-1.05-.65-1.22-1.08-.19-.47.14-.94.63-1.42"/><path d="M96.18,44.32c.67-.2,1.33-.28,1.75.05.42.33.56,1.02.65,1.66.04.28-.07.77-.03,1.35.03.41.41.85.44,1.33.02.44-.29.91-.28,1.37.02.46-.04.92-.03,1.35,0,.49.42.95.42,1.35,0,.6-.07,1.09-.11,1.37-.08.59-.28,1.12-.55,1.42-.35.39-.96.37-1.43.34-.46-.03-1.07-.04-1.43-.38-.34-.32-.25-.92-.32-1.43-.06-.38-.11-.88-.16-1.47-.04-.46-.32-.95-.34-1.47-.02-.49-.13-.99-.13-1.5,0-.51.13-1.02.15-1.5.02-.54.24-1.02.3-1.47.08-.6-.07-1.16.09-1.5.14-.32.7-.78,1.04-.88"/><path d="M144.38,96.68c.35-.1,1.01-.23,1.73-.23.68,0,1.38-.15,1.78-.14.4.01.95.26,1.55.29.51.03,1.07-.12,1.58-.08.62.05,1.21.04,1.58.12.42.09.79.39,1.11.61.35.24.81.51.94.9.11.35-.23.77-.37,1.23-.13.44-.39.58-.81.76-.36.15-.71.6-1.19.63-.42.02-.89-.07-1.33-.1-.45-.04-.87-.36-1.27-.41-.52-.06-.99-.19-1.32-.19-.45,0-.84.25-1.21.32-.4.07-.77.23-1.19.22-.36,0-.65-.36-1.1-.52-.54-.2-.81-.49-1.07-.95-.28-.5-.53-.94-.43-1.44.11-.53.42-.84,1.01-1.01"/><path d="M54.48,96.54c.53-.02,1.14-.1,1.57.1.49.23.67.81.82,1.29.13.41.42.97.14,1.54-.15.31-.78.53-1.38.71-.41.12-.89.28-1.41.35-.46.07-.96-.04-1.45,0-.48.03-.97.21-1.44.23-.51.01-1.01.05-1.45.04-.62-.01-1.14-.11-1.44-.15-.5-.06-.92-.3-1.3-.44-.49-.18-.94-.33-1.23-.59-.39-.36-.58-.83-.57-1.23,0-.41.33-.7.78-1.01.31-.21.64-.6,1.17-.7.39-.07.86.16,1.38.18.52.01,1-.31,1.46-.32.5,0,.99.42,1.47.4.48-.02.95-.05,1.45-.08.46-.02.92-.3,1.44-.31"/></svg>