<?xml version="1.0" encoding="UTF-8"?><svg id="Layer_1" xmlns="http://www.w3.org/2000/svg" viewBox="0 0 200 200"><path d="M122.14,141.9c.33.35.51.92.91,1.31.36.36.82.64,1.22,1.01.38.36.6.91.99,1.27.4.36.93.57,1.31.9.42.37.76.8,1.13,1.1.23.19.82.3,1.34.65.38.26.73.64,1.15.92.43.28.89.51,1.26.76.6.42.91.89,1,1.02.33.51.58,1.05.43,1.56-.15.52-.61.82-1.29.89-.36.04-.93.09-1.53-.2-.42-.21-.82-.59-1.29-.89-.43-.27-.73-.77-1.15-1.07-.44-.32-.99-.46-1.37-.75-.51-.39-1-.65-1.28-.88-.37-.31-.53-.86-.89-1.19-.36-.32-.75-.6-1.11-.93-.35-.33-.7-.66-1.05-1-.35-.33-.65-.71-1-1.05-.34-.34-.77-.59-1.11-.94-.33-.35-.74-.63-1.07-.99-.33-.35-.64-.72-.96-1.09-.32-.36-.67-.7-.99-1.07-.31-.37-.43-.9-.73-1.28-.31-.37-.59-.76-.89-1.14-.3-.38-.91-.52-1.2-.91-.29-.39-.6-.77-.88-1.16-.29-.39-.4-.9-.68-1.3-.28-.4-.74-.68-1-1.08-.27-.4-.28-.97-.54-1.38-.26-.41-.6-.77-.85-1.18-.25-.42-.61-.77-.84-1.19-.24-.42-.42-.88-.65-1.31-.23-.43-.41-.88-.62-1.32-.22-.44-.35-.9-.55-1.34-.28-.69-.16-.74-.42-1.44-.26-.7-.37-.66-.63-1.36-.26-.7-.24-.71-.5-1.41-.26-.7-.32-.68-.58-1.38-.26-.7-.25-.71-.51-1.41-.26-.7-.25-.71-.51-1.41-.26-.7-.29-.69-.55-1.4-.26-.7-.37-.66-.64-1.37s.01-.85-.41-1.47c-.12.46-.39.94-.52,1.39-.13.45-.09.95-.22,1.4-.13.45-.44.85-.58,1.3-.14.45-.02.98-.17,1.42-.15.45-.53.81-.69,1.25-.16.44-.33.88-.5,1.31-.16.44-.3.89-.47,1.33-.17.44-.49.81-.68,1.24-.18.43-.13.97-.32,1.39-.19.43-.53.79-.73,1.21-.2.42-.19.95-.41,1.37-.21.42-.5.8-.73,1.21-.22.41-.7.68-.94,1.09-.24.4-.48.8-.73,1.19-.25.4-.29.93-.55,1.32-.26.39-.41.86-.68,1.24-.27.38-.56.76-.84,1.13-.28.37-.61.71-.91,1.08-.29.37-.8.57-1.11.93-.31.36-.51.81-.84,1.16-.32.35-.83.51-1.17.85-.33.34-.6.74-.95,1.07-.34.33-.72.61-1.08.93-.36.32-.44.95-.8,1.26-.36.31-.76.58-1.13.88-.37.3-.95.34-1.33.62-.38.29-.71.65-1.09.93-.39.28-.71.65-1.1.92-.39.27-.89.38-1.29.65-.4.26-.79.54-1.19.79-.41.25-.72.66-1.12.9-.41.25-.92.32-1.33.55-.42.24-.69.72-1.11.95-.42.23-.95.25-1.37.46-.27.14-.71.46-1.28.75-.4.21-.95.22-1.43.43-.46.2-.87.49-1.33.64-.52.17-.99.48-1.42.51-.6.03-.97-.28-1.19-.72-.13-.26-.17-.61-.14-1.01.03-.4-.1-.91.09-1.14.08-.09.71-.26,1.41-.62.39-.2.74-.64,1.21-.88.43-.22,1.11,0,1.54-.22.47-.23.81-.69,1.22-.89.6-.3,1.03-.62,1.27-.75.42-.24.82-.49,1.22-.73.41-.25.88-.39,1.28-.64.41-.25.75-.6,1.14-.86.4-.26.76-.58,1.15-.85.4-.27.75-.58,1.14-.86.39-.28.79-.54,1.16-.82.38-.29.87-.43,1.24-.73.38-.3.9-.42,1.26-.72.37-.31.56-.81.92-1.12.36-.32.58-.77.93-1.09.35-.33.88-.46,1.21-.8.33-.34.49-.84.81-1.19.32-.35.86-.51,1.17-.87.31-.36.44-.87.74-1.24.3-.37.48-.82.76-1.2.28-.38.83-.57,1.1-.96.27-.39.6-.75.86-1.15.25-.4.53-.79.77-1.2.24-.4.09-1.04.32-1.46.23-.41.69-.7.91-1.12.22-.42.27-.92.47-1.35.2-.42.33-.88.53-1.32.19-.43.59-.77.78-1.21.18-.43.2-.94.37-1.39.17-.44.67-.76.83-1.21.16-.44.33-.89.49-1.35.16-.44.36-.88.52-1.34.15-.46.17-.96.3-1.4.13-.47.12-.96.22-1.41.11-.47.44-.89.52-1.34.09-.47-.21-.99-.16-1.46.06-.47.15-.93.19-1.39.04-.47.16-.93.17-1.4.01-.47-.02-.94-.03-1.41,0-.47.17-.94.14-1.42-.02-.46-.34-.91-.37-1.39-.03-.46-.03-.93-.08-1.41-.04-.46.19-.96.14-1.44-.05-.46-.23-.91-.28-1.4-.05-.47-.04-.95-.11-1.42-.06-.47-.06-.95-.14-1.41-.08-.47-.4-.89-.49-1.35-.09-.46-.21-.92-.32-1.38-.11-.46-.04-.96-.16-1.42-.12-.46-.33-.89-.47-1.34s-.08-.97-.22-1.42c-.15-.45-.36-.88-.52-1.32-.16-.44-.5-.82-.67-1.26-.17-.44-.36-.87-.55-1.3-.19-.43-.47-.82-.67-1.25-.2-.43-.43-.84-.64-1.26-.21-.42-.19-.97-.41-1.38-.22-.41-.59-.75-.82-1.16-.24-.41-.51-.79-.75-1.2-.25-.4-.53-.78-.79-1.18-.26-.39-.44-.84-.71-1.23-.25-.37-.54-.82-.9-1.25-.32-.38-.78-.68-1.12-1.07-.35-.4-.46-.99-.76-1.36-.38-.46-1.01-.67-1.2-1.03-.26-.49-.08-1.03.02-1.46.11-.49.43-.71.85-.96.39-.23.73-.36,1.26-.26.28.06.83.15,1.32.65.31.32.4.94.75,1.36.31.38.65.75.96,1.16.31.41.58.84.87,1.24.32.44.8.73,1.06,1.11.38.54.71.96.88,1.23.26.41.47.85.72,1.27.25.42.36.92.6,1.34.24.43.53.82.76,1.25.23.43.7.74.92,1.17.22.44.14,1.02.35,1.46.21.44.55.82.75,1.27.2.45.43.88.62,1.33.19.45.52.85.69,1.3.18.46.09,1.01.26,1.47.17.46.27.94.42,1.4.16.46.47.8.62,1.27.13-.46.39-.82.53-1.28.13-.46-.02-1.01.12-1.48.14-.46.52-.85.67-1.31.15-.46.43-.87.58-1.33s.15-.97.31-1.42c.17-.45.43-.87.6-1.32.18-.45.45-.86.64-1.3.19-.44.14-.99.34-1.43.2-.44.42-.87.64-1.3.22-.43.69-.72.92-1.15.24-.42.3-.94.55-1.35.17-.27.23-.8.55-1.27.23-.35.47-.75.75-1.15.26-.37.55-.73.82-1.11.28-.38.55-.76.82-1.12.3-.39.79-.6,1.06-.92.39-.46.58-.99.81-1.16.52-.38,1.36-.29,1.98-.47.68.46.62.53,1.1,1.2.04.19-.24.65-.62,1.2-.23.33-.42.76-.72,1.14-.27.35-.46.79-.74,1.13-.3.37-.75.59-1.01.91-.38.46-.67.85-.81,1.05-.28.4-.7.71-.96,1.12-.26.41-.57.8-.82,1.22-.25.42-.4.91-.63,1.33-.24.43-.47.86-.69,1.29-.22.44-.45.87-.66,1.31-.21.44-.51.85-.7,1.3-.19.45-.11,1.01-.28,1.47-.17.46-.35.91-.51,1.37-.15.46-.47.88-.61,1.35-.14.47-.06,1-.18,1.47-.12.47-.19.96-.29,1.43-.1.48-.5.9-.58,1.38-.08.48-.02.99-.09,1.47-.06.48-.22.96-.27,1.45-.04.49-.01.99-.04,1.47-.02.49.1.98.1,1.47,0,.49-.06.98-.04,1.47.02.49-.02.98.01,1.47.04.49.38.94.44,1.43.06.48-.21,1.01-.13,1.5.08.48.37.92.47,1.4.1.47.33.9.43,1.36.1.46-.21,1.03-.1,1.49.11.46.62.83.74,1.29.12.46.02.98.15,1.44.13.46.24.92.37,1.38.14.46.33.9.47,1.35.14.45.28.91.43,1.36.15.45.4.87.56,1.31.16.45.06.99.22,1.44.17.44.35.89.53,1.33.18.44.47.84.65,1.28.18.44.59.78.78,1.21.19.43.38.87.58,1.3.2.43.49.81.7,1.24.21.43.1,1.01.32,1.43.22.42.74.68.96,1.1.23.42.06,1.05.3,1.46.24.41.73.68.97,1.08.24.41.44.85.69,1.25.25.4.36.9.63,1.29.26.4.82.59,1.09.98.27.39.54.78.82,1.16.28.38.3.96.59,1.34.29.38.66.69.95,1.07.29.37.72.64,1.02,1,.3.36.54.79.85,1.15.31.36.48.85.8,1.2.32.35.96.4,1.29.74"/><path d="M122.14,141.9c.33.35.51.92.91,1.31.36.36.82.64,1.22,1.01.38.36.6.91.99,1.27.4.36.93.57,1.31.9.42.37.76.8,1.13,1.1.23.19.82.3,1.34.65.38.26.73.64,1.15.92.43.28.89.51,1.26.76.6.42.91.89,1,1.02.33.51.58,1.05.43,1.56-.15.52-.61.82-1.29.89-.36.04-.93.09-1.53-.2-.42-.21-.82-.59-1.29-.89-.43-.27-.73-.77-1.15-1.07-.44-.32-.99-.46-1.37-.75-.51-.39-1-.65-1.28-.88-.37-.31-.53-.86-.89-1.19-.36-.32-.75-.6-1.11-.93-.35-.33-.7-.66-1.05-1-.35-.33-.65-.71-1-1.05-.34-.34-.77-.59-1.11-.94-.33-.35-.74-.63-1.07-.99-.33-.35-.64-.72-.96-1.09-.32-.36-.67-.7-.99-1.07-.31-.37-.43-.9-.73-1.28-.31-.37-.59-.76-.89-1.14-.3-.38-.91-.52-1.2-.91-.29-.39-.6-.77-.88-1.16-.29-.39-.4-.9-.68-1.3-.28-.4-.74-.68-1-1.08-.27-.4-.28-.97-.54-1.38-.26-.41-.6-.77-.85-1.18-.25-.42-.61-.77-.84-1.19-.24-.42-.42-.88-.65-1.31-.23-.43-.41-.88-.62-1.32-.22-.44-.35-.9-.55-1.34-.28-.69-.16-.74-.42-1.44-.26-.7-.37-.66-.63-1.36-.26-.7-.24-.71-.5-1.41-.26-.7-.32-.68-.58-1.38-.26-.7-.25-.71-.51-1.41-.26-.7-.25-.71-.51-1.41-.26-.7-.29-.69-.55-1.4-.26-.7-.37-.66-.64-1.37s.01-.85-.41-1.47c-.12.46-.39.94-.52,1.39-.13.45-.09.95-.22,1.4-.13.45-.44.85-.58,1.3-.14.45-.02.98-.17,1.42-.15.45-.53.81-.69,1.25-.16.44-.33.88-.5,1.31-.16.44-.3.89-.47,1.33-.17.44-.49.81-.68,1.24-.18.43-.13.97-.32,1.39-.19.43-.53.79-.73,1.21-.2.42-.19.95-.41,1.37-.21.42-.5.8-.73,1.21-.22.41-.7.68-.94,1.09-.24.4-.48.8-.73,1.19-.25.4-.29.93-.55,1.32-.26.39-.41.86-.68,1.24-.27.38-.56.76-.84,1.13-.28.37-.61.71-.91,1.08-.29.37-.8.57-1.11.93-.31.36-.51.81-.84,1.16-.32.35-.83.51-1.17.85-.33.34-.6.74-.95,1.07-.34.33-.72.61-1.08.93-.36.32-.44.95-.8,1.26-.36.31-.76.58-1.13.88-.37.3-.95.34-1.33.62-.38.29-.71.65-1.09.93-.39.28-.71.65-1.1.92-.39.27-.89.38-1.29.65-.4.26-.79.54-1.19.79-.41.25-.72.66-1.12.9-.41.25-.92.32-1.33.55-.42.24-.69.72-1.11.95-.42.23-.95.25-1.37.46-.27.14-.71.46-1.28.75-.4.21-.95.22-1.43.43-.46.2-.87.49-1.33.64-.52.17-.99.48-1.42.51-.6.03-.97-.28-1.19-.72-.13-.26-.17-.61-.14-1.01.03-.4-.1-.91.09-1.14.08-.09.71-.26,1.41-.62.39-.2.74-.64,1.21-.88.43-.22,1.11,0,1.54-.22.47-.23.81-.69,1.22-.89.6-.3,1.03-.62,1.27-.75.42-.24.82-.49,1.22-.73.41-.25.88-.39,1.28-.64.41-.25.75-.6,1.14-.86.4-.26.76-.58,1.15-.85.4-.27.75-.58,1.14-.86.39-.28.79-.54,1.16-.82.38-.29.87-.43,1.24-.73.38-.3.9-.42,1.26-.72.37-.31.56-.81.92-1.12.36-.32.58-.77.93-1.09.35-.33.88-.46,1.21-.8.33-.34.49-.84.81-1.19.32-.35.86-.51,1.17-.87.31-.36.44-.87.74-1.24.3-.37.48-.82.76-1.2.28-.38.83-.57,1.1-.96.27-.39.6-.75.86-1.15.25-.4.53-.79.77-1.2.24-.4.09-1.04.32-1.46.23-.41.69-.7.91-1.12.22-.42.27-.92.47-1.35.2-.42.33-.88.53-1.32.19-.43.59-.77.78-1.21.18-.43.2-.94.37-1.39.17-.44.67-.76.83-1.21.16-.44.33-.89.49-1.35.16-.44.36-.88.52-1.34.15-.46.17-.96.3-1.4.13-.47.12-.96.22-1.41.11-.47.44-.89.52-1.34.09-.47-.21-.99-.16-1.46.06-.47.15-.93.19-1.39.04-.47.16-.93.17-1.4.01-.47-.02-.94-.03-1.41,0-.47.17-.94.14-1.42-.02-.46-.34-.91-.37-1.39-.03-.46-.03-.93-.08-1.41-.04-.46.19-.96.14-1.44-.05-.46-.23-.91-.28-1.4-.05-.47-.04-.95-.11-1.42-.06-.47-.06-.95-.14-1.41-.08-.47-.4-.89-.49-1.35-.09-.46-.21-.92-.32-1.38-.11-.46-.04-.96-.16-1.42-.12-.46-.33-.89-.47-1.34s-.08-.97-.22-1.42c-.15-.45-.36-.88-.52-1.32-.16-.44-.5-.82-.67-1.26-.17-.44-.36-.87-.55-1.3-.19-.43-.47-.82-.67-1.25-.2-.43-.43-.84-.64-1.26-.21-.42-.19-.97-.41-1.38-.22-.41-.59-.75-.82-1.16-.24-.41-.51-.79-.75-1.2-.25-.4-.53-.78-.79-1.18-.26-.39-.44-.84-.71-1.23-.25-.37-.54-.82-.9-1.25-.32-.38-.78-.68-1.12-1.07-.35-.4-.46-.99-.76-1.36-.38-.46-1.01-.67-1.2-1.03-.26-.49-.08-1.03.02-1.46.11-.49.43-.71.85-.96.39-.23.73-.36,1.26-.26.28.06.83.15,1.32.65.31.32.4.94.75,1.36.31.38.65.75.96,1.16.31.41.58.84.87,1.24.32.44.8.73,1.06,1.11.38.54.71.96.88,1.23.26.41.47.85.72,1.27.25.42.36.92.6,1.34.24.43.53.82.76,1.25.23.43.7.74.92,1.17.22.44.14,1.02.35,1.46.21.44.55.82.75,1.27.2.45.43.88.62,1.33.19.45.52.85.69,1.3.18.46.09,1.01.26,1.47.17.46.27.94.42,1.4.16.46.47.8.62,1.27.13-.46.39-.82.53-1.28.13-.46-.02-1.01.12-1.48.14-.46.52-.85.67-1.31.15-.46.43-.87.58-1.33s.15-.97.31-1.42c.17-.45.43-.87.6-1.32.18-.45.45-.86.64-1.3.19-.44.14-.99.34-1.43.2-.44.42-.87.64-1.3.22-.43.69-.72.92-1.15.24-.42.3-.94.55-1.35.17-.27.23-.8.55-1.27.23-.35.47-.75.75-1.15.26-.37.55-.73.82-1.11.28-.38.55-.76.82-1.12.3-.39.79-.6,1.06-.92.39-.46.58-.99.81-1.16.52-.38,1.36-.29,1.98-.47.68.46.62.53,1.1,1.2.04.19-.24.65-.62,1.2-.23.33-.42.76-.72,1.14-.27.35-.46.79-.74,1.13-.3.37-.75.59-1.01.91-.38.46-.67.85-.81,1.05-.28.4-.7.71-.96,1.12-.26.41-.57.8-.82,1.22-.25.42-.4.91-.63,1.33-.24.43-.47.86-.69,1.29-.22.44-.45.87-.66,1.31-.21.44-.51.85-.7,1.3-.19.45-.11,1.01-.28,1.47-.17.46-.35.91-.51,1.37-.15.46-.47.88-.61,1.35-.14.47-.06,1-.18,1.47-.12.47-.19.96-.29,1.43-.1.48-.5.9-.58,1.38-.08.48-.02.99-.09,1.47-.06.48-.22.96-.27,1.45-.04.49-.01.99-.04,1.47-.02.49.1.98.1,1.47,0,.49-.06.98-.04,1.47.02.49-.02.98.01,1.47.04.49.38.94.44,1.43.06.48-.21,1.01-.13,1.5.08.48.37.92.47,1.4.1.47.33.9.43,1.36.1.46-.21,1.03-.1,1.49.11.46.62.83.74,1.29.12.46.02.98.15,1.44.13.46.24.92.37,1.38.14.46.33.9.47,1.35.14.45.28.91.43,1.36.15.45.4.87.56,1.31.16.45.06.99.22,1.44.17.44.35.89.53,1.33.18.44.47.84.65,1.28.18.44.59.78.78,1.21.19.43.38.87.58,1.3.2.43.49.81.7,1.24.21.43.1,1.01.32,1.43.22.42.74.68.96,1.1.23.42.06,1.05.3,1.46.24.41.73.68.97,1.08.24.41.44.85.69,1.25.25.4.36.9.63,1.29.26.4.82.59,1.09.98.27.39.54.78.82,1.16.28.38.3.96.59,1.34.29.38.66.69.95,1.07.29.37.72.64,1.02,1,.3.36.54.79.85,1.15.31.36.48.85.8,1.2.32.35.96.4,1.29.74"/><path d="M103.31,59.02c.34-.31.8-.58,1.02-1.02.21-.41.35-.9.47-1.38.11-.46.23-.96.25-1.44.02-.48-.28-.95-.35-1.42-.07-.48-.31-.88-.48-1.31-.18-.46-.17-1-.47-1.35-.31-.37-.78-.52-1.22-.71-.41-.18-.83-.41-1.35-.38-.32.02-.93.24-1.6.48-.51.18-.98.58-1.47.81-.65.3-1.41.31-1.63.55-.27.29-.44.88-.57,1.48-.1.46.15,1.01.13,1.55-.02.5-.06,1.01-.02,1.51.05.54-.25,1.13-.13,1.58.15.6.55,1.07.8,1.36.31.36.84.39,1.3.56.43.16.85.27,1.35.3.48.02.95.12,1.42.04.48-.09.9-.32,1.33-.51.47-.21.89-.39,1.22-.69M100.26,46.68c.37-.05.81.17,1.29.23.41.05.83.11,1.26.23.42.11.8.3,1.2.46.42.17.93.1,1.29.3.42.23.9.4,1.17.66.28.26.32.83.54,1.3.18.38.5.74.64,1.2.13.42.09.9.18,1.35.09.44.21.89.27,1.32.07.47.3.91.33,1.33.03.52-.34.98-.37,1.34-.03.41-.04.82-.16,1.24-.12.4,0,.92-.18,1.31-.19.39-.47.76-.7,1.1-.25.37-.81.45-1.11.73-.33.32-.56.75-.95,1.02-.38.27-.66.74-1.08.95-.42.21-.89.36-1.34.51-.45.14-.95.13-1.41.21-.46.08-.94.23-1.4.24-.47,0-.93-.22-1.39-.29-.46-.07-.92-.14-1.36-.3-.54-.19-1.04-.33-1.43-.58-.45-.28-.95-.55-1.25-.97-.27-.37-.2-.99-.41-1.53-.18-.46-.25-.95-.38-1.43-.13-.48-.45-.91-.52-1.41-.08-.49-.07-.99-.09-1.49-.02-.5-.2-1.01-.16-1.51.04-.5.47-.93.58-1.42.11-.49-.14-1.08.04-1.55.19-.49.44-.9.66-1.22.29-.42.69-.7,1.02-.94.37-.25.86-.26,1.28-.44.38-.16.65-.61,1.08-.83.36-.19.94-.05,1.33-.35.5-.23.98-.69,1.52-.77"/><path d="M122.14,141.9c.33.35.51.92.91,1.31.36.36.82.64,1.22,1.01.38.36.6.91.99,1.27.4.36.93.57,1.31.9.42.37.76.8,1.13,1.1.23.19.82.3,1.34.65.38.26.73.64,1.15.92.43.28.89.51,1.26.76.6.42.91.89,1,1.02.33.51.58,1.05.43,1.56-.15.52-.61.82-1.29.89-.36.04-.93.09-1.53-.2-.42-.21-.82-.59-1.29-.89-.43-.27-.73-.77-1.15-1.07-.44-.32-.99-.46-1.37-.75-.51-.39-1-.65-1.28-.88-.37-.31-.53-.86-.89-1.19-.36-.32-.75-.6-1.11-.93-.35-.33-.7-.66-1.05-1-.35-.33-.65-.71-1-1.05-.34-.34-.77-.59-1.11-.94-.33-.35-.74-.63-1.07-.99-.33-.35-.64-.72-.96-1.09-.32-.36-.67-.7-.99-1.07-.31-.37-.43-.9-.73-1.28-.31-.37-.59-.76-.89-1.14-.3-.38-.91-.52-1.2-.91-.29-.39-.6-.77-.88-1.16-.29-.39-.4-.9-.68-1.3-.28-.4-.74-.68-1-1.08-.27-.4-.28-.97-.54-1.38-.26-.41-.6-.77-.85-1.18-.25-.42-.61-.77-.84-1.19-.24-.42-.42-.88-.65-1.31-.23-.43-.41-.88-.62-1.32-.22-.44-.35-.9-.55-1.34-.28-.69-.16-.74-.42-1.44-.26-.7-.37-.66-.63-1.36-.26-.7-.24-.71-.5-1.41-.26-.7-.32-.68-.58-1.38-.26-.7-.25-.71-.51-1.41-.26-.7-.25-.71-.51-1.41-.26-.7-.29-.69-.55-1.4-.26-.7-.37-.66-.64-1.37s.01-.85-.41-1.47c-.12.46-.39.94-.52,1.39-.13.45-.09.95-.22,1.4-.13.45-.44.85-.58,1.3-.14.45-.02.98-.17,1.42-.15.45-.53.81-.69,1.25-.16.44-.33.88-.5,1.31-.16.44-.3.89-.47,1.33-.17.44-.49.81-.68,1.24-.18.43-.13.97-.32,1.39-.19.43-.53.79-.73,1.21-.2.42-.19.95-.41,1.37-.21.42-.5.8-.73,1.21-.22.41-.7.68-.94,1.09-.24.4-.48.8-.73,1.19-.25.4-.29.93-.55,1.32-.26.39-.41.86-.68,1.24-.27.38-.56.76-.84,1.13-.28.37-.61.71-.91,1.08-.29.37-.8.57-1.11.93-.31.36-.51.81-.84,1.16-.32.35-.83.51-1.17.85-.33.34-.6.74-.95,1.07-.34.33-.72.61-1.08.93-.36.32-.44.95-.8,1.26-.36.31-.76.58-1.13.88-.37.3-.95.34-1.33.62-.38.29-.71.65-1.09.93-.39.28-.71.65-1.1.92-.39.27-.89.38-1.29.65-.4.26-.79.54-1.19.79-.41.25-.72.66-1.12.9-.41.25-.92.32-1.33.55-.42.24-.69.72-1.11.95-.42.23-.95.25-1.37.46-.27.14-.71.46-1.28.75-.4.21-.95.22-1.43.43-.46.2-.87.49-1.33.64-.52.17-.99.48-1.42.51-.6.03-.97-.28-1.19-.72-.13-.26-.17-.61-.14-1.01.03-.4-.1-.91.09-1.14.08-.09.71-.26,1.41-.62.39-.2.74-.64,1.21-.88.43-.22,1.11,0,1.54-.22.47-.23.81-.69,1.22-.89.6-.3,1.03-.62,1.27-.75.42-.24.82-.49,1.22-.73.41-.25.88-.39,1.28-.64.41-.25.75-.6,1.14-.86.4-.26.76-.58,1.15-.85.4-.27.75-.58,1.14-.86.39-.28.79-.54,1.16-.82.38-.29.87-.43,1.24-.73.38-.3.9-.42,1.26-.72.37-.31.56-.81.92-1.12.36-.32.58-.77.93-1.09.35-.33.88-.46,1.21-.8.33-.34.49-.84.81-1.19.32-.35.86-.51,1.17-.87.31-.36.44-.87.74-1.24.3-.37.48-.82.76-1.2.28-.38.83-.57,1.1-.96.27-.39.6-.75.86-1.15.25-.4.53-.79.77-1.2.24-.4.09-1.04.32-1.46.23-.41.69-.7.91-1.12.22-.42.27-.92.47-1.35.2-.42.33-.88.53-1.32.19-.43.59-.77.78-1.21.18-.43.2-.94.37-1.39.17-.44.67-.76.83-1.21.16-.44.33-.89.49-1.35.16-.44.36-.88.52-1.34.15-.46.17-.96.3-1.4.13-.47.12-.96.22-1.41.11-.47.44-.89.52-1.34.09-.47-.21-.99-.16-1.46.06-.47.15-.93.19-1.39.04-.47.16-.93.17-1.4.01-.47-.02-.94-.03-1.41,0-.47.17-.94.14-1.42-.02-.46-.34-.91-.37-1.39-.03-.46-.03-.93-.08-1.41-.04-.46.19-.96.14-1.44-.05-.46-.23-.91-.28-1.4-.05-.47-.04-.95-.11-1.42-.06-.47-.06-.95-.14-1.41-.08-.47-.4-.89-.49-1.35-.09-.46-.21-.92-.32-1.38-.11-.46-.04-.96-.16-1.42-.12-.46-.33-.89-.47-1.34s-.08-.97-.22-1.42c-.15-.45-.36-.88-.52-1.32-.16-.44-.5-.82-.67-1.26-.17-.44-.36-.87-.55-1.3-.19-.43-.47-.82-.67-1.25-.2-.43-.43-.84-.64-1.26-.21-.42-.19-.97-.41-1.38-.22-.41-.59-.75-.82-1.16-.24-.41-.51-.79-.75-1.2-.25-.4-.53-.78-.79-1.18-.26-.39-.44-.84-.71-1.23-.25-.37-.54-.82-.9-1.25-.32-.38-.78-.68-1.12-1.07-.35-.4-.46-.99-.76-1.36-.38-.46-1.01-.67-1.2-1.03-.26-.49-.08-1.03.02-1.46.11-.49.43-.71.85-.96.39-.23.73-.36,1.26-.26.28.06.83.15,1.32.65.31.32.4.94.75,1.36.31.38.65.75.96,1.16.31.41.58.84.87,1.24.32.44.8.73,1.06,1.11.38.54.71.96.88,1.23.26.41.47.85.72,1.27.25.42.36.92.6,1.34.24.43.53.82.76,1.25.23.43.7.74.92,1.17.22.44.14,1.02.35,1.46.21.44.55.82.75,1.27.2.45.43.88.62,1.33.19.45.52.85.69,1.3.18.46.09,1.01.26,1.47.17.46.27.94.42,1.4.16.46.47.8.62,1.27.13-.46.39-.82.53-1.28.13-.46-.02-1.01.12-1.48.14-.46.52-.85.67-1.31.15-.46.43-.87.58-1.33s.15-.97.31-1.42c.17-.45.43-.87.6-1.32.18-.45.45-.86.64-1.3.19-.44.14-.99.34-1.43.2-.44.42-.87.64-1.3.22-.43.69-.72.92-1.15.24-.42.3-.94.55-1.35.17-.27.23-.8.55-1.27.23-.35.47-.75.75-1.15.26-.37.55-.73.82-1.11.28-.38.55-.76.82-1.12.3-.39.79-.6,1.06-.92.39-.46.58-.99.81-1.16.52-.38,1.36-.29,1.98-.47.68.46.62.53,1.1,1.2.04.19-.24.65-.62,1.2-.23.33-.42.76-.72,1.14-.27.35-.46.79-.74,1.13-.3.37-.75.59-1.01.91-.38.46-.67.85-.81,1.05-.28.4-.7.71-.96,1.12-.26.41-.57.8-.82,1.22-.25.42-.4.91-.63,1.33-.24.43-.47.86-.69,1.29-.22.44-.45.87-.66,1.31-.21.44-.51.85-.7,1.3-.19.45-.11,1.01-.28,1.47-.17.46-.35.91-.51,1.37-.15.46-.47.88-.61,1.35-.14.47-.06,1-.18,1.47-.12.47-.19.96-.29,1.43-.1.48-.5.9-.58,1.38-.08.48-.02.99-.09,1.47-.06.48-.22.96-.27,1.45-.04.49-.01.99-.04,1.47-.02.49.1.98.1,1.47,0,.49-.06.98-.04,1.47.02.49-.02.98.01,1.47.04.49.38.94.44,1.43.06.48-.21,1.01-.13,1.5.08.48.37.92.47,1.4.1.47.33.9.43,1.36.1.46-.21,1.03-.1,1.49.11.46.62.83.74,1.29.12.46.02.98.15,1.44.13.46.24.92.37,1.38.14.46.33.9.47,1.35.14.45.28.91.43,1.36.15.45.4.87.56,1.31.16.45.06.99.22,1.44.17.44.35.89.53,1.33.18.44.47.84.65,1.28.18.44.59.78.78,1.21.19.43.38.87.58,1.3.2.43.49.81.7,1.24.21.43.1,1.01.32,1.43.22.42.74.68.96,1.1.23.42.06,1.05.3,1.46.24.41.73.68.97,1.08.24.41.44.85.69,1.25.25.4.36.9.63,1.29.26.4.82.59,1.09.98.27.39.54.78.82,1.16.28.38.3.96.59,1.34.29.38.66.69.95,1.07.29.37.72.64,1.02,1,.3.36.54.79.85,1.15.31.36.48.85.8,1.2.32.35.96.4,1.29.74"/></svg>