<?xml version="1.0" encoding="UTF-8"?><svg id="Layer_1" xmlns="http://www.w3.org/2000/svg" viewBox="0 0 200 200"><path d="M92.34,67.03c.46-.04.94-.05,1.43-.07.47-.02.95-.2,1.44-.2.47,0,.94.3,1.43.32.47.02.98-.3,1.46-.26.47.04.91.49,1.39.54.47.05.95.03,1.43.1.47.07.92.26,1.4.35.47.08.94.15,1.41.25.47.1,1.03-.21,1.5-.1.46.12.89.42,1.35.55.46.13.96.14,1.42.28.46.15.94.24,1.39.4.45.16.82.56,1.27.73.45.18.91.32,1.35.51.44.19.95.25,1.38.46.44.21.81.55,1.22.78.43.23.9.38,1.31.63.42.25.77.59,1.16.86.4.28.6.81.97,1.1.38.3.78.56,1.12.87.36.33.68.67,1,1.01.21.23.71.47,1.06.96.26.36.56.76.81,1.18.25.42.44.88.6,1.3.19.51.4,1.02.34,1.42-.07.46-.52.6-1.1.77-.66.2-1.02.18-1.41-.07-.42-.27-.64-.71-.93-1.2-.28-.46-.65-.89-.99-1.28-.31-.36-.8-.57-1.15-.91-.34-.34-.75-.59-1.12-.91-.36-.31-.45-.99-.84-1.28-.39-.29-.92-.38-1.33-.65-.4-.26-.71-.71-1.13-.95-.42-.24-.99-.22-1.42-.45-.43-.22-.93-.3-1.37-.5-.44-.2-.72-.76-1.17-.95-.45-.18-.94-.27-1.4-.43-.46-.16-.93-.29-1.39-.44-.46-.15-.96-.16-1.43-.29-.47-.13-.96-.13-1.44-.24-.47-.11-.87-.56-1.35-.65-.48-.09-.98-.06-1.46-.13-.48-.07-.98,0-1.46-.05-.49-.05-.96-.25-1.44-.28-.49-.03-.98.04-1.46.03-.49,0-.98-.23-1.46-.22-.49.01-.97.28-1.44.32-.49.04-.96.18-1.43.24-.48.07-.97.03-1.45.12-.48.09-.95.2-1.42.31-.47.11-.97.1-1.44.24-.47.13-.9.36-1.36.51-.46.15-.93.29-1.38.46-.45.18-.93.29-1.37.49s-.83.5-1.27.72c-.43.21-.74.66-1.16.89-.42.23-1,.2-1.41.45-.41.25-.83.5-1.23.77-.4.27-.8.55-1.19.83-.39.28-.58.83-.96,1.13-.38.3-.96.35-1.32.67-.37.32-.76.6-1.12.93-.35.33-.47.9-.81,1.25-.34.34-.72.64-1.05.99-.32.36-.83.56-1.14.93-.31.37-.47.86-.77,1.24-.29.38-.67.71-.95,1.1-.28.39-.51.82-.78,1.22-.26.4-.3.95-.54,1.36s-.86.62-1.08,1.05c-.23.43-.31.93-.52,1.37-.21.43-.25.95-.44,1.39-.19.44-.72.75-.89,1.2-.17.45-.23.95-.39,1.41-.15.46-.07.99-.21,1.45-.13.46-.47.87-.59,1.34-.11.47-.23.94-.32,1.42-.09.47-.17.96-.24,1.43-.07.48,0,.97-.06,1.46-.05.48-.31.95-.34,1.43-.03.46.16.95.18,1.43.02.46-.16.96-.1,1.44.06.46.24.92.34,1.39.09.46.47.85.6,1.31.12.45.06.96.21,1.41.15.44.17.94.34,1.39.17.44.69.73.88,1.17.19.43.14.97.35,1.4.21.42.36.88.58,1.3.22.41.84.61,1.08,1.02.24.41.15,1.02.4,1.41.26.4.56.77.83,1.15.27.39.44.86.73,1.23.29.38.81.58,1.1.94.3.37.76.59,1.07.94.32.36.42.9.75,1.23.34.34.65.7,1,1.02.35.33.81.52,1.17.81.38.3.66.71,1.03.98.4.28.85.48,1.27.73.42.24.88.4,1.32.62.43.21.86.43,1.32.62.44.19.89.37,1.36.54.45.16.95.19,1.42.33.46.14.89.41,1.37.53.47.11.97.08,1.45.18.48.09.9.49,1.39.56.48.07,1-.16,1.49-.1.48.05.94.43,1.43.47.49.04.99-.24,1.48-.21.49.02.97.36,1.46.36.49,0,.98-.04,1.47-.05.49-.01.98-.09,1.47-.11.49-.02.96-.32,1.44-.37.49-.04,1.01.27,1.49.21.49-.05.92-.52,1.4-.59.49-.07.95-.2,1.43-.29.48-.08,1.01.1,1.49,0,.48-.1.92-.37,1.39-.48.48-.11,1.01.01,1.48-.11.47-.13.86-.54,1.33-.68.47-.14.96-.2,1.42-.36.47-.16.87-.47,1.32-.64.46-.18.99-.16,1.43-.35.45-.2.86-.47,1.29-.68.44-.22.86-.46,1.28-.69.45-.25.93-.41,1.35-.65.45-.26.8-.65,1.21-.9.44-.27.87-.51,1.28-.78.43-.29.86-.53,1.24-.83.41-.31.8-.61,1.17-.93.38-.33.91-.5,1.26-.85.35-.36.45-.93.77-1.32.31-.38.88-.58,1.17-1,.27-.4.39-.93.65-1.37.24-.42.58-.81.8-1.27.21-.43.41-.9.62-1.37.19-.44.24-.97.42-1.45.15-.39.3-.91.45-1.49.12-.47.14-1.01.26-1.54.11-.51.45-.98.56-1.47.13-.54.2-1.07.33-1.52.18-.63.16-1.26.37-1.55.29-.41.83-.32,1.25-.32.43,0,1-.17,1.35.1.37.29.38.87.42,1.27.03.35.05.83-.04,1.42-.07.44.11.98,0,1.48-.1.46-.38.9-.51,1.38-.12.47-.33.93-.46,1.38-.15.49-.13,1.02-.27,1.44-.18.55-.37,1.02-.51,1.37-.18.45-.5.85-.7,1.29-.21.44-.59.78-.82,1.21-.23.43-.24.98-.49,1.39-.26.41-.59.78-.87,1.17-.28.4-.74.65-1.05,1.03-.3.38-.24,1.07-.56,1.43-.32.36-.76.62-1.11.97-.34.34-.83.53-1.19.86-.36.33-.71.65-1.08.97-.37.31-.62.78-1.01,1.07-.39.29-.8.55-1.2.83-.4.27-.75.63-1.16.89-.41.26-.93.34-1.35.58-.42.24-.87.42-1.3.65-.43.22-.89.39-1.33.6-.44.21-.93.27-1.38.46-.44.19-.87.42-1.32.6-.45.18-.88.39-1.34.55-.46.16-.95.19-1.42.34-.46.15-.84.57-1.31.7-.47.13-.91.38-1.38.49-.47.12-1.04-.18-1.51-.07-.47.1-.87.57-1.35.66-.48.09-.97.12-1.45.19-.48.08-.99-.08-1.47-.01-.48.06-.95.2-1.43.25-.48.05-.96.16-1.44.19-.49.03-.97.18-1.45.2-.49.02-.98-.12-1.46-.12-.49,0-.97.25-1.46.24-.49,0-.96-.32-1.45-.34-.49-.02-.97-.03-1.45-.07-.49-.04-.96-.18-1.44-.23-.49-.05-.97-.09-1.44-.15-.48-.07-1,.1-1.48.02-.48-.08-.93-.35-1.4-.45-.48-.1-.98-.07-1.45-.19-.47-.12-.95-.24-1.41-.38-.46-.14-.82-.57-1.27-.74-.45-.17-.92-.26-1.36-.47-.43-.2-.89-.36-1.32-.6-.42-.23-.87-.42-1.28-.68-.4-.26-.88-.42-1.28-.7-.39-.28-.53-.89-.91-1.19-.38-.3-.86-.46-1.22-.78-.36-.32-.8-.56-1.14-.89-.35-.34-.5-.86-.83-1.21-.33-.35-.92-.47-1.23-.84-.31-.36-.3-1-.6-1.38-.3-.38-.71-.66-.99-1.05-.28-.39-.72-.67-.99-1.08-.27-.4-.5-.83-.75-1.24s-.26-.96-.49-1.39-.6-.77-.81-1.2c-.22-.43-.69-.74-.89-1.18-.2-.44-.41-.89-.59-1.33-.19-.45-.37-.9-.54-1.35-.17-.46.05-1.04-.1-1.5-.15-.46-.42-.88-.55-1.34-.13-.47-.34-.91-.45-1.38-.11-.47-.24-.95-.32-1.42-.09-.48-.11-.97-.17-1.44-.06-.48.1-.98.07-1.46-.04-.49.03-.96.02-1.44-.01-.49-.38-.97-.36-1.45.02-.49.21-.96.26-1.43.05-.48.05-.97.13-1.44.08-.47.41-.89.52-1.36.1-.47.18-.94.31-1.4.12-.47-.04-1.01.1-1.47.14-.46.5-.85.66-1.3.16-.45.36-.88.54-1.33.17-.45.15-.98.34-1.42.19-.44.38-.89.58-1.32.21-.43.42-.87.64-1.3.22-.43.37-.9.6-1.32.24-.42.73-.69.98-1.1.25-.41.6-.75.86-1.15.27-.4.4-.89.68-1.28.28-.39.46-.86.75-1.24.29-.38.68-.69.98-1.06.31-.37.81-.56,1.14-.92.32-.36.6-.74.94-1.09.33-.35.6-.75.95-1.08.35-.33.51-.86.87-1.18.36-.32.76-.6,1.13-.91.37-.3.83-.51,1.21-.8.38-.29.78-.57,1.17-.84.39-.28.77-.59,1.17-.85.4-.26.95-.28,1.37-.52.41-.24.65-.8,1.07-1.03.43-.23.93-.29,1.37-.5.43-.21.87-.42,1.31-.61s.81-.56,1.26-.73c.45-.17,1.03.02,1.49-.13.46-.15.87-.42,1.34-.55.46-.13.95-.16,1.42-.27.47-.11.93-.21,1.41-.3.47-.09.96-.07,1.43-.13.48-.06.93-.27,1.41-.32"/><path d="M92.34,67.03c.46-.04.94-.05,1.43-.07.47-.02.95-.2,1.44-.2.47,0,.94.3,1.43.32.47.02.98-.3,1.46-.26.47.04.91.49,1.39.54.47.05.95.03,1.43.1.47.07.92.26,1.4.35.47.08.94.15,1.41.25.47.1,1.03-.21,1.5-.1.46.12.89.42,1.35.55.46.13.96.14,1.42.28.46.15.94.24,1.39.4.45.16.82.56,1.27.73.45.18.91.32,1.35.51.44.19.95.25,1.38.46.44.21.81.55,1.22.78.43.23.9.38,1.31.63.42.25.77.59,1.16.86.4.28.6.81.97,1.1.38.3.78.56,1.12.87.36.33.68.67,1,1.01.21.23.71.47,1.06.96.26.36.56.76.81,1.18.25.42.44.88.6,1.3.19.51.4,1.02.34,1.42-.07.46-.52.6-1.1.77-.66.2-1.02.18-1.41-.07-.42-.27-.64-.71-.93-1.2-.28-.46-.65-.89-.99-1.28-.31-.36-.8-.57-1.15-.91-.34-.34-.75-.59-1.12-.91-.36-.31-.45-.99-.84-1.28-.39-.29-.92-.38-1.33-.65-.4-.26-.71-.71-1.13-.95-.42-.24-.99-.22-1.42-.45-.43-.22-.93-.3-1.37-.5-.44-.2-.72-.76-1.17-.95-.45-.18-.94-.27-1.4-.43-.46-.16-.93-.29-1.39-.44-.46-.15-.96-.16-1.43-.29-.47-.13-.96-.13-1.44-.24-.47-.11-.87-.56-1.35-.65-.48-.09-.98-.06-1.46-.13-.48-.07-.98,0-1.46-.05-.49-.05-.96-.25-1.44-.28-.49-.03-.98.04-1.46.03-.49,0-.98-.23-1.46-.22-.49.01-.97.28-1.44.32-.49.04-.96.18-1.43.24-.48.07-.97.03-1.45.12-.48.09-.95.2-1.42.31-.47.11-.97.1-1.44.24-.47.13-.9.36-1.36.51-.46.15-.93.29-1.38.46-.45.18-.93.29-1.37.49s-.83.5-1.27.72c-.43.21-.74.66-1.16.89-.42.23-1,.2-1.41.45-.41.25-.83.5-1.23.77-.4.27-.8.55-1.19.83-.39.28-.58.83-.96,1.13-.38.3-.96.35-1.32.67-.37.32-.76.6-1.12.93-.35.33-.47.9-.81,1.25-.34.34-.72.64-1.05.99-.32.36-.83.56-1.14.93-.31.37-.47.86-.77,1.24-.29.38-.67.71-.95,1.1-.28.39-.51.82-.78,1.22-.26.4-.3.95-.54,1.36s-.86.62-1.08,1.05c-.23.43-.31.93-.52,1.37-.21.43-.25.95-.44,1.39-.19.44-.72.75-.89,1.2-.17.45-.23.95-.39,1.41-.15.46-.07.99-.21,1.45-.13.46-.47.87-.59,1.34-.11.47-.23.94-.32,1.42-.09.47-.17.96-.24,1.43-.07.48,0,.97-.06,1.46-.05.48-.31.95-.34,1.43-.03.46.16.95.18,1.43.02.46-.16.96-.1,1.44.06.46.24.92.34,1.39.09.46.47.85.6,1.31.12.45.06.96.21,1.41.15.44.17.94.34,1.39.17.44.69.73.88,1.17.19.43.14.97.35,1.4.21.42.36.88.58,1.3.22.41.84.61,1.08,1.02.24.41.15,1.02.4,1.41.26.4.56.77.83,1.15.27.39.44.86.73,1.23.29.38.81.58,1.1.94.3.37.76.59,1.07.94.32.36.42.9.75,1.23.34.34.65.7,1,1.02.35.33.81.52,1.17.81.38.3.66.71,1.03.98.4.28.85.48,1.27.73.42.24.88.4,1.32.62.43.21.86.43,1.32.62.44.19.89.37,1.36.54.45.16.95.19,1.42.33.46.14.89.41,1.37.53.47.11.97.08,1.45.18.48.09.9.49,1.39.56.48.07,1-.16,1.49-.1.48.05.94.43,1.43.47.49.04.99-.24,1.48-.21.49.02.97.36,1.46.36.49,0,.98-.04,1.47-.05.49-.01.98-.09,1.47-.11.49-.02.96-.32,1.44-.37.49-.04,1.01.27,1.49.21.49-.05.92-.52,1.4-.59.49-.07.95-.2,1.43-.29.48-.08,1.01.1,1.49,0,.48-.1.92-.37,1.39-.48.48-.11,1.01.01,1.48-.11.47-.13.86-.54,1.33-.68.47-.14.96-.2,1.42-.36.47-.16.87-.47,1.32-.64.46-.18.99-.16,1.43-.35.45-.2.86-.47,1.29-.68.44-.22.86-.46,1.28-.69.45-.25.93-.41,1.35-.65.45-.26.8-.65,1.21-.9.44-.27.87-.51,1.28-.78.43-.29.86-.53,1.24-.83.41-.31.8-.61,1.17-.93.38-.33.91-.5,1.26-.85.35-.36.45-.93.77-1.32.31-.38.88-.58,1.17-1,.27-.4.39-.93.65-1.37.24-.42.58-.81.8-1.27.21-.43.41-.9.62-1.37.19-.44.24-.97.42-1.45.15-.39.3-.91.45-1.49.12-.47.14-1.01.26-1.54.11-.51.45-.98.56-1.47.13-.54.2-1.07.33-1.52.18-.63.16-1.26.37-1.55.29-.41.83-.32,1.25-.32.43,0,1-.17,1.35.1.37.29.38.87.42,1.27.03.35.05.83-.04,1.42-.07.44.11.98,0,1.48-.1.46-.38.9-.51,1.38-.12.47-.33.93-.46,1.38-.15.49-.13,1.02-.27,1.44-.18.55-.37,1.02-.51,1.37-.18.45-.5.85-.7,1.29-.21.44-.59.78-.82,1.21-.23.43-.24.98-.49,1.39-.26.41-.59.78-.87,1.17-.28.4-.74.65-1.05,1.03-.3.38-.24,1.07-.56,1.43-.32.36-.76.62-1.11.97-.34.34-.83.53-1.19.86-.36.33-.71.65-1.08.97-.37.31-.62.78-1.01,1.07-.39.29-.8.55-1.2.83-.4.27-.75.63-1.16.89-.41.26-.93.34-1.35.58-.42.24-.87.42-1.3.65-.43.22-.89.39-1.33.6-.44.21-.93.27-1.38.46-.44.19-.87.42-1.32.6-.45.18-.88.39-1.34.55-.46.16-.95.19-1.42.34-.46.15-.84.57-1.31.7-.47.13-.91.38-1.38.49-.47.12-1.04-.18-1.51-.07-.47.1-.87.57-1.35.66-.48.09-.97.12-1.45.19-.48.08-.99-.08-1.47-.01-.48.06-.95.2-1.43.25-.48.05-.96.16-1.44.19-.49.03-.97.18-1.45.2-.49.02-.98-.12-1.46-.12-.49,0-.97.25-1.46.24-.49,0-.96-.32-1.45-.34-.49-.02-.97-.03-1.45-.07-.49-.04-.96-.18-1.44-.23-.49-.05-.97-.09-1.44-.15-.48-.07-1,.1-1.48.02-.48-.08-.93-.35-1.4-.45-.48-.1-.98-.07-1.45-.19-.47-.12-.95-.24-1.41-.38-.46-.14-.82-.57-1.27-.74-.45-.17-.92-.26-1.36-.47-.43-.2-.89-.36-1.32-.6-.42-.23-.87-.42-1.28-.68-.4-.26-.88-.42-1.28-.7-.39-.28-.53-.89-.91-1.19-.38-.3-.86-.46-1.22-.78-.36-.32-.8-.56-1.14-.89-.35-.34-.5-.86-.83-1.21-.33-.35-.92-.47-1.23-.84-.31-.36-.3-1-.6-1.38-.3-.38-.71-.66-.99-1.05-.28-.39-.72-.67-.99-1.08-.27-.4-.5-.83-.75-1.24s-.26-.96-.49-1.39-.6-.77-.81-1.2c-.22-.43-.69-.74-.89-1.18-.2-.44-.41-.89-.59-1.33-.19-.45-.37-.9-.54-1.35-.17-.46.05-1.04-.1-1.5-.15-.46-.42-.88-.55-1.34-.13-.47-.34-.91-.45-1.38-.11-.47-.24-.95-.32-1.42-.09-.48-.11-.97-.17-1.44-.06-.48.1-.98.07-1.46-.04-.49.03-.96.02-1.44-.01-.49-.38-.97-.36-1.45.02-.49.21-.96.26-1.43.05-.48.05-.97.13-1.44.08-.47.41-.89.52-1.36.1-.47.18-.94.31-1.4.12-.47-.04-1.01.1-1.47.14-.46.5-.85.66-1.3.16-.45.36-.88.54-1.33.17-.45.15-.98.34-1.42.19-.44.38-.89.58-1.32.21-.43.42-.87.64-1.3.22-.43.37-.9.6-1.32.24-.42.73-.69.98-1.1.25-.41.6-.75.86-1.15.27-.4.4-.89.68-1.28.28-.39.46-.86.75-1.24.29-.38.68-.69.98-1.06.31-.37.81-.56,1.14-.92.32-.36.6-.74.94-1.09.33-.35.6-.75.95-1.08.35-.33.51-.86.87-1.18.36-.32.76-.6,1.13-.91.37-.3.83-.51,1.21-.8.38-.29.78-.57,1.17-.84.39-.28.77-.59,1.17-.85.4-.26.95-.28,1.37-.52.41-.24.65-.8,1.07-1.03.43-.23.93-.29,1.37-.5.43-.21.87-.42,1.31-.61s.81-.56,1.26-.73c.45-.17,1.03.02,1.49-.13.46-.15.87-.42,1.34-.55.46-.13.95-.16,1.42-.27.47-.11.93-.21,1.41-.3.47-.09.96-.07,1.43-.13.48-.06.93-.27,1.41-.32"/><path d="M132.46,81.11c.4-.47.82-.5,1.18-.51.42-.01.72.17,1.09.56.28.3.49.69.74,1.12.22.39.63.71.81,1.14.19.45.46.86.6,1.26.2.56.26,1.07.34,1.35.11.4.08.88.21,1.35.12.42.14.88.26,1.34.12.42.35.83.47,1.28.11.43.4.83.51,1.27.11.44.26.88.37,1.32.1.45,0,.94.1,1.37.1.46.26.89.35,1.32.09.47.05.94.11,1.36.07.49.33.92.36,1.32.04.45.13,1.03.09,1.58-.05.54-.48.97-.72,1.4-.25.44-.53.72-1.12.82-.57.1-.78-.06-1.06-.32-.28-.27-.61-.54-.71-1.02-.08-.42-.14-.88-.17-1.32-.03-.49-.05-.95-.12-1.3-.09-.46-.21-.92-.31-1.41-.1-.46-.07-.96-.17-1.44-.1-.46-.35-.9-.46-1.38-.11-.47-.34-.91-.45-1.38-.11-.47-.21-.94-.33-1.4-.12-.47.06-1.01-.06-1.48-.12-.47-.36-.91-.49-1.36-.13-.48-.45-.89-.58-1.33-.11-.4-.25-.86-.47-1.35-.19-.43-.28-.94-.45-1.39-.17-.48-.03-.98-.05-1.43-.03-.5-.2-.98.13-1.36"/><path d="M132.46,81.11c.4-.47.82-.5,1.18-.51.42-.01.72.17,1.09.56.28.3.49.69.74,1.12.22.39.63.71.81,1.14.19.45.46.86.6,1.26.2.56.26,1.07.34,1.35.11.4.08.88.21,1.35.12.42.14.88.26,1.34.12.42.35.83.47,1.28.11.43.4.83.51,1.27.11.44.26.88.37,1.32.1.45,0,.94.1,1.37.1.46.26.89.35,1.32.09.47.05.94.11,1.36.07.49.33.92.36,1.32.04.45.13,1.03.09,1.58-.05.54-.48.97-.72,1.4-.25.44-.53.72-1.12.82-.57.1-.78-.06-1.06-.32-.28-.27-.61-.54-.71-1.02-.08-.42-.14-.88-.17-1.32-.03-.49-.05-.95-.12-1.3-.09-.46-.21-.92-.31-1.41-.1-.46-.07-.96-.17-1.44-.1-.46-.35-.9-.46-1.38-.11-.47-.34-.91-.45-1.38-.11-.47-.21-.94-.33-1.4-.12-.47.06-1.01-.06-1.48-.12-.47-.36-.91-.49-1.36-.13-.48-.45-.89-.58-1.33-.11-.4-.25-.86-.47-1.35-.19-.43-.28-.94-.45-1.39-.17-.48-.03-.98-.05-1.43-.03-.5-.2-.98.13-1.36"/><path d="M92.34,67.03c.46-.04.94-.05,1.43-.07.47-.02.95-.2,1.44-.2.47,0,.94.3,1.43.32.47.02.98-.3,1.46-.26.47.04.91.49,1.39.54.47.05.95.03,1.43.1.47.07.92.26,1.4.35.47.08.94.15,1.41.25.47.1,1.03-.21,1.5-.1.46.12.89.42,1.35.55.46.13.96.14,1.42.28.46.15.94.24,1.39.4.45.16.82.56,1.27.73.45.18.91.32,1.35.51.44.19.95.25,1.38.46.44.21.81.55,1.22.78.43.23.9.38,1.31.63.42.25.77.59,1.16.86.4.28.6.81.97,1.1.38.3.78.56,1.12.87.36.33.68.67,1,1.01.21.23.71.47,1.06.96.26.36.56.76.81,1.18.25.42.44.88.6,1.3.19.51.4,1.02.34,1.42-.07.46-.52.6-1.1.77-.66.2-1.02.18-1.41-.07-.42-.27-.64-.71-.93-1.2-.28-.46-.65-.89-.99-1.28-.31-.36-.8-.57-1.15-.91-.34-.34-.75-.59-1.12-.91-.36-.31-.45-.99-.84-1.28-.39-.29-.92-.38-1.33-.65-.4-.26-.71-.71-1.13-.95-.42-.24-.99-.22-1.42-.45-.43-.22-.93-.3-1.37-.5-.44-.2-.72-.76-1.17-.95-.45-.18-.94-.27-1.4-.43-.46-.16-.93-.29-1.39-.44-.46-.15-.96-.16-1.43-.29-.47-.13-.96-.13-1.44-.24-.47-.11-.87-.56-1.35-.65-.48-.09-.98-.06-1.46-.13-.48-.07-.98,0-1.46-.05-.49-.05-.96-.25-1.44-.28-.49-.03-.98.04-1.46.03-.49,0-.98-.23-1.46-.22-.49.01-.97.28-1.44.32-.49.04-.96.18-1.43.24-.48.07-.97.03-1.45.12-.48.09-.95.2-1.42.31-.47.11-.97.1-1.44.24-.47.13-.9.36-1.36.51-.46.15-.93.29-1.38.46-.45.18-.93.29-1.37.49s-.83.5-1.27.72c-.43.21-.74.66-1.16.89-.42.23-1,.2-1.41.45-.41.25-.83.5-1.23.77-.4.27-.8.55-1.19.83-.39.28-.58.83-.96,1.13-.38.3-.96.35-1.32.67-.37.32-.76.6-1.12.93-.35.33-.47.9-.81,1.25-.34.34-.72.64-1.05.99-.32.36-.83.56-1.14.93-.31.37-.47.86-.77,1.24-.29.38-.67.71-.95,1.1-.28.39-.51.82-.78,1.22-.26.4-.3.95-.54,1.36s-.86.62-1.08,1.05c-.23.43-.31.93-.52,1.37-.21.43-.25.95-.44,1.39-.19.44-.72.75-.89,1.2-.17.45-.23.95-.39,1.41-.15.46-.07.99-.21,1.45-.13.46-.47.87-.59,1.34-.11.47-.23.94-.32,1.42-.09.47-.17.96-.24,1.43-.07.48,0,.97-.06,1.46-.05.48-.31.95-.34,1.43-.03.46.16.95.18,1.43.02.46-.16.96-.1,1.44.06.46.24.92.34,1.39.09.46.47.85.6,1.31.12.45.06.96.21,1.41.15.44.17.94.34,1.39.17.44.69.73.88,1.17.19.43.14.97.35,1.4.21.42.36.88.58,1.3.22.41.84.61,1.08,1.02.24.41.15,1.02.4,1.41.26.4.56.77.83,1.15.27.39.44.86.73,1.23.29.38.81.58,1.1.94.3.37.76.59,1.07.94.32.36.42.9.75,1.23.34.34.65.7,1,1.02.35.33.81.52,1.17.81.38.3.66.71,1.03.98.4.28.85.48,1.27.73.42.24.88.4,1.32.62.43.21.86.43,1.32.62.44.19.89.37,1.36.54.45.16.95.19,1.42.33.46.14.89.41,1.37.53.47.11.97.08,1.45.18.48.09.9.49,1.39.56.48.07,1-.16,1.49-.1.48.05.94.43,1.43.47.49.04.99-.24,1.48-.21.49.02.97.36,1.46.36.49,0,.98-.04,1.47-.05.49-.01.98-.09,1.47-.11.49-.02.96-.32,1.44-.37.49-.04,1.01.27,1.49.21.49-.05.92-.52,1.4-.59.49-.07.95-.2,1.43-.29.48-.08,1.01.1,1.49,0,.48-.1.92-.37,1.39-.48.48-.11,1.01.01,1.48-.11.47-.13.86-.54,1.33-.68.47-.14.96-.2,1.42-.36.47-.16.87-.47,1.32-.64.46-.18.99-.16,1.43-.35.45-.2.86-.47,1.29-.68.44-.22.86-.46,1.28-.69.45-.25.93-.41,1.35-.65.45-.26.8-.65,1.21-.9.44-.27.87-.51,1.28-.78.43-.29.86-.53,1.24-.83.41-.31.8-.61,1.17-.93.38-.33.91-.5,1.26-.85.35-.36.45-.93.77-1.32.31-.38.88-.58,1.17-1,.27-.4.39-.93.65-1.37.24-.42.58-.81.8-1.27.21-.43.41-.9.62-1.37.19-.44.24-.97.42-1.45.15-.39.3-.91.45-1.49.12-.47.14-1.01.26-1.54.11-.51.45-.98.56-1.47.13-.54.2-1.07.33-1.52.18-.63.16-1.26.37-1.55.29-.41.83-.32,1.25-.32.43,0,1-.17,1.35.1.37.29.38.87.42,1.27.03.35.05.83-.04,1.42-.07.44.11.98,0,1.48-.1.46-.38.9-.51,1.38-.12.47-.33.93-.46,1.38-.15.49-.13,1.02-.27,1.44-.18.55-.37,1.02-.51,1.37-.18.45-.5.85-.7,1.29-.21.44-.59.78-.82,1.21-.23.43-.24.98-.49,1.39-.26.41-.59.78-.87,1.17-.28.4-.74.65-1.05,1.03-.3.38-.24,1.07-.56,1.43-.32.36-.76.62-1.11.97-.34.34-.83.53-1.19.86-.36.33-.71.65-1.08.97-.37.31-.62.78-1.01,1.07-.39.29-.8.55-1.2.83-.4.27-.75.63-1.16.89-.41.26-.93.34-1.35.58-.42.24-.87.42-1.3.65-.43.22-.89.39-1.33.6-.44.21-.93.27-1.38.46-.44.19-.87.42-1.32.6-.45.18-.88.39-1.34.55-.46.16-.95.19-1.42.34-.46.15-.84.57-1.31.7-.47.13-.91.38-1.38.49-.47.12-1.04-.18-1.51-.07-.47.1-.87.57-1.35.66-.48.09-.97.12-1.45.19-.48.08-.99-.08-1.47-.01-.48.06-.95.2-1.43.25-.48.05-.96.16-1.44.19-.49.03-.97.18-1.45.2-.49.02-.98-.12-1.46-.12-.49,0-.97.25-1.46.24-.49,0-.96-.32-1.45-.34-.49-.02-.97-.03-1.45-.07-.49-.04-.96-.18-1.44-.23-.49-.05-.97-.09-1.44-.15-.48-.07-1,.1-1.48.02-.48-.08-.93-.35-1.4-.45-.48-.1-.98-.07-1.45-.19-.47-.12-.95-.24-1.41-.38-.46-.14-.82-.57-1.27-.74-.45-.17-.92-.26-1.36-.47-.43-.2-.89-.36-1.32-.6-.42-.23-.87-.42-1.28-.68-.4-.26-.88-.42-1.28-.7-.39-.28-.53-.89-.91-1.19-.38-.3-.86-.46-1.22-.78-.36-.32-.8-.56-1.14-.89-.35-.34-.5-.86-.83-1.21-.33-.35-.92-.47-1.23-.84-.31-.36-.3-1-.6-1.38-.3-.38-.71-.66-.99-1.05-.28-.39-.72-.67-.99-1.08-.27-.4-.5-.83-.75-1.24s-.26-.96-.49-1.39-.6-.77-.81-1.2c-.22-.43-.69-.74-.89-1.18-.2-.44-.41-.89-.59-1.33-.19-.45-.37-.9-.54-1.35-.17-.46.05-1.04-.1-1.5-.15-.46-.42-.88-.55-1.34-.13-.47-.34-.91-.45-1.38-.11-.47-.24-.95-.32-1.42-.09-.48-.11-.97-.17-1.44-.06-.48.1-.98.07-1.46-.04-.49.03-.96.02-1.44-.01-.49-.38-.97-.36-1.45.02-.49.21-.96.26-1.43.05-.48.05-.97.13-1.44.08-.47.41-.89.52-1.36.1-.47.18-.94.31-1.4.12-.47-.04-1.01.1-1.47.14-.46.5-.85.66-1.3.16-.45.36-.88.54-1.33.17-.45.15-.98.34-1.42.19-.44.38-.89.58-1.32.21-.43.42-.87.64-1.3.22-.43.37-.9.6-1.32.24-.42.73-.69.98-1.1.25-.41.6-.75.86-1.15.27-.4.4-.89.68-1.28.28-.39.46-.86.75-1.24.29-.38.68-.69.98-1.06.31-.37.81-.56,1.14-.92.32-.36.6-.74.94-1.09.33-.35.6-.75.95-1.08.35-.33.51-.86.87-1.18.36-.32.76-.6,1.13-.91.37-.3.83-.51,1.21-.8.38-.29.78-.57,1.17-.84.39-.28.77-.59,1.17-.85.4-.26.95-.28,1.37-.52.41-.24.65-.8,1.07-1.03.43-.23.93-.29,1.37-.5.43-.21.87-.42,1.31-.61s.81-.56,1.26-.73c.45-.17,1.03.02,1.49-.13.46-.15.87-.42,1.34-.55.46-.13.95-.16,1.42-.27.47-.11.93-.21,1.41-.3.47-.09.96-.07,1.43-.13.48-.06.93-.27,1.41-.32"/><path d="M132.46,81.11c.4-.47.82-.5,1.18-.51.42-.01.72.17,1.09.56.28.3.49.69.74,1.12.22.39.63.71.81,1.14.19.45.46.86.6,1.26.2.56.26,1.07.34,1.35.11.4.08.88.21,1.35.12.42.14.88.26,1.34.12.42.35.83.47,1.28.11.43.4.83.51,1.27.11.44.26.88.37,1.32.1.45,0,.94.1,1.37.1.46.26.89.35,1.32.09.47.05.94.11,1.36.07.49.33.92.36,1.32.04.45.13,1.03.09,1.58-.05.54-.48.97-.72,1.4-.25.44-.53.72-1.12.82-.57.1-.78-.06-1.06-.32-.28-.27-.61-.54-.71-1.02-.08-.42-.14-.88-.17-1.32-.03-.49-.05-.95-.12-1.3-.09-.46-.21-.92-.31-1.41-.1-.46-.07-.96-.17-1.44-.1-.46-.35-.9-.46-1.38-.11-.47-.34-.91-.45-1.38-.11-.47-.21-.94-.33-1.4-.12-.47.06-1.01-.06-1.48-.12-.47-.36-.91-.49-1.36-.13-.48-.45-.89-.58-1.33-.11-.4-.25-.86-.47-1.35-.19-.43-.28-.94-.45-1.39-.17-.48-.03-.98-.05-1.43-.03-.5-.2-.98.13-1.36"/></svg>