<?xml version="1.0" encoding="UTF-8"?><svg id="Layer_1" xmlns="http://www.w3.org/2000/svg" viewBox="0 0 200 200"><path d="M94.96,110.35c.34.36.89.6,1.4.86.46.24,1.03.25,1.56.39.52.14,1.03.26,1.55.3.58.04,1.11.12,1.59.02.43-.09.96-.19,1.42-.51.38-.26.51-.87.89-1.25.34-.34.74-.64,1.05-1.03.31-.39.67-.75.93-1.16.28-.44.76-.76.97-1.18.25-.51.25-1.07.35-1.48.12-.47.2-.96.25-1.48.05-.49.13-.99.11-1.5-.02-.5-.23-.98-.31-1.47-.08-.5.04-1.05-.12-1.52-.16-.48-.6-.84-.84-1.28-.24-.44-.42-.92-.76-1.29-.34-.37-.81-.56-1.24-.83-.44-.28-.81-.56-1.23-.73-.47-.18-.9-.49-1.36-.54-.48-.05-.95.25-1.43.33-.46.08-.87.23-1.34.42-.42.17-.81.42-1.25.67-.42.24-.94.31-1.29.66-.34.33-.47.84-.75,1.25-.27.39-.87.61-1.08,1.06-.21.43-.07,1.02-.22,1.49-.15.46-.55.86-.64,1.34-.09.48-.05.99-.09,1.47-.03.49-.01.98.01,1.46.02.49.27.95.35,1.42.09.49-.12,1.05.03,1.5.16.47.67.78.91,1.19.25.43.25,1.04.58,1.38M101.64,91.73c.8.52.93.4,1.85.64.15.04.04-.23.13-.36.24-.42.5-.81.74-1.23.24-.42.57-.79.82-1.2.24-.42.61-.76.86-1.18.25-.42.17-1.02.42-1.44.25-.42.58-.78.83-1.2.25-.42.57-.79.81-1.21.25-.42.71-.7.96-1.12.25-.42.31-.94.56-1.35.25-.42.5-.83.75-1.24.25-.41.56-.79.81-1.21s.36-.91.61-1.32c.25-.41.72-.7.97-1.11.25-.41.28-.96.53-1.38.25-.41.61-.76.86-1.17.25-.41.36-.91.62-1.32.25-.41.58-.78.84-1.19.25-.41.67-.72.93-1.13.26-.41.27-.97.52-1.38.26-.41.49-.83.75-1.24.26-.41.47-.85.73-1.26.26-.41.74-.68.99-1.09.26-.41.32-.94.57-1.35.26-.41.86-.6,1.12-1,.26-.41.23-1,.49-1.41.26-.41.77-.66,1.03-1.06.26-.41.43-.87.7-1.28.26-.41.5-.83.76-1.24.26-.41.37-.94.63-1.34.41-.42,1.03-.3,1.5-.26.51.04,1.16.08,1.42.51.23.39.15,1-.08,1.57-.24.4-.54.78-.78,1.18-.25.4-.31.92-.57,1.32-.25.4-.54.78-.8,1.17-.26.4-.45.83-.71,1.23-.26.39-.59.74-.85,1.13-.26.39-.83.58-1.1.97s-.21.99-.47,1.38c-.26.39-.77.62-1.03,1.01-.26.39-.46.83-.71,1.22-.26.39-.4.87-.66,1.26s-.65.7-.91,1.1c-.25.4-.42.85-.68,1.25-.25.4-.41.85-.66,1.25-.26.41-.56.8-.81,1.22-.25.42-.36.92-.61,1.34-.25.42-.46.86-.7,1.28-.25.42-.7.72-.94,1.14-.24.42-.62.77-.86,1.19-.24.42-.2,1.01-.44,1.43-.24.42-.79.67-1.03,1.09-.24.42-.44.87-.68,1.29-.24.42-.19,1.01-.43,1.43-.24.42-.65.75-.9,1.17-.24.42-.31.95-.55,1.37-.25.42-.74.69-.99,1.12-.25.42-.62.76-.87,1.18-.25.42-.41.89-.66,1.3-.25.42-.54.94-.79,1.35.21.64.6.46.98,1.02.38.56.22.68.6,1.24.38.56.23.77.77,1.17.42-.25.94-.57,1.36-.81.42-.25.77-.61,1.19-.85s.8-.56,1.22-.81c.42-.24,1.03-.15,1.46-.39.42-.24.73-.68,1.16-.92s.81-.55,1.23-.78c.43-.24.93-.33,1.36-.57.43-.23.85-.48,1.28-.71.43-.23.84-.49,1.27-.72.43-.23.98-.23,1.41-.46.43-.23.86-.46,1.29-.68s.82-.52,1.25-.75c.43-.23.86-.45,1.3-.67.43-.22.73-.7,1.17-.93.43-.22.9-.37,1.34-.59.43-.22.96-.26,1.39-.48.43-.22.9-.39,1.33-.61.43-.22.87-.44,1.3-.66.43-.22.72-.72,1.16-.94.43-.22,1.03-.12,1.46-.34.43-.22.68-.82,1.11-1.04.43-.22.88-.41,1.32-.63.44-.22.84-.49,1.28-.71.43-.22.98-.23,1.41-.44.43-.22.82-.54,1.25-.76.43-.22,1.01-.15,1.45-.37.43-.22.79-.55,1.22-.76.49,0,.8.22,1.13.46.39.26.98.45,1.05.89.06.39-.37.75-.65,1.19-.43.24-.65.76-1.08,1s-.95.31-1.38.54c-.43.24-.89.42-1.32.65-.43.23-.81.56-1.24.79-.43.23-.79.61-1.22.83-.43.23-.86.47-1.3.7-.44.22-1.03.14-1.47.36-.44.22-.8.59-1.24.81s-.84.5-1.28.72c-.44.22-.96.27-1.4.49-.44.22-.8.6-1.24.82-.44.22-.99.2-1.43.42-.44.22-.92.34-1.36.56-.44.22-.73.75-1.17.96-.44.22-.98.23-1.42.44-.44.22-.89.42-1.33.64-.44.22-.8.59-1.24.81-.44.22-.85.49-1.29.71-.44.22-.81.56-1.25.79-.44.22-.94.31-1.37.54-.44.23-.98.25-1.41.48-.43.23-.88.43-1.32.66-.43.23-.66.83-1.09,1.07-.46.25-.96.46-1.43.73-.46.27-.97.45-1.43.73-.46.28-1.08.32-1.52.61-.45.3-.55.92-.97,1.23.02.38-.21.7-.12,1.1.1.41.52.77.54,1.15.02.31-.33.72-.39,1.1-.07.46-.09.94.14,1.12.18.14.64.5,1.25.72.41.14.96.03,1.43.18.46.15.83.56,1.25.7.55.18,1.17-.04,1.46.1.43.19.84.45,1.27.64.43.19.86.4,1.29.6.43.19.86.4,1.29.59.43.2.9.31,1.33.51.43.2.7.76,1.13.96.43.19.97.16,1.4.35.43.19.84.44,1.28.63.43.19.88.37,1.31.56.43.19.78.58,1.22.77.43.19.9.31,1.34.5.44.19.88.37,1.31.55.44.19.98.12,1.42.3.44.18.89.32,1.33.5.44.18.74.7,1.18.88.44.18,1.02,0,1.46.17.44.18.83.48,1.27.66.44.17.95.16,1.4.33.44.17.78.63,1.22.8.45.16.96.13,1.41.29.45.16.92.24,1.37.39.45.16.81.57,1.26.72.45.16.99.26,1.22.58.26.37.27.93.25,1.35-.02.44-.32.8-.64,1.08-.29.25-.65.51-1.16.49-.25-.01-.78,0-1.29-.18-.38-.14-.65-.67-1.04-.82-.47-.19-.99-.12-1.26-.22-.43-.16-.92-.2-1.36-.36-.43-.16-.87-.34-1.31-.5-.43-.17-.79-.56-1.22-.73-.43-.17-.85-.4-1.28-.57-.43-.17-.99-.04-1.42-.21-.43-.17-.86-.36-1.3-.53-.43-.17-.7-.78-1.13-.95-.43-.17-.95-.15-1.38-.33-.43-.18-.86-.36-1.3-.54-.43-.18-.97-.1-1.4-.28-.43-.18-.76-.6-1.2-.78-.43-.18-.8-.52-1.23-.7-.43-.18-.98-.09-1.41-.28-.43-.19-.76-.61-1.19-.79-.43-.19-.91-.26-1.34-.44-.43-.19-.78-.55-1.2-.74-.46-.2-.92-.36-1.37-.58-.45-.22-.97-.29-1.42-.51-.44-.23-.86-.51-1.31-.73-.45-.23-1.01-.21-1.46-.42-.45-.21-.75-.77-1.21-.96-.46-.19-.94-.38-1.41-.54-.47-.15-1.13-.26-1.62-.37-.53.56-.08.88-.43,1.57s-.69.55-.86,1.31c.32.3.64.62.92.95.28.33.68.58.93.93.25.35.32.83.55,1.2.23.36.4.77.64,1.14.23.36.73.55.98.9.28.39.27.98.55,1.37.28.39.76.63,1.04,1.01.28.39.5.82.78,1.2.29.38.43.87.72,1.25.29.38.71.66,1,1.04.29.38.5.82.79,1.2.29.38.75.62,1.05,1,.29.38.64.71.93,1.09.3.38.48.84.78,1.21.3.37.72.65,1.02,1.02.3.37.37.93.67,1.3.3.37.58.76.88,1.13.3.37.79.58,1.1.95.3.37.51.82.82,1.18.3.37.51.82.81,1.19.31.37.62.73.93,1.09.31.36.57.76.88,1.13.31.36.7.66,1.01,1.02.31.36.81.57,1.12.93.31.36.71.64,1.03,1,.31.36.3,1.01.61,1.37.31.36.61.73.93,1.09.31.36.91.47,1.23.83.32.36.67.68.98,1.04.32.36.31.99.63,1.35.27.36.34.66.35,1.09,0,.43.25,1,.1,1.4-.55.27-1.15.37-1.54.34-.49-.04-.85-.46-1.25-.79-.34-.28-.84-.47-1.21-.85-.34-.34-.64-.74-.99-1.1-.33-.35-.55-.83-.89-1.2-.33-.36-.82-.58-1.15-.96-.32-.37-.57-.81-.9-1.19-.32-.37-.45-.92-.77-1.29-.32-.38-.69-.72-1-1.1-.32-.38-.55-.84-.86-1.22-.32-.38-.72-.69-1.03-1.07-.32-.39-.8-.63-1.11-1.01-.32-.39-.67-.74-.98-1.11-.32-.39-.52-.87-.82-1.24-.31-.38-.61-.76-.92-1.15-.31-.38-.78-.63-1.09-1.01-.3-.38-.27-1.03-.57-1.42-.3-.39-.74-.66-1.04-1.05-.3-.39-.45-.89-.74-1.28-.29-.39-.8-.63-1.09-1.02-.29-.39-.53-.82-.82-1.22s-.49-.85-.78-1.25c-.29-.4-.85-.6-1.13-1-.29-.4-.19-1.07-.47-1.47-.28-.4-.73-.68-1.01-1.08-.28-.4-.78-.65-1.06-1.05-.28-.4-.58-.79-.86-1.19s-.51-.84-.79-1.24c-.28-.4-.28-1-.56-1.4-.28-.4-.57-.85-.85-1.25-.25-.22-.36-.03-.69-.03-.35.35-.76.46-1.18.74-.42.27-.93.32-1.4.5-.47.19-.9.34-1.39.43-.5.09-1.04.24-1.53.21-.03.47.24,1.05.21,1.52-.03.47-.26.93-.29,1.4-.03.47-.23.93-.27,1.4s.03.95,0,1.42c-.04.47-.18.93-.22,1.4s-.19.93-.23,1.4c-.04.47-.09.94-.13,1.41-.04.47.25.97.2,1.44s.03.95-.02,1.42c-.05.47-.37.91-.41,1.38-.04.47,0,.95-.05,1.41-.05.47-.39.91-.43,1.38-.04.47.16.96.12,1.43-.04.47-.27.92-.31,1.39-.04.47-.12.94-.15,1.41-.04.47.22.96.18,1.43-.03.47-.09.94-.12,1.41-.03.47,0,.94-.03,1.41-.03.47.06.94.04,1.41-.02.47-.43.93-.44,1.4-.01.4.1.96.14,1.54.04.5.17,1.02.14,1.51-.03.57.05,1.23-.24,1.58-.28.33-.9.46-1.57.4-.52-.05-.89-.43-1.15-.9-.2-.38-.41-.86-.49-1.4-.07-.46.04-.98.03-1.48,0-.5-.15-1.01-.13-1.47.03-.58.02-1.09.03-1.46.02-.46.32-.91.35-1.38.03-.46.18-.91.22-1.38.03-.46-.12-.94-.08-1.4.04-.46.18-.91.22-1.38.05-.46-.08-.94-.03-1.4.05-.46.38-.89.43-1.35.06-.46-.1-.95-.04-1.41.06-.46.26-.9.32-1.36.06-.46.11-.92.17-1.38.06-.46-.21-.96-.15-1.42.06-.46.33-.89.39-1.35.06-.46.19-.91.24-1.37.05-.46-.18-.95-.13-1.41.05-.49.27-.96.31-1.46.04-.49-.16-1-.12-1.49.03-.49.39-.96.43-1.45.03-.49-.24-1.01-.2-1.5.04-.49.39-.96.44-1.45.05-.49-.2-.88-.14-1.36-.51-.14-.76-.56-1.22-.78-.47-.22-1.06-.22-1.48-.52-.42-.29-.71-.71-1.08-1.08-.63.34-.47.52-.95,1.06-.47.54-.39.61-.86,1.15-.47.54-.53.5-1,1.04-.47.54-.53.49-1.01,1.04-.47.54-.53.5-1,1.04-.47.54-.32.68-.79,1.22-.48.54-.52.51-1,1.05-.47.54-.42.59-.9,1.13-.47.54-.46.56-.93,1.1-.47.54-.55.47-1.02,1.02-.48.54-.62.42-1.09.97-.48.55-.44.57-.92,1.12-.48.55-.25.75-.72,1.3-.48.55-.73.33-1.21.87-.32.33-.37.92-.69,1.28-.31.35-.77.56-1.08.93-.3.36-.61.71-.91,1.08-.29.37-.77.6-1.05.98-.28.38-.19,1.03-.47,1.41-.28.38-.66.68-.94,1.06-.28.38-.5.8-.78,1.19-.28.39-.73.65-1,1.03-.28.38-.66.69-.94,1.07-.28.38-.55.77-.83,1.14-.29.38-.61.72-.9,1.09-.3.37-.55.77-.86,1.12-.31.36-.52.81-.83,1.14-.33.35-.57.78-.9,1.1-.48.45-.99.67-1.4.75-.59.11-1.25-.09-1.53-.51-.26-.39-.4-1.09-.27-1.66.1-.44.58-.84,1-1.26.3-.36.67-.68.97-1.05.3-.37.46-.85.76-1.21.3-.36.79-.58,1.09-.94s.33-.96.63-1.32c.3-.36.94-.45,1.24-.81.3-.36.41-.89.71-1.26.31-.36.69-.66,1-1.02.31-.36.49-.83.79-1.19.31-.36.56-.76.87-1.13s.8-.57,1.1-.93c.31-.36.51-.81.82-1.17.31-.36.69-.66,1-1.02.31-.36.5-.82.81-1.18.31-.36.79-.57,1.1-.93.31-.36.46-.86.76-1.22.31-.36.54-.79.85-1.15.31-.36.94-.44,1.25-.8.31-.36.29-1.01.6-1.36.31-.36.77-.59,1.08-.94.31-.36.79-.57,1.1-.92.31-.36.43-.88.75-1.24s.56-.76.88-1.12c.31-.36.57-.76.89-1.12.31-.35.77-.58,1.09-.94s.49-.84.8-1.19.88-.48,1.2-.83c.32-.35.4-.92.72-1.27.32-.35.79-.57,1.11-.92.18-.32,0-.91-.18-1.5-.16-.53-.34-1.08-.44-1.46-.15-.58.09-1.61-.68-1.63-.48.1-.98.05-1.46.15-.48.1-.98.06-1.46.16-.48.1-.96.18-1.44.28-.48.1-.94.29-1.42.4-.48.1-.89.53-1.36.63-.48.1-1.04-.22-1.52-.12-.48.1-.89.5-1.37.6-.48.1-.96.18-1.44.28-.48.1-.98.07-1.46.17-.48.1-.89.5-1.37.6-.48.1-1.01-.06-1.49.04-.48.1-.92.36-1.4.46-.48.1-.95.23-1.43.33-.48.1-.98.09-1.46.19-.48.11-.93.33-1.4.44-.48.11-.95.22-1.43.33s-.96.18-1.44.29c-.48.11-1.02-.09-1.5.02-.48.11-.85.64-1.33.75-.47.11-.95.21-1.43.32-.47.11-.97.16-1.44.27-.47.11-.98.1-1.46.21-.48.11-.98.08-1.46.2-.48.12-.92.64-1.39.75-.43-.01-.35-.43-.74-.62-.36-.4-.62-.57-.72-.92-.13-.46,0-.77.33-1.11.25-.26.48-.72.99-.9.44-.16.98-.13,1.49-.28.46-.14.93-.31,1.43-.44.47-.12.99-.11,1.49-.23.48-.11.93-.38,1.43-.49.48-.11.96-.29,1.45-.4.49-.1,1.05.13,1.54.03.5-.1.92-.54,1.41-.63.5-.1,1.02-.06,1.51-.15.51-.1,1.03-.02,1.51-.11.51-.1.97-.36,1.44-.45.47-.1.9-.43,1.38-.53.47-.1,1.01.12,1.49.02.47-.1.93-.28,1.41-.37.48-.09.91-.39,1.39-.48.48-.09,1.03.21,1.5.12.48-.09.9-.47,1.37-.56.48-.09.92-.33,1.4-.42.48-.09,1.04.25,1.51.16.48-.09.9-.46,1.38-.55.48-.09.96-.15,1.43-.24.48-.09.99-.01,1.46-.11.48-.09.88-.54,1.36-.64s.96-.14,1.44-.23c.48-.1.92-.08,1.4-.18.4-.8.33-.82.55-1.69.22-.86.6-.85.61-1.74-.43-.18-1.12-.25-1.55-.43-.43-.19-.8-.53-1.23-.72-.43-.19-.93-.24-1.35-.44-.43-.2-.9-.3-1.32-.51-.42-.2-.64-.83-1.06-1.04-.42-.21-1.04-.02-1.46-.24-.42-.21-.63-.83-1.05-1.04-.42-.21-.92-.26-1.34-.48-.42-.21-.94-.23-1.36-.45-.42-.22-.84-.42-1.26-.64s-.83-.44-1.25-.65c-.42-.22-.65-.79-1.06-1.01-.42-.22-.99-.12-1.41-.34-.42-.22-.8-.51-1.22-.72-.42-.21-.81-.49-1.23-.7-.45-.23-.9-.46-1.36-.68-.45-.22-.96-.32-1.42-.54-.46-.21-.88-.5-1.34-.71s-.9-.47-1.36-.68c-.46-.21-1-.25-1.46-.47-.46-.21-.86-.56-1.32-.78-.46-.22-.88-.51-1.33-.74-.46-.22-1.02-.22-1.47-.45-.45-.23-.78-.71-1.22-.94-.26-.14-.77-.4-1.34-.71-.43-.24-1.03-.28-1.45-.53-.59-.35-1.01-.81-1.16-.99-.37-.46-.56-1.07-.4-1.56.17-.49.69-.86,1.25-1.02.21-.06.64.16,1.2.42.35.16.68.48,1.09.7.37.21.79.37,1.16.59.4.23.75.5,1.1.71.48.29,1.01.31,1.24.43.43.22.83.48,1.26.69.43.21.9.33,1.33.54.43.21.75.65,1.18.85.43.21.9.33,1.33.53.43.21.88.38,1.31.59.43.21.97.2,1.4.41.43.21.71.72,1.14.93.43.21.97.2,1.4.41.42.21.77.57,1.19.78.42.22.81.5,1.22.72.42.22.94.24,1.36.46.42.22.87.37,1.29.59.42.22.61.86,1.03,1.08.42.22.92.29,1.33.51.42.22.95.23,1.37.45.42.22.64.81,1.06,1.03.42.22.95.22,1.37.44.42.22.88.35,1.3.57.42.21.69.74,1.11.95.42.21.98.15,1.4.36.42.21.82.47,1.25.68.43.2.79.55,1.21.75s.94.19,1.38.38c.24.05.29.18.48.02.58-.49.57-.52,1.04-1.12.47-.6.72-.5,1.02-1.2-.26-.39-.8-.78-1.06-1.18-.26-.39-.36-.9-.62-1.29-.26-.39-.38-.88-.64-1.28-.26-.4-.81-.6-1.07-1-.26-.4-.36-.9-.61-1.29-.26-.4-.48-.81-.74-1.21-.26-.4-.72-.66-.98-1.05-.26-.4-.29-.94-.55-1.34-.26-.4-.59-.74-.85-1.14-.26-.39-.53-.78-.8-1.17-.26-.39-.52-.79-.78-1.18-.28-.41-.47-.89-.75-1.3-.28-.41-.52-.85-.81-1.26-.28-.41-.94-.56-1.22-.97-.28-.41-.21-1.07-.5-1.48-.29-.41-.83-.63-1.12-1.04-.29-.41-.5-.86-.79-1.27-.29-.41-.65-.76-.94-1.17-.28-.41-.26-1.03-.54-1.44-.28-.41-.77-.68-1.05-1.09-.28-.41-.6-.8-.87-1.21-.28-.41-.49-.87-.76-1.29-.27-.42-.49-.87-.76-1.29-.2-.31-.67-.68-1.02-1.2-.29-.43-.47-.97-.74-1.39-.36-.56-.82-1-.93-1.3-.22-.59-.19-1.25.01-1.64.24-.48.88-.67,1.4-.68.45-.01.97.13,1.38.6.25.42.62.77.88,1.19.25.42.46.87.71,1.28.26.42.25,1,.51,1.41.26.41.54.82.81,1.23.26.41.74.68,1.01,1.1.27.41.42.89.69,1.3.27.41.5.84.77,1.25.27.41.72.7.99,1.1.27.41.35.94.62,1.35.27.41.67.73.94,1.14.27.41.53.82.8,1.23.27.41.36.94.63,1.35.27.41.88.59,1.15,1,.27.41.41.9.68,1.31.27.41.32.96.6,1.37.27.41.58.79.85,1.19.27.41.62.76.89,1.17.27.41.76.67,1.03,1.08.27.41.43.89.69,1.3.27.41.56.81.82,1.22.26.41.65.74.92,1.16.26.41.45.87.71,1.29.26.42.26.99.51,1.41.26.42.66.74.91,1.16s.28.97.53,1.39c.25.42.7.73.95,1.15.63-.05.49-.46,1.06-.73.57-.27.64-.07,1.11-.5-.03-.48.16-.83.14-1.3-.02-.48-.07-.96-.09-1.43-.02-.48.03-.96.01-1.44-.02-.48-.39-.94-.4-1.42-.02-.48.22-.97.2-1.45-.02-.48-.28-.95-.3-1.43-.02-.48.29-.97.27-1.45-.02-.48-.02-.96-.03-1.44-.01-.48.03-.96.02-1.44-.01-.48-.31-.95-.32-1.43s-.12-.96-.13-1.43c-.01-.48.32-.97.31-1.45s-.39-.95-.4-1.43c-.01-.48.06-.96.05-1.44-.01-.49.19-.97.19-1.45,0-.49-.17-.97-.18-1.45,0-.48.1-.96.08-1.43-.01-.48-.19-.95-.21-1.43-.01-.48.13-.96.12-1.44-.01-.48-.15-.95-.17-1.43-.01-.48-.16-.95-.17-1.43-.01-.48.21-.96.2-1.44-.01-.48-.15-.96-.16-1.43,0-.48.11-.96.11-1.44,0-.48.14-.96.14-1.44,0-.48-.32-.96-.32-1.44,0-.48.09-.96.1-1.44.02-.22.77-.93.88-.97.71-.22.88.37,1.09-.47.32.11.89.65,1.03,1.28.09.4-.06.93-.02,1.45.03.45-.17.93-.16,1.42,0,.48.04.95.03,1.42-.01.51.11.99.09,1.42-.02.61-.02,1.12-.01,1.42.02.48.1.96.13,1.45.02.48.23.96.26,1.44.02.48-.25.98-.22,1.47.03.48.25.96.28,1.44s-.1.98-.07,1.46,0,.97.03,1.45c.03.48.12.96.16,1.45.03.48-.07.97-.04,1.46.03.48.35.95.39,1.43.03.48-.05.97-.02,1.46.03.48.05.97.08,1.45.03.48.12.96.15,1.45.03.48-.08.98-.06,1.46.03.48.1.96.13,1.45.03.48.33.95.35,1.44.03.48-.25.98-.22,1.47.02.48.08.97.1,1.45.02.48-.01.97,0,1.45.02.45.09.89.09,1.34,0,.45.07.9.07,1.35,0,.45-.07.9-.07,1.34,0,.45-.1,1.04-.07,1.49"/><path d="M94.96,110.35c.34.36.89.6,1.4.86.46.24,1.03.25,1.56.39.52.14,1.03.26,1.55.3.58.04,1.11.12,1.59.02.43-.09.96-.19,1.42-.51.38-.26.51-.87.89-1.25.34-.34.74-.64,1.05-1.03.31-.39.67-.75.93-1.16.28-.44.76-.76.97-1.18.25-.51.25-1.07.35-1.48.12-.47.2-.96.25-1.48.05-.49.13-.99.11-1.5-.02-.5-.23-.98-.31-1.47-.08-.5.04-1.05-.12-1.52-.16-.48-.6-.84-.84-1.28-.24-.44-.42-.92-.76-1.29-.34-.37-.81-.56-1.24-.83-.44-.28-.81-.56-1.23-.73-.47-.18-.9-.49-1.36-.54-.48-.05-.95.25-1.43.33-.46.08-.87.23-1.34.42-.42.17-.81.42-1.25.67-.42.24-.94.31-1.29.66-.34.33-.47.84-.75,1.25-.27.39-.87.61-1.08,1.06-.21.43-.07,1.02-.22,1.49-.15.46-.55.86-.64,1.34-.09.48-.05.99-.09,1.47-.03.49-.01.98.01,1.46.02.49.27.95.35,1.42.09.49-.12,1.05.03,1.5.16.47.67.78.91,1.19.25.43.25,1.04.58,1.38M101.64,91.73c.8.52.93.4,1.85.64.15.04.04-.23.13-.36.24-.42.5-.81.74-1.23.24-.42.57-.79.82-1.2.24-.42.61-.76.86-1.18.25-.42.17-1.02.42-1.44.25-.42.58-.78.83-1.2.25-.42.57-.79.81-1.21.25-.42.71-.7.96-1.12.25-.42.31-.94.56-1.35.25-.42.5-.83.75-1.24.25-.41.56-.79.81-1.21s.36-.91.61-1.32c.25-.41.72-.7.97-1.11.25-.41.28-.96.53-1.38.25-.41.61-.76.86-1.17.25-.41.36-.91.62-1.32.25-.41.58-.78.84-1.19.25-.41.67-.72.93-1.13.26-.41.27-.97.52-1.38.26-.41.49-.83.75-1.24.26-.41.47-.85.73-1.26.26-.41.74-.68.99-1.09.26-.41.32-.94.57-1.35.26-.41.86-.6,1.12-1,.26-.41.23-1,.49-1.41.26-.41.77-.66,1.03-1.06.26-.41.43-.87.7-1.28.26-.41.5-.83.76-1.24.26-.41.37-.94.63-1.34.41-.42,1.03-.3,1.5-.26.51.04,1.16.08,1.42.51.23.39.15,1-.08,1.57-.24.4-.54.78-.78,1.18-.25.4-.31.92-.57,1.32-.25.4-.54.78-.8,1.17-.26.4-.45.83-.71,1.23-.26.39-.59.74-.85,1.13-.26.39-.83.58-1.1.97s-.21.99-.47,1.38c-.26.39-.77.62-1.03,1.01-.26.39-.46.83-.71,1.22-.26.39-.4.87-.66,1.26s-.65.7-.91,1.1c-.25.4-.42.85-.68,1.25-.25.4-.41.85-.66,1.25-.26.41-.56.8-.81,1.22-.25.42-.36.92-.61,1.34-.25.42-.46.86-.7,1.28-.25.42-.7.72-.94,1.14-.24.42-.62.77-.86,1.19-.24.42-.2,1.01-.44,1.43-.24.42-.79.67-1.03,1.09-.24.42-.44.87-.68,1.29-.24.42-.19,1.01-.43,1.43-.24.42-.65.75-.9,1.17-.24.42-.31.95-.55,1.37-.25.42-.74.69-.99,1.12-.25.42-.62.76-.87,1.18-.25.42-.41.89-.66,1.3-.25.42-.54.94-.79,1.35.21.64.6.46.98,1.02.38.56.22.68.6,1.24.38.56.23.77.77,1.17.42-.25.94-.57,1.36-.81.42-.25.77-.61,1.19-.85s.8-.56,1.22-.81c.42-.24,1.03-.15,1.46-.39.42-.24.73-.68,1.16-.92s.81-.55,1.23-.78c.43-.24.93-.33,1.36-.57.43-.23.85-.48,1.28-.71.43-.23.84-.49,1.27-.72.43-.23.98-.23,1.41-.46.43-.23.86-.46,1.29-.68s.82-.52,1.25-.75c.43-.23.86-.45,1.3-.67.43-.22.73-.7,1.17-.93.43-.22.9-.37,1.34-.59.43-.22.96-.26,1.39-.48.43-.22.9-.39,1.33-.61.43-.22.87-.44,1.3-.66.43-.22.72-.72,1.16-.94.43-.22,1.03-.12,1.46-.34.43-.22.68-.82,1.11-1.04.43-.22.88-.41,1.32-.63.44-.22.84-.49,1.28-.71.43-.22.98-.23,1.41-.44.43-.22.82-.54,1.25-.76.43-.22,1.01-.15,1.45-.37.43-.22.79-.55,1.22-.76.49,0,.8.22,1.13.46.39.26.98.45,1.05.89.06.39-.37.75-.65,1.19-.43.24-.65.76-1.08,1s-.95.31-1.38.54c-.43.24-.89.42-1.32.65-.43.23-.81.56-1.24.79-.43.23-.79.61-1.22.83-.43.23-.86.47-1.3.7-.44.22-1.03.14-1.47.36-.44.22-.8.59-1.24.81s-.84.5-1.28.72c-.44.22-.96.27-1.4.49-.44.22-.8.6-1.24.82-.44.22-.99.2-1.43.42-.44.22-.92.34-1.36.56-.44.22-.73.75-1.17.96-.44.22-.98.23-1.42.44-.44.22-.89.42-1.33.64-.44.22-.8.59-1.24.81-.44.22-.85.49-1.29.71-.44.22-.81.56-1.25.79-.44.22-.94.31-1.37.54-.44.23-.98.25-1.41.48-.43.23-.88.43-1.32.66-.43.23-.66.83-1.09,1.07-.46.25-.96.46-1.43.73-.46.27-.97.45-1.43.73-.46.28-1.08.32-1.52.61-.45.3-.55.92-.97,1.23.02.38-.21.7-.12,1.1.1.41.52.77.54,1.15.02.31-.33.72-.39,1.1-.07.46-.09.94.14,1.12.18.14.64.5,1.25.72.41.14.96.03,1.43.18.46.15.83.56,1.25.7.55.18,1.17-.04,1.46.1.43.19.84.45,1.27.64.43.19.86.4,1.29.6.43.19.86.4,1.29.59.43.2.9.31,1.33.51.43.2.7.76,1.13.96.43.19.97.16,1.4.35.43.19.84.44,1.28.63.43.19.88.37,1.31.56.43.19.78.58,1.22.77.43.19.9.31,1.34.5.44.19.88.37,1.31.55.44.19.98.12,1.42.3.44.18.89.32,1.33.5.44.18.74.7,1.18.88.44.18,1.02,0,1.46.17.44.18.83.48,1.27.66.44.17.95.16,1.4.33.44.17.78.63,1.22.8.45.16.96.13,1.41.29.45.16.92.24,1.37.39.45.16.81.57,1.26.72.45.16.99.26,1.22.58.26.37.27.93.25,1.35-.02.44-.32.8-.64,1.08-.29.25-.65.51-1.16.49-.25-.01-.78,0-1.29-.18-.38-.14-.65-.67-1.04-.82-.47-.19-.99-.12-1.26-.22-.43-.16-.92-.2-1.36-.36-.43-.16-.87-.34-1.31-.5-.43-.17-.79-.56-1.22-.73-.43-.17-.85-.4-1.28-.57-.43-.17-.99-.04-1.42-.21-.43-.17-.86-.36-1.3-.53-.43-.17-.7-.78-1.13-.95-.43-.17-.95-.15-1.38-.33-.43-.18-.86-.36-1.3-.54-.43-.18-.97-.1-1.4-.28-.43-.18-.76-.6-1.2-.78-.43-.18-.8-.52-1.23-.7-.43-.18-.98-.09-1.41-.28-.43-.19-.76-.61-1.19-.79-.43-.19-.91-.26-1.34-.44-.43-.19-.78-.55-1.2-.74-.46-.2-.92-.36-1.37-.58-.45-.22-.97-.29-1.42-.51-.44-.23-.86-.51-1.31-.73-.45-.23-1.01-.21-1.46-.42-.45-.21-.75-.77-1.21-.96-.46-.19-.94-.38-1.41-.54-.47-.15-1.13-.26-1.62-.37-.53.56-.08.88-.43,1.57s-.69.55-.86,1.31c.32.3.64.62.92.95.28.33.68.58.93.93.25.35.32.83.55,1.2.23.36.4.77.64,1.14.23.36.73.55.98.9.28.39.27.98.55,1.37.28.39.76.63,1.04,1.01.28.39.5.82.78,1.2.29.38.43.87.72,1.25.29.38.71.66,1,1.04.29.38.5.82.79,1.2.29.38.75.62,1.05,1,.29.38.64.71.93,1.09.3.38.48.84.78,1.21.3.37.72.65,1.02,1.02.3.37.37.93.67,1.3.3.37.58.76.88,1.13.3.37.79.58,1.1.95.3.37.51.82.82,1.18.3.37.51.82.81,1.19.31.37.62.73.93,1.09.31.36.57.76.88,1.13.31.36.7.66,1.01,1.02.31.36.81.57,1.12.93.31.36.71.64,1.03,1,.31.36.3,1.01.61,1.37.31.36.61.73.93,1.09.31.36.91.47,1.23.83.32.36.67.68.98,1.04.32.36.31.99.63,1.35.27.36.34.66.35,1.09,0,.43.25,1,.1,1.4-.55.27-1.15.37-1.54.34-.49-.04-.85-.46-1.25-.79-.34-.28-.84-.47-1.21-.85-.34-.34-.64-.74-.99-1.1-.33-.35-.55-.83-.89-1.2-.33-.36-.82-.58-1.15-.96-.32-.37-.57-.81-.9-1.19-.32-.37-.45-.92-.77-1.29-.32-.38-.69-.72-1-1.1-.32-.38-.55-.84-.86-1.22-.32-.38-.72-.69-1.03-1.07-.32-.39-.8-.63-1.11-1.01-.32-.39-.67-.74-.98-1.11-.32-.39-.52-.87-.82-1.24-.31-.38-.61-.76-.92-1.15-.31-.38-.78-.63-1.09-1.01-.3-.38-.27-1.03-.57-1.42-.3-.39-.74-.66-1.04-1.05-.3-.39-.45-.89-.74-1.28-.29-.39-.8-.63-1.09-1.02-.29-.39-.53-.82-.82-1.22s-.49-.85-.78-1.25c-.29-.4-.85-.6-1.13-1-.29-.4-.19-1.07-.47-1.47-.28-.4-.73-.68-1.01-1.08-.28-.4-.78-.65-1.06-1.05-.28-.4-.58-.79-.86-1.19s-.51-.84-.79-1.24c-.28-.4-.28-1-.56-1.4-.28-.4-.57-.85-.85-1.25-.25-.22-.36-.03-.69-.03-.35.35-.76.46-1.18.74-.42.27-.93.32-1.4.5-.47.19-.9.34-1.39.43-.5.09-1.04.24-1.53.21-.03.47.24,1.05.21,1.52-.03.47-.26.93-.29,1.4-.03.47-.23.93-.27,1.4s.03.95,0,1.42c-.04.47-.18.93-.22,1.4s-.19.93-.23,1.4c-.04.47-.09.94-.13,1.41-.04.47.25.97.2,1.44s.03.95-.02,1.42c-.05.47-.37.91-.41,1.38-.04.47,0,.95-.05,1.41-.05.47-.39.91-.43,1.38-.04.47.16.96.12,1.43-.04.47-.27.92-.31,1.39-.04.47-.12.94-.15,1.41-.04.47.22.96.18,1.43-.03.47-.09.94-.12,1.41-.03.47,0,.94-.03,1.41-.03.47.06.94.04,1.41-.02.47-.43.93-.44,1.4-.01.4.1.96.14,1.54.04.5.17,1.02.14,1.51-.03.57.05,1.23-.24,1.58-.28.33-.9.46-1.57.4-.52-.05-.89-.43-1.15-.9-.2-.38-.41-.86-.49-1.4-.07-.46.04-.98.03-1.48,0-.5-.15-1.01-.13-1.47.03-.58.02-1.09.03-1.46.02-.46.32-.91.35-1.38.03-.46.18-.91.22-1.38.03-.46-.12-.94-.08-1.4.04-.46.18-.91.22-1.38.05-.46-.08-.94-.03-1.4.05-.46.38-.89.43-1.35.06-.46-.1-.95-.04-1.41.06-.46.26-.9.32-1.36.06-.46.11-.92.17-1.38.06-.46-.21-.96-.15-1.42.06-.46.33-.89.39-1.35.06-.46.19-.91.24-1.37.05-.46-.18-.95-.13-1.41.05-.49.27-.96.31-1.46.04-.49-.16-1-.12-1.49.03-.49.39-.96.43-1.45.03-.49-.24-1.01-.2-1.5.04-.49.39-.96.44-1.45.05-.49-.2-.88-.14-1.36-.51-.14-.76-.56-1.22-.78-.47-.22-1.06-.22-1.48-.52-.42-.29-.71-.71-1.08-1.08-.63.34-.47.52-.95,1.06-.47.54-.39.61-.86,1.15-.47.54-.53.5-1,1.04-.47.54-.53.49-1.01,1.04-.47.54-.53.5-1,1.04-.47.54-.32.68-.79,1.22-.48.54-.52.51-1,1.05-.47.54-.42.59-.9,1.13-.47.54-.46.56-.93,1.1-.47.54-.55.47-1.02,1.02-.48.54-.62.42-1.09.97-.48.55-.44.57-.92,1.12-.48.55-.25.75-.72,1.3-.48.55-.73.33-1.21.87-.32.33-.37.92-.69,1.28-.31.35-.77.56-1.08.93-.3.36-.61.71-.91,1.08-.29.37-.77.6-1.05.98-.28.38-.19,1.03-.47,1.41-.28.38-.66.68-.94,1.06-.28.38-.5.8-.78,1.19-.28.39-.73.65-1,1.03-.28.38-.66.69-.94,1.07-.28.38-.55.77-.83,1.14-.29.38-.61.72-.9,1.09-.3.37-.55.77-.86,1.12-.31.36-.52.81-.83,1.14-.33.35-.57.78-.9,1.1-.48.45-.99.67-1.4.75-.59.11-1.25-.09-1.53-.51-.26-.39-.4-1.09-.27-1.66.1-.44.58-.84,1-1.26.3-.36.67-.68.97-1.05.3-.37.46-.85.76-1.21.3-.36.79-.58,1.09-.94s.33-.96.63-1.32c.3-.36.94-.45,1.24-.81.3-.36.41-.89.71-1.26.31-.36.69-.66,1-1.02.31-.36.49-.83.79-1.19.31-.36.56-.76.87-1.13s.8-.57,1.1-.93c.31-.36.51-.81.82-1.17.31-.36.69-.66,1-1.02.31-.36.5-.82.81-1.18.31-.36.79-.57,1.1-.93.31-.36.46-.86.76-1.22.31-.36.54-.79.85-1.15.31-.36.94-.44,1.25-.8.31-.36.29-1.01.6-1.36.31-.36.77-.59,1.08-.94.31-.36.79-.57,1.1-.92.31-.36.43-.88.75-1.24s.56-.76.88-1.12c.31-.36.57-.76.89-1.12.31-.35.77-.58,1.09-.94s.49-.84.8-1.19.88-.48,1.2-.83c.32-.35.4-.92.72-1.27.32-.35.79-.57,1.11-.92.18-.32,0-.91-.18-1.5-.16-.53-.34-1.08-.44-1.46-.15-.58.09-1.61-.68-1.63-.48.1-.98.05-1.46.15-.48.1-.98.06-1.46.16-.48.1-.96.18-1.44.28-.48.1-.94.29-1.42.4-.48.1-.89.53-1.36.63-.48.1-1.04-.22-1.52-.12-.48.1-.89.5-1.37.6-.48.1-.96.18-1.44.28-.48.1-.98.07-1.46.17-.48.1-.89.5-1.37.6-.48.1-1.01-.06-1.49.04-.48.1-.92.36-1.4.46-.48.1-.95.23-1.43.33-.48.1-.98.09-1.46.19-.48.11-.93.33-1.4.44-.48.11-.95.22-1.43.33s-.96.18-1.44.29c-.48.11-1.02-.09-1.5.02-.48.11-.85.64-1.33.75-.47.11-.95.21-1.43.32-.47.11-.97.16-1.44.27-.47.11-.98.1-1.46.21-.48.11-.98.08-1.46.2-.48.12-.92.64-1.39.75-.43-.01-.35-.43-.74-.62-.36-.4-.62-.57-.72-.92-.13-.46,0-.77.33-1.11.25-.26.48-.72.99-.9.44-.16.98-.13,1.49-.28.46-.14.93-.31,1.43-.44.47-.12.99-.11,1.49-.23.48-.11.93-.38,1.43-.49.48-.11.96-.29,1.45-.4.49-.1,1.05.13,1.54.03.5-.1.92-.54,1.41-.63.5-.1,1.02-.06,1.51-.15.51-.1,1.03-.02,1.51-.11.51-.1.97-.36,1.44-.45.47-.1.9-.43,1.38-.53.47-.1,1.01.12,1.49.02.47-.1.93-.28,1.41-.37.48-.09.91-.39,1.39-.48.48-.09,1.03.21,1.5.12.48-.09.9-.47,1.37-.56.48-.09.92-.33,1.4-.42.48-.09,1.04.25,1.51.16.48-.09.9-.46,1.38-.55.48-.09.96-.15,1.43-.24.48-.09.99-.01,1.46-.11.48-.09.88-.54,1.36-.64s.96-.14,1.44-.23c.48-.1.92-.08,1.4-.18.4-.8.33-.82.55-1.69.22-.86.6-.85.61-1.74-.43-.18-1.12-.25-1.55-.43-.43-.19-.8-.53-1.23-.72-.43-.19-.93-.24-1.35-.44-.43-.2-.9-.3-1.32-.51-.42-.2-.64-.83-1.06-1.04-.42-.21-1.04-.02-1.46-.24-.42-.21-.63-.83-1.05-1.04-.42-.21-.92-.26-1.34-.48-.42-.21-.94-.23-1.36-.45-.42-.22-.84-.42-1.26-.64s-.83-.44-1.25-.65c-.42-.22-.65-.79-1.06-1.01-.42-.22-.99-.12-1.41-.34-.42-.22-.8-.51-1.22-.72-.42-.21-.81-.49-1.23-.7-.45-.23-.9-.46-1.36-.68-.45-.22-.96-.32-1.42-.54-.46-.21-.88-.5-1.34-.71s-.9-.47-1.36-.68c-.46-.21-1-.25-1.46-.47-.46-.21-.86-.56-1.32-.78-.46-.22-.88-.51-1.33-.74-.46-.22-1.02-.22-1.47-.45-.45-.23-.78-.71-1.22-.94-.26-.14-.77-.4-1.34-.71-.43-.24-1.03-.28-1.45-.53-.59-.35-1.01-.81-1.16-.99-.37-.46-.56-1.07-.4-1.56.17-.49.69-.86,1.25-1.02.21-.06.64.16,1.2.42.35.16.68.48,1.09.7.37.21.79.37,1.16.59.4.23.75.5,1.1.71.48.29,1.01.31,1.24.43.43.22.83.48,1.26.69.43.21.9.33,1.33.54.43.21.75.65,1.18.85.43.21.9.33,1.33.53.43.21.88.38,1.31.59.43.21.97.2,1.4.41.43.21.71.72,1.14.93.43.21.97.2,1.4.41.42.21.77.57,1.19.78.42.22.81.5,1.22.72.42.22.94.24,1.36.46.42.22.87.37,1.29.59.42.22.61.86,1.03,1.08.42.22.92.29,1.33.51.42.22.95.23,1.37.45.42.22.64.81,1.06,1.03.42.22.95.22,1.37.44.42.22.88.35,1.3.57.42.21.69.74,1.11.95.42.21.98.15,1.4.36.42.21.82.47,1.25.68.43.2.79.55,1.21.75s.94.19,1.38.38c.24.05.29.18.48.02.58-.49.57-.52,1.04-1.12.47-.6.72-.5,1.02-1.2-.26-.39-.8-.78-1.06-1.18-.26-.39-.36-.9-.62-1.29-.26-.39-.38-.88-.64-1.28-.26-.4-.81-.6-1.07-1-.26-.4-.36-.9-.61-1.29-.26-.4-.48-.81-.74-1.21-.26-.4-.72-.66-.98-1.05-.26-.4-.29-.94-.55-1.34-.26-.4-.59-.74-.85-1.14-.26-.39-.53-.78-.8-1.17-.26-.39-.52-.79-.78-1.18-.28-.41-.47-.89-.75-1.3-.28-.41-.52-.85-.81-1.26-.28-.41-.94-.56-1.22-.97-.28-.41-.21-1.07-.5-1.48-.29-.41-.83-.63-1.12-1.04-.29-.41-.5-.86-.79-1.27-.29-.41-.65-.76-.94-1.17-.28-.41-.26-1.03-.54-1.44-.28-.41-.77-.68-1.05-1.09-.28-.41-.6-.8-.87-1.21-.28-.41-.49-.87-.76-1.29-.27-.42-.49-.87-.76-1.29-.2-.31-.67-.68-1.02-1.2-.29-.43-.47-.97-.74-1.39-.36-.56-.82-1-.93-1.3-.22-.59-.19-1.25.01-1.64.24-.48.88-.67,1.4-.68.45-.01.97.13,1.38.6.25.42.62.77.88,1.19.25.42.46.87.71,1.28.26.42.25,1,.51,1.41.26.41.54.82.81,1.23.26.41.74.68,1.01,1.1.27.41.42.89.69,1.3.27.41.5.84.77,1.25.27.41.72.7.99,1.1.27.41.35.94.62,1.35.27.41.67.73.94,1.14.27.41.53.82.8,1.23.27.41.36.94.63,1.35.27.41.88.59,1.15,1,.27.41.41.9.68,1.31.27.41.32.96.6,1.37.27.41.58.79.85,1.19.27.41.62.76.89,1.17.27.41.76.67,1.03,1.08.27.41.43.89.69,1.3.27.41.56.81.82,1.22.26.41.65.74.92,1.16.26.41.45.87.71,1.29.26.42.26.99.51,1.41.26.42.66.74.91,1.16s.28.97.53,1.39c.25.42.7.73.95,1.15.63-.05.49-.46,1.06-.73.57-.27.64-.07,1.11-.5-.03-.48.16-.83.14-1.3-.02-.48-.07-.96-.09-1.43-.02-.48.03-.96.01-1.44-.02-.48-.39-.94-.4-1.42-.02-.48.22-.97.2-1.45-.02-.48-.28-.95-.3-1.43-.02-.48.29-.97.27-1.45-.02-.48-.02-.96-.03-1.44-.01-.48.03-.96.02-1.44-.01-.48-.31-.95-.32-1.43s-.12-.96-.13-1.43c-.01-.48.32-.97.31-1.45s-.39-.95-.4-1.43c-.01-.48.06-.96.05-1.44-.01-.49.19-.97.19-1.45,0-.49-.17-.97-.18-1.45,0-.48.1-.96.08-1.43-.01-.48-.19-.95-.21-1.43-.01-.48.13-.96.12-1.44-.01-.48-.15-.95-.17-1.43-.01-.48-.16-.95-.17-1.43-.01-.48.21-.96.2-1.44-.01-.48-.15-.96-.16-1.43,0-.48.11-.96.11-1.44,0-.48.14-.96.14-1.44,0-.48-.32-.96-.32-1.44,0-.48.09-.96.1-1.44.02-.22.77-.93.88-.97.71-.22.88.37,1.09-.47.32.11.89.65,1.03,1.28.09.4-.06.93-.02,1.45.03.45-.17.93-.16,1.42,0,.48.04.95.03,1.42-.01.51.11.99.09,1.42-.02.61-.02,1.12-.01,1.42.02.48.1.96.13,1.45.02.48.23.96.26,1.44.02.48-.25.98-.22,1.47.03.48.25.96.28,1.44s-.1.98-.07,1.46,0,.97.03,1.45c.03.48.12.96.16,1.45.03.48-.07.97-.04,1.46.03.48.35.95.39,1.43.03.48-.05.97-.02,1.46.03.48.05.97.08,1.45.03.48.12.96.15,1.45.03.48-.08.98-.06,1.46.03.48.1.96.13,1.45.03.48.33.95.35,1.44.03.48-.25.98-.22,1.47.02.48.08.97.1,1.45.02.48-.01.97,0,1.45.02.45.09.89.09,1.34,0,.45.07.9.07,1.35,0,.45-.07.9-.07,1.34,0,.45-.1,1.04-.07,1.49"/><path d="M94.96,110.35c.34.36.89.6,1.4.86.46.24,1.03.25,1.56.39.52.14,1.03.26,1.55.3.58.04,1.11.12,1.59.02.43-.09.96-.19,1.42-.51.38-.26.51-.87.89-1.25.34-.34.74-.64,1.05-1.03.31-.39.67-.75.93-1.16.28-.44.76-.76.97-1.18.25-.51.25-1.07.35-1.48.12-.47.2-.96.25-1.48.05-.49.13-.99.11-1.5-.02-.5-.23-.98-.31-1.47-.08-.5.04-1.05-.12-1.52-.16-.48-.6-.84-.84-1.28-.24-.44-.42-.92-.76-1.29-.34-.37-.81-.56-1.24-.83-.44-.28-.81-.56-1.23-.73-.47-.18-.9-.49-1.36-.54-.48-.05-.95.25-1.43.33-.46.08-.87.23-1.34.42-.42.17-.81.42-1.25.67-.42.24-.94.31-1.29.66-.34.33-.47.84-.75,1.25-.27.39-.87.61-1.08,1.06-.21.43-.07,1.02-.22,1.49-.15.46-.55.86-.64,1.34-.09.48-.05.99-.09,1.47-.03.49-.01.98.01,1.46.02.49.27.95.35,1.42.09.49-.12,1.05.03,1.5.16.47.67.78.91,1.19.25.43.25,1.04.58,1.38M101.64,91.73c.8.52.93.4,1.85.64.15.04.04-.23.13-.36.24-.42.5-.81.74-1.23.24-.42.57-.79.82-1.2.24-.42.61-.76.86-1.18.25-.42.17-1.02.42-1.44.25-.42.58-.78.83-1.2.25-.42.57-.79.81-1.21.25-.42.71-.7.96-1.12.25-.42.31-.94.56-1.35.25-.42.5-.83.75-1.24.25-.41.56-.79.81-1.21s.36-.91.61-1.32c.25-.41.72-.7.97-1.11.25-.41.28-.96.53-1.38.25-.41.61-.76.86-1.17.25-.41.36-.91.62-1.32.25-.41.58-.78.84-1.19.25-.41.67-.72.93-1.13.26-.41.27-.97.52-1.38.26-.41.49-.83.75-1.24.26-.41.47-.85.73-1.26.26-.41.74-.68.99-1.09.26-.41.32-.94.57-1.35.26-.41.86-.6,1.12-1,.26-.41.23-1,.49-1.41.26-.41.77-.66,1.03-1.06.26-.41.43-.87.7-1.28.26-.41.5-.83.76-1.24.26-.41.37-.94.63-1.34.41-.42,1.03-.3,1.5-.26.51.04,1.16.08,1.42.51.23.39.15,1-.08,1.57-.24.4-.54.78-.78,1.18-.25.4-.31.92-.57,1.32-.25.4-.54.78-.8,1.17-.26.4-.45.83-.71,1.23-.26.39-.59.74-.85,1.13-.26.39-.83.58-1.1.97s-.21.99-.47,1.38c-.26.39-.77.62-1.03,1.01-.26.39-.46.83-.71,1.22-.26.39-.4.87-.66,1.26s-.65.7-.91,1.1c-.25.4-.42.85-.68,1.25-.25.4-.41.85-.66,1.25-.26.41-.56.8-.81,1.22-.25.42-.36.92-.61,1.34-.25.42-.46.86-.7,1.28-.25.42-.7.72-.94,1.14-.24.42-.62.77-.86,1.19-.24.42-.2,1.01-.44,1.43-.24.42-.79.67-1.03,1.09-.24.42-.44.87-.68,1.29-.24.42-.19,1.01-.43,1.43-.24.42-.65.75-.9,1.17-.24.42-.31.95-.55,1.37-.25.42-.74.69-.99,1.12-.25.42-.62.76-.87,1.18-.25.42-.41.89-.66,1.3-.25.42-.54.94-.79,1.35.21.64.6.46.98,1.02.38.56.22.68.6,1.24.38.56.23.77.77,1.17.42-.25.94-.57,1.36-.81.42-.25.77-.61,1.19-.85s.8-.56,1.22-.81c.42-.24,1.03-.15,1.46-.39.42-.24.73-.68,1.16-.92s.81-.55,1.23-.78c.43-.24.93-.33,1.36-.57.43-.23.85-.48,1.28-.71.43-.23.84-.49,1.27-.72.43-.23.98-.23,1.41-.46.43-.23.86-.46,1.29-.68s.82-.52,1.25-.75c.43-.23.86-.45,1.3-.67.43-.22.73-.7,1.17-.93.43-.22.9-.37,1.34-.59.43-.22.96-.26,1.39-.48.43-.22.9-.39,1.33-.61.43-.22.87-.44,1.3-.66.43-.22.72-.72,1.16-.94.43-.22,1.03-.12,1.46-.34.43-.22.68-.82,1.11-1.04.43-.22.88-.41,1.32-.63.44-.22.84-.49,1.28-.71.43-.22.98-.23,1.41-.44.43-.22.82-.54,1.25-.76.43-.22,1.01-.15,1.45-.37.43-.22.79-.55,1.22-.76.49,0,.8.22,1.13.46.39.26.98.45,1.05.89.06.39-.37.75-.65,1.19-.43.24-.65.76-1.08,1s-.95.31-1.38.54c-.43.24-.89.42-1.32.65-.43.23-.81.56-1.24.79-.43.23-.79.61-1.22.83-.43.23-.86.47-1.3.7-.44.22-1.03.14-1.47.36-.44.22-.8.59-1.24.81s-.84.5-1.28.72c-.44.22-.96.27-1.4.49-.44.22-.8.6-1.24.82-.44.22-.99.2-1.43.42-.44.22-.92.34-1.36.56-.44.22-.73.75-1.17.96-.44.22-.98.23-1.42.44-.44.22-.89.42-1.33.64-.44.22-.8.59-1.24.81-.44.22-.85.49-1.29.71-.44.22-.81.56-1.25.79-.44.22-.94.31-1.37.54-.44.23-.98.25-1.41.48-.43.23-.88.43-1.32.66-.43.23-.66.83-1.09,1.07-.46.25-.96.46-1.43.73-.46.27-.97.45-1.43.73-.46.28-1.08.32-1.52.61-.45.3-.55.92-.97,1.23.02.38-.21.7-.12,1.1.1.41.52.77.54,1.15.02.31-.33.72-.39,1.1-.07.46-.09.94.14,1.12.18.14.64.5,1.25.72.41.14.96.03,1.43.18.46.15.83.56,1.25.7.55.18,1.17-.04,1.46.1.43.19.84.45,1.27.64.43.19.86.4,1.29.6.43.19.86.4,1.29.59.43.2.9.31,1.33.51.43.2.7.76,1.13.96.43.19.97.16,1.4.35.43.19.84.44,1.28.63.43.19.88.37,1.31.56.43.19.78.58,1.22.77.43.19.9.31,1.34.5.44.19.88.37,1.31.55.44.19.98.12,1.42.3.44.18.89.32,1.33.5.44.18.74.7,1.18.88.44.18,1.02,0,1.46.17.44.18.83.48,1.27.66.44.17.95.16,1.4.33.44.17.78.63,1.22.8.45.16.96.13,1.41.29.45.16.92.24,1.37.39.45.16.81.57,1.26.72.45.16.99.26,1.22.58.26.37.27.93.25,1.35-.02.44-.32.8-.64,1.08-.29.25-.65.51-1.16.49-.25-.01-.78,0-1.29-.18-.38-.14-.65-.67-1.04-.82-.47-.19-.99-.12-1.26-.22-.43-.16-.92-.2-1.36-.36-.43-.16-.87-.34-1.31-.5-.43-.17-.79-.56-1.22-.73-.43-.17-.85-.4-1.28-.57-.43-.17-.99-.04-1.42-.21-.43-.17-.86-.36-1.3-.53-.43-.17-.7-.78-1.13-.95-.43-.17-.95-.15-1.38-.33-.43-.18-.86-.36-1.3-.54-.43-.18-.97-.1-1.4-.28-.43-.18-.76-.6-1.2-.78-.43-.18-.8-.52-1.23-.7-.43-.18-.98-.09-1.41-.28-.43-.19-.76-.61-1.19-.79-.43-.19-.91-.26-1.34-.44-.43-.19-.78-.55-1.2-.74-.46-.2-.92-.36-1.37-.58-.45-.22-.97-.29-1.42-.51-.44-.23-.86-.51-1.31-.73-.45-.23-1.01-.21-1.46-.42-.45-.21-.75-.77-1.21-.96-.46-.19-.94-.38-1.41-.54-.47-.15-1.13-.26-1.62-.37-.53.56-.08.88-.43,1.57s-.69.55-.86,1.31c.32.3.64.62.92.95.28.33.68.58.93.93.25.35.32.83.55,1.2.23.36.4.77.64,1.14.23.36.73.55.98.9.28.39.27.98.55,1.37.28.39.76.63,1.04,1.01.28.39.5.82.78,1.2.29.38.43.87.72,1.25.29.38.71.66,1,1.04.29.38.5.82.79,1.2.29.38.75.62,1.05,1,.29.38.64.71.93,1.09.3.38.48.84.78,1.21.3.37.72.65,1.02,1.02.3.37.37.93.67,1.3.3.37.58.76.88,1.13.3.37.79.58,1.1.95.3.37.51.82.82,1.18.3.37.51.82.81,1.19.31.37.62.73.93,1.09.31.36.57.76.88,1.13.31.36.7.66,1.01,1.02.31.36.81.57,1.12.93.31.36.71.64,1.03,1,.31.36.3,1.01.61,1.37.31.36.61.73.93,1.09.31.36.91.47,1.23.83.32.36.67.68.98,1.04.32.36.31.99.63,1.35.27.36.34.66.35,1.09,0,.43.25,1,.1,1.4-.55.27-1.15.37-1.54.34-.49-.04-.85-.46-1.25-.79-.34-.28-.84-.47-1.21-.85-.34-.34-.64-.74-.99-1.1-.33-.35-.55-.83-.89-1.2-.33-.36-.82-.58-1.15-.96-.32-.37-.57-.81-.9-1.19-.32-.37-.45-.92-.77-1.29-.32-.38-.69-.72-1-1.1-.32-.38-.55-.84-.86-1.22-.32-.38-.72-.69-1.03-1.07-.32-.39-.8-.63-1.11-1.01-.32-.39-.67-.74-.98-1.11-.32-.39-.52-.87-.82-1.24-.31-.38-.61-.76-.92-1.15-.31-.38-.78-.63-1.09-1.01-.3-.38-.27-1.03-.57-1.42-.3-.39-.74-.66-1.04-1.05-.3-.39-.45-.89-.74-1.28-.29-.39-.8-.63-1.09-1.02-.29-.39-.53-.82-.82-1.22s-.49-.85-.78-1.25c-.29-.4-.85-.6-1.13-1-.29-.4-.19-1.07-.47-1.47-.28-.4-.73-.68-1.01-1.08-.28-.4-.78-.65-1.06-1.05-.28-.4-.58-.79-.86-1.19s-.51-.84-.79-1.24c-.28-.4-.28-1-.56-1.4-.28-.4-.57-.85-.85-1.25-.25-.22-.36-.03-.69-.03-.35.35-.76.46-1.18.74-.42.27-.93.32-1.4.5-.47.19-.9.34-1.39.43-.5.09-1.04.24-1.53.21-.03.47.24,1.05.21,1.52-.03.47-.26.93-.29,1.4-.03.47-.23.93-.27,1.4s.03.95,0,1.42c-.04.47-.18.93-.22,1.4s-.19.93-.23,1.4c-.04.47-.09.94-.13,1.41-.04.47.25.97.2,1.44s.03.95-.02,1.42c-.05.47-.37.91-.41,1.38-.04.47,0,.95-.05,1.41-.05.47-.39.91-.43,1.38-.04.47.16.96.12,1.43-.04.47-.27.92-.31,1.39-.04.47-.12.94-.15,1.41-.04.47.22.96.18,1.43-.03.47-.09.94-.12,1.41-.03.47,0,.94-.03,1.41-.03.47.06.94.04,1.41-.02.47-.43.93-.44,1.4-.01.4.1.96.14,1.54.04.5.17,1.02.14,1.51-.03.57.05,1.23-.24,1.58-.28.33-.9.46-1.57.4-.52-.05-.89-.43-1.15-.9-.2-.38-.41-.86-.49-1.4-.07-.46.04-.98.03-1.48,0-.5-.15-1.01-.13-1.47.03-.58.02-1.09.03-1.46.02-.46.32-.91.35-1.38.03-.46.18-.91.22-1.38.03-.46-.12-.94-.08-1.4.04-.46.18-.91.22-1.38.05-.46-.08-.94-.03-1.4.05-.46.38-.89.43-1.35.06-.46-.1-.95-.04-1.41.06-.46.26-.9.32-1.36.06-.46.11-.92.17-1.38.06-.46-.21-.96-.15-1.42.06-.46.33-.89.39-1.35.06-.46.19-.91.24-1.37.05-.46-.18-.95-.13-1.41.05-.49.27-.96.31-1.46.04-.49-.16-1-.12-1.49.03-.49.39-.96.43-1.45.03-.49-.24-1.01-.2-1.5.04-.49.39-.96.44-1.45.05-.49-.2-.88-.14-1.36-.51-.14-.76-.56-1.22-.78-.47-.22-1.06-.22-1.48-.52-.42-.29-.71-.71-1.08-1.08-.63.34-.47.52-.95,1.06-.47.54-.39.61-.86,1.15-.47.54-.53.5-1,1.04-.47.54-.53.49-1.01,1.04-.47.54-.53.5-1,1.04-.47.54-.32.68-.79,1.22-.48.54-.52.51-1,1.05-.47.54-.42.59-.9,1.13-.47.54-.46.56-.93,1.1-.47.54-.55.47-1.02,1.02-.48.54-.62.42-1.09.97-.48.55-.44.57-.92,1.12-.48.55-.25.75-.72,1.3-.48.55-.73.33-1.21.87-.32.33-.37.92-.69,1.28-.31.35-.77.56-1.08.93-.3.36-.61.71-.91,1.08-.29.37-.77.6-1.05.98-.28.38-.19,1.03-.47,1.41-.28.38-.66.68-.94,1.06-.28.38-.5.8-.78,1.19-.28.39-.73.65-1,1.03-.28.38-.66.69-.94,1.07-.28.38-.55.77-.83,1.14-.29.38-.61.72-.9,1.09-.3.37-.55.77-.86,1.12-.31.36-.52.81-.83,1.14-.33.35-.57.78-.9,1.1-.48.45-.99.67-1.4.75-.59.11-1.25-.09-1.53-.51-.26-.39-.4-1.09-.27-1.66.1-.44.58-.84,1-1.26.3-.36.67-.68.97-1.05.3-.37.46-.85.76-1.21.3-.36.79-.58,1.09-.94s.33-.96.63-1.32c.3-.36.94-.45,1.24-.81.3-.36.41-.89.71-1.26.31-.36.69-.66,1-1.02.31-.36.49-.83.79-1.19.31-.36.56-.76.87-1.13s.8-.57,1.1-.93c.31-.36.51-.81.82-1.17.31-.36.69-.66,1-1.02.31-.36.5-.82.81-1.18.31-.36.79-.57,1.1-.93.31-.36.46-.86.76-1.22.31-.36.54-.79.85-1.15.31-.36.94-.44,1.25-.8.31-.36.29-1.01.6-1.36.31-.36.77-.59,1.08-.94.31-.36.79-.57,1.1-.92.31-.36.43-.88.75-1.24s.56-.76.88-1.12c.31-.36.57-.76.89-1.12.31-.35.77-.58,1.09-.94s.49-.84.8-1.19.88-.48,1.2-.83c.32-.35.4-.92.72-1.27.32-.35.79-.57,1.11-.92.18-.32,0-.91-.18-1.5-.16-.53-.34-1.08-.44-1.46-.15-.58.09-1.61-.68-1.63-.48.1-.98.05-1.46.15-.48.1-.98.06-1.46.16-.48.1-.96.18-1.44.28-.48.1-.94.29-1.42.4-.48.1-.89.53-1.36.63-.48.1-1.04-.22-1.52-.12-.48.1-.89.5-1.37.6-.48.1-.96.18-1.44.28-.48.1-.98.07-1.46.17-.48.1-.89.5-1.37.6-.48.1-1.01-.06-1.49.04-.48.1-.92.36-1.4.46-.48.1-.95.23-1.43.33-.48.1-.98.09-1.46.19-.48.11-.93.33-1.4.44-.48.11-.95.22-1.43.33s-.96.18-1.44.29c-.48.11-1.02-.09-1.5.02-.48.11-.85.64-1.33.75-.47.11-.95.21-1.43.32-.47.11-.97.16-1.44.27-.47.11-.98.1-1.46.21-.48.11-.98.08-1.46.2-.48.12-.92.64-1.39.75-.43-.01-.35-.43-.74-.62-.36-.4-.62-.57-.72-.92-.13-.46,0-.77.33-1.11.25-.26.48-.72.99-.9.44-.16.98-.13,1.49-.28.46-.14.93-.31,1.43-.44.47-.12.99-.11,1.49-.23.48-.11.93-.38,1.43-.49.48-.11.96-.29,1.45-.4.49-.1,1.05.13,1.54.03.5-.1.92-.54,1.41-.63.5-.1,1.02-.06,1.51-.15.51-.1,1.03-.02,1.51-.11.51-.1.97-.36,1.44-.45.47-.1.9-.43,1.38-.53.47-.1,1.01.12,1.49.02.47-.1.93-.28,1.41-.37.48-.09.91-.39,1.39-.48.48-.09,1.03.21,1.5.12.48-.09.9-.47,1.37-.56.48-.09.92-.33,1.4-.42.48-.09,1.04.25,1.51.16.48-.09.9-.46,1.38-.55.48-.09.96-.15,1.43-.24.48-.09.99-.01,1.46-.11.48-.09.88-.54,1.36-.64s.96-.14,1.44-.23c.48-.1.92-.08,1.4-.18.4-.8.33-.82.55-1.69.22-.86.6-.85.61-1.74-.43-.18-1.12-.25-1.55-.43-.43-.19-.8-.53-1.23-.72-.43-.19-.93-.24-1.35-.44-.43-.2-.9-.3-1.32-.51-.42-.2-.64-.83-1.06-1.04-.42-.21-1.04-.02-1.46-.24-.42-.21-.63-.83-1.05-1.04-.42-.21-.92-.26-1.34-.48-.42-.21-.94-.23-1.36-.45-.42-.22-.84-.42-1.26-.64s-.83-.44-1.25-.65c-.42-.22-.65-.79-1.06-1.01-.42-.22-.99-.12-1.41-.34-.42-.22-.8-.51-1.22-.72-.42-.21-.81-.49-1.23-.7-.45-.23-.9-.46-1.36-.68-.45-.22-.96-.32-1.42-.54-.46-.21-.88-.5-1.34-.71s-.9-.47-1.36-.68c-.46-.21-1-.25-1.46-.47-.46-.21-.86-.56-1.32-.78-.46-.22-.88-.51-1.33-.74-.46-.22-1.02-.22-1.47-.45-.45-.23-.78-.71-1.22-.94-.26-.14-.77-.4-1.34-.71-.43-.24-1.03-.28-1.45-.53-.59-.35-1.01-.81-1.16-.99-.37-.46-.56-1.07-.4-1.56.17-.49.69-.86,1.25-1.02.21-.06.64.16,1.2.42.35.16.68.48,1.09.7.37.21.79.37,1.16.59.4.23.75.5,1.1.71.48.29,1.01.31,1.24.43.43.22.83.48,1.26.69.43.21.9.33,1.33.54.43.21.75.65,1.18.85.43.21.9.33,1.33.53.43.21.88.38,1.31.59.43.21.97.2,1.4.41.43.21.71.72,1.14.93.43.21.97.2,1.4.41.42.21.77.57,1.19.78.42.22.81.5,1.22.72.42.22.94.24,1.36.46.42.22.87.37,1.29.59.42.22.61.86,1.03,1.08.42.22.92.29,1.33.51.42.22.95.23,1.37.45.42.22.64.81,1.06,1.03.42.22.95.22,1.37.44.42.22.88.35,1.3.57.42.21.69.74,1.11.95.42.21.98.15,1.4.36.42.21.82.47,1.25.68.43.2.79.55,1.21.75s.94.19,1.38.38c.24.05.29.18.48.02.58-.49.57-.52,1.04-1.12.47-.6.72-.5,1.02-1.2-.26-.39-.8-.78-1.06-1.18-.26-.39-.36-.9-.62-1.29-.26-.39-.38-.88-.64-1.28-.26-.4-.81-.6-1.07-1-.26-.4-.36-.9-.61-1.29-.26-.4-.48-.81-.74-1.21-.26-.4-.72-.66-.98-1.05-.26-.4-.29-.94-.55-1.34-.26-.4-.59-.74-.85-1.14-.26-.39-.53-.78-.8-1.17-.26-.39-.52-.79-.78-1.18-.28-.41-.47-.89-.75-1.3-.28-.41-.52-.85-.81-1.26-.28-.41-.94-.56-1.22-.97-.28-.41-.21-1.07-.5-1.48-.29-.41-.83-.63-1.12-1.04-.29-.41-.5-.86-.79-1.27-.29-.41-.65-.76-.94-1.17-.28-.41-.26-1.03-.54-1.44-.28-.41-.77-.68-1.05-1.09-.28-.41-.6-.8-.87-1.21-.28-.41-.49-.87-.76-1.29-.27-.42-.49-.87-.76-1.29-.2-.31-.67-.68-1.02-1.2-.29-.43-.47-.97-.74-1.39-.36-.56-.82-1-.93-1.3-.22-.59-.19-1.25.01-1.64.24-.48.88-.67,1.4-.68.45-.01.97.13,1.38.6.25.42.62.77.88,1.19.25.42.46.87.71,1.28.26.42.25,1,.51,1.41.26.41.54.82.81,1.23.26.41.74.68,1.01,1.1.27.41.42.89.69,1.3.27.41.5.84.77,1.25.27.41.72.7.99,1.1.27.41.35.94.62,1.35.27.41.67.73.94,1.14.27.41.53.82.8,1.23.27.41.36.94.63,1.35.27.41.88.59,1.15,1,.27.41.41.9.68,1.31.27.41.32.96.6,1.37.27.41.58.79.85,1.19.27.41.62.76.89,1.17.27.41.76.67,1.03,1.08.27.41.43.89.69,1.3.27.41.56.81.82,1.22.26.41.65.74.92,1.16.26.41.45.87.71,1.29.26.42.26.99.51,1.41.26.42.66.74.91,1.16s.28.97.53,1.39c.25.42.7.73.95,1.15.63-.05.49-.46,1.06-.73.57-.27.64-.07,1.11-.5-.03-.48.16-.83.14-1.3-.02-.48-.07-.96-.09-1.43-.02-.48.03-.96.01-1.44-.02-.48-.39-.94-.4-1.42-.02-.48.22-.97.2-1.45-.02-.48-.28-.95-.3-1.43-.02-.48.29-.97.27-1.45-.02-.48-.02-.96-.03-1.44-.01-.48.03-.96.02-1.44-.01-.48-.31-.95-.32-1.43s-.12-.96-.13-1.43c-.01-.48.32-.97.31-1.45s-.39-.95-.4-1.43c-.01-.48.06-.96.05-1.44-.01-.49.19-.97.19-1.45,0-.49-.17-.97-.18-1.45,0-.48.1-.96.08-1.43-.01-.48-.19-.95-.21-1.43-.01-.48.13-.96.12-1.44-.01-.48-.15-.95-.17-1.43-.01-.48-.16-.95-.17-1.43-.01-.48.21-.96.2-1.44-.01-.48-.15-.96-.16-1.43,0-.48.11-.96.11-1.44,0-.48.14-.96.14-1.44,0-.48-.32-.96-.32-1.44,0-.48.09-.96.1-1.44.02-.22.77-.93.88-.97.71-.22.88.37,1.09-.47.32.11.89.65,1.03,1.28.09.4-.06.93-.02,1.45.03.45-.17.93-.16,1.42,0,.48.04.95.03,1.42-.01.51.11.99.09,1.42-.02.61-.02,1.12-.01,1.42.02.48.1.96.13,1.45.02.48.23.96.26,1.44.02.48-.25.98-.22,1.47.03.48.25.96.28,1.44s-.1.98-.07,1.46,0,.97.03,1.45c.03.48.12.96.16,1.45.03.48-.07.97-.04,1.46.03.48.35.95.39,1.43.03.48-.05.97-.02,1.46.03.48.05.97.08,1.45.03.48.12.96.15,1.45.03.48-.08.98-.06,1.46.03.48.1.96.13,1.45.03.48.33.95.35,1.44.03.48-.25.98-.22,1.47.02.48.08.97.1,1.45.02.48-.01.97,0,1.45.02.45.09.89.09,1.34,0,.45.07.9.07,1.35,0,.45-.07.9-.07,1.34,0,.45-.1,1.04-.07,1.49"/></svg>