<?xml version="1.0" encoding="UTF-8"?><svg id="Layer_1" xmlns="http://www.w3.org/2000/svg" viewBox="0 0 200 200"><path d="M83.98,85.71c.54.56,1.32.89,1.83,1.5s1.21,1.04,1.69,1.67.4,1.63.85,2.28,1.48.89,1.91,1.55.61,1.47,1.03,2.14,1,1.23,1.41,1.9.87,1.31,1.28,1.97.55,1.5.97,2.16.9,1.28,1.34,1.93,1.09,1.15,1.54,1.79.89,1.28,1.37,1.89.5,1.63,1.01,2.22,1.33.91,1.89,1.46.87,1.4,1.47,1.9,1.26.98,1.92,1.42,1.49.6,2.19.96c.72.38,1.65.31,2.47.59.78.27,1.54.51,2.38.7s1.59.47,2.44.57,1.64.72,2.48.75,1.71-.25,2.54-.29,1.69-.17,2.52-.28,1.75,0,2.55-.19c.85-.2,1.6-.69,2.36-.97.44-.16,1.03-.69,1.81-1.08.59-.29,1.44-.21,2.08-.53s1.27-.71,1.86-.98c.89-.4,1.55-.62,1.9-.61.64,0,1.38.26,1.64.94.23.61-.2,1.2-.69,1.76-.14.16-.82.77-1.68,1.27-.81.47-1.43,1.34-1.71,1.47-.69.33-1.48.5-2.22.78s-1.46.53-2.21.76-1.5.43-2.26.6-1.58-.05-2.35.07-1.52.21-2.3.27-1.53.48-2.3.5-1.57.13-2.35.09-1.49-.73-2.26-.83-1.51-.25-2.26-.41-1.52-.25-2.25-.48-1.39-.65-2.1-.95-1.6-.23-2.27-.61c-.69-.39-1.46-.68-2.11-1.13s-1.17-1.1-1.77-1.6-1.34-.89-1.9-1.44-.73-1.48-1.26-2.07-.99-1.2-1.49-1.82-1.52-.82-1.99-1.45-.67-1.46-1.12-2.11-.49-1.56-.92-2.22-1-1.23-1.42-1.9-1.09-1.18-1.5-1.85-.9-1.3-1.32-1.96-.64-1.46-1.07-2.12-.59-1.51-1.03-2.16-1.46-.91-1.92-1.55-.83-1.34-1.31-1.96c-.46-.58-.81-1.29-1.33-1.86s-1.16-.98-1.73-1.5-1.1-1.05-1.72-1.48-1.37-.62-2.05-.94-1.32-.67-2.07-.83-1.46-.64-2.24-.61c-.5.02-1.33.17-2.14.48-.62.24-1.05,1.12-1.72,1.4s-1.54.13-2.15.34c-.92.32-1.53.46-1.9.25-.2-.11-.26-.17-.32-.24-.12-.15-.28-.33-.44-.58-.49-.77.1-1.2.8-1.72.65-.48,1.39-.99,1.9-1.22.82-.36,1.66-.45,2.41-.7.85-.28,1.6-.59,2.37-.74.87-.17,1.66-.73,2.46-.73.86,0,1.77.04,2.58.23s1.58.66,2.36,1.04c.72.36,1.43.85,2.14,1.37.64.46,1.08,1.25,1.74,1.85.59.53,1.43.86,2.05,1.49"/><path d="M135.25,85.08c.51.24.6,1.56.71,2.07-.6.31-.63.87-1.14,1.31-.47.41-1.32.65-2.2,1.12-.67.36-1.44.65-2.25,1.01-.73.33-1.34,1.05-2.12,1.36s-1.48.87-2.24,1.14c-.83.3-1.87-.16-2.6.07-.94.3-1.69.76-2.3.89-.73.16-1.49.24-2.28.34s-1.49.63-2.28.66-1.56.12-2.34.1-1.53-.45-2.31-.52-1.5-.42-2.26-.54-1.61.16-2.36,0-1.41-.76-2.13-.98-1.58-.21-2.27-.5c-.48-.2-1.29-.26-1.96-.61-.62-.33-1.29-.8-1.69-1.26-.46-.53-.36-1.29-.04-2,.4-.87.98-.95,1.77-.85.69.09,1.47.24,2.19.6.8.4,1.59.74,2.11.93.77.29,1.55.41,2.31.63s1.48.72,2.26.86,1.6.23,2.39.3,1.61-.18,2.41-.17,1.58-.1,2.37-.16,1.61.12,2.41-.02,1.55-.38,2.33-.57,1.65-.08,2.41-.33,1.48-.63,2.23-.93,1.31-.98,2.05-1.32c.63-.29,1.54-.93,2.5-1.48,1.04-.61,2.23-.89,2.79-1.01.4-.08,1.12-.21,1.48-.04"/></svg>