<?xml version="1.0" encoding="UTF-8"?><svg id="Layer_1" xmlns="http://www.w3.org/2000/svg" viewBox="0 0 200 200"><path d="M141.37,120.6c-.34.34-.73.64-1.1.94-.37.3-.81.53-1.2.8-.39.27-.72.66-1.14.89-.42.23-.94.27-1.38.47-.43.2-.81.54-1.26.71-.45.16-.92.29-1.38.42-.46.13-.95.17-1.41.27-.47.1-.93.27-1.4.34-.47.07-.97-.06-1.45-.03-.47.04-.95.11-1.43.12-.48,0-.96.14-1.44.11-.48-.02-.95-.16-1.43-.22-.47-.06-.95-.15-1.42-.23-.47-.08-.94-.21-1.4-.32-.46-.11-.89-.36-1.34-.5-.46-.15-.98-.12-1.42-.3-.44-.18-.93-.29-1.36-.5-.43-.21-.63-.85-1.04-1.09-.41-.24-.82-.45-1.21-.73-.39-.27-1.03-.23-1.39-.54-.37-.31-.45-.92-.78-1.26-.33-.34-.86-.51-1.18-.89-.3-.37-.51-.82-.8-1.22-.28-.39-.5-.82-.76-1.24-.26-.41-.6-.77-.84-1.2-.24-.42-.55-.81-.76-1.25-.22-.43-.47-.86-.66-1.3-.2-.44-.2-.98-.38-1.43-.18-.45-.13-.98-.29-1.44-.16-.46-.51-.86-.64-1.32-.14-.47-.49-.89-.6-1.35-.11-.48.08-1.02,0-1.49-.09-.52-.39-.97-.48-1.43-.1-.52-.22-1-.3-1.46-.09-.5-.08-1.01-.13-1.49-.06-.49-.26-.98-.26-1.49,0-.47.17-.96.23-1.49.06-.46.01-.97.12-1.5.1-.45.34-.89.46-1.37.11-.45.53-.83.67-1.3.13-.45.05-.97.2-1.43.14-.45.24-.92.4-1.38.16-.44.52-.82.69-1.27.17-.44.31-.9.5-1.34.19-.44.25-.93.45-1.37.2-.43.23-.96.45-1.38.21-.43.81-.66,1.04-1.08.23-.42.11-1.04.35-1.45.25-.41.86-.59,1.12-.99.27-.4.46-.85.74-1.23.28-.39.65-.7.95-1.07.31-.37.53-.8.85-1.15.33-.36.73-.62,1.08-.94.35-.33.71-.63,1.08-.92.38-.3.74-.59,1.14-.84.41-.26.85-.41,1.27-.61.45-.22.82-.56,1.26-.74.46-.19.89-.43,1.34-.58.47-.16.88-.52,1.34-.64.48-.13.99-.12,1.46-.21.49-.09.97-.24,1.45-.28.49-.04,1,.17,1.48.17.49,0,.96.18,1.44.23.49.05,1.01-.14,1.48-.04.48.1.96.2,1.43.35.46.15.8.62,1.24.82.45.19.97.21,1.39.45.42.24.88.42,1.29.7.4.28.75.62,1.13.94.37.31.73.64,1.07.99.34.34.84.55,1.17.92.32.36.51.85.81,1.24.29.38.38.91.65,1.32.27.4.76.67,1.01,1.09.24.42.53.82.76,1.26.22.43.19.99.39,1.44.2.44.57.81.75,1.27.18.45.08,1,.24,1.46.16.46.31.91.45,1.38.14.47.53.86.65,1.34.12.47-.1,1.02,0,1.5.1.48.29.93.36,1.41.07.46.44.88.51,1.35.07.46.12.93.19,1.4.06.46-.23.97-.17,1.44.05.47.19.92.23,1.39.04.47.34.92.37,1.39.03.47-.23.95-.21,1.43.02.47.12.94.13,1.41,0,.47.15.94.14,1.41-.01.47-.39.93-.42,1.4-.03.47.29.97.25,1.43-.05.47-.18.93-.25,1.4-.07.47,0,.96-.1,1.42-.09.46-.29.91-.41,1.36-.12.46-.43.86-.57,1.3-.14.45-.15.95-.32,1.38-.17.44-.45.83-.65,1.26-.2.43-.35.88-.59,1.29-.24.41-.51.79-.78,1.18-.27.38-.58.74-.88,1.1-.3.36-.45.86-.79,1.2"/><path d="M141.37,120.6c-.34.34-.73.64-1.1.94-.37.3-.81.53-1.2.8-.39.27-.72.66-1.14.89-.42.23-.94.27-1.38.47-.43.2-.81.54-1.26.71-.45.16-.92.29-1.38.42-.46.13-.95.17-1.41.27-.47.1-.93.27-1.4.34-.47.07-.97-.06-1.45-.03-.47.04-.95.11-1.43.12-.48,0-.96.14-1.44.11-.48-.02-.95-.16-1.43-.22-.47-.06-.95-.15-1.42-.23-.47-.08-.94-.21-1.4-.32-.46-.11-.89-.36-1.34-.5-.46-.15-.98-.12-1.42-.3-.44-.18-.93-.29-1.36-.5-.43-.21-.63-.85-1.04-1.09-.41-.24-.82-.45-1.21-.73-.39-.27-1.03-.23-1.39-.54-.37-.31-.45-.92-.78-1.26-.33-.34-.86-.51-1.18-.89-.3-.37-.51-.82-.8-1.22-.28-.39-.5-.82-.76-1.24-.26-.41-.6-.77-.84-1.2-.24-.42-.55-.81-.76-1.25-.22-.43-.47-.86-.66-1.3-.2-.44-.2-.98-.38-1.43-.18-.45-.13-.98-.29-1.44-.16-.46-.51-.86-.64-1.32-.14-.47-.49-.89-.6-1.35-.11-.48.08-1.02,0-1.49-.09-.52-.39-.97-.48-1.43-.1-.52-.22-1-.3-1.46-.09-.5-.08-1.01-.13-1.49-.06-.49-.26-.98-.26-1.49,0-.47.17-.96.23-1.49.06-.46.01-.97.12-1.5.1-.45.34-.89.46-1.37.11-.45.53-.83.67-1.3.13-.45.05-.97.2-1.43.14-.45.24-.92.4-1.38.16-.44.52-.82.69-1.27.17-.44.31-.9.5-1.34.19-.44.25-.93.45-1.37.2-.43.23-.96.45-1.38.21-.43.81-.66,1.04-1.08.23-.42.11-1.04.35-1.45.25-.41.86-.59,1.12-.99.27-.4.46-.85.74-1.23.28-.39.65-.7.95-1.07.31-.37.53-.8.85-1.15.33-.36.73-.62,1.08-.94.35-.33.71-.63,1.08-.92.38-.3.74-.59,1.14-.84.41-.26.85-.41,1.27-.61.45-.22.82-.56,1.26-.74.46-.19.89-.43,1.34-.58.47-.16.88-.52,1.34-.64.48-.13.99-.12,1.46-.21.49-.09.97-.24,1.45-.28.49-.04,1,.17,1.48.17.49,0,.96.18,1.44.23.49.05,1.01-.14,1.48-.04.48.1.96.2,1.43.35.46.15.8.62,1.24.82.45.19.97.21,1.39.45.42.24.88.42,1.29.7.4.28.75.62,1.13.94.37.31.73.64,1.07.99.34.34.84.55,1.17.92.32.36.51.85.81,1.24.29.38.38.91.65,1.32.27.4.76.67,1.01,1.09.24.42.53.82.76,1.26.22.43.19.99.39,1.44.2.44.57.81.75,1.27.18.45.08,1,.24,1.46.16.46.31.91.45,1.38.14.47.53.86.65,1.34.12.47-.1,1.02,0,1.5.1.48.29.93.36,1.41.07.46.44.88.51,1.35.07.46.12.93.19,1.4.06.46-.23.97-.17,1.44.05.47.19.92.23,1.39.04.47.34.92.37,1.39.03.47-.23.95-.21,1.43.02.47.12.94.13,1.41,0,.47.15.94.14,1.41-.01.47-.39.93-.42,1.4-.03.47.29.97.25,1.43-.05.47-.18.93-.25,1.4-.07.47,0,.96-.1,1.42-.09.46-.29.91-.41,1.36-.12.46-.43.86-.57,1.3-.14.45-.15.95-.32,1.38-.17.44-.45.83-.65,1.26-.2.43-.35.88-.59,1.29-.24.41-.51.79-.78,1.18-.27.38-.58.74-.88,1.1-.3.36-.45.86-.79,1.2"/><path d="M70.79,80.8c-.38.07-.85.25-1.37.48-.41.18-.97.18-1.42.42-.42.22-.67.77-1.1,1.03-.42.25-.86.45-1.27.72-.42.27-.74.66-1.13.93-.42.3-1.09.24-1.44.51-.44.35-.69.85-.97,1.12-.34.34-.64.72-.95,1.1-.3.37-.68.7-.95,1.11-.27.4-.25.97-.49,1.4-.23.42-.48.82-.69,1.27-.21.43-.43.85-.61,1.31-.18.45-.44.86-.6,1.33-.15.46-.28.92-.41,1.4-.13.47-.08.97-.18,1.45-.1.47-.61.87-.69,1.35-.08.48-.03.98-.09,1.47-.06.48-.07.97-.11,1.46-.04.48.18.98.16,1.47-.02.49-.2.96-.2,1.45,0,.49.15.96.17,1.45.02.49.09.96.14,1.44.05.49-.25,1.01-.18,1.49.07.49.29.94.38,1.42.1.48.32.93.44,1.39.12.48.02,1.01.17,1.47.15.47.46.88.64,1.33.18.46.37.9.58,1.34.21.44.27.98.51,1.39.25.42.76.67,1.04,1.06.29.4.54.81.87,1.16.27.3.69.55,1.11.9.35.28.69.62,1.11.91.38.26.8.51,1.21.76.41.25.83.48,1.25.7.44.23.85.49,1.28.67.47.2.96.25,1.39.36.53.13.99.35,1.4.32.4-.03.77-.62,1.42-.64.46-.01.91.11,1.34.19.4.07.77.11,1.26.06.49-.05,1.02.32,1.48.25.48-.08.88-.57,1.33-.68.48-.11.92-.25,1.36-.39.47-.15.99-.09,1.42-.26.45-.18.93-.29,1.35-.51.43-.22.9-.4,1.29-.66.41-.26.72-.67,1.09-.96.38-.3.57-.79.91-1.12.34-.34.68-.65.99-1.01.3-.37.59-.73.86-1.13.27-.39.42-.84.65-1.26.23-.41.67-.71.87-1.15.19-.43.54-.81.7-1.26.16-.44.27-.92.41-1.38.13-.45,0-.98.11-1.45.1-.46.11-.94.19-1.41.08-.47.19-.92.24-1.4.06-.47.35-.92.38-1.4.03-.47-.26-.96-.25-1.44.02-.47.11-.94.11-1.42,0-.48.03-.95.01-1.43-.02-.47.22-.97.19-1.45-.03-.46-.05-.94-.12-1.42-.07-.46-.35-.89-.45-1.36-.1-.45-.39-.86-.52-1.32-.13-.45-.06-.96-.21-1.4-.15-.44-.51-.81-.68-1.24-.17-.43-.32-.88-.52-1.3-.2-.42-.46-.81-.68-1.23-.22-.41-.16-.99-.41-1.39-.24-.4-.83-.58-1.1-.96-.27-.39-.18-1.03-.47-1.4-.29-.37-.63-.72-.94-1.07-.31-.35-.8-.55-1.13-.87-.34-.33-.7-.63-1.05-.93-.36-.3-.7-.63-1.08-.9-.39-.27-.87-.38-1.27-.61-.41-.23-.79-.49-1.22-.68-.43-.19-.82-.49-1.26-.63s-.91-.23-1.38-.32c-.46-.08-.92-.34-1.39-.37-.46-.03-.94.34-1.41.37-.46.03-.93-.04-1.41.04M83.48,81.07c.37.3.75.61,1.11.96.35.33.51.85.84,1.21.32.36.91.49,1.22.88.3.38.56.81.84,1.21.28.39.68.72.95,1.14.27.41.14,1.06.39,1.48.25.42.67.74.9,1.17.23.44.47.86.68,1.3.21.45.31.94.49,1.39.19.46.66.81.82,1.26.17.47.29.96.42,1.41.13.46.21.96.32,1.45.1.47.09.98.16,1.47.07.48.15.96.2,1.46.05.48.26.96.28,1.46.03.48-.37.99-.37,1.48,0,.49.13.97.11,1.47-.01.49,0,.98-.03,1.47-.03.49.17,1,.12,1.49-.05.49-.28.96-.35,1.44-.07.49-.02,1-.11,1.48-.09.49-.16.98-.27,1.46-.11.48-.58.87-.71,1.34-.13.48-.14.99-.29,1.45-.15.47-.2.98-.38,1.43-.18.46-.59.82-.79,1.26-.21.45-.28.96-.51,1.38-.24.44-.5.86-.76,1.26-.27.41-.72.68-1.02,1.05-.31.38-.41.93-.75,1.28-.34.35-.74.64-1.11.95-.37.32-.71.69-1.1.97-.4.28-.85.49-1.27.74-.42.25-.84.49-1.28.71-.44.21-.89.41-1.34.59-.45.18-.94.28-1.4.42-.46.14-.91.38-1.38.49-.47.11-.98.05-1.47.13-.48.08-.93.39-1.42.43-.48.05-.98.05-1.47.07-.49.02-.98.04-1.47.02-.49-.02-.94-.47-1.43-.52-.49-.05-1.02.3-1.5.23-.48-.08-.98-.15-1.45-.26-.47-.11-.89-.46-1.36-.6-.47-.14-.89-.39-1.34-.57-.46-.17-.86-.43-1.3-.63-.44-.21-.93-.3-1.35-.54-.42-.24-.97-.29-1.37-.57-.4-.27-.78-.6-1.16-.91-.38-.31-.75-.64-1.1-.98-.35-.34-.77-.63-1.09-1-.32-.37-.42-.93-.71-1.32-.29-.4-.41-.89-.66-1.31-.25-.42-.52-.81-.74-1.25-.22-.44-.65-.78-.84-1.23-.18-.45-.44-.89-.6-1.35-.15-.46-.26-.95-.38-1.43-.12-.47,0-1.01-.09-1.49-.1-.48-.49-.91-.57-1.39-.07-.48-.04-.99-.09-1.47-.05-.49-.04-.98-.06-1.47-.03-.49.23-.98.22-1.47,0-.49.03-.97.04-1.46.01-.49-.16-.98-.13-1.47.03-.49-.12-.99-.08-1.48.04-.49.31-.96.36-1.44.06-.49-.08-1-.01-1.48.07-.49.19-.97.27-1.44.08-.47.12-.96.23-1.43.11-.47.56-.84.7-1.3.14-.46-.09-1.04.08-1.49.17-.45.76-.73.96-1.17.19-.44.36-.88.58-1.31.22-.43.25-.95.5-1.36.24-.42.48-.84.74-1.24.26-.4.58-.77.87-1.15.29-.39.45-.87.76-1.24.31-.37.67-.7,1-1.05.33-.35.78-.59,1.13-.92.35-.33.69-.66,1.06-.97.37-.31.87-.44,1.26-.72.39-.28.58-.85.99-1.1.41-.26.91-.36,1.33-.58.43-.22.77-.64,1.21-.83.44-.19,1.04.03,1.5-.12.46-.15.88-.38,1.34-.49.47-.11.89-.46,1.37-.53.48-.07.97-.2,1.45-.22.48-.02.96.39,1.44.42.48.03.96-.1,1.44-.02.47.07.92.27,1.39.39.46.12.91.25,1.37.42.44.16.93.24,1.37.45.42.2.81.5,1.23.75.41.24.76.56,1.17.84.39.27.84.46,1.22.77"/><path d="M70.79,80.8c-.38.07-.85.25-1.37.48-.41.18-.97.18-1.42.42-.42.22-.67.77-1.1,1.03-.42.25-.86.45-1.27.72-.42.27-.74.66-1.13.93-.42.3-1.09.24-1.44.51-.44.35-.69.85-.97,1.12-.34.34-.64.72-.95,1.1-.3.37-.68.7-.95,1.11-.27.4-.25.97-.49,1.4-.23.42-.48.82-.69,1.27-.21.43-.43.85-.61,1.31-.18.45-.44.86-.6,1.33-.15.46-.28.92-.41,1.4-.13.47-.08.97-.18,1.45-.1.47-.61.87-.69,1.35-.08.48-.03.98-.09,1.47-.06.48-.07.97-.11,1.46-.04.48.18.98.16,1.47-.02.49-.2.96-.2,1.45,0,.49.15.96.17,1.45.02.49.09.96.14,1.44.05.49-.25,1.01-.18,1.49.07.49.29.94.38,1.42.1.48.32.93.44,1.39.12.48.02,1.01.17,1.47.15.47.46.88.64,1.33.18.46.37.9.58,1.34.21.44.27.98.51,1.39.25.42.76.67,1.04,1.06.29.4.54.81.87,1.16.27.3.69.55,1.11.9.35.28.69.62,1.11.91.38.26.8.51,1.21.76.41.25.83.48,1.25.7.44.23.85.49,1.28.67.47.2.96.25,1.39.36.53.13.99.35,1.4.32.4-.03.77-.62,1.42-.64.46-.01.91.11,1.34.19.4.07.77.11,1.26.06.49-.05,1.02.32,1.48.25.48-.08.88-.57,1.33-.68.48-.11.92-.25,1.36-.39.47-.15.99-.09,1.42-.26.45-.18.93-.29,1.35-.51.43-.22.9-.4,1.29-.66.41-.26.72-.67,1.09-.96.38-.3.57-.79.91-1.12.34-.34.68-.65.99-1.01.3-.37.59-.73.86-1.13.27-.39.42-.84.65-1.26.23-.41.67-.71.87-1.15.19-.43.54-.81.7-1.26.16-.44.27-.92.41-1.38.13-.45,0-.98.11-1.45.1-.46.11-.94.19-1.41.08-.47.19-.92.24-1.4.06-.47.35-.92.38-1.4.03-.47-.26-.96-.25-1.44.02-.47.11-.94.11-1.42,0-.48.03-.95.01-1.43-.02-.47.22-.97.19-1.45-.03-.46-.05-.94-.12-1.42-.07-.46-.35-.89-.45-1.36-.1-.45-.39-.86-.52-1.32-.13-.45-.06-.96-.21-1.4-.15-.44-.51-.81-.68-1.24-.17-.43-.32-.88-.52-1.3-.2-.42-.46-.81-.68-1.23-.22-.41-.16-.99-.41-1.39-.24-.4-.83-.58-1.1-.96-.27-.39-.18-1.03-.47-1.4-.29-.37-.63-.72-.94-1.07-.31-.35-.8-.55-1.13-.87-.34-.33-.7-.63-1.05-.93-.36-.3-.7-.63-1.08-.9-.39-.27-.87-.38-1.27-.61-.41-.23-.79-.49-1.22-.68-.43-.19-.82-.49-1.26-.63s-.91-.23-1.38-.32c-.46-.08-.92-.34-1.39-.37-.46-.03-.94.34-1.41.37-.46.03-.93-.04-1.41.04M83.48,81.07c.37.3.75.61,1.11.96.35.33.51.85.84,1.21.32.36.91.49,1.22.88.3.38.56.81.84,1.21.28.39.68.72.95,1.14.27.41.14,1.06.39,1.48.25.42.67.74.9,1.17.23.44.47.86.68,1.3.21.45.31.94.49,1.39.19.46.66.81.82,1.26.17.47.29.96.42,1.41.13.46.21.96.32,1.45.1.47.09.98.16,1.47.07.48.15.96.2,1.46.05.48.26.96.28,1.46.03.48-.37.99-.37,1.48,0,.49.13.97.11,1.47-.01.49,0,.98-.03,1.47-.03.49.17,1,.12,1.49-.05.49-.28.96-.35,1.44-.07.49-.02,1-.11,1.48-.09.49-.16.98-.27,1.46-.11.48-.58.87-.71,1.34-.13.48-.14.99-.29,1.45-.15.47-.2.98-.38,1.43-.18.46-.59.82-.79,1.26-.21.45-.28.96-.51,1.38-.24.44-.5.86-.76,1.26-.27.41-.72.68-1.02,1.05-.31.38-.41.93-.75,1.28-.34.35-.74.64-1.11.95-.37.32-.71.69-1.1.97-.4.28-.85.49-1.27.74-.42.25-.84.49-1.28.71-.44.21-.89.41-1.34.59-.45.18-.94.28-1.4.42-.46.14-.91.38-1.38.49-.47.11-.98.05-1.47.13-.48.08-.93.39-1.42.43-.48.05-.98.05-1.47.07-.49.02-.98.04-1.47.02-.49-.02-.94-.47-1.43-.52-.49-.05-1.02.3-1.5.23-.48-.08-.98-.15-1.45-.26-.47-.11-.89-.46-1.36-.6-.47-.14-.89-.39-1.34-.57-.46-.17-.86-.43-1.3-.63-.44-.21-.93-.3-1.35-.54-.42-.24-.97-.29-1.37-.57-.4-.27-.78-.6-1.16-.91-.38-.31-.75-.64-1.1-.98-.35-.34-.77-.63-1.09-1-.32-.37-.42-.93-.71-1.32-.29-.4-.41-.89-.66-1.31-.25-.42-.52-.81-.74-1.25-.22-.44-.65-.78-.84-1.23-.18-.45-.44-.89-.6-1.35-.15-.46-.26-.95-.38-1.43-.12-.47,0-1.01-.09-1.49-.1-.48-.49-.91-.57-1.39-.07-.48-.04-.99-.09-1.47-.05-.49-.04-.98-.06-1.47-.03-.49.23-.98.22-1.47,0-.49.03-.97.04-1.46.01-.49-.16-.98-.13-1.47.03-.49-.12-.99-.08-1.48.04-.49.31-.96.36-1.44.06-.49-.08-1-.01-1.48.07-.49.19-.97.27-1.44.08-.47.12-.96.23-1.43.11-.47.56-.84.7-1.3.14-.46-.09-1.04.08-1.49.17-.45.76-.73.96-1.17.19-.44.36-.88.58-1.31.22-.43.25-.95.5-1.36.24-.42.48-.84.74-1.24.26-.4.58-.77.87-1.15.29-.39.45-.87.76-1.24.31-.37.67-.7,1-1.05.33-.35.78-.59,1.13-.92.35-.33.69-.66,1.06-.97.37-.31.87-.44,1.26-.72.39-.28.58-.85.99-1.1.41-.26.91-.36,1.33-.58.43-.22.77-.64,1.21-.83.44-.19,1.04.03,1.5-.12.46-.15.88-.38,1.34-.49.47-.11.89-.46,1.37-.53.48-.07.97-.2,1.45-.22.48-.02.96.39,1.44.42.48.03.96-.1,1.44-.02.47.07.92.27,1.39.39.46.12.91.25,1.37.42.44.16.93.24,1.37.45.42.2.81.5,1.23.75.41.24.76.56,1.17.84.39.27.84.46,1.22.77"/><path d="M141.37,120.6c-.34.34-.73.64-1.1.94-.37.3-.81.53-1.2.8-.39.27-.72.66-1.14.89-.42.23-.94.27-1.38.47-.43.2-.81.54-1.26.71-.45.16-.92.29-1.38.42-.46.13-.95.17-1.41.27-.47.1-.93.27-1.4.34-.47.07-.97-.06-1.45-.03-.47.04-.95.11-1.43.12-.48,0-.96.14-1.44.11-.48-.02-.95-.16-1.43-.22-.47-.06-.95-.15-1.42-.23-.47-.08-.94-.21-1.4-.32-.46-.11-.89-.36-1.34-.5-.46-.15-.98-.12-1.42-.3-.44-.18-.93-.29-1.36-.5-.43-.21-.63-.85-1.04-1.09-.41-.24-.82-.45-1.21-.73-.39-.27-1.03-.23-1.39-.54-.37-.31-.45-.92-.78-1.26-.33-.34-.86-.51-1.18-.89-.3-.37-.51-.82-.8-1.22-.28-.39-.5-.82-.76-1.24-.26-.41-.6-.77-.84-1.2-.24-.42-.55-.81-.76-1.25-.22-.43-.47-.86-.66-1.3-.2-.44-.2-.98-.38-1.43-.18-.45-.13-.98-.29-1.44-.16-.46-.51-.86-.64-1.32-.14-.47-.49-.89-.6-1.35-.11-.48.08-1.02,0-1.49-.09-.52-.39-.97-.48-1.43-.1-.52-.22-1-.3-1.46-.09-.5-.08-1.01-.13-1.49-.06-.49-.26-.98-.26-1.49,0-.47.17-.96.23-1.49.06-.46.01-.97.12-1.5.1-.45.34-.89.46-1.37.11-.45.53-.83.67-1.3.13-.45.05-.97.2-1.43.14-.45.24-.92.4-1.38.16-.44.52-.82.69-1.27.17-.44.31-.9.5-1.34.19-.44.25-.93.45-1.37.2-.43.23-.96.45-1.38.21-.43.81-.66,1.04-1.08.23-.42.11-1.04.35-1.45.25-.41.86-.59,1.12-.99.27-.4.46-.85.74-1.23.28-.39.65-.7.95-1.07.31-.37.53-.8.85-1.15.33-.36.73-.62,1.08-.94.35-.33.71-.63,1.08-.92.38-.3.74-.59,1.14-.84.41-.26.85-.41,1.27-.61.45-.22.82-.56,1.26-.74.46-.19.89-.43,1.34-.58.47-.16.88-.52,1.34-.64.48-.13.99-.12,1.46-.21.49-.09.97-.24,1.45-.28.49-.04,1,.17,1.48.17.49,0,.96.18,1.44.23.49.05,1.01-.14,1.48-.04.48.1.96.2,1.43.35.46.15.8.62,1.24.82.45.19.97.21,1.39.45.42.24.88.42,1.29.7.4.28.75.62,1.13.94.37.31.73.64,1.07.99.34.34.84.55,1.17.92.32.36.51.85.81,1.24.29.38.38.91.65,1.32.27.4.76.67,1.01,1.09.24.42.53.82.76,1.26.22.43.19.99.39,1.44.2.44.57.81.75,1.27.18.45.08,1,.24,1.46.16.46.31.91.45,1.38.14.47.53.86.65,1.34.12.47-.1,1.02,0,1.5.1.48.29.93.36,1.41.07.46.44.88.51,1.35.07.46.12.93.19,1.4.06.46-.23.97-.17,1.44.05.47.19.92.23,1.39.04.47.34.92.37,1.39.03.47-.23.95-.21,1.43.02.47.12.94.13,1.41,0,.47.15.94.14,1.41-.01.47-.39.93-.42,1.4-.03.47.29.97.25,1.43-.05.47-.18.93-.25,1.4-.07.47,0,.96-.1,1.42-.09.46-.29.91-.41,1.36-.12.46-.43.86-.57,1.3-.14.45-.15.95-.32,1.38-.17.44-.45.83-.65,1.26-.2.43-.35.88-.59,1.29-.24.41-.51.79-.78,1.18-.27.38-.58.74-.88,1.1-.3.36-.45.86-.79,1.2"/><path d="M70.79,80.8c-.38.07-.85.25-1.37.48-.41.18-.97.18-1.42.42-.42.22-.67.77-1.1,1.03-.42.25-.86.45-1.27.72-.42.27-.74.66-1.13.93-.42.3-1.09.24-1.44.51-.44.35-.69.85-.97,1.12-.34.34-.64.72-.95,1.1-.3.37-.68.7-.95,1.11-.27.4-.25.97-.49,1.4-.23.42-.48.82-.69,1.27-.21.43-.43.85-.61,1.31-.18.45-.44.86-.6,1.33-.15.46-.28.92-.41,1.4-.13.47-.08.97-.18,1.45-.1.47-.61.87-.69,1.35-.08.48-.03.98-.09,1.47-.06.48-.07.97-.11,1.46-.04.48.18.98.16,1.47-.02.49-.2.96-.2,1.45,0,.49.15.96.17,1.45.02.49.09.96.14,1.44.05.49-.25,1.01-.18,1.49.07.49.29.94.38,1.42.1.48.32.93.44,1.39.12.48.02,1.01.17,1.47.15.47.46.88.64,1.33.18.46.37.9.58,1.34.21.44.27.98.51,1.39.25.42.76.67,1.04,1.06.29.4.54.81.87,1.16.27.3.69.55,1.11.9.35.28.69.62,1.11.91.38.26.8.51,1.21.76.41.25.83.48,1.25.7.44.23.85.49,1.28.67.47.2.96.25,1.39.36.53.13.99.35,1.4.32.4-.03.77-.62,1.42-.64.46-.01.91.11,1.34.19.4.07.77.11,1.26.06.49-.05,1.02.32,1.48.25.48-.08.88-.57,1.33-.68.48-.11.92-.25,1.36-.39.47-.15.99-.09,1.42-.26.45-.18.93-.29,1.35-.51.43-.22.9-.4,1.29-.66.41-.26.72-.67,1.09-.96.38-.3.57-.79.91-1.12.34-.34.68-.65.99-1.01.3-.37.59-.73.86-1.13.27-.39.42-.84.65-1.26.23-.41.67-.71.87-1.15.19-.43.54-.81.7-1.26.16-.44.27-.92.41-1.38.13-.45,0-.98.11-1.45.1-.46.11-.94.19-1.41.08-.47.19-.92.24-1.4.06-.47.35-.92.38-1.4.03-.47-.26-.96-.25-1.44.02-.47.11-.94.11-1.42,0-.48.03-.95.01-1.43-.02-.47.22-.97.19-1.45-.03-.46-.05-.94-.12-1.42-.07-.46-.35-.89-.45-1.36-.1-.45-.39-.86-.52-1.32-.13-.45-.06-.96-.21-1.4-.15-.44-.51-.81-.68-1.24-.17-.43-.32-.88-.52-1.3-.2-.42-.46-.81-.68-1.23-.22-.41-.16-.99-.41-1.39-.24-.4-.83-.58-1.1-.96-.27-.39-.18-1.03-.47-1.4-.29-.37-.63-.72-.94-1.07-.31-.35-.8-.55-1.13-.87-.34-.33-.7-.63-1.05-.93-.36-.3-.7-.63-1.08-.9-.39-.27-.87-.38-1.27-.61-.41-.23-.79-.49-1.22-.68-.43-.19-.82-.49-1.26-.63s-.91-.23-1.38-.32c-.46-.08-.92-.34-1.39-.37-.46-.03-.94.34-1.41.37-.46.03-.93-.04-1.41.04M83.48,81.07c.37.3.75.61,1.11.96.35.33.51.85.84,1.21.32.36.91.49,1.22.88.3.38.56.81.84,1.21.28.39.68.72.95,1.14.27.41.14,1.06.39,1.48.25.42.67.74.9,1.17.23.44.47.86.68,1.3.21.45.31.94.49,1.39.19.46.66.81.82,1.26.17.47.29.96.42,1.41.13.46.21.96.32,1.45.1.47.09.98.16,1.47.07.48.15.96.2,1.46.05.48.26.96.28,1.46.03.48-.37.99-.37,1.48,0,.49.13.97.11,1.47-.01.49,0,.98-.03,1.47-.03.49.17,1,.12,1.49-.05.49-.28.96-.35,1.44-.07.49-.02,1-.11,1.48-.09.49-.16.98-.27,1.46-.11.48-.58.87-.71,1.34-.13.48-.14.99-.29,1.45-.15.47-.2.98-.38,1.43-.18.46-.59.82-.79,1.26-.21.45-.28.96-.51,1.38-.24.44-.5.86-.76,1.26-.27.41-.72.68-1.02,1.05-.31.38-.41.93-.75,1.28-.34.35-.74.64-1.11.95-.37.32-.71.69-1.1.97-.4.28-.85.49-1.27.74-.42.25-.84.49-1.28.71-.44.21-.89.41-1.34.59-.45.18-.94.28-1.4.42-.46.14-.91.38-1.38.49-.47.11-.98.05-1.47.13-.48.08-.93.39-1.42.43-.48.05-.98.05-1.47.07-.49.02-.98.04-1.47.02-.49-.02-.94-.47-1.43-.52-.49-.05-1.02.3-1.5.23-.48-.08-.98-.15-1.45-.26-.47-.11-.89-.46-1.36-.6-.47-.14-.89-.39-1.34-.57-.46-.17-.86-.43-1.3-.63-.44-.21-.93-.3-1.35-.54-.42-.24-.97-.29-1.37-.57-.4-.27-.78-.6-1.16-.91-.38-.31-.75-.64-1.1-.98-.35-.34-.77-.63-1.09-1-.32-.37-.42-.93-.71-1.32-.29-.4-.41-.89-.66-1.31-.25-.42-.52-.81-.74-1.25-.22-.44-.65-.78-.84-1.23-.18-.45-.44-.89-.6-1.35-.15-.46-.26-.95-.38-1.43-.12-.47,0-1.01-.09-1.49-.1-.48-.49-.91-.57-1.39-.07-.48-.04-.99-.09-1.47-.05-.49-.04-.98-.06-1.47-.03-.49.23-.98.22-1.47,0-.49.03-.97.04-1.46.01-.49-.16-.98-.13-1.47.03-.49-.12-.99-.08-1.48.04-.49.31-.96.36-1.44.06-.49-.08-1-.01-1.48.07-.49.19-.97.27-1.44.08-.47.12-.96.23-1.43.11-.47.56-.84.7-1.3.14-.46-.09-1.04.08-1.49.17-.45.76-.73.96-1.17.19-.44.36-.88.58-1.31.22-.43.25-.95.5-1.36.24-.42.48-.84.74-1.24.26-.4.58-.77.87-1.15.29-.39.45-.87.76-1.24.31-.37.67-.7,1-1.05.33-.35.78-.59,1.13-.92.35-.33.69-.66,1.06-.97.37-.31.87-.44,1.26-.72.39-.28.58-.85.99-1.1.41-.26.91-.36,1.33-.58.43-.22.77-.64,1.21-.83.44-.19,1.04.03,1.5-.12.46-.15.88-.38,1.34-.49.47-.11.89-.46,1.37-.53.48-.07.97-.2,1.45-.22.48-.02.96.39,1.44.42.48.03.96-.1,1.44-.02.47.07.92.27,1.39.39.46.12.91.25,1.37.42.44.16.93.24,1.37.45.42.2.81.5,1.23.75.41.24.76.56,1.17.84.39.27.84.46,1.22.77"/></svg>