<?xml version="1.0" encoding="UTF-8"?><svg id="Layer_1" xmlns="http://www.w3.org/2000/svg" viewBox="0 0 200 200"><path d="M99.12,61.24c.21.15.45.61.48,1.43.02.47,0,1.02-.03,1.62-.02.51-.35,1.04-.38,1.6-.03.54.28,1.1.24,1.64-.04.55-.2,1.09-.23,1.61-.03.59.06,1.14.05,1.62-.01.72-.06,1.29.03,1.6-.01.83.21.85.15,1.67s-.17.82-.23,1.65c-.06.83-.19.82-.25,1.64-.06.83.1.84.04,1.66-.06.83-.41.8-.47,1.63-.06.83-.08.83-.13,1.65-.06.83.08.84.02,1.67-.06.83-.21.82-.27,1.65-.06.83-.02.83-.08,1.66-.06.83.27.85.21,1.68-.06.83-.13.83-.19,1.66-.06.83-.42.85-.25,1.67.41-.26.92-1.13,1.15-1.59.26-.51.45-1.05.7-1.55.25-.51.38-1.08.63-1.58.25-.51.72-.9.98-1.41.25-.51.19-1.17.45-1.67.26-.5.56-.98.82-1.48.26-.5.76-.88,1.02-1.38.26-.5.59-.97.85-1.46.26-.5.54-.98.82-1.48.27-.49.66-.92.94-1.41.28-.49.55-.98.83-1.47.28-.49.36-1.09.65-1.58.29-.48.57-.97.87-1.45.3-.48.7-.89,1-1.36.3-.47.56-.98.87-1.45.31-.47.72-.87,1.04-1.34.23-.33.44-.96.84-1.53.33-.47.62-1.02.98-1.45.47-.57,1.05-.8,1.39-.92.48-.16.95.02,1.48-.17.2.19-.26.18-.08.38.69.05.58,1.11.38,1.62-.3.46-.91.75-1.21,1.21-.3.46-.33,1.1-.63,1.56-.3.46-.77.81-1.07,1.28-.3.46-.74.83-1.04,1.3-.3.46-.47,1.01-.77,1.47-.3.47-.42,1.03-.72,1.5-.29.47-.64.9-.92,1.37-.29.47-.4,1.05-.68,1.52-.28.47-.98.69-1.26,1.17-.28.47-.59.93-.87,1.41-.28.48-.2,1.16-.47,1.64-.27.48-.58.93-.85,1.41-.27.48-.42,1.02-.68,1.51-.26.48-.92.75-1.18,1.24-.26.49-.2,1.14-.45,1.63-.25.49-.8.83-1.05,1.32s-.15,1.15-.39,1.65c-.24.5-.38,1.03-.61,1.53-.23.5-.62.82-.84,1.32.49-.27.9-.47,1.38-.74s.86-.73,1.34-1c.48-.27,1.04-.42,1.52-.69.48-.28.99-.5,1.47-.77.48-.28,1.08-.34,1.56-.62.48-.28.96-.56,1.44-.84s1-.49,1.48-.76c.48-.27.79-.85,1.28-1.12.48-.27,1-.49,1.48-.75.49-.27,1.02-.45,1.51-.71.49-.26.97-.54,1.46-.8.36-.19.89-.34,1.43-.63.42-.23.92-.41,1.4-.68.45-.24.67-.93,1.14-1.18.47-.25,1.01-.36,1.46-.58.5-.25,1.09-.23,1.52-.43.59-.27,1-.68,1.35-.77.6-.16,1.09-.05,1.46.19.43.28.96.74.98,1.27.02.46-.53.8-.9,1.24-.69.46-.61.57-1.34.97-.73.4-.81.26-1.54.66-.73.4-.63.59-1.36.99-.73.4-.71.44-1.44.84-.73.4-.89.11-1.62.51-.73.4-.48.85-1.21,1.25-.73.4-.82.23-1.56.63-.73.4-.81.24-1.54.64-.73.4-.74.38-1.47.78-.73.4-.6.64-1.33,1.04-.73.4-.72.42-1.45.82-.73.4-.78.32-1.51.72-.73.4-.66.52-1.4.93-.73.4-.92.06-1.65.46-.73.4-.59.66-1.32,1.06-.73.4-.69.48-1.43.88-.73.4-1.9-.15-1.62.64.33.96,1.03.84,2.02.65.49-.1-1.12-1.03-.64-1.17.78-.22.78.83,1.59.83.29,0-.39-.43-.22-.67.56-.03,1.18-.26,1.74-.28.56-.03,1.14.43,1.69.41.56-.03,1.1-.23,1.66-.25.56-.02,1.12.16,1.68.14.56-.02,1.11-.13,1.67-.15s1.11-.08,1.67-.1c.56-.02,1.11-.32,1.66-.33.56-.02,1.12.32,1.68.31.56-.01,1.11.06,1.67.05.56,0,1.11-.18,1.67-.19.56,0,1.12-.13,1.67-.13.56,0,1.11.26,1.67.27.56,0,1.12-.11,1.67-.1.56.02,1.11.21,1.66.23.56.02,1.11.05,1.67.08.56.03,1.11.03,1.67.07.56.04,1.15-.43,1.71-.38.56.05,1.2.21,1.76.26.03.39-.48,1.06-.38,1.43.03.13,1.43.13,0,1.37-.31.27-.69.62-1.31.7-.46.06-.99-.21-1.55-.23-.5-.01-1.05.38-1.57.34-.52-.05-1.02-.38-1.52-.44-.54-.06-1.05-.28-1.53-.34-.61-.07-1.17.14-1.57.12-.52-.02-1.04.01-1.56.02-.52,0-1.04-.05-1.56-.02-.52.03-1.04,0-1.56.04-.52.03-1.03.23-1.55.26-.52.03-1.04,0-1.56.01-.57.01-1.14-.06-1.71-.04s-1.14,0-1.71.02-1.14.04-1.71.05c-.57.01-1.14.08-1.71.09-.57.02-1.15-.25-1.72-.23-.57.02-1.14.08-1.71.1-.57.02-1.13.18-1.71.21-.57.03-1.14,0-1.71.03s-1.12.31-1.69.34c-.57.04-1.13.22-1.7.26-.57.05-1.35-.28-1.92-.23.01.59.12,1.36.14,1.95.02.59.27,1.17.29,1.76.02.59.17,1.18.19,1.77.03.59.01,1.18.04,1.77.03.59-.33,1.2-.3,1.79.03.59.43,1.16.46,1.75.03.59-.08,1.19-.05,1.78.03.58.14,1.16.17,1.74.03.58.22,1.15.24,1.73.02.58.03,1.16.06,1.74.02.58-.11,1.17-.09,1.75s-.03,1.16-.01,1.74c.02.58-.13,1.17-.11,1.75s.36,1.15.38,1.73-.33,1.17-.31,1.75c.02.58.49,1.14.51,1.72.02.58-.08,1.16-.06,1.74.03.58.12,1.16.15,1.74s.04,1.16.08,1.74c.03.58-.08,1.17.02,1.74.1.57.53,1.12.55,1.7.02.56-.25,1.24-.42,1.83-.23.14-.28-.34-.53-.25-.35.5-.78.48-1.18.46-.44-.02-.84-.13-1.15-.55-.26-.35-.23-.81-.29-1.31-.06-.54-.3-1.06-.33-1.61-.04-.54-.21-1.08-.23-1.63-.02-.54,0-1.09,0-1.64,0-.54.27-1.09.27-1.64,0-.55-.14-1.1-.13-1.64,0-.55,0-1.1,0-1.64,0-.55-.23-1.09-.24-1.63,0-.55.23-1.1.21-1.64-.02-.56-.1-1.13-.13-1.69-.03-.56-.3-1.11-.34-1.68-.03-.56.09-1.14.05-1.7-.04-.56-.27-1.12-.31-1.68-.04-.57-.03-1.13-.07-1.7-.04-.57.42-1.17.38-1.73-.04-.57-.09-1.13-.13-1.69-.04-.57-.54-1.1-.57-1.66-.04-.57.18-1.15.14-1.71-.03-.57,0-1.13-.03-1.69-.03-.57,0-1.13-.02-1.69-.02-.54-.38-1.08-.37-1.63,0-.54.13-1.08.14-1.63,0-.54.09-1.03.07-1.57-.82-.23-.83.22-1.68.25-.85.03-.87-.4-1.73-.36-.86.03-.86.02-1.71.05-.85.03-.84.44-1.69.48-.86.03-.85.09-1.71.12-.86.03-.87-.46-1.73-.43-.86.03-.84.53-1.69.57-.85.03-.87-.39-1.72-.36-.85.03-.86-.1-1.71-.06-.86.03-.84.36-1.7.4s-.87-.25-1.72-.22c-.86.03-.84.36-1.7.39-.86.03-.86-.08-1.72-.04-.86.03-.85.17-1.71.2-.86.03-.86.04-1.72.07-.86.03-.86.04-1.72.07-.86.03-.86-.16-1.72-.19-.81-.15-.7-.68-.79-.93-.03-.08-.46-.06-.48-.18-.13-.64.66-1.21-.27-1.36-.05-.18.56-.34,1.29-.5.44-.1.96-.02,1.41-.09.66-.1,1.18-.54,1.35-.56.53-.05,1.07-.04,1.6-.08.53-.04,1.05-.26,1.59-.29.53-.03,1.08.34,1.62.32.53-.02,1.07-.01,1.6-.03.54-.02,1.06-.42,1.59-.43.54-.01,1.08.32,1.61.31.54-.01,1.06-.26,1.59-.28.54-.02,1.08.2,1.61.18.51-.02,1.02.04,1.53.02.51-.02,1.01-.36,1.52-.37.51-.01,1.03.2,1.54.19.51-.02,1-.42,1.51-.44.51-.02.89.4,1.4.37-.7-.54-.75-.36-1.54-.75-.79-.39-.77-.42-1.56-.81-.79-.39-.69-.59-1.48-.99-.79-.39-.72-.52-1.51-.92-.79-.4-.92-.13-1.72-.5-.73-.34-.56-.72-1.31-1.04-.74-.31-.76-.28-1.5-.6-.75-.31-.95.17-1.7-.14-.75-.31-.61-.63-1.36-.95-.75-.31-.82-.14-1.57-.45-.75-.31-.62-.62-1.36-.94-.75-.31-.9.06-1.65-.25-.75-.31-.66-.52-1.41-.84-.75-.31-.73-.35-1.48-.67-.75-.31-1.17.22-1.72-.37.17-.79-.37-1.17-.37-1.24,0-.44.34-1.27.82-1.4.1-.36-.19-.3-.08-.65.48-.05.72.1,1.19.2.52.12,1.06.35,1.67.55.53.17,1.08.37,1.66.59.54.2,1.24.06,1.8.28.55.22,1.04.59,1.59.82.55.24,1.02.67,1.56.9.57.25,1.13.46,1.65.69.59.26,1.11.56,1.61.78.55.24,1.11.44,1.66.69.54.25,1.04.61,1.58.87.54.26,1.16.35,1.71.62.54.26,1.05.6,1.59.85.54.25,1.24.17,1.79.41.55.24.75.74,1.31.96-.27-.81-.3-.73-.78-1.44-.48-.71-.59-.64-1.07-1.34-.48-.71-.36-.79-.83-1.49-.48-.71-.56-.66-1.04-1.36-.48-.71-.14-.93-.62-1.64-.48-.71-.43-.74-.9-1.45-.48-.71-.62-.61-1.1-1.32-.48-.71-.71-.56-1.18-1.26-.48-.71-.28-.84-.76-1.55-.48-.71-.51-.69-.99-1.4-.48-.71-.62-.61-1.1-1.32-.48-.71-.51-.69-.99-1.4-.48-.71-.11-.96-.59-1.68-.48-.71-.97-.44-1.21-1.26-.22-.76-.64-1.19-.11-1.78.33-.37.52.93.87.57.4-.41-.41-.45-.05-.89.52-.65.81-.04,1.61-.27.26-.03.57.29,1.12.96.36.44.66.99.99,1.47.45.64,1.18.97,1.36,1.21.32.45.31,1.13.63,1.6.31.46.97.69,1.28,1.16.3.47.44,1.04.74,1.52.29.47.43,1.04.73,1.52.29.48.82.8,1.11,1.28.29.48.33,1.1.62,1.58.29.48.79.83,1.08,1.31.29.48.68.9.97,1.37.29.48.13,1.24.43,1.71.3.48.78.84,1.08,1.3.31.47.9.75,1.21,1.2.32.47.36,1.11.69,1.56.33.46.88.74,1.22,1.17.29.37.43.96.89,1.13.29-.76.04-.8.09-1.62.05-.81.25-.8.29-1.62.05-.81-.09-.82-.05-1.64.05-.81-.21-.83-.16-1.64.05-.81.17-.81.22-1.62s0-.82.04-1.63c.05-.81.05-.81.1-1.63.05-.81.43-.79.48-1.61.05-.82-.21-.83-.16-1.64.04-.82.03-.82.08-1.63.05-.81-.1-.82-.05-1.63.05-.81.25-.8.29-1.61.05-.82.17-.81.21-1.62.04-.81-.31-.83-.27-1.65.05-.82-.04-.82,0-1.64s.56-.79.61-1.6c.05-.82.04-.82.09-1.63.05-.82,0-.82.05-1.64.05-.82-.03-.82.01-1.64.05-.82-.27-.83-.23-1.65.02-.54.8-.93,1.45-.96.64-.03,1.27.42,1.52.6"/><path d="M99.12,61.24c.21.15.45.61.48,1.43.02.47,0,1.02-.03,1.62-.02.51-.35,1.04-.38,1.6-.03.54.28,1.1.24,1.64-.04.55-.2,1.09-.23,1.61-.03.59.06,1.14.05,1.62-.01.72-.06,1.29.03,1.6-.01.83.21.85.15,1.67s-.17.82-.23,1.65c-.06.83-.19.82-.25,1.64-.06.83.1.84.04,1.66-.06.83-.41.8-.47,1.63-.06.83-.08.83-.13,1.65-.06.83.08.84.02,1.67-.06.83-.21.82-.27,1.65-.06.83-.02.83-.08,1.66-.06.83.27.85.21,1.68-.06.83-.13.83-.19,1.66-.06.83-.42.85-.25,1.67.41-.26.92-1.13,1.15-1.59.26-.51.45-1.05.7-1.55.25-.51.38-1.08.63-1.58.25-.51.72-.9.98-1.41.25-.51.19-1.17.45-1.67.26-.5.56-.98.82-1.48.26-.5.76-.88,1.02-1.38.26-.5.59-.97.85-1.46.26-.5.54-.98.82-1.48.27-.49.66-.92.94-1.41.28-.49.55-.98.83-1.47.28-.49.36-1.09.65-1.58.29-.48.57-.97.87-1.45.3-.48.7-.89,1-1.36.3-.47.56-.98.87-1.45.31-.47.72-.87,1.04-1.34.23-.33.44-.96.84-1.53.33-.47.62-1.02.98-1.45.47-.57,1.05-.8,1.39-.92.48-.16.95.02,1.48-.17.2.19-.26.18-.08.38.69.05.58,1.11.38,1.62-.3.46-.91.75-1.21,1.21-.3.46-.33,1.1-.63,1.56-.3.46-.77.81-1.07,1.28-.3.46-.74.83-1.04,1.3-.3.46-.47,1.01-.77,1.47-.3.47-.42,1.03-.72,1.5-.29.47-.64.9-.92,1.37-.29.47-.4,1.05-.68,1.52-.28.47-.98.69-1.26,1.17-.28.47-.59.93-.87,1.41-.28.48-.2,1.16-.47,1.64-.27.48-.58.93-.85,1.41-.27.48-.42,1.02-.68,1.51-.26.48-.92.75-1.18,1.24-.26.49-.2,1.14-.45,1.63-.25.49-.8.83-1.05,1.32s-.15,1.15-.39,1.65c-.24.5-.38,1.03-.61,1.53-.23.5-.62.82-.84,1.32.49-.27.9-.47,1.38-.74s.86-.73,1.34-1c.48-.27,1.04-.42,1.52-.69.48-.28.99-.5,1.47-.77.48-.28,1.08-.34,1.56-.62.48-.28.96-.56,1.44-.84s1-.49,1.48-.76c.48-.27.79-.85,1.28-1.12.48-.27,1-.49,1.48-.75.49-.27,1.02-.45,1.51-.71.49-.26.97-.54,1.46-.8.36-.19.89-.34,1.43-.63.42-.23.92-.41,1.4-.68.45-.24.67-.93,1.14-1.18.47-.25,1.01-.36,1.46-.58.5-.25,1.09-.23,1.52-.43.59-.27,1-.68,1.35-.77.6-.16,1.09-.05,1.46.19.43.28.96.74.98,1.27.02.46-.53.8-.9,1.24-.69.46-.61.57-1.34.97-.73.4-.81.26-1.54.66-.73.4-.63.59-1.36.99-.73.4-.71.44-1.44.84-.73.4-.89.11-1.62.51-.73.4-.48.85-1.21,1.25-.73.4-.82.23-1.56.63-.73.4-.81.24-1.54.64-.73.4-.74.38-1.47.78-.73.4-.6.64-1.33,1.04-.73.4-.72.42-1.45.82-.73.4-.78.32-1.51.72-.73.4-.66.52-1.4.93-.73.4-.92.06-1.65.46-.73.4-.59.66-1.32,1.06-.73.4-.69.48-1.43.88-.73.4-1.9-.15-1.62.64.33.96,1.03.84,2.02.65.49-.1-1.12-1.03-.64-1.17.78-.22.78.83,1.59.83.29,0-.39-.43-.22-.67.56-.03,1.18-.26,1.74-.28.56-.03,1.14.43,1.69.41.56-.03,1.1-.23,1.66-.25.56-.02,1.12.16,1.68.14.56-.02,1.11-.13,1.67-.15s1.11-.08,1.67-.1c.56-.02,1.11-.32,1.66-.33.56-.02,1.12.32,1.68.31.56-.01,1.11.06,1.67.05.56,0,1.11-.18,1.67-.19.56,0,1.12-.13,1.67-.13.56,0,1.11.26,1.67.27.56,0,1.12-.11,1.67-.1.56.02,1.11.21,1.66.23.56.02,1.11.05,1.67.08.56.03,1.11.03,1.67.07.56.04,1.15-.43,1.71-.38.56.05,1.2.21,1.76.26.03.39-.48,1.06-.38,1.43.03.13,1.43.13,0,1.37-.31.27-.69.62-1.31.7-.46.06-.99-.21-1.55-.23-.5-.01-1.05.38-1.57.34-.52-.05-1.02-.38-1.52-.44-.54-.06-1.05-.28-1.53-.34-.61-.07-1.17.14-1.57.12-.52-.02-1.04.01-1.56.02-.52,0-1.04-.05-1.56-.02-.52.03-1.04,0-1.56.04-.52.03-1.03.23-1.55.26-.52.03-1.04,0-1.56.01-.57.01-1.14-.06-1.71-.04s-1.14,0-1.71.02-1.14.04-1.71.05c-.57.01-1.14.08-1.71.09-.57.02-1.15-.25-1.72-.23-.57.02-1.14.08-1.71.1-.57.02-1.13.18-1.71.21-.57.03-1.14,0-1.71.03s-1.12.31-1.69.34c-.57.04-1.13.22-1.7.26-.57.05-1.35-.28-1.92-.23.01.59.12,1.36.14,1.95.02.59.27,1.17.29,1.76.02.59.17,1.18.19,1.77.03.59.01,1.18.04,1.77.03.59-.33,1.2-.3,1.79.03.59.43,1.16.46,1.75.03.59-.08,1.19-.05,1.78.03.58.14,1.16.17,1.74.03.58.22,1.15.24,1.73.02.58.03,1.16.06,1.74.02.58-.11,1.17-.09,1.75s-.03,1.16-.01,1.74c.02.58-.13,1.17-.11,1.75s.36,1.15.38,1.73-.33,1.17-.31,1.75c.02.58.49,1.14.51,1.72.02.58-.08,1.16-.06,1.74.03.58.12,1.16.15,1.74s.04,1.16.08,1.74c.03.58-.08,1.17.02,1.74.1.57.53,1.12.55,1.7.02.56-.25,1.24-.42,1.83-.23.14-.28-.34-.53-.25-.35.5-.78.48-1.18.46-.44-.02-.84-.13-1.15-.55-.26-.35-.23-.81-.29-1.31-.06-.54-.3-1.06-.33-1.61-.04-.54-.21-1.08-.23-1.63-.02-.54,0-1.09,0-1.64,0-.54.27-1.09.27-1.64,0-.55-.14-1.1-.13-1.64,0-.55,0-1.1,0-1.64,0-.55-.23-1.09-.24-1.63,0-.55.23-1.1.21-1.64-.02-.56-.1-1.13-.13-1.69-.03-.56-.3-1.11-.34-1.68-.03-.56.09-1.14.05-1.7-.04-.56-.27-1.12-.31-1.68-.04-.57-.03-1.13-.07-1.7-.04-.57.42-1.17.38-1.73-.04-.57-.09-1.13-.13-1.69-.04-.57-.54-1.1-.57-1.66-.04-.57.18-1.15.14-1.71-.03-.57,0-1.13-.03-1.69-.03-.57,0-1.13-.02-1.69-.02-.54-.38-1.08-.37-1.63,0-.54.13-1.08.14-1.63,0-.54.09-1.03.07-1.57-.82-.23-.83.22-1.68.25-.85.03-.87-.4-1.73-.36-.86.03-.86.02-1.71.05-.85.03-.84.44-1.69.48-.86.03-.85.09-1.71.12-.86.03-.87-.46-1.73-.43-.86.03-.84.53-1.69.57-.85.03-.87-.39-1.72-.36-.85.03-.86-.1-1.71-.06-.86.03-.84.36-1.7.4s-.87-.25-1.72-.22c-.86.03-.84.36-1.7.39-.86.03-.86-.08-1.72-.04-.86.03-.85.17-1.71.2-.86.03-.86.04-1.72.07-.86.03-.86.04-1.72.07-.86.03-.86-.16-1.72-.19-.81-.15-.7-.68-.79-.93-.03-.08-.46-.06-.48-.18-.13-.64.66-1.21-.27-1.36-.05-.18.56-.34,1.29-.5.44-.1.96-.02,1.41-.09.66-.1,1.18-.54,1.35-.56.53-.05,1.07-.04,1.6-.08.53-.04,1.05-.26,1.59-.29.53-.03,1.08.34,1.62.32.53-.02,1.07-.01,1.6-.03.54-.02,1.06-.42,1.59-.43.54-.01,1.08.32,1.61.31.54-.01,1.06-.26,1.59-.28.54-.02,1.08.2,1.61.18.51-.02,1.02.04,1.53.02.51-.02,1.01-.36,1.52-.37.51-.01,1.03.2,1.54.19.51-.02,1-.42,1.51-.44.51-.02.89.4,1.4.37-.7-.54-.75-.36-1.54-.75-.79-.39-.77-.42-1.56-.81-.79-.39-.69-.59-1.48-.99-.79-.39-.72-.52-1.51-.92-.79-.4-.92-.13-1.72-.5-.73-.34-.56-.72-1.31-1.04-.74-.31-.76-.28-1.5-.6-.75-.31-.95.17-1.7-.14-.75-.31-.61-.63-1.36-.95-.75-.31-.82-.14-1.57-.45-.75-.31-.62-.62-1.36-.94-.75-.31-.9.06-1.65-.25-.75-.31-.66-.52-1.41-.84-.75-.31-.73-.35-1.48-.67-.75-.31-1.17.22-1.72-.37.17-.79-.37-1.17-.37-1.24,0-.44.34-1.27.82-1.4.1-.36-.19-.3-.08-.65.48-.05.72.1,1.19.2.52.12,1.06.35,1.67.55.53.17,1.08.37,1.66.59.54.2,1.24.06,1.8.28.55.22,1.04.59,1.59.82.55.24,1.02.67,1.56.9.57.25,1.13.46,1.65.69.59.26,1.11.56,1.61.78.55.24,1.11.44,1.66.69.54.25,1.04.61,1.58.87.54.26,1.16.35,1.71.62.54.26,1.05.6,1.59.85.54.25,1.24.17,1.79.41.55.24.75.74,1.31.96-.27-.81-.3-.73-.78-1.44-.48-.71-.59-.64-1.07-1.34-.48-.71-.36-.79-.83-1.49-.48-.71-.56-.66-1.04-1.36-.48-.71-.14-.93-.62-1.64-.48-.71-.43-.74-.9-1.45-.48-.71-.62-.61-1.1-1.32-.48-.71-.71-.56-1.18-1.26-.48-.71-.28-.84-.76-1.55-.48-.71-.51-.69-.99-1.4-.48-.71-.62-.61-1.1-1.32-.48-.71-.51-.69-.99-1.4-.48-.71-.11-.96-.59-1.68-.48-.71-.97-.44-1.21-1.26-.22-.76-.64-1.19-.11-1.78.33-.37.52.93.87.57.4-.41-.41-.45-.05-.89.52-.65.81-.04,1.61-.27.26-.03.57.29,1.12.96.36.44.66.99.99,1.47.45.64,1.18.97,1.36,1.21.32.45.31,1.13.63,1.6.31.46.97.69,1.28,1.16.3.47.44,1.04.74,1.52.29.47.43,1.04.73,1.52.29.48.82.8,1.11,1.28.29.48.33,1.1.62,1.58.29.48.79.83,1.08,1.31.29.48.68.9.97,1.37.29.48.13,1.24.43,1.71.3.48.78.84,1.08,1.3.31.47.9.75,1.21,1.2.32.47.36,1.11.69,1.56.33.46.88.74,1.22,1.17.29.37.43.96.89,1.13.29-.76.04-.8.09-1.62.05-.81.25-.8.29-1.62.05-.81-.09-.82-.05-1.64.05-.81-.21-.83-.16-1.64.05-.81.17-.81.22-1.62s0-.82.04-1.63c.05-.81.05-.81.1-1.63.05-.81.43-.79.48-1.61.05-.82-.21-.83-.16-1.64.04-.82.03-.82.08-1.63.05-.81-.1-.82-.05-1.63.05-.81.25-.8.29-1.61.05-.82.17-.81.21-1.62.04-.81-.31-.83-.27-1.65.05-.82-.04-.82,0-1.64s.56-.79.61-1.6c.05-.82.04-.82.09-1.63.05-.82,0-.82.05-1.64.05-.82-.03-.82.01-1.64.05-.82-.27-.83-.23-1.65.02-.54.8-.93,1.45-.96.64-.03,1.27.42,1.52.6"/><path d="M99.12,61.24c.21.15.45.61.48,1.43.02.47,0,1.02-.03,1.62-.02.51-.35,1.04-.38,1.6-.03.54.28,1.1.24,1.64-.04.55-.2,1.09-.23,1.61-.03.59.06,1.14.05,1.62-.01.72-.06,1.29.03,1.6-.01.83.21.85.15,1.67s-.17.82-.23,1.65c-.06.83-.19.82-.25,1.64-.06.83.1.84.04,1.66-.06.83-.41.8-.47,1.63-.06.83-.08.83-.13,1.65-.06.83.08.84.02,1.67-.06.83-.21.82-.27,1.65-.06.83-.02.83-.08,1.66-.06.83.27.85.21,1.68-.06.83-.13.83-.19,1.66-.06.83-.42.85-.25,1.67.41-.26.92-1.13,1.15-1.59.26-.51.45-1.05.7-1.55.25-.51.38-1.08.63-1.58.25-.51.72-.9.98-1.41.25-.51.19-1.17.45-1.67.26-.5.56-.98.82-1.48.26-.5.76-.88,1.02-1.38.26-.5.59-.97.85-1.46.26-.5.54-.98.82-1.48.27-.49.66-.92.94-1.41.28-.49.55-.98.83-1.47.28-.49.36-1.09.65-1.58.29-.48.57-.97.87-1.45.3-.48.7-.89,1-1.36.3-.47.56-.98.87-1.45.31-.47.72-.87,1.04-1.34.23-.33.44-.96.84-1.53.33-.47.62-1.02.98-1.45.47-.57,1.05-.8,1.39-.92.48-.16.95.02,1.48-.17.2.19-.26.18-.08.38.69.05.58,1.11.38,1.62-.3.46-.91.75-1.21,1.21-.3.46-.33,1.1-.63,1.56-.3.46-.77.81-1.07,1.28-.3.46-.74.83-1.04,1.3-.3.46-.47,1.01-.77,1.47-.3.47-.42,1.03-.72,1.5-.29.47-.64.9-.92,1.37-.29.47-.4,1.05-.68,1.52-.28.47-.98.69-1.26,1.17-.28.47-.59.93-.87,1.41-.28.48-.2,1.16-.47,1.64-.27.48-.58.93-.85,1.41-.27.48-.42,1.02-.68,1.51-.26.48-.92.75-1.18,1.24-.26.49-.2,1.14-.45,1.63-.25.49-.8.83-1.05,1.32s-.15,1.15-.39,1.65c-.24.5-.38,1.03-.61,1.53-.23.5-.62.82-.84,1.32.49-.27.9-.47,1.38-.74s.86-.73,1.34-1c.48-.27,1.04-.42,1.52-.69.48-.28.99-.5,1.47-.77.48-.28,1.08-.34,1.56-.62.48-.28.96-.56,1.44-.84s1-.49,1.48-.76c.48-.27.79-.85,1.28-1.12.48-.27,1-.49,1.48-.75.49-.27,1.02-.45,1.51-.71.49-.26.97-.54,1.46-.8.36-.19.89-.34,1.43-.63.42-.23.92-.41,1.4-.68.45-.24.67-.93,1.14-1.18.47-.25,1.01-.36,1.46-.58.5-.25,1.09-.23,1.52-.43.59-.27,1-.68,1.35-.77.6-.16,1.09-.05,1.46.19.43.28.96.74.98,1.27.02.46-.53.8-.9,1.24-.69.46-.61.57-1.34.97-.73.4-.81.26-1.54.66-.73.4-.63.59-1.36.99-.73.4-.71.44-1.44.84-.73.4-.89.11-1.62.51-.73.4-.48.85-1.21,1.25-.73.4-.82.23-1.56.63-.73.4-.81.24-1.54.64-.73.4-.74.38-1.47.78-.73.4-.6.64-1.33,1.04-.73.4-.72.42-1.45.82-.73.4-.78.32-1.51.72-.73.4-.66.52-1.4.93-.73.4-.92.06-1.65.46-.73.4-.59.66-1.32,1.06-.73.4-.69.48-1.43.88-.73.4-1.9-.15-1.62.64.33.96,1.03.84,2.02.65.49-.1-1.12-1.03-.64-1.17.78-.22.78.83,1.59.83.29,0-.39-.43-.22-.67.56-.03,1.18-.26,1.74-.28.56-.03,1.14.43,1.69.41.56-.03,1.1-.23,1.66-.25.56-.02,1.12.16,1.68.14.56-.02,1.11-.13,1.67-.15s1.11-.08,1.67-.1c.56-.02,1.11-.32,1.66-.33.56-.02,1.12.32,1.68.31.56-.01,1.11.06,1.67.05.56,0,1.11-.18,1.67-.19.56,0,1.12-.13,1.67-.13.56,0,1.11.26,1.67.27.56,0,1.12-.11,1.67-.1.56.02,1.11.21,1.66.23.56.02,1.11.05,1.67.08.56.03,1.11.03,1.67.07.56.04,1.15-.43,1.71-.38.56.05,1.2.21,1.76.26.03.39-.48,1.06-.38,1.43.03.13,1.43.13,0,1.37-.31.27-.69.62-1.31.7-.46.06-.99-.21-1.55-.23-.5-.01-1.05.38-1.57.34-.52-.05-1.02-.38-1.52-.44-.54-.06-1.05-.28-1.53-.34-.61-.07-1.17.14-1.57.12-.52-.02-1.04.01-1.56.02-.52,0-1.04-.05-1.56-.02-.52.03-1.04,0-1.56.04-.52.03-1.03.23-1.55.26-.52.03-1.04,0-1.56.01-.57.01-1.14-.06-1.71-.04s-1.14,0-1.71.02-1.14.04-1.71.05c-.57.01-1.14.08-1.71.09-.57.02-1.15-.25-1.72-.23-.57.02-1.14.08-1.71.1-.57.02-1.13.18-1.71.21-.57.03-1.14,0-1.71.03s-1.12.31-1.69.34c-.57.04-1.13.22-1.7.26-.57.05-1.35-.28-1.92-.23.01.59.12,1.36.14,1.95.02.59.27,1.17.29,1.76.02.59.17,1.18.19,1.77.03.59.01,1.18.04,1.77.03.59-.33,1.2-.3,1.79.03.59.43,1.16.46,1.75.03.59-.08,1.19-.05,1.78.03.58.14,1.16.17,1.74.03.58.22,1.15.24,1.73.02.58.03,1.16.06,1.74.02.58-.11,1.17-.09,1.75s-.03,1.16-.01,1.74c.02.58-.13,1.17-.11,1.75s.36,1.15.38,1.73-.33,1.17-.31,1.75c.02.58.49,1.14.51,1.72.02.58-.08,1.16-.06,1.74.03.58.12,1.16.15,1.74s.04,1.16.08,1.74c.03.58-.08,1.17.02,1.74.1.57.53,1.12.55,1.7.02.56-.25,1.24-.42,1.83-.23.14-.28-.34-.53-.25-.35.5-.78.48-1.18.46-.44-.02-.84-.13-1.15-.55-.26-.35-.23-.81-.29-1.31-.06-.54-.3-1.06-.33-1.61-.04-.54-.21-1.08-.23-1.63-.02-.54,0-1.09,0-1.64,0-.54.27-1.09.27-1.64,0-.55-.14-1.1-.13-1.64,0-.55,0-1.1,0-1.64,0-.55-.23-1.09-.24-1.63,0-.55.23-1.1.21-1.64-.02-.56-.1-1.13-.13-1.69-.03-.56-.3-1.11-.34-1.68-.03-.56.09-1.14.05-1.7-.04-.56-.27-1.12-.31-1.68-.04-.57-.03-1.13-.07-1.7-.04-.57.42-1.17.38-1.73-.04-.57-.09-1.13-.13-1.69-.04-.57-.54-1.1-.57-1.66-.04-.57.18-1.15.14-1.71-.03-.57,0-1.13-.03-1.69-.03-.57,0-1.13-.02-1.69-.02-.54-.38-1.08-.37-1.63,0-.54.13-1.08.14-1.63,0-.54.09-1.03.07-1.57-.82-.23-.83.22-1.68.25-.85.03-.87-.4-1.73-.36-.86.03-.86.02-1.71.05-.85.03-.84.44-1.69.48-.86.03-.85.09-1.71.12-.86.03-.87-.46-1.73-.43-.86.03-.84.53-1.69.57-.85.03-.87-.39-1.72-.36-.85.03-.86-.1-1.71-.06-.86.03-.84.36-1.7.4s-.87-.25-1.72-.22c-.86.03-.84.36-1.7.39-.86.03-.86-.08-1.72-.04-.86.03-.85.17-1.71.2-.86.03-.86.04-1.72.07-.86.03-.86.04-1.72.07-.86.03-.86-.16-1.72-.19-.81-.15-.7-.68-.79-.93-.03-.08-.46-.06-.48-.18-.13-.64.66-1.21-.27-1.36-.05-.18.56-.34,1.29-.5.44-.1.96-.02,1.41-.09.66-.1,1.18-.54,1.35-.56.53-.05,1.07-.04,1.6-.08.53-.04,1.05-.26,1.59-.29.53-.03,1.08.34,1.62.32.53-.02,1.07-.01,1.6-.03.54-.02,1.06-.42,1.59-.43.54-.01,1.08.32,1.61.31.54-.01,1.06-.26,1.59-.28.54-.02,1.08.2,1.61.18.51-.02,1.02.04,1.53.02.51-.02,1.01-.36,1.52-.37.51-.01,1.03.2,1.54.19.51-.02,1-.42,1.51-.44.51-.02.89.4,1.4.37-.7-.54-.75-.36-1.54-.75-.79-.39-.77-.42-1.56-.81-.79-.39-.69-.59-1.48-.99-.79-.39-.72-.52-1.51-.92-.79-.4-.92-.13-1.72-.5-.73-.34-.56-.72-1.31-1.04-.74-.31-.76-.28-1.5-.6-.75-.31-.95.17-1.7-.14-.75-.31-.61-.63-1.36-.95-.75-.31-.82-.14-1.57-.45-.75-.31-.62-.62-1.36-.94-.75-.31-.9.06-1.65-.25-.75-.31-.66-.52-1.41-.84-.75-.31-.73-.35-1.48-.67-.75-.31-1.17.22-1.72-.37.17-.79-.37-1.17-.37-1.24,0-.44.34-1.27.82-1.4.1-.36-.19-.3-.08-.65.48-.05.72.1,1.19.2.52.12,1.06.35,1.67.55.53.17,1.08.37,1.66.59.54.2,1.24.06,1.8.28.55.22,1.04.59,1.59.82.55.24,1.02.67,1.56.9.57.25,1.13.46,1.65.69.59.26,1.11.56,1.61.78.55.24,1.11.44,1.66.69.54.25,1.04.61,1.58.87.54.26,1.16.35,1.71.62.54.26,1.05.6,1.59.85.54.25,1.24.17,1.79.41.55.24.75.74,1.31.96-.27-.81-.3-.73-.78-1.44-.48-.71-.59-.64-1.07-1.34-.48-.71-.36-.79-.83-1.49-.48-.71-.56-.66-1.04-1.36-.48-.71-.14-.93-.62-1.64-.48-.71-.43-.74-.9-1.45-.48-.71-.62-.61-1.1-1.32-.48-.71-.71-.56-1.18-1.26-.48-.71-.28-.84-.76-1.55-.48-.71-.51-.69-.99-1.4-.48-.71-.62-.61-1.1-1.32-.48-.71-.51-.69-.99-1.4-.48-.71-.11-.96-.59-1.68-.48-.71-.97-.44-1.21-1.26-.22-.76-.64-1.19-.11-1.78.33-.37.52.93.87.57.4-.41-.41-.45-.05-.89.52-.65.81-.04,1.61-.27.26-.03.57.29,1.12.96.36.44.66.99.99,1.47.45.64,1.18.97,1.36,1.21.32.45.31,1.13.63,1.6.31.46.97.69,1.28,1.16.3.47.44,1.04.74,1.52.29.47.43,1.04.73,1.52.29.48.82.8,1.11,1.28.29.48.33,1.1.62,1.58.29.48.79.83,1.08,1.31.29.48.68.9.97,1.37.29.48.13,1.24.43,1.71.3.48.78.84,1.08,1.3.31.47.9.75,1.21,1.2.32.47.36,1.11.69,1.56.33.46.88.74,1.22,1.17.29.37.43.96.89,1.13.29-.76.04-.8.09-1.62.05-.81.25-.8.29-1.62.05-.81-.09-.82-.05-1.64.05-.81-.21-.83-.16-1.64.05-.81.17-.81.22-1.62s0-.82.04-1.63c.05-.81.05-.81.1-1.63.05-.81.43-.79.48-1.61.05-.82-.21-.83-.16-1.64.04-.82.03-.82.08-1.63.05-.81-.1-.82-.05-1.63.05-.81.25-.8.29-1.61.05-.82.17-.81.21-1.62.04-.81-.31-.83-.27-1.65.05-.82-.04-.82,0-1.64s.56-.79.61-1.6c.05-.82.04-.82.09-1.63.05-.82,0-.82.05-1.64.05-.82-.03-.82.01-1.64.05-.82-.27-.83-.23-1.65.02-.54.8-.93,1.45-.96.64-.03,1.27.42,1.52.6"/></svg>