<?xml version="1.0" encoding="UTF-8"?><svg id="Layer_1" xmlns="http://www.w3.org/2000/svg" viewBox="0 0 200 200"><path d="M112.81,131.36c-.44.21-.85.48-1.29.66-.45.19-.87.44-1.32.61-.46.17-.91.35-1.37.51-.46.15-.9.38-1.37.51-.47.14-.92.36-1.39.48-.47.12-1.01-.04-1.48.05-.47.1-.91.41-1.39.49-.48.08-.97.11-1.45.16-.48.06-.97.02-1.46.06-.48.04-.98-.21-1.46-.19-.48.02-.96.1-1.45.1-.48,0-.97.08-1.45.06-.48-.02-.94-.26-1.43-.3-.48-.04-1,.29-1.49.24-.48-.06-.93-.34-1.41-.41-.46-.07-.92-.16-1.39-.26-.46-.1-.94-.13-1.4-.26-.45-.13-.89-.32-1.34-.47-.44-.15-.94-.18-1.38-.35-.44-.17-.75-.65-1.18-.84-.43-.19-.89-.32-1.31-.53-.42-.21-.81-.47-1.23-.71-.41-.23-.86-.39-1.27-.64-.4-.25-.95-.28-1.34-.55-.39-.27-.57-.83-.95-1.11-.38-.28-.76-.55-1.13-.85-.37-.3-.98-.31-1.34-.62-.36-.32-.54-.82-.88-1.15-.34-.33-.74-.61-1.06-.95-.33-.35-.63-.71-.94-1.07-.31-.36-.7-.66-.99-1.04-.29-.38-.29-.96-.56-1.35-.27-.39-.78-.62-1.03-1.02-.25-.41-.39-.88-.61-1.29-.22-.42-.26-.95-.46-1.42-.19-.44-.66-.79-.83-1.27-.16-.46-.34-.93-.49-1.41-.14-.47-.16-.98-.29-1.47-.12-.48-.03-1.01-.14-1.5-.11-.48-.46-.92-.55-1.41-.09-.49-.28-.97-.35-1.46-.07-.49.27-1.04.22-1.53-.06-.5-.46-.96-.5-1.45-.04-.5.22-1.02.2-1.51-.02-.5-.41-1-.41-1.49,0-.51.17-1.01.19-1.5.03-.51.4-.97.45-1.45.06-.51.13-.99.22-1.45.09-.46-.22-1.03-.1-1.52.11-.46.28-.93.42-1.41.13-.46.42-.89.57-1.36.15-.46.29-.92.46-1.39.16-.46.13-.99.31-1.45.17-.45.43-.88.61-1.34.18-.45.27-.95.47-1.4.19-.45.49-.86.69-1.3.2-.44.75-.73.96-1.17.21-.44.25-.97.47-1.4.22-.44.39-.9.62-1.33.24-.43.3-.96.54-1.38.25-.43.75-.7,1-1.11.26-.42.61-.77.88-1.18.27-.42.26-1.01.54-1.41.29-.41.86-.6,1.15-.98.3-.4.54-.83.84-1.2.32-.39.56-.83.88-1.17.25-.27.78-.51,1.16-.79.43-.31.67-.49.94.14.43.23.54-.15,1.01-.03.16.26.18.52.2.83.01.25,0,.73-.37,1.29-.23.36-.6.69-.9,1.1-.28.38-.69.67-.98,1.04-.31.4-.6.79-.87,1.13-.37.47-.58.96-.75,1.22-.27.4-.4.88-.65,1.28-.25.4-.43.85-.67,1.26-.24.41-.68.7-.91,1.12-.23.42-.24.95-.45,1.37-.22.42-.59.76-.8,1.19-.21.43-.3.91-.49,1.34-.19.43-.32.89-.5,1.33-.18.44-.41.85-.58,1.3-.17.45-.24.92-.39,1.37-.15.45-.36.88-.5,1.33-.14.46-.52.84-.64,1.3-.12.46-.36.9-.46,1.36-.11.46.23,1.02.14,1.49-.09.47-.18.93-.26,1.4-.07.47-.4.9-.46,1.38-.05.47-.15.95-.18,1.42-.03.48-.15.95-.16,1.43-.01.48.29.96.3,1.43,0,.48-.28.97-.25,1.44.03.48.55.91.6,1.38.05.47-.24.99-.16,1.46.08.47.48.88.58,1.34.1.46.2.92.32,1.38s.24.91.39,1.36c.15.45-.05,1.03.13,1.47.17.44.58.79.78,1.22.2.43.28.92.51,1.34.22.42.62.74.87,1.14.25.4.5.8.77,1.19.27.39.61.72.9,1.1.29.37.51.8.83,1.16.31.35.61.72.95,1.06.33.34.67.66,1.02.99.35.32.81.49,1.18.8.36.3.51.87.9,1.16.38.28.97.26,1.37.52.39.26.69.66,1.1.91.4.24.9.33,1.32.56.41.23.72.66,1.15.87.43.21.82.5,1.27.68.44.18.89.35,1.35.5.45.15,1-.04,1.47.08.46.12.87.45,1.34.54.47.09.93.27,1.4.33.47.06.95.11,1.43.14.47.04.96-.19,1.44-.17.47.01.95.34,1.43.34.47,0,.93-.46,1.41-.49.47-.03.95.03,1.43-.02.47-.05.98.13,1.45.06.47-.07.93-.26,1.4-.34.47-.09.89-.39,1.36-.49.46-.1.92-.21,1.39-.33.46-.12,1.03.13,1.48-.01.46-.14.84-.5,1.3-.65.45-.15.95-.17,1.4-.34s.78-.63,1.21-.82c.44-.18,1-.09,1.43-.29.44-.2.92-.3,1.35-.52.43-.22.82-.5,1.24-.73.42-.23.75-.61,1.16-.86.41-.25.85-.45,1.24-.72.4-.26.77-.57,1.16-.85.39-.28.69-.67,1.06-.97.38-.3.9-.42,1.26-.73.36-.31.63-.74.98-1.06.35-.33.76-.59,1.09-.94.33-.35.62-.74.92-1.1.31-.37.74-.65,1.02-1.02.29-.38.35-.93.62-1.32.27-.4.55-.78.79-1.19.24-.42.53-.8.74-1.23.21-.43.21-.95.38-1.39.18-.44.63-.79.77-1.24.14-.46,0-.99.13-1.44.13-.46.36-.88.47-1.34.12-.46.08-.95.17-1.41.1-.47.52-.86.61-1.32.09-.47.09-.95.15-1.41.07-.47-.01-.96.04-1.42.05-.47.42-.92.45-1.38.03-.47-.08-.96-.07-1.43.01-.47-.27-.95-.28-1.41,0-.47.07-.94.04-1.41-.03-.47-.05-.94-.1-1.41-.05-.47.16-.97.09-1.44-.07-.47-.13-.94-.22-1.41-.09-.46-.56-.84-.67-1.3-.11-.46.09-1-.04-1.45-.13-.45-.57-.81-.72-1.26-.15-.45-.26-.9-.43-1.34-.17-.44-.24-.91-.43-1.35-.18-.43-.29-.9-.49-1.33-.2-.42-.65-.73-.86-1.15-.21-.41-.17-.97-.4-1.39-.23-.41-.53-.78-.77-1.19-.24-.4-.4-.86-.65-1.26-.25-.39-.61-.72-.88-1.12-.26-.39-.44-.84-.72-1.23-.27-.38-.57-.75-.86-1.13-.29-.39-.69-.69-1.02-1.05-.32-.36-.5-.87-.85-1.21-.35-.34-.73-.65-1.11-.97-.37-.31-.99-.3-1.38-.59-.39-.28-.61-.82-1.03-1.07-.41-.26-.81-.55-1.24-.78-.42-.23-.87-.44-1.31-.65-.44-.21-.98-.19-1.43-.37-.45-.18-.85-.49-1.31-.64-.46-.16-.97-.16-1.43-.29-.47-.13-.91-.34-1.38-.45-.47-.11-.92-.36-1.4-.44-.48-.09-.98-.03-1.46-.09-.48-.06-.98.09-1.46.06-.49-.03-.96-.24-1.44-.25-.49,0-.97.14-1.45.16-.49.02-.98-.1-1.46-.05-.49.05-.94.26-1.4.35-.48.09-.99,0-1.45.12-.47.12-.85.52-1.31.67-.46.15-1.05-.09-1.5.07-.45.16-.86.46-1.3.64-.45.17-.89.36-1.33.54-.45.17-.93.26-1.38.43-.45.17-.84.5-1.3.65-.87.29-1.3.48-2.01-.19-.54-.51-.74-.92-.71-1.24.03-.35.31-.73.28-1.35.41-.24.96-.31,1.38-.54.42-.22.84-.42,1.27-.63.43-.2.87-.34,1.31-.52.44-.18.8-.54,1.24-.71.45-.16.94-.17,1.39-.31.45-.14.83-.52,1.29-.64.46-.12.98.02,1.44-.08.46-.1.86-.51,1.33-.59.47-.08.97.08,1.44.02.47-.06.91-.39,1.39-.43.47-.04.97.29,1.44.27.47-.02.94-.05,1.41-.05s.94-.04,1.42-.02c.47.02.93.24,1.4.28.47.04.94.02,1.41.08.47.06.94.1,1.4.18.47.08.95.04,1.42.15.46.1.89.33,1.35.46.46.13.97.07,1.42.21.45.15.78.62,1.22.79.44.17.96.14,1.39.33.43.19.86.39,1.29.6.42.21.95.24,1.36.48.41.24.8.53,1.19.79.4.26.74.6,1.12.88.38.28.71.63,1.07.94.37.3.7.64,1.05.96.34.31.7.62,1.04.99.31.34.54.77.85,1.15.29.36.61.71.9,1.11.28.38.75.63,1.02,1.03.26.39.52.8.77,1.21.25.4.26.95.51,1.37.24.41.71.69.94,1.11.23.42.26.94.48,1.37.21.43.58.78.79,1.21.2.43.1,1,.29,1.44.19.44.81.7.99,1.14.18.44.22.95.39,1.39.17.45.33.9.48,1.35.16.46.1.98.24,1.43.14.46.27.92.4,1.38.13.47.48.87.59,1.33.11.48.23.95.31,1.41.09.48.26.95.32,1.41.06.49.05.99.07,1.44.02.48-.04.97-.03,1.45.01.48-.12.96-.12,1.44,0,.48-.03.96-.04,1.44-.01.48-.21.95-.24,1.42-.03.48.35.99.31,1.47-.05.48-.19.95-.26,1.43-.06.48-.4.91-.48,1.38-.08.48,0,.97-.11,1.44-.1.47-.02.99-.13,1.45-.12.47-.27.93-.4,1.39-.14.46-.36.9-.51,1.35-.16.46-.25.94-.43,1.38-.18.45-.26.94-.46,1.38-.2.44-.51.83-.73,1.26-.22.43-.58.78-.81,1.2-.24.42-.43.86-.68,1.27-.26.4-.68.69-.96,1.09-.28.39-.32.95-.62,1.33-.29.38-.59.76-.9,1.13-.31.36-.86.51-1.19.86-.33.35-.59.76-.94,1.09-.34.33-.55.82-.91,1.14-.36.31-.97.33-1.35.63-.37.3-.55.85-.94,1.13-.38.28-.76.59-1.16.86-.39.27-.89.39-1.3.64-.4.25-.83.47-1.25.71-.41.24-.77.58-1.2.81-.42.23-.91.33-1.34.55-.42.21-.88.36-1.32.57"/><path d="M112.81,131.36c-.44.21-.85.48-1.29.66-.45.19-.87.44-1.32.61-.46.17-.91.35-1.37.51-.46.15-.9.38-1.37.51-.47.14-.92.36-1.39.48-.47.12-1.01-.04-1.48.05-.47.1-.91.41-1.39.49-.48.08-.97.11-1.45.16-.48.06-.97.02-1.46.06-.48.04-.98-.21-1.46-.19-.48.02-.96.1-1.45.1-.48,0-.97.08-1.45.06-.48-.02-.94-.26-1.43-.3-.48-.04-1,.29-1.49.24-.48-.06-.93-.34-1.41-.41-.46-.07-.92-.16-1.39-.26-.46-.1-.94-.13-1.4-.26-.45-.13-.89-.32-1.34-.47-.44-.15-.94-.18-1.38-.35-.44-.17-.75-.65-1.18-.84-.43-.19-.89-.32-1.31-.53-.42-.21-.81-.47-1.23-.71-.41-.23-.86-.39-1.27-.64-.4-.25-.95-.28-1.34-.55-.39-.27-.57-.83-.95-1.11-.38-.28-.76-.55-1.13-.85-.37-.3-.98-.31-1.34-.62-.36-.32-.54-.82-.88-1.15-.34-.33-.74-.61-1.06-.95-.33-.35-.63-.71-.94-1.07-.31-.36-.7-.66-.99-1.04-.29-.38-.29-.96-.56-1.35-.27-.39-.78-.62-1.03-1.02-.25-.41-.39-.88-.61-1.29-.22-.42-.26-.95-.46-1.42-.19-.44-.66-.79-.83-1.27-.16-.46-.34-.93-.49-1.41-.14-.47-.16-.98-.29-1.47-.12-.48-.03-1.01-.14-1.5-.11-.48-.46-.92-.55-1.41-.09-.49-.28-.97-.35-1.46-.07-.49.27-1.04.22-1.53-.06-.5-.46-.96-.5-1.45-.04-.5.22-1.02.2-1.51-.02-.5-.41-1-.41-1.49,0-.51.17-1.01.19-1.5.03-.51.4-.97.45-1.45.06-.51.13-.99.22-1.45.09-.46-.22-1.03-.1-1.52.11-.46.28-.93.42-1.41.13-.46.42-.89.57-1.36.15-.46.29-.92.46-1.39.16-.46.13-.99.31-1.45.17-.45.43-.88.61-1.34.18-.45.27-.95.47-1.4.19-.45.49-.86.69-1.3.2-.44.75-.73.96-1.17.21-.44.25-.97.47-1.4.22-.44.39-.9.62-1.33.24-.43.3-.96.54-1.38.25-.43.75-.7,1-1.11.26-.42.61-.77.88-1.18.27-.42.26-1.01.54-1.41.29-.41.86-.6,1.15-.98.3-.4.54-.83.84-1.2.32-.39.56-.83.88-1.17.25-.27.78-.51,1.16-.79.43-.31.67-.49.94.14.43.23.54-.15,1.01-.03.16.26.18.52.2.83.01.25,0,.73-.37,1.29-.23.36-.6.69-.9,1.1-.28.38-.69.67-.98,1.04-.31.4-.6.79-.87,1.13-.37.47-.58.96-.75,1.22-.27.4-.4.88-.65,1.28-.25.4-.43.85-.67,1.26-.24.41-.68.7-.91,1.12-.23.42-.24.95-.45,1.37-.22.42-.59.76-.8,1.19-.21.43-.3.91-.49,1.34-.19.43-.32.89-.5,1.33-.18.44-.41.85-.58,1.3-.17.45-.24.92-.39,1.37-.15.45-.36.88-.5,1.33-.14.46-.52.84-.64,1.3-.12.46-.36.9-.46,1.36-.11.46.23,1.02.14,1.49-.09.47-.18.93-.26,1.4-.07.47-.4.9-.46,1.38-.05.47-.15.95-.18,1.42-.03.48-.15.95-.16,1.43-.01.48.29.96.3,1.43,0,.48-.28.97-.25,1.44.03.48.55.91.6,1.38.05.47-.24.99-.16,1.46.08.47.48.88.58,1.34.1.46.2.92.32,1.38s.24.91.39,1.36c.15.45-.05,1.03.13,1.47.17.44.58.79.78,1.22.2.43.28.92.51,1.34.22.42.62.74.87,1.14.25.4.5.8.77,1.19.27.39.61.72.9,1.1.29.37.51.8.83,1.16.31.35.61.72.95,1.06.33.34.67.66,1.02.99.35.32.81.49,1.18.8.36.3.51.87.9,1.16.38.28.97.26,1.37.52.39.26.69.66,1.1.91.4.24.9.33,1.32.56.41.23.72.66,1.15.87.43.21.82.5,1.27.68.44.18.89.35,1.35.5.45.15,1-.04,1.47.08.46.12.87.45,1.34.54.47.09.93.27,1.4.33.47.06.95.11,1.43.14.47.04.96-.19,1.44-.17.47.01.95.34,1.43.34.47,0,.93-.46,1.41-.49.47-.03.95.03,1.43-.02.47-.05.98.13,1.45.06.47-.07.93-.26,1.4-.34.47-.09.89-.39,1.36-.49.46-.1.92-.21,1.39-.33.46-.12,1.03.13,1.48-.01.46-.14.84-.5,1.3-.65.45-.15.95-.17,1.4-.34s.78-.63,1.21-.82c.44-.18,1-.09,1.43-.29.44-.2.92-.3,1.35-.52.43-.22.82-.5,1.24-.73.42-.23.75-.61,1.16-.86.41-.25.85-.45,1.24-.72.4-.26.77-.57,1.16-.85.39-.28.69-.67,1.06-.97.38-.3.9-.42,1.26-.73.36-.31.63-.74.98-1.06.35-.33.76-.59,1.09-.94.33-.35.62-.74.92-1.1.31-.37.74-.65,1.02-1.02.29-.38.35-.93.62-1.32.27-.4.55-.78.79-1.19.24-.42.53-.8.74-1.23.21-.43.21-.95.38-1.39.18-.44.63-.79.77-1.24.14-.46,0-.99.13-1.44.13-.46.36-.88.47-1.34.12-.46.08-.95.17-1.41.1-.47.52-.86.61-1.32.09-.47.09-.95.15-1.41.07-.47-.01-.96.04-1.42.05-.47.42-.92.45-1.38.03-.47-.08-.96-.07-1.43.01-.47-.27-.95-.28-1.41,0-.47.07-.94.04-1.41-.03-.47-.05-.94-.1-1.41-.05-.47.16-.97.09-1.44-.07-.47-.13-.94-.22-1.41-.09-.46-.56-.84-.67-1.3-.11-.46.09-1-.04-1.45-.13-.45-.57-.81-.72-1.26-.15-.45-.26-.9-.43-1.34-.17-.44-.24-.91-.43-1.35-.18-.43-.29-.9-.49-1.33-.2-.42-.65-.73-.86-1.15-.21-.41-.17-.97-.4-1.39-.23-.41-.53-.78-.77-1.19-.24-.4-.4-.86-.65-1.26-.25-.39-.61-.72-.88-1.12-.26-.39-.44-.84-.72-1.23-.27-.38-.57-.75-.86-1.13-.29-.39-.69-.69-1.02-1.05-.32-.36-.5-.87-.85-1.21-.35-.34-.73-.65-1.11-.97-.37-.31-.99-.3-1.38-.59-.39-.28-.61-.82-1.03-1.07-.41-.26-.81-.55-1.24-.78-.42-.23-.87-.44-1.31-.65-.44-.21-.98-.19-1.43-.37-.45-.18-.85-.49-1.31-.64-.46-.16-.97-.16-1.43-.29-.47-.13-.91-.34-1.38-.45-.47-.11-.92-.36-1.4-.44-.48-.09-.98-.03-1.46-.09-.48-.06-.98.09-1.46.06-.49-.03-.96-.24-1.44-.25-.49,0-.97.14-1.45.16-.49.02-.98-.1-1.46-.05-.49.05-.94.26-1.4.35-.48.09-.99,0-1.45.12-.47.12-.85.52-1.31.67-.46.15-1.05-.09-1.5.07-.45.16-.86.46-1.3.64-.45.17-.89.36-1.33.54-.45.17-.93.26-1.38.43-.45.17-.84.5-1.3.65-.87.29-1.3.48-2.01-.19-.54-.51-.74-.92-.71-1.24.03-.35.31-.73.28-1.35.41-.24.96-.31,1.38-.54.42-.22.84-.42,1.27-.63.43-.2.87-.34,1.31-.52.44-.18.8-.54,1.24-.71.45-.16.94-.17,1.39-.31.45-.14.83-.52,1.29-.64.46-.12.98.02,1.44-.08.46-.1.86-.51,1.33-.59.47-.08.97.08,1.44.02.47-.06.91-.39,1.39-.43.47-.04.97.29,1.44.27.47-.02.94-.05,1.41-.05s.94-.04,1.42-.02c.47.02.93.24,1.4.28.47.04.94.02,1.41.08.47.06.94.1,1.4.18.47.08.95.04,1.42.15.46.1.89.33,1.35.46.46.13.97.07,1.42.21.45.15.78.62,1.22.79.44.17.96.14,1.39.33.43.19.86.39,1.29.6.42.21.95.24,1.36.48.41.24.8.53,1.19.79.4.26.74.6,1.12.88.38.28.71.63,1.07.94.37.3.7.64,1.05.96.34.31.7.62,1.04.99.31.34.54.77.85,1.15.29.36.61.71.9,1.11.28.38.75.63,1.02,1.03.26.39.52.8.77,1.21.25.4.26.95.51,1.37.24.41.71.69.94,1.11.23.42.26.94.48,1.37.21.43.58.78.79,1.21.2.43.1,1,.29,1.44.19.44.81.7.99,1.14.18.44.22.95.39,1.39.17.45.33.9.48,1.35.16.46.1.98.24,1.43.14.46.27.92.4,1.38.13.47.48.87.59,1.33.11.48.23.95.31,1.41.09.48.26.95.32,1.41.06.49.05.99.07,1.44.02.48-.04.97-.03,1.45.01.48-.12.96-.12,1.44,0,.48-.03.96-.04,1.44-.01.48-.21.95-.24,1.42-.03.48.35.99.31,1.47-.05.48-.19.95-.26,1.43-.06.48-.4.91-.48,1.38-.08.48,0,.97-.11,1.44-.1.47-.02.99-.13,1.45-.12.47-.27.93-.4,1.39-.14.46-.36.9-.51,1.35-.16.46-.25.94-.43,1.38-.18.45-.26.94-.46,1.38-.2.44-.51.83-.73,1.26-.22.43-.58.78-.81,1.2-.24.42-.43.86-.68,1.27-.26.4-.68.69-.96,1.09-.28.39-.32.95-.62,1.33-.29.38-.59.76-.9,1.13-.31.36-.86.51-1.19.86-.33.35-.59.76-.94,1.09-.34.33-.55.82-.91,1.14-.36.31-.97.33-1.35.63-.37.3-.55.85-.94,1.13-.38.28-.76.59-1.16.86-.39.27-.89.39-1.3.64-.4.25-.83.47-1.25.71-.41.24-.77.58-1.2.81-.42.23-.91.33-1.34.55-.42.21-.88.36-1.32.57"/><path d="M100.98,72.27c.45-.01.93.15,1.47.19.47.03,1-.24,1.51-.18.48.07.97.21,1.46.31.49.09.92.45,1.4.57.49.12,1.06-.08,1.53.06.5.15.97.33,1.42.5.5.19.88.57,1.27.79.31.17.9.2,1.36.57.34.27.62.72,1,1.06.35.32.8.55,1.14.9.34.35.69.71,1,1.06.34.39.57.86.81,1.22.33.49.56.99.61,1.34.07.51.01,1.02-.16,1.34-.21.39-.7.52-1.14.63-.38.1-.84.29-1.3.16-.22-.06-.62-.51-1.1-1-.3-.3-.44-.85-.79-1.22-.32-.34-.71-.65-1.04-1-.35-.36-.74-.67-1.07-.97-.42-.39-.8-.77-1.12-.93-.44-.23-.96-.28-1.41-.46-.46-.19-.93-.29-1.4-.43-.47-.14-.88-.53-1.36-.64-.48-.1-.99-.08-1.48-.15-.49-.06-.97-.23-1.46-.25-.49-.03-.99.37-1.48.38-.49.01-.98-.11-1.47-.06-.49.04-.96.15-1.45.23-.48.08-.99.02-1.47.13-.48.11-1.01.04-1.48.18-.47.14-.8.71-1.25.89-.46.18-.96.23-1.4.44-.45.21-.9.39-1.33.62-.43.24-.85.49-1.26.76-.41.27-.75.63-1.14.93-.39.3-.86.5-1.22.82-.37.32-.69.7-1.03,1.06-.34.35-.79.61-1.1.99-.31.38-.63.73-.91,1.09-.3.38-.42.88-.7,1.25-.29.39-.7.67-.97,1.05-.28.39-.37.9-.62,1.29-.26.4-.48.81-.72,1.21-.24.41-.75.66-.97,1.08-.22.42-.17.96-.36,1.4-.19.43-.61.76-.78,1.21-.16.43-.22.92-.36,1.38-.13.44.02.96-.1,1.43-.11.44-.46.84-.55,1.32-.09.45-.04.93-.12,1.42-.07.45-.46.88-.52,1.36-.06.49.28,1,.25,1.47-.03.49.01.96,0,1.43,0,.49-.44.98-.41,1.46.03.49.13.97.19,1.45.06.48.14.97.23,1.44.1.48.35.92.47,1.38.13.47.49.85.65,1.3.17.46.37.88.57,1.31.2.44.42.85.65,1.27.23.42.37.89.63,1.29.26.4.36.93.65,1.31.29.38.62.75.94,1.11.32.36.66.72,1,1.05.35.33.74.63,1.11.94.37.31.91.39,1.3.68.39.28.56.9.97,1.15.41.25.91.37,1.33.6.42.23.97.2,1.41.4.44.2.77.63,1.22.8.45.17.9.34,1.36.49.46.14.9.38,1.37.5.46.12.94.24,1.42.33.47.09,1.02-.29,1.5-.23.48.06.93.23,1.41.26.48.03.95.12,1.43.13.48,0,.95-.2,1.43-.23.48-.02,1,.42,1.47.37.48-.05.91-.44,1.39-.52.47-.08,1,.1,1.47,0,.47-.11.87-.47,1.34-.6.46-.13.96-.16,1.41-.33.45-.16.9-.35,1.34-.54.44-.19.9-.35,1.33-.57.43-.21.77-.6,1.18-.84.41-.24.93-.32,1.33-.59.4-.26.77-.57,1.16-.87.38-.29.65-.72,1.02-1.03.36-.31.77-.57,1.12-.91.34-.33.64-.71.97-1.07.32-.35.8-.59,1.1-.97.28-.35.29-.92.54-1.33.23-.39.35-.83.55-1.26.19-.41.53-.76.7-1.2.16-.43.47-.82.6-1.27.13-.44.31-.88.41-1.34.1-.45.18-.92.26-1.38.08-.46-.23-.97-.17-1.43.06-.46.44-.89.48-1.35.04-.46.1-.93.11-1.4.02-.47-.39-.94-.39-1.4,0-.47.28-.94.26-1.4-.02-.47.02-.94-.02-1.4-.04-.47-.21-.93-.26-1.38-.06-.47-.21-.92-.29-1.36-.09-.47-.03-.96-.14-1.39-.11-.45-.23-.99-.43-1.49-.19-.48-.69-.86-.84-1.33-.16-.52-.21-1.09-.16-1.56.06-.48.31-.99.77-1.37.49-.4.93-.18,1.35-.05.4.13.66.37,1,.83.26.36.83.6,1.05,1.09.19.43.22.97.37,1.44.16.47.34.94.46,1.4.13.51.25,1,.34,1.44.12.63.24,1.16.26,1.46.04.49-.07.98-.04,1.45.03.49.25.96.27,1.43.03.49-.03.97-.02,1.44.01.49-.02.97-.02,1.44,0,.49-.19.96-.21,1.43-.01.49.03.96,0,1.43-.03.48.02.97-.04,1.44-.06.48-.23.94-.31,1.4-.08.47-.05.97-.16,1.43-.11.47-.13.96-.27,1.42-.14.46-.25.94-.43,1.38-.18.44-.63.77-.84,1.2-.21.42-.24.95-.48,1.37-.24.41-.69.69-.96,1.09-.26.39-.32.94-.62,1.33-.29.37-.8.57-1.12.94-.31.35-.51.82-.84,1.17-.32.34-.81.53-1.17.87-.34.32-.49.87-.86,1.2-.37.32-.99.33-1.37.63-.38.3-.67.71-1.06.99-.4.28-.78.57-1.19.83-.41.26-.79.58-1.21.81-.42.24-.81.56-1.24.77-.44.21-.98.19-1.43.38-.45.19-.95.2-1.41.36-.46.16-.87.42-1.34.55-.47.13-.88.49-1.35.6-.47.11-1-.08-1.48,0-.48.08-.93.34-1.41.39-.48.05-.96.21-1.44.24-.48.03-.98-.37-1.46-.37-.48,0-.98.46-1.46.43-.48-.03-.97-.09-1.46-.14-.48-.05-.94-.31-1.42-.38-.48-.08-.94-.22-1.42-.32-.47-.1-.98-.06-1.45-.19-.47-.12-.86-.5-1.32-.65-.47-.15-.99-.11-1.44-.28-.46-.17-.93-.31-1.37-.5-.45-.2-.73-.73-1.15-.94-.44-.22-.89-.37-1.31-.62-.42-.25-.79-.55-1.18-.82-.41-.27-.77-.58-1.15-.87-.39-.3-.99-.32-1.35-.64-.37-.32-.57-.81-.91-1.15-.34-.34-.85-.54-1.16-.9-.32-.37-.53-.83-.82-1.21-.29-.39-.72-.68-.99-1.08-.27-.4-.51-.83-.75-1.25-.24-.42-.53-.83-.74-1.26-.21-.43-.39-.9-.57-1.34-.18-.45-.24-.95-.4-1.41-.16-.46-.41-.89-.54-1.36-.13-.46.06-1.01-.04-1.48-.1-.47-.4-.9-.48-1.38-.08-.48-.18-.95-.23-1.43-.05-.48-.1-.97-.13-1.45-.03-.48.26-.97.26-1.46,0-.48-.32-.97-.3-1.45.02-.48.14-.96.18-1.44.04-.48.32-.93.38-1.41.06-.48.13-.95.22-1.42.09-.47-.03-.99.08-1.46.11-.47.17-.96.3-1.42.13-.46.46-.87.61-1.33.15-.46.29-.92.46-1.37.17-.45.33-.91.51-1.35.19-.45.46-.85.66-1.28.21-.44.26-.95.49-1.37.22-.43.28-.95.53-1.37.24-.42.65-.74.91-1.15.26-.41.59-.77.87-1.16.28-.39.68-.69.98-1.07.3-.38.37-.94.69-1.31.32-.36.66-.71.99-1.06.33-.35.66-.71,1.01-1.04.35-.33.71-.66,1.08-.98.37-.31.95-.36,1.33-.65.38-.29.52-.92.92-1.2.4-.27.81-.54,1.23-.79.41-.25.9-.39,1.33-.61.42-.23,1-.15,1.44-.35.44-.2.86-.4,1.31-.58.45-.18.84-.49,1.3-.64.46-.15.93-.23,1.4-.35.46-.12.88-.47,1.36-.56.47-.09,1,.13,1.48.06.48-.06.92-.4,1.41-.43.48-.04.97.13,1.46.12"/><path d="M100.98,72.27c.45-.01.93.15,1.47.19.47.03,1-.24,1.51-.18.48.07.97.21,1.46.31.49.09.92.45,1.4.57.49.12,1.06-.08,1.53.06.5.15.97.33,1.42.5.5.19.88.57,1.27.79.31.17.9.2,1.36.57.34.27.62.72,1,1.06.35.32.8.55,1.14.9.34.35.69.71,1,1.06.34.39.57.86.81,1.22.33.49.56.99.61,1.34.07.51.01,1.02-.16,1.34-.21.39-.7.52-1.14.63-.38.1-.84.29-1.3.16-.22-.06-.62-.51-1.1-1-.3-.3-.44-.85-.79-1.22-.32-.34-.71-.65-1.04-1-.35-.36-.74-.67-1.07-.97-.42-.39-.8-.77-1.12-.93-.44-.23-.96-.28-1.41-.46-.46-.19-.93-.29-1.4-.43-.47-.14-.88-.53-1.36-.64-.48-.1-.99-.08-1.48-.15-.49-.06-.97-.23-1.46-.25-.49-.03-.99.37-1.48.38-.49.01-.98-.11-1.47-.06-.49.04-.96.15-1.45.23-.48.08-.99.02-1.47.13-.48.11-1.01.04-1.48.18-.47.14-.8.71-1.25.89-.46.18-.96.23-1.4.44-.45.21-.9.39-1.33.62-.43.24-.85.49-1.26.76-.41.27-.75.63-1.14.93-.39.3-.86.5-1.22.82-.37.32-.69.7-1.03,1.06-.34.35-.79.61-1.1.99-.31.38-.63.73-.91,1.09-.3.38-.42.88-.7,1.25-.29.39-.7.67-.97,1.05-.28.39-.37.9-.62,1.29-.26.4-.48.81-.72,1.21-.24.41-.75.66-.97,1.08-.22.42-.17.96-.36,1.4-.19.43-.61.76-.78,1.21-.16.43-.22.92-.36,1.38-.13.44.02.96-.1,1.43-.11.44-.46.84-.55,1.32-.09.45-.04.93-.12,1.42-.07.45-.46.88-.52,1.36-.06.49.28,1,.25,1.47-.03.49.01.96,0,1.43,0,.49-.44.98-.41,1.46.03.49.13.97.19,1.45.06.48.14.97.23,1.44.1.48.35.92.47,1.38.13.47.49.85.65,1.3.17.46.37.88.57,1.31.2.44.42.85.65,1.27.23.42.37.89.63,1.29.26.4.36.93.65,1.31.29.38.62.75.94,1.11.32.36.66.72,1,1.05.35.33.74.63,1.11.94.37.31.91.39,1.3.68.39.28.56.9.97,1.15.41.25.91.37,1.33.6.42.23.97.2,1.41.4.44.2.77.63,1.22.8.45.17.9.34,1.36.49.46.14.9.38,1.37.5.46.12.94.24,1.42.33.47.09,1.02-.29,1.5-.23.48.06.93.23,1.41.26.48.03.95.12,1.43.13.48,0,.95-.2,1.43-.23.48-.02,1,.42,1.47.37.48-.05.91-.44,1.39-.52.47-.08,1,.1,1.47,0,.47-.11.87-.47,1.34-.6.46-.13.96-.16,1.41-.33.45-.16.9-.35,1.34-.54.44-.19.9-.35,1.33-.57.43-.21.77-.6,1.18-.84.41-.24.93-.32,1.33-.59.4-.26.77-.57,1.16-.87.38-.29.65-.72,1.02-1.03.36-.31.77-.57,1.12-.91.34-.33.64-.71.97-1.07.32-.35.8-.59,1.1-.97.28-.35.29-.92.54-1.33.23-.39.35-.83.55-1.26.19-.41.53-.76.7-1.2.16-.43.47-.82.6-1.27.13-.44.31-.88.41-1.34.1-.45.18-.92.26-1.38.08-.46-.23-.97-.17-1.43.06-.46.44-.89.48-1.35.04-.46.1-.93.11-1.4.02-.47-.39-.94-.39-1.4,0-.47.28-.94.26-1.4-.02-.47.02-.94-.02-1.4-.04-.47-.21-.93-.26-1.38-.06-.47-.21-.92-.29-1.36-.09-.47-.03-.96-.14-1.39-.11-.45-.23-.99-.43-1.49-.19-.48-.69-.86-.84-1.33-.16-.52-.21-1.09-.16-1.56.06-.48.31-.99.77-1.37.49-.4.93-.18,1.35-.05.4.13.66.37,1,.83.26.36.83.6,1.05,1.09.19.43.22.97.37,1.44.16.47.34.94.46,1.4.13.51.25,1,.34,1.44.12.63.24,1.16.26,1.46.04.49-.07.98-.04,1.45.03.49.25.96.27,1.43.03.49-.03.97-.02,1.44.01.49-.02.97-.02,1.44,0,.49-.19.96-.21,1.43-.01.49.03.96,0,1.43-.03.48.02.97-.04,1.44-.06.48-.23.94-.31,1.4-.08.47-.05.97-.16,1.43-.11.47-.13.96-.27,1.42-.14.46-.25.94-.43,1.38-.18.44-.63.77-.84,1.2-.21.42-.24.95-.48,1.37-.24.41-.69.69-.96,1.09-.26.39-.32.94-.62,1.33-.29.37-.8.57-1.12.94-.31.35-.51.82-.84,1.17-.32.34-.81.53-1.17.87-.34.32-.49.87-.86,1.2-.37.32-.99.33-1.37.63-.38.3-.67.71-1.06.99-.4.28-.78.57-1.19.83-.41.26-.79.58-1.21.81-.42.24-.81.56-1.24.77-.44.21-.98.19-1.43.38-.45.19-.95.2-1.41.36-.46.16-.87.42-1.34.55-.47.13-.88.49-1.35.6-.47.11-1-.08-1.48,0-.48.08-.93.34-1.41.39-.48.05-.96.21-1.44.24-.48.03-.98-.37-1.46-.37-.48,0-.98.46-1.46.43-.48-.03-.97-.09-1.46-.14-.48-.05-.94-.31-1.42-.38-.48-.08-.94-.22-1.42-.32-.47-.1-.98-.06-1.45-.19-.47-.12-.86-.5-1.32-.65-.47-.15-.99-.11-1.44-.28-.46-.17-.93-.31-1.37-.5-.45-.2-.73-.73-1.15-.94-.44-.22-.89-.37-1.31-.62-.42-.25-.79-.55-1.18-.82-.41-.27-.77-.58-1.15-.87-.39-.3-.99-.32-1.35-.64-.37-.32-.57-.81-.91-1.15-.34-.34-.85-.54-1.16-.9-.32-.37-.53-.83-.82-1.21-.29-.39-.72-.68-.99-1.08-.27-.4-.51-.83-.75-1.25-.24-.42-.53-.83-.74-1.26-.21-.43-.39-.9-.57-1.34-.18-.45-.24-.95-.4-1.41-.16-.46-.41-.89-.54-1.36-.13-.46.06-1.01-.04-1.48-.1-.47-.4-.9-.48-1.38-.08-.48-.18-.95-.23-1.43-.05-.48-.1-.97-.13-1.45-.03-.48.26-.97.26-1.46,0-.48-.32-.97-.3-1.45.02-.48.14-.96.18-1.44.04-.48.32-.93.38-1.41.06-.48.13-.95.22-1.42.09-.47-.03-.99.08-1.46.11-.47.17-.96.3-1.42.13-.46.46-.87.61-1.33.15-.46.29-.92.46-1.37.17-.45.33-.91.51-1.35.19-.45.46-.85.66-1.28.21-.44.26-.95.49-1.37.22-.43.28-.95.53-1.37.24-.42.65-.74.91-1.15.26-.41.59-.77.87-1.16.28-.39.68-.69.98-1.07.3-.38.37-.94.69-1.31.32-.36.66-.71.99-1.06.33-.35.66-.71,1.01-1.04.35-.33.71-.66,1.08-.98.37-.31.95-.36,1.33-.65.38-.29.52-.92.92-1.2.4-.27.81-.54,1.23-.79.41-.25.9-.39,1.33-.61.42-.23,1-.15,1.44-.35.44-.2.86-.4,1.31-.58.45-.18.84-.49,1.3-.64.46-.15.93-.23,1.4-.35.46-.12.88-.47,1.36-.56.47-.09,1,.13,1.48.06.48-.06.92-.4,1.41-.43.48-.04.97.13,1.46.12"/><path d="M105.91,111.39c.08.51-.08,1.05-.19,1.45-.12.46-.32.85-.64,1.18-.3.31-.67.6-1.09.82-.39.2-.85.28-1.3.41-.43.12-.84.39-1.3.47-.45.07-.94-.16-1.39-.12-.47.04-.92,0-1.36,0-.5,0-.97.33-1.36.31-.51-.02-.99-.22-1.47-.3-.49-.09-1.04,0-1.5-.15-.48-.15-.98-.3-1.43-.51-.45-.2-.77-.7-1.19-.95-.43-.25-.8-.57-1.2-.87-.4-.29-.95-.41-1.32-.74-.37-.33-.65-.76-.99-1.12-.34-.36-.55-.83-.87-1.21-.32-.38-.65-.75-.94-1.15-.29-.4-.64-.76-.91-1.18-.27-.42-.61-.79-.86-1.22-.25-.43-.64-.8-.86-1.23-.17-.33-.23-.96-.4-1.61-.13-.49-.3-1.03-.41-1.57-.11-.54.16-1.16.08-1.66-.11-.64-.27-1.18-.3-1.57-.03-.49-.29-.96-.29-1.44,0-.49,0-.98.04-1.46.04-.49.4-.93.47-1.41.07-.48,0-.98.11-1.45.11-.47.33-.91.48-1.37.15-.46.4-.87.59-1.31.19-.45.04-1.06.28-1.48.23-.43.61-.77.89-1.17.27-.4.75-.64,1.06-1.01.31-.37.46-.89.81-1.23.35-.33.88-.45,1.26-.75.38-.3.67-.7,1.08-.97.4-.26.77-.6,1.2-.82.44-.23.83-.58,1.27-.78.45-.21,1.08.02,1.53-.16.47-.18.89-.42,1.35-.56.47-.15.87-.55,1.34-.67.48-.12,1-.09,1.47-.16.49-.08.98-.1,1.46-.14.49-.04.98.11,1.47.11.5,0,.99-.23,1.47-.19.49.05,1.01-.05,1.49.04.48.09.86.62,1.33.76.47.14,1.06-.05,1.51.14.45.19.85.51,1.29.74.43.23.83.52,1.24.79.4.27.77.6,1.15.91.38.3.69.67,1.05,1.02.35.34.68.69,1,1.06.32.36.8.6,1.1,1,.29.38.37.93.64,1.35.26.4.77.67,1.03,1.1.24.42.52.83.73,1.25.21.44.02,1.04.19,1.48.18.45.36.88.5,1.33.14.46.68.81.78,1.28.1.47-.25,1.02-.19,1.49.06.48.16.93.19,1.4.02.48.21.95.19,1.43-.02.48-.26.93-.31,1.4-.05.47.17.98.08,1.46-.09.46-.33.9-.45,1.37-.12.46,0,1-.14,1.46-.15.45-.48.85-.65,1.3-.17.44-.53.81-.73,1.25-.16.35-.28.85-.52,1.31-.22.42-.54.77-.84,1.12-.34.4-.65.62-1.08.67-.59.08-.95.08-1.26-.04-.47-.18-.59-.44-.6-.93,0-.38.14-.78.3-1.25.14-.41.02-.94.21-1.36.19-.42.39-.84.58-1.22.23-.47.78-.76.89-1.08.16-.44.26-.91.39-1.35.13-.45.15-.94.24-1.39.09-.46-.06-.95,0-1.41.06-.46.1-.92.12-1.38.02-.47.04-.92.03-1.38-.02-.47.28-.96.22-1.42-.06-.46-.46-.87-.56-1.32-.1-.45-.18-.91-.32-1.35-.14-.44-.03-.99-.22-1.41-.19-.43-.67-.71-.89-1.12-.22-.4-.34-.88-.6-1.27-.26-.38-.47-.83-.77-1.18-.3-.35-.91-.41-1.25-.74-.33-.32-.52-.8-.89-1.09-.35-.29-.81-.44-1.21-.71-.43-.29-.68-.85-1.09-1.07-.45-.25-1.04-.18-1.48-.36-.47-.19-.96-.23-1.43-.34-.49-.12-.94-.28-1.43-.32-.49-.05-.97.06-1.46.08-.49.02-.97-.06-1.47.02-.48.07-.93.26-1.42.38-.47.12-.91.31-1.4.46-.46.15-1.04-.05-1.52.13-.46.16-.91.32-1.32.5-.44.2-.78.57-1.17.79-.42.23-.79.51-1.16.77-.39.27-.8.5-1.14.81-.35.31-.67.65-.97,1-.3.35-.4.84-.65,1.24-.25.38-.78.61-.99,1.04-.2.41-.45.83-.62,1.28-.16.42-.08.95-.21,1.41-.12.43-.45.84-.55,1.31-.1.48.24,1.02.2,1.51-.04.48-.14.95-.13,1.44.01.49.04.96.1,1.45.06.48-.1,1.01.01,1.49.11.47.24.96.39,1.43.15.46.61.82.8,1.26.19.45.42.87.65,1.3.23.43.48.84.75,1.24.27.41.44.88.74,1.26.31.38.75.64,1.08.99.34.35.65.72,1.02,1.04.37.32.73.64,1.13.92.41.28.81.53,1.24.76.43.23.86.45,1.32.62.46.17.89.45,1.36.56.47.11.95.36,1.44.4.48.04.99-.27,1.48-.29.48-.02,1,.17,1.49.08.43-.08.91-.15,1.34-.29.43-.15.82-.37,1.24-.5.44-.13.81-.56,1.25-.59.44-.03,1.01.09,1.45.25"/><path d="M105.91,111.39c.08.51-.08,1.05-.19,1.45-.12.46-.32.85-.64,1.18-.3.31-.67.6-1.09.82-.39.2-.85.28-1.3.41-.43.12-.84.39-1.3.47-.45.07-.94-.16-1.39-.12-.47.04-.92,0-1.36,0-.5,0-.97.33-1.36.31-.51-.02-.99-.22-1.47-.3-.49-.09-1.04,0-1.5-.15-.48-.15-.98-.3-1.43-.51-.45-.2-.77-.7-1.19-.95-.43-.25-.8-.57-1.2-.87-.4-.29-.95-.41-1.32-.74-.37-.33-.65-.76-.99-1.12-.34-.36-.55-.83-.87-1.21-.32-.38-.65-.75-.94-1.15-.29-.4-.64-.76-.91-1.18-.27-.42-.61-.79-.86-1.22-.25-.43-.64-.8-.86-1.23-.17-.33-.23-.96-.4-1.61-.13-.49-.3-1.03-.41-1.57-.11-.54.16-1.16.08-1.66-.11-.64-.27-1.18-.3-1.57-.03-.49-.29-.96-.29-1.44,0-.49,0-.98.04-1.46.04-.49.4-.93.47-1.41.07-.48,0-.98.11-1.45.11-.47.33-.91.48-1.37.15-.46.4-.87.59-1.31.19-.45.04-1.06.28-1.48.23-.43.61-.77.89-1.17.27-.4.75-.64,1.06-1.01.31-.37.46-.89.81-1.23.35-.33.88-.45,1.26-.75.38-.3.67-.7,1.08-.97.4-.26.77-.6,1.2-.82.44-.23.83-.58,1.27-.78.45-.21,1.08.02,1.53-.16.47-.18.89-.42,1.35-.56.47-.15.87-.55,1.34-.67.48-.12,1-.09,1.47-.16.49-.08.98-.1,1.46-.14.49-.04.98.11,1.47.11.5,0,.99-.23,1.47-.19.49.05,1.01-.05,1.49.04.48.09.86.62,1.33.76.47.14,1.06-.05,1.51.14.45.19.85.51,1.29.74.43.23.83.52,1.24.79.4.27.77.6,1.15.91.38.3.69.67,1.05,1.02.35.34.68.69,1,1.06.32.36.8.6,1.1,1,.29.38.37.93.64,1.35.26.4.77.67,1.03,1.1.24.42.52.83.73,1.25.21.44.02,1.04.19,1.48.18.45.36.88.5,1.33.14.46.68.81.78,1.28.1.47-.25,1.02-.19,1.49.06.48.16.93.19,1.4.02.48.21.95.19,1.43-.02.48-.26.93-.31,1.4-.05.47.17.98.08,1.46-.09.46-.33.9-.45,1.37-.12.46,0,1-.14,1.46-.15.45-.48.85-.65,1.3-.17.44-.53.81-.73,1.25-.16.35-.28.85-.52,1.31-.22.42-.54.77-.84,1.12-.34.4-.65.62-1.08.67-.59.08-.95.08-1.26-.04-.47-.18-.59-.44-.6-.93,0-.38.14-.78.3-1.25.14-.41.02-.94.21-1.36.19-.42.39-.84.58-1.22.23-.47.78-.76.89-1.08.16-.44.26-.91.39-1.35.13-.45.15-.94.24-1.39.09-.46-.06-.95,0-1.41.06-.46.1-.92.12-1.38.02-.47.04-.92.03-1.38-.02-.47.28-.96.22-1.42-.06-.46-.46-.87-.56-1.32-.1-.45-.18-.91-.32-1.35-.14-.44-.03-.99-.22-1.41-.19-.43-.67-.71-.89-1.12-.22-.4-.34-.88-.6-1.27-.26-.38-.47-.83-.77-1.18-.3-.35-.91-.41-1.25-.74-.33-.32-.52-.8-.89-1.09-.35-.29-.81-.44-1.21-.71-.43-.29-.68-.85-1.09-1.07-.45-.25-1.04-.18-1.48-.36-.47-.19-.96-.23-1.43-.34-.49-.12-.94-.28-1.43-.32-.49-.05-.97.06-1.46.08-.49.02-.97-.06-1.47.02-.48.07-.93.26-1.42.38-.47.12-.91.31-1.4.46-.46.15-1.04-.05-1.52.13-.46.16-.91.32-1.32.5-.44.2-.78.57-1.17.79-.42.23-.79.51-1.16.77-.39.27-.8.5-1.14.81-.35.31-.67.65-.97,1-.3.35-.4.84-.65,1.24-.25.38-.78.61-.99,1.04-.2.41-.45.83-.62,1.28-.16.42-.08.95-.21,1.41-.12.43-.45.84-.55,1.31-.1.48.24,1.02.2,1.51-.04.48-.14.95-.13,1.44.01.49.04.96.1,1.45.06.48-.1,1.01.01,1.49.11.47.24.96.39,1.43.15.46.61.82.8,1.26.19.45.42.87.65,1.3.23.43.48.84.75,1.24.27.41.44.88.74,1.26.31.38.75.64,1.08.99.34.35.65.72,1.02,1.04.37.32.73.64,1.13.92.41.28.81.53,1.24.76.43.23.86.45,1.32.62.46.17.89.45,1.36.56.47.11.95.36,1.44.4.48.04.99-.27,1.48-.29.48-.02,1,.17,1.49.08.43-.08.91-.15,1.34-.29.43-.15.82-.37,1.24-.5.44-.13.81-.56,1.25-.59.44-.03,1.01.09,1.45.25"/><path d="M103.87,106.85c-.32.24-.56.69-.99.96-.36.23-.76.46-1.17.69-.39.22-.76.51-1.18.71-.42.2-.93.18-1.34.34-.44.17-.85.4-1.26.51-.49.13-.94.05-1.34.07-.34,0-.83-.03-1.34-.1-.51-.08-1.02-.1-1.32-.24-.16-.07-.9-.36-1.49-.86-.59-.51-1.21-1.09-1.28-1.23-.2-.43.02-1.21.41-1.67.39-.48,1.09-.86,1.45-.9.34-.03.53.52.84.8.29.26.71.42.99.57.45.24.93.44,1.42.5.48.06,1.03.17,1.54.09.48-.08.92-.43,1.4-.62.45-.18,1-.23,1.44-.49.43-.25.72-.73,1.11-1.04.39-.31.7-.7,1.05-1.05.36-.36.92-.54,1.21-.93.31-.41.51-.91.73-1.33.25-.47.22-1.01.34-1.46.11-.45.12-.88.18-1.33.06-.46.3-.89.29-1.33,0-.46.06-.93-.02-1.37-.08-.45-.55-.78-.71-1.2-.16-.43.02-1.02-.22-1.4-.24-.38-.58-.73-.91-1.05-.31-.31-.75-.52-1.14-.77-.37-.23-.82-.33-1.26-.5-.44-.17-.86-.34-1.31-.4-.46-.06-.9.11-1.35.16s-.95-.09-1.39.05c-.43.14-.72.6-1.13.83-.4.22-.77.44-1.14.71-.37.28-.97.29-1.29.61-.33.33-.62.71-.9,1.07-.55.71-.58,1.23-.71,1.64-.14.46-.05.94-.27,1.77-.15.58-.68,1.09-1.14,1.19-.46.11-1.11-.14-1.54-.42-.4-.26-.89-.73-.99-1.25-.08-.44.04-.96.12-1.43.07-.43.12-.94.3-1.38.17-.41.51-.78.76-1.18.24-.38.57-.72.86-1.08.28-.36.46-.83.77-1.16.32-.33.77-.55,1.11-.85.36-.31.72-.61,1.08-.86.4-.29.79-.56,1.16-.75.43-.23.96-.18,1.39-.35.45-.18.8-.63,1.24-.75.47-.12.97-.07,1.42-.13.48-.06.95.13,1.41.13.48,0,.92.02,1.38.09.47.08.95.04,1.39.19.45.15.95.2,1.36.41.42.22.85.45,1.23.73.38.28.81.54,1.15.87.34.33.49.84.78,1.21.29.37.46.81.7,1.22.23.4.42.82.6,1.26.18.43.65.78.77,1.24.12.45.19.95.25,1.41.06.46-.16.96-.17,1.43,0,.46-.25.9-.32,1.37-.07.46.26,1,.13,1.46-.12.45-.32.9-.51,1.34-.18.42-.69.69-.93,1.11-.23.4-.39.84-.67,1.22-.27.37-.64.66-.96,1.01-.31.34-.57.72-.93,1.05-.34.31-.75.53-1.14.82"/><path d="M103.87,106.85c-.32.24-.56.69-.99.96-.36.23-.76.46-1.17.69-.39.22-.76.51-1.18.71-.42.2-.93.18-1.34.34-.44.17-.85.4-1.26.51-.49.13-.94.05-1.34.07-.34,0-.83-.03-1.34-.1-.51-.08-1.02-.1-1.32-.24-.16-.07-.9-.36-1.49-.86-.59-.51-1.21-1.09-1.28-1.23-.2-.43.02-1.21.41-1.67.39-.48,1.09-.86,1.45-.9.34-.03.53.52.84.8.29.26.71.42.99.57.45.24.93.44,1.42.5.48.06,1.03.17,1.54.09.48-.08.92-.43,1.4-.62.45-.18,1-.23,1.44-.49.43-.25.72-.73,1.11-1.04.39-.31.7-.7,1.05-1.05.36-.36.92-.54,1.21-.93.31-.41.51-.91.73-1.33.25-.47.22-1.01.34-1.46.11-.45.12-.88.18-1.33.06-.46.3-.89.29-1.33,0-.46.06-.93-.02-1.37-.08-.45-.55-.78-.71-1.2-.16-.43.02-1.02-.22-1.4-.24-.38-.58-.73-.91-1.05-.31-.31-.75-.52-1.14-.77-.37-.23-.82-.33-1.26-.5-.44-.17-.86-.34-1.31-.4-.46-.06-.9.11-1.35.16s-.95-.09-1.39.05c-.43.14-.72.6-1.13.83-.4.22-.77.44-1.14.71-.37.28-.97.29-1.29.61-.33.33-.62.71-.9,1.07-.55.71-.58,1.23-.71,1.64-.14.46-.05.94-.27,1.77-.15.58-.68,1.09-1.14,1.19-.46.11-1.11-.14-1.54-.42-.4-.26-.89-.73-.99-1.25-.08-.44.04-.96.12-1.43.07-.43.12-.94.3-1.38.17-.41.51-.78.76-1.18.24-.38.57-.72.86-1.08.28-.36.46-.83.77-1.16.32-.33.77-.55,1.11-.85.36-.31.72-.61,1.08-.86.4-.29.79-.56,1.16-.75.43-.23.96-.18,1.39-.35.45-.18.8-.63,1.24-.75.47-.12.97-.07,1.42-.13.48-.06.95.13,1.41.13.48,0,.92.02,1.38.09.47.08.95.04,1.39.19.45.15.95.2,1.36.41.42.22.85.45,1.23.73.38.28.81.54,1.15.87.34.33.49.84.78,1.21.29.37.46.81.7,1.22.23.4.42.82.6,1.26.18.43.65.78.77,1.24.12.45.19.95.25,1.41.06.46-.16.96-.17,1.43,0,.46-.25.9-.32,1.37-.07.46.26,1,.13,1.46-.12.45-.32.9-.51,1.34-.18.42-.69.69-.93,1.11-.23.4-.39.84-.67,1.22-.27.37-.64.66-.96,1.01-.31.34-.57.72-.93,1.05-.34.31-.75.53-1.14.82"/><path d="M112.81,131.36c-.44.21-.85.48-1.29.66-.45.19-.87.44-1.32.61-.46.17-.91.35-1.37.51-.46.15-.9.38-1.37.51-.47.14-.92.36-1.39.48-.47.12-1.01-.04-1.48.05-.47.1-.91.41-1.39.49-.48.08-.97.11-1.45.16-.48.06-.97.02-1.46.06-.48.04-.98-.21-1.46-.19-.48.02-.96.1-1.45.1-.48,0-.97.08-1.45.06-.48-.02-.94-.26-1.43-.3-.48-.04-1,.29-1.49.24-.48-.06-.93-.34-1.41-.41-.46-.07-.92-.16-1.39-.26-.46-.1-.94-.13-1.4-.26-.45-.13-.89-.32-1.34-.47-.44-.15-.94-.18-1.38-.35-.44-.17-.75-.65-1.18-.84-.43-.19-.89-.32-1.31-.53-.42-.21-.81-.47-1.23-.71-.41-.23-.86-.39-1.27-.64-.4-.25-.95-.28-1.34-.55-.39-.27-.57-.83-.95-1.11-.38-.28-.76-.55-1.13-.85-.37-.3-.98-.31-1.34-.62-.36-.32-.54-.82-.88-1.15-.34-.33-.74-.61-1.06-.95-.33-.35-.63-.71-.94-1.07-.31-.36-.7-.66-.99-1.04-.29-.38-.29-.96-.56-1.35-.27-.39-.78-.62-1.03-1.02-.25-.41-.39-.88-.61-1.29-.22-.42-.26-.95-.46-1.42-.19-.44-.66-.79-.83-1.27-.16-.46-.34-.93-.49-1.41-.14-.47-.16-.98-.29-1.47-.12-.48-.03-1.01-.14-1.5-.11-.48-.46-.92-.55-1.41-.09-.49-.28-.97-.35-1.46-.07-.49.27-1.04.22-1.53-.06-.5-.46-.96-.5-1.45-.04-.5.22-1.02.2-1.51-.02-.5-.41-1-.41-1.49,0-.51.17-1.01.19-1.5.03-.51.4-.97.45-1.45.06-.51.13-.99.22-1.45.09-.46-.22-1.03-.1-1.52.11-.46.28-.93.42-1.41.13-.46.42-.89.57-1.36.15-.46.29-.92.46-1.39.16-.46.13-.99.31-1.45.17-.45.43-.88.61-1.34.18-.45.27-.95.47-1.4.19-.45.49-.86.69-1.3.2-.44.75-.73.96-1.17.21-.44.25-.97.47-1.4.22-.44.39-.9.62-1.33.24-.43.3-.96.54-1.38.25-.43.75-.7,1-1.11.26-.42.61-.77.88-1.18.27-.42.26-1.01.54-1.41.29-.41.86-.6,1.15-.98.3-.4.54-.83.84-1.2.32-.39.56-.83.88-1.17.25-.27.78-.51,1.16-.79.43-.31.67-.49.94.14.43.23.54-.15,1.01-.03.16.26.18.52.2.83.01.25,0,.73-.37,1.29-.23.36-.6.69-.9,1.1-.28.38-.69.67-.98,1.04-.31.4-.6.79-.87,1.13-.37.47-.58.96-.75,1.22-.27.4-.4.88-.65,1.28-.25.4-.43.85-.67,1.26-.24.41-.68.7-.91,1.12-.23.42-.24.95-.45,1.37-.22.42-.59.76-.8,1.19-.21.43-.3.91-.49,1.34-.19.43-.32.89-.5,1.33-.18.44-.41.85-.58,1.3-.17.45-.24.92-.39,1.37-.15.45-.36.88-.5,1.33-.14.46-.52.84-.64,1.3-.12.46-.36.9-.46,1.36-.11.46.23,1.02.14,1.49-.09.47-.18.93-.26,1.4-.07.47-.4.9-.46,1.38-.05.47-.15.95-.18,1.42-.03.48-.15.95-.16,1.43-.01.48.29.96.3,1.43,0,.48-.28.97-.25,1.44.03.48.55.91.6,1.38.05.47-.24.99-.16,1.46.08.47.48.88.58,1.34.1.46.2.92.32,1.38s.24.91.39,1.36c.15.45-.05,1.03.13,1.47.17.44.58.79.78,1.22.2.43.28.92.51,1.34.22.42.62.74.87,1.14.25.4.5.8.77,1.19.27.39.61.72.9,1.1.29.37.51.8.83,1.16.31.35.61.72.95,1.06.33.34.67.66,1.02.99.35.32.81.49,1.18.8.36.3.51.87.9,1.16.38.28.97.26,1.37.52.39.26.69.66,1.1.91.4.24.9.33,1.32.56.41.23.72.66,1.15.87.43.21.82.5,1.27.68.44.18.89.35,1.35.5.45.15,1-.04,1.47.08.46.12.87.45,1.34.54.47.09.93.27,1.4.33.47.06.95.11,1.43.14.47.04.96-.19,1.44-.17.47.01.95.34,1.43.34.47,0,.93-.46,1.41-.49.47-.03.95.03,1.43-.02.47-.05.98.13,1.45.06.47-.07.93-.26,1.4-.34.47-.09.89-.39,1.36-.49.46-.1.92-.21,1.39-.33.46-.12,1.03.13,1.48-.01.46-.14.84-.5,1.3-.65.45-.15.95-.17,1.4-.34s.78-.63,1.21-.82c.44-.18,1-.09,1.43-.29.44-.2.92-.3,1.35-.52.43-.22.82-.5,1.24-.73.42-.23.75-.61,1.16-.86.41-.25.85-.45,1.24-.72.4-.26.77-.57,1.16-.85.39-.28.69-.67,1.06-.97.38-.3.9-.42,1.26-.73.36-.31.63-.74.98-1.06.35-.33.76-.59,1.09-.94.33-.35.62-.74.92-1.1.31-.37.74-.65,1.02-1.02.29-.38.35-.93.62-1.32.27-.4.55-.78.79-1.19.24-.42.53-.8.74-1.23.21-.43.21-.95.38-1.39.18-.44.63-.79.77-1.24.14-.46,0-.99.13-1.44.13-.46.36-.88.47-1.34.12-.46.08-.95.17-1.41.1-.47.52-.86.61-1.32.09-.47.09-.95.15-1.41.07-.47-.01-.96.04-1.42.05-.47.42-.92.45-1.38.03-.47-.08-.96-.07-1.43.01-.47-.27-.95-.28-1.41,0-.47.07-.94.04-1.41-.03-.47-.05-.94-.1-1.41-.05-.47.16-.97.09-1.44-.07-.47-.13-.94-.22-1.41-.09-.46-.56-.84-.67-1.3-.11-.46.09-1-.04-1.45-.13-.45-.57-.81-.72-1.26-.15-.45-.26-.9-.43-1.34-.17-.44-.24-.91-.43-1.35-.18-.43-.29-.9-.49-1.33-.2-.42-.65-.73-.86-1.15-.21-.41-.17-.97-.4-1.39-.23-.41-.53-.78-.77-1.19-.24-.4-.4-.86-.65-1.26-.25-.39-.61-.72-.88-1.12-.26-.39-.44-.84-.72-1.23-.27-.38-.57-.75-.86-1.13-.29-.39-.69-.69-1.02-1.05-.32-.36-.5-.87-.85-1.21-.35-.34-.73-.65-1.11-.97-.37-.31-.99-.3-1.38-.59-.39-.28-.61-.82-1.03-1.07-.41-.26-.81-.55-1.24-.78-.42-.23-.87-.44-1.31-.65-.44-.21-.98-.19-1.43-.37-.45-.18-.85-.49-1.31-.64-.46-.16-.97-.16-1.43-.29-.47-.13-.91-.34-1.38-.45-.47-.11-.92-.36-1.4-.44-.48-.09-.98-.03-1.46-.09-.48-.06-.98.09-1.46.06-.49-.03-.96-.24-1.44-.25-.49,0-.97.14-1.45.16-.49.02-.98-.1-1.46-.05-.49.05-.94.26-1.4.35-.48.09-.99,0-1.45.12-.47.12-.85.52-1.31.67-.46.15-1.05-.09-1.5.07-.45.16-.86.46-1.3.64-.45.17-.89.36-1.33.54-.45.17-.93.26-1.38.43-.45.17-.84.5-1.3.65-.87.29-1.3.48-2.01-.19-.54-.51-.74-.92-.71-1.24.03-.35.31-.73.28-1.35.41-.24.96-.31,1.38-.54.42-.22.84-.42,1.27-.63.43-.2.87-.34,1.31-.52.44-.18.8-.54,1.24-.71.45-.16.94-.17,1.39-.31.45-.14.83-.52,1.29-.64.46-.12.98.02,1.44-.08.46-.1.86-.51,1.33-.59.47-.08.97.08,1.44.02.47-.06.91-.39,1.39-.43.47-.04.97.29,1.44.27.47-.02.94-.05,1.41-.05s.94-.04,1.42-.02c.47.02.93.24,1.4.28.47.04.94.02,1.41.08.47.06.94.1,1.4.18.47.08.95.04,1.42.15.46.1.89.33,1.35.46.46.13.97.07,1.42.21.45.15.78.62,1.22.79.44.17.96.14,1.39.33.43.19.86.39,1.29.6.42.21.95.24,1.36.48.41.24.8.53,1.19.79.4.26.74.6,1.12.88.38.28.71.63,1.07.94.37.3.7.64,1.05.96.34.31.7.62,1.04.99.31.34.54.77.85,1.15.29.36.61.71.9,1.11.28.38.75.63,1.02,1.03.26.39.52.8.77,1.21.25.4.26.95.51,1.37.24.41.71.69.94,1.11.23.42.26.94.48,1.37.21.43.58.78.79,1.21.2.43.1,1,.29,1.44.19.44.81.7.99,1.14.18.44.22.95.39,1.39.17.45.33.9.48,1.35.16.46.1.98.24,1.43.14.46.27.92.4,1.38.13.47.48.87.59,1.33.11.48.23.95.31,1.41.09.48.26.95.32,1.41.06.49.05.99.07,1.44.02.48-.04.97-.03,1.45.01.48-.12.96-.12,1.44,0,.48-.03.96-.04,1.44-.01.48-.21.95-.24,1.42-.03.48.35.99.31,1.47-.05.48-.19.95-.26,1.43-.06.48-.4.91-.48,1.38-.08.48,0,.97-.11,1.44-.1.47-.02.99-.13,1.45-.12.47-.27.93-.4,1.39-.14.46-.36.9-.51,1.35-.16.46-.25.94-.43,1.38-.18.45-.26.94-.46,1.38-.2.44-.51.83-.73,1.26-.22.43-.58.78-.81,1.2-.24.42-.43.86-.68,1.27-.26.4-.68.69-.96,1.09-.28.39-.32.95-.62,1.33-.29.38-.59.76-.9,1.13-.31.36-.86.51-1.19.86-.33.35-.59.76-.94,1.09-.34.33-.55.82-.91,1.14-.36.31-.97.33-1.35.63-.37.3-.55.85-.94,1.13-.38.28-.76.59-1.16.86-.39.27-.89.39-1.3.64-.4.25-.83.47-1.25.71-.41.24-.77.58-1.2.81-.42.23-.91.33-1.34.55-.42.21-.88.36-1.32.57"/><path d="M100.98,72.27c.45-.01.93.15,1.47.19.47.03,1-.24,1.51-.18.48.07.97.21,1.46.31.49.09.92.45,1.4.57.49.12,1.06-.08,1.53.06.5.15.97.33,1.42.5.5.19.88.57,1.27.79.31.17.9.2,1.36.57.34.27.62.72,1,1.06.35.32.8.55,1.14.9.34.35.69.71,1,1.06.34.39.57.86.81,1.22.33.49.56.99.61,1.34.07.51.01,1.02-.16,1.34-.21.39-.7.52-1.14.63-.38.1-.84.29-1.3.16-.22-.06-.62-.51-1.1-1-.3-.3-.44-.85-.79-1.22-.32-.34-.71-.65-1.04-1-.35-.36-.74-.67-1.07-.97-.42-.39-.8-.77-1.12-.93-.44-.23-.96-.28-1.41-.46-.46-.19-.93-.29-1.4-.43-.47-.14-.88-.53-1.36-.64-.48-.1-.99-.08-1.48-.15-.49-.06-.97-.23-1.46-.25-.49-.03-.99.37-1.48.38-.49.01-.98-.11-1.47-.06-.49.04-.96.15-1.45.23-.48.08-.99.02-1.47.13-.48.11-1.01.04-1.48.18-.47.14-.8.71-1.25.89-.46.18-.96.23-1.4.44-.45.21-.9.39-1.33.62-.43.24-.85.49-1.26.76-.41.27-.75.63-1.14.93-.39.3-.86.5-1.22.82-.37.32-.69.7-1.03,1.06-.34.35-.79.61-1.1.99-.31.38-.63.73-.91,1.09-.3.38-.42.88-.7,1.25-.29.39-.7.67-.97,1.05-.28.39-.37.9-.62,1.29-.26.4-.48.81-.72,1.21-.24.41-.75.66-.97,1.08-.22.42-.17.96-.36,1.4-.19.43-.61.76-.78,1.21-.16.43-.22.92-.36,1.38-.13.44.02.96-.1,1.43-.11.44-.46.84-.55,1.32-.09.45-.04.93-.12,1.42-.07.45-.46.88-.52,1.36-.06.49.28,1,.25,1.47-.03.49.01.96,0,1.43,0,.49-.44.98-.41,1.46.03.49.13.97.19,1.45.06.48.14.97.23,1.44.1.48.35.92.47,1.38.13.47.49.85.65,1.3.17.46.37.88.57,1.31.2.44.42.85.65,1.27.23.42.37.89.63,1.29.26.4.36.93.65,1.31.29.38.62.75.94,1.11.32.36.66.72,1,1.05.35.33.74.63,1.11.94.37.31.91.39,1.3.68.39.28.56.9.97,1.15.41.25.91.37,1.33.6.42.23.97.2,1.41.4.44.2.77.63,1.22.8.45.17.9.34,1.36.49.46.14.9.38,1.37.5.46.12.94.24,1.42.33.47.09,1.02-.29,1.5-.23.48.06.93.23,1.41.26.48.03.95.12,1.43.13.48,0,.95-.2,1.43-.23.48-.02,1,.42,1.47.37.48-.05.91-.44,1.39-.52.47-.08,1,.1,1.47,0,.47-.11.87-.47,1.34-.6.46-.13.96-.16,1.41-.33.45-.16.9-.35,1.34-.54.44-.19.9-.35,1.33-.57.43-.21.77-.6,1.18-.84.41-.24.93-.32,1.33-.59.4-.26.77-.57,1.16-.87.38-.29.65-.72,1.02-1.03.36-.31.77-.57,1.12-.91.34-.33.64-.71.97-1.07.32-.35.8-.59,1.1-.97.28-.35.29-.92.54-1.33.23-.39.35-.83.55-1.26.19-.41.53-.76.7-1.2.16-.43.47-.82.6-1.27.13-.44.31-.88.41-1.34.1-.45.18-.92.26-1.38.08-.46-.23-.97-.17-1.43.06-.46.44-.89.48-1.35.04-.46.1-.93.11-1.4.02-.47-.39-.94-.39-1.4,0-.47.28-.94.26-1.4-.02-.47.02-.94-.02-1.4-.04-.47-.21-.93-.26-1.38-.06-.47-.21-.92-.29-1.36-.09-.47-.03-.96-.14-1.39-.11-.45-.23-.99-.43-1.49-.19-.48-.69-.86-.84-1.33-.16-.52-.21-1.09-.16-1.56.06-.48.31-.99.77-1.37.49-.4.93-.18,1.35-.05.4.13.66.37,1,.83.26.36.83.6,1.05,1.09.19.43.22.97.37,1.44.16.47.34.94.46,1.4.13.51.25,1,.34,1.44.12.63.24,1.16.26,1.46.04.49-.07.98-.04,1.45.03.49.25.96.27,1.43.03.49-.03.97-.02,1.44.01.49-.02.97-.02,1.44,0,.49-.19.96-.21,1.43-.01.49.03.96,0,1.43-.03.48.02.97-.04,1.44-.06.48-.23.94-.31,1.4-.08.47-.05.97-.16,1.43-.11.47-.13.96-.27,1.42-.14.46-.25.94-.43,1.38-.18.44-.63.77-.84,1.2-.21.42-.24.95-.48,1.37-.24.41-.69.69-.96,1.09-.26.39-.32.94-.62,1.33-.29.37-.8.57-1.12.94-.31.35-.51.82-.84,1.17-.32.34-.81.53-1.17.87-.34.32-.49.87-.86,1.2-.37.32-.99.33-1.37.63-.38.3-.67.71-1.06.99-.4.28-.78.57-1.19.83-.41.26-.79.58-1.21.81-.42.24-.81.56-1.24.77-.44.21-.98.19-1.43.38-.45.19-.95.2-1.41.36-.46.16-.87.42-1.34.55-.47.13-.88.49-1.35.6-.47.11-1-.08-1.48,0-.48.08-.93.34-1.41.39-.48.05-.96.21-1.44.24-.48.03-.98-.37-1.46-.37-.48,0-.98.46-1.46.43-.48-.03-.97-.09-1.46-.14-.48-.05-.94-.31-1.42-.38-.48-.08-.94-.22-1.42-.32-.47-.1-.98-.06-1.45-.19-.47-.12-.86-.5-1.32-.65-.47-.15-.99-.11-1.44-.28-.46-.17-.93-.31-1.37-.5-.45-.2-.73-.73-1.15-.94-.44-.22-.89-.37-1.31-.62-.42-.25-.79-.55-1.18-.82-.41-.27-.77-.58-1.15-.87-.39-.3-.99-.32-1.35-.64-.37-.32-.57-.81-.91-1.15-.34-.34-.85-.54-1.16-.9-.32-.37-.53-.83-.82-1.21-.29-.39-.72-.68-.99-1.08-.27-.4-.51-.83-.75-1.25-.24-.42-.53-.83-.74-1.26-.21-.43-.39-.9-.57-1.34-.18-.45-.24-.95-.4-1.41-.16-.46-.41-.89-.54-1.36-.13-.46.06-1.01-.04-1.48-.1-.47-.4-.9-.48-1.38-.08-.48-.18-.95-.23-1.43-.05-.48-.1-.97-.13-1.45-.03-.48.26-.97.26-1.46,0-.48-.32-.97-.3-1.45.02-.48.14-.96.18-1.44.04-.48.32-.93.38-1.41.06-.48.13-.95.22-1.42.09-.47-.03-.99.08-1.46.11-.47.17-.96.3-1.42.13-.46.46-.87.61-1.33.15-.46.29-.92.46-1.37.17-.45.33-.91.51-1.35.19-.45.46-.85.66-1.28.21-.44.26-.95.49-1.37.22-.43.28-.95.53-1.37.24-.42.65-.74.91-1.15.26-.41.59-.77.87-1.16.28-.39.68-.69.98-1.07.3-.38.37-.94.69-1.31.32-.36.66-.71.99-1.06.33-.35.66-.71,1.01-1.04.35-.33.71-.66,1.08-.98.37-.31.95-.36,1.33-.65.38-.29.52-.92.92-1.2.4-.27.81-.54,1.23-.79.41-.25.9-.39,1.33-.61.42-.23,1-.15,1.44-.35.44-.2.86-.4,1.31-.58.45-.18.84-.49,1.3-.64.46-.15.93-.23,1.4-.35.46-.12.88-.47,1.36-.56.47-.09,1,.13,1.48.06.48-.06.92-.4,1.41-.43.48-.04.97.13,1.46.12"/><path d="M105.91,111.39c.08.51-.08,1.05-.19,1.45-.12.46-.32.85-.64,1.18-.3.31-.67.6-1.09.82-.39.2-.85.28-1.3.41-.43.12-.84.39-1.3.47-.45.07-.94-.16-1.39-.12-.47.04-.92,0-1.36,0-.5,0-.97.33-1.36.31-.51-.02-.99-.22-1.47-.3-.49-.09-1.04,0-1.5-.15-.48-.15-.98-.3-1.43-.51-.45-.2-.77-.7-1.19-.95-.43-.25-.8-.57-1.2-.87-.4-.29-.95-.41-1.32-.74-.37-.33-.65-.76-.99-1.12-.34-.36-.55-.83-.87-1.21-.32-.38-.65-.75-.94-1.15-.29-.4-.64-.76-.91-1.18-.27-.42-.61-.79-.86-1.22-.25-.43-.64-.8-.86-1.23-.17-.33-.23-.96-.4-1.61-.13-.49-.3-1.03-.41-1.57-.11-.54.16-1.16.08-1.66-.11-.64-.27-1.18-.3-1.57-.03-.49-.29-.96-.29-1.44,0-.49,0-.98.04-1.46.04-.49.4-.93.47-1.41.07-.48,0-.98.11-1.45.11-.47.33-.91.48-1.37.15-.46.4-.87.59-1.31.19-.45.04-1.06.28-1.48.23-.43.61-.77.89-1.17.27-.4.75-.64,1.06-1.01.31-.37.46-.89.81-1.23.35-.33.88-.45,1.26-.75.38-.3.67-.7,1.08-.97.4-.26.77-.6,1.2-.82.44-.23.83-.58,1.27-.78.45-.21,1.08.02,1.53-.16.47-.18.89-.42,1.35-.56.47-.15.87-.55,1.34-.67.48-.12,1-.09,1.47-.16.49-.08.98-.1,1.46-.14.49-.04.98.11,1.47.11.5,0,.99-.23,1.47-.19.49.05,1.01-.05,1.49.04.48.09.86.62,1.33.76.47.14,1.06-.05,1.51.14.45.19.85.51,1.29.74.43.23.83.52,1.24.79.4.27.77.6,1.15.91.38.3.69.67,1.05,1.02.35.34.68.69,1,1.06.32.36.8.6,1.1,1,.29.38.37.93.64,1.35.26.4.77.67,1.03,1.1.24.42.52.83.73,1.25.21.44.02,1.04.19,1.48.18.45.36.88.5,1.33.14.46.68.81.78,1.28.1.47-.25,1.02-.19,1.49.06.48.16.93.19,1.4.02.48.21.95.19,1.43-.02.48-.26.93-.31,1.4-.05.47.17.98.08,1.46-.09.46-.33.9-.45,1.37-.12.46,0,1-.14,1.46-.15.45-.48.85-.65,1.3-.17.44-.53.81-.73,1.25-.16.35-.28.85-.52,1.31-.22.42-.54.77-.84,1.12-.34.4-.65.62-1.08.67-.59.08-.95.08-1.26-.04-.47-.18-.59-.44-.6-.93,0-.38.14-.78.3-1.25.14-.41.02-.94.21-1.36.19-.42.39-.84.58-1.22.23-.47.78-.76.89-1.08.16-.44.26-.91.39-1.35.13-.45.15-.94.24-1.39.09-.46-.06-.95,0-1.41.06-.46.1-.92.12-1.38.02-.47.04-.92.03-1.38-.02-.47.28-.96.22-1.42-.06-.46-.46-.87-.56-1.32-.1-.45-.18-.91-.32-1.35-.14-.44-.03-.99-.22-1.41-.19-.43-.67-.71-.89-1.12-.22-.4-.34-.88-.6-1.27-.26-.38-.47-.83-.77-1.18-.3-.35-.91-.41-1.25-.74-.33-.32-.52-.8-.89-1.09-.35-.29-.81-.44-1.21-.71-.43-.29-.68-.85-1.09-1.07-.45-.25-1.04-.18-1.48-.36-.47-.19-.96-.23-1.43-.34-.49-.12-.94-.28-1.43-.32-.49-.05-.97.06-1.46.08-.49.02-.97-.06-1.47.02-.48.07-.93.26-1.42.38-.47.12-.91.31-1.4.46-.46.15-1.04-.05-1.52.13-.46.16-.91.32-1.32.5-.44.2-.78.57-1.17.79-.42.23-.79.51-1.16.77-.39.27-.8.5-1.14.81-.35.31-.67.65-.97,1-.3.35-.4.84-.65,1.24-.25.38-.78.61-.99,1.04-.2.41-.45.83-.62,1.28-.16.42-.08.95-.21,1.41-.12.43-.45.84-.55,1.31-.1.48.24,1.02.2,1.51-.04.48-.14.95-.13,1.44.01.49.04.96.1,1.45.06.48-.1,1.01.01,1.49.11.47.24.96.39,1.43.15.46.61.82.8,1.26.19.45.42.87.65,1.3.23.43.48.84.75,1.24.27.41.44.88.74,1.26.31.38.75.64,1.08.99.34.35.65.72,1.02,1.04.37.32.73.64,1.13.92.41.28.81.53,1.24.76.43.23.86.45,1.32.62.46.17.89.45,1.36.56.47.11.95.36,1.44.4.48.04.99-.27,1.48-.29.48-.02,1,.17,1.49.08.43-.08.91-.15,1.34-.29.43-.15.82-.37,1.24-.5.44-.13.81-.56,1.25-.59.44-.03,1.01.09,1.45.25"/><path d="M103.87,106.85c-.32.24-.56.69-.99.96-.36.23-.76.46-1.17.69-.39.22-.76.51-1.18.71-.42.2-.93.18-1.34.34-.44.17-.85.4-1.26.51-.49.13-.94.05-1.34.07-.34,0-.83-.03-1.34-.1-.51-.08-1.02-.1-1.32-.24-.16-.07-.9-.36-1.49-.86-.59-.51-1.21-1.09-1.28-1.23-.2-.43.02-1.21.41-1.67.39-.48,1.09-.86,1.45-.9.34-.03.53.52.84.8.29.26.71.42.99.57.45.24.93.44,1.42.5.48.06,1.03.17,1.54.09.48-.08.92-.43,1.4-.62.45-.18,1-.23,1.44-.49.43-.25.72-.73,1.11-1.04.39-.31.7-.7,1.05-1.05.36-.36.92-.54,1.21-.93.31-.41.51-.91.73-1.33.25-.47.22-1.01.34-1.46.11-.45.12-.88.18-1.33.06-.46.3-.89.29-1.33,0-.46.06-.93-.02-1.37-.08-.45-.55-.78-.71-1.2-.16-.43.02-1.02-.22-1.4-.24-.38-.58-.73-.91-1.05-.31-.31-.75-.52-1.14-.77-.37-.23-.82-.33-1.26-.5-.44-.17-.86-.34-1.31-.4-.46-.06-.9.11-1.35.16s-.95-.09-1.39.05c-.43.14-.72.6-1.13.83-.4.22-.77.44-1.14.71-.37.28-.97.29-1.29.61-.33.33-.62.71-.9,1.07-.55.71-.58,1.23-.71,1.64-.14.46-.05.94-.27,1.77-.15.58-.68,1.09-1.14,1.19-.46.11-1.11-.14-1.54-.42-.4-.26-.89-.73-.99-1.25-.08-.44.04-.96.12-1.43.07-.43.12-.94.3-1.38.17-.41.51-.78.76-1.18.24-.38.57-.72.86-1.08.28-.36.46-.83.77-1.16.32-.33.77-.55,1.11-.85.36-.31.72-.61,1.08-.86.4-.29.79-.56,1.16-.75.43-.23.96-.18,1.39-.35.45-.18.8-.63,1.24-.75.47-.12.97-.07,1.42-.13.48-.06.95.13,1.41.13.48,0,.92.02,1.38.09.47.08.95.04,1.39.19.45.15.95.2,1.36.41.42.22.85.45,1.23.73.38.28.81.54,1.15.87.34.33.49.84.78,1.21.29.37.46.81.7,1.22.23.4.42.82.6,1.26.18.43.65.78.77,1.24.12.45.19.95.25,1.41.06.46-.16.96-.17,1.43,0,.46-.25.9-.32,1.37-.07.46.26,1,.13,1.46-.12.45-.32.9-.51,1.34-.18.42-.69.69-.93,1.11-.23.4-.39.84-.67,1.22-.27.37-.64.66-.96,1.01-.31.34-.57.72-.93,1.05-.34.31-.75.53-1.14.82"/></svg>