<?xml version="1.0" encoding="UTF-8"?><svg id="Layer_1" xmlns="http://www.w3.org/2000/svg" viewBox="0 0 200 200"><path d="M106.56,53.21c.45.56.26,1.23.05,1.62-.22.41-.7.73-1.27.85-.5.11-1.12.21-1.61.02-.46-.18-.74-.81-1.23-1.13-.43-.29-1.02-.39-1.44-.76-.4-.35-.67-.84-1.04-1.24-.37-.4-.85-.7-1.17-1.13-.33-.45-.38-1.05-.63-1.5-.27-.51-.51-1.09-.64-1.57-.2-.2-.41.02-.67.15-.22.55-.59.9-.92,1.35-.34.47-.66.95-1.08,1.34-.42.39-.75.92-1.22,1.26-.46.34-1.19.29-1.67.62-.48.32-.92.69-1.39,1.01-.47.33-.93.7-1.37,1.05-.49.4-.86.82-1.23,1.15-.46.41-.67.91-.99,1.34-.31.43-.93.71-1.13,1.29-.16.46-.29,1.03-.41,1.66-.08.4.28,1.03.21,1.71-.05.51-.08,1.07-.12,1.66-.04.54-.51,1.08-.53,1.65-.02.57.19,1.14.19,1.68,0,.6-.2,1.17-.17,1.68.03.69.19,1.28.27,1.67.11.48.4,1.11.92,1.58.4.35.91.74,1.45,1.08.48.3,1.19.28,1.73.56.52.28.99.69,1.51.95.56.28,1.22.3,1.71.55.61.32,1.05.81,1.43,1.08.44.31.94.54,1.3.88.39.36.67.84.98,1.23.33.41.56.88.82,1.33.26.45.58.88.77,1.36.19.48.1,1.05.24,1.55.13.49.38.96.46,1.48.08.5.37.99.42,1.52.05.51-.23,1.05-.21,1.58.02.5.28,1.02.25,1.54-.03.51-.35,1-.39,1.52-.05.51.19,1.05.14,1.56-.04.52-.42,1.02-.43,1.52-.01.53.5,1.01.56,1.51.07.57-.25,1.22,0,1.68.26.46.92.65,1.33,1.03.38.35.58.99,1.05,1.29.44.28,1.16.09,1.66.34.48.23.82.78,1.32.99.5.21.98.47,1.47.68.51.21,1.15.1,1.63.33.51.24.98.54,1.42.81.49.29.92.66,1.29,1,.41.37.67.9,1.01,1.4.31.45.5.99.76,1.52.25.5.74.91.95,1.46.2.53.11,1.16.27,1.72.16.54.24,1.11.37,1.67.13.56.46,1.07.57,1.63.1.57.17,1.14.25,1.7.08.58,0,1.17.07,1.72.06.59.19,1.16.23,1.7.05.61.01,1.19.03,1.71.02.54.06,1.06.06,1.58,0,.54.02,1.07.02,1.58,0,.54.1,1.07.1,1.58,0,.54-.2,1.08-.17,1.59.03.54.34,1.04.41,1.55.07.53.02,1.08.17,1.58.14.5.33,1.01.57,1.49.23.45.64.82.97,1.26.3.4.81.61,1.21,1,.36.34.59.85,1.04,1.18.4.3.68.83,1.16,1.13.55.34,1.31.13,1.81.34.58.24.97.86,1.52,1.01.56.16,1.14.23,1.72.39.54.16,1.01.49,1.59.73.89.37,1.34.61,1.27,1.18-.06.53-.46,1.13-.86,1.78-.55-.03-1.11-.03-1.65-.11-.54-.08-1.08-.21-1.61-.34-.53-.13-1.12-.11-1.64-.28-.52-.17-1.06-.34-1.56-.55-.5-.22-.8-.86-1.28-1.12-.48-.26-.98-.47-1.43-.77-.46-.3-.86-.66-1.28-1-.43-.34-1.14-.38-1.53-.76-.39-.38-.48-1.06-.83-1.47-.35-.42-.71-.82-1.01-1.28-.3-.45-.68-.63-.93-1.12-.38.41-.72.59-1.16.92-.44.34-.84.76-1.32,1.05-.47.29-1.14.25-1.62.52-.49.26-.78.87-1.27,1.15-.48.27-1.14.26-1.6.57-.46.31-1,.51-1.42.84-.44.33-.75.83-1.15,1.19-.41.36-.78.77-1.15,1.16-.38.39-.7.84-1.03,1.26-.34.43-.54.93-.83,1.4-.28.46-.53.92-.76,1.42-.22.49-.71.88-.88,1.41-.16.51.1,1.13-.01,1.68-.11.54-.24,1.07-.32,1.62-.08.55-.11,1.09-.17,1.64-.06.55-.11,1.09-.15,1.65-.04.55-.62,1.07-.64,1.63-.03.55-.01,1.11-.03,1.67-.01.55.39,1.12.39,1.67,0,.55-.12,1.11-.12,1.66,0,.55-.21,1.11-.21,1.66s.34,1.11.34,1.67c0,.56-.03,1.11-.04,1.67,0,.56-.48,1.1-.5,1.65-.02.56-.02,1.1-.05,1.66-.03.56.08,1.11.03,1.66-.05.55-.13.88-.21,1.43-.78.45-.67.87-1.57.97-.49-.25-.67-.91-.84-1.35-.18-.43-.14-.9-.18-1.39-.05-.54-.13-1.08-.16-1.63-.03-.54-.3-1.08-.31-1.63,0-.54.23-1.09.23-1.64,0-.55-.04-1.09-.02-1.64.01-.55-.14-1.1-.12-1.65.02-.55.3-1.09.33-1.63.03-.55-.26-1.12-.23-1.67.03-.55-.04-1.1-.01-1.65.03-.55.44-1.08.47-1.62.03-.58-.1-1.15-.06-1.69.04-.58.05-1.15.09-1.69.05-.58-.01-1.16.05-1.7.07-.57.6-1.06.69-1.6.1-.57-.26-1.21-.13-1.75.14-.55.74-.95.93-1.47.19-.53.39-1.02.64-1.53.24-.5.28-1.1.59-1.58.29-.46.5-1.01.86-1.46.34-.42.68-.89,1.08-1.32.37-.39.82-.75,1.25-1.15.4-.37,1.1-.41,1.55-.78.48-.39.91-.74,1.37-1.05.51-.34.91-.79,1.39-1.06.53-.3.93-.78,1.42-1.05.52-.29,1.19-.31,1.65-.63.48-.33,1.03-.62,1.44-1.05.38-.4.55-1.02.85-1.56.26-.46.65-.94.85-1.55.16-.51-.08-1.16.03-1.79.08-.46.57-.95.61-1.55.04-.5.12-1.05.13-1.63,0-.52-.37-1.06-.39-1.62-.01-.53.17-1.08.14-1.63-.03-.53-.27-1.06-.32-1.6-.05-.54-.21-1.06-.27-1.6-.07-.54.11-1.11.03-1.64-.08-.55-.06-1.11-.16-1.63-.11-.55-.42-1.04-.55-1.55-.14-.56-.17-1.12-.33-1.6-.19-.57-.45-1.06-.66-1.48-.25-.48-.62-.86-.98-1.24-.36-.38-.58-.97-1.02-1.27-.43-.29-1.16-.1-1.64-.34-.46-.24-.84-.66-1.33-.88-.48-.21-1.02-.29-1.51-.49-.49-.2-.91-.58-1.39-.79-.49-.22-1.1-.21-1.55-.47-.47-.26-.8-.76-1.21-1.08-.42-.33-.8-.81-1.13-1.22-.3.4-.81.75-1.09,1.15-.29.4-.18,1.08-.47,1.47-.29.38-.97.45-1.3.81-.32.35-.39.96-.77,1.29-.24.21-.75.57-1.38,1.04-.42.3-.87.69-1.37,1.05-.46.32-1.13.37-1.61.7-.49.33-.75.99-1.22,1.29-.53.34-1.07.6-1.51.85-.73.41-1.38.51-1.64.51-.3,0-1.15-.13-1.63-.6-.49-.48-.45-1.1.02-1.48.41-.35.86-.65,1.32-.98.44-.32.88-.64,1.35-.96.45-.3.69-.96,1.15-1.26.46-.3,1.16-.26,1.62-.57.46-.31.92-.63,1.37-.96.45-.33.91-.68,1.32-1.03.42-.37.73-.88,1.1-1.28.38-.41.42-1.06.72-1.52.31-.46.89-.75,1.1-1.27.18-.45.28-1.01.42-1.62.12-.5-.06-1.1.03-1.68.08-.53.45-1.04.5-1.61.05-.54.03-1.1.05-1.67.03-.55-.05-1.11-.05-1.67,0-.56.25-1.12.24-1.68-.02-.57-.37-1.11-.42-1.65-.05-.58.16-1.16.08-1.69-.09-.59-.26-1.13-.38-1.63-.15-.6-.21-1.2-.41-1.64-.22-.47-.59-.9-.97-1.29-.35-.35-.72-.79-1.17-1.09-.42-.28-1.09-.19-1.57-.45-.45-.24-.81-.68-1.29-.92-.47-.23-.98-.38-1.45-.61-.47-.23-.79-.76-1.25-1-.47-.26-1.21-.06-1.63-.34-.45-.3-.83-.73-1.19-1.08-.39-.37-.64-.72-.89-1.17-.14.35-.32.69-.74,1.23-.29.38-.57.87-.96,1.3-.34.38-1.02.49-1.41.88-.37.37-.76.73-1.16,1.1-.4.37-.73.8-1.14,1.13-.43.36-.77.81-1.18,1.1-.48.34-.84.85-1.26,1.07-.62.32-1.26.18-1.63.11-.29-.06-1.74-1.27-1.71-1.63.03-.34.76-.59,1.32-1.07.38-.32.72-.77,1.19-1.1.45-.32.73-.91,1.14-1.2.54-.38,1.33-.34,1.6-.6.33-.31.53-.95.96-1.46.34-.41.79-.8,1.14-1.29.34-.46.67-.94.98-1.42.33-.51.52-1.07.76-1.55.3-.6.49-1.14.56-1.59.08-.52.21-1.08.17-1.65-.04-.57-.44-1.16-.37-1.66.07-.52.53-1.09.64-1.73.1-.58-.08-1.25.03-1.83.12-.63.17-1.25.28-1.79.11-.55.7-.95.86-1.43.18-.53.24-1.05.48-1.51.25-.49.52-.93.83-1.35.32-.43.48-1.01.85-1.38.38-.38.84-.69,1.25-1.02.41-.34.91-.57,1.34-.87.43-.31.94-.52,1.37-.82.44-.3.79-.73,1.22-1.04.43-.31,1.06-.38,1.46-.73.4-.34.74-.79,1.11-1.18.36-.38.62-.87.92-1.32.29-.43.75-.81.97-1.31.23-.5.38-1.03.53-1.5.17-.52-.09-1.13,0-1.62.1-.53.21-1.02.25-1.53.04-.53.38-1.04.38-1.56,0-.53-.26-1.04-.29-1.56-.03-.52-.17-1.03-.21-1.55-.04-.52.33-1.05.32-1.58-.01-.51-.52-1.04-.49-1.57.03-.51.61-.97.69-1.5.12-.74.11-1.42.53-1.69.53-.34,1.27-.19,1.78.19.41.3.66.83.75,1.57.07.54.27,1.08.3,1.65.02.54.04,1.1.04,1.67,0,.55-.17,1.1-.18,1.67-.01.55,0,1.11,0,1.67-.01.56-.19,1.11-.19,1.67,0,.56.33,1.11.35,1.67.02.56.05,1.11.11,1.66.06.56-.12,1.15-.01,1.69.11.55.17,1.14.35,1.66.18.53.53,1.02.79,1.51.26.49.5,1.03.85,1.47.34.42.87.72,1.31,1.09.3.25.66.64,1.11.91.4.24,1.05.12,1.44.37.45.29.93.61,1.18.91"/></svg>