<?xml version="1.0" encoding="UTF-8"?><svg id="Layer_1" xmlns="http://www.w3.org/2000/svg" viewBox="0 0 200 200"><path d="M130.68,100.14c0-.55.12-1.08.09-1.62-.03-.55.1-1.1.05-1.64-.06-.54.01-1.11-.07-1.64-.08-.54-.13-1.1-.24-1.63-.11-.54-.4-1.04-.54-1.56-.14-.53-.29-1.05-.46-1.57-.17-.52-.32-1.05-.52-1.55-.2-.51-.57-.94-.79-1.44-.22-.5-.49-.97-.74-1.45-.25-.49-.59-.91-.86-1.38-.27-.47-.35-1.06-.65-1.51-.3-.46-.49-.99-.81-1.43-.32-.44-.79-.77-1.13-1.19-.34-.42-.86-.69-1.22-1.09-.36-.4-.65-.87-1.04-1.26-.38-.38-.6-.95-1.01-1.31-.4-.36-.87-.66-1.3-1-.42-.34-.78-.78-1.22-1.1-.44-.32-1.06-.37-1.52-.67-.45-.3-.83-.72-1.3-.99-.47-.27-1.01-.41-1.5-.66-.48-.25-.85-.75-1.35-.97-.5-.22-1.14-.09-1.65-.28-.51-.19-.95-.55-1.47-.71-.52-.17-1.07-.2-1.6-.34-.52-.14-1.01-.42-1.55-.53-.53-.11-1.06-.28-1.6-.36-.54-.08-1.09-.05-1.63-.1-.54-.06-1.09.02-1.63,0-.54-.03-1.08-.06-1.63-.06s-1.09,0-1.63.02c-.55.03-1.11-.16-1.65-.1-.54.06-1.08.22-1.61.3-.54.09-1.09.12-1.62.23-.53.11-1.02.43-1.54.57-.53.14-1.05.29-1.56.46-.52.17-1.04.31-1.55.51-.51.2-1.01.41-1.5.63-.5.22-1.08.27-1.56.52-.48.25-.83.75-1.3,1.03-.47.27-.99.46-1.44.76-.46.3-.84.69-1.28,1.01-.44.32-1.05.42-1.47.76-.42.34-.8.75-1.2,1.11-.4.36-.9.64-1.29,1.03-.38.38-.66.88-1.02,1.29s-.73.82-1.07,1.24c-.34.42-.47,1.01-.79,1.45-.32.44-.77.79-1.07,1.24-.3.45-.39,1.03-.66,1.5-.27.47-.91.75-1.16,1.23-.25.48-.02,1.19-.24,1.69-.22.5-.82.83-1.01,1.34-.19.51-.13,1.11-.3,1.62-.17.51-.23,1.05-.37,1.58-.14.52-.64.96-.75,1.5-.11.53.02,1.11-.07,1.65-.08.53-.4,1.05-.46,1.59-.06.54,0,1.1-.03,1.64-.03.54-.1,1.09-.1,1.64s.16,1.09.19,1.63c.03.55-.14,1.11-.08,1.65.06.54.14,1.09.23,1.63.08.54.36,1.05.47,1.58.11.53.46,1.01.6,1.53.14.53.19,1.07.36,1.59.17.52.4,1.01.6,1.51.2.51.37,1.02.59,1.52.22.5.13,1.15.38,1.63.25.48.82.8,1.09,1.27.27.47.39,1.04.68,1.5.3.46.56.94.88,1.38.32.44.75.8,1.09,1.23.34.42.59.94.95,1.34.36.4.86.7,1.24,1.08s.78.76,1.18,1.13c.4.36.83.71,1.25,1.05.42.34.93.57,1.37.89.44.32.93.56,1.38.86.45.3.72.91,1.19,1.18.47.27,1.04.37,1.53.62.48.25,1.03.35,1.53.58.5.22,1.01.39,1.51.59.51.19.9.71,1.42.88.51.17,1.06.28,1.59.42.52.14,1.04.36,1.57.48.53.11,1.09.13,1.63.21.54.08,1.12-.19,1.66-.14.54.06,1.06.41,1.6.43.54.03,1.09.07,1.64.07s1.1-.08,1.64-.11c.55-.03,1.07-.31,1.61-.36.54-.06,1.09-.02,1.63-.11.54-.08,1.14.12,1.67.01.53-.11.96-.67,1.49-.81.53-.14,1.03-.31,1.55-.48.52-.17,1.16,0,1.66-.19.51-.2,1.03-.38,1.53-.6.5-.22.99-.49,1.47-.73.49-.25.75-.9,1.22-1.18.47-.27,1.08-.31,1.54-.6.46-.3.77-.79,1.21-1.11.44-.32.89-.61,1.31-.95.42-.34.8-.73,1.2-1.09.4-.36.79-.73,1.18-1.11.38-.38,1.05-.51,1.41-.91.36-.4.47-1.03.81-1.46.34-.42.57-.92.89-1.36.32-.44.92-.68,1.22-1.14.3-.45.39-1.04.66-1.51.27-.47.38-1.02.63-1.5.25-.48.5-.95.72-1.45.22-.5.63-.91.83-1.41.19-.51.5-.98.67-1.5.17-.52.19-1.08.33-1.61.14-.52.48-1.01.59-1.54.11-.53.03-1.1.12-1.64.08-.54.08-1.08.13-1.62.06-.54.21-1.07.24-1.62.03-.54-.24-1.08-.24-1.63M135.05,100.07c0,.54-.14,1.08-.17,1.62-.02.54-.23,1.06-.28,1.6-.05.54-.25,1.05-.32,1.58-.07.54-.22,1.05-.31,1.57-.1.53-.05,1.08-.17,1.6-.12.52-.26,1.04-.41,1.56-.15.52-.33,1.02-.5,1.53-.17.51-.18,1.08-.38,1.58-.19.5-.37,1.02-.58,1.51-.22.49-.36,1.03-.6,1.51-.24.48-.71.85-.97,1.32-.26.47-.65.86-.93,1.31-.28.46-.43,1-.73,1.44-.3.44-.44,1.01-.77,1.44-.32.43-.75.79-1.09,1.2-.34.41-.89.65-1.25,1.05-.36.4-.67.84-1.05,1.22-.38.38-.85.66-1.25,1.02-.4.36-.6.95-1.01,1.29-.41.34-.93.55-1.36.88-.43.32-.78.75-1.23,1.06-.44.3-1.05.35-1.51.63-.46.28-.73.88-1.2,1.14-.47.26-1.03.35-1.51.59-.48.24-.92.58-1.41.8-.49.22-1.05.28-1.55.47-.5.19-1.02.31-1.54.48-.51.17-.99.43-1.5.58-.51.15-1.01.4-1.53.52-.52.12-1.05.22-1.58.32-.53.1-1.06.17-1.6.24-.53.07-1.09-.09-1.62-.05-.53.05-1.06.18-1.6.2-.54.02-1.07-.03-1.61-.03s-1.08.18-1.62.16c-.54-.02-1.08-.06-1.61-.11-.54-.05-1.07-.15-1.6-.22-.54-.07-1.07-.15-1.6-.25-.53-.1-1.01-.41-1.53-.53-.52-.12-1.11.01-1.63-.13-.52-.15-1-.41-1.51-.58-.51-.17-1.05-.26-1.55-.45-.5-.2-.88-.67-1.37-.89-.49-.22-1-.39-1.48-.63-.48-.24-.88-.61-1.35-.87-.47-.26-1-.41-1.45-.69-.46-.28-.9-.58-1.34-.88-.44-.3-1.03-.41-1.46-.74-.43-.32-.74-.8-1.15-1.14-.41-.34-.97-.53-1.36-.89-.4-.36-.49-1.04-.87-1.42-.38-.38-1.12-.41-1.48-.81s-.4-1.08-.74-1.49c-.34-.41-.88-.67-1.2-1.1-.32-.43-.71-.82-1.02-1.26s-.28-1.1-.56-1.56c-.28-.46-.75-.8-1.02-1.27-.26-.47-.29-1.06-.53-1.54-.24-.48-.55-.92-.77-1.41-.22-.49-.37-1-.56-1.5-.19-.5-.51-.95-.68-1.46-.17-.51-.13-1.08-.27-1.6-.15-.51-.29-1.02-.42-1.55-.12-.52-.41-1-.5-1.53-.1-.53-.41-1.02-.48-1.56-.07-.53-.03-1.08-.08-1.62-.05-.53-.14-1.07-.17-1.61-.02-.53,0-1.08,0-1.62s.37-1.07.4-1.6c.02-.54-.29-1.09-.24-1.63.05-.54.31-1.05.38-1.58.07-.53.22-1.05.31-1.57.1-.53.09-1.07.21-1.6.12-.52.4-1,.55-1.52.15-.52.16-1.07.33-1.58.17-.51.35-1.01.55-1.51.2-.5.39-1,.61-1.49.22-.49.33-1.04.57-1.51.24-.48.43-1,.69-1.47.26-.47.86-.74,1.15-1.19.28-.46.42-1,.72-1.44.3-.44.51-.96.83-1.39s.63-.88.98-1.29c.34-.41.96-.58,1.33-.98.36-.4.69-.81,1.07-1.19.38-.38.83-.68,1.22-1.04.4-.36.74-.77,1.15-1.12.41-.34.62-.95,1.05-1.27.43-.32,1.04-.39,1.49-.69.44-.3.9-.57,1.36-.85.45-.28.88-.61,1.35-.87.47-.26.83-.72,1.32-.96.48-.24,1.01-.38,1.5-.59.49-.22,1.1-.13,1.6-.33.5-.19.85-.79,1.36-.96.51-.17,1.02-.35,1.54-.5.52-.15,1.13.09,1.65-.04.52-.12,1.04-.2,1.57-.3.53-.1,1.04-.21,1.58-.28.53-.07,1.01-.58,1.55-.63.53-.05,1.09.2,1.63.18.54-.02,1.07-.26,1.61-.26s1.08.06,1.62.08c.54.02,1.09.01,1.62.06.54.05,1.08.12,1.61.19.53.07,1,.55,1.53.65.53.1,1.12-.11,1.64,0,.52.12,1.08.14,1.6.29.52.15.93.65,1.44.82.51.17,1.09.14,1.59.34.5.2,1.07.25,1.56.47.49.22.98.47,1.46.71.48.24.86.69,1.33.95.47.26.86.65,1.32.93.46.28.98.46,1.42.76.44.3.75.79,1.18,1.12.43.32.96.51,1.37.85.41.34.87.64,1.27,1,.4.36.71.81,1.09,1.19.38.38.57.93.93,1.33.36.4,1.03.52,1.37.94.34.41.35,1.09.68,1.52.32.43.89.68,1.19,1.12.3.44.59.9.88,1.35.28.46.48.96.74,1.43.26.47.73.83.97,1.31.24.48.19,1.1.41,1.59.22.49.42.98.61,1.49.19.5.48.97.65,1.48.17.51.15,1.07.3,1.59.15.51.62.95.74,1.47.12.52-.02,1.1.07,1.63.1.53.51,1.01.59,1.54.07.53.04,1.08.09,1.62.05.53-.02,1.08,0,1.62.02.53.26,1.07.26,1.61"/><path d="M130.68,100.14c0-.55.12-1.08.09-1.62-.03-.55.1-1.1.05-1.64-.06-.54.01-1.11-.07-1.64-.08-.54-.13-1.1-.24-1.63-.11-.54-.4-1.04-.54-1.56-.14-.53-.29-1.05-.46-1.57-.17-.52-.32-1.05-.52-1.55-.2-.51-.57-.94-.79-1.44-.22-.5-.49-.97-.74-1.45-.25-.49-.59-.91-.86-1.38-.27-.47-.35-1.06-.65-1.51-.3-.46-.49-.99-.81-1.43-.32-.44-.79-.77-1.13-1.19-.34-.42-.86-.69-1.22-1.09-.36-.4-.65-.87-1.04-1.26-.38-.38-.6-.95-1.01-1.31-.4-.36-.87-.66-1.3-1-.42-.34-.78-.78-1.22-1.1-.44-.32-1.06-.37-1.52-.67-.45-.3-.83-.72-1.3-.99-.47-.27-1.01-.41-1.5-.66-.48-.25-.85-.75-1.35-.97-.5-.22-1.14-.09-1.65-.28-.51-.19-.95-.55-1.47-.71-.52-.17-1.07-.2-1.6-.34-.52-.14-1.01-.42-1.55-.53-.53-.11-1.06-.28-1.6-.36-.54-.08-1.09-.05-1.63-.1-.54-.06-1.09.02-1.63,0-.54-.03-1.08-.06-1.63-.06s-1.09,0-1.63.02c-.55.03-1.11-.16-1.65-.1-.54.06-1.08.22-1.61.3-.54.09-1.09.12-1.62.23-.53.11-1.02.43-1.54.57-.53.14-1.05.29-1.56.46-.52.17-1.04.31-1.55.51-.51.2-1.01.41-1.5.63-.5.22-1.08.27-1.56.52-.48.25-.83.75-1.3,1.03-.47.27-.99.46-1.44.76-.46.3-.84.69-1.28,1.01-.44.32-1.05.42-1.47.76-.42.34-.8.75-1.2,1.11-.4.36-.9.64-1.29,1.03-.38.38-.66.88-1.02,1.29s-.73.82-1.07,1.24c-.34.42-.47,1.01-.79,1.45-.32.44-.77.79-1.07,1.24-.3.45-.39,1.03-.66,1.5-.27.47-.91.75-1.16,1.23-.25.48-.02,1.19-.24,1.69-.22.5-.82.83-1.01,1.34-.19.51-.13,1.11-.3,1.62-.17.51-.23,1.05-.37,1.58-.14.52-.64.96-.75,1.5-.11.53.02,1.11-.07,1.65-.08.53-.4,1.05-.46,1.59-.06.54,0,1.1-.03,1.64-.03.54-.1,1.09-.1,1.64s.16,1.09.19,1.63c.03.55-.14,1.11-.08,1.65.06.54.14,1.09.23,1.63.08.54.36,1.05.47,1.58.11.53.46,1.01.6,1.53.14.53.19,1.07.36,1.59.17.52.4,1.01.6,1.51.2.51.37,1.02.59,1.52.22.5.13,1.15.38,1.63.25.48.82.8,1.09,1.27.27.47.39,1.04.68,1.5.3.46.56.94.88,1.38.32.44.75.8,1.09,1.23.34.42.59.94.95,1.34.36.4.86.7,1.24,1.08s.78.76,1.18,1.13c.4.36.83.71,1.25,1.05.42.34.93.57,1.37.89.44.32.93.56,1.38.86.45.3.72.91,1.19,1.18.47.27,1.04.37,1.53.62.48.25,1.03.35,1.53.58.5.22,1.01.39,1.51.59.51.19.9.71,1.42.88.51.17,1.06.28,1.59.42.52.14,1.04.36,1.57.48.53.11,1.09.13,1.63.21.54.08,1.12-.19,1.66-.14.54.06,1.06.41,1.6.43.54.03,1.09.07,1.64.07s1.1-.08,1.64-.11c.55-.03,1.07-.31,1.61-.36.54-.06,1.09-.02,1.63-.11.54-.08,1.14.12,1.67.01.53-.11.96-.67,1.49-.81.53-.14,1.03-.31,1.55-.48.52-.17,1.16,0,1.66-.19.51-.2,1.03-.38,1.53-.6.5-.22.99-.49,1.47-.73.49-.25.75-.9,1.22-1.18.47-.27,1.08-.31,1.54-.6.46-.3.77-.79,1.21-1.11.44-.32.89-.61,1.31-.95.42-.34.8-.73,1.2-1.09.4-.36.79-.73,1.18-1.11.38-.38,1.05-.51,1.41-.91.36-.4.47-1.03.81-1.46.34-.42.57-.92.89-1.36.32-.44.92-.68,1.22-1.14.3-.45.39-1.04.66-1.51.27-.47.38-1.02.63-1.5.25-.48.5-.95.72-1.45.22-.5.63-.91.83-1.41.19-.51.5-.98.67-1.5.17-.52.19-1.08.33-1.61.14-.52.48-1.01.59-1.54.11-.53.03-1.1.12-1.64.08-.54.08-1.08.13-1.62.06-.54.21-1.07.24-1.62.03-.54-.24-1.08-.24-1.63M135.05,100.07c0,.54-.14,1.08-.17,1.62-.02.54-.23,1.06-.28,1.6-.05.54-.25,1.05-.32,1.58-.07.54-.22,1.05-.31,1.57-.1.53-.05,1.08-.17,1.6-.12.52-.26,1.04-.41,1.56-.15.52-.33,1.02-.5,1.53-.17.51-.18,1.08-.38,1.58-.19.5-.37,1.02-.58,1.51-.22.49-.36,1.03-.6,1.51-.24.48-.71.85-.97,1.32-.26.47-.65.86-.93,1.31-.28.46-.43,1-.73,1.44-.3.44-.44,1.01-.77,1.44-.32.43-.75.79-1.09,1.2-.34.41-.89.65-1.25,1.05-.36.4-.67.84-1.05,1.22-.38.38-.85.66-1.25,1.02-.4.36-.6.95-1.01,1.29-.41.34-.93.55-1.36.88-.43.32-.78.75-1.23,1.06-.44.3-1.05.35-1.51.63-.46.28-.73.88-1.2,1.14-.47.26-1.03.35-1.51.59-.48.24-.92.58-1.41.8-.49.22-1.05.28-1.55.47-.5.19-1.02.31-1.54.48-.51.17-.99.43-1.5.58-.51.15-1.01.4-1.53.52-.52.12-1.05.22-1.58.32-.53.1-1.06.17-1.6.24-.53.07-1.09-.09-1.62-.05-.53.05-1.06.18-1.6.2-.54.02-1.07-.03-1.61-.03s-1.08.18-1.62.16c-.54-.02-1.08-.06-1.61-.11-.54-.05-1.07-.15-1.6-.22-.54-.07-1.07-.15-1.6-.25-.53-.1-1.01-.41-1.53-.53-.52-.12-1.11.01-1.63-.13-.52-.15-1-.41-1.51-.58-.51-.17-1.05-.26-1.55-.45-.5-.2-.88-.67-1.37-.89-.49-.22-1-.39-1.48-.63-.48-.24-.88-.61-1.35-.87-.47-.26-1-.41-1.45-.69-.46-.28-.9-.58-1.34-.88-.44-.3-1.03-.41-1.46-.74-.43-.32-.74-.8-1.15-1.14-.41-.34-.97-.53-1.36-.89-.4-.36-.49-1.04-.87-1.42-.38-.38-1.12-.41-1.48-.81s-.4-1.08-.74-1.49c-.34-.41-.88-.67-1.2-1.1-.32-.43-.71-.82-1.02-1.26s-.28-1.1-.56-1.56c-.28-.46-.75-.8-1.02-1.27-.26-.47-.29-1.06-.53-1.54-.24-.48-.55-.92-.77-1.41-.22-.49-.37-1-.56-1.5-.19-.5-.51-.95-.68-1.46-.17-.51-.13-1.08-.27-1.6-.15-.51-.29-1.02-.42-1.55-.12-.52-.41-1-.5-1.53-.1-.53-.41-1.02-.48-1.56-.07-.53-.03-1.08-.08-1.62-.05-.53-.14-1.07-.17-1.61-.02-.53,0-1.08,0-1.62s.37-1.07.4-1.6c.02-.54-.29-1.09-.24-1.63.05-.54.31-1.05.38-1.58.07-.53.22-1.05.31-1.57.1-.53.09-1.07.21-1.6.12-.52.4-1,.55-1.52.15-.52.16-1.07.33-1.58.17-.51.35-1.01.55-1.51.2-.5.39-1,.61-1.49.22-.49.33-1.04.57-1.51.24-.48.43-1,.69-1.47.26-.47.86-.74,1.15-1.19.28-.46.42-1,.72-1.44.3-.44.51-.96.83-1.39s.63-.88.98-1.29c.34-.41.96-.58,1.33-.98.36-.4.69-.81,1.07-1.19.38-.38.83-.68,1.22-1.04.4-.36.74-.77,1.15-1.12.41-.34.62-.95,1.05-1.27.43-.32,1.04-.39,1.49-.69.44-.3.9-.57,1.36-.85.45-.28.88-.61,1.35-.87.47-.26.83-.72,1.32-.96.48-.24,1.01-.38,1.5-.59.49-.22,1.1-.13,1.6-.33.5-.19.85-.79,1.36-.96.51-.17,1.02-.35,1.54-.5.52-.15,1.13.09,1.65-.04.52-.12,1.04-.2,1.57-.3.53-.1,1.04-.21,1.58-.28.53-.07,1.01-.58,1.55-.63.53-.05,1.09.2,1.63.18.54-.02,1.07-.26,1.61-.26s1.08.06,1.62.08c.54.02,1.09.01,1.62.06.54.05,1.08.12,1.61.19.53.07,1,.55,1.53.65.53.1,1.12-.11,1.64,0,.52.12,1.08.14,1.6.29.52.15.93.65,1.44.82.51.17,1.09.14,1.59.34.5.2,1.07.25,1.56.47.49.22.98.47,1.46.71.48.24.86.69,1.33.95.47.26.86.65,1.32.93.46.28.98.46,1.42.76.44.3.75.79,1.18,1.12.43.32.96.51,1.37.85.41.34.87.64,1.27,1,.4.36.71.81,1.09,1.19.38.38.57.93.93,1.33.36.4,1.03.52,1.37.94.34.41.35,1.09.68,1.52.32.43.89.68,1.19,1.12.3.44.59.9.88,1.35.28.46.48.96.74,1.43.26.47.73.83.97,1.31.24.48.19,1.1.41,1.59.22.49.42.98.61,1.49.19.5.48.97.65,1.48.17.51.15,1.07.3,1.59.15.51.62.95.74,1.47.12.52-.02,1.1.07,1.63.1.53.51,1.01.59,1.54.07.53.04,1.08.09,1.62.05.53-.02,1.08,0,1.62.02.53.26,1.07.26,1.61"/><path d="M98.98,98.26c.63,0,1.04.03,1.41.34.41.34.57.77.68,1.31.11.52.38,1.07.21,1.59-.17.51-.55.96-.98,1.31-.39.31-.9.48-1.5.53-.47.04-.96-.13-1.55-.32-.6-.19-.93-.46-1.19-.84-.31-.44-.46-.87-.39-1.41.07-.5.11-1.08.45-1.52.31-.4.84-.64,1.34-.87.45-.21.95-.12,1.52-.11"/><path d="M98.98,98.26c.63,0,1.04.03,1.41.34.41.34.57.77.68,1.31.11.52.38,1.07.21,1.59-.17.51-.55.96-.98,1.31-.39.31-.9.48-1.5.53-.47.04-.96-.13-1.55-.32-.6-.19-.93-.46-1.19-.84-.31-.44-.46-.87-.39-1.41.07-.5.11-1.08.45-1.52.31-.4.84-.64,1.34-.87.45-.21.95-.12,1.52-.11"/><path d="M130.68,100.14c0-.55.12-1.08.09-1.62-.03-.55.1-1.1.05-1.64-.06-.54.01-1.11-.07-1.64-.08-.54-.13-1.1-.24-1.63-.11-.54-.4-1.04-.54-1.56-.14-.53-.29-1.05-.46-1.57-.17-.52-.32-1.05-.52-1.55-.2-.51-.57-.94-.79-1.44-.22-.5-.49-.97-.74-1.45-.25-.49-.59-.91-.86-1.38-.27-.47-.35-1.06-.65-1.51-.3-.46-.49-.99-.81-1.43-.32-.44-.79-.77-1.13-1.19-.34-.42-.86-.69-1.22-1.09-.36-.4-.65-.87-1.04-1.26-.38-.38-.6-.95-1.01-1.31-.4-.36-.87-.66-1.3-1-.42-.34-.78-.78-1.22-1.1-.44-.32-1.06-.37-1.52-.67-.45-.3-.83-.72-1.3-.99-.47-.27-1.01-.41-1.5-.66-.48-.25-.85-.75-1.35-.97-.5-.22-1.14-.09-1.65-.28-.51-.19-.95-.55-1.47-.71-.52-.17-1.07-.2-1.6-.34-.52-.14-1.01-.42-1.55-.53-.53-.11-1.06-.28-1.6-.36-.54-.08-1.09-.05-1.63-.1-.54-.06-1.09.02-1.63,0-.54-.03-1.08-.06-1.63-.06s-1.09,0-1.63.02c-.55.03-1.11-.16-1.65-.1-.54.06-1.08.22-1.61.3-.54.09-1.09.12-1.62.23-.53.11-1.02.43-1.54.57-.53.14-1.05.29-1.56.46-.52.17-1.04.31-1.55.51-.51.2-1.01.41-1.5.63-.5.22-1.08.27-1.56.52-.48.25-.83.75-1.3,1.03-.47.27-.99.46-1.44.76-.46.3-.84.69-1.28,1.01-.44.32-1.05.42-1.47.76-.42.34-.8.75-1.2,1.11-.4.36-.9.64-1.29,1.03-.38.38-.66.88-1.02,1.29s-.73.82-1.07,1.24c-.34.42-.47,1.01-.79,1.45-.32.44-.77.79-1.07,1.24-.3.45-.39,1.03-.66,1.5-.27.47-.91.75-1.16,1.23-.25.48-.02,1.19-.24,1.69-.22.5-.82.83-1.01,1.34-.19.51-.13,1.11-.3,1.62-.17.51-.23,1.05-.37,1.58-.14.52-.64.96-.75,1.5-.11.53.02,1.11-.07,1.65-.08.53-.4,1.05-.46,1.59-.06.54,0,1.1-.03,1.64-.03.54-.1,1.09-.1,1.64s.16,1.09.19,1.63c.03.55-.14,1.11-.08,1.65.06.54.14,1.09.23,1.63.08.54.36,1.05.47,1.58.11.53.46,1.01.6,1.53.14.53.19,1.07.36,1.59.17.52.4,1.01.6,1.51.2.51.37,1.02.59,1.52.22.5.13,1.15.38,1.63.25.48.82.8,1.09,1.27.27.47.39,1.04.68,1.5.3.46.56.94.88,1.38.32.44.75.8,1.09,1.23.34.42.59.94.95,1.34.36.4.86.7,1.24,1.08s.78.76,1.18,1.13c.4.36.83.71,1.25,1.05.42.34.93.57,1.37.89.44.32.93.56,1.38.86.45.3.72.91,1.19,1.18.47.27,1.04.37,1.53.62.48.25,1.03.35,1.53.58.5.22,1.01.39,1.51.59.51.19.9.71,1.42.88.51.17,1.06.28,1.59.42.52.14,1.04.36,1.57.48.53.11,1.09.13,1.63.21.54.08,1.12-.19,1.66-.14.54.06,1.06.41,1.6.43.54.03,1.09.07,1.64.07s1.1-.08,1.64-.11c.55-.03,1.07-.31,1.61-.36.54-.06,1.09-.02,1.63-.11.54-.08,1.14.12,1.67.01.53-.11.96-.67,1.49-.81.53-.14,1.03-.31,1.55-.48.52-.17,1.16,0,1.66-.19.51-.2,1.03-.38,1.53-.6.5-.22.99-.49,1.47-.73.49-.25.75-.9,1.22-1.18.47-.27,1.08-.31,1.54-.6.46-.3.77-.79,1.21-1.11.44-.32.89-.61,1.31-.95.42-.34.8-.73,1.2-1.09.4-.36.79-.73,1.18-1.11.38-.38,1.05-.51,1.41-.91.36-.4.47-1.03.81-1.46.34-.42.57-.92.89-1.36.32-.44.92-.68,1.22-1.14.3-.45.39-1.04.66-1.51.27-.47.38-1.02.63-1.5.25-.48.5-.95.72-1.45.22-.5.63-.91.83-1.41.19-.51.5-.98.67-1.5.17-.52.19-1.08.33-1.61.14-.52.48-1.01.59-1.54.11-.53.03-1.1.12-1.64.08-.54.08-1.08.13-1.62.06-.54.21-1.07.24-1.62.03-.54-.24-1.08-.24-1.63M135.05,100.07c0,.54-.14,1.08-.17,1.62-.02.54-.23,1.06-.28,1.6-.05.54-.25,1.05-.32,1.58-.07.54-.22,1.05-.31,1.57-.1.53-.05,1.08-.17,1.6-.12.52-.26,1.04-.41,1.56-.15.52-.33,1.02-.5,1.53-.17.51-.18,1.08-.38,1.58-.19.5-.37,1.02-.58,1.51-.22.49-.36,1.03-.6,1.51-.24.48-.71.85-.97,1.32-.26.47-.65.86-.93,1.31-.28.46-.43,1-.73,1.44-.3.44-.44,1.01-.77,1.44-.32.43-.75.79-1.09,1.2-.34.41-.89.65-1.25,1.05-.36.4-.67.84-1.05,1.22-.38.38-.85.66-1.25,1.02-.4.36-.6.95-1.01,1.29-.41.34-.93.55-1.36.88-.43.32-.78.75-1.23,1.06-.44.3-1.05.35-1.51.63-.46.28-.73.88-1.2,1.14-.47.26-1.03.35-1.51.59-.48.24-.92.58-1.41.8-.49.22-1.05.28-1.55.47-.5.19-1.02.31-1.54.48-.51.17-.99.43-1.5.58-.51.15-1.01.4-1.53.52-.52.12-1.05.22-1.58.32-.53.1-1.06.17-1.6.24-.53.07-1.09-.09-1.62-.05-.53.05-1.06.18-1.6.2-.54.02-1.07-.03-1.61-.03s-1.08.18-1.62.16c-.54-.02-1.08-.06-1.61-.11-.54-.05-1.07-.15-1.6-.22-.54-.07-1.07-.15-1.6-.25-.53-.1-1.01-.41-1.53-.53-.52-.12-1.11.01-1.63-.13-.52-.15-1-.41-1.51-.58-.51-.17-1.05-.26-1.55-.45-.5-.2-.88-.67-1.37-.89-.49-.22-1-.39-1.48-.63-.48-.24-.88-.61-1.35-.87-.47-.26-1-.41-1.45-.69-.46-.28-.9-.58-1.34-.88-.44-.3-1.03-.41-1.46-.74-.43-.32-.74-.8-1.15-1.14-.41-.34-.97-.53-1.36-.89-.4-.36-.49-1.04-.87-1.42-.38-.38-1.12-.41-1.48-.81s-.4-1.08-.74-1.49c-.34-.41-.88-.67-1.2-1.1-.32-.43-.71-.82-1.02-1.26s-.28-1.1-.56-1.56c-.28-.46-.75-.8-1.02-1.27-.26-.47-.29-1.06-.53-1.54-.24-.48-.55-.92-.77-1.41-.22-.49-.37-1-.56-1.5-.19-.5-.51-.95-.68-1.46-.17-.51-.13-1.08-.27-1.6-.15-.51-.29-1.02-.42-1.55-.12-.52-.41-1-.5-1.53-.1-.53-.41-1.02-.48-1.56-.07-.53-.03-1.08-.08-1.62-.05-.53-.14-1.07-.17-1.61-.02-.53,0-1.08,0-1.62s.37-1.07.4-1.6c.02-.54-.29-1.09-.24-1.63.05-.54.31-1.05.38-1.58.07-.53.22-1.05.31-1.57.1-.53.09-1.07.21-1.6.12-.52.4-1,.55-1.52.15-.52.16-1.07.33-1.58.17-.51.35-1.01.55-1.51.2-.5.39-1,.61-1.49.22-.49.33-1.04.57-1.51.24-.48.43-1,.69-1.47.26-.47.86-.74,1.15-1.19.28-.46.42-1,.72-1.44.3-.44.51-.96.83-1.39s.63-.88.98-1.29c.34-.41.96-.58,1.33-.98.36-.4.69-.81,1.07-1.19.38-.38.83-.68,1.22-1.04.4-.36.74-.77,1.15-1.12.41-.34.62-.95,1.05-1.27.43-.32,1.04-.39,1.49-.69.44-.3.9-.57,1.36-.85.45-.28.88-.61,1.35-.87.47-.26.83-.72,1.32-.96.48-.24,1.01-.38,1.5-.59.49-.22,1.1-.13,1.6-.33.5-.19.85-.79,1.36-.96.51-.17,1.02-.35,1.54-.5.52-.15,1.13.09,1.65-.04.52-.12,1.04-.2,1.57-.3.53-.1,1.04-.21,1.58-.28.53-.07,1.01-.58,1.55-.63.53-.05,1.09.2,1.63.18.54-.02,1.07-.26,1.61-.26s1.08.06,1.62.08c.54.02,1.09.01,1.62.06.54.05,1.08.12,1.61.19.53.07,1,.55,1.53.65.53.1,1.12-.11,1.64,0,.52.12,1.08.14,1.6.29.52.15.93.65,1.44.82.51.17,1.09.14,1.59.34.5.2,1.07.25,1.56.47.49.22.98.47,1.46.71.48.24.86.69,1.33.95.47.26.86.65,1.32.93.46.28.98.46,1.42.76.44.3.75.79,1.18,1.12.43.32.96.51,1.37.85.41.34.87.64,1.27,1,.4.36.71.81,1.09,1.19.38.38.57.93.93,1.33.36.4,1.03.52,1.37.94.34.41.35,1.09.68,1.52.32.43.89.68,1.19,1.12.3.44.59.9.88,1.35.28.46.48.96.74,1.43.26.47.73.83.97,1.31.24.48.19,1.1.41,1.59.22.49.42.98.61,1.49.19.5.48.97.65,1.48.17.51.15,1.07.3,1.59.15.51.62.95.74,1.47.12.52-.02,1.1.07,1.63.1.53.51,1.01.59,1.54.07.53.04,1.08.09,1.62.05.53-.02,1.08,0,1.62.02.53.26,1.07.26,1.61"/><path d="M98.98,98.26c.63,0,1.04.03,1.41.34.41.34.57.77.68,1.31.11.52.38,1.07.21,1.59-.17.51-.55.96-.98,1.31-.39.31-.9.48-1.5.53-.47.04-.96-.13-1.55-.32-.6-.19-.93-.46-1.19-.84-.31-.44-.46-.87-.39-1.41.07-.5.11-1.08.45-1.52.31-.4.84-.64,1.34-.87.45-.21.95-.12,1.52-.11"/></svg>