<?xml version="1.0" encoding="UTF-8"?><svg id="Layer_1" xmlns="http://www.w3.org/2000/svg" viewBox="0 0 200 200"><path d="M124.06,135.25c-.29.33-.4.7-.77.95-.34.22-.75.25-1.26.27-.26.01-.69-.17-1.26-.5-.38-.22-.91-.29-1.33-.57-.41-.27-.78-.59-1.15-.84-.49-.33-.89-.65-1.16-.81-.4-.23-.9-.51-1.47-.8-.46-.23-1.06-.31-1.58-.57-.49-.24-.97-.56-1.47-.81-.51-.26-1.07-.42-1.55-.67-.53-.28-.86-.85-1.3-1.12-.58-.35-.94-.77-1.25-1.05-.45-.41-1.06-.68-1.12-1.13-.07-.54.15-1.27.51-1.63.34-.34,1.01-.23,1.58-.19.15,0,.7.11,1.36.41.43.19,1.02.16,1.44.37.58.28,1.09.53,1.31.63.43.21.9.45,1.4.7.44.22.9.49,1.38.74.45.24.92.49,1.38.74.46.25.8.72,1.25.98.46.26.99.41,1.42.67.46.28.76.79,1.18,1.07.47.31.94.55,1.31.83.43.33.5.71.67,1.11.17.4.3.72.47,1.2"/><path d="M96.55,125.38c-.35.36-.61.8-.98,1.15-.37.34-.77.63-1.17.96-.38.32-.53.95-.93,1.26-.4.31-1.02.33-1.43.63-.41.29-.72.72-1.14,1.01-.42.28-.96.37-1.39.65-.43.27-.85.54-1.29.8-.43.26-.65.89-1.09,1.14-.44.25-.96.38-1.4.62-.45.25-.92.44-1.37.67-.45.24-.92.43-1.37.66-.46.23-.95.38-1.4.6-.46.22-.87.55-1.32.76-.47.21-1.04.18-1.49.37-.57.25-.92.8-1.31.84-.54.06-.92-.34-1.33-.7-.3-.27-.62-.61-.96-1.12-.03-.14.54-1.35.69-1.53.17-.21.74-.33,1.37-.66.41-.21.7-.81,1.19-1.04.45-.21,1.01-.25,1.48-.45.49-.22,1.01-.33,1.44-.52.58-.26,1-.61,1.31-.78.46-.24.99-.34,1.43-.59.45-.25.76-.74,1.2-.99.45-.26.94-.42,1.37-.69.44-.27,1.02-.31,1.45-.59.43-.28.82-.64,1.23-.93.42-.3.87-.55,1.28-.86.41-.31.54-.97.93-1.29.4-.33.86-.56,1.24-.9.38-.35.81-.63,1.17-1,.36-.37.56-.87.89-1.26.34-.39.98-.53,1.29-.93.31-.41.64-.82.92-1.25.28-.42.56-.87.81-1.32.25-.44.29-1,.51-1.47.22-.46.38-.94.57-1.42.18-.47.3-.97.46-1.46.15-.48.59-.89.71-1.4.12-.49.08-1.03.17-1.55.09-.5.14-1.01.2-1.53.06-.52.02-1.05.06-1.57.04-.53.33-1.04.35-1.56.02-.53-.2-1.06-.2-1.58,0-.53-.21-1.04-.24-1.56-.03-.53.24-1.07.19-1.59-.05-.52-.37-1.01-.45-1.53-.08-.52-.01-1.06-.12-1.57-.11-.52-.02-1.08-.16-1.59-.13-.51-.57-.93-.73-1.43-.16-.5-.48-.93-.67-1.42-.19-.49-.03-1.13-.24-1.6-.22-.48-.82-.76-1.06-1.23-.24-.47-.17-1.11-.44-1.55-.27-.45-.52-.92-.82-1.36-.3-.43-.55-.91-.88-1.32-.32-.41-.78-.72-1.13-1.12-.34-.39-.91-.58-1.28-.95-.37-.37-.6-.88-.99-1.23-.39-.35-.89-.56-1.3-.89-.41-.32-.76-.72-1.19-1.02-.42-.3-.98-.4-1.43-.67-.44-.28-.66-.93-1.12-1.18-.45-.25-1.03-.28-1.51-.51-.47-.23-.94-.43-1.43-.64-.48-.2-.97-.37-1.47-.55-.49-.18-.91-.58-1.41-.74-.43-.14-.96-.27-1.54-.4-.49-.11-1.09.11-1.62,0-.52-.11-1.01-.37-1.52-.49-.54-.13-1.02-.43-1.49-.57-.59-.17-1.21-.1-1.59-.31-.54-.29-.68-.92-.86-1.36-.22-.52-.44-1.1-.16-1.56.24-.41.83-.52,1.44-.67.26-.06.78.05,1.45.18.48.1,1,.26,1.48.38.62.15,1.2.21,1.51.28.5.12,1.01.19,1.5.32.49.13,1.01.19,1.5.34.49.15,1.03.15,1.52.31.49.16,1.01.25,1.48.43.48.18.94.42,1.42.62s.93.44,1.4.66c.46.22.75.8,1.2,1.04.45.24,1.1.12,1.55.39.44.26.65.88,1.08,1.17.42.28.98.37,1.39.68.41.31.81.63,1.2.96.4.33.78.68,1.16,1.04.38.35.79.68,1.15,1.05.36.37.71.76,1.05,1.15.34.39.69.78,1.01,1.19.32.41.35,1.03.64,1.45.3.42.63.81.91,1.25.28.44.59.85.85,1.29.26.45.38.96.62,1.42.24.46.57.86.79,1.34s.45.93.65,1.41c.19.48.64.87.81,1.36.17.49.17,1.04.32,1.54.15.49.17,1.03.3,1.53.13.5.11,1.03.22,1.54.11.51.4.97.49,1.48.08.51.13,1.03.19,1.54.06.51.22,1.02.26,1.53.04.52.03,1.04.04,1.55.01.52.04,1.04.03,1.55,0,.52-.23,1.02-.27,1.54-.03.52.16,1.05.11,1.57-.06.51-.45.98-.53,1.49-.08.51.22,1.1.11,1.6-.11.51-.4.97-.54,1.47-.13.5-.4.96-.56,1.45-.16.49-.32.98-.51,1.46-.19.48-.53.89-.74,1.36-.21.47-.11,1.09-.35,1.55-.24.46-.65.82-.92,1.27-.27.44-.38.98-.67,1.41-.29.43-.63.82-.95,1.23-.31.41-.7.77-1.04,1.16-.34.39-.88.58-1.24.96"/><path d="M96.55,125.38c-.35.36-.61.8-.98,1.15-.37.34-.77.63-1.17.96-.38.32-.53.95-.93,1.26-.4.31-1.02.33-1.43.63-.41.29-.72.72-1.14,1.01-.42.28-.96.37-1.39.65-.43.27-.85.54-1.29.8-.43.26-.65.89-1.09,1.14-.44.25-.96.38-1.4.62-.45.25-.92.44-1.37.67-.45.24-.92.43-1.37.66-.46.23-.95.38-1.4.6-.46.22-.87.55-1.32.76-.47.21-1.04.18-1.49.37-.57.25-.92.8-1.31.84-.54.06-.92-.34-1.33-.7-.3-.27-.62-.61-.96-1.12-.03-.14.54-1.35.69-1.53.17-.21.74-.33,1.37-.66.41-.21.7-.81,1.19-1.04.45-.21,1.01-.25,1.48-.45.49-.22,1.01-.33,1.44-.52.58-.26,1-.61,1.31-.78.46-.24.99-.34,1.43-.59.45-.25.76-.74,1.2-.99.45-.26.94-.42,1.37-.69.44-.27,1.02-.31,1.45-.59.43-.28.82-.64,1.23-.93.42-.3.87-.55,1.28-.86.41-.31.54-.97.93-1.29.4-.33.86-.56,1.24-.9.38-.35.81-.63,1.17-1,.36-.37.56-.87.89-1.26.34-.39.98-.53,1.29-.93.31-.41.64-.82.92-1.25.28-.42.56-.87.81-1.32.25-.44.29-1,.51-1.47.22-.46.38-.94.57-1.42.18-.47.3-.97.46-1.46.15-.48.59-.89.71-1.4.12-.49.08-1.03.17-1.55.09-.5.14-1.01.2-1.53.06-.52.02-1.05.06-1.57.04-.53.33-1.04.35-1.56.02-.53-.2-1.06-.2-1.58,0-.53-.21-1.04-.24-1.56-.03-.53.24-1.07.19-1.59-.05-.52-.37-1.01-.45-1.53-.08-.52-.01-1.06-.12-1.57-.11-.52-.02-1.08-.16-1.59-.13-.51-.57-.93-.73-1.43-.16-.5-.48-.93-.67-1.42-.19-.49-.03-1.13-.24-1.6-.22-.48-.82-.76-1.06-1.23-.24-.47-.17-1.11-.44-1.55-.27-.45-.52-.92-.82-1.36-.3-.43-.55-.91-.88-1.32-.32-.41-.78-.72-1.13-1.12-.34-.39-.91-.58-1.28-.95-.37-.37-.6-.88-.99-1.23-.39-.35-.89-.56-1.3-.89-.41-.32-.76-.72-1.19-1.02-.42-.3-.98-.4-1.43-.67-.44-.28-.66-.93-1.12-1.18-.45-.25-1.03-.28-1.51-.51-.47-.23-.94-.43-1.43-.64-.48-.2-.97-.37-1.47-.55-.49-.18-.91-.58-1.41-.74-.43-.14-.96-.27-1.54-.4-.49-.11-1.09.11-1.62,0-.52-.11-1.01-.37-1.52-.49-.54-.13-1.02-.43-1.49-.57-.59-.17-1.21-.1-1.59-.31-.54-.29-.68-.92-.86-1.36-.22-.52-.44-1.1-.16-1.56.24-.41.83-.52,1.44-.67.26-.06.78.05,1.45.18.48.1,1,.26,1.48.38.62.15,1.2.21,1.51.28.5.12,1.01.19,1.5.32.49.13,1.01.19,1.5.34.49.15,1.03.15,1.52.31.49.16,1.01.25,1.48.43.48.18.94.42,1.42.62s.93.44,1.4.66c.46.22.75.8,1.2,1.04.45.24,1.1.12,1.55.39.44.26.65.88,1.08,1.17.42.28.98.37,1.39.68.41.31.81.63,1.2.96.4.33.78.68,1.16,1.04.38.35.79.68,1.15,1.05.36.37.71.76,1.05,1.15.34.39.69.78,1.01,1.19.32.41.35,1.03.64,1.45.3.42.63.81.91,1.25.28.44.59.85.85,1.29.26.45.38.96.62,1.42.24.46.57.86.79,1.34s.45.93.65,1.41c.19.48.64.87.81,1.36.17.49.17,1.04.32,1.54.15.49.17,1.03.3,1.53.13.5.11,1.03.22,1.54.11.51.4.97.49,1.48.08.51.13,1.03.19,1.54.06.51.22,1.02.26,1.53.04.52.03,1.04.04,1.55.01.52.04,1.04.03,1.55,0,.52-.23,1.02-.27,1.54-.03.52.16,1.05.11,1.57-.06.51-.45.98-.53,1.49-.08.51.22,1.1.11,1.6-.11.51-.4.97-.54,1.47-.13.5-.4.96-.56,1.45-.16.49-.32.98-.51,1.46-.19.48-.53.89-.74,1.36-.21.47-.11,1.09-.35,1.55-.24.46-.65.82-.92,1.27-.27.44-.38.98-.67,1.41-.29.43-.63.82-.95,1.23-.31.41-.7.77-1.04,1.16-.34.39-.88.58-1.24.96"/><path d="M107.26,75.1c-.45.48-.96,1.51-1.54,1.7-.7.22-1.37.25-1.8-.08-.43-.34-.62-1-.59-1.73.02-.36.32-.86.7-1.45.27-.41.54-.9.91-1.35.33-.42.88-.68,1.23-1.08.38-.43.77-.82,1.11-1.19.45-.49.77-.98,1.03-1.25.23-.25.56-.74,1.04-1.25.34-.36.55-.93.95-1.34.37-.39,1.05-.51,1.43-.89.41-.42.63-.98.98-1.32.55-.53,1.08-.8,1.31-.93.57-.33,1.13-.53,1.67-.37.59.18,1.07.63,1.3,1.16.23.5.23,1.1-.16,1.7-.23.35-.63.67-1.02,1.1-.31.35-.61.76-.99,1.13-.34.34-.54.87-.91,1.23-.36.34-.81.62-1.18.96-.38.35-.77.67-1.14,1-.39.36-.67.8-1.02,1.13-.4.38-.95.56-1.25.88-.33.35-.61.81-.92,1.24-.31.42-.81.66-1.15,1.02"/><path d="M107.26,75.1c-.45.48-.96,1.51-1.54,1.7-.7.22-1.37.25-1.8-.08-.43-.34-.62-1-.59-1.73.02-.36.32-.86.7-1.45.27-.41.54-.9.91-1.35.33-.42.88-.68,1.23-1.08.38-.43.77-.82,1.11-1.19.45-.49.77-.98,1.03-1.25.23-.25.56-.74,1.04-1.25.34-.36.55-.93.95-1.34.37-.39,1.05-.51,1.43-.89.41-.42.63-.98.98-1.32.55-.53,1.08-.8,1.31-.93.57-.33,1.13-.53,1.67-.37.59.18,1.07.63,1.3,1.16.23.5.23,1.1-.16,1.7-.23.35-.63.67-1.02,1.1-.31.35-.61.76-.99,1.13-.34.34-.54.87-.91,1.23-.36.34-.81.62-1.18.96-.38.35-.77.67-1.14,1-.39.36-.67.8-1.02,1.13-.4.38-.95.56-1.25.88-.33.35-.61.81-.92,1.24-.31.42-.81.66-1.15,1.02"/><path d="M127.83,98.85c.36.44.25,1.74.12,2.27-.06.23-.73.07-.26.68-.47.26-.97.13-1.42.2-.49.07-.93.22-1.42.22-.47,0-.95.13-1.45.18-.46.04-1.04.04-1.65.14-.52.08-1.07.21-1.63.29-.56.09-1.13.07-1.65.13-.64.07-1.19.16-1.63.13-.59-.03-1.11-.19-1.49-.54-.42-.38-.42-.93-.47-1.45-.06-.53-.22-1.11.22-1.52.33-.3.9-.35,1.56-.47.51-.09,1.04-.1,1.58-.16.52-.05,1.04-.27,1.58-.3.53-.03,1.08.14,1.61.12.54-.02,1.06-.32,1.59-.35.54-.03,1.09.1,1.61.06.54-.05,1.09.09,1.61,0,.2.02,1.45.21,1.57.36"/><path d="M127.83,98.85c.36.44.25,1.74.12,2.27-.06.23-.73.07-.26.68-.47.26-.97.13-1.42.2-.49.07-.93.22-1.42.22-.47,0-.95.13-1.45.18-.46.04-1.04.04-1.65.14-.52.08-1.07.21-1.63.29-.56.09-1.13.07-1.65.13-.64.07-1.19.16-1.63.13-.59-.03-1.11-.19-1.49-.54-.42-.38-.42-.93-.47-1.45-.06-.53-.22-1.11.22-1.52.33-.3.9-.35,1.56-.47.51-.09,1.04-.1,1.58-.16.52-.05,1.04-.27,1.58-.3.53-.03,1.08.14,1.61.12.54-.02,1.06-.32,1.59-.35.54-.03,1.09.1,1.61.06.54-.05,1.09.09,1.61,0,.2.02,1.45.21,1.57.36"/><path d="M96.55,125.38c-.35.36-.61.8-.98,1.15-.37.34-.77.63-1.17.96-.38.32-.53.95-.93,1.26-.4.31-1.02.33-1.43.63-.41.29-.72.72-1.14,1.01-.42.28-.96.37-1.39.65-.43.27-.85.54-1.29.8-.43.26-.65.89-1.09,1.14-.44.25-.96.38-1.4.62-.45.25-.92.44-1.37.67-.45.24-.92.43-1.37.66-.46.23-.95.38-1.4.6-.46.22-.87.55-1.32.76-.47.21-1.04.18-1.49.37-.57.25-.92.8-1.31.84-.54.06-.92-.34-1.33-.7-.3-.27-.62-.61-.96-1.12-.03-.14.54-1.35.69-1.53.17-.21.74-.33,1.37-.66.41-.21.7-.81,1.19-1.04.45-.21,1.01-.25,1.48-.45.49-.22,1.01-.33,1.44-.52.58-.26,1-.61,1.31-.78.46-.24.99-.34,1.43-.59.45-.25.76-.74,1.2-.99.45-.26.94-.42,1.37-.69.44-.27,1.02-.31,1.45-.59.43-.28.82-.64,1.23-.93.42-.3.87-.55,1.28-.86.41-.31.54-.97.93-1.29.4-.33.86-.56,1.24-.9.38-.35.81-.63,1.17-1,.36-.37.56-.87.89-1.26.34-.39.98-.53,1.29-.93.31-.41.64-.82.92-1.25.28-.42.56-.87.81-1.32.25-.44.29-1,.51-1.47.22-.46.38-.94.57-1.42.18-.47.3-.97.46-1.46.15-.48.59-.89.71-1.4.12-.49.08-1.03.17-1.55.09-.5.14-1.01.2-1.53.06-.52.02-1.05.06-1.57.04-.53.33-1.04.35-1.56.02-.53-.2-1.06-.2-1.58,0-.53-.21-1.04-.24-1.56-.03-.53.24-1.07.19-1.59-.05-.52-.37-1.01-.45-1.53-.08-.52-.01-1.06-.12-1.57-.11-.52-.02-1.08-.16-1.59-.13-.51-.57-.93-.73-1.43-.16-.5-.48-.93-.67-1.42-.19-.49-.03-1.13-.24-1.6-.22-.48-.82-.76-1.06-1.23-.24-.47-.17-1.11-.44-1.55-.27-.45-.52-.92-.82-1.36-.3-.43-.55-.91-.88-1.32-.32-.41-.78-.72-1.13-1.12-.34-.39-.91-.58-1.28-.95-.37-.37-.6-.88-.99-1.23-.39-.35-.89-.56-1.3-.89-.41-.32-.76-.72-1.19-1.02-.42-.3-.98-.4-1.43-.67-.44-.28-.66-.93-1.12-1.18-.45-.25-1.03-.28-1.51-.51-.47-.23-.94-.43-1.43-.64-.48-.2-.97-.37-1.47-.55-.49-.18-.91-.58-1.41-.74-.43-.14-.96-.27-1.54-.4-.49-.11-1.09.11-1.62,0-.52-.11-1.01-.37-1.52-.49-.54-.13-1.02-.43-1.49-.57-.59-.17-1.21-.1-1.59-.31-.54-.29-.68-.92-.86-1.36-.22-.52-.44-1.1-.16-1.56.24-.41.83-.52,1.44-.67.26-.06.78.05,1.45.18.48.1,1,.26,1.48.38.62.15,1.2.21,1.51.28.5.12,1.01.19,1.5.32.49.13,1.01.19,1.5.34.49.15,1.03.15,1.52.31.49.16,1.01.25,1.48.43.48.18.94.42,1.42.62s.93.44,1.4.66c.46.22.75.8,1.2,1.04.45.24,1.1.12,1.55.39.44.26.65.88,1.08,1.17.42.28.98.37,1.39.68.41.31.81.63,1.2.96.4.33.78.68,1.16,1.04.38.35.79.68,1.15,1.05.36.37.71.76,1.05,1.15.34.39.69.78,1.01,1.19.32.41.35,1.03.64,1.45.3.42.63.81.91,1.25.28.44.59.85.85,1.29.26.45.38.96.62,1.42.24.46.57.86.79,1.34s.45.93.65,1.41c.19.48.64.87.81,1.36.17.49.17,1.04.32,1.54.15.49.17,1.03.3,1.53.13.5.11,1.03.22,1.54.11.51.4.97.49,1.48.08.51.13,1.03.19,1.54.06.51.22,1.02.26,1.53.04.52.03,1.04.04,1.55.01.52.04,1.04.03,1.55,0,.52-.23,1.02-.27,1.54-.03.52.16,1.05.11,1.57-.06.51-.45.98-.53,1.49-.08.51.22,1.1.11,1.6-.11.51-.4.97-.54,1.47-.13.5-.4.96-.56,1.45-.16.49-.32.98-.51,1.46-.19.48-.53.89-.74,1.36-.21.47-.11,1.09-.35,1.55-.24.46-.65.82-.92,1.27-.27.44-.38.98-.67,1.41-.29.43-.63.82-.95,1.23-.31.41-.7.77-1.04,1.16-.34.39-.88.58-1.24.96"/><path d="M107.26,75.1c-.45.48-.96,1.51-1.54,1.7-.7.22-1.37.25-1.8-.08-.43-.34-.62-1-.59-1.73.02-.36.32-.86.7-1.45.27-.41.54-.9.91-1.35.33-.42.88-.68,1.23-1.08.38-.43.77-.82,1.11-1.19.45-.49.77-.98,1.03-1.25.23-.25.56-.74,1.04-1.25.34-.36.55-.93.95-1.34.37-.39,1.05-.51,1.43-.89.41-.42.63-.98.98-1.32.55-.53,1.08-.8,1.31-.93.57-.33,1.13-.53,1.67-.37.59.18,1.07.63,1.3,1.16.23.5.23,1.1-.16,1.7-.23.35-.63.67-1.02,1.1-.31.35-.61.76-.99,1.13-.34.34-.54.87-.91,1.23-.36.34-.81.62-1.18.96-.38.35-.77.67-1.14,1-.39.36-.67.8-1.02,1.13-.4.38-.95.56-1.25.88-.33.35-.61.81-.92,1.24-.31.42-.81.66-1.15,1.02"/><path d="M127.83,98.85c.36.44.25,1.74.12,2.27-.06.23-.73.07-.26.68-.47.26-.97.13-1.42.2-.49.07-.93.22-1.42.22-.47,0-.95.13-1.45.18-.46.04-1.04.04-1.65.14-.52.08-1.07.21-1.63.29-.56.09-1.13.07-1.65.13-.64.07-1.19.16-1.63.13-.59-.03-1.11-.19-1.49-.54-.42-.38-.42-.93-.47-1.45-.06-.53-.22-1.11.22-1.52.33-.3.9-.35,1.56-.47.51-.09,1.04-.1,1.58-.16.52-.05,1.04-.27,1.58-.3.53-.03,1.08.14,1.61.12.54-.02,1.06-.32,1.59-.35.54-.03,1.09.1,1.61.06.54-.05,1.09.09,1.61,0,.2.02,1.45.21,1.57.36"/></svg>