<?xml version="1.0" encoding="UTF-8"?><svg id="Layer_1" xmlns="http://www.w3.org/2000/svg" viewBox="0 0 200 200"><path d="M115.61,118.87c-.36.24-.76.38-1.13.6-.37.22-.74.42-1.12.61-.38.19-.69.54-1.08.71-.39.17-.82.25-1.22.4-.4.15-.77.38-1.18.52-.41.13-.85.14-1.26.26-.41.12-.81.27-1.23.38-.41.11-.86.09-1.27.19-.42.1-.79.39-1.21.48-.42.09-.85.11-1.27.2-.42.09-.85.14-1.27.22-.42.09-.83.24-1.24.33-.42.09-.81.42-1.23.51-.45-.04-.9-.36-1.34-.39-.45-.03-.91.22-1.35.2-.45-.02-.89-.07-1.33-.09-.45-.02-.87-.39-1.31-.42-.44-.03-.88-.04-1.32-.1-.44-.05-.89,0-1.33-.09-.43-.08-.92.06-1.36-.05-.42-.11-.87-.2-1.3-.35-.41-.14-.79-.43-1.21-.61-.33-.14-.82-.25-1.26-.51-.37-.21-.64-.65-1.03-.89-.4-.24-.87-.33-1.23-.54-.48-.27-.89-.41-1.19-.48-.43-.12-.84-.42-1.16-.24-.32.18-.67.49-.92.81-.24.31-.17.87-.38,1.16-.24.34-.8.48-1.04.86-.22.35-.43.75-.65,1.13-.21.37-.17.88-.37,1.27-.19.38-.64.64-.83,1.04-.18.39-.12.89-.29,1.29-.17.39-.54.71-.7,1.12-.15.4-.35.8-.49,1.21-.14.41-.01.91-.15,1.32-.13.41-.27.82-.39,1.24-.12.42-.38.8-.48,1.22-.1.42-.15.85-.24,1.28-.09.42.02.88-.06,1.31-.08.43-.34.82-.41,1.25-.06.43-.22.85-.27,1.28-.05.43.32.9.29,1.33-.03.43-.46.85-.47,1.28-.01.44.17.87.18,1.3.01.44-.06.88-.03,1.3.03.44.39.83.44,1.25.06.43-.14.9-.05,1.32.09.43.31.82.42,1.23.12.42.03.91.18,1.31.15.41.5.74.69,1.12.19.39.28.84.51,1.2.23.37.44.77.71,1.11.25.31.72.47,1.07.79.3.28.52.69.87.97.33.26.65.55,1.02.81.34.24.81.33,1.18.57.36.23.65.57,1.03.8.37.22.89.17,1.28.38.37.21.59.72.98.93.38.2.81.31,1.2.51.39.19.82.29,1.22.47.39.18.82.28,1.22.46.4.18.71.55,1.11.72.41.17.88.14,1.28.29.41.16.75.5,1.15.64.42.15.89.11,1.3.24.43.14.84.25,1.25.36.43.12.82.37,1.22.47.45.1.89.12,1.29.18.47.07.9-.05,1.29-.04.45.02.88.16,1.32.15.45-.01.88-.16,1.32-.19.45-.04.9.09,1.34.03.44-.06.91,0,1.34-.09.44-.09.82-.42,1.25-.53.43-.11.94.05,1.36-.09.42-.14.79-.44,1.21-.6.42-.16.79-.42,1.19-.6.41-.18.76-.45,1.16-.65.39-.2.92-.18,1.3-.4.38-.23.62-.68.99-.92.37-.25.8-.41,1.15-.67.36-.26.86-.34,1.21-.62.34-.28.67-.6,1-.89.33-.3.58-.69.9-1,.32-.31.44-.81.74-1.14.3-.33.67-.59.95-.93.29-.34.73-.56,1-.91.27-.35.36-.84.62-1.2.26-.36.64-.64.88-1.02.24-.37.34-.83.56-1.22.22-.38.53-.72.73-1.12.21-.39.21-.88.4-1.29.19-.4.61-.7.78-1.11.17-.41.43-.8.58-1.21.15-.42.33-.84.47-1.26.13-.42.05-.92.17-1.35.12-.43.12-.88.22-1.32.1-.43.34-.84.42-1.28.08-.44-.11-.91-.06-1.35.06-.44.35-.85.39-1.3.04-.44.2-.88.21-1.33.01-.44-.34-.89-.35-1.34,0-.44.05-.89.02-1.33-.03-.44-.1-.88-.15-1.32-.05-.44-.03-.89-.1-1.33-.07-.43.09-.9-.01-1.31-.1-.42-.23-.84-.36-1.25-.13-.41-.46-.76-.61-1.15-.16-.4-.15-.88-.33-1.26-.18-.39-.42-.76-.62-1.13-.2-.37-.38-.78-.6-1.14-.22-.36-.76-.52-1-.88-.24-.35-.52-.67-.77-1.01-.25-.34-.32-.83-.58-1.16-.26-.33-.59-.62-.87-.95-.27-.33-.49-.71-.77-1.04-.09,0-.5.35-.94.72-.28.23-.44.65-.72.89-.39.33-.92.36-1.06.46M116.28,114.43c-.36-.26-.67-.64-.98-.89-.34-.27-.67-.53-1-.78-.33-.26-.78-.36-1.14-.59-.34-.22-.66-.51-1.06-.7-.36-.17-.78-.24-1.21-.37-.41-.13-.79-.38-1.22-.5-.41-.12-.85-.19-1.28-.3-.42-.1-.82-.32-1.25-.41-.42-.09-.89.03-1.33-.05-.43-.07-.85-.21-1.29-.27-.43-.05-.87-.15-1.3-.18-.44-.04-.88,0-1.31-.01-.44-.01-.88.22-1.31.23-.44.01-.9-.24-1.32-.19-.44.05-.83.38-1.25.47-.51.1-.96.14-1.36.18-.45.05-.92-.24-1.39-.16-.24.04-.76.25-1.32.45-.41.15-.83.43-1.24.6-.53.22-.9.63-1.15.75-.37.18-.7.42-1.07.65-.35.22-.77.35-1.11.6-.34.25-.58.62-.91.89-.33.27-.8.37-1.11.66-.32.29-.52.7-.82.99-.31.3-.57.64-.86.93-.31.31-.95.46-1.24.75.32.26.72.68,1.08.92.34.23.9.15,1.26.37.36.21.55.75.93.94.38.19.79.35,1.17.51.39.17.89.06,1.28.19.41.13.75.52,1.15.61.41.09.9-.09,1.34-.02.42.06.83.35,1.28.39.43.05.87.13,1.31.16.43.03.88-.23,1.33-.22.43.01.87.04,1.31.03.43,0,.88.14,1.32.13.43-.02.87-.09,1.31-.12.44-.03.85-.26,1.29-.31.44-.05.89.1,1.33.04.44-.06.89-.02,1.32-.1.43-.08.79-.55,1.21-.65.43-.09.95.21,1.37.1.43-.11.81-.4,1.22-.53.42-.13.87-.18,1.28-.33.42-.15.71-.6,1.11-.77.41-.17.92-.11,1.3-.31.4-.2.72-.52,1.09-.74.38-.23.88-.29,1.22-.55.36-.27.58-.7.89-.99.43-.4,1.11-.88,1.1-1.52M118.66,111.9c.21-.36.54-.7.76-1.06.22-.36.42-.73.64-1.09.21-.36.26-.82.47-1.18.21-.37.49-.69.69-1.06.2-.37.3-.79.49-1.17.18-.38.47-.71.64-1.1.17-.39.29-.8.43-1.19.14-.39.39-.76.51-1.17.13-.44.05-.92.15-1.35.1-.44.26-.87.33-1.3.07-.45.18-.89.22-1.33.04-.45.02-.9.03-1.35.02-.45-.21-.89-.23-1.34-.02-.45.24-.91.19-1.35-.04-.44-.38-.85-.45-1.29-.07-.44-.14-.87-.24-1.31-.1-.43.11-.95-.02-1.38-.13-.42-.3-.85-.45-1.27-.15-.42-.41-.8-.59-1.22-.17-.41-.56-.72-.76-1.13-.21-.44-.46-.82-.7-1.23-.24-.41-.38-.88-.64-1.27-.26-.39-.65-.7-.93-1.09-.28-.39-.37-.91-.65-1.29-.28-.38-.61-.62-.88-1.02-.41.19-.65.45-1.03.69-.38.24-.97.16-1.35.42-.37.26-.75.49-1.13.74-.38.25-.57.8-.98,1.01-.33.17-.91.02-1.39.23-.38.17-.78.36-1.24.54-.4.16-.72.58-1.16.75-.41.15-.93.04-1.37.19-.42.15-.77.54-1.2.68-.43.14-.93.06-1.36.19-.44.13-.88.22-1.31.34-.45.12-.81.51-1.25.61-.46.11-.91.19-1.34.28-.47.09-.94.02-1.36.08-.49.07-.93.16-1.34.18-.53.02-1.02.17-1.37.08-.44-.12-.32-.74-.78-.88-.45-.14-.86-.36-1.28-.47-.45-.12-.99.16-1.42.06-.45-.11-.79-.61-1.22-.72-.44-.11-.92-.05-1.36-.17-.43-.12-.83-.33-1.27-.48-.42-.14-.95,0-1.39-.17-.41-.16-.72-.59-1.15-.78-.21-.1-.64-.2-1.08-.46-.32-.18-.55-.59-.89-.79-.35-.21-.8-.25-1.11-.43-.52-.3-.89-.65-1-.67-.34-.05-.62.25-.8.45-.25.27-.35.79-.64,1.23-.23.34-.62.64-.86,1.06-.22.37-.48.75-.7,1.16-.21.39-.25.88-.46,1.29-.2.4-.52.75-.71,1.16-.19.41-.11.95-.29,1.36-.19.42-.69.7-.86,1.11-.18.43-.27.89-.42,1.29-.17.45-.23.91-.37,1.31-.17.49-.21.95-.29,1.31-.1.43-.41.82-.47,1.25-.07.44.08.9.04,1.33-.04.44-.27.86-.28,1.3-.01.44.19.88.2,1.31.02.44.06.87.11,1.31.05.44-.04.89.03,1.32.07.43.22.85.32,1.28.1.43.37.8.49,1.23.12.42.11.88.26,1.29.14.42.41.78.57,1.19.16.41.17.88.35,1.28.18.4.25.86.45,1.25.2.39.62.66.84,1.04.22.38.19.91.42,1.28.23.37.61.65.86,1.01.25.36.52.63.78.98.33-.32.54-.66.87-.97.33-.31.86-.41,1.19-.71.34-.3.52-.79.86-1.08.35-.29.78-.49,1.13-.76.36-.28.87-.34,1.24-.6.37-.26.72-.52,1.11-.76.38-.24.71-.56,1.11-.77.39-.21.69-.65,1.1-.84.41-.19.87-.27,1.3-.44.42-.16.91-.11,1.35-.24.44-.13.81-.46,1.23-.58.44-.12.92-.06,1.34-.16.44-.1.85-.33,1.28-.41.45-.08.9-.04,1.34-.1.45-.05.87-.31,1.32-.33.45-.03.9.22,1.35.22.44,0,.88.1,1.33.13.44.02.87.09,1.32.14.44.05.9-.11,1.35-.04.43.07.89.04,1.34.13.43.09.83.34,1.28.45.43.1.92-.04,1.37.08.41.11.75.47,1.16.61.4.13.76.39,1.16.54.4.15.93-.03,1.32.13.39.17.76.41,1.14.6.38.19.78.35,1.16.56.37.21.7.5,1.06.72.36.23.57.67.92.92.35.25.69.49,1.01.76.16.13.37.03.5-.06M97.72,73.84c-.35.05-.86.07-1.39.22-.42.11-.87.26-1.34.41-.44.14-.83.47-1.27.62-.46.16-.94.24-1.34.4-.51.2-.92.48-1.24.64-.18.09-.66.24-1.2.59-.33.21-.69.5-1.08.76-.36.25-.81.4-1.17.65-.39.27-.65.7-.97.94-.58.43-1.03.82-1.03.92.36.28.73.6,1.13.85.39.25.82.44,1.24.67.41.22.92.23,1.35.44.42.2.73.65,1.16.83.43.18.97.09,1.4.24.45.16.88.32,1.32.45.37.11.69.55,1.14.68.4.11.83.19,1.25.29.42.1.86.1,1.28.19.43.1.9-.05,1.3.03.46.08.88.11,1.26.15.35.04.75.16,1.24.1.39-.05.77-.26,1.22-.35.4-.09.86.04,1.29-.07.4-.11.77-.38,1.18-.51.41-.12.79-.32,1.2-.45.41-.14.95.1,1.34-.04.42-.15.83-.27,1.22-.42.43-.16.69-.66,1.06-.81.45-.18,1,0,1.33-.15.37-.17.74-.37,1.11-.56.37-.19.6-.63.96-.84.36-.21.87-.21,1.19-.46.33-.25.47-.69.76-.98-.29-.36-.51-.79-.9-1.01-.39-.23-.81-.46-1.21-.65-.37-.18-.88-.11-1.28-.29-.38-.18-.76-.37-1.15-.55-.38-.17-.72-.48-1.11-.65-.39-.16-.81-.28-1.21-.44-.4-.16-.86-.12-1.27-.27-.4-.14-.74-.47-1.15-.6-.41-.13-.8-.35-1.21-.46-.42-.11-.92.18-1.34.1-.42-.09-.77-.57-1.19-.63-.43-.06-.88.07-1.3.05-.43-.03-.86-.13-1.28-.11-.43.01-.87.04-1.29.1M108,73.07c.39-.15.8,0,1.16.09.35.09.68.22,1.05.36.37.14.81.13,1.19.29.37.16.7.41,1.07.59.36.18.77.27,1.13.46.36.19.66.49,1.01.69.36.2.73.37,1.07.57.35.21.76.55,1.1.77.33-.29.63-.79.95-1.1.32-.31.68-.58.97-.91.3-.33.62-.64.9-.99.28-.35.5-.74.75-1.1.26-.36.31-.85.54-1.23.23-.38.7-.61.91-1s.16-.91.35-1.31c.19-.4.38-.79.55-1.2.17-.41.64-.7.78-1.12.14-.42.25-.86.37-1.28.12-.42.13-.88.23-1.31.1-.43-.04-.91.04-1.34.08-.43.11-.87.17-1.3.06-.44.24-.85.28-1.29.04-.44-.07-.88-.05-1.32.02-.44.26-.87.26-1.32,0-.44-.19-.88-.24-1.33-.05-.44-.18-.86-.26-1.3-.09-.44.2-.96.08-1.4-.12-.43-.24-.88-.39-1.3-.15-.42-.66-.7-.84-1.12-.18-.41-.03-.98-.23-1.38-.2-.4-.45-.79-.67-1.18-.23-.38-.7-.62-.95-1-.25-.37-.27-.91-.54-1.27-.27-.36-.75-.56-1.03-.91-.28-.35-.41-.84-.71-1.17-.3-.33-.59-.69-.91-1.01-.32-.32-.84-.43-1.17-.72-.34-.3-.66-.6-1.01-.88-.35-.28-.62-.68-.98-.94-.37-.26-.77-.47-1.15-.71-.38-.24-.87-.3-1.26-.51-.4-.22-.71-.59-1.11-.78-.41-.19-.8-.46-1.21-.61-.43-.15-.97.1-1.4-.02-.44-.12-.79-.61-1.23-.68-.43-.07-.9.04-1.34,0-.44-.05-.87-.19-1.31-.23-.44-.04-.9.25-1.33.23-.44-.02-.87-.3-1.31-.3-.44,0-.88.13-1.32.15-.44.02-.9-.18-1.33-.15-.44.04-.86.27-1.3.33-.44.05-.89-.01-1.33.06-.43.07-.88.1-1.31.19-.43.1-.8.43-1.23.55-.43.12-.9.08-1.31.21s-.85.25-1.26.41c-.41.16-.75.5-1.15.68-.4.18-.86.25-1.25.45-.39.2-.63.68-1.01.9-.38.22-.94.16-1.3.4-.37.24-.68.58-1.03.84-.35.26-.63.62-.97.9-.33.28-.6.64-.92.94-.32.3-.79.46-1.09.78-.3.33-.45.79-.73,1.11-.29.34-.73.54-1,.88-.28.35-.4.81-.65,1.16-.26.36-.5.72-.74,1.08-.25.37-.6.66-.82,1.03-.22.38-.38.8-.58,1.19-.2.39-.23.86-.41,1.26-.18.4-.47.75-.61,1.16-.15.41-.16.86-.28,1.28-.12.42-.4.8-.49,1.23-.09.43-.3.84-.37,1.27-.06.43.13.89.09,1.33-.03.43-.35.85-.36,1.3,0,.43.16.87.17,1.32.01.43.14.86.17,1.31.04.43.16.85.22,1.29.05.43-.16.9-.08,1.34.07.43.41.81.5,1.25.09.43.08.88.18,1.3.11.43-.01.92.12,1.34.13.42.3.84.46,1.25.16.41.43.78.61,1.18.18.4.6.68.81,1.07.21.39.33.81.56,1.18.23.37.3.85.56,1.21.26.35.69.57.98.91.28.33.45.77.76,1.09.3.31.68.49,1.01.78.32-.3.66-.5,1-.78.33-.29.53-.73.88-1,.34-.27.85-.32,1.21-.58.35-.26.77-.42,1.13-.66.37-.24.75-.43,1.13-.66s.65-.62,1.04-.82c.39-.2.74-.49,1.14-.67.4-.18.87-.2,1.27-.36.41-.16.74-.55,1.15-.68.42-.13.91-.01,1.33-.12.42-.11.87-.07,1.3-.15.18-.03.57-.47,1.13-.55.37-.06.79-.05,1.21-.11.42-.06.83-.15,1.19-.2.61-.09,1.1-.06,1.22-.05.15,0,.02.64.19.74.2.12.76.17,1.24.2.43.03.89-.13,1.16-.03.29-.14.09-.35.4-.26.31.09-.16.39.11.57.48.32.62.19,1.19.3.57.11.64-.24,1.21-.13.57.11.58.07,1.15.19.57.11.6.12,1.07.46.26.18-.4.23-.28.44M109.11,35.48c.38.18.79.41,1.28.54.43.12.9.22,1.35.34.46.12.96.06,1.38.2.47.16.85.41,1.22.64.25.15.65.29,1,.52.33.22.59.54.84.75.23.19.52.45.8.75.27.29.5.7.76.86.56.35-.02-.95.54-.6.27.17.58.52.98.91.3.28.58.64.91.99.3.32.65.62.95.96.3.34.77.54,1.05.88.31.37.38.9.63,1.23.34.43.84.64,1.03.91.26.38.49.77.72,1.14.24.39.18.95.39,1.33.22.4.45.78.64,1.17.2.41.47.77.63,1.18.17.42.54.77.67,1.19.14.43.3.87.4,1.3.11.44.06.91.14,1.35.07.44.27.88.32,1.32.04.44-.16.91-.14,1.36.02.44.18.89.18,1.34,0,.44.04.9.01,1.35-.03.44-.47.85-.51,1.31-.05.44-.13.87-.19,1.32-.06.44.24.94.16,1.39-.07.44-.53.81-.61,1.26-.08.41-.13.84-.21,1.27-.08.42.11.89.02,1.32-.09.42-.45.78-.55,1.2-.1.42.05.9-.05,1.31-.11.42-.44.77-.57,1.18-.13.41-.3.8-.45,1.2-.15.41-.05.91-.22,1.3-.18.4-.38.78-.59,1.15-.21.38-.56.66-.8,1.02-.24.36-.46.72-.74,1.04-.28.32-.45.77-.78,1.05-.32.28-.79.38-1.15.62-.26.17-.6.5-.81.73.29.33.94.5,1.23.85.28.34.25.95.52,1.31.27.36.69.61.95.98.26.37.44.79.68,1.17.25.39.75.62.96,1,.22.39.19.92.38,1.32.2.4.49.76.66,1.17.17.41.12.91.27,1.33.15.42.47.79.59,1.22.13.43.11.9.21,1.33.1.44.13.88.2,1.32.08.44.37.85.43,1.29.05.44-.08.9-.05,1.35.03.45,0,.89,0,1.33,0,.45.18.9.16,1.34-.02.45-.19.88-.23,1.33-.04.44.2.93.13,1.37-.07.44-.49.82-.58,1.26-.09.44-.1.89-.21,1.32-.11.43-.14.89-.27,1.32-.13.43-.2.88-.35,1.3-.16.42-.53.75-.71,1.16-.17.39-.16.85-.35,1.22-.19.37-.57.65-.78,1.01-.21.36-.26.82-.48,1.18-.22.36-.43.72-.66,1.07-.22.35-.57.63-.8.98-.22.35-.38.74-.6,1.1-.21.36-.25.67-.45,1.04.32.32.48.63.78.95.31.33.7.59.98.93.29.35.42.81.68,1.17.26.36.4.8.64,1.18.24.37.68.63.9,1.02.22.38.16.91.36,1.32.19.39.53.72.71,1.14.18.4.44.78.6,1.2.16.41.39.8.54,1.2.15.42.03.92.17,1.34.14.42.51.76.63,1.18.12.43.13.88.23,1.3.11.43-.04.91.04,1.33.09.43.18.85.25,1.28.06.43.23.85.27,1.28.04.44.33.86.35,1.29.02.43-.07.88-.08,1.32,0,.43-.23.86-.26,1.3-.03.43.15.88.1,1.32-.05.43-.27.84-.34,1.28-.07.43,0,.88-.09,1.32-.09.44-.29.85-.39,1.28-.11.43-.02.92-.14,1.34-.12.43-.51.78-.64,1.2-.14.42-.37.81-.53,1.22-.15.42-.35.81-.51,1.22-.17.41-.15.9-.33,1.3-.19.41-.29.85-.49,1.25-.2.4-.55.71-.77,1.1-.22.39-.22.91-.45,1.28-.23.38-.69.62-.93.99-.25.37-.61.65-.87,1.01-.26.36-.24.93-.52,1.28-.28.35-.62.65-.91.98-.29.34-.57.69-.87,1.01-.31.32-.68.58-1,.89-.32.31-.81.42-1.15.72-.33.3-.66.59-1,.86-.35.28-.58.7-.94.96-.36.26-.83.35-1.2.6-.37.25-.72.51-1.1.74-.38.23-.79.4-1.18.6-.39.21-.62.73-1.03.92-.4.19-.8.41-1.21.58-.41.17-.92.1-1.33.25-.42.15-.82.35-1.24.48-.42.13-.87.16-1.31.26-.43.1-.85.27-1.28.35-.44.08-.84.36-1.29.43-.44.06-.91-.08-1.35-.04-.44.04-.89-.17-1.34-.15-.44.01-.88.37-1.33.36-.44,0-.88-.17-1.33-.2-.44-.03-.87-.15-1.32-.2-.44-.05-.9.03-1.34-.04-.43-.07-.87-.16-1.31-.25-.43-.09-.83-.34-1.26-.46-.43-.11-.94.05-1.37-.09-.38-.12-.66-.66-1.1-.81-.39-.13-.89-.03-1.31-.19-.39-.15-.73-.5-1.14-.66-.4-.16-.92-.03-1.33-.2-.4-.17-.68-.62-1.08-.79-.4-.18-.92-.09-1.31-.28-.4-.19-.62-.73-1-.92-.39-.2-.88-.21-1.25-.42-.39-.22-.69-.57-1.04-.79-.39-.24-.95-.18-1.29-.42-.38-.27-.55-.76-.85-1.03-.32-.29-.82-.39-1.13-.69-.32-.3-.61-.62-.91-.92-.3-.31-.31-.9-.59-1.22-.29-.32-.75-.49-1.01-.83-.27-.34-.37-.79-.61-1.15-.25-.35-.64-.61-.85-.98-.22-.37-.57-.68-.76-1.07-.19-.38-.25-.83-.41-1.24-.15-.39-.04-.88-.16-1.3-.12-.41-.42-.76-.51-1.19-.09-.42-.02-.87-.08-1.31-.06-.43-.27-.84-.31-1.27-.04-.43-.06-.86-.09-1.3-.02-.43.08-.87.08-1.3,0-.43-.16-.87-.14-1.31.02-.43.13-.86.17-1.3.04-.43.2-.85.25-1.28.05-.43,0-.87.06-1.31.07-.43.15-.85.23-1.28.08-.43-.05-.9.05-1.33.1-.42.38-.81.49-1.23.11-.42.22-.84.35-1.26.12-.42.21-.85.35-1.26.14-.41.43-.77.58-1.18.15-.41.1-.9.26-1.3.16-.41.54-.72.72-1.12.17-.4.31-.82.49-1.21.19-.4.34-.8.54-1.19.2-.39.47-.73.68-1.11.21-.38.52-.71.74-1.08.22-.38.2-.9.43-1.26.24-.37.57-.67.81-1.03.25-.36.32-.85.58-1.2.26-.35.55-.58.82-.91-.23-.36-.32-.72-.55-1.08-.23-.36-.37-.78-.6-1.15-.23-.37-.71-.58-.92-.95-.22-.37-.26-.85-.47-1.22-.21-.38-.37-.78-.57-1.16s-.46-.73-.65-1.12c-.19-.39-.55-.69-.73-1.09-.17-.39-.02-.92-.18-1.32-.16-.4-.6-.69-.74-1.1-.14-.4-.11-.87-.23-1.28-.12-.42,0-.89-.1-1.31-.1-.43-.19-.83-.26-1.26-.07-.43-.15-.84-.19-1.27-.04-.43-.08-.85-.1-1.28-.01-.43-.1-.86-.09-1.29.01-.43-.23-.88-.19-1.32.04-.43.15-.86.21-1.29.06-.43.37-.82.46-1.24.08-.42.09-.86.19-1.28.1-.42.29-.81.41-1.23.12-.41.34-.79.48-1.2.14-.41-.07-.94.09-1.35.15-.4.43-.77.59-1.16.17-.4.59-.68.77-1.08.18-.39.2-.86.39-1.25.19-.39.49-.72.69-1.1.21-.38.49-.71.71-1.09.22-.38.17-.9.4-1.27.22-.37.57-.67.8-1.03.23-.37.52-.7.75-1.06.24-.36.62-.77.86-1.13-.24-.31-.89-.52-1.2-.87-.28-.31-.36-.84-.66-1.17-.3-.32-.59-.65-.87-.98-.3-.34-.83-.48-1.09-.81-.29-.38-.21-.95-.39-1.3-.17-.33-.49-.74-.67-1.27-.15-.45-.51-.86-.65-1.32-.15-.52.04-1.11-.07-1.49-.11-.38-.31-.74-.42-1.13-.12-.38-.32-.74-.42-1.13-.1-.39.06-.82,0-1.22-.06-.4-.22-.77-.21-1.17.01-.4.01-.83.12-1.22-.22-.11-.2.31-.41.18.17-.38.01-.68.02-1.04,0-.39.28-.79.22-1.17-.06-.38-.34-.73-.34-1.11,0-.45.25-.89.26-1.32.01-.45-.28-.91-.25-1.34.03-.45-.02-.9.03-1.33.05-.45.13-.89.2-1.32.07-.44.14-.89.23-1.32.1-.44.33-.84.45-1.26.12-.43.4-.8.55-1.22.15-.42.08-.92.25-1.33.17-.41.68-.66.87-1.06.2-.39.3-.83.52-1.21.22-.38.51-.71.75-1.08.23-.37.3-.85.55-1.22.25-.36.63-.62.9-.98.26-.35.58-.65.87-1,.27-.34.37-.83.66-1.17.28-.33.7-.56,1-.89.29-.32.71-.54,1.01-.87.27-.29.51-.63.86-.92.31-.26.46-.77.82-1.03.34-.24.91-.15,1.28-.39.35-.23.52-.77.9-.99.37-.21.89-.16,1.26-.36.38-.2.72-.47,1.1-.66.39-.19.76-.4,1.15-.57.4-.18.86-.18,1.25-.34.41-.17.66-.67,1.04-.82.42-.16.83-.29,1.21-.42.41-.14.89-.01,1.3-.12.42-.1.8-.31,1.23-.38.42-.07.86.09,1.29.05.42-.04.83-.27,1.26-.29.43-.01.85,0,1.28,0,.43,0,.85.03,1.28.05.43.02.85,0,1.28.03.43.03.84.19,1.27.21.43.03.87-.26,1.3-.23.43.03.84.23,1.27.25.43.02.85.07,1.28.08.43,0,.83.09,1.26.08"/><path d="M115.61,118.87c-.36.24-.76.38-1.13.6-.37.22-.74.42-1.12.61-.38.19-.69.54-1.08.71-.39.17-.82.25-1.22.4-.4.15-.77.38-1.18.52-.41.13-.85.14-1.26.26-.41.12-.81.27-1.23.38-.41.11-.86.09-1.27.19-.42.1-.79.39-1.21.48-.42.09-.85.11-1.27.2-.42.09-.85.14-1.27.22-.42.09-.83.24-1.24.33-.42.09-.81.42-1.23.51-.45-.04-.9-.36-1.34-.39-.45-.03-.91.22-1.35.2-.45-.02-.89-.07-1.33-.09-.45-.02-.87-.39-1.31-.42-.44-.03-.88-.04-1.32-.1-.44-.05-.89,0-1.33-.09-.43-.08-.92.06-1.36-.05-.42-.11-.87-.2-1.3-.35-.41-.14-.79-.43-1.21-.61-.33-.14-.82-.25-1.26-.51-.37-.21-.64-.65-1.03-.89-.4-.24-.87-.33-1.23-.54-.48-.27-.89-.41-1.19-.48-.43-.12-.84-.42-1.16-.24-.32.18-.67.49-.92.81-.24.31-.17.87-.38,1.16-.24.34-.8.48-1.04.86-.22.35-.43.75-.65,1.13-.21.37-.17.88-.37,1.27-.19.38-.64.64-.83,1.04-.18.39-.12.89-.29,1.29-.17.39-.54.71-.7,1.12-.15.4-.35.8-.49,1.21-.14.41-.01.91-.15,1.32-.13.41-.27.82-.39,1.24-.12.42-.38.8-.48,1.22-.1.42-.15.85-.24,1.28-.09.42.02.88-.06,1.31-.08.43-.34.82-.41,1.25-.06.43-.22.85-.27,1.28-.05.43.32.9.29,1.33-.03.43-.46.85-.47,1.28-.01.44.17.87.18,1.3.01.44-.06.88-.03,1.3.03.44.39.83.44,1.25.06.43-.14.9-.05,1.32.09.43.31.82.42,1.23.12.42.03.91.18,1.31.15.41.5.74.69,1.12.19.39.28.84.51,1.2.23.37.44.77.71,1.11.25.31.72.47,1.07.79.3.28.52.69.87.97.33.26.65.55,1.02.81.34.24.81.33,1.18.57.36.23.65.57,1.03.8.37.22.89.17,1.28.38.37.21.59.72.98.93.38.2.81.31,1.2.51.39.19.82.29,1.22.47.39.18.82.28,1.22.46.4.18.71.55,1.11.72.41.17.88.14,1.28.29.41.16.75.5,1.15.64.42.15.89.11,1.3.24.43.14.84.25,1.25.36.43.12.82.37,1.22.47.45.1.89.12,1.29.18.47.07.9-.05,1.29-.04.45.02.88.16,1.32.15.45-.01.88-.16,1.32-.19.45-.04.9.09,1.34.03.44-.06.91,0,1.34-.09.44-.09.82-.42,1.25-.53.43-.11.94.05,1.36-.09.42-.14.79-.44,1.21-.6.42-.16.79-.42,1.19-.6.41-.18.76-.45,1.16-.65.39-.2.92-.18,1.3-.4.38-.23.62-.68.99-.92.37-.25.8-.41,1.15-.67.36-.26.86-.34,1.21-.62.34-.28.67-.6,1-.89.33-.3.58-.69.9-1,.32-.31.44-.81.74-1.14.3-.33.67-.59.95-.93.29-.34.73-.56,1-.91.27-.35.36-.84.62-1.2.26-.36.64-.64.88-1.02.24-.37.34-.83.56-1.22.22-.38.53-.72.73-1.12.21-.39.21-.88.4-1.29.19-.4.61-.7.78-1.11.17-.41.43-.8.58-1.21.15-.42.33-.84.47-1.26.13-.42.05-.92.17-1.35.12-.43.12-.88.22-1.32.1-.43.34-.84.42-1.28.08-.44-.11-.91-.06-1.35.06-.44.35-.85.39-1.3.04-.44.2-.88.21-1.33.01-.44-.34-.89-.35-1.34,0-.44.05-.89.02-1.33-.03-.44-.1-.88-.15-1.32-.05-.44-.03-.89-.1-1.33-.07-.43.09-.9-.01-1.31-.1-.42-.23-.84-.36-1.25-.13-.41-.46-.76-.61-1.15-.16-.4-.15-.88-.33-1.26-.18-.39-.42-.76-.62-1.13-.2-.37-.38-.78-.6-1.14-.22-.36-.76-.52-1-.88-.24-.35-.52-.67-.77-1.01-.25-.34-.32-.83-.58-1.16-.26-.33-.59-.62-.87-.95-.27-.33-.49-.71-.77-1.04-.09,0-.5.35-.94.72-.28.23-.44.65-.72.89-.39.33-.92.36-1.06.46M116.28,114.43c-.36-.26-.67-.64-.98-.89-.34-.27-.67-.53-1-.78-.33-.26-.78-.36-1.14-.59-.34-.22-.66-.51-1.06-.7-.36-.17-.78-.24-1.21-.37-.41-.13-.79-.38-1.22-.5-.41-.12-.85-.19-1.28-.3-.42-.1-.82-.32-1.25-.41-.42-.09-.89.03-1.33-.05-.43-.07-.85-.21-1.29-.27-.43-.05-.87-.15-1.3-.18-.44-.04-.88,0-1.31-.01-.44-.01-.88.22-1.31.23-.44.01-.9-.24-1.32-.19-.44.05-.83.38-1.25.47-.51.1-.96.14-1.36.18-.45.05-.92-.24-1.39-.16-.24.04-.76.25-1.32.45-.41.15-.83.43-1.24.6-.53.22-.9.63-1.15.75-.37.18-.7.42-1.07.65-.35.22-.77.35-1.11.6-.34.25-.58.62-.91.89-.33.27-.8.37-1.11.66-.32.29-.52.7-.82.99-.31.3-.57.64-.86.93-.31.31-.95.46-1.24.75.32.26.72.68,1.08.92.34.23.9.15,1.26.37.36.21.55.75.93.94.38.19.79.35,1.17.51.39.17.89.06,1.28.19.41.13.75.52,1.15.61.41.09.9-.09,1.34-.02.42.06.83.35,1.28.39.43.05.87.13,1.31.16.43.03.88-.23,1.33-.22.43.01.87.04,1.31.03.43,0,.88.14,1.32.13.43-.02.87-.09,1.31-.12.44-.03.85-.26,1.29-.31.44-.05.89.1,1.33.04.44-.06.89-.02,1.32-.1.43-.08.79-.55,1.21-.65.43-.09.95.21,1.37.1.43-.11.81-.4,1.22-.53.42-.13.87-.18,1.28-.33.42-.15.71-.6,1.11-.77.41-.17.92-.11,1.3-.31.4-.2.72-.52,1.09-.74.38-.23.88-.29,1.22-.55.36-.27.58-.7.89-.99.43-.4,1.11-.88,1.1-1.52M118.66,111.9c.21-.36.54-.7.76-1.06.22-.36.42-.73.64-1.09.21-.36.26-.82.47-1.18.21-.37.49-.69.69-1.06.2-.37.3-.79.49-1.17.18-.38.47-.71.64-1.1.17-.39.29-.8.43-1.19.14-.39.39-.76.51-1.17.13-.44.05-.92.15-1.35.1-.44.26-.87.33-1.3.07-.45.18-.89.22-1.33.04-.45.02-.9.03-1.35.02-.45-.21-.89-.23-1.34-.02-.45.24-.91.19-1.35-.04-.44-.38-.85-.45-1.29-.07-.44-.14-.87-.24-1.31-.1-.43.11-.95-.02-1.38-.13-.42-.3-.85-.45-1.27-.15-.42-.41-.8-.59-1.22-.17-.41-.56-.72-.76-1.13-.21-.44-.46-.82-.7-1.23-.24-.41-.38-.88-.64-1.27-.26-.39-.65-.7-.93-1.09-.28-.39-.37-.91-.65-1.29-.28-.38-.61-.62-.88-1.02-.41.19-.65.45-1.03.69-.38.24-.97.16-1.35.42-.37.26-.75.49-1.13.74-.38.25-.57.8-.98,1.01-.33.17-.91.02-1.39.23-.38.17-.78.36-1.24.54-.4.16-.72.58-1.16.75-.41.15-.93.04-1.37.19-.42.15-.77.54-1.2.68-.43.14-.93.06-1.36.19-.44.13-.88.22-1.31.34-.45.12-.81.51-1.25.61-.46.11-.91.19-1.34.28-.47.09-.94.02-1.36.08-.49.07-.93.16-1.34.18-.53.02-1.02.17-1.37.08-.44-.12-.32-.74-.78-.88-.45-.14-.86-.36-1.28-.47-.45-.12-.99.16-1.42.06-.45-.11-.79-.61-1.22-.72-.44-.11-.92-.05-1.36-.17-.43-.12-.83-.33-1.27-.48-.42-.14-.95,0-1.39-.17-.41-.16-.72-.59-1.15-.78-.21-.1-.64-.2-1.08-.46-.32-.18-.55-.59-.89-.79-.35-.21-.8-.25-1.11-.43-.52-.3-.89-.65-1-.67-.34-.05-.62.25-.8.45-.25.27-.35.79-.64,1.23-.23.34-.62.64-.86,1.06-.22.37-.48.75-.7,1.16-.21.39-.25.88-.46,1.29-.2.4-.52.75-.71,1.16-.19.41-.11.95-.29,1.36-.19.42-.69.7-.86,1.11-.18.43-.27.89-.42,1.29-.17.45-.23.91-.37,1.31-.17.49-.21.95-.29,1.31-.1.43-.41.82-.47,1.25-.07.44.08.9.04,1.33-.04.44-.27.86-.28,1.3-.01.44.19.88.2,1.31.02.44.06.87.11,1.31.05.44-.04.89.03,1.32.07.43.22.85.32,1.28.1.43.37.8.49,1.23.12.42.11.88.26,1.29.14.42.41.78.57,1.19.16.41.17.88.35,1.28.18.4.25.86.45,1.25.2.39.62.66.84,1.04.22.38.19.91.42,1.28.23.37.61.65.86,1.01.25.36.52.63.78.98.33-.32.54-.66.87-.97.33-.31.86-.41,1.19-.71.34-.3.52-.79.86-1.08.35-.29.78-.49,1.13-.76.36-.28.87-.34,1.24-.6.37-.26.72-.52,1.11-.76.38-.24.71-.56,1.11-.77.39-.21.69-.65,1.1-.84.41-.19.87-.27,1.3-.44.42-.16.91-.11,1.35-.24.44-.13.81-.46,1.23-.58.44-.12.92-.06,1.34-.16.44-.1.85-.33,1.28-.41.45-.08.9-.04,1.34-.1.45-.05.87-.31,1.32-.33.45-.03.9.22,1.35.22.44,0,.88.1,1.33.13.44.02.87.09,1.32.14.44.05.9-.11,1.35-.04.43.07.89.04,1.34.13.43.09.83.34,1.28.45.43.1.92-.04,1.37.08.41.11.75.47,1.16.61.4.13.76.39,1.16.54.4.15.93-.03,1.32.13.39.17.76.41,1.14.6.38.19.78.35,1.16.56.37.21.7.5,1.06.72.36.23.57.67.92.92.35.25.69.49,1.01.76.16.13.37.03.5-.06M97.72,73.84c-.35.05-.86.07-1.39.22-.42.11-.87.26-1.34.41-.44.14-.83.47-1.27.62-.46.16-.94.24-1.34.4-.51.2-.92.48-1.24.64-.18.09-.66.24-1.2.59-.33.21-.69.5-1.08.76-.36.25-.81.4-1.17.65-.39.27-.65.7-.97.94-.58.43-1.03.82-1.03.92.36.28.73.6,1.13.85.39.25.82.44,1.24.67.41.22.92.23,1.35.44.42.2.73.65,1.16.83.43.18.97.09,1.4.24.45.16.88.32,1.32.45.37.11.69.55,1.14.68.4.11.83.19,1.25.29.42.1.86.1,1.28.19.43.1.9-.05,1.3.03.46.08.88.11,1.26.15.35.04.75.16,1.24.1.39-.05.77-.26,1.22-.35.4-.09.86.04,1.29-.07.4-.11.77-.38,1.18-.51.41-.12.79-.32,1.2-.45.41-.14.95.1,1.34-.04.42-.15.83-.27,1.22-.42.43-.16.69-.66,1.06-.81.45-.18,1,0,1.33-.15.37-.17.74-.37,1.11-.56.37-.19.6-.63.96-.84.36-.21.87-.21,1.19-.46.33-.25.47-.69.76-.98-.29-.36-.51-.79-.9-1.01-.39-.23-.81-.46-1.21-.65-.37-.18-.88-.11-1.28-.29-.38-.18-.76-.37-1.15-.55-.38-.17-.72-.48-1.11-.65-.39-.16-.81-.28-1.21-.44-.4-.16-.86-.12-1.27-.27-.4-.14-.74-.47-1.15-.6-.41-.13-.8-.35-1.21-.46-.42-.11-.92.18-1.34.1-.42-.09-.77-.57-1.19-.63-.43-.06-.88.07-1.3.05-.43-.03-.86-.13-1.28-.11-.43.01-.87.04-1.29.1M108,73.07c.39-.15.8,0,1.16.09.35.09.68.22,1.05.36.37.14.81.13,1.19.29.37.16.7.41,1.07.59.36.18.77.27,1.13.46.36.19.66.49,1.01.69.36.2.73.37,1.07.57.35.21.76.55,1.1.77.33-.29.63-.79.95-1.1.32-.31.68-.58.97-.91.3-.33.62-.64.9-.99.28-.35.5-.74.75-1.1.26-.36.31-.85.54-1.23.23-.38.7-.61.91-1s.16-.91.35-1.31c.19-.4.38-.79.55-1.2.17-.41.64-.7.78-1.12.14-.42.25-.86.37-1.28.12-.42.13-.88.23-1.31.1-.43-.04-.91.04-1.34.08-.43.11-.87.17-1.3.06-.44.24-.85.28-1.29.04-.44-.07-.88-.05-1.32.02-.44.26-.87.26-1.32,0-.44-.19-.88-.24-1.33-.05-.44-.18-.86-.26-1.3-.09-.44.2-.96.08-1.4-.12-.43-.24-.88-.39-1.3-.15-.42-.66-.7-.84-1.12-.18-.41-.03-.98-.23-1.38-.2-.4-.45-.79-.67-1.18-.23-.38-.7-.62-.95-1-.25-.37-.27-.91-.54-1.27-.27-.36-.75-.56-1.03-.91-.28-.35-.41-.84-.71-1.17-.3-.33-.59-.69-.91-1.01-.32-.32-.84-.43-1.17-.72-.34-.3-.66-.6-1.01-.88-.35-.28-.62-.68-.98-.94-.37-.26-.77-.47-1.15-.71-.38-.24-.87-.3-1.26-.51-.4-.22-.71-.59-1.11-.78-.41-.19-.8-.46-1.21-.61-.43-.15-.97.1-1.4-.02-.44-.12-.79-.61-1.23-.68-.43-.07-.9.04-1.34,0-.44-.05-.87-.19-1.31-.23-.44-.04-.9.25-1.33.23-.44-.02-.87-.3-1.31-.3-.44,0-.88.13-1.32.15-.44.02-.9-.18-1.33-.15-.44.04-.86.27-1.3.33-.44.05-.89-.01-1.33.06-.43.07-.88.1-1.31.19-.43.1-.8.43-1.23.55-.43.12-.9.08-1.31.21s-.85.25-1.26.41c-.41.16-.75.5-1.15.68-.4.18-.86.25-1.25.45-.39.2-.63.68-1.01.9-.38.22-.94.16-1.3.4-.37.24-.68.58-1.03.84-.35.26-.63.62-.97.9-.33.28-.6.64-.92.94-.32.3-.79.46-1.09.78-.3.33-.45.79-.73,1.11-.29.34-.73.54-1,.88-.28.35-.4.81-.65,1.16-.26.36-.5.72-.74,1.08-.25.37-.6.66-.82,1.03-.22.38-.38.8-.58,1.19-.2.39-.23.86-.41,1.26-.18.4-.47.75-.61,1.16-.15.41-.16.86-.28,1.28-.12.42-.4.8-.49,1.23-.09.43-.3.84-.37,1.27-.06.43.13.89.09,1.33-.03.43-.35.85-.36,1.3,0,.43.16.87.17,1.32.01.43.14.86.17,1.31.04.43.16.85.22,1.29.05.43-.16.9-.08,1.34.07.43.41.81.5,1.25.09.43.08.88.18,1.3.11.43-.01.92.12,1.34.13.42.3.84.46,1.25.16.41.43.78.61,1.18.18.4.6.68.81,1.07.21.39.33.81.56,1.18.23.37.3.85.56,1.21.26.35.69.57.98.91.28.33.45.77.76,1.09.3.31.68.49,1.01.78.32-.3.66-.5,1-.78.33-.29.53-.73.88-1,.34-.27.85-.32,1.21-.58.35-.26.77-.42,1.13-.66.37-.24.75-.43,1.13-.66s.65-.62,1.04-.82c.39-.2.74-.49,1.14-.67.4-.18.87-.2,1.27-.36.41-.16.74-.55,1.15-.68.42-.13.91-.01,1.33-.12.42-.11.87-.07,1.3-.15.18-.03.57-.47,1.13-.55.37-.06.79-.05,1.21-.11.42-.06.83-.15,1.19-.2.61-.09,1.1-.06,1.22-.05.15,0,.02.64.19.74.2.12.76.17,1.24.2.43.03.89-.13,1.16-.03.29-.14.09-.35.4-.26.31.09-.16.39.11.57.48.32.62.19,1.19.3.57.11.64-.24,1.21-.13.57.11.58.07,1.15.19.57.11.6.12,1.07.46.26.18-.4.23-.28.44M109.11,35.48c.38.18.79.41,1.28.54.43.12.9.22,1.35.34.46.12.96.06,1.38.2.47.16.85.41,1.22.64.25.15.65.29,1,.52.33.22.59.54.84.75.23.19.52.45.8.75.27.29.5.7.76.86.56.35-.02-.95.54-.6.27.17.58.52.98.91.3.28.58.64.91.99.3.32.65.62.95.96.3.34.77.54,1.05.88.31.37.38.9.63,1.23.34.43.84.64,1.03.91.26.38.49.77.72,1.14.24.39.18.95.39,1.33.22.4.45.78.64,1.17.2.41.47.77.63,1.18.17.42.54.77.67,1.19.14.43.3.87.4,1.3.11.44.06.91.14,1.35.07.44.27.88.32,1.32.04.44-.16.91-.14,1.36.02.44.18.89.18,1.34,0,.44.04.9.01,1.35-.03.44-.47.85-.51,1.31-.05.44-.13.87-.19,1.32-.06.44.24.94.16,1.39-.07.44-.53.81-.61,1.26-.08.41-.13.84-.21,1.27-.08.42.11.89.02,1.32-.09.42-.45.78-.55,1.2-.1.42.05.9-.05,1.31-.11.42-.44.77-.57,1.18-.13.41-.3.8-.45,1.2-.15.41-.05.91-.22,1.3-.18.4-.38.78-.59,1.15-.21.38-.56.66-.8,1.02-.24.36-.46.72-.74,1.04-.28.32-.45.77-.78,1.05-.32.28-.79.38-1.15.62-.26.17-.6.5-.81.73.29.33.94.5,1.23.85.28.34.25.95.52,1.31.27.36.69.61.95.98.26.37.44.79.68,1.17.25.39.75.62.96,1,.22.39.19.92.38,1.32.2.4.49.76.66,1.17.17.41.12.91.27,1.33.15.42.47.79.59,1.22.13.43.11.9.21,1.33.1.44.13.88.2,1.32.08.44.37.85.43,1.29.05.44-.08.9-.05,1.35.03.45,0,.89,0,1.33,0,.45.18.9.16,1.34-.02.45-.19.88-.23,1.33-.04.44.2.93.13,1.37-.07.44-.49.82-.58,1.26-.09.44-.1.89-.21,1.32-.11.43-.14.89-.27,1.32-.13.43-.2.88-.35,1.3-.16.42-.53.75-.71,1.16-.17.39-.16.85-.35,1.22-.19.37-.57.65-.78,1.01-.21.36-.26.82-.48,1.18-.22.36-.43.72-.66,1.07-.22.35-.57.63-.8.98-.22.35-.38.74-.6,1.1-.21.36-.25.67-.45,1.04.32.32.48.63.78.95.31.33.7.59.98.93.29.35.42.81.68,1.17.26.36.4.8.64,1.18.24.37.68.63.9,1.02.22.38.16.91.36,1.32.19.39.53.72.71,1.14.18.4.44.78.6,1.2.16.41.39.8.54,1.2.15.42.03.92.17,1.34.14.42.51.76.63,1.18.12.43.13.88.23,1.3.11.43-.04.91.04,1.33.09.43.18.85.25,1.28.06.43.23.85.27,1.28.04.44.33.86.35,1.29.02.43-.07.88-.08,1.32,0,.43-.23.86-.26,1.3-.03.43.15.88.1,1.32-.05.43-.27.84-.34,1.28-.07.43,0,.88-.09,1.32-.09.44-.29.85-.39,1.28-.11.43-.02.92-.14,1.34-.12.43-.51.78-.64,1.2-.14.42-.37.81-.53,1.22-.15.42-.35.81-.51,1.22-.17.41-.15.9-.33,1.3-.19.41-.29.85-.49,1.25-.2.4-.55.71-.77,1.1-.22.39-.22.91-.45,1.28-.23.38-.69.62-.93.99-.25.37-.61.65-.87,1.01-.26.36-.24.93-.52,1.28-.28.35-.62.65-.91.98-.29.34-.57.69-.87,1.01-.31.32-.68.58-1,.89-.32.31-.81.42-1.15.72-.33.3-.66.59-1,.86-.35.28-.58.7-.94.96-.36.26-.83.35-1.2.6-.37.25-.72.51-1.1.74-.38.23-.79.4-1.18.6-.39.21-.62.73-1.03.92-.4.19-.8.41-1.21.58-.41.17-.92.1-1.33.25-.42.15-.82.35-1.24.48-.42.13-.87.16-1.31.26-.43.1-.85.27-1.28.35-.44.08-.84.36-1.29.43-.44.06-.91-.08-1.35-.04-.44.04-.89-.17-1.34-.15-.44.01-.88.37-1.33.36-.44,0-.88-.17-1.33-.2-.44-.03-.87-.15-1.32-.2-.44-.05-.9.03-1.34-.04-.43-.07-.87-.16-1.31-.25-.43-.09-.83-.34-1.26-.46-.43-.11-.94.05-1.37-.09-.38-.12-.66-.66-1.1-.81-.39-.13-.89-.03-1.31-.19-.39-.15-.73-.5-1.14-.66-.4-.16-.92-.03-1.33-.2-.4-.17-.68-.62-1.08-.79-.4-.18-.92-.09-1.31-.28-.4-.19-.62-.73-1-.92-.39-.2-.88-.21-1.25-.42-.39-.22-.69-.57-1.04-.79-.39-.24-.95-.18-1.29-.42-.38-.27-.55-.76-.85-1.03-.32-.29-.82-.39-1.13-.69-.32-.3-.61-.62-.91-.92-.3-.31-.31-.9-.59-1.22-.29-.32-.75-.49-1.01-.83-.27-.34-.37-.79-.61-1.15-.25-.35-.64-.61-.85-.98-.22-.37-.57-.68-.76-1.07-.19-.38-.25-.83-.41-1.24-.15-.39-.04-.88-.16-1.3-.12-.41-.42-.76-.51-1.19-.09-.42-.02-.87-.08-1.31-.06-.43-.27-.84-.31-1.27-.04-.43-.06-.86-.09-1.3-.02-.43.08-.87.08-1.3,0-.43-.16-.87-.14-1.31.02-.43.13-.86.17-1.3.04-.43.2-.85.25-1.28.05-.43,0-.87.06-1.31.07-.43.15-.85.23-1.28.08-.43-.05-.9.05-1.33.1-.42.38-.81.49-1.23.11-.42.22-.84.35-1.26.12-.42.21-.85.35-1.26.14-.41.43-.77.58-1.18.15-.41.1-.9.26-1.3.16-.41.54-.72.72-1.12.17-.4.31-.82.49-1.21.19-.4.34-.8.54-1.19.2-.39.47-.73.68-1.11.21-.38.52-.71.74-1.08.22-.38.2-.9.43-1.26.24-.37.57-.67.81-1.03.25-.36.32-.85.58-1.2.26-.35.55-.58.82-.91-.23-.36-.32-.72-.55-1.08-.23-.36-.37-.78-.6-1.15-.23-.37-.71-.58-.92-.95-.22-.37-.26-.85-.47-1.22-.21-.38-.37-.78-.57-1.16s-.46-.73-.65-1.12c-.19-.39-.55-.69-.73-1.09-.17-.39-.02-.92-.18-1.32-.16-.4-.6-.69-.74-1.1-.14-.4-.11-.87-.23-1.28-.12-.42,0-.89-.1-1.31-.1-.43-.19-.83-.26-1.26-.07-.43-.15-.84-.19-1.27-.04-.43-.08-.85-.1-1.28-.01-.43-.1-.86-.09-1.29.01-.43-.23-.88-.19-1.32.04-.43.15-.86.21-1.29.06-.43.37-.82.46-1.24.08-.42.09-.86.19-1.28.1-.42.29-.81.41-1.23.12-.41.34-.79.48-1.2.14-.41-.07-.94.09-1.35.15-.4.43-.77.59-1.16.17-.4.59-.68.77-1.08.18-.39.2-.86.39-1.25.19-.39.49-.72.69-1.1.21-.38.49-.71.71-1.09.22-.38.17-.9.4-1.27.22-.37.57-.67.8-1.03.23-.37.52-.7.75-1.06.24-.36.62-.77.86-1.13-.24-.31-.89-.52-1.2-.87-.28-.31-.36-.84-.66-1.17-.3-.32-.59-.65-.87-.98-.3-.34-.83-.48-1.09-.81-.29-.38-.21-.95-.39-1.3-.17-.33-.49-.74-.67-1.27-.15-.45-.51-.86-.65-1.32-.15-.52.04-1.11-.07-1.49-.11-.38-.31-.74-.42-1.13-.12-.38-.32-.74-.42-1.13-.1-.39.06-.82,0-1.22-.06-.4-.22-.77-.21-1.17.01-.4.01-.83.12-1.22-.22-.11-.2.31-.41.18.17-.38.01-.68.02-1.04,0-.39.28-.79.22-1.17-.06-.38-.34-.73-.34-1.11,0-.45.25-.89.26-1.32.01-.45-.28-.91-.25-1.34.03-.45-.02-.9.03-1.33.05-.45.13-.89.2-1.32.07-.44.14-.89.23-1.32.1-.44.33-.84.45-1.26.12-.43.4-.8.55-1.22.15-.42.08-.92.25-1.33.17-.41.68-.66.87-1.06.2-.39.3-.83.52-1.21.22-.38.51-.71.75-1.08.23-.37.3-.85.55-1.22.25-.36.63-.62.9-.98.26-.35.58-.65.87-1,.27-.34.37-.83.66-1.17.28-.33.7-.56,1-.89.29-.32.71-.54,1.01-.87.27-.29.51-.63.86-.92.31-.26.46-.77.82-1.03.34-.24.91-.15,1.28-.39.35-.23.52-.77.9-.99.37-.21.89-.16,1.26-.36.38-.2.72-.47,1.1-.66.39-.19.76-.4,1.15-.57.4-.18.86-.18,1.25-.34.41-.17.66-.67,1.04-.82.42-.16.83-.29,1.21-.42.41-.14.89-.01,1.3-.12.42-.1.8-.31,1.23-.38.42-.07.86.09,1.29.05.42-.04.83-.27,1.26-.29.43-.01.85,0,1.28,0,.43,0,.85.03,1.28.05.43.02.85,0,1.28.03.43.03.84.19,1.27.21.43.03.87-.26,1.3-.23.43.03.84.23,1.27.25.43.02.85.07,1.28.08.43,0,.83.09,1.26.08"/><path d="M115.61,118.87c-.36.24-.76.38-1.13.6-.37.22-.74.42-1.12.61-.38.19-.69.54-1.08.71-.39.17-.82.25-1.22.4-.4.15-.77.38-1.18.52-.41.13-.85.14-1.26.26-.41.12-.81.27-1.23.38-.41.11-.86.09-1.27.19-.42.1-.79.39-1.21.48-.42.09-.85.11-1.27.2-.42.09-.85.14-1.27.22-.42.09-.83.24-1.24.33-.42.09-.81.42-1.23.51-.45-.04-.9-.36-1.34-.39-.45-.03-.91.22-1.35.2-.45-.02-.89-.07-1.33-.09-.45-.02-.87-.39-1.31-.42-.44-.03-.88-.04-1.32-.1-.44-.05-.89,0-1.33-.09-.43-.08-.92.06-1.36-.05-.42-.11-.87-.2-1.3-.35-.41-.14-.79-.43-1.21-.61-.33-.14-.82-.25-1.26-.51-.37-.21-.64-.65-1.03-.89-.4-.24-.87-.33-1.23-.54-.48-.27-.89-.41-1.19-.48-.43-.12-.84-.42-1.16-.24-.32.18-.67.49-.92.81-.24.31-.17.87-.38,1.16-.24.34-.8.48-1.04.86-.22.35-.43.75-.65,1.13-.21.37-.17.88-.37,1.27-.19.38-.64.64-.83,1.04-.18.39-.12.89-.29,1.29-.17.39-.54.71-.7,1.12-.15.4-.35.8-.49,1.21-.14.41-.01.91-.15,1.32-.13.41-.27.82-.39,1.24-.12.42-.38.8-.48,1.22-.1.42-.15.85-.24,1.28-.09.42.02.88-.06,1.31-.08.43-.34.82-.41,1.25-.06.43-.22.85-.27,1.28-.05.43.32.9.29,1.33-.03.43-.46.85-.47,1.28-.01.44.17.87.18,1.3.01.44-.06.88-.03,1.3.03.44.39.83.44,1.25.06.43-.14.9-.05,1.32.09.43.31.82.42,1.23.12.42.03.91.18,1.31.15.41.5.74.69,1.12.19.39.28.84.51,1.2.23.37.44.77.71,1.11.25.31.72.47,1.07.79.3.28.52.69.87.97.33.26.65.55,1.02.81.34.24.81.33,1.18.57.36.23.65.57,1.03.8.37.22.89.17,1.28.38.37.21.59.72.98.93.38.2.81.31,1.2.51.39.19.82.29,1.22.47.39.18.82.28,1.22.46.4.18.71.55,1.11.72.41.17.88.14,1.28.29.41.16.75.5,1.15.64.42.15.89.11,1.3.24.43.14.84.25,1.25.36.43.12.82.37,1.22.47.45.1.89.12,1.29.18.47.07.9-.05,1.29-.04.45.02.88.16,1.32.15.45-.01.88-.16,1.32-.19.45-.04.9.09,1.34.03.44-.06.91,0,1.34-.09.44-.09.82-.42,1.25-.53.43-.11.94.05,1.36-.09.42-.14.79-.44,1.21-.6.42-.16.79-.42,1.19-.6.41-.18.76-.45,1.16-.65.39-.2.92-.18,1.3-.4.38-.23.62-.68.99-.92.37-.25.8-.41,1.15-.67.36-.26.86-.34,1.21-.62.34-.28.67-.6,1-.89.33-.3.58-.69.9-1,.32-.31.44-.81.74-1.14.3-.33.67-.59.95-.93.29-.34.73-.56,1-.91.27-.35.36-.84.62-1.2.26-.36.64-.64.88-1.02.24-.37.34-.83.56-1.22.22-.38.53-.72.73-1.12.21-.39.21-.88.4-1.29.19-.4.61-.7.78-1.11.17-.41.43-.8.58-1.21.15-.42.33-.84.47-1.26.13-.42.05-.92.17-1.35.12-.43.12-.88.22-1.32.1-.43.34-.84.42-1.28.08-.44-.11-.91-.06-1.35.06-.44.35-.85.39-1.3.04-.44.2-.88.21-1.33.01-.44-.34-.89-.35-1.34,0-.44.05-.89.02-1.33-.03-.44-.1-.88-.15-1.32-.05-.44-.03-.89-.1-1.33-.07-.43.09-.9-.01-1.31-.1-.42-.23-.84-.36-1.25-.13-.41-.46-.76-.61-1.15-.16-.4-.15-.88-.33-1.26-.18-.39-.42-.76-.62-1.13-.2-.37-.38-.78-.6-1.14-.22-.36-.76-.52-1-.88-.24-.35-.52-.67-.77-1.01-.25-.34-.32-.83-.58-1.16-.26-.33-.59-.62-.87-.95-.27-.33-.49-.71-.77-1.04-.09,0-.5.35-.94.72-.28.23-.44.65-.72.89-.39.33-.92.36-1.06.46M116.28,114.43c-.36-.26-.67-.64-.98-.89-.34-.27-.67-.53-1-.78-.33-.26-.78-.36-1.14-.59-.34-.22-.66-.51-1.06-.7-.36-.17-.78-.24-1.21-.37-.41-.13-.79-.38-1.22-.5-.41-.12-.85-.19-1.28-.3-.42-.1-.82-.32-1.25-.41-.42-.09-.89.03-1.33-.05-.43-.07-.85-.21-1.29-.27-.43-.05-.87-.15-1.3-.18-.44-.04-.88,0-1.31-.01-.44-.01-.88.22-1.31.23-.44.01-.9-.24-1.32-.19-.44.05-.83.38-1.25.47-.51.1-.96.14-1.36.18-.45.05-.92-.24-1.39-.16-.24.04-.76.25-1.32.45-.41.15-.83.43-1.24.6-.53.22-.9.63-1.15.75-.37.18-.7.42-1.07.65-.35.22-.77.35-1.11.6-.34.25-.58.62-.91.89-.33.27-.8.37-1.11.66-.32.29-.52.7-.82.99-.31.3-.57.64-.86.93-.31.31-.95.46-1.24.75.32.26.72.68,1.08.92.34.23.9.15,1.26.37.36.21.55.75.93.94.38.19.79.35,1.17.51.39.17.89.06,1.28.19.41.13.75.52,1.15.61.41.09.9-.09,1.34-.02.42.06.83.35,1.28.39.43.05.87.13,1.31.16.43.03.88-.23,1.33-.22.43.01.87.04,1.31.03.43,0,.88.14,1.32.13.43-.02.87-.09,1.31-.12.44-.03.85-.26,1.29-.31.44-.05.89.1,1.33.04.44-.06.89-.02,1.32-.1.43-.08.79-.55,1.21-.65.43-.09.95.21,1.37.1.43-.11.81-.4,1.22-.53.42-.13.87-.18,1.28-.33.42-.15.71-.6,1.11-.77.41-.17.92-.11,1.3-.31.4-.2.72-.52,1.09-.74.38-.23.88-.29,1.22-.55.36-.27.58-.7.89-.99.43-.4,1.11-.88,1.1-1.52M118.66,111.9c.21-.36.54-.7.76-1.06.22-.36.42-.73.64-1.09.21-.36.26-.82.47-1.18.21-.37.49-.69.69-1.06.2-.37.3-.79.49-1.17.18-.38.47-.71.64-1.1.17-.39.29-.8.43-1.19.14-.39.39-.76.51-1.17.13-.44.05-.92.15-1.35.1-.44.26-.87.33-1.3.07-.45.18-.89.22-1.33.04-.45.02-.9.03-1.35.02-.45-.21-.89-.23-1.34-.02-.45.24-.91.19-1.35-.04-.44-.38-.85-.45-1.29-.07-.44-.14-.87-.24-1.31-.1-.43.11-.95-.02-1.38-.13-.42-.3-.85-.45-1.27-.15-.42-.41-.8-.59-1.22-.17-.41-.56-.72-.76-1.13-.21-.44-.46-.82-.7-1.23-.24-.41-.38-.88-.64-1.27-.26-.39-.65-.7-.93-1.09-.28-.39-.37-.91-.65-1.29-.28-.38-.61-.62-.88-1.02-.41.19-.65.45-1.03.69-.38.24-.97.16-1.35.42-.37.26-.75.49-1.13.74-.38.25-.57.8-.98,1.01-.33.17-.91.02-1.39.23-.38.17-.78.36-1.24.54-.4.16-.72.58-1.16.75-.41.15-.93.04-1.37.19-.42.15-.77.54-1.2.68-.43.14-.93.06-1.36.19-.44.13-.88.22-1.31.34-.45.12-.81.51-1.25.61-.46.11-.91.19-1.34.28-.47.09-.94.02-1.36.08-.49.07-.93.16-1.34.18-.53.02-1.02.17-1.37.08-.44-.12-.32-.74-.78-.88-.45-.14-.86-.36-1.28-.47-.45-.12-.99.16-1.42.06-.45-.11-.79-.61-1.22-.72-.44-.11-.92-.05-1.36-.17-.43-.12-.83-.33-1.27-.48-.42-.14-.95,0-1.39-.17-.41-.16-.72-.59-1.15-.78-.21-.1-.64-.2-1.08-.46-.32-.18-.55-.59-.89-.79-.35-.21-.8-.25-1.11-.43-.52-.3-.89-.65-1-.67-.34-.05-.62.25-.8.45-.25.27-.35.79-.64,1.23-.23.34-.62.64-.86,1.06-.22.37-.48.75-.7,1.16-.21.39-.25.88-.46,1.29-.2.4-.52.75-.71,1.16-.19.41-.11.95-.29,1.36-.19.42-.69.7-.86,1.11-.18.43-.27.89-.42,1.29-.17.45-.23.91-.37,1.31-.17.49-.21.95-.29,1.31-.1.43-.41.82-.47,1.25-.07.44.08.9.04,1.33-.04.44-.27.86-.28,1.3-.01.44.19.88.2,1.31.02.44.06.87.11,1.31.05.44-.04.89.03,1.32.07.43.22.85.32,1.28.1.43.37.8.49,1.23.12.42.11.88.26,1.29.14.42.41.78.57,1.19.16.41.17.88.35,1.28.18.4.25.86.45,1.25.2.39.62.66.84,1.04.22.38.19.91.42,1.28.23.37.61.65.86,1.01.25.36.52.63.78.98.33-.32.54-.66.87-.97.33-.31.86-.41,1.19-.71.34-.3.52-.79.86-1.08.35-.29.78-.49,1.13-.76.36-.28.87-.34,1.24-.6.37-.26.72-.52,1.11-.76.38-.24.71-.56,1.11-.77.39-.21.69-.65,1.1-.84.41-.19.87-.27,1.3-.44.42-.16.91-.11,1.35-.24.44-.13.81-.46,1.23-.58.44-.12.92-.06,1.34-.16.44-.1.85-.33,1.28-.41.45-.08.9-.04,1.34-.1.45-.05.87-.31,1.32-.33.45-.03.9.22,1.35.22.44,0,.88.1,1.33.13.44.02.87.09,1.32.14.44.05.9-.11,1.35-.04.43.07.89.04,1.34.13.43.09.83.34,1.28.45.43.1.92-.04,1.37.08.41.11.75.47,1.16.61.4.13.76.39,1.16.54.4.15.93-.03,1.32.13.39.17.76.41,1.14.6.38.19.78.35,1.16.56.37.21.7.5,1.06.72.36.23.57.67.92.92.35.25.69.49,1.01.76.16.13.37.03.5-.06M97.72,73.84c-.35.05-.86.07-1.39.22-.42.11-.87.26-1.34.41-.44.14-.83.47-1.27.62-.46.16-.94.24-1.34.4-.51.2-.92.48-1.24.64-.18.09-.66.24-1.2.59-.33.21-.69.5-1.08.76-.36.25-.81.4-1.17.65-.39.27-.65.7-.97.94-.58.43-1.03.82-1.03.92.36.28.73.6,1.13.85.39.25.82.44,1.24.67.41.22.92.23,1.35.44.42.2.73.65,1.16.83.43.18.97.09,1.4.24.45.16.88.32,1.32.45.37.11.69.55,1.14.68.4.11.83.19,1.25.29.42.1.86.1,1.28.19.43.1.9-.05,1.3.03.46.08.88.11,1.26.15.35.04.75.16,1.24.1.39-.05.77-.26,1.22-.35.4-.09.86.04,1.29-.07.4-.11.77-.38,1.18-.51.41-.12.79-.32,1.2-.45.41-.14.95.1,1.34-.04.42-.15.83-.27,1.22-.42.43-.16.69-.66,1.06-.81.45-.18,1,0,1.33-.15.37-.17.74-.37,1.11-.56.37-.19.6-.63.96-.84.36-.21.87-.21,1.19-.46.33-.25.47-.69.76-.98-.29-.36-.51-.79-.9-1.01-.39-.23-.81-.46-1.21-.65-.37-.18-.88-.11-1.28-.29-.38-.18-.76-.37-1.15-.55-.38-.17-.72-.48-1.11-.65-.39-.16-.81-.28-1.21-.44-.4-.16-.86-.12-1.27-.27-.4-.14-.74-.47-1.15-.6-.41-.13-.8-.35-1.21-.46-.42-.11-.92.18-1.34.1-.42-.09-.77-.57-1.19-.63-.43-.06-.88.07-1.3.05-.43-.03-.86-.13-1.28-.11-.43.01-.87.04-1.29.1M108,73.07c.39-.15.8,0,1.16.09.35.09.68.22,1.05.36.37.14.81.13,1.19.29.37.16.7.41,1.07.59.36.18.77.27,1.13.46.36.19.66.49,1.01.69.36.2.73.37,1.07.57.35.21.76.55,1.1.77.33-.29.63-.79.95-1.1.32-.31.68-.58.97-.91.3-.33.62-.64.9-.99.28-.35.5-.74.75-1.1.26-.36.31-.85.54-1.23.23-.38.7-.61.91-1s.16-.91.35-1.31c.19-.4.38-.79.55-1.2.17-.41.64-.7.78-1.12.14-.42.25-.86.37-1.28.12-.42.13-.88.23-1.31.1-.43-.04-.91.04-1.34.08-.43.11-.87.17-1.3.06-.44.24-.85.28-1.29.04-.44-.07-.88-.05-1.32.02-.44.26-.87.26-1.32,0-.44-.19-.88-.24-1.33-.05-.44-.18-.86-.26-1.3-.09-.44.2-.96.08-1.4-.12-.43-.24-.88-.39-1.3-.15-.42-.66-.7-.84-1.12-.18-.41-.03-.98-.23-1.38-.2-.4-.45-.79-.67-1.18-.23-.38-.7-.62-.95-1-.25-.37-.27-.91-.54-1.27-.27-.36-.75-.56-1.03-.91-.28-.35-.41-.84-.71-1.17-.3-.33-.59-.69-.91-1.01-.32-.32-.84-.43-1.17-.72-.34-.3-.66-.6-1.01-.88-.35-.28-.62-.68-.98-.94-.37-.26-.77-.47-1.15-.71-.38-.24-.87-.3-1.26-.51-.4-.22-.71-.59-1.11-.78-.41-.19-.8-.46-1.21-.61-.43-.15-.97.1-1.4-.02-.44-.12-.79-.61-1.23-.68-.43-.07-.9.04-1.34,0-.44-.05-.87-.19-1.31-.23-.44-.04-.9.25-1.33.23-.44-.02-.87-.3-1.31-.3-.44,0-.88.13-1.32.15-.44.02-.9-.18-1.33-.15-.44.04-.86.27-1.3.33-.44.05-.89-.01-1.33.06-.43.07-.88.1-1.31.19-.43.1-.8.43-1.23.55-.43.12-.9.08-1.31.21s-.85.25-1.26.41c-.41.16-.75.5-1.15.68-.4.18-.86.25-1.25.45-.39.2-.63.68-1.01.9-.38.22-.94.16-1.3.4-.37.24-.68.58-1.03.84-.35.26-.63.62-.97.9-.33.28-.6.64-.92.94-.32.3-.79.46-1.09.78-.3.33-.45.79-.73,1.11-.29.34-.73.54-1,.88-.28.35-.4.81-.65,1.16-.26.36-.5.72-.74,1.08-.25.37-.6.66-.82,1.03-.22.38-.38.8-.58,1.19-.2.39-.23.86-.41,1.26-.18.4-.47.75-.61,1.16-.15.41-.16.86-.28,1.28-.12.42-.4.8-.49,1.23-.09.43-.3.84-.37,1.27-.06.43.13.89.09,1.33-.03.43-.35.85-.36,1.3,0,.43.16.87.17,1.32.01.43.14.86.17,1.31.04.43.16.85.22,1.29.05.43-.16.9-.08,1.34.07.43.41.81.5,1.25.09.43.08.88.18,1.3.11.43-.01.92.12,1.34.13.42.3.84.46,1.25.16.41.43.78.61,1.18.18.4.6.68.81,1.07.21.39.33.81.56,1.18.23.37.3.85.56,1.21.26.35.69.57.98.91.28.33.45.77.76,1.09.3.31.68.49,1.01.78.32-.3.66-.5,1-.78.33-.29.53-.73.88-1,.34-.27.85-.32,1.21-.58.35-.26.77-.42,1.13-.66.37-.24.75-.43,1.13-.66s.65-.62,1.04-.82c.39-.2.74-.49,1.14-.67.4-.18.87-.2,1.27-.36.41-.16.74-.55,1.15-.68.42-.13.91-.01,1.33-.12.42-.11.87-.07,1.3-.15.18-.03.57-.47,1.13-.55.37-.06.79-.05,1.21-.11.42-.06.83-.15,1.19-.2.61-.09,1.1-.06,1.22-.05.15,0,.02.64.19.74.2.12.76.17,1.24.2.43.03.89-.13,1.16-.03.29-.14.09-.35.4-.26.31.09-.16.39.11.57.48.32.62.19,1.19.3.57.11.64-.24,1.21-.13.57.11.58.07,1.15.19.57.11.6.12,1.07.46.26.18-.4.23-.28.44M109.11,35.48c.38.18.79.41,1.28.54.43.12.9.22,1.35.34.46.12.96.06,1.38.2.47.16.85.41,1.22.64.25.15.65.29,1,.52.33.22.59.54.84.75.23.19.52.45.8.75.27.29.5.7.76.86.56.35-.02-.95.54-.6.27.17.58.52.98.91.3.28.58.64.91.99.3.32.65.62.95.96.3.34.77.54,1.05.88.31.37.38.9.63,1.23.34.43.84.64,1.03.91.26.38.49.77.72,1.14.24.39.18.95.39,1.33.22.4.45.78.64,1.17.2.41.47.77.63,1.18.17.42.54.77.67,1.19.14.43.3.87.4,1.3.11.44.06.91.14,1.35.07.44.27.88.32,1.32.04.44-.16.91-.14,1.36.02.44.18.89.18,1.34,0,.44.04.9.01,1.35-.03.44-.47.85-.51,1.31-.05.44-.13.87-.19,1.32-.06.44.24.94.16,1.39-.07.44-.53.81-.61,1.26-.08.41-.13.84-.21,1.27-.08.42.11.89.02,1.32-.09.42-.45.78-.55,1.2-.1.42.05.9-.05,1.31-.11.42-.44.77-.57,1.18-.13.41-.3.8-.45,1.2-.15.41-.05.91-.22,1.3-.18.4-.38.78-.59,1.15-.21.38-.56.66-.8,1.02-.24.36-.46.72-.74,1.04-.28.32-.45.77-.78,1.05-.32.28-.79.38-1.15.62-.26.17-.6.5-.81.73.29.33.94.5,1.23.85.28.34.25.95.52,1.31.27.36.69.61.95.98.26.37.44.79.68,1.17.25.39.75.62.96,1,.22.39.19.92.38,1.32.2.4.49.76.66,1.17.17.41.12.91.27,1.33.15.42.47.79.59,1.22.13.43.11.9.21,1.33.1.44.13.88.2,1.32.08.44.37.85.43,1.29.05.44-.08.9-.05,1.35.03.45,0,.89,0,1.33,0,.45.18.9.16,1.34-.02.45-.19.88-.23,1.33-.04.44.2.93.13,1.37-.07.44-.49.82-.58,1.26-.09.44-.1.89-.21,1.32-.11.43-.14.89-.27,1.32-.13.43-.2.88-.35,1.3-.16.42-.53.75-.71,1.16-.17.39-.16.85-.35,1.22-.19.37-.57.65-.78,1.01-.21.36-.26.82-.48,1.18-.22.36-.43.72-.66,1.07-.22.35-.57.63-.8.98-.22.35-.38.74-.6,1.1-.21.36-.25.67-.45,1.04.32.32.48.63.78.95.31.33.7.59.98.93.29.35.42.81.68,1.17.26.36.4.8.64,1.18.24.37.68.63.9,1.02.22.38.16.91.36,1.32.19.39.53.72.71,1.14.18.4.44.78.6,1.2.16.41.39.8.54,1.2.15.42.03.92.17,1.34.14.42.51.76.63,1.18.12.43.13.88.23,1.3.11.43-.04.91.04,1.33.09.43.18.85.25,1.28.06.43.23.85.27,1.28.04.44.33.86.35,1.29.02.43-.07.88-.08,1.32,0,.43-.23.86-.26,1.3-.03.43.15.88.1,1.32-.05.43-.27.84-.34,1.28-.07.43,0,.88-.09,1.32-.09.44-.29.85-.39,1.28-.11.43-.02.92-.14,1.34-.12.43-.51.78-.64,1.2-.14.42-.37.81-.53,1.22-.15.42-.35.81-.51,1.22-.17.41-.15.9-.33,1.3-.19.41-.29.85-.49,1.25-.2.4-.55.71-.77,1.1-.22.39-.22.91-.45,1.28-.23.38-.69.62-.93.99-.25.37-.61.65-.87,1.01-.26.36-.24.93-.52,1.28-.28.35-.62.65-.91.98-.29.34-.57.69-.87,1.01-.31.32-.68.58-1,.89-.32.31-.81.42-1.15.72-.33.3-.66.59-1,.86-.35.28-.58.7-.94.96-.36.26-.83.35-1.2.6-.37.25-.72.51-1.1.74-.38.23-.79.4-1.18.6-.39.21-.62.73-1.03.92-.4.19-.8.41-1.21.58-.41.17-.92.1-1.33.25-.42.15-.82.35-1.24.48-.42.13-.87.16-1.31.26-.43.1-.85.27-1.28.35-.44.08-.84.36-1.29.43-.44.06-.91-.08-1.35-.04-.44.04-.89-.17-1.34-.15-.44.01-.88.37-1.33.36-.44,0-.88-.17-1.33-.2-.44-.03-.87-.15-1.32-.2-.44-.05-.9.03-1.34-.04-.43-.07-.87-.16-1.31-.25-.43-.09-.83-.34-1.26-.46-.43-.11-.94.05-1.37-.09-.38-.12-.66-.66-1.1-.81-.39-.13-.89-.03-1.31-.19-.39-.15-.73-.5-1.14-.66-.4-.16-.92-.03-1.33-.2-.4-.17-.68-.62-1.08-.79-.4-.18-.92-.09-1.31-.28-.4-.19-.62-.73-1-.92-.39-.2-.88-.21-1.25-.42-.39-.22-.69-.57-1.04-.79-.39-.24-.95-.18-1.29-.42-.38-.27-.55-.76-.85-1.03-.32-.29-.82-.39-1.13-.69-.32-.3-.61-.62-.91-.92-.3-.31-.31-.9-.59-1.22-.29-.32-.75-.49-1.01-.83-.27-.34-.37-.79-.61-1.15-.25-.35-.64-.61-.85-.98-.22-.37-.57-.68-.76-1.07-.19-.38-.25-.83-.41-1.24-.15-.39-.04-.88-.16-1.3-.12-.41-.42-.76-.51-1.19-.09-.42-.02-.87-.08-1.31-.06-.43-.27-.84-.31-1.27-.04-.43-.06-.86-.09-1.3-.02-.43.08-.87.08-1.3,0-.43-.16-.87-.14-1.31.02-.43.13-.86.17-1.3.04-.43.2-.85.25-1.28.05-.43,0-.87.06-1.31.07-.43.15-.85.23-1.28.08-.43-.05-.9.05-1.33.1-.42.38-.81.49-1.23.11-.42.22-.84.35-1.26.12-.42.21-.85.35-1.26.14-.41.43-.77.58-1.18.15-.41.1-.9.26-1.3.16-.41.54-.72.72-1.12.17-.4.31-.82.49-1.21.19-.4.34-.8.54-1.19.2-.39.47-.73.68-1.11.21-.38.52-.71.74-1.08.22-.38.2-.9.43-1.26.24-.37.57-.67.81-1.03.25-.36.32-.85.58-1.2.26-.35.55-.58.82-.91-.23-.36-.32-.72-.55-1.08-.23-.36-.37-.78-.6-1.15-.23-.37-.71-.58-.92-.95-.22-.37-.26-.85-.47-1.22-.21-.38-.37-.78-.57-1.16s-.46-.73-.65-1.12c-.19-.39-.55-.69-.73-1.09-.17-.39-.02-.92-.18-1.32-.16-.4-.6-.69-.74-1.1-.14-.4-.11-.87-.23-1.28-.12-.42,0-.89-.1-1.31-.1-.43-.19-.83-.26-1.26-.07-.43-.15-.84-.19-1.27-.04-.43-.08-.85-.1-1.28-.01-.43-.1-.86-.09-1.29.01-.43-.23-.88-.19-1.32.04-.43.15-.86.21-1.29.06-.43.37-.82.46-1.24.08-.42.09-.86.19-1.28.1-.42.29-.81.41-1.23.12-.41.34-.79.48-1.2.14-.41-.07-.94.09-1.35.15-.4.43-.77.59-1.16.17-.4.59-.68.77-1.08.18-.39.2-.86.39-1.25.19-.39.49-.72.69-1.1.21-.38.49-.71.71-1.09.22-.38.17-.9.4-1.27.22-.37.57-.67.8-1.03.23-.37.52-.7.75-1.06.24-.36.62-.77.86-1.13-.24-.31-.89-.52-1.2-.87-.28-.31-.36-.84-.66-1.17-.3-.32-.59-.65-.87-.98-.3-.34-.83-.48-1.09-.81-.29-.38-.21-.95-.39-1.3-.17-.33-.49-.74-.67-1.27-.15-.45-.51-.86-.65-1.32-.15-.52.04-1.11-.07-1.49-.11-.38-.31-.74-.42-1.13-.12-.38-.32-.74-.42-1.13-.1-.39.06-.82,0-1.22-.06-.4-.22-.77-.21-1.17.01-.4.01-.83.12-1.22-.22-.11-.2.31-.41.18.17-.38.01-.68.02-1.04,0-.39.28-.79.22-1.17-.06-.38-.34-.73-.34-1.11,0-.45.25-.89.26-1.32.01-.45-.28-.91-.25-1.34.03-.45-.02-.9.03-1.33.05-.45.13-.89.2-1.32.07-.44.14-.89.23-1.32.1-.44.33-.84.45-1.26.12-.43.4-.8.55-1.22.15-.42.08-.92.25-1.33.17-.41.68-.66.87-1.06.2-.39.3-.83.52-1.21.22-.38.51-.71.75-1.08.23-.37.3-.85.55-1.22.25-.36.63-.62.9-.98.26-.35.58-.65.87-1,.27-.34.37-.83.66-1.17.28-.33.7-.56,1-.89.29-.32.71-.54,1.01-.87.27-.29.51-.63.86-.92.31-.26.46-.77.82-1.03.34-.24.91-.15,1.28-.39.35-.23.52-.77.9-.99.37-.21.89-.16,1.26-.36.38-.2.72-.47,1.1-.66.39-.19.76-.4,1.15-.57.4-.18.86-.18,1.25-.34.41-.17.66-.67,1.04-.82.42-.16.83-.29,1.21-.42.41-.14.89-.01,1.3-.12.42-.1.8-.31,1.23-.38.42-.07.86.09,1.29.05.42-.04.83-.27,1.26-.29.43-.01.85,0,1.28,0,.43,0,.85.03,1.28.05.43.02.85,0,1.28.03.43.03.84.19,1.27.21.43.03.87-.26,1.3-.23.43.03.84.23,1.27.25.43.02.85.07,1.28.08.43,0,.83.09,1.26.08"/></svg>