<?xml version="1.0" encoding="UTF-8"?><svg id="Layer_1" xmlns="http://www.w3.org/2000/svg" viewBox="0 0 200 200"><path d="M89.59,132.18c.45-.14,1.02.03,1.44,0,.47-.04.87.05,1.28.14.45.1.8.25,1.15.5.36.25.63.5.86.9.21.36.45.71.52,1.18.06.4.27.86.22,1.34-.06.53-.42.93-.62,1.32-.23.45-.57.73-.93,1.01-.38.3-.71.69-1.17.8-.47.11-.98.15-1.45.08-.47-.07-.99-.2-1.4-.45-.4-.24-.57-.77-.84-1.18-.25-.38-.44-.76-.52-1.27-.06-.43-.26-.92-.17-1.44.12-.63.64-.93.93-1.35.29-.42.34-1.08.69-1.58"/><path d="M70.63,112.95c.47-.04.9.36,1.24.67.32.3.68.67.8,1.1.13.46-.04.92-.22,1.32-.17.38-.45.56-.99.68-.64.14-1.1.18-1.49-.04-.48-.27-.79-.71-.89-1.22-.1-.52-.23-1.21.05-1.66.27-.42.89-.8,1.5-.85"/><path d="M120.95,140.78c-.61.1-.98.66-1.04,1.18-.06.45.27.95.49,1.45.21.48.53.84.88,1.16.42.38.75.58,1.24.45.38-.1.98-.25,1.32-.85-.17-.47-.68-.98-.83-1.49-.17-.54-.14-1.15-.51-1.47-.34-.29-.87-.55-1.56-.44M123.28,137.85c.1.24-.27.2-.19.44.42.07,1.01.07,1.41.29.39.2.82.44,1.15.74.33.31.61.72.83,1.1.23.39.07.9.12,1.34.06.49.5.93.52,1.37.02.5-.26.97-.31,1.4-.06.49-.13.94-.3,1.35-.18.43-.36.88-.71,1.22-.31.3-.81.37-1.28.58-.38.18-.71.69-1.22.81-.55.13-1.1-.22-1.54-.19-.51.03-.9,0-1.39-.17-.41-.14-.83-.29-1.3-.62-.42-.3-1-.41-1.31-.76-.34-.38-.31-1.01-.53-1.43-.24-.44-.39-.87-.51-1.34-.12-.49-.22-.93-.22-1.42,0-.5-.03-.97.09-1.44.12-.49.14-1.01.37-1.43.24-.44.67-.73,1.02-1.07.35-.34.63-.81,1.09-1.02.43-.2.97-.04,1.49-.09.46-.05.9-.01,1.42.08.45.08.81.07,1.31.26"/><path d="M120.95,140.78c-.61.1-.98.66-1.04,1.18-.06.45.27.95.49,1.45.21.48.53.84.88,1.16.42.38.75.58,1.24.45.38-.1.98-.25,1.32-.85-.17-.47-.68-.98-.83-1.49-.17-.54-.14-1.15-.51-1.47-.34-.29-.87-.55-1.56-.44M123.28,137.85c.1.24-.27.2-.19.44.42.07,1.01.07,1.41.29.39.2.82.44,1.15.74.33.31.61.72.83,1.1.23.39.07.9.12,1.34.06.49.5.93.52,1.37.02.5-.26.97-.31,1.4-.06.49-.13.94-.3,1.35-.18.43-.36.88-.71,1.22-.31.3-.81.37-1.28.58-.38.18-.71.69-1.22.81-.55.13-1.1-.22-1.54-.19-.51.03-.9,0-1.39-.17-.41-.14-.83-.29-1.3-.62-.42-.3-1-.41-1.31-.76-.34-.38-.31-1.01-.53-1.43-.24-.44-.39-.87-.51-1.34-.12-.49-.22-.93-.22-1.42,0-.5-.03-.97.09-1.44.12-.49.14-1.01.37-1.43.24-.44.67-.73,1.02-1.07.35-.34.63-.81,1.09-1.02.43-.2.97-.04,1.49-.09.46-.05.9-.01,1.42.08.45.08.81.07,1.31.26"/><path d="M120.95,140.78c-.61.1-.98.66-1.04,1.18-.06.45.27.95.49,1.45.21.48.53.84.88,1.16.42.38.75.58,1.24.45.38-.1.98-.25,1.32-.85-.17-.47-.68-.98-.83-1.49-.17-.54-.14-1.15-.51-1.47-.34-.29-.87-.55-1.56-.44M123.28,137.85c.1.24-.27.2-.19.44.42.07,1.01.07,1.41.29.39.2.82.44,1.15.74.33.31.61.72.83,1.1.23.39.07.9.12,1.34.06.49.5.93.52,1.37.02.5-.26.97-.31,1.4-.06.49-.13.94-.3,1.35-.18.43-.36.88-.71,1.22-.31.3-.81.37-1.28.58-.38.18-.71.69-1.22.81-.55.13-1.1-.22-1.54-.19-.51.03-.9,0-1.39-.17-.41-.14-.83-.29-1.3-.62-.42-.3-1-.41-1.31-.76-.34-.38-.31-1.01-.53-1.43-.24-.44-.39-.87-.51-1.34-.12-.49-.22-.93-.22-1.42,0-.5-.03-.97.09-1.44.12-.49.14-1.01.37-1.43.24-.44.67-.73,1.02-1.07.35-.34.63-.81,1.09-1.02.43-.2.97-.04,1.49-.09.46-.05.9-.01,1.42.08.45.08.81.07,1.31.26"/><path d="M122.63,100.24c-.53.08-.8.6-1.11.83-.38.28-.73.51-.77.99-.03.39,0,.9.2,1.39.44.21.92-.05,1.36-.16.44-.11.98-.06,1.32-.36.37-.33.64-.79.78-1.17.18-.5,0-.88-.45-1.11-.29-.14-.71-.5-1.33-.41M118.84,105.91c-.16-.14-.74-.28-1-.75-.19-.35-.2-.84-.36-1.2-.22-.48-.32-.92-.35-1.14-.04-.22-.32-.69-.25-1.21.05-.39.45-.76.54-1.14.12-.52.2-.95.33-1.11.07-.09.4-.59.85-.96.44-.36,1.06-.43,1.19-.5.38-.22.74-.61,1.25-.77.46-.14.99,0,1.48-.06.5-.06.99-.49,1.46-.46.53.04,1.01.32,1.43.5.46.2.79.52,1.12.79.38.32.6.66.81,1.05.23.41.27.81.33,1.26.06.45.32.89.24,1.36-.08.44-.3.86-.49,1.3-.18.42-.5.75-.76,1.14-.26.38-.53.72-.85,1.05-.32.34-.69.56-1.07.82-.39.26-.74.47-1.17.63-.43.17-.81.32-1.27.35-.22.01-.68.04-1.22-.07-.4-.08-.79-.3-1.18-.41-.53-.16-.91-.31-1.07-.45"/><path d="M122.63,100.24c-.53.08-.8.6-1.11.83-.38.28-.73.51-.77.99-.03.39,0,.9.2,1.39.44.21.92-.05,1.36-.16.44-.11.98-.06,1.32-.36.37-.33.64-.79.78-1.17.18-.5,0-.88-.45-1.11-.29-.14-.71-.5-1.33-.41M118.84,105.91c-.16-.14-.74-.28-1-.75-.19-.35-.2-.84-.36-1.2-.22-.48-.32-.92-.35-1.14-.04-.22-.32-.69-.25-1.21.05-.39.45-.76.54-1.14.12-.52.2-.95.33-1.11.07-.09.4-.59.85-.96.44-.36,1.06-.43,1.19-.5.38-.22.74-.61,1.25-.77.46-.14.99,0,1.48-.06.5-.06.99-.49,1.46-.46.53.04,1.01.32,1.43.5.46.2.79.52,1.12.79.38.32.6.66.81,1.05.23.41.27.81.33,1.26.06.45.32.89.24,1.36-.08.44-.3.86-.49,1.3-.18.42-.5.75-.76,1.14-.26.38-.53.72-.85,1.05-.32.34-.69.56-1.07.82-.39.26-.74.47-1.17.63-.43.17-.81.32-1.27.35-.22.01-.68.04-1.22-.07-.4-.08-.79-.3-1.18-.41-.53-.16-.91-.31-1.07-.45"/><path d="M122.63,100.24c-.53.08-.8.6-1.11.83-.38.28-.73.51-.77.99-.03.39,0,.9.2,1.39.44.21.92-.05,1.36-.16.44-.11.98-.06,1.32-.36.37-.33.64-.79.78-1.17.18-.5,0-.88-.45-1.11-.29-.14-.71-.5-1.33-.41M118.84,105.91c-.16-.14-.74-.28-1-.75-.19-.35-.2-.84-.36-1.2-.22-.48-.32-.92-.35-1.14-.04-.22-.32-.69-.25-1.21.05-.39.45-.76.54-1.14.12-.52.2-.95.33-1.11.07-.09.4-.59.85-.96.44-.36,1.06-.43,1.19-.5.38-.22.74-.61,1.25-.77.46-.14.99,0,1.48-.06.5-.06.99-.49,1.46-.46.53.04,1.01.32,1.43.5.46.2.79.52,1.12.79.38.32.6.66.81,1.05.23.41.27.81.33,1.26.06.45.32.89.24,1.36-.08.44-.3.86-.49,1.3-.18.42-.5.75-.76,1.14-.26.38-.53.72-.85,1.05-.32.34-.69.56-1.07.82-.39.26-.74.47-1.17.63-.43.17-.81.32-1.27.35-.22.01-.68.04-1.22-.07-.4-.08-.79-.3-1.18-.41-.53-.16-.91-.31-1.07-.45"/><path d="M127.59,60.51c-.43-.22-1-.17-1.43-.12-.46.05-.9.22-1.22.54-.3.3-.41.74-.46,1.24-.07.66.11,1.19.55,1.27.39.07.94-.25,1.39-.5.42-.23.58-.68.8-1.08.22-.4.59-.86.36-1.35M122.87,66.14c-.14-.1-.6-.37-.94-.79-.33-.4-.6-.84-.68-1.03-.19-.45-.4-.93-.44-1.44-.04-.49.28-.96.37-1.46.09-.49.04-1.01.24-1.47.21-.46.29-1.05.6-1.43.32-.39.85-.64,1.27-.89.43-.25.91-.52,1.43-.58.5-.06,1.03.02,1.54.04.52.01,1,.25,1.48.35.52.11.94.29,1.38.52.46.24.82.48,1.14.88.3.38.77.7.89,1.24.1.44-.16.96-.22,1.53-.03.32.02.87-.24,1.4-.2.42-.58.79-.83,1.19-.31.5-.68.83-.92,1.06-.3.29-.65.5-1.08.72-.39.2-.67.76-1.11.88-.44.12-.95,0-1.4.03-.47.03-.96.14-1.38.06-.46-.1-.76-.55-1.11-.81"/><path d="M127.59,60.51c-.43-.22-1-.17-1.43-.12-.46.05-.9.22-1.22.54-.3.3-.41.74-.46,1.24-.07.66.11,1.19.55,1.27.39.07.94-.25,1.39-.5.42-.23.58-.68.8-1.08.22-.4.59-.86.36-1.35M122.87,66.14c-.14-.1-.6-.37-.94-.79-.33-.4-.6-.84-.68-1.03-.19-.45-.4-.93-.44-1.44-.04-.49.28-.96.37-1.46.09-.49.04-1.01.24-1.47.21-.46.29-1.05.6-1.43.32-.39.85-.64,1.27-.89.43-.25.91-.52,1.43-.58.5-.06,1.03.02,1.54.04.52.01,1,.25,1.48.35.52.11.94.29,1.38.52.46.24.82.48,1.14.88.3.38.77.7.89,1.24.1.44-.16.96-.22,1.53-.03.32.02.87-.24,1.4-.2.42-.58.79-.83,1.19-.31.5-.68.83-.92,1.06-.3.29-.65.5-1.08.72-.39.2-.67.76-1.11.88-.44.12-.95,0-1.4.03-.47.03-.96.14-1.38.06-.46-.1-.76-.55-1.11-.81"/><path d="M127.59,60.51c-.43-.22-1-.17-1.43-.12-.46.05-.9.22-1.22.54-.3.3-.41.74-.46,1.24-.07.66.11,1.19.55,1.27.39.07.94-.25,1.39-.5.42-.23.58-.68.8-1.08.22-.4.59-.86.36-1.35M122.87,66.14c-.14-.1-.6-.37-.94-.79-.33-.4-.6-.84-.68-1.03-.19-.45-.4-.93-.44-1.44-.04-.49.28-.96.37-1.46.09-.49.04-1.01.24-1.47.21-.46.29-1.05.6-1.43.32-.39.85-.64,1.27-.89.43-.25.91-.52,1.43-.58.5-.06,1.03.02,1.54.04.52.01,1,.25,1.48.35.52.11.94.29,1.38.52.46.24.82.48,1.14.88.3.38.77.7.89,1.24.1.44-.16.96-.22,1.53-.03.32.02.87-.24,1.4-.2.42-.58.79-.83,1.19-.31.5-.68.83-.92,1.06-.3.29-.65.5-1.08.72-.39.2-.67.76-1.11.88-.44.12-.95,0-1.4.03-.47.03-.96.14-1.38.06-.46-.1-.76-.55-1.11-.81"/><path d="M73.01,55.53c-.44.13-.89.5-1.01.92-.12.42.26.82.36,1.21.48.4.72.83,1.09.95.62.19,1.18.04,1.48-.27.33-.34.57-.97.51-1.48-.06-.5-.59-.75-1.05-1-.36-.19-.76-.51-1.38-.32M77.68,59.9c-.25.37-.44.69-.76,1.03-.37.38-.48.98-.83,1.14-.43.2-.95-.01-1.39-.02-.42,0-.85-.09-1.32-.13-.41-.03-.76-.1-1.25-.06-.58-.39-.74-.2-1.23-.71-.49-.5-.33-.65-.82-1.16-.49-.51-.4-.56-.8-1.13-.07-.46-.32-.81-.33-1.25-.02-.47-.16-.96-.11-1.4.05-.47.55-.84.68-1.26.14-.46.02-1,.25-1.38.24-.41.76-.55,1.1-.85.34-.3.57-.75,1.01-.92.41-.15.87-.32,1.36-.34.42-.01.9.09,1.39.19.42.08.89.17,1.35.34.61.23,1.12.45,1.44.8.31.34.38.91.65,1.49.19.41.43.8.56,1.23.13.43.15.89.19,1.33.04.45-.05.88-.13,1.32-.08.43-.07.9-.29,1.31-.18.34-.62.3-.7.41"/><path d="M73.01,55.53c-.44.13-.89.5-1.01.92-.12.42.26.82.36,1.21.48.4.72.83,1.09.95.62.19,1.18.04,1.48-.27.33-.34.57-.97.51-1.48-.06-.5-.59-.75-1.05-1-.36-.19-.76-.51-1.38-.32M77.68,59.9c-.25.37-.44.69-.76,1.03-.37.38-.48.98-.83,1.14-.43.2-.95-.01-1.39-.02-.42,0-.85-.09-1.32-.13-.41-.03-.76-.1-1.25-.06-.58-.39-.74-.2-1.23-.71-.49-.5-.33-.65-.82-1.16-.49-.51-.4-.56-.8-1.13-.07-.46-.32-.81-.33-1.25-.02-.47-.16-.96-.11-1.4.05-.47.55-.84.68-1.26.14-.46.02-1,.25-1.38.24-.41.76-.55,1.1-.85.34-.3.57-.75,1.01-.92.41-.15.87-.32,1.36-.34.42-.01.9.09,1.39.19.42.08.89.17,1.35.34.61.23,1.12.45,1.44.8.31.34.38.91.65,1.49.19.41.43.8.56,1.23.13.43.15.89.19,1.33.04.45-.05.88-.13,1.32-.08.43-.07.9-.29,1.31-.18.34-.62.3-.7.41"/><path d="M73.01,55.53c-.44.13-.89.5-1.01.92-.12.42.26.82.36,1.21.48.4.72.83,1.09.95.62.19,1.18.04,1.48-.27.33-.34.57-.97.51-1.48-.06-.5-.59-.75-1.05-1-.36-.19-.76-.51-1.38-.32M77.68,59.9c-.25.37-.44.69-.76,1.03-.37.38-.48.98-.83,1.14-.43.2-.95-.01-1.39-.02-.42,0-.85-.09-1.32-.13-.41-.03-.76-.1-1.25-.06-.58-.39-.74-.2-1.23-.71-.49-.5-.33-.65-.82-1.16-.49-.51-.4-.56-.8-1.13-.07-.46-.32-.81-.33-1.25-.02-.47-.16-.96-.11-1.4.05-.47.55-.84.68-1.26.14-.46.02-1,.25-1.38.24-.41.76-.55,1.1-.85.34-.3.57-.75,1.01-.92.41-.15.87-.32,1.36-.34.42-.01.9.09,1.39.19.42.08.89.17,1.35.34.61.23,1.12.45,1.44.8.31.34.38.91.65,1.49.19.41.43.8.56,1.23.13.43.15.89.19,1.33.04.45-.05.88-.13,1.32-.08.43-.07.9-.29,1.31-.18.34-.62.3-.7.41"/><path d="M77.79,80.32c-.51.1-1.03.31-1.35.57-.37.29-.55.84-.7,1.26-.15.42-.17.91-.13,1.38.04.45.39.81.58,1.23.19.41.24.92.56,1.24.32.32.73.57,1.17.72.41.14.89.34,1.38.28.41-.05.87-.26,1.33-.49.47-.23.68-.69.95-.99.33-.37.65-.68.72-1.1.08-.44.03-.91-.13-1.35-.14-.41-.56-.67-.87-1.02-.29-.34-.57-.62-.97-.86-.39-.23-.74-.47-1.18-.56-.44-.09-.91-.41-1.38-.32M85.42,83.64c0,.52-.08.96-.19,1.45-.11.5-.12.99-.34,1.44-.22.46-.46.89-.77,1.28-.32.39-.51.94-.9,1.25-.39.31-.97.38-1.42.6-.45.22-.91.39-1.41.5-.48.11-.98.02-1.49.02s-.99.02-1.48-.08c-.5-.11-1.06-.05-1.51-.26-.46-.22-.81-.63-1.21-.95-.39-.31-.75-.67-1.06-1.07-.31-.39-.79-.72-1.01-1.17-.22-.45-.37-.98-.49-1.48-.11-.48-.09-1.03-.09-1.54s.15-1.02.26-1.5c.11-.5.46-.89.68-1.34.22-.46.33-.96.64-1.35.31-.39.61-.83,1-1.15.39-.31.92-.43,1.38-.65.45-.22.89-.43,1.39-.54.48-.11.97-.31,1.49-.31s1.07-.05,1.55.05c.5.11.91.53,1.36.75.46.22.88.49,1.27.8.39.32.6.78.92,1.18.31.39.76.68.98,1.14.22.45.34.94.45,1.44.11.48,0,.98,0,1.49"/><path d="M77.79,80.32c-.51.1-1.03.31-1.35.57-.37.29-.55.84-.7,1.26-.15.42-.17.91-.13,1.38.04.45.39.81.58,1.23.19.41.24.92.56,1.24.32.32.73.57,1.17.72.41.14.89.34,1.38.28.41-.05.87-.26,1.33-.49.47-.23.68-.69.95-.99.33-.37.65-.68.72-1.1.08-.44.03-.91-.13-1.35-.14-.41-.56-.67-.87-1.02-.29-.34-.57-.62-.97-.86-.39-.23-.74-.47-1.18-.56-.44-.09-.91-.41-1.38-.32M85.42,83.64c0,.52-.08.96-.19,1.45-.11.5-.12.99-.34,1.44-.22.46-.46.89-.77,1.28-.32.39-.51.94-.9,1.25-.39.31-.97.38-1.42.6-.45.22-.91.39-1.41.5-.48.11-.98.02-1.49.02s-.99.02-1.48-.08c-.5-.11-1.06-.05-1.51-.26-.46-.22-.81-.63-1.21-.95-.39-.31-.75-.67-1.06-1.07-.31-.39-.79-.72-1.01-1.17-.22-.45-.37-.98-.49-1.48-.11-.48-.09-1.03-.09-1.54s.15-1.02.26-1.5c.11-.5.46-.89.68-1.34.22-.46.33-.96.64-1.35.31-.39.61-.83,1-1.15.39-.31.92-.43,1.38-.65.45-.22.89-.43,1.39-.54.48-.11.97-.31,1.49-.31s1.07-.05,1.55.05c.5.11.91.53,1.36.75.46.22.88.49,1.27.8.39.32.6.78.92,1.18.31.39.76.68.98,1.14.22.45.34.94.45,1.44.11.48,0,.98,0,1.49"/><path d="M105.45,63.43c.19.11,1.1,1.51,1.15,1.85.1.63-.21,1.21-.48,1.56-.31.39-.88.47-1.43.48-.48.01-.97-.09-1.44-.36-.55-.31-1-.65-1.05-1.08-.05-.46.49-.83.81-1.25.3-.39.63-.66,1.06-.86.5-.23.97-.58,1.38-.34"/><path d="M105.45,63.43c.19.11,1.1,1.51,1.15,1.85.1.63-.21,1.21-.48,1.56-.31.39-.88.47-1.43.48-.48.01-.97-.09-1.44-.36-.55-.31-1-.65-1.05-1.08-.05-.46.49-.83.81-1.25.3-.39.63-.66,1.06-.86.5-.23.97-.58,1.38-.34"/><path d="M94.15,110.56c.81.22,1.18-.17,1.35-.56.15-.37.33-.95.37-1.53-.51-.51-1.1-.75-1.44-.72-.48.05-.53.64-.51,1.25.02.43-.13,1.1.23,1.56M91.36,105.85c.3-.54.39-1.02.78-1.2.37-.17.86-.03,1.46-.08.53-.04,1.01-.06,1.47-.02.54.05,1.11-.16,1.54,0,.5.18.74.77,1.1,1.08.38.32.97.49,1.2.94.22.42-.04,1.02.04,1.54.07.46.43.93.39,1.46-.04.47-.21.96-.34,1.47-.14.54-.93.84-.94,1.59-.41.26-.55.68-.94.89-.43.24-.94.23-1.36.36-.46.15-.87.24-1.33.22-.44-.02-.82-.17-1.28-.39-.38-.18-.71-.43-1.1-.78-.2-.18-.52-.45-.81-.85-.24-.32-.68-.54-.88-.88-.26-.44-.56-.88-.6-1.13-.03-.22.53-.77.71-1.43.13-.46.26-.96.41-1.43.21-.62.37-1.14.5-1.37"/><path d="M94.15,110.56c.81.22,1.18-.17,1.35-.56.15-.37.33-.95.37-1.53-.51-.51-1.1-.75-1.44-.72-.48.05-.53.64-.51,1.25.02.43-.13,1.1.23,1.56M91.36,105.85c.3-.54.39-1.02.78-1.2.37-.17.86-.03,1.46-.08.53-.04,1.01-.06,1.47-.02.54.05,1.11-.16,1.54,0,.5.18.74.77,1.1,1.08.38.32.97.49,1.2.94.22.42-.04,1.02.04,1.54.07.46.43.93.39,1.46-.04.47-.21.96-.34,1.47-.14.54-.93.84-.94,1.59-.41.26-.55.68-.94.89-.43.24-.94.23-1.36.36-.46.15-.87.24-1.33.22-.44-.02-.82-.17-1.28-.39-.38-.18-.71-.43-1.1-.78-.2-.18-.52-.45-.81-.85-.24-.32-.68-.54-.88-.88-.26-.44-.56-.88-.6-1.13-.03-.22.53-.77.71-1.43.13-.46.26-.96.41-1.43.21-.62.37-1.14.5-1.37"/><path d="M77.79,80.32c-.51.1-1.03.31-1.35.57-.37.29-.55.84-.7,1.26-.15.42-.17.91-.13,1.38.04.45.39.81.58,1.23.19.41.24.92.56,1.24.32.32.73.57,1.17.72.41.14.89.34,1.38.28.41-.05.87-.26,1.33-.49.47-.23.68-.69.95-.99.33-.37.65-.68.72-1.1.08-.44.03-.91-.13-1.35-.14-.41-.56-.67-.87-1.02-.29-.34-.57-.62-.97-.86-.39-.23-.74-.47-1.18-.56-.44-.09-.91-.41-1.38-.32M85.42,83.64c0,.52-.08.96-.19,1.45-.11.5-.12.99-.34,1.44-.22.46-.46.89-.77,1.28-.32.39-.51.94-.9,1.25-.39.31-.97.38-1.42.6-.45.22-.91.39-1.41.5-.48.11-.98.02-1.49.02s-.99.02-1.48-.08c-.5-.11-1.06-.05-1.51-.26-.46-.22-.81-.63-1.21-.95-.39-.31-.75-.67-1.06-1.07-.31-.39-.79-.72-1.01-1.17-.22-.45-.37-.98-.49-1.48-.11-.48-.09-1.03-.09-1.54s.15-1.02.26-1.5c.11-.5.46-.89.68-1.34.22-.46.33-.96.64-1.35.31-.39.61-.83,1-1.15.39-.31.92-.43,1.38-.65.45-.22.89-.43,1.39-.54.48-.11.97-.31,1.49-.31s1.07-.05,1.55.05c.5.11.91.53,1.36.75.46.22.88.49,1.27.8.39.32.6.78.92,1.18.31.39.76.68.98,1.14.22.45.34.94.45,1.44.11.48,0,.98,0,1.49"/><path d="M105.45,63.43c.19.11,1.1,1.51,1.15,1.85.1.63-.21,1.21-.48,1.56-.31.39-.88.47-1.43.48-.48.01-.97-.09-1.44-.36-.55-.31-1-.65-1.05-1.08-.05-.46.49-.83.81-1.25.3-.39.63-.66,1.06-.86.5-.23.97-.58,1.38-.34"/><path d="M94.15,110.56c.81.22,1.18-.17,1.35-.56.15-.37.33-.95.37-1.53-.51-.51-1.1-.75-1.44-.72-.48.05-.53.64-.51,1.25.02.43-.13,1.1.23,1.56M91.36,105.85c.3-.54.39-1.02.78-1.2.37-.17.86-.03,1.46-.08.53-.04,1.01-.06,1.47-.02.54.05,1.11-.16,1.54,0,.5.18.74.77,1.1,1.08.38.32.97.49,1.2.94.22.42-.04,1.02.04,1.54.07.46.43.93.39,1.46-.04.47-.21.96-.34,1.47-.14.54-.93.84-.94,1.59-.41.26-.55.68-.94.89-.43.24-.94.23-1.36.36-.46.15-.87.24-1.33.22-.44-.02-.82-.17-1.28-.39-.38-.18-.71-.43-1.1-.78-.2-.18-.52-.45-.81-.85-.24-.32-.68-.54-.88-.88-.26-.44-.56-.88-.6-1.13-.03-.22.53-.77.71-1.43.13-.46.26-.96.41-1.43.21-.62.37-1.14.5-1.37"/></svg>