<?xml version="1.0" encoding="UTF-8"?><svg id="Layer_1" xmlns="http://www.w3.org/2000/svg" viewBox="0 0 200 200"><path d="M105.95,38.37c.1.05.8.47.79.66,0,.34-.41.73-.69,1.22-.2.36-.38.78-.67,1.18-.25.35-.61.65-.9,1.02-.28.35-.53.74-.82,1.09-.3.36-.4.88-.68,1.22-.32.37-.81.55-1.08.88-.35.41-.43.94-.63,1.23-.27.38-.7.66-.96,1.08-.25.39-.35.89-.6,1.31-.23.41-.53.79-.75,1.22-.22.42-.31.9-.52,1.34-.2.43-.72.72-.92,1.16-.19.44-.42.87-.59,1.32-.18.45-.1.99-.26,1.44-.16.45-.35.89-.49,1.35-.15.46-.45.87-.58,1.33-.13.46-.25.93-.36,1.4-.11.47-.18.95-.26,1.42-.09.48.16,1,.1,1.47-.06.48-.21.94-.24,1.41-.03.49.04.96.05,1.43,0,.49-.21.97-.17,1.44.05.49.05.98.15,1.43.1.49.49.89.63,1.35.15.47-.05,1.06.13,1.51.18.46.62.8.84,1.24.22.44.33.94.58,1.36.25.42.68.73.95,1.13.27.41.4.91.69,1.31.29.39.8.62,1.1,1.01.3.38.43.91.74,1.29.31.38.69.7,1.01,1.07.32.37.68.71,1,1.08.32.37.54.83.85,1.21.32.37.73.67,1.04,1.05.31.38.57.8.87,1.19.3.39.62.76.9,1.16.29.4.43.89.7,1.3.27.41.82.66,1.06,1.08.24.43.14,1.03.35,1.48.21.44.72.74.9,1.18.18.45.04,1.01.18,1.46.14.46.53.86.63,1.32.1.47-.06.99,0,1.46.06.48.17.94.19,1.42.02.48.08.96.07,1.43-.01.48-.06.96-.12,1.43-.05.47-.22.93-.31,1.4-.09.47-.03.97-.15,1.43-.12.46-.25.92-.4,1.38-.15.45-.51.83-.68,1.27-.17.44-.18.95-.37,1.39-.19.43-.67.73-.88,1.16-.21.43-.19.96-.42,1.39-.22.42-.57.77-.81,1.19-.23.41-.55.78-.79,1.19-.24.41-.44.84-.69,1.25-.25.4-.42.86-.68,1.26-.26.4-.38.89-.64,1.29-.26.4-.6.75-.86,1.14-.26.4-.69.69-.95,1.08-.26.4-.49.82-.75,1.22-.26.4-.43.86-.69,1.26-.26.4-.61.74-.87,1.14-.26.4-.42.86-.67,1.27-.25.41-.35.91-.59,1.32-.24.41-.46.83-.69,1.25-.24.42-.63.74-.85,1.16-.22.42-.53.8-.74,1.23-.21.43-.4.87-.59,1.31-.2.44-.14.98-.31,1.42-.18.45-.62.79-.77,1.24-.15.45-.05.99-.18,1.44-.13.46-.26.91-.36,1.38-.1.47-.32.91-.39,1.38-.07.47-.32.93-.36,1.4-.04.47.2.97.19,1.45,0,.47-.23.96-.2,1.44.03.47.47.89.55,1.36.07.46-.27,1.01-.16,1.47.11.45.62.81.75,1.26.14.44-.06,1.01.11,1.45.16.44.39.86.58,1.29.18.43.69.71.9,1.14.2.42.35.87.56,1.29.21.42.52.78.74,1.2.23.41.45.82.68,1.23.24.41.39.86.63,1.26.24.4.21.98.45,1.38.25.4.73.66.98,1.06.25.4.62.72.88,1.11.25.4.35.9.6,1.29.26.4.47.82.71,1.21.25.4.55.77.79,1.16.25.41.63.75.86,1.15.1.38-.18.92-.39,1.25-.03.05-.96.36-1.03.35-.05,0-.45-.3-.92-.52-.46-.22-1.1-.18-1.14-.23-.23-.25-.46-.72-.72-1.2-.22-.39-.23-.92-.44-1.32-.24-.46-.62-.81-.82-1.12-.27-.41-.46-.86-.72-1.26-.27-.41-.5-.83-.76-1.23-.27-.41-.82-.63-1.07-1.03-.26-.41-.54-.81-.79-1.22-.26-.42-.34-.94-.58-1.34-.25-.42-.31-.94-.54-1.36-.24-.43-.45-.86-.67-1.28-.23-.43-.77-.7-.97-1.13-.21-.44-.39-.9-.57-1.33-.19-.45-.1-1-.27-1.44-.17-.46-.27-.92-.41-1.38-.14-.46-.28-.91-.39-1.38-.11-.47-.43-.89-.51-1.37-.08-.47-.26-.94-.31-1.42-.04-.47.13-.97.12-1.46,0-.47.15-.94.18-1.43.03-.47.03-.94.09-1.43.06-.47-.01-.96.08-1.44.09-.46.18-.93.3-1.41.11-.46.03-.98.16-1.45.13-.45.71-.77.87-1.24.15-.45-.03-1.02.14-1.48.17-.44.56-.8.75-1.26.18-.44.39-.87.59-1.32.19-.43.39-.87.6-1.32.2-.43.28-.94.52-1.38.23-.42.63-.76.88-1.19.24-.41.23-1,.49-1.42.25-.41.58-.79.85-1.21.26-.41.51-.84.78-1.25.27-.4.81-.63,1.09-1.04.27-.4.51-.83.79-1.24.27-.4.27-1,.54-1.4.27-.41.74-.69,1.01-1.1.27-.41.34-.95.61-1.37.27-.41.55-.81.82-1.23.26-.42.82-.65,1.07-1.07.25-.42.39-.92.63-1.34.24-.43.64-.78.87-1.21.23-.44.22-1,.43-1.44.22-.45.69-.78.88-1.22.2-.46.17-1.01.33-1.46.17-.47.07-1.01.2-1.47.14-.48.57-.87.67-1.35.09-.49.12-.99.16-1.47.04-.49-.12-.98-.14-1.47-.02-.47,0-.93-.07-1.39-.07-.47-.2-.91-.31-1.36-.11-.46-.15-.92-.31-1.36-.15-.44-.3-.88-.5-1.31-.19-.43-.22-.94-.44-1.35-.22-.41-.73-.66-.98-1.06-.24-.39-.32-.9-.58-1.29-.26-.38-.51-.79-.79-1.16-.28-.37-.53-.77-.82-1.14-.29-.37-.54-.77-.84-1.13-.3-.36-.61-.71-.91-1.07-.3-.36-.87-.49-1.17-.85-.3-.36-.49-.81-.79-1.17-.3-.36-.74-.61-1.03-.97-.29-.37-.53-.78-.81-1.15-.29-.37-.31-.93-.58-1.31-.27-.38-.85-.56-1.1-.95-.25-.4-.42-.85-.64-1.25-.23-.42-.26-.94-.47-1.36-.21-.43-.36-.88-.54-1.3-.19-.44-.63-.77-.79-1.21-.16-.45-.24-.92-.37-1.37-.13-.46-.43-.88-.52-1.34-.09-.46.12-.98.06-1.45-.06-.47-.18-.93-.2-1.4-.02-.47.16-.93.18-1.41.01-.47-.2-.95-.15-1.42.05-.46.22-.92.3-1.39.08-.46.04-.87.14-1.34.4.5.12.65.51,1.17.07-.47.31-.94.4-1.41.08-.46.09-.94.19-1.4.1-.46.01-.97.13-1.43.11-.46.59-.82.72-1.27.13-.46.11-.95.25-1.4.16-.49.16-1.02.32-1.47.18-.48.37-.95.55-1.4.19-.47.49-.89.69-1.33.21-.46.45-.9.68-1.33.24-.45.52-.85.77-1.28.25-.43.59-.8.87-1.21.27-.41.55-.82.84-1.22.29-.4.44-.9.75-1.3.3-.39.68-.72,1-1.11.31-.37.69-.7,1.02-1.08.32-.37.51-.86.85-1.24.32-.36.56-.81.9-1.2.28-.31.48-.65.7-.96.25-.36.66-.53,1.06-.61.3-.05.63.07,1.12.31"/><path d="M116.1,95.07c.47-.03,1.13-.19,1.74-.07.62.12,1.25.29,1.42.9.15.52.14,1.12-.17,1.44-.28.28-.85.38-1.33.53-.41.13-.87.28-1.33.34-.46.06-.94.06-1.37.05-.55,0-1.26-.07-1.57-.14-.22-.6.16-.72.07-1.35-.09-.63-.39-.62-.41-1.26.14-.24.9-.54,1.5-.64.55-.09,1.17.23,1.45.21"/><path d="M87.97,57.52c.43.35.55.72.64,1.12.12.48.34,1.03.06,1.4-.27.34-.85.37-1.36.43-.4.05-.93.29-1.43.09-.38-.15-.71-.58-1.12-.91-.41-.33-.88-.67-1.06-1.11-.18-.44.15-.93.29-1.47.16-.6.44-.98,1.06-.95.49.02,1.06.31,1.57.52.59.25,1.07.64,1.36.88"/><path d="M115.79,86.99c.32-.01,1.5.41,1.65.74.31.69-.11,1.24-.49,1.6-.38.36-.89.67-1.26,1.04-.21.21-.43.66-.77,1.02-.3.32-.86.37-1.17.59-.44.3-.74.54-1.03.22-.18-.2-.18-.57-.23-1.19-.04-.41.06-.81.29-1.29.2-.41.18-1.01.49-1.39.32-.37.84-.57,1.21-.82.44-.31.89-.51,1.3-.53"/><path d="M85.07,74.06c-.16-.13-1.18-1.29-1.2-1.48-.03-.29.46-.75.88-1.19.31-.32.78-.51,1.14-.78.47-.36.83-.76,1.08-.83.54-.15,1.11-.05,1.54.23.45.29.79.78.78,1.35,0,.32-.24.81-.62,1.25-.28.32-.65.67-1.03.95-.39.29-.88.41-1.27.56-.52.19-.96.22-1.28-.05"/><path d="M113.37,101.09c.33-.1,1.02.17,1.7.27.54.08,1.12.18,1.61.36.65.24.94.65,1.07,1.03.18.55.26.87.03,1.2-.24.34-.63.47-1.12.59-.42.1-.87.42-1.34.38-.47-.04-.88-.4-1.27-.57-.47-.2-1.02-.33-1.21-.69-.2-.4-.11-.94-.09-1.36.03-.44.07-1.04.62-1.21"/><path d="M87.11,130.48c-.14.15-1.1.31-1.33.33-.32.03-.77-.18-1.37-.54-.45-.27-1.08-.35-1.47-.69-.53-.46-.83-1.02-.85-1.35-.03-.62.19-.94.49-1.16.33-.24.71-.21,1.24-.1.41.09.8.29,1.22.52.4.22.96.24,1.3.53.38.33.81.69.99,1.04.25.47.1,1.06-.22,1.41"/><path d="M82.6,142.26c-.02-.22-.56.01-.6-.2.27-.23.95-.63,1.49-.97.44-.27.85-.72,1.33-.91.56-.23,1.15,0,1.58.07.47.09,1.02.25,1.12.96.05.36-.56.62-1,1.03-.31.29-.44.93-.86,1.19-.41.25-.88.49-1.28.65-.57.23-1.12-.01-1.41-.06-.42-.07-.48-.3-.54-.71-.06-.39-.15-.79.16-1.05"/><path d="M83.28,64.6c.14-.1.76-.5,1.53-.66.78-.17,1.57-.32,1.71-.29.49.09,1.14,1.19,1.06,1.7-.08.52-.36,1.01-.83,1.29-.42.25-.98.48-1.49.55-.56.07-1.16-.05-1.57-.19-.34-.12-.84-.65-1-1.19-.15-.51.17-.9.6-1.21"/><path d="M81.45,134.65c.26-.2.75-.12,1.27-.21.42-.07.84-.35,1.27-.32.48.04.89.23,1.22.42.4.23.7.52.64,1.03-.05.44-.37.78-.78,1.04-.34.22-.74.57-1.19.67-.44.09-.93-.1-1.36-.13-.49-.04-.93-.14-1.26-.35-.4-.25-.7-.61-.6-1.11.01-.06.73-.99.79-1.04"/></svg>