<?xml version="1.0" encoding="UTF-8"?><svg id="Layer_1" xmlns="http://www.w3.org/2000/svg" viewBox="0 0 200 200"><path d="M70.07,131.12c.47-.73.96-.92,1.76-.66.45.14.86.5,1.34.71.44.19.96.27,1.42.49.44.22.91.41,1.35.64.44.23.75.7,1.19.93.44.24.95.34,1.39.56.45.23.8.64,1.24.85.46.22.99.24,1.44.42.43.17.8.54,1.26.7.44.16.98.03,1.44.18.45.14.79.65,1.25.78.45.13,1.01-.11,1.47,0,.46.12.87.43,1.33.54.46.1.94.12,1.41.21.47.09.89.44,1.36.52.47.07.99-.18,1.46-.12.47.06.94.12,1.41.16.47.04.94.12,1.42.14.48.02.95.14,1.42.14.48,0,.96,0,1.43-.02.48-.02.94-.2,1.41-.24.48-.04.94-.15,1.4-.21.47-.07.98.08,1.44-.02.47-.1.97-.12,1.42-.25.32-.09.78-.23,1.25-.43.37-.16.63-.67,1.05-.85.4-.18.78-.42,1.17-.59.43-.18.93-.14,1.3-.27.52-.19.95-.32,1.24-.32.5,0,.93.29,1.24.73.29.41.55.92.46,1.43-.08.45-.52.7-1.03,1.03-.39.25-.77.5-1.19.72-.41.21-.83.41-1.26.59-.43.18-.88.27-1.33.43-.44.15-.76.69-1.22.81-.45.12-.98-.08-1.44.02-.46.1-.88.34-1.35.42-.46.08-.94-.02-1.41.04-.46.06-.9.37-1.37.41-.47.04-.95-.14-1.42-.12-.47.02-.93.16-1.4.16-.47,0-.94.06-1.41.05-.47,0-.95.12-1.42.09-.47-.02-.92-.44-1.38-.47-.47-.04-.93-.15-1.39-.2-.47-.05-.97.19-1.43.12-.47-.07-.96-.02-1.42-.1-.47-.08-.93-.19-1.38-.28-.47-.1-.9-.35-1.34-.46-.38-.1-.86-.16-1.38-.33-.41-.13-.83-.39-1.3-.56-.42-.15-.92-.16-1.38-.33-.43-.16-.8-.52-1.25-.69-.43-.17-.82-.46-1.26-.64-.43-.18-.95-.17-1.38-.36-.43-.19-.92-.26-1.35-.46-.44-.2-.9-.33-1.32-.53-.44-.21-.7-.75-1.11-.96-.44-.22-1.04-.1-1.43-.32-.44-.25-.83-.55-1.19-.78-.46-.29-.91-.53-1.2-.79-.49-.42-.55-.98-.57-1.38-.02-.4.22-.77.56-1.29"/><path d="M70.07,131.12c.47-.73.96-.92,1.76-.66.45.14.86.5,1.34.71.44.19.96.27,1.42.49.44.22.91.41,1.35.64.44.23.75.7,1.19.93.44.24.95.34,1.39.56.45.23.8.64,1.24.85.46.22.99.24,1.44.42.43.17.8.54,1.26.7.44.16.98.03,1.44.18.45.14.79.65,1.25.78.45.13,1.01-.11,1.47,0,.46.12.87.43,1.33.54.46.1.94.12,1.41.21.47.09.89.44,1.36.52.47.07.99-.18,1.46-.12.47.06.94.12,1.41.16.47.04.94.12,1.42.14.48.02.95.14,1.42.14.48,0,.96,0,1.43-.02.48-.02.94-.2,1.41-.24.48-.04.94-.15,1.4-.21.47-.07.98.08,1.44-.02.47-.1.97-.12,1.42-.25.32-.09.78-.23,1.25-.43.37-.16.63-.67,1.05-.85.4-.18.78-.42,1.17-.59.43-.18.93-.14,1.3-.27.52-.19.95-.32,1.24-.32.5,0,.93.29,1.24.73.29.41.55.92.46,1.43-.08.45-.52.7-1.03,1.03-.39.25-.77.5-1.19.72-.41.21-.83.41-1.26.59-.43.18-.88.27-1.33.43-.44.15-.76.69-1.22.81-.45.12-.98-.08-1.44.02-.46.1-.88.34-1.35.42-.46.08-.94-.02-1.41.04-.46.06-.9.37-1.37.41-.47.04-.95-.14-1.42-.12-.47.02-.93.16-1.4.16-.47,0-.94.06-1.41.05-.47,0-.95.12-1.42.09-.47-.02-.92-.44-1.38-.47-.47-.04-.93-.15-1.39-.2-.47-.05-.97.19-1.43.12-.47-.07-.96-.02-1.42-.1-.47-.08-.93-.19-1.38-.28-.47-.1-.9-.35-1.34-.46-.38-.1-.86-.16-1.38-.33-.41-.13-.83-.39-1.3-.56-.42-.15-.92-.16-1.38-.33-.43-.16-.8-.52-1.25-.69-.43-.17-.82-.46-1.26-.64-.43-.18-.95-.17-1.38-.36-.43-.19-.92-.26-1.35-.46-.44-.2-.9-.33-1.32-.53-.44-.21-.7-.75-1.11-.96-.44-.22-1.04-.1-1.43-.32-.44-.25-.83-.55-1.19-.78-.46-.29-.91-.53-1.2-.79-.49-.42-.55-.98-.57-1.38-.02-.4.22-.77.56-1.29"/><path d="M99.66,58.77c.28.24.45.48.51.86.06.37.33.82.2,1.15-.11.28-.31.75-.6,1.22-.21.34-.57.65-.83,1.04-.24.35-.55.69-.81,1.05-.26.36-.71.59-.97.94-.28.38-.26.96-.5,1.28-.32.43-.67.74-.87,1-.28.38-.52.8-.81,1.17-.29.37-.56.77-.87,1.13-.3.36-.9.48-1.21.84-.31.36-.61.72-.94,1.06-.32.35-.37.95-.7,1.29-.33.34-.88.46-1.22.79-.34.33-.66.68-1.01,1-.35.32-.8.52-1.16.83-.36.31-.49.88-.86,1.19-.37.3-.86.45-1.23.74-.38.29-.71.63-1.09.91-.39.28-.89.38-1.28.64-.39.26-.64.74-1.05.99-.4.25-.93.28-1.34.52-.41.24-.78.54-1.2.76-.42.22-.86.4-1.28.61-.43.2-.86.39-1.29.58-.44.19-.88.34-1.32.51-.44.17-.88.35-1.33.49-.45.15-.84.49-1.3.61-.31.09-.82.03-1.36.17-.4.1-.79.49-1.26.59-.44.09-.94-.07-1.39,0-.47.06-.92.11-1.35.1-.51,0-1,.07-1.37-.08-.46-.18-.73-.56-.81-1.05-.05-.35,0-.78.23-1.33.12-.31.64-.38,1.24-.6.4-.15.82-.43,1.33-.56.46-.11.92-.31,1.39-.4.5-.1.96-.33,1.4-.41.59-.11,1.09-.14,1.41-.22.47-.13,1.01.01,1.47-.14.46-.15.87-.46,1.32-.63.45-.17.93-.29,1.36-.49.44-.2.82-.53,1.25-.75.43-.22.87-.42,1.29-.65.42-.24.84-.47,1.25-.73.41-.26.77-.58,1.17-.85.4-.27.89-.41,1.27-.7.38-.29.57-.82.95-1.13.37-.31.98-.34,1.34-.66.36-.32.64-.73.99-1.06.35-.33.53-.84.86-1.18.34-.34.88-.49,1.21-.84.33-.35.74-.63,1.06-.99.32-.36.65-.72.96-1.09.31-.37.59-.76.89-1.14.3-.38.28-1,.58-1.38.29-.38.67-.7.96-1.09.29-.39.8-.61,1.08-1,.28-.39.22-1.02.49-1.42.27-.4.76-.65,1.03-1.05.27-.4.67-.71.94-1.11.26-.4.31-.95.57-1.35.33-.39.84-.67,1.34-.7.5-.02.91.39,1.28.7"/><path d="M99.66,58.77c.28.24.45.48.51.86.06.37.33.82.2,1.15-.11.28-.31.75-.6,1.22-.21.34-.57.65-.83,1.04-.24.35-.55.69-.81,1.05-.26.36-.71.59-.97.94-.28.38-.26.96-.5,1.28-.32.43-.67.74-.87,1-.28.38-.52.8-.81,1.17-.29.37-.56.77-.87,1.13-.3.36-.9.48-1.21.84-.31.36-.61.72-.94,1.06-.32.35-.37.95-.7,1.29-.33.34-.88.46-1.22.79-.34.33-.66.68-1.01,1-.35.32-.8.52-1.16.83-.36.31-.49.88-.86,1.19-.37.3-.86.45-1.23.74-.38.29-.71.63-1.09.91-.39.28-.89.38-1.28.64-.39.26-.64.74-1.05.99-.4.25-.93.28-1.34.52-.41.24-.78.54-1.2.76-.42.22-.86.4-1.28.61-.43.2-.86.39-1.29.58-.44.19-.88.34-1.32.51-.44.17-.88.35-1.33.49-.45.15-.84.49-1.3.61-.31.09-.82.03-1.36.17-.4.1-.79.49-1.26.59-.44.09-.94-.07-1.39,0-.47.06-.92.11-1.35.1-.51,0-1,.07-1.37-.08-.46-.18-.73-.56-.81-1.05-.05-.35,0-.78.23-1.33.12-.31.64-.38,1.24-.6.4-.15.82-.43,1.33-.56.46-.11.92-.31,1.39-.4.5-.1.96-.33,1.4-.41.59-.11,1.09-.14,1.41-.22.47-.13,1.01.01,1.47-.14.46-.15.87-.46,1.32-.63.45-.17.93-.29,1.36-.49.44-.2.82-.53,1.25-.75.43-.22.87-.42,1.29-.65.42-.24.84-.47,1.25-.73.41-.26.77-.58,1.17-.85.4-.27.89-.41,1.27-.7.38-.29.57-.82.95-1.13.37-.31.98-.34,1.34-.66.36-.32.64-.73.99-1.06.35-.33.53-.84.86-1.18.34-.34.88-.49,1.21-.84.33-.35.74-.63,1.06-.99.32-.36.65-.72.96-1.09.31-.37.59-.76.89-1.14.3-.38.28-1,.58-1.38.29-.38.67-.7.96-1.09.29-.39.8-.61,1.08-1,.28-.39.22-1.02.49-1.42.27-.4.76-.65,1.03-1.05.27-.4.67-.71.94-1.11.26-.4.31-.95.57-1.35.33-.39.84-.67,1.34-.7.5-.02.91.39,1.28.7"/><path d="M99.64,99.53c-.4-.47-.65-1-.65-1.43,0-.53.46-.88.96-1.13.38-.2.86-.48,1.47-.38.28.05.58.54,1.08.86.34.22.68.52,1.07.81.35.26.7.55,1.07.83.36.28,1.02.18,1.37.45.38.29.74.57,1.08.82.44.32.67.8.97.97.41.23.86.38,1.27.58.42.2.77.56,1.2.74.43.18.86.37,1.3.53.44.16.92.22,1.36.35.45.13.91.21,1.36.33.45.11.91.22,1.36.31.46.09.89.31,1.36.38.46.07.92.19,1.39.25.46.05.95-.12,1.41-.09.46.03.94-.15,1.4-.13.46.02.92.12,1.39.12.46,0,.93,0,1.39,0,.47-.01.95.26,1.41.23.47-.03.92-.3,1.38-.34.35-.03.88.14,1.42.04.43-.08.87-.35,1.34-.44.48-.1.89-.5,1.31-.57.59-.1,1.12.19,1.4.22.42.04.85.24,1.22.6.36.36.54.75.49,1.21-.05.54-.32.8-.76,1.1-.38.26-.8.46-1.32.6-.49.13-.99.19-1.48.26-.57.07-1.06.44-1.47.49-.48.06-.97.01-1.45.06-.48.05-.98-.12-1.46-.09-.48.03-.96.07-1.44.09-.48.02-.96.1-1.44.11-.48,0-.96,0-1.44,0-.48,0-.97.17-1.45.14-.48-.03-.94-.37-1.42-.41-.48-.05-.96-.01-1.44-.07-.48-.06-.96-.11-1.43-.19-.47-.08-.94-.21-1.41-.31-.47-.1-1.02.09-1.48-.03-.47-.12-.91-.36-1.37-.51-.46-.15-.86-.47-1.31-.64-.45-.17-.92-.29-1.36-.48-.44-.19-.85-.46-1.28-.67-.43-.21-.86-.42-1.28-.66-.42-.23-.89-.38-1.3-.64-.41-.25-.91-.37-1.31-.65-.26-.18-.63-.55-1.12-.9-.36-.26-.71-.62-1.11-.92-.4-.3-.68-.74-1.03-1.02-.5-.4-1.04-.58-1.21-.79"/><path d="M99.64,99.53c-.4-.47-.65-1-.65-1.43,0-.53.46-.88.96-1.13.38-.2.86-.48,1.47-.38.28.05.58.54,1.08.86.34.22.68.52,1.07.81.35.26.7.55,1.07.83.36.28,1.02.18,1.37.45.38.29.74.57,1.08.82.44.32.67.8.97.97.41.23.86.38,1.27.58.42.2.77.56,1.2.74.43.18.86.37,1.3.53.44.16.92.22,1.36.35.45.13.91.21,1.36.33.45.11.91.22,1.36.31.46.09.89.31,1.36.38.46.07.92.19,1.39.25.46.05.95-.12,1.41-.09.46.03.94-.15,1.4-.13.46.02.92.12,1.39.12.46,0,.93,0,1.39,0,.47-.01.95.26,1.41.23.47-.03.92-.3,1.38-.34.35-.03.88.14,1.42.04.43-.08.87-.35,1.34-.44.48-.1.89-.5,1.31-.57.59-.1,1.12.19,1.4.22.42.04.85.24,1.22.6.36.36.54.75.49,1.21-.05.54-.32.8-.76,1.1-.38.26-.8.46-1.32.6-.49.13-.99.19-1.48.26-.57.07-1.06.44-1.47.49-.48.06-.97.01-1.45.06-.48.05-.98-.12-1.46-.09-.48.03-.96.07-1.44.09-.48.02-.96.1-1.44.11-.48,0-.96,0-1.44,0-.48,0-.97.17-1.45.14-.48-.03-.94-.37-1.42-.41-.48-.05-.96-.01-1.44-.07-.48-.06-.96-.11-1.43-.19-.47-.08-.94-.21-1.41-.31-.47-.1-1.02.09-1.48-.03-.47-.12-.91-.36-1.37-.51-.46-.15-.86-.47-1.31-.64-.45-.17-.92-.29-1.36-.48-.44-.19-.85-.46-1.28-.67-.43-.21-.86-.42-1.28-.66-.42-.23-.89-.38-1.3-.64-.41-.25-.91-.37-1.31-.65-.26-.18-.63-.55-1.12-.9-.36-.26-.71-.62-1.11-.92-.4-.3-.68-.74-1.03-1.02-.5-.4-1.04-.58-1.21-.79"/><path d="M70.07,131.12c.47-.73.96-.92,1.76-.66.45.14.86.5,1.34.71.44.19.96.27,1.42.49.44.22.91.41,1.35.64.44.23.75.7,1.19.93.44.24.95.34,1.39.56.45.23.8.64,1.24.85.46.22.99.24,1.44.42.43.17.8.54,1.26.7.44.16.98.03,1.44.18.45.14.79.65,1.25.78.45.13,1.01-.11,1.47,0,.46.12.87.43,1.33.54.46.1.94.12,1.41.21.47.09.89.44,1.36.52.47.07.99-.18,1.46-.12.47.06.94.12,1.41.16.47.04.94.12,1.42.14.48.02.95.14,1.42.14.48,0,.96,0,1.43-.02.48-.02.94-.2,1.41-.24.48-.04.94-.15,1.4-.21.47-.07.98.08,1.44-.02.47-.1.97-.12,1.42-.25.32-.09.78-.23,1.25-.43.37-.16.63-.67,1.05-.85.4-.18.78-.42,1.17-.59.43-.18.93-.14,1.3-.27.52-.19.95-.32,1.24-.32.5,0,.93.29,1.24.73.29.41.55.92.46,1.43-.08.45-.52.7-1.03,1.03-.39.25-.77.5-1.19.72-.41.21-.83.41-1.26.59-.43.18-.88.27-1.33.43-.44.15-.76.69-1.22.81-.45.12-.98-.08-1.44.02-.46.1-.88.34-1.35.42-.46.08-.94-.02-1.41.04-.46.06-.9.37-1.37.41-.47.04-.95-.14-1.42-.12-.47.02-.93.16-1.4.16-.47,0-.94.06-1.41.05-.47,0-.95.12-1.42.09-.47-.02-.92-.44-1.38-.47-.47-.04-.93-.15-1.39-.2-.47-.05-.97.19-1.43.12-.47-.07-.96-.02-1.42-.1-.47-.08-.93-.19-1.38-.28-.47-.1-.9-.35-1.34-.46-.38-.1-.86-.16-1.38-.33-.41-.13-.83-.39-1.3-.56-.42-.15-.92-.16-1.38-.33-.43-.16-.8-.52-1.25-.69-.43-.17-.82-.46-1.26-.64-.43-.18-.95-.17-1.38-.36-.43-.19-.92-.26-1.35-.46-.44-.2-.9-.33-1.32-.53-.44-.21-.7-.75-1.11-.96-.44-.22-1.04-.1-1.43-.32-.44-.25-.83-.55-1.19-.78-.46-.29-.91-.53-1.2-.79-.49-.42-.55-.98-.57-1.38-.02-.4.22-.77.56-1.29"/><path d="M99.66,58.77c.28.24.45.48.51.86.06.37.33.82.2,1.15-.11.28-.31.75-.6,1.22-.21.34-.57.65-.83,1.04-.24.35-.55.69-.81,1.05-.26.36-.71.59-.97.94-.28.38-.26.96-.5,1.28-.32.43-.67.74-.87,1-.28.38-.52.8-.81,1.17-.29.37-.56.77-.87,1.13-.3.36-.9.48-1.21.84-.31.36-.61.72-.94,1.06-.32.35-.37.95-.7,1.29-.33.34-.88.46-1.22.79-.34.33-.66.68-1.01,1-.35.32-.8.52-1.16.83-.36.31-.49.88-.86,1.19-.37.3-.86.45-1.23.74-.38.29-.71.63-1.09.91-.39.28-.89.38-1.28.64-.39.26-.64.74-1.05.99-.4.25-.93.28-1.34.52-.41.24-.78.54-1.2.76-.42.22-.86.4-1.28.61-.43.2-.86.39-1.29.58-.44.19-.88.34-1.32.51-.44.17-.88.35-1.33.49-.45.15-.84.49-1.3.61-.31.09-.82.03-1.36.17-.4.1-.79.49-1.26.59-.44.09-.94-.07-1.39,0-.47.06-.92.11-1.35.1-.51,0-1,.07-1.37-.08-.46-.18-.73-.56-.81-1.05-.05-.35,0-.78.23-1.33.12-.31.64-.38,1.24-.6.4-.15.82-.43,1.33-.56.46-.11.92-.31,1.39-.4.5-.1.96-.33,1.4-.41.59-.11,1.09-.14,1.41-.22.47-.13,1.01.01,1.47-.14.46-.15.87-.46,1.32-.63.45-.17.93-.29,1.36-.49.44-.2.82-.53,1.25-.75.43-.22.87-.42,1.29-.65.42-.24.84-.47,1.25-.73.41-.26.77-.58,1.17-.85.4-.27.89-.41,1.27-.7.38-.29.57-.82.95-1.13.37-.31.98-.34,1.34-.66.36-.32.64-.73.99-1.06.35-.33.53-.84.86-1.18.34-.34.88-.49,1.21-.84.33-.35.74-.63,1.06-.99.32-.36.65-.72.96-1.09.31-.37.59-.76.89-1.14.3-.38.28-1,.58-1.38.29-.38.67-.7.96-1.09.29-.39.8-.61,1.08-1,.28-.39.22-1.02.49-1.42.27-.4.76-.65,1.03-1.05.27-.4.67-.71.94-1.11.26-.4.31-.95.57-1.35.33-.39.84-.67,1.34-.7.5-.02.91.39,1.28.7"/><path d="M99.64,99.53c-.4-.47-.65-1-.65-1.43,0-.53.46-.88.96-1.13.38-.2.86-.48,1.47-.38.28.05.58.54,1.08.86.34.22.68.52,1.07.81.35.26.7.55,1.07.83.36.28,1.02.18,1.37.45.38.29.74.57,1.08.82.44.32.67.8.97.97.41.23.86.38,1.27.58.42.2.77.56,1.2.74.43.18.86.37,1.3.53.44.16.92.22,1.36.35.45.13.91.21,1.36.33.45.11.91.22,1.36.31.46.09.89.31,1.36.38.46.07.92.19,1.39.25.46.05.95-.12,1.41-.09.46.03.94-.15,1.4-.13.46.02.92.12,1.39.12.46,0,.93,0,1.39,0,.47-.01.95.26,1.41.23.47-.03.92-.3,1.38-.34.35-.03.88.14,1.42.04.43-.08.87-.35,1.34-.44.48-.1.89-.5,1.31-.57.59-.1,1.12.19,1.4.22.42.04.85.24,1.22.6.36.36.54.75.49,1.21-.05.54-.32.8-.76,1.1-.38.26-.8.46-1.32.6-.49.13-.99.19-1.48.26-.57.07-1.06.44-1.47.49-.48.06-.97.01-1.45.06-.48.05-.98-.12-1.46-.09-.48.03-.96.07-1.44.09-.48.02-.96.1-1.44.11-.48,0-.96,0-1.44,0-.48,0-.97.17-1.45.14-.48-.03-.94-.37-1.42-.41-.48-.05-.96-.01-1.44-.07-.48-.06-.96-.11-1.43-.19-.47-.08-.94-.21-1.41-.31-.47-.1-1.02.09-1.48-.03-.47-.12-.91-.36-1.37-.51-.46-.15-.86-.47-1.31-.64-.45-.17-.92-.29-1.36-.48-.44-.19-.85-.46-1.28-.67-.43-.21-.86-.42-1.28-.66-.42-.23-.89-.38-1.3-.64-.41-.25-.91-.37-1.31-.65-.26-.18-.63-.55-1.12-.9-.36-.26-.71-.62-1.11-.92-.4-.3-.68-.74-1.03-1.02-.5-.4-1.04-.58-1.21-.79"/></svg>