<?xml version="1.0" encoding="UTF-8"?><svg id="Layer_1" xmlns="http://www.w3.org/2000/svg" viewBox="0 0 200 200"><path d="M129.46,113.87c-.34.32-.74.57-1.14.84-.38.26-.74.59-1.17.81-.41.21-.82.47-1.28.65-.43.17-.87.4-1.33.54-.44.14-.94.15-1.41.26-.45.11-.93.16-1.4.25-.46.09-.93.14-1.4.2-.46.07-.94.09-1.41.14-.47.05-.94.03-1.42.07-.47.04-.93.17-1.41.2-.47.03-.95.02-1.42.04-.47.02-.94.1-1.42.11-.47.01-.95-.16-1.42-.16-.48,0-.95,0-1.42,0s-.95.25-1.42.25c-.48,0-.96,0-1.42,0-.48,0-.95-.05-1.42-.06-.49,0-.96-.11-1.42-.11-.49,0-.96-.07-1.42-.07-.49,0-.96.12-1.41.13-.45,0-.92-.2-1.38-.19-.46.01-.91.25-1.37.27-.46.02-.92-.24-1.39-.22-.46.02-.91.05-1.37.07-.46.02-.91.26-1.37.27-.46.02-.92-.18-1.38-.16-.46.02-.92.08-1.38.1-.46.01-.91.4-1.37.41-.46,0-.92-.18-1.38-.18-.46,0-.92.05-1.38.04-.46,0-.92-.22-1.37-.23-.46-.02-.92-.07-1.37-.09-.46-.03-.94.19-1.39.15-.46-.04-.89-.37-1.34-.42-.46-.05-.92-.05-1.37-.11-.46-.07-.91-.12-1.36-.21-.45-.08-.9-.18-1.35-.28-.45-.1-.89-.2-1.34-.32-.44-.12-.93-.1-1.37-.25-.44-.15-.81-.47-1.23-.64-.43-.17-.94-.13-1.36-.32-.42-.19-.78-.49-1.19-.71-.4-.22-.78-.49-1.17-.73-.39-.24-.87-.36-1.25-.63-.37-.27-.55-.78-.91-1.08-.35-.29-.83-.44-1.17-.76-.33-.31-.45-.84-.76-1.18-.32-.34-.8-.53-1.09-.9-.29-.36-.34-.89-.6-1.28-.26-.39-.59-.71-.82-1.12-.23-.4-.69-.68-.9-1.1-.21-.41-.18-.94-.37-1.37-.18-.43-.41-.84-.57-1.27-.16-.43-.25-.89-.39-1.34-.14-.44-.4-.85-.52-1.3-.12-.45-.06-.94-.16-1.4-.1-.45-.07-.93-.15-1.39-.08-.46-.27-.89-.34-1.35-.06-.46-.27-.9-.31-1.37-.05-.46.14-.95.11-1.41-.03-.47-.27-.92-.29-1.38-.02-.47-.07-.93-.07-1.4,0-.47.03-.93.04-1.4.01-.47.29-.92.31-1.38.02-.35-.12-.88-.07-1.43.05-.47.04-.98.12-1.44.1-.57.1-1.14.24-1.45.21-.43.74-.48,1.08-.64.4-.18.83-.47,1.19-.29.34.17.35.66.46,1.14.09.38.3.79.33,1.3.02.42,0,.88,0,1.35,0,.44.25.91.23,1.37-.02.45-.15.91-.17,1.35-.02.47-.3.92-.31,1.35-.01.49.13.96.15,1.36.02.48-.14.97-.11,1.44.04.48.07.96.12,1.43.05.48.23.94.3,1.41.07.47.29.92.39,1.39.1.47.27.91.39,1.37.12.46.39.87.53,1.32.14.45.04.99.21,1.44.17.44.43.85.63,1.29.2.44.2.96.42,1.36.22.42.55.79.79,1.17.25.4.7.66.97,1.03.28.38.56.75.86,1.09.31.36.71.6,1.04.92.34.33.4.96.76,1.25.36.3.84.46,1.22.72.39.27.68.7,1.08.94.4.23.98.15,1.4.36.42.2.73.67,1.16.84.43.17.87.36,1.32.51.44.14.99-.04,1.44.07.45.12.85.46,1.31.55.45.09.96-.07,1.42,0,.46.07.89.32,1.36.37.46.05.95-.18,1.42-.14.46.04.9.41,1.37.43.46.02.94-.24,1.41-.23.47.01.93.07,1.4.07.47,0,.93-.09,1.4-.1.47,0,.93.09,1.4.08.47-.01.94.19,1.41.17.47-.02.93-.08,1.4-.1.47-.02.92-.36,1.38-.39.47-.02.94-.03,1.4-.05.47-.02.95.26,1.41.24.47-.02.94.03,1.41.01.47-.02.93-.14,1.39-.16.47-.02.93-.25,1.39-.26.44,0,.91.08,1.4.08.45,0,.91.26,1.4.27.45,0,.92-.02,1.4,0,.46,0,.93-.33,1.41-.32.46,0,.93.01,1.4.02.46,0,.93.1,1.4.1.46,0,.93.23,1.4.22.47,0,.94-.06,1.4-.07.47,0,.93-.17,1.4-.19.47-.02.95.13,1.41.1.47-.03.95.03,1.41-.01.47-.05.91-.36,1.37-.43.47-.07.9-.32,1.35-.41.47-.09.99.12,1.43,0,.47-.12.82-.56,1.25-.71.46-.16.91-.24,1.31-.43.44-.21.83-.42,1.2-.67.39-.26.72-.56,1.07-.86.35-.3.71-.57,1.03-.9.32-.33.9-.44,1.2-.8.29-.36.51-.79.77-1.18.26-.38.2-.96.43-1.37.23-.4.43-.8.63-1.22.2-.41.49-.78.67-1.21.18-.42.36-.84.52-1.28.16-.43.24-.89.39-1.33.14-.44.47-.82.6-1.26.13-.44.22-.9.34-1.35.11-.45.36-.87.46-1.32.1-.45.21-.91.3-1.36.09-.45-.12-.97-.04-1.42.08-.46.31-.89.38-1.34.08-.46.16-.92.23-1.37.07-.46.36-.89.42-1.34.07-.46-.08-.95-.02-1.4.06-.46-.11-.96-.05-1.41.06-.47.47-.88.53-1.32.07-.47.1-.93.17-1.37.06-.39,0-.87.08-1.35.07-.45-.02-.97.12-1.37.17-.47.66-.64,1.02-.86.32-.19.68-.46,1.23-.28.63.2.75.75.88,1.27.13.52.1,1.07.08,1.6-.01.45-.07.9-.1,1.37-.03.45.37.94.33,1.41-.04.45-.12.91-.16,1.38-.05.45-.08.91-.14,1.38-.06.45-.4.87-.46,1.33-.07.45.08.94,0,1.4-.08.45-.3.88-.39,1.34-.09.45-.29.88-.38,1.33-.1.45.13.97.03,1.42-.11.45-.43.84-.55,1.29-.11.45-.43.83-.56,1.28-.13.44-.24.89-.38,1.33-.14.44-.18.91-.32,1.35-.15.44-.34.86-.5,1.29-.16.43-.08.96-.26,1.39-.18.43-.65.73-.84,1.14-.19.42-.18.94-.38,1.35-.21.42-.31.89-.53,1.29-.23.41-.8.6-1.04.99-.25.4-.46.79-.72,1.17-.27.38-.44.82-.73,1.18-.29.36-.46.83-.76,1.17-.32.34-.73.59-1.06.9"/><path d="M129.46,113.87c-.34.32-.74.57-1.14.84-.38.26-.74.59-1.17.81-.41.21-.82.47-1.28.65-.43.17-.87.4-1.33.54-.44.14-.94.15-1.41.26-.45.11-.93.16-1.4.25-.46.09-.93.14-1.4.2-.46.07-.94.09-1.41.14-.47.05-.94.03-1.42.07-.47.04-.93.17-1.41.2-.47.03-.95.02-1.42.04-.47.02-.94.1-1.42.11-.47.01-.95-.16-1.42-.16-.48,0-.95,0-1.42,0s-.95.25-1.42.25c-.48,0-.96,0-1.42,0-.48,0-.95-.05-1.42-.06-.49,0-.96-.11-1.42-.11-.49,0-.96-.07-1.42-.07-.49,0-.96.12-1.41.13-.45,0-.92-.2-1.38-.19-.46.01-.91.25-1.37.27-.46.02-.92-.24-1.39-.22-.46.02-.91.05-1.37.07-.46.02-.91.26-1.37.27-.46.02-.92-.18-1.38-.16-.46.02-.92.08-1.38.1-.46.01-.91.4-1.37.41-.46,0-.92-.18-1.38-.18-.46,0-.92.05-1.38.04-.46,0-.92-.22-1.37-.23-.46-.02-.92-.07-1.37-.09-.46-.03-.94.19-1.39.15-.46-.04-.89-.37-1.34-.42-.46-.05-.92-.05-1.37-.11-.46-.07-.91-.12-1.36-.21-.45-.08-.9-.18-1.35-.28-.45-.1-.89-.2-1.34-.32-.44-.12-.93-.1-1.37-.25-.44-.15-.81-.47-1.23-.64-.43-.17-.94-.13-1.36-.32-.42-.19-.78-.49-1.19-.71-.4-.22-.78-.49-1.17-.73-.39-.24-.87-.36-1.25-.63-.37-.27-.55-.78-.91-1.08-.35-.29-.83-.44-1.17-.76-.33-.31-.45-.84-.76-1.18-.32-.34-.8-.53-1.09-.9-.29-.36-.34-.89-.6-1.28-.26-.39-.59-.71-.82-1.12-.23-.4-.69-.68-.9-1.1-.21-.41-.18-.94-.37-1.37-.18-.43-.41-.84-.57-1.27-.16-.43-.25-.89-.39-1.34-.14-.44-.4-.85-.52-1.3-.12-.45-.06-.94-.16-1.4-.1-.45-.07-.93-.15-1.39-.08-.46-.27-.89-.34-1.35-.06-.46-.27-.9-.31-1.37-.05-.46.14-.95.11-1.41-.03-.47-.27-.92-.29-1.38-.02-.47-.07-.93-.07-1.4,0-.47.03-.93.04-1.4.01-.47.29-.92.31-1.38.02-.35-.12-.88-.07-1.43.05-.47.04-.98.12-1.44.1-.57.1-1.14.24-1.45.21-.43.74-.48,1.08-.64.4-.18.83-.47,1.19-.29.34.17.35.66.46,1.14.09.38.3.79.33,1.3.02.42,0,.88,0,1.35,0,.44.25.91.23,1.37-.02.45-.15.91-.17,1.35-.02.47-.3.92-.31,1.35-.01.49.13.96.15,1.36.02.48-.14.97-.11,1.44.04.48.07.96.12,1.43.05.48.23.94.3,1.41.07.47.29.92.39,1.39.1.47.27.91.39,1.37.12.46.39.87.53,1.32.14.45.04.99.21,1.44.17.44.43.85.63,1.29.2.44.2.96.42,1.36.22.42.55.79.79,1.17.25.4.7.66.97,1.03.28.38.56.75.86,1.09.31.36.71.6,1.04.92.34.33.4.96.76,1.25.36.3.84.46,1.22.72.39.27.68.7,1.08.94.4.23.98.15,1.4.36.42.2.73.67,1.16.84.43.17.87.36,1.32.51.44.14.99-.04,1.44.07.45.12.85.46,1.31.55.45.09.96-.07,1.42,0,.46.07.89.32,1.36.37.46.05.95-.18,1.42-.14.46.04.9.41,1.37.43.46.02.94-.24,1.41-.23.47.01.93.07,1.4.07.47,0,.93-.09,1.4-.1.47,0,.93.09,1.4.08.47-.01.94.19,1.41.17.47-.02.93-.08,1.4-.1.47-.02.92-.36,1.38-.39.47-.02.94-.03,1.4-.05.47-.02.95.26,1.41.24.47-.02.94.03,1.41.01.47-.02.93-.14,1.39-.16.47-.02.93-.25,1.39-.26.44,0,.91.08,1.4.08.45,0,.91.26,1.4.27.45,0,.92-.02,1.4,0,.46,0,.93-.33,1.41-.32.46,0,.93.01,1.4.02.46,0,.93.1,1.4.1.46,0,.93.23,1.4.22.47,0,.94-.06,1.4-.07.47,0,.93-.17,1.4-.19.47-.02.95.13,1.41.1.47-.03.95.03,1.41-.01.47-.05.91-.36,1.37-.43.47-.07.9-.32,1.35-.41.47-.09.99.12,1.43,0,.47-.12.82-.56,1.25-.71.46-.16.91-.24,1.31-.43.44-.21.83-.42,1.2-.67.39-.26.72-.56,1.07-.86.35-.3.71-.57,1.03-.9.32-.33.9-.44,1.2-.8.29-.36.51-.79.77-1.18.26-.38.2-.96.43-1.37.23-.4.43-.8.63-1.22.2-.41.49-.78.67-1.21.18-.42.36-.84.52-1.28.16-.43.24-.89.39-1.33.14-.44.47-.82.6-1.26.13-.44.22-.9.34-1.35.11-.45.36-.87.46-1.32.1-.45.21-.91.3-1.36.09-.45-.12-.97-.04-1.42.08-.46.31-.89.38-1.34.08-.46.16-.92.23-1.37.07-.46.36-.89.42-1.34.07-.46-.08-.95-.02-1.4.06-.46-.11-.96-.05-1.41.06-.47.47-.88.53-1.32.07-.47.1-.93.17-1.37.06-.39,0-.87.08-1.35.07-.45-.02-.97.12-1.37.17-.47.66-.64,1.02-.86.32-.19.68-.46,1.23-.28.63.2.75.75.88,1.27.13.52.1,1.07.08,1.6-.01.45-.07.9-.1,1.37-.03.45.37.94.33,1.41-.04.45-.12.91-.16,1.38-.05.45-.08.91-.14,1.38-.06.45-.4.87-.46,1.33-.07.45.08.94,0,1.4-.08.45-.3.88-.39,1.34-.09.45-.29.88-.38,1.33-.1.45.13.97.03,1.42-.11.45-.43.84-.55,1.29-.11.45-.43.83-.56,1.28-.13.44-.24.89-.38,1.33-.14.44-.18.91-.32,1.35-.15.44-.34.86-.5,1.29-.16.43-.08.96-.26,1.39-.18.43-.65.73-.84,1.14-.19.42-.18.94-.38,1.35-.21.42-.31.89-.53,1.29-.23.41-.8.6-1.04.99-.25.4-.46.79-.72,1.17-.27.38-.44.82-.73,1.18-.29.36-.46.83-.76,1.17-.32.34-.73.59-1.06.9"/><path d="M87.07,103.89c.34-.32.49-.79.71-1.19.22-.4.64-.74.75-1.2.11-.44.16-.93.19-1.4.02-.45.06-.94.02-1.41-.05-.45-.48-.86-.58-1.31-.1-.45-.04-.95-.2-1.38-.16-.44-.55-.77-.75-1.18-.21-.43-.25-.93-.5-1.3-.27-.4-.54-.8-.84-1.11-.34-.35-.7-.73-1.12-1-.41-.26-1.01-.17-1.47-.35-.45-.18-.91-.26-1.39-.35-.48-.09-.92-.6-1.41-.61-.49-.01-.96.41-1.45.48-.49.07-1.06-.19-1.52-.03-.47.16-.96.38-1.38.63-.42.25-.78.65-1.14.99-.35.34-.72.72-.98,1.14-.23.37-.25.89-.37,1.36-.11.43.04.89.01,1.37-.02.45-.08.89-.04,1.35.04.45.19.88.28,1.33.09.46-.08.97.06,1.4.15.45.47.82.66,1.22.21.44.2,1,.45,1.34.27.36.64.67.95.98.32.31.64.67,1,.92.37.25.95.13,1.35.32.4.19.78.38,1.21.5.43.12.84.27,1.28.32.44.05.87-.05,1.32-.07.44-.02.92.19,1.35.09.43-.1.82-.37,1.23-.55.41-.17.9-.2,1.28-.45.37-.24.69-.58,1.02-.89M78.43,86.8c.47-.07.91-.28,1.36-.29.47,0,.91.28,1.36.33.46.05.9.11,1.34.22.45.11.85.29,1.28.46.43.17.99.03,1.4.25.41.22.7.63,1.08.89.38.26.89.37,1.23.67.35.3.53.79.84,1.13.31.34.57.72.85,1.08.28.37.47.78.71,1.17.24.39.77.63.98,1.04.2.41.44.84.6,1.26.17.43-.13,1.01,0,1.46.12.45.6.81.68,1.26.08.46-.25.96-.23,1.41.03.46.02.9,0,1.35-.03.46.02.91-.06,1.36-.09.45-.24.87-.39,1.3-.15.44-.17.91-.39,1.32-.21.4-.3.92-.58,1.29-.27.36-.65.68-.99,1-.33.31-.65.68-1.04.95-.37.25-.92.24-1.35.45-.4.2-.75.53-1.2.69-.42.15-.94,0-1.4.11-.47.11-.91.27-1.36.33-.48.06-.94.02-1.4.02-.48,0-.97.37-1.44.32-.48-.06-.96-.19-1.41-.31-.46-.12-.91-.33-1.34-.5-.44-.18-.93-.29-1.34-.52-.41-.23-.67-.72-1.05-1-.38-.28-.83-.47-1.18-.8-.34-.32-.52-.81-.82-1.17-.31-.36-.68-.66-.95-1.05-.27-.39-.49-.8-.72-1.22-.22-.42-.27-.9-.46-1.34-.18-.44-.47-.82-.61-1.27-.14-.45-.22-.91-.32-1.37-.09-.47-.04-.94-.08-1.4-.04-.47-.42-.93-.41-1.4,0-.48.05-.96.12-1.43.07-.47.18-.95.31-1.4.13-.46.28-.93.47-1.36.19-.43.72-.68.97-1.08.26-.39.46-.8.78-1.15.31-.34.42-.93.8-1.23.36-.29.8-.54,1.22-.78.4-.23.96-.15,1.42-.33.43-.17.87-.27,1.35-.39.44-.11.88-.27,1.37-.34"/><path d="M87.07,103.89c.34-.32.49-.79.71-1.19.22-.4.64-.74.75-1.2.11-.44.16-.93.19-1.4.02-.45.06-.94.02-1.41-.05-.45-.48-.86-.58-1.31-.1-.45-.04-.95-.2-1.38-.16-.44-.55-.77-.75-1.18-.21-.43-.25-.93-.5-1.3-.27-.4-.54-.8-.84-1.11-.34-.35-.7-.73-1.12-1-.41-.26-1.01-.17-1.47-.35-.45-.18-.91-.26-1.39-.35-.48-.09-.92-.6-1.41-.61-.49-.01-.96.41-1.45.48-.49.07-1.06-.19-1.52-.03-.47.16-.96.38-1.38.63-.42.25-.78.65-1.14.99-.35.34-.72.72-.98,1.14-.23.37-.25.89-.37,1.36-.11.43.04.89.01,1.37-.02.45-.08.89-.04,1.35.04.45.19.88.28,1.33.09.46-.08.97.06,1.4.15.45.47.82.66,1.22.21.44.2,1,.45,1.34.27.36.64.67.95.98.32.31.64.67,1,.92.37.25.95.13,1.35.32.4.19.78.38,1.21.5.43.12.84.27,1.28.32.44.05.87-.05,1.32-.07.44-.02.92.19,1.35.09.43-.1.82-.37,1.23-.55.41-.17.9-.2,1.28-.45.37-.24.69-.58,1.02-.89M78.43,86.8c.47-.07.91-.28,1.36-.29.47,0,.91.28,1.36.33.46.05.9.11,1.34.22.45.11.85.29,1.28.46.43.17.99.03,1.4.25.41.22.7.63,1.08.89.38.26.89.37,1.23.67.35.3.53.79.84,1.13.31.34.57.72.85,1.08.28.37.47.78.71,1.17.24.39.77.63.98,1.04.2.41.44.84.6,1.26.17.43-.13,1.01,0,1.46.12.45.6.81.68,1.26.08.46-.25.96-.23,1.41.03.46.02.9,0,1.35-.03.46.02.91-.06,1.36-.09.45-.24.87-.39,1.3-.15.44-.17.91-.39,1.32-.21.4-.3.92-.58,1.29-.27.36-.65.68-.99,1-.33.31-.65.68-1.04.95-.37.25-.92.24-1.35.45-.4.2-.75.53-1.2.69-.42.15-.94,0-1.4.11-.47.11-.91.27-1.36.33-.48.06-.94.02-1.4.02-.48,0-.97.37-1.44.32-.48-.06-.96-.19-1.41-.31-.46-.12-.91-.33-1.34-.5-.44-.18-.93-.29-1.34-.52-.41-.23-.67-.72-1.05-1-.38-.28-.83-.47-1.18-.8-.34-.32-.52-.81-.82-1.17-.31-.36-.68-.66-.95-1.05-.27-.39-.49-.8-.72-1.22-.22-.42-.27-.9-.46-1.34-.18-.44-.47-.82-.61-1.27-.14-.45-.22-.91-.32-1.37-.09-.47-.04-.94-.08-1.4-.04-.47-.42-.93-.41-1.4,0-.48.05-.96.12-1.43.07-.47.18-.95.31-1.4.13-.46.28-.93.47-1.36.19-.43.72-.68.97-1.08.26-.39.46-.8.78-1.15.31-.34.42-.93.8-1.23.36-.29.8-.54,1.22-.78.4-.23.96-.15,1.42-.33.43-.17.87-.27,1.35-.39.44-.11.88-.27,1.37-.34"/><path d="M129.46,113.87c-.34.32-.74.57-1.14.84-.38.26-.74.59-1.17.81-.41.21-.82.47-1.28.65-.43.17-.87.4-1.33.54-.44.14-.94.15-1.41.26-.45.11-.93.16-1.4.25-.46.09-.93.14-1.4.2-.46.07-.94.09-1.41.14-.47.05-.94.03-1.42.07-.47.04-.93.17-1.41.2-.47.03-.95.02-1.42.04-.47.02-.94.1-1.42.11-.47.01-.95-.16-1.42-.16-.48,0-.95,0-1.42,0s-.95.25-1.42.25c-.48,0-.96,0-1.42,0-.48,0-.95-.05-1.42-.06-.49,0-.96-.11-1.42-.11-.49,0-.96-.07-1.42-.07-.49,0-.96.12-1.41.13-.45,0-.92-.2-1.38-.19-.46.01-.91.25-1.37.27-.46.02-.92-.24-1.39-.22-.46.02-.91.05-1.37.07-.46.02-.91.26-1.37.27-.46.02-.92-.18-1.38-.16-.46.02-.92.08-1.38.1-.46.01-.91.4-1.37.41-.46,0-.92-.18-1.38-.18-.46,0-.92.05-1.38.04-.46,0-.92-.22-1.37-.23-.46-.02-.92-.07-1.37-.09-.46-.03-.94.19-1.39.15-.46-.04-.89-.37-1.34-.42-.46-.05-.92-.05-1.37-.11-.46-.07-.91-.12-1.36-.21-.45-.08-.9-.18-1.35-.28-.45-.1-.89-.2-1.34-.32-.44-.12-.93-.1-1.37-.25-.44-.15-.81-.47-1.23-.64-.43-.17-.94-.13-1.36-.32-.42-.19-.78-.49-1.19-.71-.4-.22-.78-.49-1.17-.73-.39-.24-.87-.36-1.25-.63-.37-.27-.55-.78-.91-1.08-.35-.29-.83-.44-1.17-.76-.33-.31-.45-.84-.76-1.18-.32-.34-.8-.53-1.09-.9-.29-.36-.34-.89-.6-1.28-.26-.39-.59-.71-.82-1.12-.23-.4-.69-.68-.9-1.1-.21-.41-.18-.94-.37-1.37-.18-.43-.41-.84-.57-1.27-.16-.43-.25-.89-.39-1.34-.14-.44-.4-.85-.52-1.3-.12-.45-.06-.94-.16-1.4-.1-.45-.07-.93-.15-1.39-.08-.46-.27-.89-.34-1.35-.06-.46-.27-.9-.31-1.37-.05-.46.14-.95.11-1.41-.03-.47-.27-.92-.29-1.38-.02-.47-.07-.93-.07-1.4,0-.47.03-.93.04-1.4.01-.47.29-.92.31-1.38.02-.35-.12-.88-.07-1.43.05-.47.04-.98.12-1.44.1-.57.1-1.14.24-1.45.21-.43.74-.48,1.08-.64.4-.18.83-.47,1.19-.29.34.17.35.66.46,1.14.09.38.3.79.33,1.3.02.42,0,.88,0,1.35,0,.44.25.91.23,1.37-.02.45-.15.91-.17,1.35-.02.47-.3.92-.31,1.35-.01.49.13.96.15,1.36.02.48-.14.97-.11,1.44.04.48.07.96.12,1.43.05.48.23.94.3,1.41.07.47.29.92.39,1.39.1.47.27.91.39,1.37.12.46.39.87.53,1.32.14.45.04.99.21,1.44.17.44.43.85.63,1.29.2.44.2.96.42,1.36.22.42.55.79.79,1.17.25.4.7.66.97,1.03.28.38.56.75.86,1.09.31.36.71.6,1.04.92.34.33.4.96.76,1.25.36.3.84.46,1.22.72.39.27.68.7,1.08.94.4.23.98.15,1.4.36.42.2.73.67,1.16.84.43.17.87.36,1.32.51.44.14.99-.04,1.44.07.45.12.85.46,1.31.55.45.09.96-.07,1.42,0,.46.07.89.32,1.36.37.46.05.95-.18,1.42-.14.46.04.9.41,1.37.43.46.02.94-.24,1.41-.23.47.01.93.07,1.4.07.47,0,.93-.09,1.4-.1.47,0,.93.09,1.4.08.47-.01.94.19,1.41.17.47-.02.93-.08,1.4-.1.47-.02.92-.36,1.38-.39.47-.02.94-.03,1.4-.05.47-.02.95.26,1.41.24.47-.02.94.03,1.41.01.47-.02.93-.14,1.39-.16.47-.02.93-.25,1.39-.26.44,0,.91.08,1.4.08.45,0,.91.26,1.4.27.45,0,.92-.02,1.4,0,.46,0,.93-.33,1.41-.32.46,0,.93.01,1.4.02.46,0,.93.1,1.4.1.46,0,.93.23,1.4.22.47,0,.94-.06,1.4-.07.47,0,.93-.17,1.4-.19.47-.02.95.13,1.41.1.47-.03.95.03,1.41-.01.47-.05.91-.36,1.37-.43.47-.07.9-.32,1.35-.41.47-.09.99.12,1.43,0,.47-.12.82-.56,1.25-.71.46-.16.91-.24,1.31-.43.44-.21.83-.42,1.2-.67.39-.26.72-.56,1.07-.86.35-.3.71-.57,1.03-.9.32-.33.9-.44,1.2-.8.29-.36.51-.79.77-1.18.26-.38.2-.96.43-1.37.23-.4.43-.8.63-1.22.2-.41.49-.78.67-1.21.18-.42.36-.84.52-1.28.16-.43.24-.89.39-1.33.14-.44.47-.82.6-1.26.13-.44.22-.9.34-1.35.11-.45.36-.87.46-1.32.1-.45.21-.91.3-1.36.09-.45-.12-.97-.04-1.42.08-.46.31-.89.38-1.34.08-.46.16-.92.23-1.37.07-.46.36-.89.42-1.34.07-.46-.08-.95-.02-1.4.06-.46-.11-.96-.05-1.41.06-.47.47-.88.53-1.32.07-.47.1-.93.17-1.37.06-.39,0-.87.08-1.35.07-.45-.02-.97.12-1.37.17-.47.66-.64,1.02-.86.32-.19.68-.46,1.23-.28.63.2.75.75.88,1.27.13.52.1,1.07.08,1.6-.01.45-.07.9-.1,1.37-.03.45.37.94.33,1.41-.04.45-.12.91-.16,1.38-.05.45-.08.91-.14,1.38-.06.45-.4.87-.46,1.33-.07.45.08.94,0,1.4-.08.45-.3.88-.39,1.34-.09.45-.29.88-.38,1.33-.1.45.13.97.03,1.42-.11.45-.43.84-.55,1.29-.11.45-.43.83-.56,1.28-.13.44-.24.89-.38,1.33-.14.44-.18.91-.32,1.35-.15.44-.34.86-.5,1.29-.16.43-.08.96-.26,1.39-.18.43-.65.73-.84,1.14-.19.42-.18.94-.38,1.35-.21.42-.31.89-.53,1.29-.23.41-.8.6-1.04.99-.25.4-.46.79-.72,1.17-.27.38-.44.82-.73,1.18-.29.36-.46.83-.76,1.17-.32.34-.73.59-1.06.9"/><path d="M87.07,103.89c.34-.32.49-.79.71-1.19.22-.4.64-.74.75-1.2.11-.44.16-.93.19-1.4.02-.45.06-.94.02-1.41-.05-.45-.48-.86-.58-1.31-.1-.45-.04-.95-.2-1.38-.16-.44-.55-.77-.75-1.18-.21-.43-.25-.93-.5-1.3-.27-.4-.54-.8-.84-1.11-.34-.35-.7-.73-1.12-1-.41-.26-1.01-.17-1.47-.35-.45-.18-.91-.26-1.39-.35-.48-.09-.92-.6-1.41-.61-.49-.01-.96.41-1.45.48-.49.07-1.06-.19-1.52-.03-.47.16-.96.38-1.38.63-.42.25-.78.65-1.14.99-.35.34-.72.72-.98,1.14-.23.37-.25.89-.37,1.36-.11.43.04.89.01,1.37-.02.45-.08.89-.04,1.35.04.45.19.88.28,1.33.09.46-.08.97.06,1.4.15.45.47.82.66,1.22.21.44.2,1,.45,1.34.27.36.64.67.95.98.32.31.64.67,1,.92.37.25.95.13,1.35.32.4.19.78.38,1.21.5.43.12.84.27,1.28.32.44.05.87-.05,1.32-.07.44-.02.92.19,1.35.09.43-.1.82-.37,1.23-.55.41-.17.9-.2,1.28-.45.37-.24.69-.58,1.02-.89M78.43,86.8c.47-.07.91-.28,1.36-.29.47,0,.91.28,1.36.33.46.05.9.11,1.34.22.45.11.85.29,1.28.46.43.17.99.03,1.4.25.41.22.7.63,1.08.89.38.26.89.37,1.23.67.35.3.53.79.84,1.13.31.34.57.72.85,1.08.28.37.47.78.71,1.17.24.39.77.63.98,1.04.2.41.44.84.6,1.26.17.43-.13,1.01,0,1.46.12.45.6.81.68,1.26.08.46-.25.96-.23,1.41.03.46.02.9,0,1.35-.03.46.02.91-.06,1.36-.09.45-.24.87-.39,1.3-.15.44-.17.91-.39,1.32-.21.4-.3.92-.58,1.29-.27.36-.65.68-.99,1-.33.31-.65.68-1.04.95-.37.25-.92.24-1.35.45-.4.2-.75.53-1.2.69-.42.15-.94,0-1.4.11-.47.11-.91.27-1.36.33-.48.06-.94.02-1.4.02-.48,0-.97.37-1.44.32-.48-.06-.96-.19-1.41-.31-.46-.12-.91-.33-1.34-.5-.44-.18-.93-.29-1.34-.52-.41-.23-.67-.72-1.05-1-.38-.28-.83-.47-1.18-.8-.34-.32-.52-.81-.82-1.17-.31-.36-.68-.66-.95-1.05-.27-.39-.49-.8-.72-1.22-.22-.42-.27-.9-.46-1.34-.18-.44-.47-.82-.61-1.27-.14-.45-.22-.91-.32-1.37-.09-.47-.04-.94-.08-1.4-.04-.47-.42-.93-.41-1.4,0-.48.05-.96.12-1.43.07-.47.18-.95.31-1.4.13-.46.28-.93.47-1.36.19-.43.72-.68.97-1.08.26-.39.46-.8.78-1.15.31-.34.42-.93.8-1.23.36-.29.8-.54,1.22-.78.4-.23.96-.15,1.42-.33.43-.17.87-.27,1.35-.39.44-.11.88-.27,1.37-.34"/></svg>