<?xml version="1.0" encoding="UTF-8"?><svg id="Layer_1" xmlns="http://www.w3.org/2000/svg" viewBox="0 0 200 200"><path d="M127.03,51.54c.46.6.44.91.15,1.36-.26.4-.58.84-1.14,1.16-.48.27-1.03.49-1.54.71-.59.26-1.01.74-1.39.98-.45.28-1.02.38-1.47.68-.45.29-1.01.41-1.45.72-.44.31-.91.57-1.35.89-.43.32-.85.66-1.28.99-.42.33-.69.86-1.1,1.2-.41.34-.7.82-1.11,1.17-.41.35-.8.71-1.2,1.07-.4.36-.96.54-1.35.9-.39.37-.93.58-1.32.95-.38.38-.41,1.11-.78,1.49-.38.38-.75.76-1.11,1.15-.37.39-1.04.5-1.4.9-.36.4-.62.89-.97,1.29-.35.41-.84.7-1.18,1.11-.34.41-.4,1.06-.73,1.48-.34.42-.57.91-.9,1.33-.33.43-.82.72-1.14,1.15-.32.43-.61.89-.91,1.32-.31.44-.6.87-.9,1.31.29.44.34,1.01.62,1.46.28.45.94.66,1.21,1.12.27.45.53.92.79,1.38.26.46.33,1.02.58,1.49.25.47.65.85.89,1.32.24.47.22,1.07.44,1.54.23.48.47.94.69,1.42.22.48.32,1.01.52,1.49.21.49.37.98.57,1.47.2.49.47.94.65,1.44.19.49.72.86.9,1.35.18.5.22,1.04.39,1.54.17.5.11,1.07.26,1.57.16.5.38.98.52,1.49.15.5.28,1.01.42,1.52.14.51.54.95.67,1.46.13.51.18,1.04.3,1.55.12.51.13,1.05.24,1.57.11.51.28,1.02.39,1.53.1.52.38,1,.48,1.52.09.52.05,1.06.13,1.58.09.52.32,1.02.4,1.54.08.51-.3,1.1-.22,1.62.07.52.55.98.62,1.5.07.52.06,1.04.12,1.56.06.52-.29,1.08-.23,1.6.06.52.35,1.01.41,1.53.06.52.07,1.04.12,1.56.05.52.23,1.03.28,1.55.05.52-.06,1.05-.01,1.58.05.52.45,1.01.49,1.53.04.52-.39,1.08-.35,1.6.04.52.09,1.04.13,1.56.04.52.05,1.05.08,1.57.03.52.49,1.02.52,1.54.03.52-.1,1.05-.07,1.58.03.52.26,1.04.29,1.56.02.53.05,1.05.07,1.57.02.52-.39,1.07-.37,1.59.02.52.28,1.04.3,1.56.02.52.06,1.05.08,1.57.01.52-.01,1.04,0,1.56,0,.3.16.88.18,1.56,0,.49-.3,1.04-.3,1.58,0,.55.02,1.09,0,1.57-.03.75-.21,1.24-.31,1.44-.23.47-.7.76-1.35.91-.65.16-1.15.21-1.48-.37-.18-.32-.58-.72-.65-1.34-.05-.45.19-.97.17-1.51-.01-.48-.05-.98-.05-1.49,0-.5.21-1,.22-1.49.02-.52-.41-1.04-.4-1.5.01-.58.47-1.11.45-1.5-.03-.52-.34-1.04-.37-1.56-.03-.52.13-1.06.11-1.58-.03-.52-.04-1.05-.07-1.57-.03-.52-.08-1.05-.11-1.57-.03-.52-.28-1.04-.31-1.56-.03-.52.11-1.06.08-1.58-.03-.52-.42-1.03-.45-1.55-.03-.52.08-1.06.04-1.58-.03-.52-.18-1.04-.22-1.56-.04-.52.03-1.05,0-1.58-.04-.52-.15-1.04-.2-1.56-.04-.52,0-1.05-.04-1.58-.05-.52.07-1.06.01-1.58-.05-.52-.08-1.05-.14-1.57-.06-.52-.18-1.04-.24-1.56s-.36-1.01-.43-1.53c-.07-.52.16-1.08.09-1.6-.07-.52-.14-1.04-.22-1.56-.08-.52-.14-1.04-.23-1.56-.09-.52-.42-.99-.51-1.51-.1-.52.11-1.09.01-1.61-.1-.51-.62-.94-.73-1.45-.11-.51-.21-1.02-.33-1.53-.12-.51.16-1.12.03-1.63-.13-.51-.34-1-.47-1.51-.14-.5-.17-1.04-.32-1.55-.15-.5-.36-.99-.51-1.49-.16-.5-.3-1.01-.46-1.51-.17-.5-.57-.91-.75-1.41-.18-.49-.23-1.03-.42-1.52-.19-.49-.6-.89-.8-1.38-.2-.49-.35-.99-.55-1.47-.21-.48-.3-1.01-.52-1.49-.22-.47-.52-.91-.75-1.39-.23-.47-.34-1.01-.58-1.47-.24-.46-.62-.85-.88-1.32-.25-.46-.4-1.01-.66-1.47-.4-.2-.83-1.9-1.33-1.66-.17.08-.3.89-.76,1.64-.26.41-.55.89-.86,1.43-.26.46-.59.92-.87,1.42-.27.49-.61.94-.88,1.43-.27.51-.54,1.01-.78,1.48-.28.54-.46,1.09-.68,1.53-.35.7-.77,1.16-.89,1.43-.22.49-.4.99-.62,1.48-.21.49-.23,1.07-.44,1.56-.21.49-.52.94-.73,1.43-.21.49-.29,1.04-.49,1.53-.2.5-.56.93-.75,1.42-.2.5-.43.99-.62,1.48-.19.5-.53.95-.71,1.45-.19.5-.37,1.01-.55,1.51-.19.5-.15,1.09-.33,1.59-.18.5-.43.98-.6,1.49-.17.51-.61.92-.78,1.43-.17.51-.21,1.06-.37,1.57-.16.51-.23,1.05-.39,1.56-.16.51-.34,1.01-.49,1.52-.15.51-.09,1.08-.24,1.6-.15.51-.34,1.01-.48,1.53-.14.52-.13,1.07-.26,1.58-.13.52-.43.99-.55,1.51-.12.52-.3,1.03-.42,1.55-.12.52-.19,1.05-.3,1.57s-.53.98-.63,1.51c-.1.52.13,1.11.04,1.64-.1.52.02,1.08-.07,1.61-.09.53-.24,1.04-.32,1.56-.08.53-.34,1.03-.41,1.56-.07.53-.07,1.07-.13,1.6-.07.53-.32,1.04-.38,1.57-.06.53,0,1.07-.04,1.6-.05.53-.11,1.06-.15,1.59-.04.53.05,1.07.01,1.6-.04.53-.23,1.05-.25,1.59-.03.53,0,1.07-.02,1.6-.02.53-.25,1.06-.26,1.6-.01.53.24,1.07.24,1.61,0,.53,0,1.07,0,1.6s-.29,1.07-.28,1.61c0,.59.12,1.14.11,1.67,0,.48.13,1.02-.57,1.43-.48.28-.95.17-1.33.03-.4-.14-.8-.4-1.05-.81-.23-.38-.37-.85-.43-1.29-.07-.49.12-1.02.08-1.56-.04-.5-.12-1-.14-1.54-.01-.5-.31-1.02-.31-1.55,0-.51.03-1.03.05-1.56.02-.51.13-1.03.16-1.55.03-.51.1-1.03.14-1.55.04-.52-.17-1.05-.12-1.57.04-.52.24-1.03.29-1.54.05-.52.09-1.04.15-1.55.06-.52.36-1.01.41-1.52.06-.52.1-1.04.16-1.55.07-.53-.22-1.09-.16-1.59.07-.53.42-1.01.49-1.5.07-.54.32-1.03.39-1.51.07-.53-.23-1.12-.14-1.66.09-.53.21-1.06.3-1.6.1-.53.24-1.05.35-1.58.11-.53.31-1.04.42-1.57.12-.52.17-1.07.3-1.59.12-.52.35-1.03.48-1.55.13-.52.37-1.02.51-1.54.14-.52.28-1.04.43-1.56.15-.52-.04-1.14.11-1.66.15-.52.27-1.05.43-1.57.16-.52.84-.87,1-1.38.17-.51-.15-1.19.02-1.7.17-.51.66-.92.84-1.43.18-.51.15-1.1.33-1.6.18-.51.24-1.07.43-1.57.19-.51.82-.85,1.01-1.36.19-.51.13-1.11.33-1.62.2-.51.48-.98.68-1.48.2-.5.25-1.07.45-1.57.21-.5.62-.92.83-1.41.21-.5.11-1.13.32-1.62.21-.5.57-.94.78-1.43.22-.5.47-.97.69-1.46.22-.5.66-.89.88-1.38.23-.51.24-1.12.49-1.62.25-.5.74-.87,1.01-1.36.27-.49.41-1.04.69-1.52.28-.48.51-.99.8-1.47.29-.48.77-.83,1.06-1.31.29-.47.2-1.18.49-1.66.29-.47.77-.83,1.06-1.31.29-.48.33-.93.61-1.41-.3-.42-.31-.86-.63-1.27-.31-.41-.62-.82-.96-1.23-.33-.4-.88-.61-1.22-1-.34-.39-.47-.97-.83-1.35-.35-.38-.66-.81-1.03-1.18-.36-.37-.68-.79-1.06-1.15-.38-.36-.78-.69-1.17-1.04-.39-.35-.96-.48-1.35-.82-.4-.33-.58-.94-.99-1.26-.41-.32-1.09-.29-1.51-.59-.42-.31-.85-.6-1.28-.89-.43-.29-.91-.5-1.35-.77-.45-.28-.78-.71-1.23-.97-.45-.26-.75-.82-1.21-1.05-.47-.24-.96-.44-1.43-.66-.35-.16-1.03.01-1.64-.19-.48-.16-.97-.41-1.49-.58-.53-.18-1.11-.19-1.57-.37-.65-.25-1.14-.67-1.38-.87-.39-.34-.81-.81-.84-1.22-.03-.46.45-.89.82-1.19.3-.25.71-.32,1.26-.32.49,0,.97.2,1.55.32.49.11,1.02.14,1.56.32.49.17,1.15-.03,1.66.2.48.2.97.46,1.47.71.47.23.86.68,1.34.94.47.25.85.68,1.32.96.46.27.93.53,1.4.82.46.29.85.67,1.3.96.46.3,1.08.34,1.52.65.45.31.8.77,1.23,1.08.45.32.8.75,1.23,1.07.45.34.86.68,1.27,1,.45.36,1.11.4,1.5.73.46.38.63.98.98,1.3.52.53.55.5,1.07,1.04.52.54.68.39,1.19.93.52.54.39.67.91,1.21.52.55.7.37,1.22.92.52.54.26.86.93,1.19.33-.43.69-.84,1.03-1.26.34-.42.74-.8,1.08-1.22.34-.42.57-.93.92-1.35.35-.42.61-.91.96-1.32s.89-.67,1.24-1.07c.36-.41.75-.78,1.11-1.19.36-.4.76-.77,1.13-1.17.37-.4.51-1.01.89-1.4.38-.39.91-.63,1.29-1.01.38-.38.89-.64,1.28-1.01.39-.38.55-.99.95-1.36.4-.37,1.04-.47,1.44-.82.41-.36.59-.97,1.01-1.32.42-.35.77-.78,1.19-1.12.3-.24.9-.4,1.47-.82.4-.3.71-.82,1.2-1.17.43-.3,1.16-.23,1.63-.55.45-.31.72-.91,1.19-1.21.47-.31.9-.69,1.36-.97.5-.3.97-.62,1.43-.86.54-.29,1.2-.22,1.65-.41.68-.27,1.23-.6,1.59-.53.31.06.43.85.65,1.13"/></svg>