<?xml version="1.0" encoding="UTF-8"?><svg id="Layer_1" xmlns="http://www.w3.org/2000/svg" viewBox="0 0 200 200"><path d="M117.95,131.64c.03-.24.13-.7.3-.87.39-.41.88-.75,1.25-1.18.37-.43.43-1.12.79-1.57.36-.44.82-.79,1.17-1.25.34-.45.77-.85,1.1-1.32.32-.47.57-.99.88-1.47.31-.48.39-1.09.68-1.58.29-.49,1.01-.74,1.28-1.24.27-.5.11-1.23.37-1.74.26-.51.62-.96.86-1.48.24-.52.65-.96.87-1.48.22-.53.43-1.06.63-1.59.2-.53.13-1.17.31-1.7.18-.54.72-.97.88-1.51.17-.55.14-1.15.28-1.7.15-.55.58-1.03.71-1.59.13-.56.02-1.17.12-1.73.11-.56.39-1.1.47-1.66.09-.56.19-1.13.26-1.7.07-.57-.35-1.18-.3-1.75.04-.57.43-1.12.45-1.69.02-.57-.37-1.15-.37-1.72,0-.57.1-1.14.07-1.7-.02-.57-.02-1.14-.07-1.7-.05-.57.05-1.15-.02-1.72-.08-.57,0-1.16-.1-1.72-.1-.56-.37-1.1-.5-1.65-.13-.56-.38-1.08-.54-1.63-.16-.55-.47-1.04-.66-1.58-.19-.54-.04-1.2-.26-1.73-.22-.53-.85-.87-1.09-1.39-.24-.51-.33-1.1-.6-1.6-.27-.5-.55-.99-.85-1.48-.3-.48-.75-.86-1.07-1.33-.33-.46-.55-1-.91-1.45-.33-.42-.81-.73-1.16-1.15-.34-.42-.34-1.13-.69-1.54-.35-.41-.81-.73-1.18-1.13-.36-.4-.81-.73-1.19-1.11-.38-.39-.9-.62-1.29-.99-.4-.37-.7-.84-1.11-1.18-.42-.34-.87-.64-1.31-.95-.44-.31-.98-.45-1.45-.72-.47-.27-.76-.86-1.26-1.08-.49-.22-1.09-.16-1.61-.34-.51-.17-.95-.6-1.48-.72-.56-.12-1.13-.15-1.7-.24-.56-.09-1.16.13-1.73.07-.57-.06-1.12-.12-1.69-.15-.57-.03-1.12-.28-1.7-.28-.57,0-1.14-.01-1.71.02-.57.03-1.14.03-1.71.09-.57.06-1.13.18-1.69.27-.56.09-1.12.2-1.68.32-.56.12-1.11.27-1.66.42-.55.15-1.08.35-1.62.54-.54.18-1.07.39-1.59.61-.53.21-.83.46-1.34.7.21.51,0,.98.21,1.49.21.51.46,1,.67,1.51.21.51.77.87.98,1.38.21.51.48.99.7,1.5.21.51.17,1.12.38,1.63.21.51.29,1.07.51,1.58.21.51.78.87.99,1.38.21.51.42,1.02.63,1.53.21.51.13,1.14.34,1.65.21.51.71.9.92,1.41.22.51.44,1.01.65,1.52.22.51.35,1.05.56,1.56s.33,1.06.54,1.57c.22.51.63.93.85,1.44.22.51.34,1.05.56,1.56.22.51.39,1.03.6,1.54.22.51.52.97.74,1.48.21.5.32,1.04.55,1.54.23.49.52.95.76,1.44.24.49.4,1.01.64,1.5.24.49.24,1.09.48,1.58.24.49.71.87.94,1.36.23.49.48.98.69,1.48.22.51.11,1.16.33,1.68.21.52.72.91.94,1.43.21.52.15,1.14.36,1.66s.79.89.99,1.41c.21.52.22,1.11.42,1.63.2.52.55.98.76,1.5.2.52.12,1.15.32,1.67.2.52.37,1.05.58,1.57.21.52.85.87,1.05,1.38.21.52.18,1.13.39,1.65.21.52.63.95.84,1.47.21.52.32,1.07.54,1.59.22.51.6.96.82,1.47.22.51.46,1.01.68,1.52.23.51.15,1.15.39,1.66.23.51.77.87,1.01,1.38.24.5-.01,1.24.23,1.75.24.5.81.83,1.07,1.33.19.32.22.48.52.45M108.85,120.96c-.07-.84-.49-.79-.82-1.56-.33-.78-.21-.83-.53-1.6-.33-.78-.7-.62-1.03-1.39-.33-.78-.19-.83-.51-1.61-.33-.78-.22-.82-.54-1.6-.33-.78-.4-.75-.73-1.52-.33-.78-.55-.68-.88-1.46s.14-.97-.19-1.75c-.33-.78-.77-.59-1.1-1.38-.33-.78-.21-.83-.53-1.61-.33-.78-.14-.86-.47-1.64-.33-.78-.33-.78-.66-1.55-.33-.78-.59-.67-.92-1.44-.33-.78.02-.92-.31-1.7-.33-.78-.51-.7-.84-1.48-.33-.78-.05-.9-.37-1.68-.33-.78-.55-.69-.88-1.47-.33-.78-.16-.85-.49-1.63-.33-.78-.3-.79-.63-1.57-.33-.78-.77-.6-1.09-1.38-.33-.78,0-.92-.33-1.7-.33-.78-.7-.62-1.03-1.4-.33-.78-.23-.82-.55-1.6-.33-.78-.29-.8-.61-1.58-.33-.78-.17-.85-.5-1.62-.33-.78-.18-.85-.5-1.63-.33-.78-.47-.72-.79-1.5-.33-.78-.43-.74-.76-1.52-.33-.78-.47-.72-.79-1.5-.33-.78.02-.92-.31-1.7-.33-.78-.74-.61-1.06-1.39-.33-.78-.15-.85-.48-1.64-.33-.78-.32-.79-.65-1.57-.33-.78-.48-.72-.81-1.5-.33-.78-.2-.84-.52-1.62-.33-.78-.5-.71-.83-1.5-.33-.78.09-.96-.24-1.74-.33-.79-.23-.9-.8-1.53-.47.32-.95.73-1.4,1.08-.45.34-.78.85-1.21,1.21-.44.36-.97.61-1.39,1-.42.38-.81.8-1.21,1.2-.4.4-.66.93-1.05,1.35-.38.42-1.04.6-1.41,1.03-.36.44-.5,1.06-.84,1.51-.34.45-.91.74-1.23,1.21-.32.47-.57.99-.86,1.48-.3.49-.32,1.12-.59,1.62-.27.5-.54.99-.79,1.5-.25.51-.69.93-.91,1.45-.22.52-.45,1.05-.64,1.58-.2.53-.41,1.06-.58,1.61-.17.54-.27,1.11-.41,1.66-.14.55-.26,1.11-.37,1.67-.11.56-.18,1.12-.27,1.68-.08.56-.11,1.13-.16,1.7-.05.56-.07,1.13-.1,1.7-.02.57.15,1.13.16,1.7,0,.57-.44,1.15-.4,1.72.04.58.12,1.15.17,1.71.06.58.49,1.1.56,1.66.08.57.22,1.12.32,1.68.1.57-.07,1.18.05,1.73.12.57.11,1.16.26,1.71.15.56.67,1,.84,1.54.17.55.35,1.09.54,1.62.2.54.11,1.19.33,1.71.23.53.74.92,1,1.42.26.52.53,1.01.81,1.5.29.5.51,1.02.82,1.5.32.48.55,1.01.9,1.46.35.46.87.76,1.24,1.19.38.43.69.91,1.09,1.31.4.4.78.83,1.21,1.2.43.38.93.66,1.38,1,.45.34.84.77,1.32,1.09.47.31.99.55,1.49.83.49.28.96.61,1.47.86.51.25.93.72,1.46.94.52.22,1.16.17,1.7.35.53.18,1.09.33,1.64.48.54.15,1.02.64,1.58.76.55.12,1.18-.08,1.75.02.56.1,1.08.47,1.66.54.56.07,1.17-.27,1.75-.22.56.04,1.12.28,1.7.31.56.02,1.14-.12,1.72-.12s1.15.3,1.72.28c.57-.02,1.15-.02,1.72-.06.53-.04,1.01-.57,1.55-.66.53-.09,1.1.06,1.63-.05.53-.11,1.01-.44,1.53-.55.54-.11,1.33-.05,1.85-.13M120.77,68.48c.38.35.9.64,1.34,1.08.38.39.68.89,1.09,1.32.38.41,1.07.57,1.46,1,.38.43.65.97,1.02,1.4.39.45.67.97,1.01,1.39.39.48.81.88,1.13,1.29.35.45.89.77,1.21,1.23.32.47.22,1.22.51,1.7.3.49,1,.74,1.27,1.23.27.5.42,1.07.66,1.58.24.51.29,1.11.51,1.64.22.53.42,1.05.61,1.58.19.53.64.99.81,1.53.16.54-.05,1.19.09,1.74.14.55.45,1.06.56,1.61.11.56-.09,1.16,0,1.72.09.56.39,1.08.46,1.65.06.56-.07,1.14-.03,1.71.04.57.04,1.12.05,1.69.02.57.49,1.13.49,1.7,0,.57-.38,1.12-.4,1.69-.03.57.34,1.16.29,1.73-.05.56-.22,1.12-.29,1.69-.07.56-.2,1.12-.28,1.68-.09.56-.35,1.09-.46,1.65-.11.56-.39,1.07-.51,1.63-.13.55-.12,1.14-.26,1.68-.14.55-.19,1.13-.35,1.67-.16.54-.19,1.13-.37,1.67-.18.54-.72.95-.91,1.49-.2.53.01,1.22-.2,1.75-.21.53-.61.98-.84,1.5-.23.52-.47,1.04-.71,1.55-.24.51-.35,1.1-.61,1.6-.26.51-.66.94-.93,1.44-.28.5-.4,1.09-.69,1.57-.29.49-.98.73-1.28,1.21s-.5,1.01-.82,1.45c-.32.46-.58.96-.92,1.39-.34.44-.55.99-.91,1.41-.36.42-.85.74-1.22,1.15-.37.41-.72.84-1.1,1.24-.38.4-.64.92-1.03,1.32-.38.39-1.07.6-1.46,1,.1.83.58.7.89,1.48.32.78.04.89.36,1.67.32.78.39.75.7,1.53.32.78.59.67.91,1.45.32.78.3.79.62,1.57.32.78.1.87.42,1.65.32.78.3.79.61,1.57.32.78.28.8.6,1.58.32.78.37.76.68,1.55.32.78.38.76.64,1.56.06.52,0,1.03-.17,1.43-.21.47-.59.88-1.05.98-.39.08-.92,0-1.43-.31-.19-.12-.7-.58-1.08-1.34-.21-.43-.03-1.13-.28-1.69-.21-.47-.46-.96-.69-1.5-.21-.49-.76-.86-.97-1.38-.21-.51-.47-1-.68-1.51-.21-.52-.15-1.14-.35-1.64-.21-.53-.28-1.1-.47-1.59-.22-.56-.78-.94-.96-1.4-.27-.68-.47-1.2-.61-1.52-.23-.53-.17-1.2-.41-1.73-.24-.53-.76-.94-1-1.47s-.5-1.05-.74-1.58c-.25-.53-.41-1.09-.65-1.62-.25-.53-.39-1.11-.63-1.64-.24-.53-.68-.97-.92-1.51-.24-.53-.38-1.11-.61-1.64-.23-.54-.4-1.1-.62-1.64-.22-.54-.45-.97-.65-1.51-.55.13-1.01.15-1.56.27-.55.12-1.09.3-1.65.41-.55.11-1.12.14-1.68.23-.56.1-1.15-.07-1.71.01-.56.08-1.08.42-1.64.48-.56.06-1.12.15-1.69.19-.57.04-1.14-.28-1.71-.26-.57.02-1.12.34-1.69.33-.57-.01-1.11-.32-1.67-.36-.57-.04-1.18.3-1.74.23-.57-.07-1.11-.36-1.66-.45-.57-.1-1.16-.06-1.71-.18-.56-.12-1.04-.56-1.58-.72-.55-.15-1.08-.35-1.61-.53-.55-.18-1.24.06-1.77-.15-.53-.21-.96-.67-1.48-.91-.52-.24-1.13-.3-1.64-.56-.51-.27-.95-.65-1.44-.95-.49-.3-1.07-.46-1.54-.79-.47-.32-.95-.66-1.4-1.01-.45-.35-.69-.97-1.11-1.35-.43-.38-1.08-.52-1.49-.92-.41-.4-.41-1.19-.79-1.61-.38-.42-1.03-.61-1.39-1.06-.36-.44-.5-1.05-.84-1.51-.34-.46-.64-.93-.95-1.41-.31-.48-.56-.98-.85-1.47-.28-.49-.57-.97-.83-1.48-.26-.51-.58-.97-.82-1.49-.23-.52-.55-1-.76-1.53-.21-.53-.32-1.09-.5-1.63-.18-.54-.68-.98-.84-1.53-.16-.54-.09-1.16-.23-1.71-.13-.55-.52-1.05-.63-1.62-.11-.56.21-1.19.12-1.76-.09-.56-.34-1.1-.4-1.67-.06-.56,0-1.14-.04-1.71-.04-.57-.29-1.12-.31-1.7-.02-.57.02-1.14.03-1.72,0-.57.32-1.13.35-1.7.03-.58.1-1.13.16-1.7.05-.57-.12-1.17-.04-1.73.08-.57.04-1.16.15-1.72.11-.57.16-1.15.3-1.71.14-.56.74-.99.9-1.54.16-.55.37-1.07.56-1.61.19-.54.18-1.15.4-1.68.22-.53.13-1.2.37-1.72.24-.52.68-.95.95-1.46.26-.51.4-1.1.69-1.59.29-.5.85-.83,1.16-1.31.31-.48.68-.92,1.01-1.39s.47-1.08.82-1.53c.35-.45.73-.89,1.1-1.33.37-.44.72-.9,1.11-1.32.39-.42.79-.84,1.2-1.24.4-.41.8-.83,1.22-1.22.42-.39.94-.67,1.38-1.04.44-.37.96-.64,1.41-.99.45-.35.75-.9,1.22-1.24.46-.34.95-.63,1.42-.95.03-.15-.02-.67-.36-1.44-.18-.43-.25-1-.49-1.52-.21-.46-.83-.77-1.05-1.27-.22-.49-.19-1.09-.4-1.56-.23-.52-.66-.93-.84-1.37-.26-.65-.4-1.22-.45-1.53-.1-.68.02-1.27.21-1.67.27-.59.86-1.11,1.43-.99.43.09.87.65,1.28,1.23.27.37.75.77,1.04,1.34.24.46.18,1.12.42,1.65.22.5.43,1.02.64,1.54.22.53.66.96.86,1.45.23.57.34,1.14.52,1.58.23.54.55,1.05.77,1.61.22.55.27,1.16.48,1.72.21.55.63,1.03.83,1.58.21.55.2,1.19.42,1.74.22.55.65,1.01.88,1.55.23.55.29,1.12.54,1.65.48-.29.83-.76,1.34-1.02.5-.25,1.16-.2,1.68-.41.52-.21,1.12-.18,1.66-.36.53-.18.96-.74,1.5-.88.55-.14,1.12-.21,1.67-.32.55-.11,1.12-.14,1.68-.22.56-.08,1.12-.24,1.68-.28.57-.05,1.14-.05,1.7-.07.57-.02,1.14-.02,1.7-.01.57,0,1.14-.06,1.7-.03.57.03,1.11.39,1.66.45.56.06,1.13-.1,1.65-.02.55.08,1.11.1,1.63.19.55.1,1.06.34,1.58.47.54.13,1,.45,1.51.62.52.17,1.15.04,1.65.26.49.22.91.61,1.39.88.47.26,1.03.39,1.49.71.44.3.82.71,1.25,1.07.41.33.62.91,1.03,1.3"/><path d="M117.95,131.64c.03-.24.13-.7.3-.87.39-.41.88-.75,1.25-1.18.37-.43.43-1.12.79-1.57.36-.44.82-.79,1.17-1.25.34-.45.77-.85,1.1-1.32.32-.47.57-.99.88-1.47.31-.48.39-1.09.68-1.58.29-.49,1.01-.74,1.28-1.24.27-.5.11-1.23.37-1.74.26-.51.62-.96.86-1.48.24-.52.65-.96.87-1.48.22-.53.43-1.06.63-1.59.2-.53.13-1.17.31-1.7.18-.54.72-.97.88-1.51.17-.55.14-1.15.28-1.7.15-.55.58-1.03.71-1.59.13-.56.02-1.17.12-1.73.11-.56.39-1.1.47-1.66.09-.56.19-1.13.26-1.7.07-.57-.35-1.18-.3-1.75.04-.57.43-1.12.45-1.69.02-.57-.37-1.15-.37-1.72,0-.57.1-1.14.07-1.7-.02-.57-.02-1.14-.07-1.7-.05-.57.05-1.15-.02-1.72-.08-.57,0-1.16-.1-1.72-.1-.56-.37-1.1-.5-1.65-.13-.56-.38-1.08-.54-1.63-.16-.55-.47-1.04-.66-1.58-.19-.54-.04-1.2-.26-1.73-.22-.53-.85-.87-1.09-1.39-.24-.51-.33-1.1-.6-1.6-.27-.5-.55-.99-.85-1.48-.3-.48-.75-.86-1.07-1.33-.33-.46-.55-1-.91-1.45-.33-.42-.81-.73-1.16-1.15-.34-.42-.34-1.13-.69-1.54-.35-.41-.81-.73-1.18-1.13-.36-.4-.81-.73-1.19-1.11-.38-.39-.9-.62-1.29-.99-.4-.37-.7-.84-1.11-1.18-.42-.34-.87-.64-1.31-.95-.44-.31-.98-.45-1.45-.72-.47-.27-.76-.86-1.26-1.08-.49-.22-1.09-.16-1.61-.34-.51-.17-.95-.6-1.48-.72-.56-.12-1.13-.15-1.7-.24-.56-.09-1.16.13-1.73.07-.57-.06-1.12-.12-1.69-.15-.57-.03-1.12-.28-1.7-.28-.57,0-1.14-.01-1.71.02-.57.03-1.14.03-1.71.09-.57.06-1.13.18-1.69.27-.56.09-1.12.2-1.68.32-.56.12-1.11.27-1.66.42-.55.15-1.08.35-1.62.54-.54.18-1.07.39-1.59.61-.53.21-.83.46-1.34.7.21.51,0,.98.21,1.49.21.51.46,1,.67,1.51.21.51.77.87.98,1.38.21.51.48.99.7,1.5.21.51.17,1.12.38,1.63.21.51.29,1.07.51,1.58.21.51.78.87.99,1.38.21.51.42,1.02.63,1.53.21.51.13,1.14.34,1.65.21.51.71.9.92,1.41.22.51.44,1.01.65,1.52.22.51.35,1.05.56,1.56s.33,1.06.54,1.57c.22.51.63.93.85,1.44.22.51.34,1.05.56,1.56.22.51.39,1.03.6,1.54.22.51.52.97.74,1.48.21.5.32,1.04.55,1.54.23.49.52.95.76,1.44.24.49.4,1.01.64,1.5.24.49.24,1.09.48,1.58.24.49.71.87.94,1.36.23.49.48.98.69,1.48.22.51.11,1.16.33,1.68.21.52.72.91.94,1.43.21.52.15,1.14.36,1.66s.79.89.99,1.41c.21.52.22,1.11.42,1.63.2.52.55.98.76,1.5.2.52.12,1.15.32,1.67.2.52.37,1.05.58,1.57.21.52.85.87,1.05,1.38.21.52.18,1.13.39,1.65.21.52.63.95.84,1.47.21.52.32,1.07.54,1.59.22.51.6.96.82,1.47.22.51.46,1.01.68,1.52.23.51.15,1.15.39,1.66.23.51.77.87,1.01,1.38.24.5-.01,1.24.23,1.75.24.5.81.83,1.07,1.33.19.32.22.48.52.45M108.85,120.96c-.07-.84-.49-.79-.82-1.56-.33-.78-.21-.83-.53-1.6-.33-.78-.7-.62-1.03-1.39-.33-.78-.19-.83-.51-1.61-.33-.78-.22-.82-.54-1.6-.33-.78-.4-.75-.73-1.52-.33-.78-.55-.68-.88-1.46s.14-.97-.19-1.75c-.33-.78-.77-.59-1.1-1.38-.33-.78-.21-.83-.53-1.61-.33-.78-.14-.86-.47-1.64-.33-.78-.33-.78-.66-1.55-.33-.78-.59-.67-.92-1.44-.33-.78.02-.92-.31-1.7-.33-.78-.51-.7-.84-1.48-.33-.78-.05-.9-.37-1.68-.33-.78-.55-.69-.88-1.47-.33-.78-.16-.85-.49-1.63-.33-.78-.3-.79-.63-1.57-.33-.78-.77-.6-1.09-1.38-.33-.78,0-.92-.33-1.7-.33-.78-.7-.62-1.03-1.4-.33-.78-.23-.82-.55-1.6-.33-.78-.29-.8-.61-1.58-.33-.78-.17-.85-.5-1.62-.33-.78-.18-.85-.5-1.63-.33-.78-.47-.72-.79-1.5-.33-.78-.43-.74-.76-1.52-.33-.78-.47-.72-.79-1.5-.33-.78.02-.92-.31-1.7-.33-.78-.74-.61-1.06-1.39-.33-.78-.15-.85-.48-1.64-.33-.78-.32-.79-.65-1.57-.33-.78-.48-.72-.81-1.5-.33-.78-.2-.84-.52-1.62-.33-.78-.5-.71-.83-1.5-.33-.78.09-.96-.24-1.74-.33-.79-.23-.9-.8-1.53-.47.32-.95.73-1.4,1.08-.45.34-.78.85-1.21,1.21-.44.36-.97.61-1.39,1-.42.38-.81.8-1.21,1.2-.4.4-.66.93-1.05,1.35-.38.42-1.04.6-1.41,1.03-.36.44-.5,1.06-.84,1.51-.34.45-.91.74-1.23,1.21-.32.47-.57.99-.86,1.48-.3.49-.32,1.12-.59,1.62-.27.5-.54.99-.79,1.5-.25.51-.69.93-.91,1.45-.22.52-.45,1.05-.64,1.58-.2.53-.41,1.06-.58,1.61-.17.54-.27,1.11-.41,1.66-.14.55-.26,1.11-.37,1.67-.11.56-.18,1.12-.27,1.68-.08.56-.11,1.13-.16,1.7-.05.56-.07,1.13-.1,1.7-.02.57.15,1.13.16,1.7,0,.57-.44,1.15-.4,1.72.04.58.12,1.15.17,1.71.06.58.49,1.1.56,1.66.08.57.22,1.12.32,1.68.1.57-.07,1.18.05,1.73.12.57.11,1.16.26,1.71.15.56.67,1,.84,1.54.17.55.35,1.09.54,1.62.2.54.11,1.19.33,1.71.23.53.74.92,1,1.42.26.52.53,1.01.81,1.5.29.5.51,1.02.82,1.5.32.48.55,1.01.9,1.46.35.46.87.76,1.24,1.19.38.43.69.91,1.09,1.31.4.4.78.83,1.21,1.2.43.38.93.66,1.38,1,.45.34.84.77,1.32,1.09.47.31.99.55,1.49.83.49.28.96.61,1.47.86.51.25.93.72,1.46.94.52.22,1.16.17,1.7.35.53.18,1.09.33,1.64.48.54.15,1.02.64,1.58.76.55.12,1.18-.08,1.75.02.56.1,1.08.47,1.66.54.56.07,1.17-.27,1.75-.22.56.04,1.12.28,1.7.31.56.02,1.14-.12,1.72-.12s1.15.3,1.72.28c.57-.02,1.15-.02,1.72-.06.53-.04,1.01-.57,1.55-.66.53-.09,1.1.06,1.63-.05.53-.11,1.01-.44,1.53-.55.54-.11,1.33-.05,1.85-.13M120.77,68.48c.38.35.9.64,1.34,1.08.38.39.68.89,1.09,1.32.38.41,1.07.57,1.46,1,.38.43.65.97,1.02,1.4.39.45.67.97,1.01,1.39.39.48.81.88,1.13,1.29.35.45.89.77,1.21,1.23.32.47.22,1.22.51,1.7.3.49,1,.74,1.27,1.23.27.5.42,1.07.66,1.58.24.51.29,1.11.51,1.64.22.53.42,1.05.61,1.58.19.53.64.99.81,1.53.16.54-.05,1.19.09,1.74.14.55.45,1.06.56,1.61.11.56-.09,1.16,0,1.72.09.56.39,1.08.46,1.65.06.56-.07,1.14-.03,1.71.04.57.04,1.12.05,1.69.02.57.49,1.13.49,1.7,0,.57-.38,1.12-.4,1.69-.03.57.34,1.16.29,1.73-.05.56-.22,1.12-.29,1.69-.07.56-.2,1.12-.28,1.68-.09.56-.35,1.09-.46,1.65-.11.56-.39,1.07-.51,1.63-.13.55-.12,1.14-.26,1.68-.14.55-.19,1.13-.35,1.67-.16.54-.19,1.13-.37,1.67-.18.54-.72.95-.91,1.49-.2.53.01,1.22-.2,1.75-.21.53-.61.98-.84,1.5-.23.52-.47,1.04-.71,1.55-.24.51-.35,1.1-.61,1.6-.26.51-.66.94-.93,1.44-.28.5-.4,1.09-.69,1.57-.29.49-.98.73-1.28,1.21s-.5,1.01-.82,1.45c-.32.46-.58.96-.92,1.39-.34.44-.55.99-.91,1.41-.36.42-.85.74-1.22,1.15-.37.41-.72.84-1.1,1.24-.38.4-.64.92-1.03,1.32-.38.39-1.07.6-1.46,1,.1.83.58.7.89,1.48.32.78.04.89.36,1.67.32.78.39.75.7,1.53.32.78.59.67.91,1.45.32.78.3.79.62,1.57.32.78.1.87.42,1.65.32.78.3.79.61,1.57.32.78.28.8.6,1.58.32.78.37.76.68,1.55.32.78.38.76.64,1.56.06.52,0,1.03-.17,1.43-.21.47-.59.88-1.05.98-.39.08-.92,0-1.43-.31-.19-.12-.7-.58-1.08-1.34-.21-.43-.03-1.13-.28-1.69-.21-.47-.46-.96-.69-1.5-.21-.49-.76-.86-.97-1.38-.21-.51-.47-1-.68-1.51-.21-.52-.15-1.14-.35-1.64-.21-.53-.28-1.1-.47-1.59-.22-.56-.78-.94-.96-1.4-.27-.68-.47-1.2-.61-1.52-.23-.53-.17-1.2-.41-1.73-.24-.53-.76-.94-1-1.47s-.5-1.05-.74-1.58c-.25-.53-.41-1.09-.65-1.62-.25-.53-.39-1.11-.63-1.64-.24-.53-.68-.97-.92-1.51-.24-.53-.38-1.11-.61-1.64-.23-.54-.4-1.1-.62-1.64-.22-.54-.45-.97-.65-1.51-.55.13-1.01.15-1.56.27-.55.12-1.09.3-1.65.41-.55.11-1.12.14-1.68.23-.56.1-1.15-.07-1.71.01-.56.08-1.08.42-1.64.48-.56.06-1.12.15-1.69.19-.57.04-1.14-.28-1.71-.26-.57.02-1.12.34-1.69.33-.57-.01-1.11-.32-1.67-.36-.57-.04-1.18.3-1.74.23-.57-.07-1.11-.36-1.66-.45-.57-.1-1.16-.06-1.71-.18-.56-.12-1.04-.56-1.58-.72-.55-.15-1.08-.35-1.61-.53-.55-.18-1.24.06-1.77-.15-.53-.21-.96-.67-1.48-.91-.52-.24-1.13-.3-1.64-.56-.51-.27-.95-.65-1.44-.95-.49-.3-1.07-.46-1.54-.79-.47-.32-.95-.66-1.4-1.01-.45-.35-.69-.97-1.11-1.35-.43-.38-1.08-.52-1.49-.92-.41-.4-.41-1.19-.79-1.61-.38-.42-1.03-.61-1.39-1.06-.36-.44-.5-1.05-.84-1.51-.34-.46-.64-.93-.95-1.41-.31-.48-.56-.98-.85-1.47-.28-.49-.57-.97-.83-1.48-.26-.51-.58-.97-.82-1.49-.23-.52-.55-1-.76-1.53-.21-.53-.32-1.09-.5-1.63-.18-.54-.68-.98-.84-1.53-.16-.54-.09-1.16-.23-1.71-.13-.55-.52-1.05-.63-1.62-.11-.56.21-1.19.12-1.76-.09-.56-.34-1.1-.4-1.67-.06-.56,0-1.14-.04-1.71-.04-.57-.29-1.12-.31-1.7-.02-.57.02-1.14.03-1.72,0-.57.32-1.13.35-1.7.03-.58.1-1.13.16-1.7.05-.57-.12-1.17-.04-1.73.08-.57.04-1.16.15-1.72.11-.57.16-1.15.3-1.71.14-.56.74-.99.9-1.54.16-.55.37-1.07.56-1.61.19-.54.18-1.15.4-1.68.22-.53.13-1.2.37-1.72.24-.52.68-.95.95-1.46.26-.51.4-1.1.69-1.59.29-.5.85-.83,1.16-1.31.31-.48.68-.92,1.01-1.39s.47-1.08.82-1.53c.35-.45.73-.89,1.1-1.33.37-.44.72-.9,1.11-1.32.39-.42.79-.84,1.2-1.24.4-.41.8-.83,1.22-1.22.42-.39.94-.67,1.38-1.04.44-.37.96-.64,1.41-.99.45-.35.75-.9,1.22-1.24.46-.34.95-.63,1.42-.95.03-.15-.02-.67-.36-1.44-.18-.43-.25-1-.49-1.52-.21-.46-.83-.77-1.05-1.27-.22-.49-.19-1.09-.4-1.56-.23-.52-.66-.93-.84-1.37-.26-.65-.4-1.22-.45-1.53-.1-.68.02-1.27.21-1.67.27-.59.86-1.11,1.43-.99.43.09.87.65,1.28,1.23.27.37.75.77,1.04,1.34.24.46.18,1.12.42,1.65.22.5.43,1.02.64,1.54.22.53.66.96.86,1.45.23.57.34,1.14.52,1.58.23.54.55,1.05.77,1.61.22.55.27,1.16.48,1.72.21.55.63,1.03.83,1.58.21.55.2,1.19.42,1.74.22.55.65,1.01.88,1.55.23.55.29,1.12.54,1.65.48-.29.83-.76,1.34-1.02.5-.25,1.16-.2,1.68-.41.52-.21,1.12-.18,1.66-.36.53-.18.96-.74,1.5-.88.55-.14,1.12-.21,1.67-.32.55-.11,1.12-.14,1.68-.22.56-.08,1.12-.24,1.68-.28.57-.05,1.14-.05,1.7-.07.57-.02,1.14-.02,1.7-.01.57,0,1.14-.06,1.7-.03.57.03,1.11.39,1.66.45.56.06,1.13-.1,1.65-.02.55.08,1.11.1,1.63.19.55.1,1.06.34,1.58.47.54.13,1,.45,1.51.62.52.17,1.15.04,1.65.26.49.22.91.61,1.39.88.47.26,1.03.39,1.49.71.44.3.82.71,1.25,1.07.41.33.62.91,1.03,1.3"/><path d="M117.95,131.64c.03-.24.13-.7.3-.87.39-.41.88-.75,1.25-1.18.37-.43.43-1.12.79-1.57.36-.44.82-.79,1.17-1.25.34-.45.77-.85,1.1-1.32.32-.47.57-.99.88-1.47.31-.48.39-1.09.68-1.58.29-.49,1.01-.74,1.28-1.24.27-.5.11-1.23.37-1.74.26-.51.62-.96.86-1.48.24-.52.65-.96.87-1.48.22-.53.43-1.06.63-1.59.2-.53.13-1.17.31-1.7.18-.54.72-.97.88-1.51.17-.55.14-1.15.28-1.7.15-.55.58-1.03.71-1.59.13-.56.02-1.17.12-1.73.11-.56.39-1.1.47-1.66.09-.56.19-1.13.26-1.7.07-.57-.35-1.18-.3-1.75.04-.57.43-1.12.45-1.69.02-.57-.37-1.15-.37-1.72,0-.57.1-1.14.07-1.7-.02-.57-.02-1.14-.07-1.7-.05-.57.05-1.15-.02-1.72-.08-.57,0-1.16-.1-1.72-.1-.56-.37-1.1-.5-1.65-.13-.56-.38-1.08-.54-1.63-.16-.55-.47-1.04-.66-1.58-.19-.54-.04-1.2-.26-1.73-.22-.53-.85-.87-1.09-1.39-.24-.51-.33-1.1-.6-1.6-.27-.5-.55-.99-.85-1.48-.3-.48-.75-.86-1.07-1.33-.33-.46-.55-1-.91-1.45-.33-.42-.81-.73-1.16-1.15-.34-.42-.34-1.13-.69-1.54-.35-.41-.81-.73-1.18-1.13-.36-.4-.81-.73-1.19-1.11-.38-.39-.9-.62-1.29-.99-.4-.37-.7-.84-1.11-1.18-.42-.34-.87-.64-1.31-.95-.44-.31-.98-.45-1.45-.72-.47-.27-.76-.86-1.26-1.08-.49-.22-1.09-.16-1.61-.34-.51-.17-.95-.6-1.48-.72-.56-.12-1.13-.15-1.7-.24-.56-.09-1.16.13-1.73.07-.57-.06-1.12-.12-1.69-.15-.57-.03-1.12-.28-1.7-.28-.57,0-1.14-.01-1.71.02-.57.03-1.14.03-1.71.09-.57.06-1.13.18-1.69.27-.56.09-1.12.2-1.68.32-.56.12-1.11.27-1.66.42-.55.15-1.08.35-1.62.54-.54.18-1.07.39-1.59.61-.53.21-.83.46-1.34.7.21.51,0,.98.21,1.49.21.51.46,1,.67,1.51.21.51.77.87.98,1.38.21.51.48.99.7,1.5.21.51.17,1.12.38,1.63.21.51.29,1.07.51,1.58.21.51.78.87.99,1.38.21.51.42,1.02.63,1.53.21.51.13,1.14.34,1.65.21.51.71.9.92,1.41.22.51.44,1.01.65,1.52.22.51.35,1.05.56,1.56s.33,1.06.54,1.57c.22.51.63.93.85,1.44.22.51.34,1.05.56,1.56.22.51.39,1.03.6,1.54.22.51.52.97.74,1.48.21.5.32,1.04.55,1.54.23.49.52.95.76,1.44.24.49.4,1.01.64,1.5.24.49.24,1.09.48,1.58.24.49.71.87.94,1.36.23.49.48.98.69,1.48.22.51.11,1.16.33,1.68.21.52.72.91.94,1.43.21.52.15,1.14.36,1.66s.79.89.99,1.41c.21.52.22,1.11.42,1.63.2.52.55.98.76,1.5.2.52.12,1.15.32,1.67.2.52.37,1.05.58,1.57.21.52.85.87,1.05,1.38.21.52.18,1.13.39,1.65.21.52.63.95.84,1.47.21.52.32,1.07.54,1.59.22.51.6.96.82,1.47.22.51.46,1.01.68,1.52.23.51.15,1.15.39,1.66.23.51.77.87,1.01,1.38.24.5-.01,1.24.23,1.75.24.5.81.83,1.07,1.33.19.32.22.48.52.45M108.85,120.96c-.07-.84-.49-.79-.82-1.56-.33-.78-.21-.83-.53-1.6-.33-.78-.7-.62-1.03-1.39-.33-.78-.19-.83-.51-1.61-.33-.78-.22-.82-.54-1.6-.33-.78-.4-.75-.73-1.52-.33-.78-.55-.68-.88-1.46s.14-.97-.19-1.75c-.33-.78-.77-.59-1.1-1.38-.33-.78-.21-.83-.53-1.61-.33-.78-.14-.86-.47-1.64-.33-.78-.33-.78-.66-1.55-.33-.78-.59-.67-.92-1.44-.33-.78.02-.92-.31-1.7-.33-.78-.51-.7-.84-1.48-.33-.78-.05-.9-.37-1.68-.33-.78-.55-.69-.88-1.47-.33-.78-.16-.85-.49-1.63-.33-.78-.3-.79-.63-1.57-.33-.78-.77-.6-1.09-1.38-.33-.78,0-.92-.33-1.7-.33-.78-.7-.62-1.03-1.4-.33-.78-.23-.82-.55-1.6-.33-.78-.29-.8-.61-1.58-.33-.78-.17-.85-.5-1.62-.33-.78-.18-.85-.5-1.63-.33-.78-.47-.72-.79-1.5-.33-.78-.43-.74-.76-1.52-.33-.78-.47-.72-.79-1.5-.33-.78.02-.92-.31-1.7-.33-.78-.74-.61-1.06-1.39-.33-.78-.15-.85-.48-1.64-.33-.78-.32-.79-.65-1.57-.33-.78-.48-.72-.81-1.5-.33-.78-.2-.84-.52-1.62-.33-.78-.5-.71-.83-1.5-.33-.78.09-.96-.24-1.74-.33-.79-.23-.9-.8-1.53-.47.32-.95.73-1.4,1.08-.45.34-.78.85-1.21,1.21-.44.36-.97.61-1.39,1-.42.38-.81.8-1.21,1.2-.4.4-.66.93-1.05,1.35-.38.42-1.04.6-1.41,1.03-.36.44-.5,1.06-.84,1.51-.34.45-.91.74-1.23,1.21-.32.47-.57.99-.86,1.48-.3.49-.32,1.12-.59,1.62-.27.5-.54.99-.79,1.5-.25.51-.69.93-.91,1.45-.22.52-.45,1.05-.64,1.58-.2.53-.41,1.06-.58,1.61-.17.54-.27,1.11-.41,1.66-.14.55-.26,1.11-.37,1.67-.11.56-.18,1.12-.27,1.68-.08.56-.11,1.13-.16,1.7-.05.56-.07,1.13-.1,1.7-.02.57.15,1.13.16,1.7,0,.57-.44,1.15-.4,1.72.04.58.12,1.15.17,1.71.06.58.49,1.1.56,1.66.08.57.22,1.12.32,1.68.1.57-.07,1.18.05,1.73.12.57.11,1.16.26,1.71.15.56.67,1,.84,1.54.17.55.35,1.09.54,1.62.2.54.11,1.19.33,1.71.23.53.74.92,1,1.42.26.52.53,1.01.81,1.5.29.5.51,1.02.82,1.5.32.48.55,1.01.9,1.46.35.46.87.76,1.24,1.19.38.43.69.91,1.09,1.31.4.4.78.83,1.21,1.2.43.38.93.66,1.38,1,.45.34.84.77,1.32,1.09.47.31.99.55,1.49.83.49.28.96.61,1.47.86.51.25.93.72,1.46.94.52.22,1.16.17,1.7.35.53.18,1.09.33,1.64.48.54.15,1.02.64,1.58.76.55.12,1.18-.08,1.75.02.56.1,1.08.47,1.66.54.56.07,1.17-.27,1.75-.22.56.04,1.12.28,1.7.31.56.02,1.14-.12,1.72-.12s1.15.3,1.72.28c.57-.02,1.15-.02,1.72-.06.53-.04,1.01-.57,1.55-.66.53-.09,1.1.06,1.63-.05.53-.11,1.01-.44,1.53-.55.54-.11,1.33-.05,1.85-.13M120.77,68.48c.38.35.9.64,1.34,1.08.38.39.68.89,1.09,1.32.38.41,1.07.57,1.46,1,.38.43.65.97,1.02,1.4.39.45.67.97,1.01,1.39.39.48.81.88,1.13,1.29.35.45.89.77,1.21,1.23.32.47.22,1.22.51,1.7.3.49,1,.74,1.27,1.23.27.5.42,1.07.66,1.58.24.51.29,1.11.51,1.64.22.53.42,1.05.61,1.58.19.53.64.99.81,1.53.16.54-.05,1.19.09,1.74.14.55.45,1.06.56,1.61.11.56-.09,1.16,0,1.72.09.56.39,1.08.46,1.65.06.56-.07,1.14-.03,1.71.04.57.04,1.12.05,1.69.02.57.49,1.13.49,1.7,0,.57-.38,1.12-.4,1.69-.03.57.34,1.16.29,1.73-.05.56-.22,1.12-.29,1.69-.07.56-.2,1.12-.28,1.68-.09.56-.35,1.09-.46,1.65-.11.56-.39,1.07-.51,1.63-.13.55-.12,1.14-.26,1.68-.14.55-.19,1.13-.35,1.67-.16.54-.19,1.13-.37,1.67-.18.54-.72.95-.91,1.49-.2.53.01,1.22-.2,1.75-.21.53-.61.98-.84,1.5-.23.52-.47,1.04-.71,1.55-.24.51-.35,1.1-.61,1.6-.26.51-.66.94-.93,1.44-.28.5-.4,1.09-.69,1.57-.29.49-.98.73-1.28,1.21s-.5,1.01-.82,1.45c-.32.46-.58.96-.92,1.39-.34.44-.55.99-.91,1.41-.36.42-.85.74-1.22,1.15-.37.41-.72.84-1.1,1.24-.38.4-.64.92-1.03,1.32-.38.39-1.07.6-1.46,1,.1.83.58.7.89,1.48.32.78.04.89.36,1.67.32.78.39.75.7,1.53.32.78.59.67.91,1.45.32.78.3.79.62,1.57.32.78.1.87.42,1.65.32.78.3.79.61,1.57.32.78.28.8.6,1.58.32.78.37.76.68,1.55.32.78.38.76.64,1.56.06.52,0,1.03-.17,1.43-.21.47-.59.88-1.05.98-.39.08-.92,0-1.43-.31-.19-.12-.7-.58-1.08-1.34-.21-.43-.03-1.13-.28-1.69-.21-.47-.46-.96-.69-1.5-.21-.49-.76-.86-.97-1.38-.21-.51-.47-1-.68-1.51-.21-.52-.15-1.14-.35-1.64-.21-.53-.28-1.1-.47-1.59-.22-.56-.78-.94-.96-1.4-.27-.68-.47-1.2-.61-1.52-.23-.53-.17-1.2-.41-1.73-.24-.53-.76-.94-1-1.47s-.5-1.05-.74-1.58c-.25-.53-.41-1.09-.65-1.62-.25-.53-.39-1.11-.63-1.64-.24-.53-.68-.97-.92-1.51-.24-.53-.38-1.11-.61-1.64-.23-.54-.4-1.1-.62-1.64-.22-.54-.45-.97-.65-1.51-.55.13-1.01.15-1.56.27-.55.12-1.09.3-1.65.41-.55.11-1.12.14-1.68.23-.56.1-1.15-.07-1.71.01-.56.08-1.08.42-1.64.48-.56.06-1.12.15-1.69.19-.57.04-1.14-.28-1.71-.26-.57.02-1.12.34-1.69.33-.57-.01-1.11-.32-1.67-.36-.57-.04-1.18.3-1.74.23-.57-.07-1.11-.36-1.66-.45-.57-.1-1.16-.06-1.71-.18-.56-.12-1.04-.56-1.58-.72-.55-.15-1.08-.35-1.61-.53-.55-.18-1.24.06-1.77-.15-.53-.21-.96-.67-1.48-.91-.52-.24-1.13-.3-1.64-.56-.51-.27-.95-.65-1.44-.95-.49-.3-1.07-.46-1.54-.79-.47-.32-.95-.66-1.4-1.01-.45-.35-.69-.97-1.11-1.35-.43-.38-1.08-.52-1.49-.92-.41-.4-.41-1.19-.79-1.61-.38-.42-1.03-.61-1.39-1.06-.36-.44-.5-1.05-.84-1.51-.34-.46-.64-.93-.95-1.41-.31-.48-.56-.98-.85-1.47-.28-.49-.57-.97-.83-1.48-.26-.51-.58-.97-.82-1.49-.23-.52-.55-1-.76-1.53-.21-.53-.32-1.09-.5-1.63-.18-.54-.68-.98-.84-1.53-.16-.54-.09-1.16-.23-1.71-.13-.55-.52-1.05-.63-1.62-.11-.56.21-1.19.12-1.76-.09-.56-.34-1.1-.4-1.67-.06-.56,0-1.14-.04-1.71-.04-.57-.29-1.12-.31-1.7-.02-.57.02-1.14.03-1.72,0-.57.32-1.13.35-1.7.03-.58.1-1.13.16-1.7.05-.57-.12-1.17-.04-1.73.08-.57.04-1.16.15-1.72.11-.57.16-1.15.3-1.71.14-.56.74-.99.9-1.54.16-.55.37-1.07.56-1.61.19-.54.18-1.15.4-1.68.22-.53.13-1.2.37-1.72.24-.52.68-.95.95-1.46.26-.51.4-1.1.69-1.59.29-.5.85-.83,1.16-1.31.31-.48.68-.92,1.01-1.39s.47-1.08.82-1.53c.35-.45.73-.89,1.1-1.33.37-.44.72-.9,1.11-1.32.39-.42.79-.84,1.2-1.24.4-.41.8-.83,1.22-1.22.42-.39.94-.67,1.38-1.04.44-.37.96-.64,1.41-.99.45-.35.75-.9,1.22-1.24.46-.34.95-.63,1.42-.95.03-.15-.02-.67-.36-1.44-.18-.43-.25-1-.49-1.52-.21-.46-.83-.77-1.05-1.27-.22-.49-.19-1.09-.4-1.56-.23-.52-.66-.93-.84-1.37-.26-.65-.4-1.22-.45-1.53-.1-.68.02-1.27.21-1.67.27-.59.86-1.11,1.43-.99.43.09.87.65,1.28,1.23.27.37.75.77,1.04,1.34.24.46.18,1.12.42,1.65.22.5.43,1.02.64,1.54.22.53.66.96.86,1.45.23.57.34,1.14.52,1.58.23.54.55,1.05.77,1.61.22.55.27,1.16.48,1.72.21.55.63,1.03.83,1.58.21.55.2,1.19.42,1.74.22.55.65,1.01.88,1.55.23.55.29,1.12.54,1.65.48-.29.83-.76,1.34-1.02.5-.25,1.16-.2,1.68-.41.52-.21,1.12-.18,1.66-.36.53-.18.96-.74,1.5-.88.55-.14,1.12-.21,1.67-.32.55-.11,1.12-.14,1.68-.22.56-.08,1.12-.24,1.68-.28.57-.05,1.14-.05,1.7-.07.57-.02,1.14-.02,1.7-.01.57,0,1.14-.06,1.7-.03.57.03,1.11.39,1.66.45.56.06,1.13-.1,1.65-.02.55.08,1.11.1,1.63.19.55.1,1.06.34,1.58.47.54.13,1,.45,1.51.62.52.17,1.15.04,1.65.26.49.22.91.61,1.39.88.47.26,1.03.39,1.49.71.44.3.82.71,1.25,1.07.41.33.62.91,1.03,1.3"/></svg>