<?xml version="1.0" encoding="UTF-8"?><svg id="Layer_1" xmlns="http://www.w3.org/2000/svg" viewBox="0 0 200 200"><path d="M96.62,87.77c-.67.1-1.43-.25-2.03-.04-.63.22-.98.99-1.53,1.33-.57.34-1.35.36-1.83.8-.48.44-1.03.88-1.42,1.41-.38.52-.61,1.19-.9,1.78-.29.58-.54,1.2-.75,1.82-.2.61-.24,1.29-.37,1.94-.12.64.02,1.3-.03,1.96-.05.65-.05,1.27-.02,1.93.03.65.13,1.27.23,1.91.1.65.23,1.25.4,1.88.17.63.12,1.32.37,1.92.25.61.34,1.31.66,1.87.33.57.97.93,1.37,1.44.4.52.58,1.25,1.05,1.7.45.42,1.26.35,1.88.62.57.25,1.07.76,1.71.89.62.13,1.29-.04,1.93-.01.65.03,1.28-.04,1.9-.1.68-.07,1.32-.04,1.89-.2.53-.15,1.17-.18,1.74-.45.52-.25.96-.7,1.48-1.02.5-.31,1.19-.4,1.66-.76.48-.37.88-.87,1.3-1.26.46-.43,1.01-.79,1.36-1.22.41-.51.43-1.29.75-1.82.34-.56.65-1.1.89-1.67.25-.6.58-1.16.73-1.77.16-.63.48-1.24.54-1.87.06-.64-.48-1.28-.52-1.91-.04-.64.03-1.26-.11-1.88-.14-.62-.23-1.25-.46-1.84-.24-.59-.75-1.02-1.08-1.57-.32-.55-.62-1.07-1.02-1.56-.4-.49-.77-.98-1.25-1.41-.47-.42-.96-.79-1.5-1.14-.53-.34-1.08-.6-1.67-.86-.57-.26-1.05-.8-1.67-.97-.6-.17-1.28.01-1.93-.06-.62-.07-1.23.02-1.88.03-.62.01-1.22.07-1.86.17M90.83,116.53c-.44-.27-.67-1.18-1.26-1.8-.45-.47-1.33-.65-1.8-1.22-.44-.54-.51-1.4-.92-1.97-.43-.6-.72-1.26-1.06-1.81-.45-.73-.92-1.27-1.09-1.76-.12-.33-.29-.94-.48-1.73-.13-.53-.4-1.1-.54-1.72-.13-.58-.48-1.14-.59-1.73-.12-.63-.25-1.25-.34-1.78-.14-.83-.26-1.55-.24-1.85.01-.2.62-.2.67-.43.08-.4.14-1.03-.01-1.76-.14-.66-.39-1.25-.2-1.74.5.88.47.86.94,1.77.01-.67.16-1.2.26-1.8.11-.64-.21-1.38,0-1.98.2-.6.78-1.06,1.07-1.64.27-.55.38-1.22.72-1.79.35-.56.69-1.14,1.08-1.64.41-.52.95-.92,1.41-1.37.46-.46,1.09-.73,1.6-1.12.52-.4.95-.91,1.51-1.23.56-.33,1.28-.33,1.87-.58.6-.26,1.14-.58,1.76-.76.62-.18,1.26-.16,1.9-.27.64-.1,1.23-.59,1.88-.62.65-.03,1.31.02,1.95.07.65.05,1.27.27,1.91.4.63.13,1.19.5,1.81.7.61.2,1.42-.07,2.01.21.58.27,1.09.74,1.65,1.09.54.34,1.02.81,1.53,1.22.5.4,1.17.65,1.63,1.13.44.46.84,1.01,1.24,1.54.38.51.7,1.11,1.03,1.68.33.57.65,1.16.91,1.75.27.6.56,1.21.76,1.82.2.62.03,1.35.17,1.98.13.64.53,1.24.6,1.89.06.65.21,1.32.2,1.97,0,.65-.66,1.26-.74,1.91-.08.65.18,1.34.03,1.98-.15.63-.61,1.17-.83,1.79-.22.61-.26,1.29-.54,1.88-.28.59-.69,1.1-1.02,1.66-.34.56-.51,1.22-.9,1.75-.39.52-.74,1.1-1.18,1.58-.44.48-1.2.63-1.69,1.06-.49.43-.67,1.26-1.2,1.64-.53.38-1.11.74-1.68,1.06-.56.32-1.16.65-1.76.92-.58.25-1.38.06-2.07.24-.63.17-1.25.51-1.93.61-.66.1-1.35-.02-2.03,0-.67.03-1.36.29-2.03.26-.68-.04-1.39-.05-2.04-.16-.69-.12-1.26-.65-1.88-.85-.67-.22-1.49-.1-2.04-.43"/><path d="M96.62,87.77c-.67.1-1.43-.25-2.03-.04-.63.22-.98.99-1.53,1.33-.57.34-1.35.36-1.83.8-.48.44-1.03.88-1.42,1.41-.38.52-.61,1.19-.9,1.78-.29.58-.54,1.2-.75,1.82-.2.61-.24,1.29-.37,1.94-.12.64.02,1.3-.03,1.96-.05.65-.05,1.27-.02,1.93.03.65.13,1.27.23,1.91.1.65.23,1.25.4,1.88.17.63.12,1.32.37,1.92.25.61.34,1.31.66,1.87.33.57.97.93,1.37,1.44.4.52.58,1.25,1.05,1.7.45.42,1.26.35,1.88.62.57.25,1.07.76,1.71.89.62.13,1.29-.04,1.93-.01.65.03,1.28-.04,1.9-.1.68-.07,1.32-.04,1.89-.2.53-.15,1.17-.18,1.74-.45.52-.25.96-.7,1.48-1.02.5-.31,1.19-.4,1.66-.76.48-.37.88-.87,1.3-1.26.46-.43,1.01-.79,1.36-1.22.41-.51.43-1.29.75-1.82.34-.56.65-1.1.89-1.67.25-.6.58-1.16.73-1.77.16-.63.48-1.24.54-1.87.06-.64-.48-1.28-.52-1.91-.04-.64.03-1.26-.11-1.88-.14-.62-.23-1.25-.46-1.84-.24-.59-.75-1.02-1.08-1.57-.32-.55-.62-1.07-1.02-1.56-.4-.49-.77-.98-1.25-1.41-.47-.42-.96-.79-1.5-1.14-.53-.34-1.08-.6-1.67-.86-.57-.26-1.05-.8-1.67-.97-.6-.17-1.28.01-1.93-.06-.62-.07-1.23.02-1.88.03-.62.01-1.22.07-1.86.17M90.83,116.53c-.44-.27-.67-1.18-1.26-1.8-.45-.47-1.33-.65-1.8-1.22-.44-.54-.51-1.4-.92-1.97-.43-.6-.72-1.26-1.06-1.81-.45-.73-.92-1.27-1.09-1.76-.12-.33-.29-.94-.48-1.73-.13-.53-.4-1.1-.54-1.72-.13-.58-.48-1.14-.59-1.73-.12-.63-.25-1.25-.34-1.78-.14-.83-.26-1.55-.24-1.85.01-.2.62-.2.67-.43.08-.4.14-1.03-.01-1.76-.14-.66-.39-1.25-.2-1.74.5.88.47.86.94,1.77.01-.67.16-1.2.26-1.8.11-.64-.21-1.38,0-1.98.2-.6.78-1.06,1.07-1.64.27-.55.38-1.22.72-1.79.35-.56.69-1.14,1.08-1.64.41-.52.95-.92,1.41-1.37.46-.46,1.09-.73,1.6-1.12.52-.4.95-.91,1.51-1.23.56-.33,1.28-.33,1.87-.58.6-.26,1.14-.58,1.76-.76.62-.18,1.26-.16,1.9-.27.64-.1,1.23-.59,1.88-.62.65-.03,1.31.02,1.95.07.65.05,1.27.27,1.91.4.63.13,1.19.5,1.81.7.61.2,1.42-.07,2.01.21.58.27,1.09.74,1.65,1.09.54.34,1.02.81,1.53,1.22.5.4,1.17.65,1.63,1.13.44.46.84,1.01,1.24,1.54.38.51.7,1.11,1.03,1.68.33.57.65,1.16.91,1.75.27.6.56,1.21.76,1.82.2.62.03,1.35.17,1.98.13.64.53,1.24.6,1.89.06.65.21,1.32.2,1.97,0,.65-.66,1.26-.74,1.91-.08.65.18,1.34.03,1.98-.15.63-.61,1.17-.83,1.79-.22.61-.26,1.29-.54,1.88-.28.59-.69,1.1-1.02,1.66-.34.56-.51,1.22-.9,1.75-.39.52-.74,1.1-1.18,1.58-.44.48-1.2.63-1.69,1.06-.49.43-.67,1.26-1.2,1.64-.53.38-1.11.74-1.68,1.06-.56.32-1.16.65-1.76.92-.58.25-1.38.06-2.07.24-.63.17-1.25.51-1.93.61-.66.1-1.35-.02-2.03,0-.67.03-1.36.29-2.03.26-.68-.04-1.39-.05-2.04-.16-.69-.12-1.26-.65-1.88-.85-.67-.22-1.49-.1-2.04-.43"/><path d="M124.39,99.62c.33.33.91.7,1,1.46.07.55.15,1.21.14,1.86-.01.6-.24,1.23-.31,1.84-.07.64-.44,1.22-.54,1.78-.12.74.06,1.44-.04,1.86-.16.61-.53,1.15-.77,1.73-.24.58-.15,1.34-.46,1.89-.31.55-.75,1.05-1.11,1.57-.36.51-.87.93-1.28,1.41-.41.48-.83.95-1.28,1.4-.45.45-1.04.73-1.52,1.14-.48.42-1.05.69-1.55,1.08-.5.39-.7,1.18-1.22,1.54-.52.36-1.13.6-1.66.94-.54.34-1.19.49-1.72.8-.32.18-.83.67-1.55,1.05-.51.27-1.1.55-1.67.84-.58.3-1.27.35-1.79.6-.78.37-1.32.9-1.61.96-.81.16-1.77.15-2.42-.27-.65-.42-.87-1.26-1.05-2.07.19-.74-.08-.92.38-1.54.5-.3,1.37-.24,1.93-.56.52-.29,1.01-.69,1.57-1,.53-.29,1.16-.43,1.72-.74.53-.3.97-.8,1.51-1.11.53-.31,1.14-.51,1.68-.84.53-.32.9-.91,1.41-1.26.52-.35.97-.78,1.46-1.15.51-.37.95-.79,1.42-1.19.48-.41.93-.81,1.36-1.24.45-.45.83-.91,1.2-1.38.39-.5,1.19-.71,1.49-1.24.31-.55.56-1.17.76-1.75.19-.55.08-1.29.17-2,.08-.63.22-1.29.27-1.95.06-.68-.04-1.37.03-1.98.09-.77.52-1.32.74-1.79.04-.1,1.11-1.65,1.21-1.67.25-.05,1.92.78,2.11.96"/><path d="M124.39,99.62c.33.33.91.7,1,1.46.07.55.15,1.21.14,1.86-.01.6-.24,1.23-.31,1.84-.07.64-.44,1.22-.54,1.78-.12.74.06,1.44-.04,1.86-.16.61-.53,1.15-.77,1.73-.24.58-.15,1.34-.46,1.89-.31.55-.75,1.05-1.11,1.57-.36.51-.87.93-1.28,1.41-.41.48-.83.95-1.28,1.4-.45.45-1.04.73-1.52,1.14-.48.42-1.05.69-1.55,1.08-.5.39-.7,1.18-1.22,1.54-.52.36-1.13.6-1.66.94-.54.34-1.19.49-1.72.8-.32.18-.83.67-1.55,1.05-.51.27-1.1.55-1.67.84-.58.3-1.27.35-1.79.6-.78.37-1.32.9-1.61.96-.81.16-1.77.15-2.42-.27-.65-.42-.87-1.26-1.05-2.07.19-.74-.08-.92.38-1.54.5-.3,1.37-.24,1.93-.56.52-.29,1.01-.69,1.57-1,.53-.29,1.16-.43,1.72-.74.53-.3.97-.8,1.51-1.11.53-.31,1.14-.51,1.68-.84.53-.32.9-.91,1.41-1.26.52-.35.97-.78,1.46-1.15.51-.37.95-.79,1.42-1.19.48-.41.93-.81,1.36-1.24.45-.45.83-.91,1.2-1.38.39-.5,1.19-.71,1.49-1.24.31-.55.56-1.17.76-1.75.19-.55.08-1.29.17-2,.08-.63.22-1.29.27-1.95.06-.68-.04-1.37.03-1.98.09-.77.52-1.32.74-1.79.04-.1,1.11-1.65,1.21-1.67.25-.05,1.92.78,2.11.96"/><path d="M96.68,79.38c-.72.65-1.42.74-1.96.88-.56.14-1.07.35-1.91.7-.58.24-1.11.57-1.71.91-.55.31-1.12.61-1.67,1-.53.37-1.08.7-1.61,1.13-.5.41-1.18.64-1.67,1.1-.48.45-.69,1.17-1.14,1.65-.46.48-1.15.74-1.57,1.24-.43.51-.78,1.08-1.16,1.61-.4.54-.85,1.04-1.19,1.59-.37.58-.84,1.08-1.13,1.65-.31.62-.16,1.4-.37,1.99-.16.46-.35,1.01-.48,1.66-.12.56-.31,1.15-.48,1.71-.18.6-.64,1.04-.96,1.46-.36.47-.73.85-1.39.86-.62.01-1.12-.58-1.63-1.21-.49-.61-.77-1.22-.73-1.83.03-.61.18-1.2.35-1.87.15-.6-.14-1.37.11-2,.23-.59.86-1.02,1.16-1.62.28-.57.53-1.16.87-1.73.32-.55.34-1.32.71-1.86.36-.53.97-.91,1.37-1.43.39-.52.91-.93,1.33-1.44.42-.5.7-1.12,1.14-1.6.44-.48,1.13-.71,1.6-1.17.47-.46.69-1.17,1.17-1.6.49-.44.93-.95,1.43-1.35.52-.41,1.02-.86,1.55-1.22.55-.38,1.27-.47,1.82-.79.58-.33,1.26-.41,1.84-.66.62-.28,1.17-.6,1.76-.77.66-.19,1.27-.2,1.89-.24.66-.05,1.43-.48,1.99-.24.68.29,1.33.96,1.47,1.52.13.51-.11,1.38-.77,1.98"/><path d="M96.68,79.38c-.72.65-1.42.74-1.96.88-.56.14-1.07.35-1.91.7-.58.24-1.11.57-1.71.91-.55.31-1.12.61-1.67,1-.53.37-1.08.7-1.61,1.13-.5.41-1.18.64-1.67,1.1-.48.45-.69,1.17-1.14,1.65-.46.48-1.15.74-1.57,1.24-.43.51-.78,1.08-1.16,1.61-.4.54-.85,1.04-1.19,1.59-.37.58-.84,1.08-1.13,1.65-.31.62-.16,1.4-.37,1.99-.16.46-.35,1.01-.48,1.66-.12.56-.31,1.15-.48,1.71-.18.6-.64,1.04-.96,1.46-.36.47-.73.85-1.39.86-.62.01-1.12-.58-1.63-1.21-.49-.61-.77-1.22-.73-1.83.03-.61.18-1.2.35-1.87.15-.6-.14-1.37.11-2,.23-.59.86-1.02,1.16-1.62.28-.57.53-1.16.87-1.73.32-.55.34-1.32.71-1.86.36-.53.97-.91,1.37-1.43.39-.52.91-.93,1.33-1.44.42-.5.7-1.12,1.14-1.6.44-.48,1.13-.71,1.6-1.17.47-.46.69-1.17,1.17-1.6.49-.44.93-.95,1.43-1.35.52-.41,1.02-.86,1.55-1.22.55-.38,1.27-.47,1.82-.79.58-.33,1.26-.41,1.84-.66.62-.28,1.17-.6,1.76-.77.66-.19,1.27-.2,1.89-.24.66-.05,1.43-.48,1.99-.24.68.29,1.33.96,1.47,1.52.13.51-.11,1.38-.77,1.98"/><path d="M124.97,94.09c-.4.18-.28-.03-.69.1-.34.11-.08.18-.44.25-.57.11-.56-.53-1.08-.28-.44.21.26.68-.06,1.05-.27.32-.5.11-.9,0-.44-.52-.89-.96-1.17-1.57-.28-.6-.28-1.32-.5-1.96-.22-.64-.61-1.21-.86-1.83-.25-.62-.66-1.13-1.05-1.68-.31-.44-.59-.99-1.07-1.46-.41-.4-.68-1.04-1.18-1.45-.46-.38-1.2-.44-1.7-.8-.5-.36-1.04-.64-1.56-.97-.53-.34-.89-.94-1.41-1.23-.56-.32-1.04-.78-1.56-1.03-.61-.29-1.26-.43-1.77-.6-.39-.13-1.2-.42-2.12-.58-.7-.12-1.55.3-2.23.19-1.09-.18-1.96-.53-2.08-.63-.08-.07-.68-1.93-.69-2.04-.05-.86-.07-1.57.44-1.96.49-.37,1.3-.12,2.08-.19.65-.06,1.32-.19,2.03-.11.71.08,1.48-.18,2.12-.04.81.18,1.4.79,1.89.95.61.2,1.36.06,1.97.32.6.25,1.23.48,1.81.78.58.29,1.14.66,1.7,1,.56.34.81,1.13,1.34,1.51.53.38,1.32.42,1.82.83.5.42,1.1.75,1.57,1.21.47.46.88,1,1.3,1.49.42.5.82,1.04,1.19,1.58.37.54.54,1.21.86,1.78.32.57.65,1.14.89,1.74.25.6.13,1.31.3,1.94.17.62.64,1.17.73,1.83.09.64.07,1.22.08,1.88"/><path d="M124.97,94.09c-.4.18-.28-.03-.69.1-.34.11-.08.18-.44.25-.57.11-.56-.53-1.08-.28-.44.21.26.68-.06,1.05-.27.32-.5.11-.9,0-.44-.52-.89-.96-1.17-1.57-.28-.6-.28-1.32-.5-1.96-.22-.64-.61-1.21-.86-1.83-.25-.62-.66-1.13-1.05-1.68-.31-.44-.59-.99-1.07-1.46-.41-.4-.68-1.04-1.18-1.45-.46-.38-1.2-.44-1.7-.8-.5-.36-1.04-.64-1.56-.97-.53-.34-.89-.94-1.41-1.23-.56-.32-1.04-.78-1.56-1.03-.61-.29-1.26-.43-1.77-.6-.39-.13-1.2-.42-2.12-.58-.7-.12-1.55.3-2.23.19-1.09-.18-1.96-.53-2.08-.63-.08-.07-.68-1.93-.69-2.04-.05-.86-.07-1.57.44-1.96.49-.37,1.3-.12,2.08-.19.65-.06,1.32-.19,2.03-.11.71.08,1.48-.18,2.12-.04.81.18,1.4.79,1.89.95.61.2,1.36.06,1.97.32.6.25,1.23.48,1.81.78.58.29,1.14.66,1.7,1,.56.34.81,1.13,1.34,1.51.53.38,1.32.42,1.82.83.5.42,1.1.75,1.57,1.21.47.46.88,1,1.3,1.49.42.5.82,1.04,1.19,1.58.37.54.54,1.21.86,1.78.32.57.65,1.14.89,1.74.25.6.13,1.31.3,1.94.17.62.64,1.17.73,1.83.09.64.07,1.22.08,1.88"/><path d="M96.99,126.43c-.48.37-1.2.36-1.89.37-.59,0-1.23-.08-1.88-.25-.6-.15-1.28-.2-1.88-.43-.61-.24-1.08-.79-1.62-1.06-.65-.33-1.2-.69-1.64-.94-.55-.32-1-.8-1.56-1.23-.51-.39-1.19-.62-1.7-1.08-.49-.44-.95-.93-1.42-1.42-.46-.48-1-.9-1.44-1.42-.43-.51-.77-1.11-1.17-1.65-.41-.54-1.08-.9-1.45-1.45-.38-.57-.26-1.44-.59-2.01-.35-.6-.95-1.03-1.23-1.62-.3-.64-.43-1.31-.64-1.91-.15-.42-.51-1.03-.71-1.78-.15-.59-.16-1.27-.26-1.91-.11-.67-.37-1.33-.34-1.91.04-.78.29-1.5.74-1.82.08-.06,1.8.38,1.91.43.38.15.87.4,1.12,1.12.17.5.27,1.1.41,1.7.13.58.51,1.11.62,1.65.15.68-.05,1.36.09,1.76.22.58.81,1.02,1.12,1.62.29.56.43,1.21.79,1.77.35.53.64,1.12,1.04,1.64.39.51.8,1.02,1.23,1.51.44.48.71,1.14,1.18,1.59.47.45.97.91,1.47,1.31.51.42,1.35.39,1.88.75.55.37.93.99,1.49,1.29.59.31,1.29.35,1.88.56.69.24,1.4.62,2.13.76.8.16,1.54.24,2.06.7.46.42.56,1.01.54,2.01,0,.35-.01,1.17-.26,1.35"/><path d="M96.99,126.43c-.48.37-1.2.36-1.89.37-.59,0-1.23-.08-1.88-.25-.6-.15-1.28-.2-1.88-.43-.61-.24-1.08-.79-1.62-1.06-.65-.33-1.2-.69-1.64-.94-.55-.32-1-.8-1.56-1.23-.51-.39-1.19-.62-1.7-1.08-.49-.44-.95-.93-1.42-1.42-.46-.48-1-.9-1.44-1.42-.43-.51-.77-1.11-1.17-1.65-.41-.54-1.08-.9-1.45-1.45-.38-.57-.26-1.44-.59-2.01-.35-.6-.95-1.03-1.23-1.62-.3-.64-.43-1.31-.64-1.91-.15-.42-.51-1.03-.71-1.78-.15-.59-.16-1.27-.26-1.91-.11-.67-.37-1.33-.34-1.91.04-.78.29-1.5.74-1.82.08-.06,1.8.38,1.91.43.38.15.87.4,1.12,1.12.17.5.27,1.1.41,1.7.13.58.51,1.11.62,1.65.15.68-.05,1.36.09,1.76.22.58.81,1.02,1.12,1.62.29.56.43,1.21.79,1.77.35.53.64,1.12,1.04,1.64.39.51.8,1.02,1.23,1.51.44.48.71,1.14,1.18,1.59.47.45.97.91,1.47,1.31.51.42,1.35.39,1.88.75.55.37.93.99,1.49,1.29.59.31,1.29.35,1.88.56.69.24,1.4.62,2.13.76.8.16,1.54.24,2.06.7.46.42.56,1.01.54,2.01,0,.35-.01,1.17-.26,1.35"/><path d="M73.68,79.64c.5-.14,1.39-.07,2.02.31.63.38,1.28,1.07,1.43,1.56.14.48-.25,1.21-.59,1.92-.25.52-.85.93-1.21,1.49-.35.54-.66,1.12-.99,1.63-.4.61-.41,1.35-.61,1.82-.27.62-.54,1.36-.79,2.15-.24.78-.71,1.49-.87,2.15-.12.5.17,1.22.08,1.94-.08.61-.48,1.23-.6,1.85-.13.67-.31,1.3-.57,1.82-.31.62-.81.8-1.43.95-.86.21-1.2.14-1.61-.26-.42-.41-.72-.88-.84-1.63-.1-.63-.29-1.31-.26-1.98.02-.74-.18-1.48-.13-2.02.05-.46.4-1.12.6-1.9.15-.56.26-1.22.48-1.89.19-.59.84-1.05,1.08-1.68.23-.6.15-1.33.4-1.93.26-.61.85-1.05,1.13-1.62.3-.61.45-1.26.76-1.78.37-.61.87-1.02,1.24-1.47.51-.61.79-1.29,1.28-1.42"/><path d="M73.68,79.64c.5-.14,1.39-.07,2.02.31.63.38,1.28,1.07,1.43,1.56.14.48-.25,1.21-.59,1.92-.25.52-.85.93-1.21,1.49-.35.54-.66,1.12-.99,1.63-.4.61-.41,1.35-.61,1.82-.27.62-.54,1.36-.79,2.15-.24.78-.71,1.49-.87,2.15-.12.5.17,1.22.08,1.94-.08.61-.48,1.23-.6,1.85-.13.67-.31,1.3-.57,1.82-.31.62-.81.8-1.43.95-.86.21-1.2.14-1.61-.26-.42-.41-.72-.88-.84-1.63-.1-.63-.29-1.31-.26-1.98.02-.74-.18-1.48-.13-2.02.05-.46.4-1.12.6-1.9.15-.56.26-1.22.48-1.89.19-.59.84-1.05,1.08-1.68.23-.6.15-1.33.4-1.93.26-.61.85-1.05,1.13-1.62.3-.61.45-1.26.76-1.78.37-.61.87-1.02,1.24-1.47.51-.61.79-1.29,1.28-1.42"/><path d="M91.38,66.63c.58-.09,1.24-.07,1.78,0,.62.08,1.38.28,1.73.7.31.37-.07,1.07-.15,1.8-.06.63-.16,1.08-.67,1.47-.44.33-.97.64-1.57.86-.57.2-1.18.36-1.74.52-.66.18-1.16.63-1.61.82-.54.22-1.09.43-1.64.7-.55.27-1.23.28-1.73.58-.31.18-.76.63-1.34,1.09-.42.33-1,.57-1.46.94-.47.38-.68,1.07-1.09,1.39-.69.55-1.49.44-1.65.49-.59.18-1.06.45-1.57.27-.54-.19-1.19-.39-1.53-.85-.32-.44-.37-1.12-.41-1.71.06-.4.74-.72,1.39-1.35.42-.41.73-1.06,1.29-1.5.5-.4.84-1.06,1.39-1.45.55-.39,1.24-.58,1.78-.93.6-.39,1.28-.56,1.79-.87.74-.44,1.26-.96,1.64-1.12.41-.17.98-.63,1.69-.88.58-.2,1.25-.34,1.84-.51.73-.22,1.43-.41,1.85-.48"/><path d="M91.38,66.63c.58-.09,1.24-.07,1.78,0,.62.08,1.38.28,1.73.7.31.37-.07,1.07-.15,1.8-.06.63-.16,1.08-.67,1.47-.44.33-.97.64-1.57.86-.57.2-1.18.36-1.74.52-.66.18-1.16.63-1.61.82-.54.22-1.09.43-1.64.7-.55.27-1.23.28-1.73.58-.31.18-.76.63-1.34,1.09-.42.33-1,.57-1.46.94-.47.38-.68,1.07-1.09,1.39-.69.55-1.49.44-1.65.49-.59.18-1.06.45-1.57.27-.54-.19-1.19-.39-1.53-.85-.32-.44-.37-1.12-.41-1.71.06-.4.74-.72,1.39-1.35.42-.41.73-1.06,1.29-1.5.5-.4.84-1.06,1.39-1.45.55-.39,1.24-.58,1.78-.93.6-.39,1.28-.56,1.79-.87.74-.44,1.26-.96,1.64-1.12.41-.17.98-.63,1.69-.88.58-.2,1.25-.34,1.84-.51.73-.22,1.43-.41,1.85-.48"/><path d="M123.31,121.32c.38.33.41.95.58,1.48.17.53.6,1.11.31,1.59-.15.25-.72.75-1.4,1.29-.44.35-1.11.54-1.63.92-.52.37-.9.95-1.38,1.27-.69.46-1.35.72-1.65.86-.33.16-1,.59-1.92.92-.6.21-1.32.35-2.03.58-.66.22-1.45.13-2.12.34-.72.23-1.37.58-1.98.75-.99.28-1.76.86-2.05.84-.53-.03-1.23-.83-1.64-1.49-.4-.64-.61-1.51-.33-2.05.17-.34.79-.71,1.54-1.08.49-.24,1.21-.15,1.84-.4.55-.22,1.11-.5,1.7-.71.59-.21,1.19-.39,1.76-.59.62-.22,1.2-.47,1.73-.67.71-.26,1.23-.73,1.62-.93.54-.28.92-.94,1.49-1.41.53-.43,1.45-.39,1.99-.78.61-.44,1.08-.85,1.67-.99.65-.15,1.28-.28,1.89.26"/><path d="M123.31,121.32c.38.33.41.95.58,1.48.17.53.6,1.11.31,1.59-.15.25-.72.75-1.4,1.29-.44.35-1.11.54-1.63.92-.52.37-.9.95-1.38,1.27-.69.46-1.35.72-1.65.86-.33.16-1,.59-1.92.92-.6.21-1.32.35-2.03.58-.66.22-1.45.13-2.12.34-.72.23-1.37.58-1.98.75-.99.28-1.76.86-2.05.84-.53-.03-1.23-.83-1.64-1.49-.4-.64-.61-1.51-.33-2.05.17-.34.79-.71,1.54-1.08.49-.24,1.21-.15,1.84-.4.55-.22,1.11-.5,1.7-.71.59-.21,1.19-.39,1.76-.59.62-.22,1.2-.47,1.73-.67.71-.26,1.23-.73,1.62-.93.54-.28.92-.94,1.49-1.41.53-.43,1.45-.39,1.99-.78.61-.44,1.08-.85,1.67-.99.65-.15,1.28-.28,1.89.26"/><path d="M80.56,126.44c.25-.4.85-.69,1.39-.95.53-.26,1.09-.4,1.58-.3.31.06,1.09.43,1.96.98.59.38,1.16.94,1.78,1.33.74.46,1.41,1,1.89,1.2.45.18,1.1-.09,1.6.07.49.16,1,.25,1.47.39.58.17,1.21.4,1.89.49.68.1,1.3.41,1.86.7.57.29,1.1.66,1.3,1.42.23.85.32,1.63.05,2.09-.31.54-1.09.92-1.85,1.06-.59.1-1.33.11-2.05.04-.65-.06-1.33-.23-1.99-.37-.68-.14-1.23-.73-1.83-.9-.78-.23-1.42-.44-1.87-.61-.41-.16-.99-.36-1.63-.67-.5-.24-1.17-.26-1.71-.57-.51-.29-.82-.92-1.31-1.26-.51-.36-1.27-.39-1.66-.78-.47-.47-.44-1.18-.63-1.68-.22-.57-.58-1.11-.23-1.67"/><path d="M80.56,126.44c.25-.4.85-.69,1.39-.95.53-.26,1.09-.4,1.58-.3.31.06,1.09.43,1.96.98.59.38,1.16.94,1.78,1.33.74.46,1.41,1,1.89,1.2.45.18,1.1-.09,1.6.07.49.16,1,.25,1.47.39.58.17,1.21.4,1.89.49.68.1,1.3.41,1.86.7.57.29,1.1.66,1.3,1.42.23.85.32,1.63.05,2.09-.31.54-1.09.92-1.85,1.06-.59.1-1.33.11-2.05.04-.65-.06-1.33-.23-1.99-.37-.68-.14-1.23-.73-1.83-.9-.78-.23-1.42-.44-1.87-.61-.41-.16-.99-.36-1.63-.67-.5-.24-1.17-.26-1.71-.57-.51-.29-.82-.92-1.31-1.26-.51-.36-1.27-.39-1.66-.78-.47-.47-.44-1.18-.63-1.68-.22-.57-.58-1.11-.23-1.67"/><path d="M132.03,99.38c.36.37.34,1.06.52,1.78.14.55.69,1.09.75,1.76.05.59-.15,1.24-.15,1.88,0,.62.09,1.26.05,1.88-.04.64-.03,1.28-.1,1.88-.08.66-.15,1.3-.25,1.87-.12.73-.45,1.32-.58,1.79-.15.57-.2,1.39-.48,2.16-.26.7-.61,1.46-1.03,2-.48.62-1.24.97-2,.94-.93-.03-1.58-.26-1.94-.66-.43-.47-.73-1.24-.64-2.02.07-.62.84-1.16,1.07-1.85.22-.66.24-1.39.47-2.01.27-.74.15-1.48.22-2.02.06-.45.35-1.08.35-1.85,0-.58.27-1.23.26-1.89,0-.63-.43-1.27-.42-1.89.01-.67,0-1.33.07-1.9.08-.8.19-1.58.44-1.93.32-.46,1.13-.45,1.75-.44.6.02,1.28.12,1.65.5"/><path d="M132.03,99.38c.36.37.34,1.06.52,1.78.14.55.69,1.09.75,1.76.05.59-.15,1.24-.15,1.88,0,.62.09,1.26.05,1.88-.04.64-.03,1.28-.1,1.88-.08.66-.15,1.3-.25,1.87-.12.73-.45,1.32-.58,1.79-.15.57-.2,1.39-.48,2.16-.26.7-.61,1.46-1.03,2-.48.62-1.24.97-2,.94-.93-.03-1.58-.26-1.94-.66-.43-.47-.73-1.24-.64-2.02.07-.62.84-1.16,1.07-1.85.22-.66.24-1.39.47-2.01.27-.74.15-1.48.22-2.02.06-.45.35-1.08.35-1.85,0-.58.27-1.23.26-1.89,0-.63-.43-1.27-.42-1.89.01-.67,0-1.33.07-1.9.08-.8.19-1.58.44-1.93.32-.46,1.13-.45,1.75-.44.6.02,1.28.12,1.65.5"/><path d="M69.2,108.33c.23-.39,1.34-.28,2.3-.32.92-.03,1.67-.05,1.96.43.13.22.61.88.83,1.82.15.63.4,1.3.56,1.96.19.8.33,1.5.49,1.93.19.51.01,1.28.28,1.87.26.58.73,1.08.96,1.58.28.61.58,1.33,1,1.96.41.62.83,1.17.99,1.84.16.66.13,1.22-.3,1.97-.4.71-.7,1.02-1.09,1.17-.54.21-1.11.26-1.63-.17-.41-.33-.6-1-1.01-1.47-.33-.39-1.12-.67-1.54-1.35-.32-.51-.34-1.29-.68-1.91-.3-.56-.95-.99-1.24-1.6-.28-.59-.44-1.27-.69-1.89-.26-.62-.16-1.37-.37-1.99-.22-.66-.46-1.27-.61-1.88-.17-.7-.05-1.36-.08-1.95-.03-.78-.41-1.52-.13-2"/><path d="M69.2,108.33c.23-.39,1.34-.28,2.3-.32.92-.03,1.67-.05,1.96.43.13.22.61.88.83,1.82.15.63.4,1.3.56,1.96.19.8.33,1.5.49,1.93.19.51.01,1.28.28,1.87.26.58.73,1.08.96,1.58.28.61.58,1.33,1,1.96.41.62.83,1.17.99,1.84.16.66.13,1.22-.3,1.97-.4.71-.7,1.02-1.09,1.17-.54.21-1.11.26-1.63-.17-.41-.33-.6-1-1.01-1.47-.33-.39-1.12-.67-1.54-1.35-.32-.51-.34-1.29-.68-1.91-.3-.56-.95-.99-1.24-1.6-.28-.59-.44-1.27-.69-1.89-.26-.62-.16-1.37-.37-1.99-.22-.66-.46-1.27-.61-1.88-.17-.7-.05-1.36-.08-1.95-.03-.78-.41-1.52-.13-2"/><path d="M130.51,87.13c-.58.28-.7-.35-1.16.11-.36.36.07.21-.14.67-.69-.13-.88.28-1.36.32-.43.04-.64-.27-1.18-1-.28-.38-.57-1.07-.92-1.92-.27-.65-.66-1.31-.94-1.99-.31-.77-.57-1.53-.85-2.04-.22-.41-1.02-.7-1.46-1.33-.34-.49-.46-1.21-.82-1.76-.36-.54-.8-1.04-1.09-1.58-.33-.63-.42-1.28-.51-1.83-.12-.71-.24-1.46.29-1.88.6-.47,1.31-.31,1.87-.2.58.11,1.16.34,1.65.78.48.42.74,1.06,1.1,1.51.38.47.97.83,1.36,1.39.36.51.83.98,1.18,1.55.33.54.45,1.23.76,1.81.3.57.93,1,1.19,1.59.26.6-.1,1.44.1,2.04.2.64.39,1.22.49,1.83.11.67.47,1.32.44,1.94"/><path d="M130.51,87.13c-.58.28-.7-.35-1.16.11-.36.36.07.21-.14.67-.69-.13-.88.28-1.36.32-.43.04-.64-.27-1.18-1-.28-.38-.57-1.07-.92-1.92-.27-.65-.66-1.31-.94-1.99-.31-.77-.57-1.53-.85-2.04-.22-.41-1.02-.7-1.46-1.33-.34-.49-.46-1.21-.82-1.76-.36-.54-.8-1.04-1.09-1.58-.33-.63-.42-1.28-.51-1.83-.12-.71-.24-1.46.29-1.88.6-.47,1.31-.31,1.87-.2.58.11,1.16.34,1.65.78.48.42.74,1.06,1.1,1.51.38.47.97.83,1.36,1.39.36.51.83.98,1.18,1.55.33.54.45,1.23.76,1.81.3.57.93,1,1.19,1.59.26.6-.1,1.44.1,2.04.2.64.39,1.22.49,1.83.11.67.47,1.32.44,1.94"/><path d="M102.65,66.06c.34-.45,1.07-.79,1.76-.93.54-.11,1.23-.15,1.9-.12.58.03,1.13.68,1.76.8.6.12,1.33-.26,1.92-.08.6.18,1.2.43,1.75.65.61.25,1.25.43,1.75.7.64.36,1.05.94,1.38,1.29.43.47.93,1.07,1.01,1.67.08.61-.28,1.27-.86,1.73-.62.5-1.26.81-1.88.8-.64-.01-1.25-.44-1.88-.76-.59-.29-1.19-.63-1.77-.96-.61-.34-1.19-.88-1.8-1-.79-.16-1.65.36-2.39.31-.76-.06-1.41-.45-2.01-1.15-.31-.36-.49-.84-.59-1.35-.09-.52-.36-1.2-.05-1.61"/><path d="M102.65,66.06c.34-.45,1.07-.79,1.76-.93.54-.11,1.23-.15,1.9-.12.58.03,1.13.68,1.76.8.6.12,1.33-.26,1.92-.08.6.18,1.2.43,1.75.65.61.25,1.25.43,1.75.7.64.36,1.05.94,1.38,1.29.43.47.93,1.07,1.01,1.67.08.61-.28,1.27-.86,1.73-.62.5-1.26.81-1.88.8-.64-.01-1.25-.44-1.88-.76-.59-.29-1.19-.63-1.77-.96-.61-.34-1.19-.88-1.8-1-.79-.16-1.65.36-2.39.31-.76-.06-1.41-.45-2.01-1.15-.31-.36-.49-.84-.59-1.35-.09-.52-.36-1.2-.05-1.61"/><path d="M96.62,87.77c-.67.1-1.43-.25-2.03-.04-.63.22-.98.99-1.53,1.33-.57.34-1.35.36-1.83.8-.48.44-1.03.88-1.42,1.41-.38.52-.61,1.19-.9,1.78-.29.58-.54,1.2-.75,1.82-.2.61-.24,1.29-.37,1.94-.12.64.02,1.3-.03,1.96-.05.65-.05,1.27-.02,1.93.03.65.13,1.27.23,1.91.1.65.23,1.25.4,1.88.17.63.12,1.32.37,1.92.25.61.34,1.31.66,1.87.33.57.97.93,1.37,1.44.4.52.58,1.25,1.05,1.7.45.42,1.26.35,1.88.62.57.25,1.07.76,1.71.89.62.13,1.29-.04,1.93-.01.65.03,1.28-.04,1.9-.1.68-.07,1.32-.04,1.89-.2.53-.15,1.17-.18,1.74-.45.52-.25.96-.7,1.48-1.02.5-.31,1.19-.4,1.66-.76.48-.37.88-.87,1.3-1.26.46-.43,1.01-.79,1.36-1.22.41-.51.43-1.29.75-1.82.34-.56.65-1.1.89-1.67.25-.6.58-1.16.73-1.77.16-.63.48-1.24.54-1.87.06-.64-.48-1.28-.52-1.91-.04-.64.03-1.26-.11-1.88-.14-.62-.23-1.25-.46-1.84-.24-.59-.75-1.02-1.08-1.57-.32-.55-.62-1.07-1.02-1.56-.4-.49-.77-.98-1.25-1.41-.47-.42-.96-.79-1.5-1.14-.53-.34-1.08-.6-1.67-.86-.57-.26-1.05-.8-1.67-.97-.6-.17-1.28.01-1.93-.06-.62-.07-1.23.02-1.88.03-.62.01-1.22.07-1.86.17M90.83,116.53c-.44-.27-.67-1.18-1.26-1.8-.45-.47-1.33-.65-1.8-1.22-.44-.54-.51-1.4-.92-1.97-.43-.6-.72-1.26-1.06-1.81-.45-.73-.92-1.27-1.09-1.76-.12-.33-.29-.94-.48-1.73-.13-.53-.4-1.1-.54-1.72-.13-.58-.48-1.14-.59-1.73-.12-.63-.25-1.25-.34-1.78-.14-.83-.26-1.55-.24-1.85.01-.2.62-.2.67-.43.08-.4.14-1.03-.01-1.76-.14-.66-.39-1.25-.2-1.74.5.88.47.86.94,1.77.01-.67.16-1.2.26-1.8.11-.64-.21-1.38,0-1.98.2-.6.78-1.06,1.07-1.64.27-.55.38-1.22.72-1.79.35-.56.69-1.14,1.08-1.64.41-.52.95-.92,1.41-1.37.46-.46,1.09-.73,1.6-1.12.52-.4.95-.91,1.51-1.23.56-.33,1.28-.33,1.87-.58.6-.26,1.14-.58,1.76-.76.62-.18,1.26-.16,1.9-.27.64-.1,1.23-.59,1.88-.62.65-.03,1.31.02,1.95.07.65.05,1.27.27,1.91.4.63.13,1.19.5,1.81.7.61.2,1.42-.07,2.01.21.58.27,1.09.74,1.65,1.09.54.34,1.02.81,1.53,1.22.5.4,1.17.65,1.63,1.13.44.46.84,1.01,1.24,1.54.38.51.7,1.11,1.03,1.68.33.57.65,1.16.91,1.75.27.6.56,1.21.76,1.82.2.62.03,1.35.17,1.98.13.64.53,1.24.6,1.89.06.65.21,1.32.2,1.97,0,.65-.66,1.26-.74,1.91-.08.65.18,1.34.03,1.98-.15.63-.61,1.17-.83,1.79-.22.61-.26,1.29-.54,1.88-.28.59-.69,1.1-1.02,1.66-.34.56-.51,1.22-.9,1.75-.39.52-.74,1.1-1.18,1.58-.44.48-1.2.63-1.69,1.06-.49.43-.67,1.26-1.2,1.64-.53.38-1.11.74-1.68,1.06-.56.32-1.16.65-1.76.92-.58.25-1.38.06-2.07.24-.63.17-1.25.51-1.93.61-.66.1-1.35-.02-2.03,0-.67.03-1.36.29-2.03.26-.68-.04-1.39-.05-2.04-.16-.69-.12-1.26-.65-1.88-.85-.67-.22-1.49-.1-2.04-.43"/><path d="M124.39,99.62c.33.33.91.7,1,1.46.07.55.15,1.21.14,1.86-.01.6-.24,1.23-.31,1.84-.07.64-.44,1.22-.54,1.78-.12.74.06,1.44-.04,1.86-.16.61-.53,1.15-.77,1.73-.24.58-.15,1.34-.46,1.89-.31.55-.75,1.05-1.11,1.57-.36.51-.87.93-1.28,1.41-.41.48-.83.95-1.28,1.4-.45.45-1.04.73-1.52,1.14-.48.42-1.05.69-1.55,1.08-.5.39-.7,1.18-1.22,1.54-.52.36-1.13.6-1.66.94-.54.34-1.19.49-1.72.8-.32.18-.83.67-1.55,1.05-.51.27-1.1.55-1.67.84-.58.3-1.27.35-1.79.6-.78.37-1.32.9-1.61.96-.81.16-1.77.15-2.42-.27-.65-.42-.87-1.26-1.05-2.07.19-.74-.08-.92.38-1.54.5-.3,1.37-.24,1.93-.56.52-.29,1.01-.69,1.57-1,.53-.29,1.16-.43,1.72-.74.53-.3.97-.8,1.51-1.11.53-.31,1.14-.51,1.68-.84.53-.32.9-.91,1.41-1.26.52-.35.97-.78,1.46-1.15.51-.37.95-.79,1.42-1.19.48-.41.93-.81,1.36-1.24.45-.45.83-.91,1.2-1.38.39-.5,1.19-.71,1.49-1.24.31-.55.56-1.17.76-1.75.19-.55.08-1.29.17-2,.08-.63.22-1.29.27-1.95.06-.68-.04-1.37.03-1.98.09-.77.52-1.32.74-1.79.04-.1,1.11-1.65,1.21-1.67.25-.05,1.92.78,2.11.96"/><path d="M96.68,79.38c-.72.65-1.42.74-1.96.88-.56.14-1.07.35-1.91.7-.58.24-1.11.57-1.71.91-.55.31-1.12.61-1.67,1-.53.37-1.08.7-1.61,1.13-.5.41-1.18.64-1.67,1.1-.48.45-.69,1.17-1.14,1.65-.46.48-1.15.74-1.57,1.24-.43.51-.78,1.08-1.16,1.61-.4.54-.85,1.04-1.19,1.59-.37.58-.84,1.08-1.13,1.65-.31.62-.16,1.4-.37,1.99-.16.46-.35,1.01-.48,1.66-.12.56-.31,1.15-.48,1.71-.18.6-.64,1.04-.96,1.46-.36.47-.73.85-1.39.86-.62.01-1.12-.58-1.63-1.21-.49-.61-.77-1.22-.73-1.83.03-.61.18-1.2.35-1.87.15-.6-.14-1.37.11-2,.23-.59.86-1.02,1.16-1.62.28-.57.53-1.16.87-1.73.32-.55.34-1.32.71-1.86.36-.53.97-.91,1.37-1.43.39-.52.91-.93,1.33-1.44.42-.5.7-1.12,1.14-1.6.44-.48,1.13-.71,1.6-1.17.47-.46.69-1.17,1.17-1.6.49-.44.93-.95,1.43-1.35.52-.41,1.02-.86,1.55-1.22.55-.38,1.27-.47,1.82-.79.58-.33,1.26-.41,1.84-.66.62-.28,1.17-.6,1.76-.77.66-.19,1.27-.2,1.89-.24.66-.05,1.43-.48,1.99-.24.68.29,1.33.96,1.47,1.52.13.51-.11,1.38-.77,1.98"/><path d="M124.97,94.09c-.4.18-.28-.03-.69.1-.34.11-.08.18-.44.25-.57.11-.56-.53-1.08-.28-.44.21.26.68-.06,1.05-.27.32-.5.11-.9,0-.44-.52-.89-.96-1.17-1.57-.28-.6-.28-1.32-.5-1.96-.22-.64-.61-1.21-.86-1.83-.25-.62-.66-1.13-1.05-1.68-.31-.44-.59-.99-1.07-1.46-.41-.4-.68-1.04-1.18-1.45-.46-.38-1.2-.44-1.7-.8-.5-.36-1.04-.64-1.56-.97-.53-.34-.89-.94-1.41-1.23-.56-.32-1.04-.78-1.56-1.03-.61-.29-1.26-.43-1.77-.6-.39-.13-1.2-.42-2.12-.58-.7-.12-1.55.3-2.23.19-1.09-.18-1.96-.53-2.08-.63-.08-.07-.68-1.93-.69-2.04-.05-.86-.07-1.57.44-1.96.49-.37,1.3-.12,2.08-.19.65-.06,1.32-.19,2.03-.11.71.08,1.48-.18,2.12-.04.81.18,1.4.79,1.89.95.61.2,1.36.06,1.97.32.6.25,1.23.48,1.81.78.58.29,1.14.66,1.7,1,.56.34.81,1.13,1.34,1.51.53.38,1.32.42,1.82.83.5.42,1.1.75,1.57,1.21.47.46.88,1,1.3,1.49.42.5.82,1.04,1.19,1.58.37.54.54,1.21.86,1.78.32.57.65,1.14.89,1.74.25.6.13,1.31.3,1.94.17.62.64,1.17.73,1.83.09.64.07,1.22.08,1.88"/><path d="M96.99,126.43c-.48.37-1.2.36-1.89.37-.59,0-1.23-.08-1.88-.25-.6-.15-1.28-.2-1.88-.43-.61-.24-1.08-.79-1.62-1.06-.65-.33-1.2-.69-1.64-.94-.55-.32-1-.8-1.56-1.23-.51-.39-1.19-.62-1.7-1.08-.49-.44-.95-.93-1.42-1.42-.46-.48-1-.9-1.44-1.42-.43-.51-.77-1.11-1.17-1.65-.41-.54-1.08-.9-1.45-1.45-.38-.57-.26-1.44-.59-2.01-.35-.6-.95-1.03-1.23-1.62-.3-.64-.43-1.31-.64-1.91-.15-.42-.51-1.03-.71-1.78-.15-.59-.16-1.27-.26-1.91-.11-.67-.37-1.33-.34-1.91.04-.78.29-1.5.74-1.82.08-.06,1.8.38,1.91.43.38.15.87.4,1.12,1.12.17.5.27,1.1.41,1.7.13.58.51,1.11.62,1.65.15.68-.05,1.36.09,1.76.22.58.81,1.02,1.12,1.62.29.56.43,1.21.79,1.77.35.53.64,1.12,1.04,1.64.39.51.8,1.02,1.23,1.51.44.48.71,1.14,1.18,1.59.47.45.97.91,1.47,1.31.51.42,1.35.39,1.88.75.55.37.93.99,1.49,1.29.59.31,1.29.35,1.88.56.69.24,1.4.62,2.13.76.8.16,1.54.24,2.06.7.46.42.56,1.01.54,2.01,0,.35-.01,1.17-.26,1.35"/><path d="M73.68,79.64c.5-.14,1.39-.07,2.02.31.63.38,1.28,1.07,1.43,1.56.14.48-.25,1.21-.59,1.92-.25.52-.85.93-1.21,1.49-.35.54-.66,1.12-.99,1.63-.4.61-.41,1.35-.61,1.82-.27.62-.54,1.36-.79,2.15-.24.78-.71,1.49-.87,2.15-.12.5.17,1.22.08,1.94-.08.61-.48,1.23-.6,1.85-.13.67-.31,1.3-.57,1.82-.31.62-.81.8-1.43.95-.86.21-1.2.14-1.61-.26-.42-.41-.72-.88-.84-1.63-.1-.63-.29-1.31-.26-1.98.02-.74-.18-1.48-.13-2.02.05-.46.4-1.12.6-1.9.15-.56.26-1.22.48-1.89.19-.59.84-1.05,1.08-1.68.23-.6.15-1.33.4-1.93.26-.61.85-1.05,1.13-1.62.3-.61.45-1.26.76-1.78.37-.61.87-1.02,1.24-1.47.51-.61.79-1.29,1.28-1.42"/><path d="M91.38,66.63c.58-.09,1.24-.07,1.78,0,.62.08,1.38.28,1.73.7.31.37-.07,1.07-.15,1.8-.06.63-.16,1.08-.67,1.47-.44.33-.97.64-1.57.86-.57.2-1.18.36-1.74.52-.66.18-1.16.63-1.61.82-.54.22-1.09.43-1.64.7-.55.27-1.23.28-1.73.58-.31.18-.76.63-1.34,1.09-.42.33-1,.57-1.46.94-.47.38-.68,1.07-1.09,1.39-.69.55-1.49.44-1.65.49-.59.18-1.06.45-1.57.27-.54-.19-1.19-.39-1.53-.85-.32-.44-.37-1.12-.41-1.71.06-.4.74-.72,1.39-1.35.42-.41.73-1.06,1.29-1.5.5-.4.84-1.06,1.39-1.45.55-.39,1.24-.58,1.78-.93.6-.39,1.28-.56,1.79-.87.74-.44,1.26-.96,1.64-1.12.41-.17.98-.63,1.69-.88.58-.2,1.25-.34,1.84-.51.73-.22,1.43-.41,1.85-.48"/><path d="M123.31,121.32c.38.33.41.95.58,1.48.17.53.6,1.11.31,1.59-.15.25-.72.75-1.4,1.29-.44.35-1.11.54-1.63.92-.52.37-.9.95-1.38,1.27-.69.46-1.35.72-1.65.86-.33.16-1,.59-1.92.92-.6.21-1.32.35-2.03.58-.66.22-1.45.13-2.12.34-.72.23-1.37.58-1.98.75-.99.28-1.76.86-2.05.84-.53-.03-1.23-.83-1.64-1.49-.4-.64-.61-1.51-.33-2.05.17-.34.79-.71,1.54-1.08.49-.24,1.21-.15,1.84-.4.55-.22,1.11-.5,1.7-.71.59-.21,1.19-.39,1.76-.59.62-.22,1.2-.47,1.73-.67.71-.26,1.23-.73,1.62-.93.54-.28.92-.94,1.49-1.41.53-.43,1.45-.39,1.99-.78.61-.44,1.08-.85,1.67-.99.65-.15,1.28-.28,1.89.26"/><path d="M80.56,126.44c.25-.4.85-.69,1.39-.95.53-.26,1.09-.4,1.58-.3.31.06,1.09.43,1.96.98.59.38,1.16.94,1.78,1.33.74.46,1.41,1,1.89,1.2.45.18,1.1-.09,1.6.07.49.16,1,.25,1.47.39.58.17,1.21.4,1.89.49.68.1,1.3.41,1.86.7.57.29,1.1.66,1.3,1.42.23.85.32,1.63.05,2.09-.31.54-1.09.92-1.85,1.06-.59.1-1.33.11-2.05.04-.65-.06-1.33-.23-1.99-.37-.68-.14-1.23-.73-1.83-.9-.78-.23-1.42-.44-1.87-.61-.41-.16-.99-.36-1.63-.67-.5-.24-1.17-.26-1.71-.57-.51-.29-.82-.92-1.31-1.26-.51-.36-1.27-.39-1.66-.78-.47-.47-.44-1.18-.63-1.68-.22-.57-.58-1.11-.23-1.67"/><path d="M132.03,99.38c.36.37.34,1.06.52,1.78.14.55.69,1.09.75,1.76.05.59-.15,1.24-.15,1.88,0,.62.09,1.26.05,1.88-.04.64-.03,1.28-.1,1.88-.08.66-.15,1.3-.25,1.87-.12.73-.45,1.32-.58,1.79-.15.57-.2,1.39-.48,2.16-.26.7-.61,1.46-1.03,2-.48.62-1.24.97-2,.94-.93-.03-1.58-.26-1.94-.66-.43-.47-.73-1.24-.64-2.02.07-.62.84-1.16,1.07-1.85.22-.66.24-1.39.47-2.01.27-.74.15-1.48.22-2.02.06-.45.35-1.08.35-1.85,0-.58.27-1.23.26-1.89,0-.63-.43-1.27-.42-1.89.01-.67,0-1.33.07-1.9.08-.8.19-1.58.44-1.93.32-.46,1.13-.45,1.75-.44.6.02,1.28.12,1.65.5"/><path d="M69.2,108.33c.23-.39,1.34-.28,2.3-.32.92-.03,1.67-.05,1.96.43.13.22.61.88.83,1.82.15.63.4,1.3.56,1.96.19.8.33,1.5.49,1.93.19.51.01,1.28.28,1.87.26.58.73,1.08.96,1.58.28.61.58,1.33,1,1.96.41.62.83,1.17.99,1.84.16.66.13,1.22-.3,1.97-.4.71-.7,1.02-1.09,1.17-.54.21-1.11.26-1.63-.17-.41-.33-.6-1-1.01-1.47-.33-.39-1.12-.67-1.54-1.35-.32-.51-.34-1.29-.68-1.91-.3-.56-.95-.99-1.24-1.6-.28-.59-.44-1.27-.69-1.89-.26-.62-.16-1.37-.37-1.99-.22-.66-.46-1.27-.61-1.88-.17-.7-.05-1.36-.08-1.95-.03-.78-.41-1.52-.13-2"/><path d="M130.51,87.13c-.58.28-.7-.35-1.16.11-.36.36.07.21-.14.67-.69-.13-.88.28-1.36.32-.43.04-.64-.27-1.18-1-.28-.38-.57-1.07-.92-1.92-.27-.65-.66-1.31-.94-1.99-.31-.77-.57-1.53-.85-2.04-.22-.41-1.02-.7-1.46-1.33-.34-.49-.46-1.21-.82-1.76-.36-.54-.8-1.04-1.09-1.58-.33-.63-.42-1.28-.51-1.83-.12-.71-.24-1.46.29-1.88.6-.47,1.31-.31,1.87-.2.58.11,1.16.34,1.65.78.48.42.74,1.06,1.1,1.51.38.47.97.83,1.36,1.39.36.51.83.98,1.18,1.55.33.54.45,1.23.76,1.81.3.57.93,1,1.19,1.59.26.6-.1,1.44.1,2.04.2.64.39,1.22.49,1.83.11.67.47,1.32.44,1.94"/><path d="M102.65,66.06c.34-.45,1.07-.79,1.76-.93.54-.11,1.23-.15,1.9-.12.58.03,1.13.68,1.76.8.6.12,1.33-.26,1.92-.08.6.18,1.2.43,1.75.65.61.25,1.25.43,1.75.7.64.36,1.05.94,1.38,1.29.43.47.93,1.07,1.01,1.67.08.61-.28,1.27-.86,1.73-.62.5-1.26.81-1.88.8-.64-.01-1.25-.44-1.88-.76-.59-.29-1.19-.63-1.77-.96-.61-.34-1.19-.88-1.8-1-.79-.16-1.65.36-2.39.31-.76-.06-1.41-.45-2.01-1.15-.31-.36-.49-.84-.59-1.35-.09-.52-.36-1.2-.05-1.61"/></svg>