<?xml version="1.0" encoding="UTF-8"?><svg id="Layer_1" xmlns="http://www.w3.org/2000/svg" viewBox="0 0 200 200"><path d="M124.32,67.63c.34.55.41,1.16.1,1.69-.31.52-.86,1.04-1.39,1.2-.32.1-.9.15-1.55.17-.47.02-1.01-.09-1.54-.09-.52,0-1.04-.21-1.53-.23-.62-.02-1.16.14-1.53.13-.32,0-.81-.05-1.25-.11-.49-.08-.84-.16-.98.27-.09.72-.02.72-.07,1.45-.05.72-.22.71-.27,1.44-.05.73.26.75.21,1.47-.05.73-.06.73-.11,1.45-.05.73-.31.71-.36,1.43-.05.73.04.73,0,1.46-.05.73.14.74.09,1.47-.05.73-.18.72-.21,1.45,0,.5-.16.99-.16,1.49,0,.5-.22.99-.23,1.49,0,.5,0,.99-.01,1.49-.01.5.32,1,.31,1.5-.02.5-.31.98-.33,1.48-.02.5.03,1,.01,1.49-.02.5-.06.99-.07,1.49-.01.5-.08,1-.09,1.5-.01.5.24,1.01.22,1.51-.01.5-.06,1-.08,1.5-.01.5-.28.99-.29,1.49-.01.5.37,1.01.36,1.51-.01.5-.22.99-.23,1.49s-.15,1-.17,1.5c-.01.5-.13,1-.14,1.5-.01.5-.01,1-.02,1.5s.15,1,.14,1.51c-.01.5-.12,1-.13,1.5-.01.5-.15,1-.16,1.5-.01.5-.03,1-.04,1.5-.01.5,0,1-.01,1.5-.01.5.36,1.01.35,1.51-.01.5.08,1,.08,1.5,0,.5-.29,1-.3,1.5,0,.5-.09,1-.1,1.5,0,.5.18,1.01.17,1.51,0,.5-.33,1-.34,1.5,0,.5.15,1,.14,1.5,0,.5-.02,1-.03,1.5,0,.5-.24,1-.24,1.49,0,.47.04.95.04,1.45,0,.47.18.95.2,1.45.01.48-.19.97-.17,1.45.02.48.21.96.23,1.44.02.48-.08.97-.06,1.45.02.48.43.96.44,1.44.01.49-.16.98-.16,1.46,0,.49-.04.97-.05,1.45,0,.49.25.98.23,1.46-.02.49-.08.98-.11,1.45-.03.5-.42.94-.48,1.41-.06.5-.26.82-.53,1.15-.31.38-.57.64-1.02.68-.41.03-.72-.15-1.15-.5-.29-.23-.47-.6-.59-1.24-.08-.46-.18-.97-.21-1.5-.03-.52.14-1.04.14-1.53,0-.62,0-1.17.01-1.53,0-.5-.02-1-.01-1.51,0-.5-.09-1-.08-1.51,0-.5.16-1,.16-1.5,0-.5-.09-1-.08-1.51,0-.5-.19-1.01-.18-1.51,0-.5.2-1,.2-1.5,0-.5-.29-1.01-.28-1.51,0-.5.3-1,.31-1.5,0-.5-.17-1.01-.16-1.51,0-.5.3-1,.3-1.5,0-.5-.23-1.01-.22-1.51,0-.5-.14-1.01-.14-1.51,0-.5-.05-1-.04-1.51,0-.5.12-1,.13-1.5,0-.5.04-1,.04-1.5,0-.5-.06-1-.05-1.51,0-.5.38-1,.39-1.5.01-.5-.13-1.01-.12-1.51.01-.5-.2-1.01-.19-1.51.01-.5,0-1,0-1.51s.21-1,.22-1.5c.01-.5.12-1,.13-1.5.01-.5.08-1,.09-1.5.01-.5.12-1,.13-1.5.01-.5.04-1,.06-1.5.01-.5-.38-1.02-.37-1.52.02-.5.14-1,.16-1.5.02-.5-.08-1.01-.06-1.51.02-.5.04-1,.05-1.5.02-.5.17-1,.19-1.5s.12-1,.14-1.5c.02-.5.02-1,.04-1.5.02-.5-.1-1.01-.07-1.51.02-.5.05-1,.07-1.5.02-.5.23-.99.25-1.5.02-.5-.09-1.01-.06-1.51.02-.5.27-.99.29-1.49.02-.5-.24-1.02-.21-1.52.03-.5-.02-1.01.01-1.51.03-.5.17-1,.19-1.5.03-.5.37-.98.4-1.48.03-.5-.36-1.03-.33-1.53.03-.5.38-.98.42-1.48.03-.5.17-1,.2-1.5.03-.5-.13-1.01-.09-1.52.03-.5.06-1,.1-1.5.04-.5.01-1.01.05-1.52.15-.49.56-.74.95-.96.37-.21.8-.19,1.29-.24.44-.04.89-.34,1.36-.31.47.03.91.39,1.34.43.52.06,1.01-.06,1.38-.05.35,0,.84.19,1.4.17.43-.02.9-.45,1.38-.45.47,0,.95.18,1.4.21.5.03.92.31,1.33.41.56.13.96.16,1.16.48"/><path d="M124.32,67.63c.34.55.41,1.16.1,1.69-.31.52-.86,1.04-1.39,1.2-.32.1-.9.15-1.55.17-.47.02-1.01-.09-1.54-.09-.52,0-1.04-.21-1.53-.23-.62-.02-1.16.14-1.53.13-.32,0-.81-.05-1.25-.11-.49-.08-.84-.16-.98.27-.09.72-.02.72-.07,1.45-.05.72-.22.71-.27,1.44-.05.73.26.75.21,1.47-.05.73-.06.73-.11,1.45-.05.73-.31.71-.36,1.43-.05.73.04.73,0,1.46-.05.73.14.74.09,1.47-.05.73-.18.72-.21,1.45,0,.5-.16.99-.16,1.49,0,.5-.22.99-.23,1.49,0,.5,0,.99-.01,1.49-.01.5.32,1,.31,1.5-.02.5-.31.98-.33,1.48-.02.5.03,1,.01,1.49-.02.5-.06.99-.07,1.49-.01.5-.08,1-.09,1.5-.01.5.24,1.01.22,1.51-.01.5-.06,1-.08,1.5-.01.5-.28.99-.29,1.49-.01.5.37,1.01.36,1.51-.01.5-.22.99-.23,1.49s-.15,1-.17,1.5c-.01.5-.13,1-.14,1.5-.01.5-.01,1-.02,1.5s.15,1,.14,1.51c-.01.5-.12,1-.13,1.5-.01.5-.15,1-.16,1.5-.01.5-.03,1-.04,1.5-.01.5,0,1-.01,1.5-.01.5.36,1.01.35,1.51-.01.5.08,1,.08,1.5,0,.5-.29,1-.3,1.5,0,.5-.09,1-.1,1.5,0,.5.18,1.01.17,1.51,0,.5-.33,1-.34,1.5,0,.5.15,1,.14,1.5,0,.5-.02,1-.03,1.5,0,.5-.24,1-.24,1.49,0,.47.04.95.04,1.45,0,.47.18.95.2,1.45.01.48-.19.97-.17,1.45.02.48.21.96.23,1.44.02.48-.08.97-.06,1.45.02.48.43.96.44,1.44.01.49-.16.98-.16,1.46,0,.49-.04.97-.05,1.45,0,.49.25.98.23,1.46-.02.49-.08.98-.11,1.45-.03.5-.42.94-.48,1.41-.06.5-.26.82-.53,1.15-.31.38-.57.64-1.02.68-.41.03-.72-.15-1.15-.5-.29-.23-.47-.6-.59-1.24-.08-.46-.18-.97-.21-1.5-.03-.52.14-1.04.14-1.53,0-.62,0-1.17.01-1.53,0-.5-.02-1-.01-1.51,0-.5-.09-1-.08-1.51,0-.5.16-1,.16-1.5,0-.5-.09-1-.08-1.51,0-.5-.19-1.01-.18-1.51,0-.5.2-1,.2-1.5,0-.5-.29-1.01-.28-1.51,0-.5.3-1,.31-1.5,0-.5-.17-1.01-.16-1.51,0-.5.3-1,.3-1.5,0-.5-.23-1.01-.22-1.51,0-.5-.14-1.01-.14-1.51,0-.5-.05-1-.04-1.51,0-.5.12-1,.13-1.5,0-.5.04-1,.04-1.5,0-.5-.06-1-.05-1.51,0-.5.38-1,.39-1.5.01-.5-.13-1.01-.12-1.51.01-.5-.2-1.01-.19-1.51.01-.5,0-1,0-1.51s.21-1,.22-1.5c.01-.5.12-1,.13-1.5.01-.5.08-1,.09-1.5.01-.5.12-1,.13-1.5.01-.5.04-1,.06-1.5.01-.5-.38-1.02-.37-1.52.02-.5.14-1,.16-1.5.02-.5-.08-1.01-.06-1.51.02-.5.04-1,.05-1.5.02-.5.17-1,.19-1.5s.12-1,.14-1.5c.02-.5.02-1,.04-1.5.02-.5-.1-1.01-.07-1.51.02-.5.05-1,.07-1.5.02-.5.23-.99.25-1.5.02-.5-.09-1.01-.06-1.51.02-.5.27-.99.29-1.49.02-.5-.24-1.02-.21-1.52.03-.5-.02-1.01.01-1.51.03-.5.17-1,.19-1.5.03-.5.37-.98.4-1.48.03-.5-.36-1.03-.33-1.53.03-.5.38-.98.42-1.48.03-.5.17-1,.2-1.5.03-.5-.13-1.01-.09-1.52.03-.5.06-1,.1-1.5.04-.5.01-1.01.05-1.52.15-.49.56-.74.95-.96.37-.21.8-.19,1.29-.24.44-.04.89-.34,1.36-.31.47.03.91.39,1.34.43.52.06,1.01-.06,1.38-.05.35,0,.84.19,1.4.17.43-.02.9-.45,1.38-.45.47,0,.95.18,1.4.21.5.03.92.31,1.33.41.56.13.96.16,1.16.48"/><path d="M92.16,68.05c.27.34.59,1.34.67,1.82.09.5.17,1,.25,1.5.07.5.06,1.02.13,1.52.06.5-.04,1.02.02,1.53.05.5-.07,1.02-.03,1.53.04.5.15,1,.18,1.51.03.5.14,1,.16,1.51.02.51.3,1,.32,1.51.02.51-.37,1.02-.36,1.53,0,.51.34,1.01.35,1.52,0,.51.01,1.01.01,1.52,0,.51-.26,1.01-.27,1.52,0,.51.02,1.01,0,1.52-.01.51.27,1.02.26,1.53-.01.51-.06,1.01-.08,1.52-.02.51-.17,1.01-.19,1.52-.02.51-.13,1.01-.15,1.52-.02.51.08,1.02.06,1.53-.02.51-.33,1-.35,1.51-.02.51.03,1.02,0,1.52-.02.51.04,1.02.02,1.52-.02.51-.04,1.02-.06,1.52-.02.51-.14,1.01-.16,1.52-.02.51.1,1.02.08,1.52-.02.51.07,1.02.06,1.52-.01.5-.02,1.01-.03,1.51-.01.5-.11,1-.12,1.51,0,.5,0,1.01,0,1.51,0,.5.06,1.01.05,1.51,0,.5-.04,1.01-.04,1.51,0,.5.03,1.01.03,1.51,0,.5.07,1.01.07,1.51,0,.5-.2,1.01-.21,1.51,0,.5.2,1.01.19,1.51,0,.5.04,1.01.03,1.51,0,.5-.3,1-.3,1.51,0,.5-.05,1.01-.05,1.51,0,.5.01,1.01,0,1.51,0,.5.16,1.01.15,1.51-.01.5-.25,1-.26,1.5-.01.5-.15,1-.17,1.5-.02.5.1,1.01.07,1.51-.02.5.13,1.01.11,1.52-.02.5-.35.99-.38,1.49-.03.5.18,1.02.14,1.52-.03.5-.03,1.01-.07,1.51-.04.5-.08,1-.12,1.51-.04.5-.29.98-.34,1.48-.05.5.25,1.04.19,1.54-.06.5-.33.97-.39,1.47-.12.53-.37.93-.68,1.23-.38.36-.86.76-1.3.72-.44-.04-.67-.59-.94-1.09-.19-.34-.45-.71-.46-1.3-.01-.49-.09-1.01-.06-1.53.03-.5.26-.99.31-1.51.05-.5.06-1.01.13-1.53.07-.5.29-.99.36-1.5.07-.51-.15-1.06-.08-1.56.06-.51.43-.99.48-1.49.05-.52-.12-1.06-.1-1.55.02-.49-.2-.99-.18-1.47.02-.49.41-.96.43-1.45.02-.49.04-.98.06-1.47.01-.49-.12-.98-.1-1.47.01-.49.14-.98.15-1.47,0-.49-.39-.99-.38-1.47,0-.49.43-.97.44-1.46,0-.49-.2-.98-.2-1.47,0-.49-.02-.98-.01-1.47,0-.49.06-.98.07-1.47,0-.49-.16-.98-.16-1.47,0-.49.34-.98.34-1.47,0-.49-.1-.98-.09-1.47,0-.49-.27-.98-.27-1.47,0-.49.15-.98.16-1.47,0-.49-.05-.98-.04-1.47,0-.49.31-.98.31-1.47,0-.49-.19-.98-.19-1.47,0-.49-.22-.98-.22-1.47,0-.49.4-.98.41-1.46,0-.49-.05-.98-.04-1.47,0-.49.08-.98.09-1.46.01-.48-.21-.98-.2-1.47.02-.48-.11-.98-.09-1.46.02-.49.51-.95.54-1.44.02-.49-.35-.99-.32-1.48.03-.49.28-.96.31-1.45.02-.49.05-.98.07-1.46.02-.49.22-.97.24-1.46.02-.49-.43-.99-.42-1.47.01-.49.26-.97.26-1.45,0-.5.05-1.01.05-1.51,0-.5.14-1.01.13-1.51,0-.5-.15-1-.16-1.5-.01-.5-.06-1-.08-1.51-.02-.5.17-1.02.14-1.52-.03-.5-.37-.98-.41-1.48-.04-.5-.05-1-.1-1.5-.05-.5-.22-.98-.28-1.48-.06-.5.06-1.02,0-1.52-.07-.5-.39-.95-.48-1.45-.08-.49.16-1.17.06-1.66-.47-.04-1.1.3-1.57.26-.47-.04-.92-.4-1.39-.43-.47-.03-.96.19-1.43.17-.47-.02-.93-.4-1.4-.42-.47-.02-.95-.02-1.42-.03-.47-.01-.95-.05-1.42-.05-.42,0-1,.1-1.59.18-.53.07-1.06.51-1.55.48-.58-.04-1.28-.22-1.57-.65-.42-.61-.45-1.42-.25-1.93.2-.52.88-.76,1.54-.99.41-.15.81-.5,1.29-.56.45-.06.92-.19,1.39-.2.46-.01.93.13,1.39.14.47.02.94.11,1.38.13.49.02.95-.18,1.38-.19.39,0,.87.08,1.42.06.44-.02.92-.13,1.42-.14.47-.01.95.44,1.42.45.49.01.94.05,1.4.11.5.06,1.06-.23,1.47-.08.5.18.89.54,1.15.88"/><path d="M92.16,68.05c.27.34.59,1.34.67,1.82.09.5.17,1,.25,1.5.07.5.06,1.02.13,1.52.06.5-.04,1.02.02,1.53.05.5-.07,1.02-.03,1.53.04.5.15,1,.18,1.51.03.5.14,1,.16,1.51.02.51.3,1,.32,1.51.02.51-.37,1.02-.36,1.53,0,.51.34,1.01.35,1.52,0,.51.01,1.01.01,1.52,0,.51-.26,1.01-.27,1.52,0,.51.02,1.01,0,1.52-.01.51.27,1.02.26,1.53-.01.51-.06,1.01-.08,1.52-.02.51-.17,1.01-.19,1.52-.02.51-.13,1.01-.15,1.52-.02.51.08,1.02.06,1.53-.02.51-.33,1-.35,1.51-.02.51.03,1.02,0,1.52-.02.51.04,1.02.02,1.52-.02.51-.04,1.02-.06,1.52-.02.51-.14,1.01-.16,1.52-.02.51.1,1.02.08,1.52-.02.51.07,1.02.06,1.52-.01.5-.02,1.01-.03,1.51-.01.5-.11,1-.12,1.51,0,.5,0,1.01,0,1.51,0,.5.06,1.01.05,1.51,0,.5-.04,1.01-.04,1.51,0,.5.03,1.01.03,1.51,0,.5.07,1.01.07,1.51,0,.5-.2,1.01-.21,1.51,0,.5.2,1.01.19,1.51,0,.5.04,1.01.03,1.51,0,.5-.3,1-.3,1.51,0,.5-.05,1.01-.05,1.51,0,.5.01,1.01,0,1.51,0,.5.16,1.01.15,1.51-.01.5-.25,1-.26,1.5-.01.5-.15,1-.17,1.5-.02.5.1,1.01.07,1.51-.02.5.13,1.01.11,1.52-.02.5-.35.99-.38,1.49-.03.5.18,1.02.14,1.52-.03.5-.03,1.01-.07,1.51-.04.5-.08,1-.12,1.51-.04.5-.29.98-.34,1.48-.05.5.25,1.04.19,1.54-.06.5-.33.97-.39,1.47-.12.53-.37.93-.68,1.23-.38.36-.86.76-1.3.72-.44-.04-.67-.59-.94-1.09-.19-.34-.45-.71-.46-1.3-.01-.49-.09-1.01-.06-1.53.03-.5.26-.99.31-1.51.05-.5.06-1.01.13-1.53.07-.5.29-.99.36-1.5.07-.51-.15-1.06-.08-1.56.06-.51.43-.99.48-1.49.05-.52-.12-1.06-.1-1.55.02-.49-.2-.99-.18-1.47.02-.49.41-.96.43-1.45.02-.49.04-.98.06-1.47.01-.49-.12-.98-.1-1.47.01-.49.14-.98.15-1.47,0-.49-.39-.99-.38-1.47,0-.49.43-.97.44-1.46,0-.49-.2-.98-.2-1.47,0-.49-.02-.98-.01-1.47,0-.49.06-.98.07-1.47,0-.49-.16-.98-.16-1.47,0-.49.34-.98.34-1.47,0-.49-.1-.98-.09-1.47,0-.49-.27-.98-.27-1.47,0-.49.15-.98.16-1.47,0-.49-.05-.98-.04-1.47,0-.49.31-.98.31-1.47,0-.49-.19-.98-.19-1.47,0-.49-.22-.98-.22-1.47,0-.49.4-.98.41-1.46,0-.49-.05-.98-.04-1.47,0-.49.08-.98.09-1.46.01-.48-.21-.98-.2-1.47.02-.48-.11-.98-.09-1.46.02-.49.51-.95.54-1.44.02-.49-.35-.99-.32-1.48.03-.49.28-.96.31-1.45.02-.49.05-.98.07-1.46.02-.49.22-.97.24-1.46.02-.49-.43-.99-.42-1.47.01-.49.26-.97.26-1.45,0-.5.05-1.01.05-1.51,0-.5.14-1.01.13-1.51,0-.5-.15-1-.16-1.5-.01-.5-.06-1-.08-1.51-.02-.5.17-1.02.14-1.52-.03-.5-.37-.98-.41-1.48-.04-.5-.05-1-.1-1.5-.05-.5-.22-.98-.28-1.48-.06-.5.06-1.02,0-1.52-.07-.5-.39-.95-.48-1.45-.08-.49.16-1.17.06-1.66-.47-.04-1.1.3-1.57.26-.47-.04-.92-.4-1.39-.43-.47-.03-.96.19-1.43.17-.47-.02-.93-.4-1.4-.42-.47-.02-.95-.02-1.42-.03-.47-.01-.95-.05-1.42-.05-.42,0-1,.1-1.59.18-.53.07-1.06.51-1.55.48-.58-.04-1.28-.22-1.57-.65-.42-.61-.45-1.42-.25-1.93.2-.52.88-.76,1.54-.99.41-.15.81-.5,1.29-.56.45-.06.92-.19,1.39-.2.46-.01.93.13,1.39.14.47.02.94.11,1.38.13.49.02.95-.18,1.38-.19.39,0,.87.08,1.42.06.44-.02.92-.13,1.42-.14.47-.01.95.44,1.42.45.49.01.94.05,1.4.11.5.06,1.06-.23,1.47-.08.5.18.89.54,1.15.88"/><path d="M88.44,54.12c.06.03.96.89.99,1.06.08.51-.29,1.06-.33,1.59-.04.53.31,1.1.25,1.62-.07.54-.26,1.04-.26,1.54,0,.41.09.96.18,1.57.08.53-.07,1.11-.11,1.61-.04.59-.17,1.02-.63,1.31-.56.35-1.03.77-1.42.67-.45-.11-.51-.82-.77-1.34-.19-.4-.79-.73-.9-1.27-.09-.46-.06-1-.1-1.51-.04-.5.21-1.02.2-1.51,0-.53-.27-1.05-.25-1.5.02-.64.02-1.19.06-1.5.05-.45.28-1,.53-1.42.26-.44.79-.6,1.21-.8.41-.19.85-.38,1.37-.13"/><path d="M88.44,54.12c.06.03.96.89.99,1.06.08.51-.29,1.06-.33,1.59-.04.53.31,1.1.25,1.62-.07.54-.26,1.04-.26,1.54,0,.41.09.96.18,1.57.08.53-.07,1.11-.11,1.61-.04.59-.17,1.02-.63,1.31-.56.35-1.03.77-1.42.67-.45-.11-.51-.82-.77-1.34-.19-.4-.79-.73-.9-1.27-.09-.46-.06-1-.1-1.51-.04-.5.21-1.02.2-1.51,0-.53-.27-1.05-.25-1.5.02-.64.02-1.19.06-1.5.05-.45.28-1,.53-1.42.26-.44.79-.6,1.21-.8.41-.19.85-.38,1.37-.13"/><path d="M124.32,67.63c.34.55.41,1.16.1,1.69-.31.52-.86,1.04-1.39,1.2-.32.1-.9.15-1.55.17-.47.02-1.01-.09-1.54-.09-.52,0-1.04-.21-1.53-.23-.62-.02-1.16.14-1.53.13-.32,0-.81-.05-1.25-.11-.49-.08-.84-.16-.98.27-.09.72-.02.72-.07,1.45-.05.72-.22.71-.27,1.44-.05.73.26.75.21,1.47-.05.73-.06.73-.11,1.45-.05.73-.31.71-.36,1.43-.05.73.04.73,0,1.46-.05.73.14.74.09,1.47-.05.73-.18.72-.21,1.45,0,.5-.16.99-.16,1.49,0,.5-.22.99-.23,1.49,0,.5,0,.99-.01,1.49-.01.5.32,1,.31,1.5-.02.5-.31.98-.33,1.48-.02.5.03,1,.01,1.49-.02.5-.06.99-.07,1.49-.01.5-.08,1-.09,1.5-.01.5.24,1.01.22,1.51-.01.5-.06,1-.08,1.5-.01.5-.28.99-.29,1.49-.01.5.37,1.01.36,1.51-.01.5-.22.99-.23,1.49s-.15,1-.17,1.5c-.01.5-.13,1-.14,1.5-.01.5-.01,1-.02,1.5s.15,1,.14,1.51c-.01.5-.12,1-.13,1.5-.01.5-.15,1-.16,1.5-.01.5-.03,1-.04,1.5-.01.5,0,1-.01,1.5-.01.5.36,1.01.35,1.51-.01.5.08,1,.08,1.5,0,.5-.29,1-.3,1.5,0,.5-.09,1-.1,1.5,0,.5.18,1.01.17,1.51,0,.5-.33,1-.34,1.5,0,.5.15,1,.14,1.5,0,.5-.02,1-.03,1.5,0,.5-.24,1-.24,1.49,0,.47.04.95.04,1.45,0,.47.18.95.2,1.45.01.48-.19.97-.17,1.45.02.48.21.96.23,1.44.02.48-.08.97-.06,1.45.02.48.43.96.44,1.44.01.49-.16.98-.16,1.46,0,.49-.04.97-.05,1.45,0,.49.25.98.23,1.46-.02.49-.08.98-.11,1.45-.03.5-.42.94-.48,1.41-.06.5-.26.82-.53,1.15-.31.38-.57.64-1.02.68-.41.03-.72-.15-1.15-.5-.29-.23-.47-.6-.59-1.24-.08-.46-.18-.97-.21-1.5-.03-.52.14-1.04.14-1.53,0-.62,0-1.17.01-1.53,0-.5-.02-1-.01-1.51,0-.5-.09-1-.08-1.51,0-.5.16-1,.16-1.5,0-.5-.09-1-.08-1.51,0-.5-.19-1.01-.18-1.51,0-.5.2-1,.2-1.5,0-.5-.29-1.01-.28-1.51,0-.5.3-1,.31-1.5,0-.5-.17-1.01-.16-1.51,0-.5.3-1,.3-1.5,0-.5-.23-1.01-.22-1.51,0-.5-.14-1.01-.14-1.51,0-.5-.05-1-.04-1.51,0-.5.12-1,.13-1.5,0-.5.04-1,.04-1.5,0-.5-.06-1-.05-1.51,0-.5.38-1,.39-1.5.01-.5-.13-1.01-.12-1.51.01-.5-.2-1.01-.19-1.51.01-.5,0-1,0-1.51s.21-1,.22-1.5c.01-.5.12-1,.13-1.5.01-.5.08-1,.09-1.5.01-.5.12-1,.13-1.5.01-.5.04-1,.06-1.5.01-.5-.38-1.02-.37-1.52.02-.5.14-1,.16-1.5.02-.5-.08-1.01-.06-1.51.02-.5.04-1,.05-1.5.02-.5.17-1,.19-1.5s.12-1,.14-1.5c.02-.5.02-1,.04-1.5.02-.5-.1-1.01-.07-1.51.02-.5.05-1,.07-1.5.02-.5.23-.99.25-1.5.02-.5-.09-1.01-.06-1.51.02-.5.27-.99.29-1.49.02-.5-.24-1.02-.21-1.52.03-.5-.02-1.01.01-1.51.03-.5.17-1,.19-1.5.03-.5.37-.98.4-1.48.03-.5-.36-1.03-.33-1.53.03-.5.38-.98.42-1.48.03-.5.17-1,.2-1.5.03-.5-.13-1.01-.09-1.52.03-.5.06-1,.1-1.5.04-.5.01-1.01.05-1.52.15-.49.56-.74.95-.96.37-.21.8-.19,1.29-.24.44-.04.89-.34,1.36-.31.47.03.91.39,1.34.43.52.06,1.01-.06,1.38-.05.35,0,.84.19,1.4.17.43-.02.9-.45,1.38-.45.47,0,.95.18,1.4.21.5.03.92.31,1.33.41.56.13.96.16,1.16.48"/><path d="M92.16,68.05c.27.34.59,1.34.67,1.82.09.5.17,1,.25,1.5.07.5.06,1.02.13,1.52.06.5-.04,1.02.02,1.53.05.5-.07,1.02-.03,1.53.04.5.15,1,.18,1.51.03.5.14,1,.16,1.51.02.51.3,1,.32,1.51.02.51-.37,1.02-.36,1.53,0,.51.34,1.01.35,1.52,0,.51.01,1.01.01,1.52,0,.51-.26,1.01-.27,1.52,0,.51.02,1.01,0,1.52-.01.51.27,1.02.26,1.53-.01.51-.06,1.01-.08,1.52-.02.51-.17,1.01-.19,1.52-.02.51-.13,1.01-.15,1.52-.02.51.08,1.02.06,1.53-.02.51-.33,1-.35,1.51-.02.51.03,1.02,0,1.52-.02.51.04,1.02.02,1.52-.02.51-.04,1.02-.06,1.52-.02.51-.14,1.01-.16,1.52-.02.51.1,1.02.08,1.52-.02.51.07,1.02.06,1.52-.01.5-.02,1.01-.03,1.51-.01.5-.11,1-.12,1.51,0,.5,0,1.01,0,1.51,0,.5.06,1.01.05,1.51,0,.5-.04,1.01-.04,1.51,0,.5.03,1.01.03,1.51,0,.5.07,1.01.07,1.51,0,.5-.2,1.01-.21,1.51,0,.5.2,1.01.19,1.51,0,.5.04,1.01.03,1.51,0,.5-.3,1-.3,1.51,0,.5-.05,1.01-.05,1.51,0,.5.01,1.01,0,1.51,0,.5.16,1.01.15,1.51-.01.5-.25,1-.26,1.5-.01.5-.15,1-.17,1.5-.02.5.1,1.01.07,1.51-.02.5.13,1.01.11,1.52-.02.5-.35.99-.38,1.49-.03.5.18,1.02.14,1.52-.03.5-.03,1.01-.07,1.51-.04.5-.08,1-.12,1.51-.04.5-.29.98-.34,1.48-.05.5.25,1.04.19,1.54-.06.5-.33.97-.39,1.47-.12.53-.37.93-.68,1.23-.38.36-.86.76-1.3.72-.44-.04-.67-.59-.94-1.09-.19-.34-.45-.71-.46-1.3-.01-.49-.09-1.01-.06-1.53.03-.5.26-.99.31-1.51.05-.5.06-1.01.13-1.53.07-.5.29-.99.36-1.5.07-.51-.15-1.06-.08-1.56.06-.51.43-.99.48-1.49.05-.52-.12-1.06-.1-1.55.02-.49-.2-.99-.18-1.47.02-.49.41-.96.43-1.45.02-.49.04-.98.06-1.47.01-.49-.12-.98-.1-1.47.01-.49.14-.98.15-1.47,0-.49-.39-.99-.38-1.47,0-.49.43-.97.44-1.46,0-.49-.2-.98-.2-1.47,0-.49-.02-.98-.01-1.47,0-.49.06-.98.07-1.47,0-.49-.16-.98-.16-1.47,0-.49.34-.98.34-1.47,0-.49-.1-.98-.09-1.47,0-.49-.27-.98-.27-1.47,0-.49.15-.98.16-1.47,0-.49-.05-.98-.04-1.47,0-.49.31-.98.31-1.47,0-.49-.19-.98-.19-1.47,0-.49-.22-.98-.22-1.47,0-.49.4-.98.41-1.46,0-.49-.05-.98-.04-1.47,0-.49.08-.98.09-1.46.01-.48-.21-.98-.2-1.47.02-.48-.11-.98-.09-1.46.02-.49.51-.95.54-1.44.02-.49-.35-.99-.32-1.48.03-.49.28-.96.31-1.45.02-.49.05-.98.07-1.46.02-.49.22-.97.24-1.46.02-.49-.43-.99-.42-1.47.01-.49.26-.97.26-1.45,0-.5.05-1.01.05-1.51,0-.5.14-1.01.13-1.51,0-.5-.15-1-.16-1.5-.01-.5-.06-1-.08-1.51-.02-.5.17-1.02.14-1.52-.03-.5-.37-.98-.41-1.48-.04-.5-.05-1-.1-1.5-.05-.5-.22-.98-.28-1.48-.06-.5.06-1.02,0-1.52-.07-.5-.39-.95-.48-1.45-.08-.49.16-1.17.06-1.66-.47-.04-1.1.3-1.57.26-.47-.04-.92-.4-1.39-.43-.47-.03-.96.19-1.43.17-.47-.02-.93-.4-1.4-.42-.47-.02-.95-.02-1.42-.03-.47-.01-.95-.05-1.42-.05-.42,0-1,.1-1.59.18-.53.07-1.06.51-1.55.48-.58-.04-1.28-.22-1.57-.65-.42-.61-.45-1.42-.25-1.93.2-.52.88-.76,1.54-.99.41-.15.81-.5,1.29-.56.45-.06.92-.19,1.39-.2.46-.01.93.13,1.39.14.47.02.94.11,1.38.13.49.02.95-.18,1.38-.19.39,0,.87.08,1.42.06.44-.02.92-.13,1.42-.14.47-.01.95.44,1.42.45.49.01.94.05,1.4.11.5.06,1.06-.23,1.47-.08.5.18.89.54,1.15.88"/><path d="M88.44,54.12c.06.03.96.89.99,1.06.08.51-.29,1.06-.33,1.59-.04.53.31,1.1.25,1.62-.07.54-.26,1.04-.26,1.54,0,.41.09.96.18,1.57.08.53-.07,1.11-.11,1.61-.04.59-.17,1.02-.63,1.31-.56.35-1.03.77-1.42.67-.45-.11-.51-.82-.77-1.34-.19-.4-.79-.73-.9-1.27-.09-.46-.06-1-.1-1.51-.04-.5.21-1.02.2-1.51,0-.53-.27-1.05-.25-1.5.02-.64.02-1.19.06-1.5.05-.45.28-1,.53-1.42.26-.44.79-.6,1.21-.8.41-.19.85-.38,1.37-.13"/></svg>