<?xml version="1.0" encoding="UTF-8"?><svg id="Layer_1" xmlns="http://www.w3.org/2000/svg" viewBox="0 0 200 200"><path d="M98.48,128.91c.34-.17.66-.65,1.12-.68.48-.03.73.33.99.71.18.26.53.69.63,1.43.06.49-.14,1.06-.11,1.65.03.54.08,1.09.08,1.63,0,.58.09,1.14.05,1.64-.06.74-.24,1.25-.38,1.52-.18.37-.45.61-.93.68-.42.06-.85,0-1.24-.2-.39-.19-.9-.41-1.01-.88-.07-.26-.13-.87-.15-1.58-.01-.47.04-1.01.06-1.55.01-.51-.06-1.06-.02-1.57.04-.55.15-1.09.21-1.55.1-.73.54-1.05.72-1.24"/><path d="M112.53,123.02c.69-.11,1.45.17,1.84.67.08.1,0,.85.34,1.52.21.4.47.84.7,1.3.23.46.44.92.64,1.33.34.69.57,1.19.6,1.3.18.68.15,1.09-.16,1.46-.35.41-.84.66-1.43.63-.53-.03-1.13-.19-1.53-.62-.15-.16-.46-.6-.74-1.19-.18-.37-.47-.77-.66-1.22-.18-.42-.02-1-.18-1.42-.18-.46-.7-.78-.83-1.18-.21-.63.12-1.17.15-1.38.07-.55.74-1.12,1.26-1.2"/><path d="M137.71,98.59c-.08.05-.61.3-1.39.32-.45,0-.96.15-1.48.15-.51,0-1.02-.51-1.47-.52-.73-.02-1.26,0-1.42-.05-.33-.08-.69-.32-1.06-.72-.37-.4-.68-.7-.58-1.09.14-.52.27-1.09.74-1.31.4-.19.98-.27,1.52-.33.48-.05,1.01-.11,1.51-.11.52,0,1.03.47,1.5.47.58,0,1.13-.49,1.51-.59.58.23.85.9,1.14,1.29.29.4.57.76.3,1.44-.05.12-.78,1.01-.84,1.04"/><path d="M68.49,98.46c.56.45.81.94.62,1.48-.18.52-.67.98-1.26,1.22-.32.13-.83.17-1.4.28-.44.08-.91.24-1.4.28-.48.03-.98.05-1.44,0-.52-.05-.99-.19-1.38-.37-.47-.22-.8-.55-.88-1.04-.1-.63.16-1.15.66-1.49.42-.28,1.03-.34,1.63-.47.55-.12,1.11-.41,1.66-.45.68-.05,1.3.31,1.7.32.54.02,1.03-.12,1.48.24"/><path d="M112.09,75.53c-.25-.3-.06-.86.09-1.49.11-.45.01-1.04.22-1.53.2-.47.69-.83.91-1.25.29-.56.59-1.01.76-1.3.1-.17.22-.78.6-1.36.26-.4.76-.7,1.03-1.09.42-.62.64-1.22.72-1.28.37-.27,1.48-.4,1.88-.15.61.38.86.81.93,1.27.06.5.14,1.15-.16,1.69-.26.46-.63.95-.97,1.39-.37.49-.84.84-1.08,1.24-.22.37-.72.69-.94,1.17-.21.44-.24.98-.48,1.4-.25.46-.59.81-.91,1.12-.37.37-.71.58-1.22.56-.39-.02-.89-.03-1.4-.39"/><path d="M112.09,75.53c-.25-.3-.06-.86.09-1.49.11-.45.01-1.04.22-1.53.2-.47.69-.83.91-1.25.29-.56.59-1.01.76-1.3.1-.17.22-.78.6-1.36.26-.4.76-.7,1.03-1.09.42-.62.64-1.22.72-1.28.37-.27,1.48-.4,1.88-.15.61.38.86.81.93,1.27.06.5.14,1.15-.16,1.69-.26.46-.63.95-.97,1.39-.37.49-.84.84-1.08,1.24-.22.37-.72.69-.94,1.17-.21.44-.24.98-.48,1.4-.25.46-.59.81-.91,1.12-.37.37-.71.58-1.22.56-.39-.02-.89-.03-1.4-.39"/><path d="M68.69,117.62c-.43-.98-.17-1.06-.39-2.11.04-.22.44-.45,1.07-.85.38-.24.69-.73,1.16-.98.44-.23.95-.36,1.4-.57.48-.23,1.03-.25,1.45-.43.66-.27,1.14-.45,1.37-.47.61-.05,1.04.15,1.45.46.47.36.96.74.92,1.29-.03.47-.3,1.07-.87,1.48-.08.06-.8.08-1.54.42-.43.2-.83.62-1.32.84-.49.22-1.05.29-1.48.48-.75.33-1.29.69-1.38.71-.62.12-1.29.05-1.84-.28"/><path d="M68.69,117.62c-.43-.98-.17-1.06-.39-2.11.04-.22.44-.45,1.07-.85.38-.24.69-.73,1.16-.98.44-.23.95-.36,1.4-.57.48-.23,1.03-.25,1.45-.43.66-.27,1.14-.45,1.37-.47.61-.05,1.04.15,1.45.46.47.36.96.74.92,1.29-.03.47-.3,1.07-.87,1.48-.08.06-.8.08-1.54.42-.43.2-.83.62-1.32.84-.49.22-1.05.29-1.48.48-.75.33-1.29.69-1.38.71-.62.12-1.29.05-1.84-.28"/><path d="M87.75,121.81c.41.33.33.76.32,1.2,0,.43,0,.87-.18,1.28-.06.14-.62.65-1.11,1.39-.32.48-.36,1.22-.68,1.69-.5.73-.9,1.39-1.01,1.5-.36.38-.68.62-1.25.68-.43.05-1.16-.17-1.65-.54-.52-.38-.95-1.07-.91-1.5.01-.13.37-.63.76-1.24.22-.35.42-.81.7-1.22.26-.38.56-.77.83-1.14.29-.41.57-.81.83-1.14.43-.57.89-.88,1.03-.96.33-.19.75-.37,1.17-.37.42,0,.86.15,1.16.4"/><path d="M87.75,121.81c.41.33.33.76.32,1.2,0,.43,0,.87-.18,1.28-.06.14-.62.65-1.11,1.39-.32.48-.36,1.22-.68,1.69-.5.73-.9,1.39-1.01,1.5-.36.38-.68.62-1.25.68-.43.05-1.16-.17-1.65-.54-.52-.38-.95-1.07-.91-1.5.01-.13.37-.63.76-1.24.22-.35.42-.81.7-1.22.26-.38.56-.77.83-1.14.29-.41.57-.81.83-1.14.43-.57.89-.88,1.03-.96.33-.19.75-.37,1.17-.37.42,0,.86.15,1.16.4"/><path d="M100.92,71.49c-.52.34-1.1.51-1.63.23-.53-.28-.93-.85-1.01-1.43-.04-.27-.21-.84-.21-1.54,0-.48.22-1.01.23-1.54.01-.53.03-1.07.06-1.54.04-.69-.18-1.32-.12-1.58.18-.73.69-1.25,1.09-1.45.51-.25,1.28-.13,1.76.24.42.32.44.99.53,1.6.04.29.44.76.46,1.36.01.43-.39.92-.38,1.41,0,.48.5.98.48,1.41-.02.6-.52,1.06-.57,1.35-.05.32-.5,1.37-.69,1.5"/><path d="M100.92,71.49c-.52.34-1.1.51-1.63.23-.53-.28-.93-.85-1.01-1.43-.04-.27-.21-.84-.21-1.54,0-.48.22-1.01.23-1.54.01-.53.03-1.07.06-1.54.04-.69-.18-1.32-.12-1.58.18-.73.69-1.25,1.09-1.45.51-.25,1.28-.13,1.76.24.42.32.44.99.53,1.6.04.29.44.76.46,1.36.01.43-.39.92-.38,1.41,0,.48.5.98.48,1.41-.02.6-.52,1.06-.57,1.35-.05.32-.5,1.37-.69,1.5"/><path d="M86.84,79.67c-.16.16-1.04.5-1.26.41-.16-.07-.76-.15-1.21-.72-.26-.33-.37-.86-.67-1.28-.27-.37-.34-.9-.62-1.3-.27-.4-.95-.52-1.2-.9-.28-.43-.18-1.07-.39-1.43-.36-.61-.97-.94-1.01-1.13-.11-.63.35-1.16.75-1.5.39-.33.9-.48,1.52-.29.14.04.35.58.83,1.21.27.36.93.51,1.24.96.29.41.58.84.86,1.25.3.45.29,1.08.53,1.46.4.63.67,1.09.73,1.27.2.61.38,1.49-.12,1.98"/><path d="M86.84,79.67c-.16.16-1.04.5-1.26.41-.16-.07-.76-.15-1.21-.72-.26-.33-.37-.86-.67-1.28-.27-.37-.34-.9-.62-1.3-.27-.4-.95-.52-1.2-.9-.28-.43-.18-1.07-.39-1.43-.36-.61-.97-.94-1.01-1.13-.11-.63.35-1.16.75-1.5.39-.33.9-.48,1.52-.29.14.04.35.58.83,1.21.27.36.93.51,1.24.96.29.41.58.84.86,1.25.3.45.29,1.08.53,1.46.4.63.67,1.09.73,1.27.2.61.38,1.49-.12,1.98"/><path d="M127.82,79.93c.08.03,1.45,1.1,1.48,1.19.17.5-.35,1.1-.83,1.64-.37.42-.78.92-1.27,1.27-.58.42-1.2.71-1.54.91-.39.23-.76.73-1.27.99-.48.25-1.1.31-1.58.39-.55.09-1.23.14-1.65-.24-.57-.52-.63-1.22-.47-1.69.15-.45.75-.73,1.26-1.11.43-.33.86-.73,1.34-.99.59-.33,1.21-.49,1.54-.7.43-.27.78-.94,1.28-1.31.51-.38,1.09-.61,1.7-.36"/><path d="M127.82,79.93c.08.03,1.45,1.1,1.48,1.19.17.5-.35,1.1-.83,1.64-.37.42-.78.92-1.27,1.27-.58.42-1.2.71-1.54.91-.39.23-.76.73-1.27.99-.48.25-1.1.31-1.58.39-.55.09-1.23.14-1.65-.24-.57-.52-.63-1.22-.47-1.69.15-.45.75-.73,1.26-1.11.43-.33.86-.73,1.34-.99.59-.33,1.21-.49,1.54-.7.43-.27.78-.94,1.28-1.31.51-.38,1.09-.61,1.7-.36"/><path d="M122.35,112.98c-.45-.46-.69-.95-.64-1.38.05-.5.36-1.11.86-1.35.41-.2,1.01-.08,1.59.03.28.05.88.13,1.49.46.41.22.72.74,1.18,1.04.43.28,1,.38,1.41.68.44.34.92.63,1.24.96.49.5.68,1.11.62,1.45-.1.62-.33,1.04-.63,1.28-.37.29-.92.57-1.44.46-.44-.09-.85-.53-1.28-.77-.19-.1-.79-.47-1.5-.92-.48-.3-1.06-.55-1.54-.86-.75-.49-1.3-1-1.38-1.09"/><path d="M122.35,112.98c-.45-.46-.69-.95-.64-1.38.05-.5.36-1.11.86-1.35.41-.2,1.01-.08,1.59.03.28.05.88.13,1.49.46.41.22.72.74,1.18,1.04.43.28,1,.38,1.41.68.44.34.92.63,1.24.96.49.5.68,1.11.62,1.45-.1.62-.33,1.04-.63,1.28-.37.29-.92.57-1.44.46-.44-.09-.85-.53-1.28-.77-.19-.1-.79-.47-1.5-.92-.48-.3-1.06-.55-1.54-.86-.75-.49-1.3-1-1.38-1.09"/><path d="M77.34,89.56c-.18.11-.64-.12-1.12-.22-.45-.1-1.01.12-1.23.02-.11-.05-.51-.51-1.11-.92-.35-.24-.58-.76-.97-1.04-.4-.28-1.04-.22-1.38-.47-.6-.44-.8-1.04-.85-1.11-.34-.42-.67-.77-.69-1.2-.02-.52.18-1.04.59-1.29.34-.21.79-.07,1.38.13.16.05.54.37,1.12.79.35.25.81.43,1.22.74.37.29.87.45,1.24.74.4.32.54.91.87,1.19.56.48,1.31.62,1.35.76.18.61-.19,1.33-.42,1.9"/><path d="M77.34,89.56c-.18.11-.64-.12-1.12-.22-.45-.1-1.01.12-1.23.02-.11-.05-.51-.51-1.11-.92-.35-.24-.58-.76-.97-1.04-.4-.28-1.04-.22-1.38-.47-.6-.44-.8-1.04-.85-1.11-.34-.42-.67-.77-.69-1.2-.02-.52.18-1.04.59-1.29.34-.21.79-.07,1.38.13.16.05.54.37,1.12.79.35.25.81.43,1.22.74.37.29.87.45,1.24.74.4.32.54.91.87,1.19.56.48,1.31.62,1.35.76.18.61-.19,1.33-.42,1.9"/><path d="M112.09,75.53c-.25-.3-.06-.86.09-1.49.11-.45.01-1.04.22-1.53.2-.47.69-.83.91-1.25.29-.56.59-1.01.76-1.3.1-.17.22-.78.6-1.36.26-.4.76-.7,1.03-1.09.42-.62.64-1.22.72-1.28.37-.27,1.48-.4,1.88-.15.61.38.86.81.93,1.27.06.5.14,1.15-.16,1.69-.26.46-.63.95-.97,1.39-.37.49-.84.84-1.08,1.24-.22.37-.72.69-.94,1.17-.21.44-.24.98-.48,1.4-.25.46-.59.81-.91,1.12-.37.37-.71.58-1.22.56-.39-.02-.89-.03-1.4-.39"/><path d="M68.69,117.62c-.43-.98-.17-1.06-.39-2.11.04-.22.44-.45,1.07-.85.38-.24.69-.73,1.16-.98.44-.23.95-.36,1.4-.57.48-.23,1.03-.25,1.45-.43.66-.27,1.14-.45,1.37-.47.61-.05,1.04.15,1.45.46.47.36.96.74.92,1.29-.03.47-.3,1.07-.87,1.48-.08.06-.8.08-1.54.42-.43.2-.83.62-1.32.84-.49.22-1.05.29-1.48.48-.75.33-1.29.69-1.38.71-.62.12-1.29.05-1.84-.28"/><path d="M87.75,121.81c.41.33.33.76.32,1.2,0,.43,0,.87-.18,1.28-.06.14-.62.65-1.11,1.39-.32.48-.36,1.22-.68,1.69-.5.73-.9,1.39-1.01,1.5-.36.38-.68.62-1.25.68-.43.05-1.16-.17-1.65-.54-.52-.38-.95-1.07-.91-1.5.01-.13.37-.63.76-1.24.22-.35.42-.81.7-1.22.26-.38.56-.77.83-1.14.29-.41.57-.81.83-1.14.43-.57.89-.88,1.03-.96.33-.19.75-.37,1.17-.37.42,0,.86.15,1.16.4"/><path d="M100.92,71.49c-.52.34-1.1.51-1.63.23-.53-.28-.93-.85-1.01-1.43-.04-.27-.21-.84-.21-1.54,0-.48.22-1.01.23-1.54.01-.53.03-1.07.06-1.54.04-.69-.18-1.32-.12-1.58.18-.73.69-1.25,1.09-1.45.51-.25,1.28-.13,1.76.24.42.32.44.99.53,1.6.04.29.44.76.46,1.36.01.43-.39.92-.38,1.41,0,.48.5.98.48,1.41-.02.6-.52,1.06-.57,1.35-.05.32-.5,1.37-.69,1.5"/><path d="M86.84,79.67c-.16.16-1.04.5-1.26.41-.16-.07-.76-.15-1.21-.72-.26-.33-.37-.86-.67-1.28-.27-.37-.34-.9-.62-1.3-.27-.4-.95-.52-1.2-.9-.28-.43-.18-1.07-.39-1.43-.36-.61-.97-.94-1.01-1.13-.11-.63.35-1.16.75-1.5.39-.33.9-.48,1.52-.29.14.04.35.58.83,1.21.27.36.93.51,1.24.96.29.41.58.84.86,1.25.3.45.29,1.08.53,1.46.4.63.67,1.09.73,1.27.2.61.38,1.49-.12,1.98"/><path d="M127.82,79.93c.08.03,1.45,1.1,1.48,1.19.17.5-.35,1.1-.83,1.64-.37.42-.78.92-1.27,1.27-.58.42-1.2.71-1.54.91-.39.23-.76.73-1.27.99-.48.25-1.1.31-1.58.39-.55.09-1.23.14-1.65-.24-.57-.52-.63-1.22-.47-1.69.15-.45.75-.73,1.26-1.11.43-.33.86-.73,1.34-.99.59-.33,1.21-.49,1.54-.7.43-.27.78-.94,1.28-1.31.51-.38,1.09-.61,1.7-.36"/><path d="M122.35,112.98c-.45-.46-.69-.95-.64-1.38.05-.5.36-1.11.86-1.35.41-.2,1.01-.08,1.59.03.28.05.88.13,1.49.46.41.22.72.74,1.18,1.04.43.28,1,.38,1.41.68.44.34.92.63,1.24.96.49.5.68,1.11.62,1.45-.1.62-.33,1.04-.63,1.28-.37.29-.92.57-1.44.46-.44-.09-.85-.53-1.28-.77-.19-.1-.79-.47-1.5-.92-.48-.3-1.06-.55-1.54-.86-.75-.49-1.3-1-1.38-1.09"/><path d="M77.34,89.56c-.18.11-.64-.12-1.12-.22-.45-.1-1.01.12-1.23.02-.11-.05-.51-.51-1.11-.92-.35-.24-.58-.76-.97-1.04-.4-.28-1.04-.22-1.38-.47-.6-.44-.8-1.04-.85-1.11-.34-.42-.67-.77-.69-1.2-.02-.52.18-1.04.59-1.29.34-.21.79-.07,1.38.13.16.05.54.37,1.12.79.35.25.81.43,1.22.74.37.29.87.45,1.24.74.4.32.54.91.87,1.19.56.48,1.31.62,1.35.76.18.61-.19,1.33-.42,1.9"/></svg>