<?xml version="1.0" encoding="UTF-8"?><svg id="Layer_1" xmlns="http://www.w3.org/2000/svg" viewBox="0 0 200 200"><path d="M100.43,42.92c.39.33.72.88.9,1.5.2.69.44,1.23.72,1.48.22.2.49.74,1.06.98.41.17.89.31,1.37.48.46.17.97.23,1.39.39.54.2.98.45,1.3.6.46.22,1.08.16,1.53.43.44.26.61.95,1.04,1.24.42.29,1.12.22,1.52.54.4.32.54.96.92,1.3.38.35.67.76,1.03,1.13.36.37.69.74,1.03,1.13.33.39.69.75,1.01,1.16.31.41.75.72,1.04,1.15.29.43.81.71,1.08,1.15s.26,1.04.5,1.5c.24.46.41.94.62,1.41.22.47.3.99.48,1.46.19.48.34.96.5,1.45.16.49.69.88.81,1.37.12.5.09,1.04.18,1.55.09.51-.12,1.05-.07,1.56.05.52.17,1.01.17,1.52,0,.5.33.99.31,1.47-.02.49-.39.96-.44,1.44-.04.49.07.99,0,1.47-.07.49.09,1.02,0,1.49-.1.48-.29.95-.42,1.42-.12.48-.41.91-.56,1.37-.15.47-.09,1.02-.27,1.47-.18.46-.6.82-.8,1.26-.2.44-.56.81-.79,1.24-.23.43-.13,1.05-.38,1.47-.25.42-.65.75-.93,1.16-.27.4-.63.75-.93,1.14-.29.39-.75.64-1.06,1.02-.31.37-.57.79-.9,1.15-.33.36-.59.78-.94,1.13-.34.34-.77.6-1.13.94-.36.33-.53.87-.9,1.19-.37.32-1.01.3-1.4.61-.38.3-.73.64-1.12.93-.21.15-.65.46-1.19.8-.4.25-.63.85-1.02,1.1-.6.39-1.11.61-1.18.72-.18.3-.06.9-.08,1.61-.02.57-.13,1.21-.32,1.7-.18.46-.56.9-.95,1.29-.36.36-.74.79-1.2,1.07-.46.27-.99.47-1.48.63-.54.17-1.11.21-1.59.22-.41,0-.65-.44-.98-.62-.37-.2-.79-.11-1.15-.03-.12.03-.54.31-1.11.79-.33.28-.59.73-.96,1.06-.37.33-1,.37-1.32.66-.5.46-.82.91-.96,1.06-.32.34-.7.68-1.02,1.08-.3.37-.35.94-.65,1.35-.28.39-.67.71-.94,1.14-.26.41-.56.8-.82,1.23-.25.42-.52.83-.75,1.27-.23.43-.53.83-.75,1.27-.22.44-.35.93-.56,1.37-.21.45-.29.95-.49,1.4-.2.46-.58.83-.77,1.28-.19.46-.36.93-.52,1.38-.17.47-.43.91-.58,1.37-.16.48-.38.94-.51,1.39-.14.49-.19,1-.29,1.46-.11.5-.06,1.02-.15,1.49-.09.5-.08,1.01-.15,1.48-.08.5-.41.96-.46,1.44-.06.51-.13,1.01-.15,1.49-.03.51.29,1.01.29,1.5,0,.51-.36,1.02-.33,1.51.04.5.46.96.54,1.44.08.5.04,1.01.16,1.48.12.48.32.94.48,1.41.16.47.22.98.42,1.44.2.45.4.91.65,1.35.24.42.75.69,1.03,1.11.27.4.32.98.62,1.38.29.39.8.61,1.13,1,.31.37.42.94.77,1.31.33.35.9.49,1.26.85.34.34.47.93.84,1.28.35.33.87.51,1.25.85.23.21.69.66,1.23,1.13.41.36.91.68,1.33,1.01.6.48,1.09.91,1.32.99.08.03.66-.21,1.33-.44.45-.15.87-.1,1.32-.02.26.05.98.06,1.66.27.7.22,1.43.35,1.64.47.45.26.76.69,1,1.15.23.43.34.94.41,1.46.07.5.08,1.02.04,1.52-.04.54-.08,1.06-.22,1.51-.14.47-.39.88-.7,1.23-.31.35-.8.44-1.22.67-.41.22-.73.68-1.2.79-.46.1-.96.11-1.43.1-.47,0-.98-.02-1.43-.14-.46-.12-.91-.36-1.3-.61-.4-.25-.91-.49-1.18-.87-.26-.37-.27-.93-.38-1.42-.08-.4-.2-.89-.21-1.35,0-.51.16-1.05-.06-1.36-.14-.2-.74-.58-1.34-.96-.53-.34-1.13-.6-1.39-.82-.39-.33-.77-.67-1.15-1-.39-.34-.81-.63-1.17-.97-.38-.35-.7-.75-1.06-1.1-.37-.35-.87-.57-1.22-.92-.37-.36-.7-.75-1.04-1.11-.35-.38-.44-.97-.76-1.35-.34-.39-.92-.57-1.22-.96-.31-.41-.38-.98-.66-1.39-.29-.42-.53-.86-.78-1.29-.26-.44-.76-.74-.98-1.19-.22-.46-.38-.95-.57-1.41s-.31-.96-.46-1.45c-.15-.48,0-1.03-.11-1.53-.11-.49-.6-.91-.67-1.41-.07-.49-.06-1.01-.09-1.52-.03-.49-.06-1-.06-1.52,0-.49.25-.99.27-1.51.02-.49.13-.98.18-1.5.04-.49-.04-1,.03-1.51.06-.49,0-1.01.09-1.52.08-.49.26-.97.35-1.48.09-.49-.05-1.03.06-1.54.11-.48.3-.97.44-1.48.13-.48.65-.86.81-1.36.15-.48-.08-1.1.1-1.59.17-.48.6-.87.79-1.35.18-.47.27-.99.47-1.47.2-.47.53-.88.75-1.35.21-.47.54-.88.77-1.34.23-.46.45-.92.69-1.37.24-.46.3-1.01.56-1.45.26-.45.52-.89.79-1.32.28-.44.57-.87.85-1.29.3-.43.71-.76,1.02-1.16.32-.42.54-.9.87-1.27.26-.29.55-.73.96-1.1.34-.3.64-.72,1.02-1.05.37-.32.91-.45,1.27-.76.39-.34.94-.49,1.26-.79.44-.42.52-1.03.69-1.32.24-.42.26-.99.32-1.62.05-.59.09-1.24.31-1.72.18-.41.88-.65,1.39-1.1.43-.38.66-1.12,1.16-1.39.59-.32,1.29-.26,1.76-.21.4.04.54.48.84.78.29.3.79.55,1.27.37.35-.12.75-.65,1.33-1,.43-.27.86-.63,1.33-.95.46-.32.94-.61,1.36-.91.53-.39.96-.77,1.27-1.01.4-.31.97-.4,1.35-.72.39-.32.59-.85.96-1.18.37-.34.87-.55,1.22-.91.35-.36.49-.91.82-1.29.33-.38.73-.69,1.04-1.08.31-.4.54-.84.82-1.25.29-.41.95-.58,1.21-1.01.26-.43.54-.86.78-1.31.23-.44.06-1.09.26-1.55.2-.46.74-.78.92-1.25.17-.47.04-1.04.18-1.53.14-.48.43-.92.54-1.42.1-.49.07-1,.14-1.5.07-.49.38-.97.42-1.47.04-.49-.3-1.02-.29-1.52,0-.49.1-.98.06-1.49-.04-.49.17-1.03.08-1.52-.08-.48-.25-.97-.38-1.46-.12-.48-.2-.99-.36-1.46-.15-.47-.33-.95-.51-1.42-.18-.46-.35-.95-.56-1.4-.21-.45-.56-.85-.79-1.29s-.61-.8-.87-1.23c-.26-.43-.43-.92-.71-1.32-.29-.41-.6-.81-.91-1.19-.32-.39-.61-.81-.95-1.17-.34-.37-.7-.73-1.06-1.07-.37-.34-.73-.71-1.13-1.01-.41-.3-.8-.65-1.23-.9-.3-.18-.81-.39-1.38-.67-.42-.21-.88-.46-1.36-.69-.46-.21-1.07-.13-1.53-.33-.49-.22-.89-.61-1.32-.79-.6-.24-1.17-.22-1.5-.3-.57-.15-.87.05-1.25.34-.35.27-.76.42-1.31.48-.37.04-.76-.03-1.34-.28-.19-.08-1.83-.9-1.88-.99-.19-.34-.1-.95-.14-1.56-.03-.48-.11-1.01-.04-1.54.06-.53.42-.97.57-1.43.18-.57.17-1.16.48-1.44.36-.33.99-.38,1.61-.51.55-.12,1.1-.09,1.65-.04.64.06,1.2.06,1.58.38"/><path d="M100.43,42.92c.39.33.72.88.9,1.5.2.69.44,1.23.72,1.48.22.2.49.74,1.06.98.41.17.89.31,1.37.48.46.17.97.23,1.39.39.54.2.98.45,1.3.6.46.22,1.08.16,1.53.43.44.26.61.95,1.04,1.24.42.29,1.12.22,1.52.54.4.32.54.96.92,1.3.38.35.67.76,1.03,1.13.36.37.69.74,1.03,1.13.33.39.69.75,1.01,1.16.31.41.75.72,1.04,1.15.29.43.81.71,1.08,1.15s.26,1.04.5,1.5c.24.46.41.94.62,1.41.22.47.3.99.48,1.46.19.48.34.96.5,1.45.16.49.69.88.81,1.37.12.5.09,1.04.18,1.55.09.51-.12,1.05-.07,1.56.05.52.17,1.01.17,1.52,0,.5.33.99.31,1.47-.02.49-.39.96-.44,1.44-.04.49.07.99,0,1.47-.07.49.09,1.02,0,1.49-.1.48-.29.95-.42,1.42-.12.48-.41.91-.56,1.37-.15.47-.09,1.02-.27,1.47-.18.46-.6.82-.8,1.26-.2.44-.56.81-.79,1.24-.23.43-.13,1.05-.38,1.47-.25.42-.65.75-.93,1.16-.27.4-.63.75-.93,1.14-.29.39-.75.64-1.06,1.02-.31.37-.57.79-.9,1.15-.33.36-.59.78-.94,1.13-.34.34-.77.6-1.13.94-.36.33-.53.87-.9,1.19-.37.32-1.01.3-1.4.61-.38.3-.73.64-1.12.93-.21.15-.65.46-1.19.8-.4.25-.63.85-1.02,1.1-.6.39-1.11.61-1.18.72-.18.3-.06.9-.08,1.61-.02.57-.13,1.21-.32,1.7-.18.46-.56.9-.95,1.29-.36.36-.74.79-1.2,1.07-.46.27-.99.47-1.48.63-.54.17-1.11.21-1.59.22-.41,0-.65-.44-.98-.62-.37-.2-.79-.11-1.15-.03-.12.03-.54.31-1.11.79-.33.28-.59.73-.96,1.06-.37.33-1,.37-1.32.66-.5.46-.82.91-.96,1.06-.32.34-.7.68-1.02,1.08-.3.37-.35.94-.65,1.35-.28.39-.67.71-.94,1.14-.26.41-.56.8-.82,1.23-.25.42-.52.83-.75,1.27-.23.43-.53.83-.75,1.27-.22.44-.35.93-.56,1.37-.21.45-.29.95-.49,1.4-.2.46-.58.83-.77,1.28-.19.46-.36.93-.52,1.38-.17.47-.43.91-.58,1.37-.16.48-.38.94-.51,1.39-.14.49-.19,1-.29,1.46-.11.5-.06,1.02-.15,1.49-.09.5-.08,1.01-.15,1.48-.08.5-.41.96-.46,1.44-.06.51-.13,1.01-.15,1.49-.03.51.29,1.01.29,1.5,0,.51-.36,1.02-.33,1.51.04.5.46.96.54,1.44.08.5.04,1.01.16,1.48.12.48.32.94.48,1.41.16.47.22.98.42,1.44.2.45.4.91.65,1.35.24.42.75.69,1.03,1.11.27.4.32.98.62,1.38.29.39.8.61,1.13,1,.31.37.42.94.77,1.31.33.35.9.49,1.26.85.34.34.47.93.84,1.28.35.33.87.51,1.25.85.23.21.69.66,1.23,1.13.41.36.91.68,1.33,1.01.6.48,1.09.91,1.32.99.08.03.66-.21,1.33-.44.45-.15.87-.1,1.32-.02.26.05.98.06,1.66.27.7.22,1.43.35,1.64.47.45.26.76.69,1,1.15.23.43.34.94.41,1.46.07.5.08,1.02.04,1.52-.04.54-.08,1.06-.22,1.51-.14.47-.39.88-.7,1.23-.31.35-.8.44-1.22.67-.41.22-.73.68-1.2.79-.46.1-.96.11-1.43.1-.47,0-.98-.02-1.43-.14-.46-.12-.91-.36-1.3-.61-.4-.25-.91-.49-1.18-.87-.26-.37-.27-.93-.38-1.42-.08-.4-.2-.89-.21-1.35,0-.51.16-1.05-.06-1.36-.14-.2-.74-.58-1.34-.96-.53-.34-1.13-.6-1.39-.82-.39-.33-.77-.67-1.15-1-.39-.34-.81-.63-1.17-.97-.38-.35-.7-.75-1.06-1.1-.37-.35-.87-.57-1.22-.92-.37-.36-.7-.75-1.04-1.11-.35-.38-.44-.97-.76-1.35-.34-.39-.92-.57-1.22-.96-.31-.41-.38-.98-.66-1.39-.29-.42-.53-.86-.78-1.29-.26-.44-.76-.74-.98-1.19-.22-.46-.38-.95-.57-1.41s-.31-.96-.46-1.45c-.15-.48,0-1.03-.11-1.53-.11-.49-.6-.91-.67-1.41-.07-.49-.06-1.01-.09-1.52-.03-.49-.06-1-.06-1.52,0-.49.25-.99.27-1.51.02-.49.13-.98.18-1.5.04-.49-.04-1,.03-1.51.06-.49,0-1.01.09-1.52.08-.49.26-.97.35-1.48.09-.49-.05-1.03.06-1.54.11-.48.3-.97.44-1.48.13-.48.65-.86.81-1.36.15-.48-.08-1.1.1-1.59.17-.48.6-.87.79-1.35.18-.47.27-.99.47-1.47.2-.47.53-.88.75-1.35.21-.47.54-.88.77-1.34.23-.46.45-.92.69-1.37.24-.46.3-1.01.56-1.45.26-.45.52-.89.79-1.32.28-.44.57-.87.85-1.29.3-.43.71-.76,1.02-1.16.32-.42.54-.9.87-1.27.26-.29.55-.73.96-1.1.34-.3.64-.72,1.02-1.05.37-.32.91-.45,1.27-.76.39-.34.94-.49,1.26-.79.44-.42.52-1.03.69-1.32.24-.42.26-.99.32-1.62.05-.59.09-1.24.31-1.72.18-.41.88-.65,1.39-1.1.43-.38.66-1.12,1.16-1.39.59-.32,1.29-.26,1.76-.21.4.04.54.48.84.78.29.3.79.55,1.27.37.35-.12.75-.65,1.33-1,.43-.27.86-.63,1.33-.95.46-.32.94-.61,1.36-.91.53-.39.96-.77,1.27-1.01.4-.31.97-.4,1.35-.72.39-.32.59-.85.96-1.18.37-.34.87-.55,1.22-.91.35-.36.49-.91.82-1.29.33-.38.73-.69,1.04-1.08.31-.4.54-.84.82-1.25.29-.41.95-.58,1.21-1.01.26-.43.54-.86.78-1.31.23-.44.06-1.09.26-1.55.2-.46.74-.78.92-1.25.17-.47.04-1.04.18-1.53.14-.48.43-.92.54-1.42.1-.49.07-1,.14-1.5.07-.49.38-.97.42-1.47.04-.49-.3-1.02-.29-1.52,0-.49.1-.98.06-1.49-.04-.49.17-1.03.08-1.52-.08-.48-.25-.97-.38-1.46-.12-.48-.2-.99-.36-1.46-.15-.47-.33-.95-.51-1.42-.18-.46-.35-.95-.56-1.4-.21-.45-.56-.85-.79-1.29s-.61-.8-.87-1.23c-.26-.43-.43-.92-.71-1.32-.29-.41-.6-.81-.91-1.19-.32-.39-.61-.81-.95-1.17-.34-.37-.7-.73-1.06-1.07-.37-.34-.73-.71-1.13-1.01-.41-.3-.8-.65-1.23-.9-.3-.18-.81-.39-1.38-.67-.42-.21-.88-.46-1.36-.69-.46-.21-1.07-.13-1.53-.33-.49-.22-.89-.61-1.32-.79-.6-.24-1.17-.22-1.5-.3-.57-.15-.87.05-1.25.34-.35.27-.76.42-1.31.48-.37.04-.76-.03-1.34-.28-.19-.08-1.83-.9-1.88-.99-.19-.34-.1-.95-.14-1.56-.03-.48-.11-1.01-.04-1.54.06-.53.42-.97.57-1.43.18-.57.17-1.16.48-1.44.36-.33.99-.38,1.61-.51.55-.12,1.1-.09,1.65-.04.64.06,1.2.06,1.58.38"/><path d="M100.87,123.4c-.55.28-.92.55-1.3.61-.63.1-.96-.07-1.25-.43-.27-.33-.3-.76-.37-1.34-.05-.45-.26-.93-.24-1.46.02-.49.27-.98.3-1.47.04-.51-.22-1.04-.2-1.51.03-.56-.01-1.08-.07-1.49.15-.56.61-1.05,1.07-1.19.47-.15,1.17-.13,1.62.1.44.23.44.86.56,1.4.05.22.15.69.17,1.36.01.42.16.9.16,1.4,0,.47.05.95.04,1.42-.02.51-.21.98-.25,1.4-.06.72-.12,1.08-.24,1.2"/><path d="M100.87,123.4c-.55.28-.92.55-1.3.61-.63.1-.96-.07-1.25-.43-.27-.33-.3-.76-.37-1.34-.05-.45-.26-.93-.24-1.46.02-.49.27-.98.3-1.47.04-.51-.22-1.04-.2-1.51.03-.56-.01-1.08-.07-1.49.15-.56.61-1.05,1.07-1.19.47-.15,1.17-.13,1.62.1.44.23.44.86.56,1.4.05.22.15.69.17,1.36.01.42.16.9.16,1.4,0,.47.05.95.04,1.42-.02.51-.21.98-.25,1.4-.06.72-.12,1.08-.24,1.2"/><path d="M100.49,145.84c-.35.26-.4.89-1.12.77-.52-.09-.68-.71-.92-1.12-.21-.36-.61-.72-.67-1.23-.05-.44.16-.93.18-1.42.02-.47.06-.94.1-1.4.05-.49.14-.96.18-1.4.05-.56-.1-1.06-.13-1.42.14-.49.62-.9,1.15-.97.47-.06,1.05.12,1.48.38.41.25.6.72.68,1.27.04.25-.08.83-.07,1.56,0,.49.32,1.03.31,1.57,0,.55-.01,1.1-.04,1.58-.05.78-.23,1.37-.35,1.52-.07.1-.61.14-.8.28"/><path d="M100.49,145.84c-.35.26-.4.89-1.12.77-.52-.09-.68-.71-.92-1.12-.21-.36-.61-.72-.67-1.23-.05-.44.16-.93.18-1.42.02-.47.06-.94.1-1.4.05-.49.14-.96.18-1.4.05-.56-.1-1.06-.13-1.42.14-.49.62-.9,1.15-.97.47-.06,1.05.12,1.48.38.41.25.6.72.68,1.27.04.25-.08.83-.07,1.56,0,.49.32,1.03.31,1.57,0,.55-.01,1.1-.04,1.58-.05.78-.23,1.37-.35,1.52-.07.1-.61.14-.8.28"/><path d="M100.07,111.38c-.05.02,0,.54-.13.54-.18,0-1.45-.29-1.62-.41-.27-.2-.43-.77-.52-1.4-.06-.43-.15-.93-.16-1.45,0-.47.26-.96.29-1.44.03-.51.02-1,.07-1.44.07-.61.05-1.14.13-1.44.13-.47.58-.61,1.07-.65.43-.03.86.06,1.26.31.39.24.5.58.59,1.05.04.22.31.72.33,1.39.01.44-.15.94-.15,1.44,0,.5.31,1,.3,1.45-.02.67-.34,1.18-.38,1.4-.17.89-.58.5-1.07.65"/><path d="M100.07,111.38c-.05.02,0,.54-.13.54-.18,0-1.45-.29-1.62-.41-.27-.2-.43-.77-.52-1.4-.06-.43-.15-.93-.16-1.45,0-.47.26-.96.29-1.44.03-.51.02-1,.07-1.44.07-.61.05-1.14.13-1.44.13-.47.58-.61,1.07-.65.43-.03.86.06,1.26.31.39.24.5.58.59,1.05.04.22.31.72.33,1.39.01.44-.15.94-.15,1.44,0,.5.31,1,.3,1.45-.02.67-.34,1.18-.38,1.4-.17.89-.58.5-1.07.65"/><path d="M97.65,63.63c.62-.05,1.02.25,1.32.63.28.35.31.85.41,1.41.08.47.16.97.18,1.5.02.52.04,1.04.04,1.52,0,.6-.01,1.13.06,1.52-.05.47-.31.67-.72.89-.39.2-.8.62-1.24.59-.5-.03-.99-.35-1.23-.67-.19-.25-.4-.84-.49-1.55-.06-.48.06-1.05.07-1.61,0-.54-.03-1.09.05-1.61.08-.58.21-1.13.41-1.56.26-.58.65-1.02,1.15-1.06"/><path d="M97.65,63.63c.62-.05,1.02.25,1.32.63.28.35.31.85.41,1.41.08.47.16.97.18,1.5.02.52.04,1.04.04,1.52,0,.6-.01,1.13.06,1.52-.05.47-.31.67-.72.89-.39.2-.8.62-1.24.59-.5-.03-.99-.35-1.23-.67-.19-.25-.4-.84-.49-1.55-.06-.48.06-1.05.07-1.61,0-.54-.03-1.09.05-1.61.08-.58.21-1.13.41-1.56.26-.58.65-1.02,1.15-1.06"/><path d="M99.11,59.15c-.3.37-.88.6-1.55.55-.67-.05-1.2-.31-1.36-.84-.07-.24-.34-.87-.34-1.63,0-.54.16-1.14.19-1.68.04-.76-.13-1.51-.03-1.75.18-.43,1.06-.44,1.3-1.09.55-.19,1.95.4,2.12.96.06.18-.21.87-.18,1.62.02.5.21,1.05.23,1.56.02.69-.1,1.29-.11,1.56,0,.22-.15.59-.28.74"/><path d="M99.11,59.15c-.3.37-.88.6-1.55.55-.67-.05-1.2-.31-1.36-.84-.07-.24-.34-.87-.34-1.63,0-.54.16-1.14.19-1.68.04-.76-.13-1.51-.03-1.75.18-.43,1.06-.44,1.3-1.09.55-.19,1.95.4,2.12.96.06.18-.21.87-.18,1.62.02.5.21,1.05.23,1.56.02.69-.1,1.29-.11,1.56,0,.22-.15.59-.28.74"/><path d="M97.73,128.84c.37-.36,1.2-.46,1.85-.33.63.12,1.27.54,1.45,1.1.07.22-.21.8-.18,1.42.02.45.22.93.22,1.37,0,.61.14,1.17.1,1.4-.09.46-.62.61-1.06.8-.41.18-.83.31-1.27.21-.45-.11-.91-.29-1.1-.74-.1-.23-.13-.93-.15-1.72-.02-.56-.01-1.17.01-1.72.04-.85.02-1.67.15-1.8"/><path d="M97.73,128.84c.37-.36,1.2-.46,1.85-.33.63.12,1.27.54,1.45,1.1.07.22-.21.8-.18,1.42.02.45.22.93.22,1.37,0,.61.14,1.17.1,1.4-.09.46-.62.61-1.06.8-.41.18-.83.31-1.27.21-.45-.11-.91-.29-1.1-.74-.1-.23-.13-.93-.15-1.72-.02-.56-.01-1.17.01-1.72.04-.85.02-1.67.15-1.8"/><path d="M97.32,75.57c.45-.56.97-1.06,1.55-.86.57.2,1.01.91,1.22,1.49.15.41-.12,1.12-.16,1.85-.04.67.18,1.36.38,1.85-.16.54-.6.85-1.01,1.07-.45.25-.92.35-1.39.17-.43-.16-.68-.52-.9-1.06-.13-.32-.15-.87-.17-1.54-.02-.53-.22-1.09-.16-1.61.07-.68.42-1.1.64-1.37"/><path d="M97.32,75.57c.45-.56.97-1.06,1.55-.86.57.2,1.01.91,1.22,1.49.15.41-.12,1.12-.16,1.85-.04.67.18,1.36.38,1.85-.16.54-.6.85-1.01,1.07-.45.25-.92.35-1.39.17-.43-.16-.68-.52-.9-1.06-.13-.32-.15-.87-.17-1.54-.02-.53-.22-1.09-.16-1.61.07-.68.42-1.1.64-1.37"/><path d="M97.94,83.94c.68-.12,1.19.27,1.51.66.31.37.68.88.77,1.47.08.53.06,1.13.03,1.67-.03.63-.26,1.22-.33,1.62-.51.42-.97.67-1.37.75-.59.12-1.11-.07-1.46-.48-.3-.35-.47-.9-.58-1.46-.1-.49-.3-1.05-.26-1.57.05-.55.16-1.16.37-1.59.26-.52.81-.99,1.31-1.07"/><path d="M97.94,83.94c.68-.12,1.19.27,1.51.66.31.37.68.88.77,1.47.08.53.06,1.13.03,1.67-.03.63-.26,1.22-.33,1.62-.51.42-.97.67-1.37.75-.59.12-1.11-.07-1.46-.48-.3-.35-.47-.9-.58-1.46-.1-.49-.3-1.05-.26-1.57.05-.55.16-1.16.37-1.59.26-.52.81-.99,1.31-1.07"/><path d="M100.43,42.92c.39.33.72.88.9,1.5.2.69.44,1.23.72,1.48.22.2.49.74,1.06.98.41.17.89.31,1.37.48.46.17.97.23,1.39.39.54.2.98.45,1.3.6.46.22,1.08.16,1.53.43.44.26.61.95,1.04,1.24.42.29,1.12.22,1.52.54.4.32.54.96.92,1.3.38.35.67.76,1.03,1.13.36.37.69.74,1.03,1.13.33.39.69.75,1.01,1.16.31.41.75.72,1.04,1.15.29.43.81.71,1.08,1.15s.26,1.04.5,1.5c.24.46.41.94.62,1.41.22.47.3.99.48,1.46.19.48.34.96.5,1.45.16.49.69.88.81,1.37.12.5.09,1.04.18,1.55.09.51-.12,1.05-.07,1.56.05.52.17,1.01.17,1.52,0,.5.33.99.31,1.47-.02.49-.39.96-.44,1.44-.04.49.07.99,0,1.47-.07.49.09,1.02,0,1.49-.1.48-.29.95-.42,1.42-.12.48-.41.91-.56,1.37-.15.47-.09,1.02-.27,1.47-.18.46-.6.82-.8,1.26-.2.44-.56.81-.79,1.24-.23.43-.13,1.05-.38,1.47-.25.42-.65.75-.93,1.16-.27.4-.63.75-.93,1.14-.29.39-.75.64-1.06,1.02-.31.37-.57.79-.9,1.15-.33.36-.59.78-.94,1.13-.34.34-.77.6-1.13.94-.36.33-.53.87-.9,1.19-.37.32-1.01.3-1.4.61-.38.3-.73.64-1.12.93-.21.15-.65.46-1.19.8-.4.25-.63.85-1.02,1.1-.6.39-1.11.61-1.18.72-.18.3-.06.9-.08,1.61-.02.57-.13,1.21-.32,1.7-.18.46-.56.9-.95,1.29-.36.36-.74.79-1.2,1.07-.46.27-.99.47-1.48.63-.54.17-1.11.21-1.59.22-.41,0-.65-.44-.98-.62-.37-.2-.79-.11-1.15-.03-.12.03-.54.31-1.11.79-.33.28-.59.73-.96,1.06-.37.33-1,.37-1.32.66-.5.46-.82.91-.96,1.06-.32.34-.7.68-1.02,1.08-.3.37-.35.94-.65,1.35-.28.39-.67.71-.94,1.14-.26.41-.56.8-.82,1.23-.25.42-.52.83-.75,1.27-.23.43-.53.83-.75,1.27-.22.44-.35.93-.56,1.37-.21.45-.29.95-.49,1.4-.2.46-.58.83-.77,1.28-.19.46-.36.93-.52,1.38-.17.47-.43.91-.58,1.37-.16.48-.38.94-.51,1.39-.14.49-.19,1-.29,1.46-.11.5-.06,1.02-.15,1.49-.09.5-.08,1.01-.15,1.48-.08.5-.41.96-.46,1.44-.06.51-.13,1.01-.15,1.49-.03.51.29,1.01.29,1.5,0,.51-.36,1.02-.33,1.51.04.5.46.96.54,1.44.08.5.04,1.01.16,1.48.12.48.32.94.48,1.41.16.47.22.98.42,1.44.2.45.4.91.65,1.35.24.42.75.69,1.03,1.11.27.4.32.98.62,1.38.29.39.8.61,1.13,1,.31.37.42.94.77,1.31.33.35.9.49,1.26.85.34.34.47.93.84,1.28.35.33.87.51,1.25.85.23.21.69.66,1.23,1.13.41.36.91.68,1.33,1.01.6.48,1.09.91,1.32.99.08.03.66-.21,1.33-.44.45-.15.87-.1,1.32-.02.26.05.98.06,1.66.27.7.22,1.43.35,1.64.47.45.26.76.69,1,1.15.23.43.34.94.41,1.46.07.5.08,1.02.04,1.52-.04.54-.08,1.06-.22,1.51-.14.47-.39.88-.7,1.23-.31.35-.8.44-1.22.67-.41.22-.73.68-1.2.79-.46.1-.96.11-1.43.1-.47,0-.98-.02-1.43-.14-.46-.12-.91-.36-1.3-.61-.4-.25-.91-.49-1.18-.87-.26-.37-.27-.93-.38-1.42-.08-.4-.2-.89-.21-1.35,0-.51.16-1.05-.06-1.36-.14-.2-.74-.58-1.34-.96-.53-.34-1.13-.6-1.39-.82-.39-.33-.77-.67-1.15-1-.39-.34-.81-.63-1.17-.97-.38-.35-.7-.75-1.06-1.1-.37-.35-.87-.57-1.22-.92-.37-.36-.7-.75-1.04-1.11-.35-.38-.44-.97-.76-1.35-.34-.39-.92-.57-1.22-.96-.31-.41-.38-.98-.66-1.39-.29-.42-.53-.86-.78-1.29-.26-.44-.76-.74-.98-1.19-.22-.46-.38-.95-.57-1.41s-.31-.96-.46-1.45c-.15-.48,0-1.03-.11-1.53-.11-.49-.6-.91-.67-1.41-.07-.49-.06-1.01-.09-1.52-.03-.49-.06-1-.06-1.52,0-.49.25-.99.27-1.51.02-.49.13-.98.18-1.5.04-.49-.04-1,.03-1.51.06-.49,0-1.01.09-1.52.08-.49.26-.97.35-1.48.09-.49-.05-1.03.06-1.54.11-.48.3-.97.44-1.48.13-.48.65-.86.81-1.36.15-.48-.08-1.1.1-1.59.17-.48.6-.87.79-1.35.18-.47.27-.99.47-1.47.2-.47.53-.88.75-1.35.21-.47.54-.88.77-1.34.23-.46.45-.92.69-1.37.24-.46.3-1.01.56-1.45.26-.45.52-.89.79-1.32.28-.44.57-.87.85-1.29.3-.43.71-.76,1.02-1.16.32-.42.54-.9.87-1.27.26-.29.55-.73.96-1.1.34-.3.64-.72,1.02-1.05.37-.32.91-.45,1.27-.76.39-.34.94-.49,1.26-.79.44-.42.52-1.03.69-1.32.24-.42.26-.99.32-1.62.05-.59.09-1.24.31-1.72.18-.41.88-.65,1.39-1.1.43-.38.66-1.12,1.16-1.39.59-.32,1.29-.26,1.76-.21.4.04.54.48.84.78.29.3.79.55,1.27.37.35-.12.75-.65,1.33-1,.43-.27.86-.63,1.33-.95.46-.32.94-.61,1.36-.91.53-.39.96-.77,1.27-1.01.4-.31.97-.4,1.35-.72.39-.32.59-.85.96-1.18.37-.34.87-.55,1.22-.91.35-.36.49-.91.82-1.29.33-.38.73-.69,1.04-1.08.31-.4.54-.84.82-1.25.29-.41.95-.58,1.21-1.01.26-.43.54-.86.78-1.31.23-.44.06-1.09.26-1.55.2-.46.74-.78.92-1.25.17-.47.04-1.04.18-1.53.14-.48.43-.92.54-1.42.1-.49.07-1,.14-1.5.07-.49.38-.97.42-1.47.04-.49-.3-1.02-.29-1.52,0-.49.1-.98.06-1.49-.04-.49.17-1.03.08-1.52-.08-.48-.25-.97-.38-1.46-.12-.48-.2-.99-.36-1.46-.15-.47-.33-.95-.51-1.42-.18-.46-.35-.95-.56-1.4-.21-.45-.56-.85-.79-1.29s-.61-.8-.87-1.23c-.26-.43-.43-.92-.71-1.32-.29-.41-.6-.81-.91-1.19-.32-.39-.61-.81-.95-1.17-.34-.37-.7-.73-1.06-1.07-.37-.34-.73-.71-1.13-1.01-.41-.3-.8-.65-1.23-.9-.3-.18-.81-.39-1.38-.67-.42-.21-.88-.46-1.36-.69-.46-.21-1.07-.13-1.53-.33-.49-.22-.89-.61-1.32-.79-.6-.24-1.17-.22-1.5-.3-.57-.15-.87.05-1.25.34-.35.27-.76.42-1.31.48-.37.04-.76-.03-1.34-.28-.19-.08-1.83-.9-1.88-.99-.19-.34-.1-.95-.14-1.56-.03-.48-.11-1.01-.04-1.54.06-.53.42-.97.57-1.43.18-.57.17-1.16.48-1.44.36-.33.99-.38,1.61-.51.55-.12,1.1-.09,1.65-.04.64.06,1.2.06,1.58.38"/><path d="M100.87,123.4c-.55.28-.92.55-1.3.61-.63.1-.96-.07-1.25-.43-.27-.33-.3-.76-.37-1.34-.05-.45-.26-.93-.24-1.46.02-.49.27-.98.3-1.47.04-.51-.22-1.04-.2-1.51.03-.56-.01-1.08-.07-1.49.15-.56.61-1.05,1.07-1.19.47-.15,1.17-.13,1.62.1.44.23.44.86.56,1.4.05.22.15.69.17,1.36.01.42.16.9.16,1.4,0,.47.05.95.04,1.42-.02.51-.21.98-.25,1.4-.06.72-.12,1.08-.24,1.2"/><path d="M100.49,145.84c-.35.26-.4.89-1.12.77-.52-.09-.68-.71-.92-1.12-.21-.36-.61-.72-.67-1.23-.05-.44.16-.93.18-1.42.02-.47.06-.94.1-1.4.05-.49.14-.96.18-1.4.05-.56-.1-1.06-.13-1.42.14-.49.62-.9,1.15-.97.47-.06,1.05.12,1.48.38.41.25.6.72.68,1.27.04.25-.08.83-.07,1.56,0,.49.32,1.03.31,1.57,0,.55-.01,1.1-.04,1.58-.05.78-.23,1.37-.35,1.52-.07.1-.61.14-.8.28"/><path d="M100.07,111.38c-.05.02,0,.54-.13.54-.18,0-1.45-.29-1.62-.41-.27-.2-.43-.77-.52-1.4-.06-.43-.15-.93-.16-1.45,0-.47.26-.96.29-1.44.03-.51.02-1,.07-1.44.07-.61.05-1.14.13-1.44.13-.47.58-.61,1.07-.65.43-.03.86.06,1.26.31.39.24.5.58.59,1.05.04.22.31.72.33,1.39.01.44-.15.94-.15,1.44,0,.5.31,1,.3,1.45-.02.67-.34,1.18-.38,1.4-.17.89-.58.5-1.07.65"/><path d="M97.65,63.63c.62-.05,1.02.25,1.32.63.28.35.31.85.41,1.41.08.47.16.97.18,1.5.02.52.04,1.04.04,1.52,0,.6-.01,1.13.06,1.52-.05.47-.31.67-.72.89-.39.2-.8.62-1.24.59-.5-.03-.99-.35-1.23-.67-.19-.25-.4-.84-.49-1.55-.06-.48.06-1.05.07-1.61,0-.54-.03-1.09.05-1.61.08-.58.21-1.13.41-1.56.26-.58.65-1.02,1.15-1.06"/><path d="M99.11,59.15c-.3.37-.88.6-1.55.55-.67-.05-1.2-.31-1.36-.84-.07-.24-.34-.87-.34-1.63,0-.54.16-1.14.19-1.68.04-.76-.13-1.51-.03-1.75.18-.43,1.06-.44,1.3-1.09.55-.19,1.95.4,2.12.96.06.18-.21.87-.18,1.62.02.5.21,1.05.23,1.56.02.69-.1,1.29-.11,1.56,0,.22-.15.59-.28.74"/><path d="M97.73,128.84c.37-.36,1.2-.46,1.85-.33.63.12,1.27.54,1.45,1.1.07.22-.21.8-.18,1.42.02.45.22.93.22,1.37,0,.61.14,1.17.1,1.4-.09.46-.62.61-1.06.8-.41.18-.83.31-1.27.21-.45-.11-.91-.29-1.1-.74-.1-.23-.13-.93-.15-1.72-.02-.56-.01-1.17.01-1.72.04-.85.02-1.67.15-1.8"/><path d="M97.32,75.57c.45-.56.97-1.06,1.55-.86.57.2,1.01.91,1.22,1.49.15.41-.12,1.12-.16,1.85-.04.67.18,1.36.38,1.85-.16.54-.6.85-1.01,1.07-.45.25-.92.35-1.39.17-.43-.16-.68-.52-.9-1.06-.13-.32-.15-.87-.17-1.54-.02-.53-.22-1.09-.16-1.61.07-.68.42-1.1.64-1.37"/><path d="M97.94,83.94c.68-.12,1.19.27,1.51.66.31.37.68.88.77,1.47.08.53.06,1.13.03,1.67-.03.63-.26,1.22-.33,1.62-.51.42-.97.67-1.37.75-.59.12-1.11-.07-1.46-.48-.3-.35-.47-.9-.58-1.46-.1-.49-.3-1.05-.26-1.57.05-.55.16-1.16.37-1.59.26-.52.81-.99,1.31-1.07"/></svg>