<?xml version="1.0" encoding="UTF-8"?><svg id="Layer_1" xmlns="http://www.w3.org/2000/svg" viewBox="0 0 200 200"><path d="M98.53,39.27c-.59-.47-1.31-.41-1.86-.38-.61.03-1.38-.02-1.9.39-.48.37-.53,1.25-.91,1.75-.41.54-.78,1.05-1.03,1.53-.27.52-.91.94-1.14,1.58-.2.56-.46,1.17-.64,1.82-.16.59,0,1.29-.14,1.93-.14.6-.5,1.18-.62,1.82-.12.61-.02,1.28-.13,1.92-.1.62-.29,1.24-.37,1.87-.08.63.08,1.29.01,1.92-.07.63-.18,1.26-.24,1.89-.06.64.07,1.29.02,1.92-.05.64-.6,1.25-.64,1.87-.04.65.16,1.3.13,1.92-.03.66-.36,1.29-.37,1.9-.01.67.38,1.31.38,1.91,0,.69-.26,1.33-.23,1.91.03.64.26,1.27.29,1.91.04.64.14,1.27.19,1.91.05.64-.03,1.29.03,1.92.06.64.42,1.24.49,1.87.08.64.08,1.27.17,1.9.09.63-.19,1.33-.08,1.95.11.63.42,1.22.55,1.85.13.63.4,1.22.55,1.84.15.62.31,1.23.48,1.85.17.61.48,1.18.67,1.79.19.61.08,1.31.3,1.92.21.6.36,1.23.6,1.82.23.59.41,1.22.67,1.81.26.58.56,1.15.85,1.73.28.58.91.99,1.2,1.56.29.57.68,1.1.98,1.66.3.57.22,1.34.53,1.9.31.57,1.06.89,1.37,1.45.31.56.23,1.35.54,1.91.32.56.63,1.12.95,1.68s.97.93,1.29,1.48c.32.56.31,1.3.63,1.86s.86.99,1.18,1.55c.32.56.79,1.03,1.11,1.59.32.56.62,1.13.93,1.69.31.56.53,1.18.83,1.74.3.57.41,1.24.7,1.81.3.57.46,1.21.74,1.78.29.57.51,1.18.78,1.76.27.58.76,1.06,1.02,1.65.26.59.79,1.06,1.04,1.65.25.59.47,1.2.7,1.8.23.6.14,1.32.36,1.93.2.56.2,1.2.4,1.8.19.57.69,1.05.87,1.65.17.58.17,1.22.33,1.82.16.58.38,1.16.53,1.76.15.59.27,1.19.41,1.8.14.59.22,1.2.34,1.81.12.6.11,1.22.22,1.83.11.6.59,1.15.68,1.76.09.61-.07,1.25,0,1.86.07.61.41,1.2.46,1.81.05.62.09,1.24.11,1.85.02.62-.03,1.24-.03,1.85,0,.62.1,1.25.06,1.86-.04.62-.54,1.19-.61,1.79-.08.62.22,1.29.1,1.88-.13.61-.14,1.27-.32,1.84-.18.6-.65,1.1-.89,1.65-.23.52-.82.86-1.23,1.39-.36.46-.54,1.12-1.02,1.56-.44.41-.83.94-1.34,1.31-.5.36-.99.81-1.53,1.11-.54.31-1.37.05-1.93.28-.58.24-1.12.5-1.7.64-.62.16-1.17.78-1.77.81-.64.02-1.19-.64-1.77-.8-.6-.17-1.29-.07-1.78-.47-.24-.19-.67-.68-1.17-1.29-.33-.4-.37-1.12-.74-1.61-.35-.45-1.16-.57-1.51-1.03-.36-.49-.55-1.09-.85-1.52-.44-.62-.76-1.16-.93-1.45-.3-.52-.81-.97-1.09-1.55-.26-.55-.28-1.23-.52-1.83-.23-.57-.55-1.12-.76-1.72-.2-.58-.53-1.13-.72-1.74-.18-.59-.07-1.27-.23-1.89-.16-.6-.6-1.13-.74-1.75-.14-.6.27-1.33.14-1.95-.13-.61-.52-1.16-.63-1.78-.11-.61-.06-1.25-.17-1.87-.1-.61-.07-1.25-.16-1.87-.09-.62-.51-1.19-.59-1.81-.08-.62-.19-1.24-.25-1.86-.07-.62-.31-1.23-.37-1.85-.06-.63,0-1.26-.04-1.88-.05-.63-.12-1.25-.16-1.87-.04-.63.25-1.27.22-1.89-.03-.64-.5-1.25-.52-1.86-.01-.64.11-1.27.11-1.88,0-.64.21-1.27.22-1.88.01-.64-.28-1.28-.26-1.88.03-.65.15-1.27.19-1.87.03-.46.08-1.12.17-1.88.07-.58.05-1.24.15-1.89.09-.62.51-1.21.62-1.82.12-.66.15-1.32.29-1.88.19-.76.3-1.48.52-1.86.33-.55,1-.79,1.53-1,.58-.23,1.15-.16,1.68.07.51.22,1.27.48,1.43,1.16.11.47.07,1.25,0,2.04-.06.6-.56,1.21-.67,1.89-.1.63-.13,1.3-.25,1.94-.12.67-.03,1.36-.14,1.96-.13.74-.45,1.37-.49,1.89-.05.58-.02,1.2-.05,1.86-.03.59-.1,1.21-.11,1.85-.01.6-.17,1.22-.17,1.86,0,.6.29,1.22.3,1.86,0,.61-.4,1.24-.38,1.87.02.61.14,1.23.17,1.86.03.61.04,1.24.08,1.86.04.61.6,1.19.66,1.81.05.61.08,1.23.15,1.85.06.62.13,1.23.2,1.84.08.62.23,1.22.32,1.83.09.62-.31,1.31-.2,1.92.11.62.56,1.16.68,1.77.12.61-.13,1.3,0,1.9.14.61.5,1.17.65,1.76.16.61.11,1.28.29,1.86.19.6.91,1.02,1.11,1.59.22.6.36,1.19.6,1.74.25.59.03,1.38.31,1.92.3.57.64,1.12.97,1.62.35.54,1.09.77,1.48,1.21.4.46.54,1.08.88,1.45.42.45,1.08.46,1.52.72.46.27.81.54,1.43.53.47,0,1.04.13,1.66-.08.76-.26,1.3-.73,1.82-1.08.61-.41.95-.91,1.31-1.54.31-.54.99-1.02,1.17-1.82.14-.59.3-1.21.4-1.82.09-.6.12-1.24.17-1.86.05-.61.02-1.24.04-1.86.02-.61-.37-1.23-.38-1.85-.01-.61-.1-1.21-.14-1.83-.04-.61.08-1.23.02-1.85-.07-.61.06-1.25-.03-1.86-.09-.61-.45-1.17-.56-1.78-.11-.6.2-1.3.08-1.9-.13-.6-.24-1.22-.39-1.81-.15-.6-.32-1.2-.49-1.79-.16-.59-.66-1.09-.84-1.68-.18-.59-.57-1.11-.76-1.7-.19-.59-.16-1.24-.37-1.82-.2-.59-.37-1.18-.58-1.76-.22-.58-.21-1.25-.43-1.81-.23-.58-1-.93-1.24-1.49-.24-.57-.32-1.21-.56-1.76-.25-.57-.53-1.12-.78-1.66-.26-.56-.13-1.32-.42-1.89-.28-.55-.82-.99-1.11-1.55-.29-.55-.88-.94-1.18-1.49-.3-.54-.19-1.33-.5-1.87-.31-.54-.64-1.08-.96-1.62-.31-.54-.71-1.03-1.03-1.57-.32-.54-.7-1.04-1.02-1.58-.32-.54-.85-.95-1.18-1.49-.32-.54-.16-1.37-.48-1.91-.32-.54-1.13-.79-1.44-1.33-.32-.54-.69-1.06-1-1.6-.31-.55-.35-1.25-.66-1.8-.31-.55-.88-.96-1.17-1.51-.3-.55-.12-1.36-.41-1.91-.29-.56-.64-1.08-.91-1.65-.28-.57-.44-1.18-.7-1.75-.26-.58-.51-1.14-.75-1.72-.24-.58-.61-1.11-.83-1.69-.22-.59-.64-1.11-.83-1.71-.19-.6-.11-1.28-.27-1.88-.16-.61-.72-1.13-.85-1.74-.12-.6.25-1.32.14-1.97-.11-.61-.67-1.16-.76-1.81-.09-.61.34-1.32.25-1.96-.08-.62-.69-1.19-.76-1.83-.07-.62.13-1.28.08-1.93-.06-.63.08-1.27.03-1.91-.05-.63-.48-1.24-.51-1.88-.03-.63-.07-1.27-.09-1.91-.02-.63.21-1.28.2-1.92-.01-.63.11-1.27.11-1.91,0-.64-.09-1.27-.08-1.91.01-.64.14-1.27.16-1.9.02-.64-.1-1.28-.07-1.92.04-.64.06-1.28.11-1.91.05-.64.35-1.25.41-1.88.07-.64-.4-1.34-.31-1.96.08-.64.57-1.21.67-1.84.1-.64.22-1.26.34-1.88.12-.63-.17-1.35-.03-1.96.14-.63.59-1.18.76-1.79.17-.62.36-1.23.56-1.83.2-.62.5-1.19.73-1.77.24-.6.59-1.13.86-1.69.28-.59.56-1.14.88-1.67.33-.55.45-1.17.75-1.63.36-.53.94-.8,1.31-1.21.42-.46.8-.81,1.28-1.13.48-.32.86-.76,1.46-.95.52-.17,1.08-.3,1.72-.38.54-.07,1.11-.39,1.76-.41.69-.02,1.45.02,2.06.24.61.22,1.02.92,1.55,1.34.5.39,1.26.6,1.69,1.13.41.49.33,1.37.68,1.95.34.55.67,1.1.97,1.7.29.59.79,1.09,1.04,1.7.25.62.54,1.23.75,1.83.23.65.31,1.32.49,1.92.21.69.64,1.26.8,1.83.16.6-.11,1.32.05,1.93.15.6.67,1.12.82,1.74.14.6.17,1.24.31,1.86.13.61.46,1.18.58,1.81.12.61.29,1.23.39,1.85.11.62-.15,1.3-.06,1.92.09.62.18,1.24.26,1.86.08.62.23,1.23.3,1.86.07.62.15,1.25.2,1.87.05.63-.15,1.27-.11,1.89s-.04,1.25-.02,1.88c.02.63.24,1.25.24,1.87,0,.63.08,1.26.07,1.88-.02.63-.03,1.26-.06,1.88-.04.63,0,1.27-.05,1.89-.06.63-.43,1.22-.51,1.83-.08.63.01,1.27-.09,1.88-.11.62-.26,1.23-.39,1.84-.14.62,0,1.3-.17,1.9-.17.61-.7,1.11-.9,1.7-.17.48-.4,1.06-.64,1.72-.2.54-.25,1.18-.48,1.79-.22.56-.2,1.23-.43,1.82-.23.57-.85.99-1.09,1.55-.25.58-.67,1.07-.92,1.61-.27.6-.33,1.25-.58,1.76-.32.64-.73,1.11-1.01,1.53-.33.49-.53,1.28-1.08,1.73-.55.45-1.27.67-1.89.76-.63.09-1.49.12-2.03-.51-.46-.53-.19-1.42-.03-2.18.13-.62.41-1.26.75-1.93.31-.63.47-1.37.81-1.96.41-.69.74-1.33.97-1.84.26-.58.58-1.13.82-1.7.25-.59.71-1.08.94-1.66.23-.6.54-1.16.75-1.74.22-.6.06-1.32.25-1.92.2-.61.48-1.18.65-1.77.18-.61.37-1.21.52-1.81.16-.62.19-1.25.32-1.86.13-.62.6-1.17.71-1.79.11-.62.07-1.27.15-1.89.08-.63-.16-1.28-.11-1.91.06-.63.17-1.24.2-1.87.03-.63.47-1.25.48-1.88,0-.63-.21-1.26-.23-1.89-.02-.63-.35-1.24-.39-1.87-.04-.62.22-1.27.15-1.9-.06-.62-.12-1.25-.2-1.88-.08-.62-.1-1.25-.2-1.88-.1-.61-.51-1.18-.63-1.81-.11-.61-.28-1.21-.42-1.83-.13-.61.19-1.32.05-1.95-.14-.6-.73-1.11-.88-1.73-.15-.6-.12-1.26-.28-1.88-.16-.6-.66-1.12-.83-1.74-.12-.45-.16-1.09-.4-1.79-.18-.54-.53-1.07-.76-1.67-.21-.56-.45-1.13-.69-1.7-.24-.58-.12-1.32-.38-1.86-.29-.6-.55-1.18-.85-1.66-.39-.64-.76-1.24-1.12-1.53"/></svg>