<?xml version="1.0" encoding="UTF-8"?><svg id="Layer_1" xmlns="http://www.w3.org/2000/svg" viewBox="0 0 200 200"><path d="M109.65,149.07c.42-.4.32-1.25,0-1.77-.31-.5-.92-1.05-1.33-1.17-.33.26-.64.68-.91.99-.27.32-.59.64-.75,1.02-.15.37-.11.68-.12,1.12.77.09.74-.2,1.51-.22.81-.03.87.28,1.6.03M107.91,113.99c-.47,0-.99.18-1.53.26-.49.07-1.02.1-1.52.23-.49.12-.96.4-1.43.56-.49.17-1.01.27-1.46.48-.49.22-.81.7-1.21.95-.2.13-.61.4-1.06.81-.31.28-.73.53-1.05.86-.33.34-.59.74-.84,1.07-.4.52-.69.96-.57,1.19.08.16.66.32,1.24.68.38.24.62.82,1.02,1.04.54.3,1.22.18,1.43.27.44.19.81.53,1.29.68.46.14.96.12,1.44.22.47.1.92.32,1.41.38.48.06.97-.08,1.46-.06.49.02.98.45,1.46.43.49-.02.94-.5,1.41-.56.49-.07,1.04.24,1.51.13.55-.13,1.17-.3,1.68-.55.52-.26.78-.86,1.01-1.42.2-.49.52-.9.58-1.34.07-.5,0-1.01-.11-1.47-.1-.46-.22-.95-.47-1.39-.22-.39-.45-.86-.78-1.25-.31-.37-.9-.42-1.22-.68-.36-.29-.66-.6-1.06-.78-.4-.17-.77-.54-1.24-.61-.41-.06-.89-.11-1.38-.1M106.46,77.56c-.47.03-.94.18-1.42.23-.47.05-.96.03-1.43.1-.47.07-.92.28-1.39.37-.47.09-.96.1-1.42.22-.46.11-.85.5-1.31.64-.46.14-.92.24-1.36.41-.45.17-.93.24-1.36.44-.44.2-.83.47-1.25.7-.42.23-.87.41-1.27.67-.4.26-.66.71-1.03,1-.37.3-.98.34-1.32.68-.34.34-.33.97-.63,1.35-.29.37-.71.65-.95,1.06-.24.4-.33.88-.52,1.32-.19.43-.48.8-.62,1.27.35.35.81.52,1.19.82.38.3.53.94.94,1.2.41.26,1.05.13,1.49.35.43.22.71.79,1.16.97.45.18.92.36,1.39.51.46.15,1.02,0,1.49.12.47.12.91.41,1.39.51.48.09.97.12,1.46.19.49.07.96.2,1.45.25.47.05.95.17,1.44.21.47.03.98-.33,1.47-.31.48.02.95.14,1.44.14.48,0,.97.24,1.46.22.48-.02.96-.19,1.44-.24.48-.05.95-.18,1.43-.26.48-.08.95-.2,1.41-.31.48-.11.98-.11,1.43-.26.46-.15.93-.32,1.36-.51.45-.2.75-.66,1.15-.9.46-.28.94-.43,1.3-.72.42-.33.81-.64,1.11-.99.33-.39.65-.79.85-1.23.2-.44.35-.93.43-1.44.07-.46-.16-.96-.17-1.49-.01-.46.32-.99.25-1.51-.07-.52-.62-.87-.81-1.3-.2-.47-.3-.93-.61-1.3-.32-.37-.71-.62-1.12-.91-.39-.28-.64-.86-1.1-1.07-.44-.2-1.04-.02-1.52-.17-.47-.14-.94-.22-1.43-.31-.48-.09-.93-.47-1.42-.53-.5-.05-1-.2-1.48-.22-.51-.02-1.01.3-1.49.31-.52,0-1.03-.3-1.49-.27M87.76,90.69c-.08.4-.2,1-.29,1.42-.09.41-.26.81-.34,1.22-.08.42-.02.87-.06,1.28-.04.49-.17.97-.2,1.46-.03.49.22.99.21,1.47,0,.49-.06.97-.05,1.46.01.49-.08.98-.05,1.47.03.49.15.97.2,1.45.06.49.04.98.12,1.46.08.48.37.92.47,1.4.1.48-.15,1.04-.03,1.51.13.47.67.82.83,1.28.15.46.14.98.32,1.43.18.45.5.84.71,1.28.21.44.29.94.52,1.37.23.43.62.76.88,1.17.25.41.16,1.06.44,1.46.28.4.92.53,1.22.92.15.19.19.88.54,1.31.39.47.82.97.96,1.05.28.18.32,0,.55-.27.32-.37.77-.59,1.08-.92.33-.36.62-.72.95-1.03.35-.33.75-.57,1.11-.85.38-.29.79-.49,1.18-.73.4-.25.61-.81,1.03-1.02.41-.2.89-.29,1.34-.45.43-.16.94-.05,1.41-.18.43-.12.85-.36,1.32-.46.44-.09.88-.25,1.37-.32.43-.07.94-.16,1.49-.21.47-.04.99.07,1.5.06.5,0,.99.01,1.49.05.51.04,1.05-.16,1.53-.06.51.1.97.39,1.41.59.49.21.88.52,1.21.87.14.15.37.61.69,1.14.22.37.46.78.68,1.16.29.51.77.84.87,1.06.2.42.03,1.02.17,1.51.13.46.67.87.73,1.37.06.49-.08,1.02-.09,1.51-.01.5,0,1.02-.09,1.5-.1.49-.62.83-.83,1.27-.21.45-.17,1.06-.51,1.42-.33.35-.74.71-1.2.95-.43.22-1.01.13-1.47.3-.46.17-.94.21-1.42.33-.47.12-.88.55-1.36.62-.48.08-.99-.05-1.48-.02-.49.04-.97.38-1.46.37-.49,0-.98-.27-1.47-.31-.49-.04-1.02.13-1.5.05-.49-.08-.94-.35-1.42-.47-.48-.12-.97-.23-1.43-.39-.47-.16-.97-.27-1.41-.47-.2-.09-.43-.7-.95-1.01-.35-.21-.77-.4-1.16-.63-.4-.23-.88-.31-1.23-.5-.6-.34-1.04-.51-1.14-.49-.29.05-.53.48-.7,1.15-.12.45-.44.94-.5,1.42-.09.64.25,1.25.23,1.51-.03.46-.18.93-.18,1.42-.01.47-.25.95-.24,1.44.01.47.42.93.45,1.42.03.47.09.94.14,1.42.05.47-.16.99-.09,1.46.07.47.02.98.11,1.45.1.47.4.9.52,1.36.12.47.2.95.35,1.4.15.46.61.8.79,1.24.18.45.39.86.6,1.29.22.43.3.92.55,1.32.26.41.64.71.93,1.08.18.23.43.6.81.99.28.28.67.5,1,.82.31.3.3.96.62,1.24.34.31.74.55,1.05.79.44.35,1,.3,1.25.39.42.16.17.05.26-.14.2-.42.43-.82.61-1.23.19-.43.19-.96.42-1.35.24-.39.68-.67,1.04-.97.33-.27.78-.37,1.26-.53.55-.18,1.05-.12,1.55-.1.55.02,1.08-.05,1.56.19.47.23.96.5,1.34.91.35.38.42.97.65,1.48.21.45.36.84.46,1.24.12.49.2.88.18,1.3-.03.48-.13.86-.33,1.25-.21.4-.33.87-.69,1.17-.33.28-.85.28-1.28.48-.4.18-.72.6-1.18.72-.43.11-.88.29-1.34.35-.44.05-1.02-.36-1.47-.35,0,.18.43.85.72,1.51.18.39.21.92.43,1.39.21.43.35.91.56,1.34.23.46.44.92.64,1.3.31.59.73.96.86,1.18.15.26.59.59.96,1.09.27.36.41.88.69,1.3.28.41.4.91.61,1.32.25.5.63.9.63,1.31,0,.48-.3.87-.91,1.05-.56.16-.98-.05-1.39-.31-.4-.25-.63-.68-.95-1.1-.31-.42-.91-.64-1.18-1.01-.27-.37-.53-.78-.81-1.2-.26-.39-.34-.91-.6-1.33-.25-.41-.52-.81-.75-1.23-.24-.43-.28-.95-.49-1.37-.22-.44-.83-.69-1.02-1.11-.23-.53-.4-1.02-.55-1.45-.18-.54-.15-1.07-.28-1.51-.15-.5-.21-.99-.45-1.45-.21-.4-.68-.63-1.07-1.07-.29-.32-.41-.91-.86-1.29-.38-.32-.92-.39-1.26-.67-.38-.32-.53-.87-.87-1.15-.37-.31-.77-.54-1.1-.85-.34-.32-.76-.54-1.08-.89-.3-.33-.7-.62-.98-1.02-.25-.36-.22-.93-.47-1.36-.22-.37-.6-.69-.83-1.14-.19-.37-.23-.86-.42-1.32-.16-.4-.67-.71-.83-1.17-.14-.42.08-.98-.06-1.43-.13-.43-.6-.78-.72-1.23-.12-.44-.16-.91-.26-1.37-.11-.45.07-.96-.03-1.41-.1-.46-.49-.85-.57-1.3-.08-.46-.23-.92-.29-1.36-.07-.47-.07-.95-.11-1.39-.05-.48.32-.97.31-1.41-.02-.5-.29-.95-.27-1.37.03-.44-.04-.92.03-1.38.07-.45.49-.83.58-1.28.09-.45.23-.87.34-1.32.11-.45.04-.93.15-1.37.12-.45.41-.93.52-1.36-.23-.4-.64-.8-.94-1.14-.3-.33-.67-.62-.99-.94-.32-.32-.63-.64-.91-.99-.31-.39-.66-.74-.94-1.14-.29-.4-.77-.68-1.03-1.09-.27-.42-.37-.94-.61-1.37-.25-.43-.58-.81-.81-1.25-.23-.44-.29-.96-.5-1.4-.2-.45-.63-.81-.81-1.27-.18-.46.01-1.05-.14-1.52-.15-.47-.36-.91-.49-1.39-.13-.47-.14-.97-.25-1.45-.1-.48-.46-.91-.55-1.4-.08-.48.19-1.02.13-1.51-.06-.49-.49-.93-.53-1.43-.04-.49-.02-.99-.04-1.48-.02-.49-.14-.98-.14-1.48,0-.49.25-.98.27-1.48.01-.49,0-.98.03-1.48.02-.47-.14-.98-.1-1.48.04-.48.26-.96.32-1.45.07-.49.21-.96.31-1.44.1-.49.15-.98.29-1.44.15-.48.49-.97.69-1.4-.33-.35-.91-.6-1.23-.95-.33-.36-.53-.81-.84-1.18-.31-.36-.5-.82-.79-1.19-.29-.38-.72-.65-.99-1.05-.26-.4-.61-.75-.84-1.18-.22-.42-.45-.85-.63-1.31-.17-.44.05-1.03-.1-1.48-.15-.45-.73-.76-.86-1.22-.13-.46-.12-.96-.23-1.42-.11-.46-.34-.9-.42-1.37-.09-.47-.08-.96-.14-1.42-.07-.47.24-.98.19-1.45-.04-.47-.34-.92-.36-1.39-.02-.47.12-.95.12-1.42,0-.47-.34-.95-.33-1.43.02-.47.02-.96.06-1.43.04-.47.55-.9.61-1.37.06-.47.06-.94.14-1.41.07-.47.16-.93.25-1.39.09-.46.2-.92.31-1.38.11-.46-.13-1.01,0-1.47.13-.46.56-.82.7-1.28.14-.45.37-.87.53-1.32.16-.45-.04-1.03.13-1.47.17-.44.29-.91.48-1.35.19-.43.77-.69.97-1.12.2-.43.13-.99.35-1.41.22-.42.57-.77.8-1.19.23-.41.53-.79.77-1.19.24-.41.56-.76.82-1.16.26-.4.37-.89.64-1.28.27-.39.59-.74.87-1.12.28-.38.52-.79.82-1.16.3-.37.49-.83.8-1.19.31-.36.92-.45,1.24-.8.32-.35.53-.8.86-1.14.33-.34.76-.58,1.1-.9.35-.32.53-.83.88-1.14.24-.21.64-.48,1.08-.85.32-.27.59-.68.97-.99.35-.28.8-.46,1.17-.75.37-.29.78-.51,1.14-.78.4-.3.75-.61,1.09-.84.5-.34.89-.7,1.15-.79.2-.07,1.75,0,1.95.07.54.15.82.58.93,1.04.1.45.16,1.06-.11,1.48-.09.14-.62.35-1.17.71-.33.22-.82.29-1.22.54-.36.23-.57.75-.94.98-.4.25-.84.38-1.18.6-.48.31-.99.41-1.21.58-.36.27-.67.64-1.04.95-.34.3-.61.7-.95,1.03-.33.32-.66.64-.99.98-.32.33-.81.52-1.12.87-.31.34-.54.77-.84,1.13-.3.36-.41.86-.7,1.23-.29.37-.69.64-.97,1.02-.28.38-.35.9-.61,1.28-.27.38-.81.58-1.07.97-.26.4-.6.74-.84,1.13-.24.4-.46.83-.68,1.23-.23.42-.06,1.03-.27,1.44-.22.42-.69.71-.88,1.12-.2.43-.43.85-.59,1.27-.17.43-.05.98-.21,1.43-.15.44-.36.86-.5,1.31-.14.44-.61.8-.73,1.25-.13.45-.04.96-.15,1.42-.11.45-.36.88-.46,1.35-.1.46-.05.95-.14,1.41-.08.46-.08.94-.15,1.41-.07.47-.11.93-.15,1.4-.05.47.03.94,0,1.41s-.15.93-.16,1.4c0,.47-.26.95-.24,1.42.02.47.12.95.16,1.41.04.47.4.9.47,1.36.07.47-.1.97,0,1.43.1.46.28.91.41,1.36.13.45.41.85.58,1.29.17.44.22.92.42,1.35.2.42.63.72.87,1.12.24.41.3.91.57,1.29.27.38.37.91.68,1.27.31.35.82.74,1.17,1.07.25-.39.44-1.01.71-1.39.28-.37.74-.59,1.04-.95.3-.35.61-.69.93-1.03.32-.34.53-.79.87-1.1.34-.31.86-.42,1.22-.71s.63-.69,1.01-.96c.38-.27.76-.53,1.15-.77.39-.24.7-.64,1.11-.86.41-.22.95-.18,1.37-.37.42-.19.74-.64,1.17-.81.43-.17.98-.01,1.42-.16.44-.14.77-.67,1.22-.79.45-.12.94-.1,1.39-.19.45-.09.94-.08,1.42-.16.46-.07.94-.08,1.41-.14.46-.06.93-.14,1.41-.18.47-.04.94-.13,1.42-.15.47-.02.95-.17,1.43-.16.47,0,.95.12,1.43.14.48.03.96.04,1.43.09.47.05.92.3,1.39.38.47.08.93.17,1.39.28.47.11.95.15,1.39.29.46.15.98.14,1.41.33.44.19.7.74,1.1.98.4.24.78.46,1.13.77.35.31.73.57,1.02.95.28.37.34.87.57,1.28.22.41.52.76.69,1.2.17.44.29.87.4,1.33.11.46.5.86.56,1.33.05.47-.3.96-.31,1.42,0,.47,0,.92-.07,1.38-.07.47.15,1,.01,1.44-.14.46-.66.74-.88,1.15-.23.44-.42.86-.7,1.26-.29.4-.47.87-.81,1.22-.33.35-.83.51-1.21.83-.38.31-.54.9-.96,1.17-.41.26-.88.46-1.32.68-.43.22-.83.57-1.29.75-.45.18-1.04,0-1.51.14-.46.14-.9.41-1.38.53-.47.11-.94.32-1.42.4-.48.08-1-.1-1.49-.04-.48.06-.95.35-1.44.38-.49.03-.99-.06-1.48-.05-.49,0-.98-.04-1.47-.05-.49-.01-.98,0-1.47-.03-.49-.03-.97-.17-1.46-.22-.49-.06-.98-.08-1.46-.15-.49-.08-.94-.3-1.42-.39-.49-.1-.99-.05-1.47-.17-.48-.12-.99-.13-1.45-.27-.48-.14-.9-.45-1.35-.6-.47-.16-.9-.41-1.34-.58-.47-.19-1.04-.1-1.47-.31-.46-.22-.71-.77-1.12-1.01-.45-.26-1-.32-1.39-.63-.39-.31-.8-.89-1.25-1.12"/><path d="M109.65,149.07c.42-.4.32-1.25,0-1.77-.31-.5-.92-1.05-1.33-1.17-.33.26-.64.68-.91.99-.27.32-.59.64-.75,1.02-.15.37-.11.68-.12,1.12.77.09.74-.2,1.51-.22.81-.03.87.28,1.6.03M107.91,113.99c-.47,0-.99.18-1.53.26-.49.07-1.02.1-1.52.23-.49.12-.96.4-1.43.56-.49.17-1.01.27-1.46.48-.49.22-.81.7-1.21.95-.2.13-.61.4-1.06.81-.31.28-.73.53-1.05.86-.33.34-.59.74-.84,1.07-.4.52-.69.96-.57,1.19.08.16.66.32,1.24.68.38.24.62.82,1.02,1.04.54.3,1.22.18,1.43.27.44.19.81.53,1.29.68.46.14.96.12,1.44.22.47.1.92.32,1.41.38.48.06.97-.08,1.46-.06.49.02.98.45,1.46.43.49-.02.94-.5,1.41-.56.49-.07,1.04.24,1.51.13.55-.13,1.17-.3,1.68-.55.52-.26.78-.86,1.01-1.42.2-.49.52-.9.58-1.34.07-.5,0-1.01-.11-1.47-.1-.46-.22-.95-.47-1.39-.22-.39-.45-.86-.78-1.25-.31-.37-.9-.42-1.22-.68-.36-.29-.66-.6-1.06-.78-.4-.17-.77-.54-1.24-.61-.41-.06-.89-.11-1.38-.1M106.46,77.56c-.47.03-.94.18-1.42.23-.47.05-.96.03-1.43.1-.47.07-.92.28-1.39.37-.47.09-.96.1-1.42.22-.46.11-.85.5-1.31.64-.46.14-.92.24-1.36.41-.45.17-.93.24-1.36.44-.44.2-.83.47-1.25.7-.42.23-.87.41-1.27.67-.4.26-.66.71-1.03,1-.37.3-.98.34-1.32.68-.34.34-.33.97-.63,1.35-.29.37-.71.65-.95,1.06-.24.4-.33.88-.52,1.32-.19.43-.48.8-.62,1.27.35.35.81.52,1.19.82.38.3.53.94.94,1.2.41.26,1.05.13,1.49.35.43.22.71.79,1.16.97.45.18.92.36,1.39.51.46.15,1.02,0,1.49.12.47.12.91.41,1.39.51.48.09.97.12,1.46.19.49.07.96.2,1.45.25.47.05.95.17,1.44.21.47.03.98-.33,1.47-.31.48.02.95.14,1.44.14.48,0,.97.24,1.46.22.48-.02.96-.19,1.44-.24.48-.05.95-.18,1.43-.26.48-.08.95-.2,1.41-.31.48-.11.98-.11,1.43-.26.46-.15.93-.32,1.36-.51.45-.2.75-.66,1.15-.9.46-.28.94-.43,1.3-.72.42-.33.81-.64,1.11-.99.33-.39.65-.79.85-1.23.2-.44.35-.93.43-1.44.07-.46-.16-.96-.17-1.49-.01-.46.32-.99.25-1.51-.07-.52-.62-.87-.81-1.3-.2-.47-.3-.93-.61-1.3-.32-.37-.71-.62-1.12-.91-.39-.28-.64-.86-1.1-1.07-.44-.2-1.04-.02-1.52-.17-.47-.14-.94-.22-1.43-.31-.48-.09-.93-.47-1.42-.53-.5-.05-1-.2-1.48-.22-.51-.02-1.01.3-1.49.31-.52,0-1.03-.3-1.49-.27M87.76,90.69c-.08.4-.2,1-.29,1.42-.09.41-.26.81-.34,1.22-.08.42-.02.87-.06,1.28-.04.49-.17.97-.2,1.46-.03.49.22.99.21,1.47,0,.49-.06.97-.05,1.46.01.49-.08.98-.05,1.47.03.49.15.97.2,1.45.06.49.04.98.12,1.46.08.48.37.92.47,1.4.1.48-.15,1.04-.03,1.51.13.47.67.82.83,1.28.15.46.14.98.32,1.43.18.45.5.84.71,1.28.21.44.29.94.52,1.37.23.43.62.76.88,1.17.25.41.16,1.06.44,1.46.28.4.92.53,1.22.92.15.19.19.88.54,1.31.39.47.82.97.96,1.05.28.18.32,0,.55-.27.32-.37.77-.59,1.08-.92.33-.36.62-.72.95-1.03.35-.33.75-.57,1.11-.85.38-.29.79-.49,1.18-.73.4-.25.61-.81,1.03-1.02.41-.2.89-.29,1.34-.45.43-.16.94-.05,1.41-.18.43-.12.85-.36,1.32-.46.44-.09.88-.25,1.37-.32.43-.07.94-.16,1.49-.21.47-.04.99.07,1.5.06.5,0,.99.01,1.49.05.51.04,1.05-.16,1.53-.06.51.1.97.39,1.41.59.49.21.88.52,1.21.87.14.15.37.61.69,1.14.22.37.46.78.68,1.16.29.51.77.84.87,1.06.2.42.03,1.02.17,1.51.13.46.67.87.73,1.37.06.49-.08,1.02-.09,1.51-.01.5,0,1.02-.09,1.5-.1.49-.62.83-.83,1.27-.21.45-.17,1.06-.51,1.42-.33.35-.74.71-1.2.95-.43.22-1.01.13-1.47.3-.46.17-.94.21-1.42.33-.47.12-.88.55-1.36.62-.48.08-.99-.05-1.48-.02-.49.04-.97.38-1.46.37-.49,0-.98-.27-1.47-.31-.49-.04-1.02.13-1.5.05-.49-.08-.94-.35-1.42-.47-.48-.12-.97-.23-1.43-.39-.47-.16-.97-.27-1.41-.47-.2-.09-.43-.7-.95-1.01-.35-.21-.77-.4-1.16-.63-.4-.23-.88-.31-1.23-.5-.6-.34-1.04-.51-1.14-.49-.29.05-.53.48-.7,1.15-.12.45-.44.94-.5,1.42-.09.64.25,1.25.23,1.51-.03.46-.18.93-.18,1.42-.01.47-.25.95-.24,1.44.01.47.42.93.45,1.42.03.47.09.94.14,1.42.05.47-.16.99-.09,1.46.07.47.02.98.11,1.45.1.47.4.9.52,1.36.12.47.2.95.35,1.4.15.46.61.8.79,1.24.18.45.39.86.6,1.29.22.43.3.92.55,1.32.26.41.64.71.93,1.08.18.23.43.6.81.99.28.28.67.5,1,.82.31.3.3.96.62,1.24.34.31.74.55,1.05.79.44.35,1,.3,1.25.39.42.16.17.05.26-.14.2-.42.43-.82.61-1.23.19-.43.19-.96.42-1.35.24-.39.68-.67,1.04-.97.33-.27.78-.37,1.26-.53.55-.18,1.05-.12,1.55-.1.55.02,1.08-.05,1.56.19.47.23.96.5,1.34.91.35.38.42.97.65,1.48.21.45.36.84.46,1.24.12.49.2.88.18,1.3-.03.48-.13.86-.33,1.25-.21.4-.33.87-.69,1.17-.33.28-.85.28-1.28.48-.4.18-.72.6-1.18.72-.43.11-.88.29-1.34.35-.44.05-1.02-.36-1.47-.35,0,.18.43.85.72,1.51.18.39.21.92.43,1.39.21.43.35.91.56,1.34.23.46.44.92.64,1.3.31.59.73.96.86,1.18.15.26.59.59.96,1.09.27.36.41.88.69,1.3.28.41.4.91.61,1.32.25.5.63.9.63,1.31,0,.48-.3.87-.91,1.05-.56.16-.98-.05-1.39-.31-.4-.25-.63-.68-.95-1.1-.31-.42-.91-.64-1.18-1.01-.27-.37-.53-.78-.81-1.2-.26-.39-.34-.91-.6-1.33-.25-.41-.52-.81-.75-1.23-.24-.43-.28-.95-.49-1.37-.22-.44-.83-.69-1.02-1.11-.23-.53-.4-1.02-.55-1.45-.18-.54-.15-1.07-.28-1.51-.15-.5-.21-.99-.45-1.45-.21-.4-.68-.63-1.07-1.07-.29-.32-.41-.91-.86-1.29-.38-.32-.92-.39-1.26-.67-.38-.32-.53-.87-.87-1.15-.37-.31-.77-.54-1.1-.85-.34-.32-.76-.54-1.08-.89-.3-.33-.7-.62-.98-1.02-.25-.36-.22-.93-.47-1.36-.22-.37-.6-.69-.83-1.14-.19-.37-.23-.86-.42-1.32-.16-.4-.67-.71-.83-1.17-.14-.42.08-.98-.06-1.43-.13-.43-.6-.78-.72-1.23-.12-.44-.16-.91-.26-1.37-.11-.45.07-.96-.03-1.41-.1-.46-.49-.85-.57-1.3-.08-.46-.23-.92-.29-1.36-.07-.47-.07-.95-.11-1.39-.05-.48.32-.97.31-1.41-.02-.5-.29-.95-.27-1.37.03-.44-.04-.92.03-1.38.07-.45.49-.83.58-1.28.09-.45.23-.87.34-1.32.11-.45.04-.93.15-1.37.12-.45.41-.93.52-1.36-.23-.4-.64-.8-.94-1.14-.3-.33-.67-.62-.99-.94-.32-.32-.63-.64-.91-.99-.31-.39-.66-.74-.94-1.14-.29-.4-.77-.68-1.03-1.09-.27-.42-.37-.94-.61-1.37-.25-.43-.58-.81-.81-1.25-.23-.44-.29-.96-.5-1.4-.2-.45-.63-.81-.81-1.27-.18-.46.01-1.05-.14-1.52-.15-.47-.36-.91-.49-1.39-.13-.47-.14-.97-.25-1.45-.1-.48-.46-.91-.55-1.4-.08-.48.19-1.02.13-1.51-.06-.49-.49-.93-.53-1.43-.04-.49-.02-.99-.04-1.48-.02-.49-.14-.98-.14-1.48,0-.49.25-.98.27-1.48.01-.49,0-.98.03-1.48.02-.47-.14-.98-.1-1.48.04-.48.26-.96.32-1.45.07-.49.21-.96.31-1.44.1-.49.15-.98.29-1.44.15-.48.49-.97.69-1.4-.33-.35-.91-.6-1.23-.95-.33-.36-.53-.81-.84-1.18-.31-.36-.5-.82-.79-1.19-.29-.38-.72-.65-.99-1.05-.26-.4-.61-.75-.84-1.18-.22-.42-.45-.85-.63-1.31-.17-.44.05-1.03-.1-1.48-.15-.45-.73-.76-.86-1.22-.13-.46-.12-.96-.23-1.42-.11-.46-.34-.9-.42-1.37-.09-.47-.08-.96-.14-1.42-.07-.47.24-.98.19-1.45-.04-.47-.34-.92-.36-1.39-.02-.47.12-.95.12-1.42,0-.47-.34-.95-.33-1.43.02-.47.02-.96.06-1.43.04-.47.55-.9.61-1.37.06-.47.06-.94.14-1.41.07-.47.16-.93.25-1.39.09-.46.2-.92.31-1.38.11-.46-.13-1.01,0-1.47.13-.46.56-.82.7-1.28.14-.45.37-.87.53-1.32.16-.45-.04-1.03.13-1.47.17-.44.29-.91.48-1.35.19-.43.77-.69.97-1.12.2-.43.13-.99.35-1.41.22-.42.57-.77.8-1.19.23-.41.53-.79.77-1.19.24-.41.56-.76.82-1.16.26-.4.37-.89.64-1.28.27-.39.59-.74.87-1.12.28-.38.52-.79.82-1.16.3-.37.49-.83.8-1.19.31-.36.92-.45,1.24-.8.32-.35.53-.8.86-1.14.33-.34.76-.58,1.1-.9.35-.32.53-.83.88-1.14.24-.21.64-.48,1.08-.85.32-.27.59-.68.97-.99.35-.28.8-.46,1.17-.75.37-.29.78-.51,1.14-.78.4-.3.75-.61,1.09-.84.5-.34.89-.7,1.15-.79.2-.07,1.75,0,1.95.07.54.15.82.58.93,1.04.1.45.16,1.06-.11,1.48-.09.14-.62.35-1.17.71-.33.22-.82.29-1.22.54-.36.23-.57.75-.94.98-.4.25-.84.38-1.18.6-.48.31-.99.41-1.21.58-.36.27-.67.64-1.04.95-.34.3-.61.7-.95,1.03-.33.32-.66.64-.99.98-.32.33-.81.52-1.12.87-.31.34-.54.77-.84,1.13-.3.36-.41.86-.7,1.23-.29.37-.69.64-.97,1.02-.28.38-.35.9-.61,1.28-.27.38-.81.58-1.07.97-.26.4-.6.74-.84,1.13-.24.4-.46.83-.68,1.23-.23.42-.06,1.03-.27,1.44-.22.42-.69.71-.88,1.12-.2.43-.43.85-.59,1.27-.17.43-.05.98-.21,1.43-.15.44-.36.86-.5,1.31-.14.44-.61.8-.73,1.25-.13.45-.04.96-.15,1.42-.11.45-.36.88-.46,1.35-.1.46-.05.95-.14,1.41-.08.46-.08.94-.15,1.41-.07.47-.11.93-.15,1.4-.05.47.03.94,0,1.41s-.15.93-.16,1.4c0,.47-.26.95-.24,1.42.02.47.12.95.16,1.41.04.47.4.9.47,1.36.07.47-.1.97,0,1.43.1.46.28.91.41,1.36.13.45.41.85.58,1.29.17.44.22.92.42,1.35.2.42.63.72.87,1.12.24.41.3.91.57,1.29.27.38.37.91.68,1.27.31.35.82.74,1.17,1.07.25-.39.44-1.01.71-1.39.28-.37.74-.59,1.04-.95.3-.35.61-.69.93-1.03.32-.34.53-.79.87-1.1.34-.31.86-.42,1.22-.71s.63-.69,1.01-.96c.38-.27.76-.53,1.15-.77.39-.24.7-.64,1.11-.86.41-.22.95-.18,1.37-.37.42-.19.74-.64,1.17-.81.43-.17.98-.01,1.42-.16.44-.14.77-.67,1.22-.79.45-.12.94-.1,1.39-.19.45-.09.94-.08,1.42-.16.46-.07.94-.08,1.41-.14.46-.06.93-.14,1.41-.18.47-.04.94-.13,1.42-.15.47-.02.95-.17,1.43-.16.47,0,.95.12,1.43.14.48.03.96.04,1.43.09.47.05.92.3,1.39.38.47.08.93.17,1.39.28.47.11.95.15,1.39.29.46.15.98.14,1.41.33.44.19.7.74,1.1.98.4.24.78.46,1.13.77.35.31.73.57,1.02.95.28.37.34.87.57,1.28.22.41.52.76.69,1.2.17.44.29.87.4,1.33.11.46.5.86.56,1.33.05.47-.3.96-.31,1.42,0,.47,0,.92-.07,1.38-.07.47.15,1,.01,1.44-.14.46-.66.74-.88,1.15-.23.44-.42.86-.7,1.26-.29.4-.47.87-.81,1.22-.33.35-.83.51-1.21.83-.38.31-.54.9-.96,1.17-.41.26-.88.46-1.32.68-.43.22-.83.57-1.29.75-.45.18-1.04,0-1.51.14-.46.14-.9.41-1.38.53-.47.11-.94.32-1.42.4-.48.08-1-.1-1.49-.04-.48.06-.95.35-1.44.38-.49.03-.99-.06-1.48-.05-.49,0-.98-.04-1.47-.05-.49-.01-.98,0-1.47-.03-.49-.03-.97-.17-1.46-.22-.49-.06-.98-.08-1.46-.15-.49-.08-.94-.3-1.42-.39-.49-.1-.99-.05-1.47-.17-.48-.12-.99-.13-1.45-.27-.48-.14-.9-.45-1.35-.6-.47-.16-.9-.41-1.34-.58-.47-.19-1.04-.1-1.47-.31-.46-.22-.71-.77-1.12-1.01-.45-.26-1-.32-1.39-.63-.39-.31-.8-.89-1.25-1.12"/><path d="M109.65,149.07c.42-.4.32-1.25,0-1.77-.31-.5-.92-1.05-1.33-1.17-.33.26-.64.68-.91.99-.27.32-.59.64-.75,1.02-.15.37-.11.68-.12,1.12.77.09.74-.2,1.51-.22.81-.03.87.28,1.6.03M107.91,113.99c-.47,0-.99.18-1.53.26-.49.07-1.02.1-1.52.23-.49.12-.96.4-1.43.56-.49.17-1.01.27-1.46.48-.49.22-.81.7-1.21.95-.2.13-.61.4-1.06.81-.31.28-.73.53-1.05.86-.33.34-.59.74-.84,1.07-.4.52-.69.96-.57,1.19.08.16.66.32,1.24.68.38.24.62.82,1.02,1.04.54.3,1.22.18,1.43.27.44.19.81.53,1.29.68.46.14.96.12,1.44.22.47.1.92.32,1.41.38.48.06.97-.08,1.46-.06.49.02.98.45,1.46.43.49-.02.94-.5,1.41-.56.49-.07,1.04.24,1.51.13.55-.13,1.17-.3,1.68-.55.52-.26.78-.86,1.01-1.42.2-.49.52-.9.58-1.34.07-.5,0-1.01-.11-1.47-.1-.46-.22-.95-.47-1.39-.22-.39-.45-.86-.78-1.25-.31-.37-.9-.42-1.22-.68-.36-.29-.66-.6-1.06-.78-.4-.17-.77-.54-1.24-.61-.41-.06-.89-.11-1.38-.1M106.46,77.56c-.47.03-.94.18-1.42.23-.47.05-.96.03-1.43.1-.47.07-.92.28-1.39.37-.47.09-.96.1-1.42.22-.46.11-.85.5-1.31.64-.46.14-.92.24-1.36.41-.45.17-.93.24-1.36.44-.44.2-.83.47-1.25.7-.42.23-.87.41-1.27.67-.4.26-.66.71-1.03,1-.37.3-.98.34-1.32.68-.34.34-.33.97-.63,1.35-.29.37-.71.65-.95,1.06-.24.4-.33.88-.52,1.32-.19.43-.48.8-.62,1.27.35.35.81.52,1.19.82.38.3.53.94.94,1.2.41.26,1.05.13,1.49.35.43.22.71.79,1.16.97.45.18.92.36,1.39.51.46.15,1.02,0,1.49.12.47.12.91.41,1.39.51.48.09.97.12,1.46.19.49.07.96.2,1.45.25.47.05.95.17,1.44.21.47.03.98-.33,1.47-.31.48.02.95.14,1.44.14.48,0,.97.24,1.46.22.48-.02.96-.19,1.44-.24.48-.05.95-.18,1.43-.26.48-.08.95-.2,1.41-.31.48-.11.98-.11,1.43-.26.46-.15.93-.32,1.36-.51.45-.2.75-.66,1.15-.9.46-.28.94-.43,1.3-.72.42-.33.81-.64,1.11-.99.33-.39.65-.79.85-1.23.2-.44.35-.93.43-1.44.07-.46-.16-.96-.17-1.49-.01-.46.32-.99.25-1.51-.07-.52-.62-.87-.81-1.3-.2-.47-.3-.93-.61-1.3-.32-.37-.71-.62-1.12-.91-.39-.28-.64-.86-1.1-1.07-.44-.2-1.04-.02-1.52-.17-.47-.14-.94-.22-1.43-.31-.48-.09-.93-.47-1.42-.53-.5-.05-1-.2-1.48-.22-.51-.02-1.01.3-1.49.31-.52,0-1.03-.3-1.49-.27M87.76,90.69c-.08.4-.2,1-.29,1.42-.09.41-.26.81-.34,1.22-.08.42-.02.87-.06,1.28-.04.49-.17.97-.2,1.46-.03.49.22.99.21,1.47,0,.49-.06.97-.05,1.46.01.49-.08.98-.05,1.47.03.49.15.97.2,1.45.06.49.04.98.12,1.46.08.48.37.92.47,1.4.1.48-.15,1.04-.03,1.51.13.47.67.82.83,1.28.15.46.14.98.32,1.43.18.45.5.84.71,1.28.21.44.29.94.52,1.37.23.43.62.76.88,1.17.25.41.16,1.06.44,1.46.28.4.92.53,1.22.92.15.19.19.88.54,1.31.39.47.82.97.96,1.05.28.18.32,0,.55-.27.32-.37.77-.59,1.08-.92.33-.36.62-.72.95-1.03.35-.33.75-.57,1.11-.85.38-.29.79-.49,1.18-.73.4-.25.61-.81,1.03-1.02.41-.2.89-.29,1.34-.45.43-.16.94-.05,1.41-.18.43-.12.85-.36,1.32-.46.44-.09.88-.25,1.37-.32.43-.07.94-.16,1.49-.21.47-.04.99.07,1.5.06.5,0,.99.01,1.49.05.51.04,1.05-.16,1.53-.06.51.1.97.39,1.41.59.49.21.88.52,1.21.87.14.15.37.61.69,1.14.22.37.46.78.68,1.16.29.51.77.84.87,1.06.2.42.03,1.02.17,1.51.13.46.67.87.73,1.37.06.49-.08,1.02-.09,1.51-.01.5,0,1.02-.09,1.5-.1.49-.62.83-.83,1.27-.21.45-.17,1.06-.51,1.42-.33.35-.74.71-1.2.95-.43.22-1.01.13-1.47.3-.46.17-.94.21-1.42.33-.47.12-.88.55-1.36.62-.48.08-.99-.05-1.48-.02-.49.04-.97.38-1.46.37-.49,0-.98-.27-1.47-.31-.49-.04-1.02.13-1.5.05-.49-.08-.94-.35-1.42-.47-.48-.12-.97-.23-1.43-.39-.47-.16-.97-.27-1.41-.47-.2-.09-.43-.7-.95-1.01-.35-.21-.77-.4-1.16-.63-.4-.23-.88-.31-1.23-.5-.6-.34-1.04-.51-1.14-.49-.29.05-.53.48-.7,1.15-.12.45-.44.94-.5,1.42-.09.64.25,1.25.23,1.51-.03.46-.18.93-.18,1.42-.01.47-.25.95-.24,1.44.01.47.42.93.45,1.42.03.47.09.94.14,1.42.05.47-.16.99-.09,1.46.07.47.02.98.11,1.45.1.47.4.9.52,1.36.12.47.2.95.35,1.4.15.46.61.8.79,1.24.18.45.39.86.6,1.29.22.43.3.92.55,1.32.26.41.64.71.93,1.08.18.23.43.6.81.99.28.28.67.5,1,.82.31.3.3.96.62,1.24.34.31.74.55,1.05.79.44.35,1,.3,1.25.39.42.16.17.05.26-.14.2-.42.43-.82.61-1.23.19-.43.19-.96.42-1.35.24-.39.68-.67,1.04-.97.33-.27.78-.37,1.26-.53.55-.18,1.05-.12,1.55-.1.55.02,1.08-.05,1.56.19.47.23.96.5,1.34.91.35.38.42.97.65,1.48.21.45.36.84.46,1.24.12.49.2.88.18,1.3-.03.48-.13.86-.33,1.25-.21.4-.33.87-.69,1.17-.33.28-.85.28-1.28.48-.4.18-.72.6-1.18.72-.43.11-.88.29-1.34.35-.44.05-1.02-.36-1.47-.35,0,.18.43.85.72,1.51.18.39.21.92.43,1.39.21.43.35.91.56,1.34.23.46.44.92.64,1.3.31.59.73.96.86,1.18.15.26.59.59.96,1.09.27.36.41.88.69,1.3.28.41.4.91.61,1.32.25.5.63.9.63,1.31,0,.48-.3.87-.91,1.05-.56.16-.98-.05-1.39-.31-.4-.25-.63-.68-.95-1.1-.31-.42-.91-.64-1.18-1.01-.27-.37-.53-.78-.81-1.2-.26-.39-.34-.91-.6-1.33-.25-.41-.52-.81-.75-1.23-.24-.43-.28-.95-.49-1.37-.22-.44-.83-.69-1.02-1.11-.23-.53-.4-1.02-.55-1.45-.18-.54-.15-1.07-.28-1.51-.15-.5-.21-.99-.45-1.45-.21-.4-.68-.63-1.07-1.07-.29-.32-.41-.91-.86-1.29-.38-.32-.92-.39-1.26-.67-.38-.32-.53-.87-.87-1.15-.37-.31-.77-.54-1.1-.85-.34-.32-.76-.54-1.08-.89-.3-.33-.7-.62-.98-1.02-.25-.36-.22-.93-.47-1.36-.22-.37-.6-.69-.83-1.14-.19-.37-.23-.86-.42-1.32-.16-.4-.67-.71-.83-1.17-.14-.42.08-.98-.06-1.43-.13-.43-.6-.78-.72-1.23-.12-.44-.16-.91-.26-1.37-.11-.45.07-.96-.03-1.41-.1-.46-.49-.85-.57-1.3-.08-.46-.23-.92-.29-1.36-.07-.47-.07-.95-.11-1.39-.05-.48.32-.97.31-1.41-.02-.5-.29-.95-.27-1.37.03-.44-.04-.92.03-1.38.07-.45.49-.83.58-1.28.09-.45.23-.87.34-1.32.11-.45.04-.93.15-1.37.12-.45.41-.93.52-1.36-.23-.4-.64-.8-.94-1.14-.3-.33-.67-.62-.99-.94-.32-.32-.63-.64-.91-.99-.31-.39-.66-.74-.94-1.14-.29-.4-.77-.68-1.03-1.09-.27-.42-.37-.94-.61-1.37-.25-.43-.58-.81-.81-1.25-.23-.44-.29-.96-.5-1.4-.2-.45-.63-.81-.81-1.27-.18-.46.01-1.05-.14-1.52-.15-.47-.36-.91-.49-1.39-.13-.47-.14-.97-.25-1.45-.1-.48-.46-.91-.55-1.4-.08-.48.19-1.02.13-1.51-.06-.49-.49-.93-.53-1.43-.04-.49-.02-.99-.04-1.48-.02-.49-.14-.98-.14-1.48,0-.49.25-.98.27-1.48.01-.49,0-.98.03-1.48.02-.47-.14-.98-.1-1.48.04-.48.26-.96.32-1.45.07-.49.21-.96.31-1.44.1-.49.15-.98.29-1.44.15-.48.49-.97.69-1.4-.33-.35-.91-.6-1.23-.95-.33-.36-.53-.81-.84-1.18-.31-.36-.5-.82-.79-1.19-.29-.38-.72-.65-.99-1.05-.26-.4-.61-.75-.84-1.18-.22-.42-.45-.85-.63-1.31-.17-.44.05-1.03-.1-1.48-.15-.45-.73-.76-.86-1.22-.13-.46-.12-.96-.23-1.42-.11-.46-.34-.9-.42-1.37-.09-.47-.08-.96-.14-1.42-.07-.47.24-.98.19-1.45-.04-.47-.34-.92-.36-1.39-.02-.47.12-.95.12-1.42,0-.47-.34-.95-.33-1.43.02-.47.02-.96.06-1.43.04-.47.55-.9.61-1.37.06-.47.06-.94.14-1.41.07-.47.16-.93.25-1.39.09-.46.2-.92.31-1.38.11-.46-.13-1.01,0-1.47.13-.46.56-.82.7-1.28.14-.45.37-.87.53-1.32.16-.45-.04-1.03.13-1.47.17-.44.29-.91.48-1.35.19-.43.77-.69.97-1.12.2-.43.13-.99.35-1.41.22-.42.57-.77.8-1.19.23-.41.53-.79.77-1.19.24-.41.56-.76.82-1.16.26-.4.37-.89.64-1.28.27-.39.59-.74.87-1.12.28-.38.52-.79.82-1.16.3-.37.49-.83.8-1.19.31-.36.92-.45,1.24-.8.32-.35.53-.8.86-1.14.33-.34.76-.58,1.1-.9.35-.32.53-.83.88-1.14.24-.21.64-.48,1.08-.85.32-.27.59-.68.97-.99.35-.28.8-.46,1.17-.75.37-.29.78-.51,1.14-.78.4-.3.75-.61,1.09-.84.5-.34.89-.7,1.15-.79.2-.07,1.75,0,1.95.07.54.15.82.58.93,1.04.1.45.16,1.06-.11,1.48-.09.14-.62.35-1.17.71-.33.22-.82.29-1.22.54-.36.23-.57.75-.94.98-.4.25-.84.38-1.18.6-.48.31-.99.41-1.21.58-.36.27-.67.64-1.04.95-.34.3-.61.7-.95,1.03-.33.32-.66.64-.99.98-.32.33-.81.52-1.12.87-.31.34-.54.77-.84,1.13-.3.36-.41.86-.7,1.23-.29.37-.69.64-.97,1.02-.28.38-.35.9-.61,1.28-.27.38-.81.58-1.07.97-.26.4-.6.74-.84,1.13-.24.4-.46.83-.68,1.23-.23.42-.06,1.03-.27,1.44-.22.42-.69.71-.88,1.12-.2.43-.43.85-.59,1.27-.17.43-.05.98-.21,1.43-.15.44-.36.86-.5,1.31-.14.44-.61.8-.73,1.25-.13.45-.04.96-.15,1.42-.11.45-.36.88-.46,1.35-.1.46-.05.95-.14,1.41-.08.46-.08.94-.15,1.41-.07.47-.11.93-.15,1.4-.05.47.03.94,0,1.41s-.15.93-.16,1.4c0,.47-.26.95-.24,1.42.02.47.12.95.16,1.41.04.47.4.9.47,1.36.07.47-.1.97,0,1.43.1.46.28.91.41,1.36.13.45.41.85.58,1.29.17.44.22.92.42,1.35.2.42.63.72.87,1.12.24.41.3.91.57,1.29.27.38.37.91.68,1.27.31.35.82.74,1.17,1.07.25-.39.44-1.01.71-1.39.28-.37.74-.59,1.04-.95.3-.35.61-.69.93-1.03.32-.34.53-.79.87-1.1.34-.31.86-.42,1.22-.71s.63-.69,1.01-.96c.38-.27.76-.53,1.15-.77.39-.24.7-.64,1.11-.86.41-.22.95-.18,1.37-.37.42-.19.74-.64,1.17-.81.43-.17.98-.01,1.42-.16.44-.14.77-.67,1.22-.79.45-.12.94-.1,1.39-.19.45-.09.94-.08,1.42-.16.46-.07.94-.08,1.41-.14.46-.06.93-.14,1.41-.18.47-.04.94-.13,1.42-.15.47-.02.95-.17,1.43-.16.47,0,.95.12,1.43.14.48.03.96.04,1.43.09.47.05.92.3,1.39.38.47.08.93.17,1.39.28.47.11.95.15,1.39.29.46.15.98.14,1.41.33.44.19.7.74,1.1.98.4.24.78.46,1.13.77.35.31.73.57,1.02.95.28.37.34.87.57,1.28.22.41.52.76.69,1.2.17.44.29.87.4,1.33.11.46.5.86.56,1.33.05.47-.3.96-.31,1.42,0,.47,0,.92-.07,1.38-.07.47.15,1,.01,1.44-.14.46-.66.74-.88,1.15-.23.44-.42.86-.7,1.26-.29.4-.47.87-.81,1.22-.33.35-.83.51-1.21.83-.38.31-.54.9-.96,1.17-.41.26-.88.46-1.32.68-.43.22-.83.57-1.29.75-.45.18-1.04,0-1.51.14-.46.14-.9.41-1.38.53-.47.11-.94.32-1.42.4-.48.08-1-.1-1.49-.04-.48.06-.95.35-1.44.38-.49.03-.99-.06-1.48-.05-.49,0-.98-.04-1.47-.05-.49-.01-.98,0-1.47-.03-.49-.03-.97-.17-1.46-.22-.49-.06-.98-.08-1.46-.15-.49-.08-.94-.3-1.42-.39-.49-.1-.99-.05-1.47-.17-.48-.12-.99-.13-1.45-.27-.48-.14-.9-.45-1.35-.6-.47-.16-.9-.41-1.34-.58-.47-.19-1.04-.1-1.47-.31-.46-.22-.71-.77-1.12-1.01-.45-.26-1-.32-1.39-.63-.39-.31-.8-.89-1.25-1.12"/></svg>