<?xml version="1.0" encoding="UTF-8"?><svg id="Layer_1" xmlns="http://www.w3.org/2000/svg" viewBox="0 0 200 200"><path d="M137.2,145.84c-.33-.05-.24-.73-.38-.43-.22.44.4.45.03.77-.7.6-.74.56-1.64.35-.71-.17-.43-.42-.87-1.01-.14-.47-.46-.8-.59-1.27-.14-.47-.33-.92-.46-1.39-.13-.47-.13-.98-.26-1.45-.13-.47-.57-.85-.71-1.32-.13-.47.15-1.06.02-1.53-.13-.47-.36-.91-.5-1.38s-.25-.94-.38-1.41c-.13-.47-.34-.92-.47-1.39-.13-.47-.17-.97-.3-1.44-.13-.47-.24-.95-.38-1.42-.13-.47-.6-.85-.73-1.31-.13-.47.12-1.05-.02-1.52-.14-.47-.65-.83-.79-1.3-.14-.47-.07-1-.21-1.47-.14-.47-.52-.86-.66-1.33-.14-.47.1-1.05-.04-1.52s-.31-.93-.46-1.39c-.14-.47-.53-.86-.67-1.33-.14-.47-.15-.97-.3-1.44-.15-.47-.29-.93-.44-1.4-.15-.47-.17-.97-.32-1.44-.15-.47-.46-.88-.61-1.34-.15-.45-.15-.96-.3-1.41-.15-.45-.6-.8-.76-1.25-.16-.45-.1-.97-.26-1.42-.16-.45-.62-.79-.78-1.24-.16-.45.05-1.03-.11-1.48-.16-.45-.34-.89-.5-1.34-.16-.45-.66-.77-.83-1.22-.16-.45-.02-1.01-.18-1.45-.16-.45-.38-.87-.54-1.32s-.16-.95-.31-1.4c-.15-.45-.53-.83-.67-1.28-.15-.45-.15-.95-.29-1.4-.14-.44-.61-.78-.74-1.23-.13-.44-.09-.94-.22-1.39-.12-.44-.05-.94-.17-1.4-.12-.45-.44-.84-.56-1.29-.12-.45-.11-.93-.22-1.38-.11-.45-.51-.83-.62-1.28-.11-.45-.03-.95-.15-1.4-.12-.45-.37-.87-.48-1.32-.12-.45.04-.98-.09-1.42-.12-.45-.56-.81-.68-1.26-.13-.45-.04-.96-.17-1.4-.13-.45-.11-.94-.25-1.38-.14-.44-.65-.77-.8-1.2-.15-.44.05-1.01-.11-1.44-.17-.44-.44-.83-.62-1.25-.12-.3-.23-.67-.65-.73.08.47.23.93.31,1.4.08.47-.04.98.04,1.45.08.47.1.95.18,1.42.08.47.33.91.41,1.38s-.05.98.03,1.45c.08.47.41.9.5,1.37s.06.96.14,1.43c.08.47.32.91.4,1.38.08.47-.03.98.06,1.45.08.47.17.94.25,1.41.08.47.35.91.43,1.38.08.47.29.92.38,1.39.08.47.05.96.14,1.43.09.47.1.95.19,1.42.08.47.09.95.17,1.42.08.47.34.91.42,1.38.09.47-.11.99-.02,1.46.08.47.51.88.6,1.35.08.47.18.94.26,1.41.08.47-.04.98.05,1.45.1.54-.12,1.16-.03,1.66.08.47.52.89.61,1.36.09.48,0,.98.09,1.46s.04.97.13,1.45c.09.47.49.89.58,1.36.09.47.09.96.18,1.44.09.47-.1,1.01,0,1.48.09.47.32.92.41,1.4.1.47.47.89.56,1.36.1.47-.27,1.04-.18,1.51.1.47.32.92.41,1.39.1.47.48.89.57,1.36.09.47-.12,1.01-.03,1.48.09.47.33.92.43,1.39.09.47.37.91.46,1.38.09.47.09.97.18,1.44.09.47.28.93.37,1.41.09.47.08.97.16,1.44.09.48.16.95.24,1.43.08.47-.11,1-.03,1.47.08.48.43.91.51,1.38.08.48.11.96.18,1.44.08.48-.12.99-.05,1.47.07.48.49.9.56,1.38.07.48.19.95.26,1.43.06.48-.17.99-.11,1.47.06.48.33.93.39,1.41.05.48.22.95.27,1.43.05.48-.1,1-.06,1.48-.37-.21-1.1-.1-1.76.1-.67.21-1.4.52-1.69,0-.19-.7.24-.79.12-1.5-.13-.71-.26-.69-.39-1.4-.13-.71-.22-.69-.34-1.41-.13-.71-.22-.69-.35-1.4-.13-.71-.1-.72-.22-1.43-.13-.71-.15-.71-.28-1.42-.13-.71-.04-.73-.16-1.44-.13-.71-.33-.68-.45-1.38-.13-.71-.09-.72-.22-1.43s.18-.76.05-1.48c-.13-.71-.14-.71-.26-1.42-.13-.71-.49-.65-.61-1.36-.13-.71,0-.73-.13-1.44s-.25-.69-.38-1.4.15-.76.02-1.47c-.13-.71-.19-.7-.31-1.41-.13-.71-.25-.69-.38-1.4-.13-.71.05-.74-.07-1.46-.13-.71.08-.75-.05-1.46-.13-.71-.13-.71-.26-1.42-.13-.71-.44-.66-.57-1.37-.13-.71-.12-.71-.24-1.42-.13-.71-.26-.69-.39-1.4-.13-.71.01-.73-.12-1.44-.12-.71-.21-.69-.33-1.4-.13-.71-.05-.72-.18-1.43-.13-.71-.17-.7-.3-1.41-.13-.71.11-.75-.02-1.46-.13-.71-.34-.67-.46-1.39s-.26-.69-.39-1.4c-.13-.71.22-.77.09-1.48-.13-.71-.04-.72-.17-1.43-.13-.71-.54-.64-.66-1.35-.13-.71.31-.79.18-1.5-.13-.71-.38-.67-.51-1.38-.13-.71-.04-.73-.16-1.44-.13-.71-.36-.67-.49-1.38-.13-.71-.05-.72-.17-1.44-.13-.71.03-.74-.09-1.45-.13-.71-.1-.72-.23-1.43-.13-.71-.14-.71-.27-1.42-.13-.71-.14-.71-.26-1.42-.13-.71-.3-.68-.43-1.39-.13-.71.07-.75-.05-1.46-.13-.71,0-.74-.12-1.45-.13-.71-.15-.71-.28-1.42-.13-.71-.26-.69-.38-1.4-.13-.71-.29-.68-.42-1.4-.13-.71-.15-.71-.28-1.42-.13-.71.22-.77.1-1.48-.13-.71-.53-.64-.65-1.36-.13-.71.26-.78.14-1.49-.13-.71-.31-.68-.43-1.39-.13-.71-.26-.69-.38-1.41-.13-.71.08-.75-.05-1.46-.13-.72-.24-.7-.37-1.41q-.13-.72-.25-1.43c-.13-.72.47-1.57-.24-1.44-.72.13-.15.76-.09,1.49s.42.7.48,1.42c.06.73,0,.73.07,1.46.06.73-.01.74.05,1.46.06.73.21.72.27,1.44.06.73-.11.74-.05,1.47.06.73-.11.74-.05,1.47.06.73.07.73.13,1.46.06.73.11.72.17,1.45.06.73.31.71.37,1.44.06.73-.07.74-.01,1.47.06.73-.17.75-.11,1.48.06.73.18.72.24,1.45.06.73-.04.74.02,1.47.06.73.5.69.56,1.42.06.73-.09.74-.03,1.48.06.73.14.72.2,1.46.06.73.12.72.2,1.45.07.47-.17.98-.1,1.45.07.47.32.92.38,1.39.07.47.05.96.11,1.43.06.47-.05.97.01,1.44.06.47.35.92.41,1.39.06.47.1.95.17,1.43.06.47.28.93.34,1.4.06.47-.27,1-.21,1.47.06.47.12.95.18,1.42.06.47.17.94.23,1.42.06.47.17.94.23,1.42.06.47.34.92.4,1.4.06.47-.19.99-.13,1.46.06.47.03.96.09,1.43.06.47.35.92.4,1.39.06.48.14.95.2,1.42.06.47.33.92.39,1.4.06.47-.3,1-.24,1.47.06.47.21.94.27,1.41.06.47.32.92.38,1.4.06.47.06.96.11,1.43.06.47.11.95.17,1.42.06.47.21.94.27,1.41.06.47-.1.98-.04,1.45.06.47.13.95.18,1.42.06.47.14.95.2,1.42.06.47.26.93.32,1.41.06.47.16.94.22,1.42s-.08.97-.02,1.45c.06.47.1.95.16,1.43.06.47.34.92.4,1.39.06.47.17.94.23,1.42.06.47-.11.99-.03,1.48.08.47.28.93.38,1.42.09.48.26.94.35,1.42.1.48.2.96.29,1.44.09.49-.06,1.01.02,1.49.08.49.05.98.1,1.46.06.5.49.95.51,1.42.03.58.06,1.05.02,1.41-.05.55-.36.92-.74,1.22-.28.22-.68.23-1.23.45-.21-.34-.54-.57-.85-.82-.07-.06-.38.22-.42.18-.27-.23-.67-.73-.84-1.4-.13-.51.15-1.15.07-1.67-.11-.65-.24-1.23-.3-1.59-.08-.47-.11-.94-.18-1.41-.08-.47-.53-.87-.61-1.34-.08-.47.14-.99.07-1.45-.07-.47-.33-.91-.4-1.38-.07-.47-.02-.96-.09-1.43-.07-.47-.42-.9-.49-1.37-.07-.47.19-.99.13-1.46-.07-.47-.1-.95-.16-1.42-.06-.47-.5-.89-.56-1.36-.06-.47.14-.97.08-1.45-.06-.47.06-.96,0-1.43-.06-.47-.32-.92-.38-1.39-.06-.47-.28-.92-.33-1.4-.06-.47.29-.99.24-1.46-.06-.47-.49-.9-.55-1.37-.05-.47-.13-.94-.18-1.41-.05-.47.15-.97.09-1.44-.05-.47-.44-.91-.49-1.38-.05-.47-.09-.95-.14-1.42-.05-.47-.11-.94-.16-1.42-.05-.47-.01-.95-.06-1.43-.05-.47.24-.98.19-1.46-.05-.47-.28-.93-.33-1.4-.05-.47,0-.96-.06-1.43-.05-.47-.17-.94-.22-1.41s.06-.96,0-1.44c-.06-.47-.21-.93-.26-1.4-.06-.47-.36-.91-.41-1.39-.06-.47.05-.96,0-1.43-.06-.47-.15-.94-.21-1.41-.06-.47-.26-.92-.32-1.39-.06-.47-.05-.95-.11-1.42-.06-.47-.11-.94-.17-1.41-.07-.47-.34-.91-.41-1.38s.31-1,.24-1.47c-.07-.47-.2-.93-.27-1.4-.07-.47-.49-.88-.57-1.35-.07-.47.02-.96-.05-1.43-.02-.48.03-.96,0-1.43-.03-.48-.23-.94-.27-1.41-.04-.47-.16-.94-.2-1.42-.04-.47.34-.98.3-1.46-.04-.47-.56-.9-.6-1.38s.35-.99.3-1.46c-.05-.47-.31-.93-.35-1.4-.05-.47.11-.97.07-1.44-.04-.47-.32-.93-.36-1.4-.04-.47.06-.96.02-1.43-.04-.47.03-.96-.01-1.43-.04-.47-.29-.93-.33-1.41-.03-.47-.24-.94-.27-1.41-.03-.47.36-.97.33-1.45-.03-.47-.44-.93-.46-1.41-.01-.29.33-.91-.09-.85-.05.45-.31.91-.33,1.36-.02.46.37.93.37,1.38-.01.46-.4.9-.41,1.36s.39.92.38,1.37c-.01.46-.16.91-.19,1.36-.03.49.11.98.09,1.47-.03.49-.32.96-.34,1.45-.02.49.03.98.01,1.47-.02.49-.28.97-.29,1.45-.02.49.38.99.37,1.48-.01.49-.32.97-.33,1.46-.01.49-.08.98-.1,1.46-.01.49.08.98.07,1.47,0,.49.28.98.27,1.47,0,.49-.16.97-.17,1.46,0,.49-.05.98-.06,1.46,0,.49-.24.97-.25,1.46,0,.49.14.98.13,1.47,0,.49.12.98.11,1.47,0,.49-.03.98-.04,1.46,0,.49,0,.98-.02,1.46s-.12.97-.13,1.46c-.01.49-.19.97-.2,1.46-.01.49.25.98.24,1.47-.01.49-.17.97-.18,1.45s-.02.97-.03,1.46c-.01.49-.14.97-.15,1.45-.01.49.05.97.04,1.46-.01.49.22.98.21,1.46s-.42.96-.44,1.44c-.02.49-.01.97-.03,1.46-.02.49.1.97.09,1.46-.02.49-.2.96-.22,1.45s.05.97.04,1.46c-.02.49.23.98.21,1.46-.02.49-.04.97-.06,1.46-.02.49-.32.96-.34,1.44-.02.49.17.98.15,1.46-.02.48-.27.96-.29,1.45-.02.49.16.98.14,1.46-.02.49-.13.97-.15,1.45-.02.48.02.97,0,1.46-.02.49-.16.97-.18,1.45-.02.49.18.98.16,1.46-.02.49-.03.97-.05,1.46-.02.49-.13.96-.16,1.45-.02.49-.25.96-.27,1.44-.02.49,0,.97-.03,1.46-.02.48-.05.97-.07,1.45-.02.49.25.98.23,1.47-.02.49-.09.97-.11,1.45-.02.48-.2.96-.22,1.45-.02.49.08.98.06,1.46-.02.49-.2.96-.22,1.45-.02.44-.14.88-.1,1.28.04.41.44.81.4,1.24-.03.38-.28.7-.48,1.13-.31.08-.23-.07-.54.02-.22.47-.9.31-1.48.07-.5-.21-1.05-.6-1.22-1.02-.11-.27-.13-.79-.17-1.41-.03-.42.16-.91.15-1.41,0-.46-.04-.94-.03-1.41,0-.49.1-.97.11-1.41.02-.58-.16-1.08-.15-1.41.01-.48,0-.97.02-1.45.02-.48.26-.96.27-1.44.02-.48-.43-.99-.41-1.47.02-.48.09-.97.12-1.45.02-.48.35-.95.37-1.44.02-.48-.06-.97-.04-1.46.02-.48-.14-.98-.11-1.46.02-.48.34-.95.36-1.44.03-.48-.25-.98-.23-1.47.03-.48.12-.96.15-1.45.03-.48.4-.95.42-1.43.03-.48-.06-.97-.04-1.46.03-.48-.3-.99-.28-1.47.03-.48.3-.96.33-1.44.02-.48.22-.96.24-1.45.02-.48.05-.97.07-1.45.02-.48-.38-.98-.36-1.47.02-.48.38-.96.4-1.44.02-.48.03-.97.05-1.45.01-.48-.18-.98-.17-1.46.01-.49.07-.97.08-1.45.01-.48.3-.96.31-1.45.01-.48-.28-.98-.27-1.46.01-.49.23-.96.24-1.45.01-.48-.21-.98-.2-1.46.01-.49,0-.97.01-1.46.01-.49.32-.96.33-1.45.01-.48-.2-.97-.18-1.46s.18-.97.19-1.45c.01-.48.16-.97.17-1.45.01-.49-.37-.98-.36-1.46.01-.49.16-.97.17-1.45.01-.49.25-.96.26-1.45s-.09-.97-.07-1.46-.1-.97-.08-1.46c.01-.49-.01-.97,0-1.46.01-.49.09-.97.11-1.45.01-.49-.08-.97-.07-1.46.01-.49.25-.96.26-1.45.01-.49.03-.97.04-1.45.01-.49-.04-.97-.02-1.46.01-.49.04-.97.06-1.46.01-.48-.24-.98-.23-1.46.01-.49.09-.97.1-1.45.02-.49.02-.97.04-1.46.02-.49.05-.97.07-1.45.02-.49,0-.97.01-1.46.02-.49.14-.96.16-1.45,0-.15.3-.64.37-1.23.05-.41.07-.87.1-1.27.05-.66,0-1.15-.18-1.15-.13.46-.4.85-.53,1.31-.13.46-.03.99-.16,1.45-.13.46-.54.84-.67,1.3-.13.46.05,1.01-.08,1.47-.13.46-.51.85-.64,1.31-.13.46-.18.94-.31,1.4-.14.46-.36.89-.49,1.35-.14.46-.23.93-.37,1.39-.14.46-.11.96-.25,1.42-.14.46-.43.87-.57,1.33-.14.46-.15.95-.29,1.41-.14.46-.51.85-.64,1.3-.14.46-.21.93-.35,1.39-.14.46-.47.86-.61,1.31-.14.46.1,1.03-.04,1.49-.14.46-.57.83-.71,1.28-.14.46-.14.96-.28,1.41-.14.46-.17.95-.31,1.41-.14.46-.47.86-.61,1.32-.14.46-.15.95-.29,1.41-.14.46-.5.85-.64,1.3-.14.46-.12.96-.26,1.42-.14.46-.41.88-.54,1.33-.14.46-.22.93-.36,1.39-.14.46-.07.98-.2,1.44-.14.46-.53.84-.67,1.3-.13.46-.29.91-.43,1.37-.14.46.06,1.01-.08,1.47-.13.46-.27.92-.4,1.38-.13.46-.2.94-.33,1.4-.13.47-.69.81-.82,1.28-.13.47-.07.99-.21,1.45-.13.47,0,1.01-.13,1.47-.13.47-.62.83-.75,1.3-.13.47-.09.98-.22,1.45-.13.47-.21.95-.34,1.41-.13.47-.49.87-.62,1.34-.13.47.11,1.03-.02,1.5-.13.47-.59.85-.71,1.31-.13.47-.26.93-.39,1.4-.12.47-.14.97-.26,1.43s-.41.89-.54,1.36c-.12.47-.12.97-.25,1.44-.12.47-.12.97-.25,1.44-.12.47-.55.86-.67,1.33-.12.47-.24.94-.36,1.41-.12.47.21,1.06.08,1.53-.13.47-.38.9-.51,1.37-.13.47-.6.84-.73,1.31-.13.47.15,1.04.02,1.51-.13.47-.33.91-.46,1.38-.13.47-.39.9-.52,1.36-.13.47-.06.99-.19,1.46-.13.47-.38.9-.51,1.37-.13.47-.2.95-.33,1.42-.13.47-.37.9-.5,1.37s-.43.88-.56,1.35c-.14.47-.03,1-.17,1.47-.14.46-.4.89-.54,1.35-.14.47-.06,1.13-.2,1.6-.36.31-.66.53-1.04.24-.38-.29.4-.58.18-1-.74-.22-.4.63-1.07.6-.7-.03-.6-.95-1.33-1.23.14-.47.31-.92.45-1.4.14-.47.28-.94.41-1.42.13-.47.09-1,.21-1.47.13-.48.21-.96.34-1.44s.63-.85.75-1.33c.12-.48.17-.97.29-1.45s.14-.98.26-1.46c.12-.48.3-.94.42-1.42.12-.48.19-.97.31-1.45.12-.48-.06-1.03.06-1.51.12-.48.37-.92.49-1.4.12-.48.18-.97.3-1.45.13-.48.43-.9.56-1.38.12-.46.47-.86.6-1.32.13-.46-.09-1.01.04-1.47.13-.46.5-.85.63-1.31.13-.46.2-.93.33-1.39.13-.46.33-.89.47-1.35.13-.46.38-.88.51-1.34.13-.46.26-.91.39-1.37.13-.46.07-.97.2-1.43.13-.46.35-.89.48-1.35.13-.46,0-.99.14-1.45.13-.46.6-.82.74-1.27.14-.46-.1-1.02.03-1.48.14-.46.47-.85.61-1.31.14-.46.27-.91.41-1.37.14-.46.31-.9.44-1.36.14-.45.32-.9.46-1.35s.35-.89.49-1.34c.14-.45.27-.91.41-1.37.14-.46.31-.9.44-1.36.14-.45.22-.93.36-1.38.14-.46.14-.95.28-1.41.14-.45.28-.91.42-1.36.14-.46.44-.86.58-1.31s.02-.99.16-1.44c.14-.46.17-.94.31-1.4.14-.46.47-.85.61-1.31.14-.46.08-.97.22-1.43.14-.46.59-.82.73-1.27.14-.46.09-.97.23-1.42.14-.46.25-.92.39-1.37.14-.46.2-.93.34-1.39.14-.46.53-.83.67-1.29.14-.46.4-.88.53-1.33.14-.46.03-.98.17-1.44.13-.46.38-.88.51-1.34.14-.46.13-.96.26-1.41.13-.46.11-.96.24-1.41s.47-.85.6-1.31c.13-.46.23-.93.36-1.38.13-.46.43-.87.56-1.33.13-.46.33-.9.46-1.35.13-.46-.1-1.02.03-1.47.13-.46.63-.81.76-1.27.13-.46.1-.96.22-1.42.13-.46.26-.91.39-1.37.12-.46.35-.89.47-1.35.11-.42-.03-.94.1-1.39.13-.45.41-.86.5-1.28.05-.24.2-.85-.23-.79-.4.59-.43.6-.69,1.27-.26.67.08.8-.18,1.47-.26.67-.38.62-.64,1.28-.26.66-.41.61-.67,1.27-.26.66-.2.69-.46,1.35-.26.66-.4.61-.66,1.27-.26.67.13.82-.13,1.48-.26.67-.38.62-.64,1.29-.26.67-.31.65-.57,1.31-.26.67-.22.68-.48,1.35-.26.67-.41.61-.67,1.27-.26.67.06.79-.19,1.46-.26.67-.29.65-.55,1.32-.26.67-.66.51-.92,1.18-.26.67.09.8-.17,1.47-.26.67-.24.68-.49,1.34-.26.67-.22.68-.48,1.35-.26.67-.47.58-.73,1.25-.26.67-.44.6-.69,1.27-.26.67-.16.71-.42,1.37-.26.67-.33.64-.59,1.31-.26.67.1.8-.16,1.47-.26.67-.42.6-.68,1.27q-.26.67-.52,1.34c-.26.67-.33.64-.59,1.31-.26.67-.26.67-.52,1.33-.26.67-.15.71-.41,1.38-.26.67-.34.64-.6,1.3-.26.67-.48.59-.74,1.25-.26.67-.1.73-.36,1.4-.26.67-.25.68-.5,1.35-.15.46-.04,1.01-.19,1.47-.15.46-.66.81-.81,1.27-.15.46-.08.99-.23,1.45-.15.46-.38.9-.53,1.36-.15.46-.05,1-.2,1.46-.15.46-.29.93-.44,1.39-.15.46-.32.92-.47,1.38-.15.46-.41.89-.56,1.35-.15.46-.64.81-.79,1.27s.13,1.06-.02,1.52c-.15.46-.65.81-.8,1.27-.15.46-.19.96-.34,1.42-.15.46-.25.94-.4,1.4-.15.46-.55.84-.7,1.3-.15.46.11,1.06-.05,1.52-.15.46-.4.89-.55,1.35-.15.46-.39.89-.55,1.35-.15.46-.47.87-.62,1.33-.15.46.02,1.02-.14,1.49-.15.46-.62.82-.77,1.28-.15.46-.14.97-.29,1.43-.15.46-.04,1.01-.19,1.47-.15.46-.39.89-.54,1.35-.15.46-.63.82-.77,1.28-.15.46-.15.97-.3,1.43-.15.46-.13.98-.28,1.44-.15.46-.33.91-.48,1.37-.15.46-.38.9-.53,1.36-.15.46-.2.95-.35,1.42-.14.46-.27.93-.42,1.39-.14.46-.32.91-.47,1.38-.14.46-.55.85-.69,1.31-.14.46.15,1.06,0,1.53-.15.49-.84.85-1.38,1.02-.55.18-1.18.11-1.58-.18-.07-.05-.6-1.52-.61-1.6-.04-.18.04-.68.25-1.42.12-.42.1-.95.26-1.48.14-.45.23-.95.4-1.44.15-.46.58-.85.74-1.33.16-.48.17-1.01.33-1.47.17-.49.4-.94.56-1.39.18-.51.24-1.03.39-1.45.22-.63.62-1.05.71-1.34.14-.46.22-.94.37-1.4.14-.46.18-.95.33-1.41.14-.46.32-.91.47-1.37.15-.46.16-.96.31-1.42.15-.46.19-.95.34-1.41.15-.46.44-.87.58-1.33.15-.46.36-.9.51-1.36.15-.46.3-.92.45-1.38s.13-.97.28-1.43c.15-.46.3-.92.45-1.38.15-.46.42-.88.57-1.34.15-.46.36-.9.51-1.35.15-.46.44-.87.59-1.33.15-.46.24-.94.39-1.39.15-.46.21-.95.36-1.4.15-.46.42-.88.58-1.33.15-.46.33-.91.49-1.36s.09-.99.25-1.44c.16-.46.38-.89.53-1.35.15-.46.42-.88.58-1.33.16-.46.38-.89.53-1.35.16-.46.28-.92.44-1.38.16-.46-.03-1.03.13-1.49.16-.46.61-.81.77-1.26.16-.46.11-.98.27-1.44.16-.46.27-.93.43-1.38.16-.45.45-.86.61-1.32.16-.45.19-.96.35-1.41.16-.45.67-.79.83-1.24.16-.45.18-.96.35-1.41.16-.45.28-.92.45-1.38.16-.45.15-.97.32-1.42.17-.45.29-.92.46-1.37.17-.45.34-.9.51-1.36.17-.45.41-.88.58-1.33.17-.45.7-.77.87-1.22.17-.45.18-.96.35-1.41.17-.45.27-.93.44-1.38.17-.45.47-.85.64-1.3.17-.45.08-1,.25-1.45.17-.45.42-.87.6-1.32.17-.45.39-.88.56-1.33.17-.45.32-.91.49-1.36.17-.45.37-.89.54-1.34.18-.45.36-.9.54-1.34.18-.45.6-.8.78-1.25.18-.45-.07-1.06.11-1.51s.78-.73.95-1.18c.18-.45-.05-1.06.13-1.51.18-.45.66-.77.84-1.22s.1-1,.28-1.45c.18-.45.73-.74.91-1.19s-.05-1.06.13-1.51c.18-.45.77-.72.96-1.17.19-.45.15-.98.33-1.43.19-.44.47-.85.66-1.29s.08-1.01.26-1.46c.18-.43.5-.8.69-1.24.18-.43.31-.89.49-1.32.18-.43.3-.89.48-1.33.18-.43.68-.73.86-1.16.18-.43.29-.9.47-1.33.18-.43.43-.84.61-1.28s.34-.88.53-1.31c.19-.43.3-.9.49-1.33.19-.43.38-.86.57-1.29.19-.43.42-.85.61-1.28.2-.43.37-.87.57-1.29.2-.43.34-.89.54-1.3.25-.51.47-1.44.82-1.84.51-.58,1.16-.49,1.7-.76.24-.12.51-.32.87-.42.46-.13.8-.08,1.17.22.36.29.8.6.98.96.21.41.47.87.7,1.38.19.45.21,1,.41,1.49.19.47.29.98.48,1.47.19.48.35.97.52,1.45.19.5.36.98.53,1.45.19.52.51.95.67,1.39.17.45.17.96.34,1.41.16.45.64.79.8,1.25.16.45.03,1.01.18,1.46.16.45.5.84.65,1.3.16.46.51.84.67,1.3.15.46.2.95.35,1.4.15.46.1.98.25,1.43.15.46.54.83.69,1.29.15.46.08.98.22,1.44.15.46.24.93.38,1.39.14.46.57.83.71,1.29.14.46-.11,1.04.03,1.5.14.46.55.84.69,1.29.14.46.17.95.31,1.41.14.46.5.85.63,1.31.14.46-.1,1.03.04,1.49.14.46.52.85.66,1.31.14.46.23.93.37,1.39.14.46.03.99.16,1.46.14.46.55.84.69,1.3.14.46.01,1,.15,1.46.14.46.66.81.8,1.27.14.46-.1,1.03.04,1.49.14.46.39.89.53,1.35s.19.95.33,1.4c.14.46.67.8.81,1.26.14.46-.17,1.06-.03,1.52.14.46.37.89.51,1.35.14.46.63.81.77,1.27.14.46.1.98.24,1.43.14.46.41.88.56,1.34.14.46.36.89.5,1.35.15.46.21.95.36,1.42.15.46.14.98.29,1.44s.52.85.67,1.32c.15.46-.03,1.03.12,1.5.15.46.64.81.79,1.27.15.46.01,1.02.17,1.48.15.46.45.87.61,1.33s.06,1.01.21,1.47c.15.46.74.78.89,1.24.16.46.22.95.38,1.41.15.46-.02,1.03.14,1.49.15.46.31.92.46,1.38.15.46.32.92.47,1.38.15.46.7.79.85,1.25.15.46.11.99.27,1.45.15.46.21.95.36,1.42.15.46.34.91.49,1.38.15.46.15.97.3,1.44.15.46.58.83.73,1.3.15.46.27.93.42,1.4.14.46.27.93.42,1.4.14.46.14.97.28,1.44.14.46.5.87.64,1.33.14.47.35.91.48,1.38.13.43.19.92.35,1.41.14.44.34.89.49,1.37.14.45.31.91.46,1.38.15.46.05,1.01.19,1.47.14.47.37.91.51,1.37.14.48.18.97.3,1.43.13.49.45.92.55,1.37.11.51.12,1.01.18,1.45.06.42-.08.76-.12,1.11-.04.35-.02.71-.1,1.11"/></svg>