<?xml version="1.0" encoding="UTF-8"?><svg id="Layer_1" xmlns="http://www.w3.org/2000/svg" viewBox="0 0 200 200"><path d="M134.13,65.43c.52.58.66,1.12.21,1.91-.21.38-.86.55-1.18.98-.28.37-.59.73-.92,1.12-.31.37-.36.97-.68,1.34-.32.37-.71.69-1.03,1.05-.33.38-.69.72-.99,1.07-.34.4-.88.61-1.14.96-.33.44-.36,1.09-.68,1.53-.32.44-.85.74-1.16,1.18-.31.45-.64.89-.95,1.33-.31.45-.66.87-.97,1.32-.31.45-.31,1.12-.62,1.56-.31.45-.94.67-1.25,1.12-.32.44-.32,1.11-.64,1.54-.45.67-.73.48-1.17,1.16-.44.68-.15.87-.59,1.54-.44.67-.56.6-1,1.27-.44.68-.45.67-.89,1.34-.44.67-.6.57-1.04,1.24-.44.68-.17.85-.61,1.52-.44.68-.47.66-.92,1.33-.44.68-.54.61-.98,1.29-.44.68-.35.74-.79,1.41-.44.68-.55.61-.99,1.28-.44.68-.52.62-.96,1.3-.44.68-.37.72-.82,1.4-.44.68-.29.78-.73,1.46-.44.68-1.32.46-.86,1.13.42.62.37-.43,1.02-.8.65-.37.68-.31,1.34-.68.65-.37.76-.18,1.41-.55.65-.37.56-.54,1.21-.91.65-.37.59-.49,1.24-.85.65-.37.8-.11,1.46-.48.66-.37.57-.52,1.23-.89.66-.37.76-.17,1.43-.53.47-.21.78-.74,1.25-.96.46-.22,1.03-.22,1.49-.45.46-.23.92-.46,1.37-.7.46-.24.93-.44,1.39-.67.46-.24.91-.49,1.36-.72.46-.23.85-.62,1.31-.84.46-.23,1-.31,1.46-.52.47-.21.94-.42,1.41-.61.58-.24,1.15-.28,1.62-.45.57-.21.99-.45,1.54-.31.44.12.88.32,1.4.82-.11.62-.5.94-.87,1.33-.38.39-.77.7-1.31.95-.5.23-.92.72-1.46.91-.55.19-1.11.31-1.59.54-.46.22-.88.55-1.34.78-.46.23-1.08.13-1.54.36-.46.23-.81.68-1.27.91-.46.23-.93.45-1.39.68-.46.23-1,.3-1.46.54-.46.24-.83.64-1.29.88-.46.24-.89.52-1.35.76-.45.24-.9.49-1.36.74-.45.25-.98.36-1.43.61-.45.25-1,.34-1.44.59-.45.26-.81.67-1.25.93-.44.26-.97.38-1.41.65-.44.27-.74.77-1.18,1.04-.44.27-.94.46-1.38.74,0,.17.63.19,1.54.4.45.1.94.36,1.54.48.49.09,1.03.14,1.59.23.51.09,1.03.23,1.57.33.52.09,1.04.23,1.58.31.53.09,1.08.05,1.61.14.53.09,1,.56,1.52.65.54.09,1.15-.26,1.67-.17.55.1,1.08.21,1.59.32.56.11,1.04.48,1.52.59.59.14,1.1.31,1.54.46.72.23,1.07.54,1.27.78,1.01,1.18.03,1.32,0,1.41-.08.25.46.79-.24,1.05-.31.16-.93.32-1.69.18-.52-.09-1.03-.55-1.62-.71-.57-.15-1.15-.3-1.68-.46-.69-.2-1.35-.16-1.73-.24-.72-.13-.73-.07-1.46-.2-.72-.13-.74-.05-1.46-.18-.72-.13-.7-.24-1.43-.36-.73-.13-.75.04-1.48-.08-.73-.13-.67-.48-1.39-.6-.73-.13-.75-.31-1.49-.24.4.35.73.92,1.12,1.27.4.35.95.52,1.35.88.39.35.64.87,1.03,1.22.39.36.89.6,1.28.95.39.36.91.57,1.3.93s.44,1.08.83,1.44c.39.36,1.05.42,1.44.78.39.36.84.65,1.23,1.01.39.36.46,1.06.85,1.42.38.36.81.68,1.19,1.05s.76.74,1.14,1.1c.38.37.95.54,1.33.91.38.37.79.71,1.17,1.07.38.37.65.85,1.03,1.22.38.37.79.7,1.17,1.08.38.37.86.64,1.23,1.01.37.37.77.73,1.14,1.1.37.38.43,1.06.8,1.44.37.38.81.68,1.19,1.06.37.38.76.74,1.13,1.12.37.38.79.71,1.16,1.09.37.5.25,1.02-.05,1.47-.3.44-.8.7-.79,1.17-.71.12-.69.03-1.37-.2-.36-.38-.92-.52-1.29-.9-.37-.38-.73-.77-1.1-1.15-.37-.38-.69-.8-1.06-1.18-.37-.38-.49-1-.86-1.38-.37-.38-.86-.64-1.23-1.01-.37-.37-.9-.59-1.28-.96-.38-.37-.78-.72-1.16-1.09-.38-.37-.52-.98-.9-1.35s-.93-.57-1.31-.93c-.38-.37-.81-.69-1.19-1.06-.38-.36-.52-.99-.9-1.35-.38-.36-.97-.52-1.35-.88-.39-.36-.83-.66-1.22-1.02-.39-.36-.51-1.01-.9-1.37-.39-.36-1.08-.39-1.47-.75-.39-.36-.77-.72-1.16-1.08-.39-.36-.46-1.07-.85-1.42-.39-.36-1.09-.37-1.48-.73-.39-.36-.71-.79-1.11-1.14-.39-.35-.67-.84-1.07-1.19-.39-.35-.78-.71-1.18-1.06-.4-.35-.9-.58-1.3-.93-.4-.35-.76-.92-1.16-1.27-.36.14-.46.4-.47.78-.02.79.4.75.57,1.52.17.77.09.79.27,1.56.17.77.34.73.51,1.5.17.77-.1.83.08,1.6.17.77.08.79.25,1.56.17.77.56.68.74,1.45s.14.78.31,1.54c.17.77.04.8.21,1.57.17.77.36.73.53,1.5.17.77-.06.82.11,1.59.17.77.23.76.4,1.53.17.77-.12.84.05,1.61.17.77.33.74.5,1.51.17.77.07.8.24,1.57.17.77.22.75.33,1.53-.03.62-.04,1.01-.31,1.3-.35.39-.76.32-1.25.19-.43-.11-1.13-.04-1.43-.49-.25-.37-.16-.99-.19-1.54-.14-.8-.43-.74-.6-1.53-.17-.79-.09-.81-.26-1.6-.17-.79-.3-.76-.48-1.56-.17-.79.17-.87,0-1.66-.17-.79-.26-.77-.43-1.56-.17-.79-.15-.8-.32-1.59-.17-.79.03-.84-.14-1.63-.17-.79-.19-.79-.36-1.58-.18-.79-.24-.78-.42-1.57-.18-.79-.39-.75-.57-1.54-.17-.79-.31-.76-.49-1.56-.18-.79.01-.84-.16-1.63-.18-.8-.25-.78-.43-1.58-.18-.8.53-1.46-.27-1.61-.78-.14-.34.71-.72,1.4-.38.69-.5.63-.88,1.32-.38.69-.24.76-.62,1.46-.38.69-.5.62-.88,1.32-.38.69-.28.74-.66,1.43-.38.69-.39.69-.76,1.39-.38.69-.52.62-.89,1.31-.38.69-.22.78-.6,1.47-.38.69-.6.58-.97,1.27-.38.69-.3.73-.68,1.43-.38.69-.26.76-.64,1.45-.38.7-.35.71-.73,1.41-.38.69-.15.82-.53,1.51-.38.7-.83.45-1.21,1.14-.38.7-.39.69-.77,1.39-.38.7.21,1.12-.33,1.7-.48-.07-1.11-.51-1.5-.53-.49-.02-.83.11-1.13-.21-.22-.23-.62-.57-.72-1.16.23-.73.69-.53,1.05-1.2.36-.67.26-.73.62-1.4.36-.67.47-.61.83-1.28.36-.67.34-.69.7-1.36.36-.67.33-.69.69-1.36.36-.67.12-.8.48-1.47.36-.67.38-.67.74-1.34.36-.67.44-.63.81-1.3.36-.67.35-.68.71-1.35.36-.67.26-.73.62-1.4.36-.67.65-.52,1.01-1.19.36-.68.34-.69.7-1.36.36-.68.35-.68.72-1.36.36-.68.16-.74.33-1.48.05-.2.1.02-.1.07-.42.3-.79.59-1.21.89-.42.31-1.07.29-1.49.6-.42.31-.65.87-1.07,1.18-.42.31-.79.68-1.2.99-.42.31-1.01.39-1.42.7-.41.31-.69.8-1.11,1.12-.41.32-.92.5-1.33.82s-.72.77-1.13,1.09c-.41.32-.84.62-1.24.94s-.93.5-1.33.83c-.41.32-.57.95-.97,1.28-.4.33-1.09.31-1.49.64-.4.33-.78.68-1.18,1.01-.4.33-.66.83-1.06,1.16-.4.33-.76.71-1.15,1.05-.4.34-.77.7-1.16,1.04-.39.34-1,.43-1.39.77-.39.34-.61.88-1,1.22-.39.34-.84.62-1.22.97-.39.35-.6.88-.99,1.23-.39.35-1,.44-1.38.8s-.79.58-1.17.93c-.29.14-.17.18-.49.11-.75-.16-.88.19-1.56-.16-.26-.24-.03-2.05.13-2.38.04-.07.26-.55.78-1.03.32-.29.63-.68.96-.98.46-.41,1-.62,1.16-.75.38-.34.56-.91.95-1.26.38-.34.97-.45,1.37-.8.39-.34.69-.78,1.09-1.12.39-.34.93-.5,1.32-.84.39-.34.56-.94.96-1.27.4-.34.9-.54,1.3-.87.4-.33.72-.76,1.12-1.09.4-.33.92-.52,1.32-.85.41-.33.85-.61,1.26-.93.41-.33.71-.78,1.11-1.1.41-.32.76-.72,1.17-1.03.43-.33.97-.53,1.42-.85.44-.32.85-.69,1.29-1.01.45-.32.86-.69,1.3-1,.45-.31.84-.72,1.29-1.03.45-.31.86-.69,1.31-1,.45-.31,1.04-.42,1.49-.73.45-.31.92-.59,1.37-.91.45-.32.84-.7,1.29-1.02.44-.32.91-.61,1.34-.95.44-.33.67-.61,1.1-.95-.49.12-.75.36-1.24.48-.49.12-1.09-.18-1.58-.07s-.9.58-1.4.7c-.49.12-.96.35-1.46.47-.49.12-1.08-.14-1.57-.03-.49.11-1.01.14-1.5.25-.5.11-.9.62-1.4.73-.5.11-1,.16-1.5.26-.5.1-1.01.15-1.51.24-.5.1-1.05-.1-1.55,0-.47.09-1.03.18-1.62.3-.51.1-.96.68-1.52.79-.54.1-1.13-.04-1.66.05-.56.1-1.1.28-1.61.36-.61.09-1.16.28-1.63.3-1.29.06-1.09-.84-2.06-.99-.16-.08-.15-.15-.14-.33.16-.62.25-1.09.4-1.48.15-.39.47-.57,1.15-.86.52-.12,1-.37,1.54-.48.52-.1,1.08-.03,1.62-.12.53-.09,1.02-.44,1.56-.52.53-.08,1.11.2,1.65.13.53-.07,1.02-.52,1.56-.58.53-.07,1.12.27,1.65.2.54-.06,1.07-.14,1.61-.21.54-.07,1.04-.44,1.58-.51.54-.07,1.09-.04,1.62-.12.54-.08,1.04-.37,1.57-.46.54-.09,1.12.09,1.64-.01.54-.1,1.09-.14,1.61-.26.53-.12,1.07-.22,1.59-.37.53-.15.99-.51,1.49-.68.25-.09.73-.18.65-.53-.49-.21-1.14-.25-1.63-.45-.49-.21-1-.38-1.5-.58-.5-.2-.93-.56-1.43-.76s-1.07-.22-1.57-.41c-.5-.19-.94-.56-1.44-.75-.5-.19-1.04-.28-1.54-.47-.5-.19-.98-.44-1.48-.63-.5-.19-.99-.42-1.49-.61-.5-.19-1.01-.35-1.51-.54-.5-.19-1.1-.12-1.6-.32-.5-.2-.9-.62-1.4-.83-.47-.19-1.07-.09-1.56-.29-.47-.19-.88-.56-1.36-.76-.47-.19-.84-.65-1.33-.85-.47-.19-1.08-.07-1.56-.27-.48-.2-.88-.58-1.36-.77-.48-.2-1.05-.16-1.52-.36-.48-.2-.8-.78-1.27-.98-.48-.2-.96-.38-1.44-.59-.48-.21-1.07-.13-1.55-.34-.48-.21-.99-.33-1.47-.54-.48-.21-.96-.4-1.43-.61-.48-.22-.91-.5-1.38-.72-.47-.22-.85-.63-1.32-.85-.47-.23-.92-.49-1.37-.72-.47-.23-1.08-.18-1.53-.42-.44-.23-.7-.58-.98-.79-.28-.21-.38-.49-.42-1.08-.04-.64.32-1.02.8-1.39.47-.36.86-.46,1.49-.22.47.21.97.34,1.44.55s.96.4,1.43.61c.47.21.89.55,1.36.76.47.21,1.1.08,1.57.29.47.21.9.51,1.38.72.47.21.94.42,1.42.63.47.21,1.02.25,1.49.46.47.21.83.66,1.31.88.47.21,1.05.19,1.52.4.47.21.86.61,1.33.82.47.21,1.01.26,1.49.47.47.21.83.69,1.3.9.47.21,1.1.07,1.57.28.47.21.94.43,1.42.63.47.21.87.58,1.35.79s.85.65,1.32.85c.48.2.96.38,1.44.58.48.2.94.43,1.42.63.48.2,1.09.07,1.57.27s.93.46,1.41.66c.48.2.9.53,1.38.73.48.19,1.08.08,1.56.27.48.19.95.41,1.43.6.48.19.93.46,1.41.65.48.19,1.05.59,1.53.78-.28-.44-.47-1.13-.75-1.57-.29-.44-.87-.68-1.16-1.12-.29-.43-.59-.87-.88-1.3-.3-.43-.55-.89-.86-1.32-.3-.43-.79-.73-1.09-1.15-.3-.43-.28-1.09-.58-1.52-.31-.42-.56-.89-.87-1.32-.31-.42-.91-.63-1.22-1.05-.31-.42-.41-1-.72-1.42-.31-.42-.84-.68-1.16-1.1-.31-.42-.35-1.04-.67-1.46-.31-.42-.88-.65-1.19-1.07-.31-.42-.55-.9-.86-1.32-.31-.42-.44-.98-.75-1.4-.31-.42-.96-.6-1.26-1.03-.3-.42-.49-.94-.79-1.37-.3-.43-.63-.84-.93-1.27-.3-.43-.62-.85-.91-1.28-.29-.43-.57-.88-.86-1.31-.29-.44-.55-.89-.84-1.33-.28-.44-.6-.86-.87-1.31-.17-.27-.48-.85-.88-1.49-.3-.48-.69-.97-.97-1.46-.41-.73-.83-1.47-.8-1.69.02-.1,1.04-.35.75-.98.33-.25.43.51.72.22.29-.29-.15-.25-.05-.65.45.06.76.12,1.15.19.4.07.83.08,1.15.47.46.68.58.61,1.02,1.3.44.69.04.95.48,1.64s.73.51,1.17,1.21c.44.69.33.77.77,1.46s.41.71.85,1.41c.44.7.69.54,1.13,1.24.44.7.43.7.89,1.38.44.65.27.76.73,1.4.45.64.49.61.94,1.25.45.64.54.57,1,1.21.45.64.48.62.93,1.25.45.64.26.78.71,1.41.45.64.63.51,1.08,1.15.45.64.32.73.77,1.37.45.64.29.75.75,1.39.45.64.52.59.98,1.23.45.64.43.66.88,1.3.45.64.56.57,1.01,1.21s.27.77.73,1.41c.45.64.53.59.98,1.23.45.64.66.5,1.11,1.14.46.64.35.72.81,1.36.46.64.44.65,1.01,1.19-.1-.51-.39-.93-.47-1.44-.08-.51-.11-1.04-.18-1.55-.07-.52-.24-1.02-.29-1.54-.06-.52.09-1.06.04-1.57-.05-.52-.12-1.03-.17-1.55-.05-.52.11-1.06.05-1.58-.06-.52-.12-1.04-.19-1.55-.07-.49-.14-1.01-.23-1.54-.09-.5-.55-.94-.65-1.46-.1-.51-.08-1.04-.18-1.55-.1-.52-.42-.99-.51-1.5-.1-.53.01-1.08-.05-1.57-.07-.55-.15-1.07-.17-1.55-.04-.86.1-1.42.44-1.77.33-.34.9-.55,1.73-.67.28.24.71.49.89.81.18.31,0,1,.17,1.7.12.48.6.95.71,1.53.1.52.22,1.07.31,1.62.09.55-.13,1.15-.05,1.68.08.58.22,1.13.29,1.63.09.67.18,1.23.24,1.63.08.53-.07,1.08,0,1.61.07.53.43,1.02.49,1.55.06.53-.07,1.08-.01,1.61.06.53.04,1.07.1,1.6.06.53.4,1.03.46,1.56.06.53.04,1.07.11,1.59.07.53.19.99.27,1.51.69.06.51.13.59-.3.09-.48.23-.97.3-1.47.06-.49-.07-1.01-.02-1.51.05-.49.36-.97.4-1.46.04-.5-.02-1,.03-1.49.05-.5.14-.98.2-1.47.07-.5.18-.97.27-1.45.1-.54-.08-1.16.12-1.6.25-.56.71-.77,1.21-.84.38-.05.9-.07,1.49.38.2.74-.21.78-.24,1.54-.03.77.01.77-.02,1.53-.03.77-.17.76-.2,1.53-.03.77.22.77.19,1.54-.03.77-.15.76-.17,1.53-.03.77.31.78.28,1.55-.03.77-.36.75-.21,1.51.27-.45.42-.9.69-1.35.28-.45.71-.8.99-1.25.28-.45.21-1.11.49-1.55.28-.45.81-.73,1.09-1.18.28-.45.64-.84.92-1.28.28-.44.67-.82.96-1.26.28-.44.36-1.02.64-1.46.29-.44.63-.85.92-1.29s.38-1.01.67-1.45c.29-.44.7-.8.99-1.23s.39-1,.69-1.44c.29-.44.73-.78,1.02-1.21.3-.43.76-.76,1.06-1.19.3-.43.53-.91.84-1.34.3-.43.77-.74,1.07-1.17.3-.43.41-1,.72-1.43.31-.43.73-.77,1.04-1.2.31-.42.65-.83.96-1.25.31-.42.48-.96.79-1.38.32-.42.63-.84.95-1.26.32-.42.66-.82.98-1.24.32-.42.45-.99.77-1.4.32-.41.91-.62,1.24-1.03.33-.41.5-.95.83-1.36.33-.41.89-.54,1.23-.95.55-.17.74-.17,1.05-.11.34.07.74-.04,1.12.39"/></svg>