<?xml version="1.0" encoding="UTF-8"?><svg id="Layer_1" xmlns="http://www.w3.org/2000/svg" viewBox="0 0 200 200"><path d="M134.06,46.51c-.1-.6-.43-.79-.83-.87-.36-.07-.89-.28-1.38-.07-.38.16-.71.57-1.11.83-.38.24-.79.45-1.15.71-.38.28-.82.48-1.14.74-.46.38-.62.95-.81,1.12-.35.31-.92.4-1.27.73-.34.32-.52.84-.86,1.17-.34.33-.54.79-.88,1.14-.33.34-.87.48-1.2.84-.32.35-.64.71-.96,1.07-.31.36-.71.65-1.02,1.02-.31.36-.56.78-.86,1.15-.3.37-.41.89-.7,1.27-.29.37-.53.79-.82,1.18-.29.38-.54.79-.82,1.17-.28.38-.57.76-.85,1.15-.28.39-.66.7-.93,1.1-.27.39-.74.66-1,1.05-.27.39-.33.93-.6,1.33-.26.4-.65.72-.91,1.12-.26.4-.45.85-.7,1.26-.25.4-.74.67-.99,1.08-.25.41-.43.86-.67,1.27-.24.41-.17,1.01-.41,1.42-.24.41-.56.78-.79,1.2-.24.42-.59.76-.82,1.18-.23.42-.54.8-.76,1.22-.23.42-.18.98-.41,1.4-.22.42-.65.74-.86,1.16-.22.43-.19.97-.4,1.4-.22.43-.81.66-1.02,1.09-.21.43-.46.84-.66,1.27-.2.43-.22.96-.42,1.39-.2.44-.36.89-.55,1.32-.2.44-.22.95-.41,1.38-.19.44-.63.77-.81,1.21-.19.44-.23.94-.4,1.38-.18.45-.29.92-.46,1.36-.18.45-.7.77-.86,1.21-.23.68-.11.73-.33,1.41-.23.68-.02.75-.25,1.44-.22.68-.36.64-.59,1.32-.22.68-.03.75-.26,1.43-.22.68-.34.65-.57,1.33-.22.68.05.84-.33,1.45-.12-.47-.52-1-.65-1.47-.13-.47.1-1.04-.03-1.51-.14-.47-.45-.88-.59-1.35-.14-.46-.41-.89-.56-1.35-.15-.46-.39-.89-.55-1.35-.16-.46-.38-.9-.55-1.35-.17-.46-.26-.94-.43-1.39-.18-.45-.2-.97-.38-1.42-.18-.45-.46-.86-.65-1.31-.19-.45-.41-.88-.6-1.33-.19-.45-.21-.97-.41-1.42-.2-.44-.42-.88-.62-1.32-.2-.44-.56-.81-.77-1.25-.21-.44-.33-.92-.54-1.36-.21-.44-.61-.78-.83-1.22-.22-.43-.17-1-.39-1.43-.22-.43-.61-.78-.83-1.21-.22-.43-.48-.84-.71-1.27-.23-.43-.16-1.02-.38-1.45-.23-.43-.77-.7-1-1.13-.23-.43-.22-1-.46-1.43-.24-.43-.75-.71-.99-1.14-.24-.43-.42-.89-.67-1.31-.25-.42-.61-.78-.87-1.2-.25-.42-.22-1.02-.49-1.43-.26-.42-.54-.82-.81-1.24-.27-.41-.78-.66-1.05-1.07-.28-.4-.26-1.02-.55-1.42-.29-.4-.77-.65-1.07-1.04-.3-.39-.43-.92-.74-1.3-.31-.38-.75-.66-1.07-1.03-.33-.37-.87-.53-1.21-.89-.34-.36-.56-.82-.92-1.16-.36-.34-.66-.74-1.02-1.06-.28-.24-.68-.49-1.08-.83-.33-.27-.63-.63-1.01-.94-.35-.28-.84-.4-1.21-.69-.36-.29-.71-.59-1.07-.86-.38-.29-.58-.8-.92-1.04-.44-.31-.87-.52-1.18-.7-.44-.25-.88-.58-1.29-.63-.51-.07-.93.38-1.28.59-.39.23-.83.49-.86,1-.02.38.16.85.41,1.35.42.25.83.55,1.24.81.42.26.99.3,1.39.57.41.28.79.59,1.19.88.4.29.62.82,1.01,1.11.39.3.95.39,1.33.7.38.31.56.86.92,1.19.37.33.67.72,1.02,1.06.35.34.98.4,1.32.76.34.35.47.91.8,1.27.33.37.65.73.96,1.11.31.38.87.56,1.17.95.3.39.47.88.75,1.29.28.4.44.88.71,1.3.26.4.38.9.64,1.3.26.41.63.74.88,1.14.26.41.82.62,1.06,1.03.25.41.48.84.72,1.25.25.41.4.88.64,1.29.24.41.55.79.79,1.2.24.42.14,1.02.37,1.44.23.42.42.86.64,1.28.23.42.79.66,1.02,1.09.22.42.39.88.61,1.3.22.43.23.96.44,1.39.21.43.53.8.74,1.23.21.43.34.9.54,1.33.2.43.31.91.51,1.34.2.44.54.81.73,1.25.19.44.51.82.7,1.26.19.44.08,1,.26,1.44.18.45.66.77.83,1.21.17.45.36.89.53,1.34.17.45.13.97.29,1.42.16.45.57.82.73,1.27.16.45-.02,1.02.13,1.47.15.46.58.82.72,1.28.14.46.26.92.4,1.38.14.46,0,.99.14,1.46.13.46.16.95.28,1.41.12.46.44.87.56,1.34.11.46.14.95.25,1.42.11.47.31.91.41,1.38.1.47.12.95.22,1.42.1.47.16.94.25,1.41.09.47.09.95.17,1.43.08.47.38.9.46,1.38.08.47-.04.97.03,1.45.07.47.56.89.62,1.36.07.47-.25,1-.19,1.48.06.47.17.94.22,1.42.06.47.39.92.44,1.4.05.48.03.96.08,1.44.05.47.1.95.14,1.43.04.48.1.95.14,1.43.04.48-.09.97-.06,1.45.03.48-.12.96-.09,1.45.03.48.37.94.4,1.42.02.48.03.96.05,1.44.02.48-.07.96-.05,1.44.01.48.23.95.24,1.43,0,.48,0,.96.02,1.44,0,.48-.2.96-.19,1.44,0,.48-.06.96-.06,1.44,0,.48-.03.96-.04,1.44,0,.48.07.96.06,1.44,0,.48.05.96.04,1.44,0,.48-.27.95-.28,1.44-.01.48.26.97.25,1.45,0,.33-.17.78-.24,1.3-.05.41-.28.83-.34,1.29-.05.44.18.91.15,1.34-.02.35-.07.68-.09,1-.02,0-.04,0-.06.01-.48.16-.95.49-1.35.79-.4.29-.48.91-.78,1.32-.29.4-.78.69-.94,1.17-.15.47,0,.98,0,1.5s-.08,1.01.07,1.48c.16.48.54.82.83,1.22.3.41.61.73,1.01,1.02.4.29.78.56,1.26.72.47.15.93.58,1.44.58s1.08-.1,1.55-.25c.48-.16.94-.49,1.35-.78.4-.3.48-.91.78-1.32.29-.4.52-.77.68-1.25.15-.47.57-.9.57-1.41s-.26-1-.41-1.47c-.16-.48-.26-1.02-.55-1.42-.29-.41-.79-.65-1.19-.94-.35-.26-.73-.46-1.15-.61,0-.28,0-.56.02-.84.03-.49.48-.96.51-1.46.03-.49-.17-1-.14-1.5.02-.49.32-.98.34-1.47.02-.49-.35-1.01-.33-1.5.02-.5.08-.99.1-1.48.02-.49.39-.98.41-1.47.02-.49-.26-1-.25-1.49.01-.5,0-.99.01-1.49.01-.49.06-.99.07-1.48,0-.5.27-.99.27-1.48,0-.49,0-.99-.01-1.49,0-.49-.15-.99-.16-1.48,0-.49-.04-.99-.05-1.49-.01-.49-.23-.98-.25-1.48-.01-.46.21-.95.19-1.44-.01-.47-.24-.95-.26-1.43-.02-.48,0-.97-.03-1.43-.03-.5-.01-.98-.05-1.43-.04-.5-.19-.98-.25-1.47-.06-.5-.12-.98-.19-1.47-.08-.49-.12-.98-.2-1.47-.08-.49.03-1.01-.06-1.5-.08-.49-.02-1-.1-1.49-.08-.49-.55-.92-.62-1.41-.07-.49.09-1.01.04-1.51-.05-.49-.21-.98-.23-1.47-.02-.49.1-.99.11-1.49,0-.49.03-.98.07-1.48.04-.49.06-.98.14-1.48.07-.46,0-.96.09-1.44.09-.46.34-.9.46-1.37.11-.46.14-.95.26-1.42.12-.46.43-.87.56-1.34.13-.46-.06-1.01.09-1.48.14-.45.71-.77.87-1.23.15-.45,0-1.01.16-1.47.16-.45.35-.89.52-1.35.17-.45.3-.92.47-1.37.17-.45.51-.83.7-1.28.18-.44.28-.92.47-1.37.19-.44.46-.85.66-1.29.19-.44.49-.83.69-1.27.2-.43.04-1.04.25-1.48.2-.43.61-.77.82-1.2.21-.43.31-.92.53-1.35.21-.43.38-.89.6-1.31.22-.43.65-.75.87-1.17.23-.42.35-.9.58-1.33.23-.42.58-.78.81-1.2.24-.42.57-.78.81-1.2.24-.42.45-.85.69-1.26.24-.41.42-.87.67-1.28.25-.41.27-.97.52-1.37.25-.41.87-.59,1.12-1,.26-.41.27-.97.53-1.37.26-.4.65-.72.91-1.12.27-.4.43-.87.7-1.27.27-.4.79-.62,1.07-1.01.28-.4.4-.9.68-1.29.28-.39.55-.79.84-1.17.29-.39.37-.93.66-1.31.29-.38.93-.5,1.23-.87.3-.38.44-.88.74-1.25.31-.38.63-.73.94-1.09.31-.37.44-.9.75-1.26.32-.37,1.01-.39,1.33-.74.33-.36.58-.77.91-1.11.34-.35.53-.83.86-1.17.34-.34.81-.55,1.15-.88.35-.34.67-.7,1.02-1.02.36-.33.54-.87.9-1.17.38-.31.87-.47,1.25-.76.47-.35.92-.71,1.33-1,.42-.3.84-.51.71-1.28Z"/></svg>