<?xml version="1.0" encoding="UTF-8"?><svg id="Layer_1" xmlns="http://www.w3.org/2000/svg" viewBox="0 0 200 200"><path d="M99.56,162.84c-.24-.07.17-.56-.08-.56-.64,0-.53.37-1.17.32-.17-.61-.78-.44-1.07-.76-.16-.18-.05-.65-.07-1.37-.02-.42-.43-.91-.42-1.44.01-.46.25-.94.28-1.44.03-.48.01-.97.05-1.45.04-.5-.16-1.01-.12-1.47.05-.52.23-1.01.27-1.44.06-.64.33-1.13.35-1.43.03-.47-.14-.96-.11-1.43.03-.47.35-.93.38-1.4.03-.47-.24-.96-.21-1.44.03-.47.11-.94.14-1.41.03-.47-.11-.96-.08-1.43.03-.47.06-.95.09-1.42.03-.47.32-.93.35-1.4.03-.47-.16-.96-.12-1.43.04-.47.49-.91.53-1.38.04-.47-.38-.98-.33-1.45.05-.47.52-.9.57-1.36.05-.47-.29-.98-.23-1.45.06-.47.42-.9.49-1.36.06-.47-.09-.96-.01-1.43.07-.47.23-.92.31-1.38.08-.46.24-.91.33-1.38.09-.46.28-.9.38-1.36.1-.46-.11-.99,0-1.45.11-.46.45-.86.57-1.32.12-.45-.03-.98.1-1.44.13-.45.25-.91.39-1.37.14-.45.5-.83.66-1.28.15-.44.45-.83.62-1.28.16-.44-.02-1.02.15-1.46.18-.43.51-.81.7-1.24.2-.45.44-.88.65-1.32.21-.45.33-.93.56-1.37.22-.44.67-.76.9-1.19.23-.43.37-.91.6-1.35.23-.43.63-.77.85-1.21.22-.43.05-1.06.26-1.5.21-.44.59-.8.78-1.25.18-.45.5-.85.67-1.32.16-.45.23-.95.37-1.43.14-.48.09-.99.2-1.45.11-.49.07-.98.14-1.44.08-.49.15-.95.19-1.42.04-.49.5-.95.51-1.43,0-.49.02-1-.01-1.47-.03-.49-.57-.92-.64-1.39-.07-.49.27-1.04.16-1.51-.11-.48-.31-.93-.45-1.39-.15-.46-.52-.85-.7-1.29-.18-.45-.26-.94-.47-1.38-.21-.44-.58-.78-.81-1.21-.23-.43-.12-1.04-.37-1.46-.25-.41-.54-.81-.8-1.22-.26-.4-.79-.64-1.06-1.04-.27-.4-.53-.81-.8-1.21-.27-.4-.57-.78-.84-1.18-.28-.4-.5-.83-.77-1.23-.27-.4-.3-.96-.57-1.36-.27-.4-.69-.7-.95-1.11-.26-.41-.53-.81-.77-1.23-.24-.42-.36-.9-.59-1.33-.23-.42-.56-.79-.76-1.23-.21-.43-.39-.88-.58-1.33-.18-.44-.34-.9-.5-1.36-.15-.45-.53-.85-.66-1.32-.12-.46.16-1.02.06-1.5-.1-.48-.61-.87-.69-1.35-.08-.48.18-1.01.11-1.49-.06-.48-.36-.93-.41-1.42-.05-.48.25-.99.21-1.48-.04-.48-.1-.96-.12-1.44-.03-.48-.02-.97-.04-1.45-.02-.49-.04-.96-.05-1.45,0-.49-.41-.96-.41-1.45,0-.48.25-.97.25-1.45,0-.49,0-.97.01-1.45,0-.49.05-.97.06-1.46.01-.48.02-.97.03-1.45.01-.48-.04-.97-.03-1.45.01-.49-.12-.97-.11-1.46.01-.48.1-.96.11-1.45,0-.37.21-.85.2-1.4,0-.43-.3-.89-.31-1.39-.01-.45.3-.92.29-1.4,0-.46-.16-.93-.16-1.4,0-.47.01-.94.03-1.4.02-.48.24-.94.27-1.38.04-.5-.27-1.02-.19-1.43.1-.55.56-.87.75-1.18.31-.51.5-.68.83-.76.41-.1.66,0,1.01.36.28.29.44.65.62,1.08.17.41.5.76.55,1.19.05.47.29.92.32,1.4.03.47-.28.96-.27,1.44.02.47-.04.94-.03,1.42,0,.47.21.94.21,1.42,0,.47.16.95.15,1.42,0,.47-.24.94-.25,1.42-.01.47.21.95.19,1.43-.01.47-.3.93-.31,1.41-.02.47.23.95.21,1.43-.02.47-.09.94-.1,1.42-.01.47-.03.95-.04,1.42-.01.47-.38.94-.39,1.42,0,.47.02.95.02,1.42,0,.48-.01.95,0,1.43,0,.48.06.95.07,1.43.01.47.35.94.37,1.41.02.47-.03.95,0,1.42.04.48-.06.96-.01,1.43.05.47.04.96.11,1.42.07.47.06.96.15,1.42.09.47.62.84.72,1.3.11.46.07.96.19,1.41.13.46.32.89.47,1.34.15.45.36.87.53,1.31.18.44.23.93.44,1.35.21.43.57.76.8,1.18.24.42.24.99.5,1.4.26.41.58.79.85,1.19.27.41.49.84.77,1.24.28.4.74.67,1.02,1.07.28.4.57.79.85,1.18.28.4.47.86.74,1.26.28.4.32.96.59,1.36.27.4.69.71.95,1.12.26.41.71.71.95,1.13.24.42.56.81.79,1.24.22.43.19.99.39,1.44.2.44.44.86.62,1.32.18.45.15.97.3,1.43.15.46.28.9.39,1.35.12.46.15.93.23,1.38.08.47.13.92.18,1.39.05.47.3.92.31,1.39.01.47.08.95.07,1.42-.02.47-.22.93-.27,1.4-.05.47-.19.92-.26,1.38-.08.46.19,1,.09,1.46-.1.46-.4.88-.53,1.33-.12.45-.46.84-.6,1.29-.14.45.05,1.01-.11,1.46-.16.44-.25.92-.42,1.36-.17.44-.69.74-.87,1.17-.18.43-.29.9-.48,1.33-.19.43-.5.81-.7,1.23-.2.43-.15.97-.36,1.39-.2.42-.72.7-.92,1.13-.21.42-.25.92-.46,1.35-.21.43-.38.86-.58,1.29-.2.43-.57.78-.76,1.21-.2.43-.34.89-.53,1.32-.19.43-.14.97-.32,1.4-.18.44-.33.88-.51,1.32-.17.44-.69.75-.85,1.19-.16.45.12,1.04-.03,1.49-.14.45-.57.81-.69,1.27-.12.46-.15.94-.25,1.4-.1.47-.42.9-.49,1.38-.08.47.03.98-.03,1.45-.05.48-.11.95-.15,1.43-.04.48-.17.95-.2,1.43-.03.48.1.96.07,1.44-.02.48-.18.95-.2,1.43s-.09.95-.12,1.43c-.03.48.16.97.12,1.45-.05.49.05.99,0,1.47-.05.49-.09.97-.14,1.46-.05.49-.12.97-.17,1.45-.05.49-.12.97-.17,1.45-.05.49,0,.98-.05,1.46-.05.49-.19.96-.23,1.44-.05.49.03.98-.02,1.47-.04.49-.37.95-.41,1.43-.04.49.15.99.1,1.48-.04.49-.39.95-.43,1.43-.04.49-.18.96-.22,1.45-.04.49.02.98-.02,1.46-.03.49.22.99.19,1.48-.03.5-.34.98-.32,1.42.03.5.21.93,0,1.35-.18.34-.51.8-1.05,1.09"/><path d="M99.56,162.84c-.24-.07.17-.56-.08-.56-.64,0-.53.37-1.17.32-.17-.61-.78-.44-1.07-.76-.16-.18-.05-.65-.07-1.37-.02-.42-.43-.91-.42-1.44.01-.46.25-.94.28-1.44.03-.48.01-.97.05-1.45.04-.5-.16-1.01-.12-1.47.05-.52.23-1.01.27-1.44.06-.64.33-1.13.35-1.43.03-.47-.14-.96-.11-1.43.03-.47.35-.93.38-1.4.03-.47-.24-.96-.21-1.44.03-.47.11-.94.14-1.41.03-.47-.11-.96-.08-1.43.03-.47.06-.95.09-1.42.03-.47.32-.93.35-1.4.03-.47-.16-.96-.12-1.43.04-.47.49-.91.53-1.38.04-.47-.38-.98-.33-1.45.05-.47.52-.9.57-1.36.05-.47-.29-.98-.23-1.45.06-.47.42-.9.49-1.36.06-.47-.09-.96-.01-1.43.07-.47.23-.92.31-1.38.08-.46.24-.91.33-1.38.09-.46.28-.9.38-1.36.1-.46-.11-.99,0-1.45.11-.46.45-.86.57-1.32.12-.45-.03-.98.1-1.44.13-.45.25-.91.39-1.37.14-.45.5-.83.66-1.28.15-.44.45-.83.62-1.28.16-.44-.02-1.02.15-1.46.18-.43.51-.81.7-1.24.2-.45.44-.88.65-1.32.21-.45.33-.93.56-1.37.22-.44.67-.76.9-1.19.23-.43.37-.91.6-1.35.23-.43.63-.77.85-1.21.22-.43.05-1.06.26-1.5.21-.44.59-.8.78-1.25.18-.45.5-.85.67-1.32.16-.45.23-.95.37-1.43.14-.48.09-.99.2-1.45.11-.49.07-.98.14-1.44.08-.49.15-.95.19-1.42.04-.49.5-.95.51-1.43,0-.49.02-1-.01-1.47-.03-.49-.57-.92-.64-1.39-.07-.49.27-1.04.16-1.51-.11-.48-.31-.93-.45-1.39-.15-.46-.52-.85-.7-1.29-.18-.45-.26-.94-.47-1.38-.21-.44-.58-.78-.81-1.21-.23-.43-.12-1.04-.37-1.46-.25-.41-.54-.81-.8-1.22-.26-.4-.79-.64-1.06-1.04-.27-.4-.53-.81-.8-1.21-.27-.4-.57-.78-.84-1.18-.28-.4-.5-.83-.77-1.23-.27-.4-.3-.96-.57-1.36-.27-.4-.69-.7-.95-1.11-.26-.41-.53-.81-.77-1.23-.24-.42-.36-.9-.59-1.33-.23-.42-.56-.79-.76-1.23-.21-.43-.39-.88-.58-1.33-.18-.44-.34-.9-.5-1.36-.15-.45-.53-.85-.66-1.32-.12-.46.16-1.02.06-1.5-.1-.48-.61-.87-.69-1.35-.08-.48.18-1.01.11-1.49-.06-.48-.36-.93-.41-1.42-.05-.48.25-.99.21-1.48-.04-.48-.1-.96-.12-1.44-.03-.48-.02-.97-.04-1.45-.02-.49-.04-.96-.05-1.45,0-.49-.41-.96-.41-1.45,0-.48.25-.97.25-1.45,0-.49,0-.97.01-1.45,0-.49.05-.97.06-1.46.01-.48.02-.97.03-1.45.01-.48-.04-.97-.03-1.45.01-.49-.12-.97-.11-1.46.01-.48.1-.96.11-1.45,0-.37.21-.85.2-1.4,0-.43-.3-.89-.31-1.39-.01-.45.3-.92.29-1.4,0-.46-.16-.93-.16-1.4,0-.47.01-.94.03-1.4.02-.48.24-.94.27-1.38.04-.5-.27-1.02-.19-1.43.1-.55.56-.87.75-1.18.31-.51.5-.68.83-.76.41-.1.66,0,1.01.36.28.29.44.65.62,1.08.17.41.5.76.55,1.19.05.47.29.92.32,1.4.03.47-.28.96-.27,1.44.02.47-.04.94-.03,1.42,0,.47.21.94.21,1.42,0,.47.16.95.15,1.42,0,.47-.24.94-.25,1.42-.01.47.21.95.19,1.43-.01.47-.3.93-.31,1.41-.02.47.23.95.21,1.43-.02.47-.09.94-.1,1.42-.01.47-.03.95-.04,1.42-.01.47-.38.94-.39,1.42,0,.47.02.95.02,1.42,0,.48-.01.95,0,1.43,0,.48.06.95.07,1.43.01.47.35.94.37,1.41.02.47-.03.95,0,1.42.04.48-.06.96-.01,1.43.05.47.04.96.11,1.42.07.47.06.96.15,1.42.09.47.62.84.72,1.3.11.46.07.96.19,1.41.13.46.32.89.47,1.34.15.45.36.87.53,1.31.18.44.23.93.44,1.35.21.43.57.76.8,1.18.24.42.24.99.5,1.4.26.41.58.79.85,1.19.27.41.49.84.77,1.24.28.4.74.67,1.02,1.07.28.4.57.79.85,1.18.28.4.47.86.74,1.26.28.4.32.96.59,1.36.27.4.69.71.95,1.12.26.41.71.71.95,1.13.24.42.56.81.79,1.24.22.43.19.99.39,1.44.2.44.44.86.62,1.32.18.45.15.97.3,1.43.15.46.28.9.39,1.35.12.46.15.93.23,1.38.08.47.13.92.18,1.39.05.47.3.92.31,1.39.01.47.08.95.07,1.42-.02.47-.22.93-.27,1.4-.05.47-.19.92-.26,1.38-.08.46.19,1,.09,1.46-.1.46-.4.88-.53,1.33-.12.45-.46.84-.6,1.29-.14.45.05,1.01-.11,1.46-.16.44-.25.92-.42,1.36-.17.44-.69.74-.87,1.17-.18.43-.29.9-.48,1.33-.19.43-.5.81-.7,1.23-.2.43-.15.97-.36,1.39-.2.42-.72.7-.92,1.13-.21.42-.25.92-.46,1.35-.21.43-.38.86-.58,1.29-.2.43-.57.78-.76,1.21-.2.43-.34.89-.53,1.32-.19.43-.14.97-.32,1.4-.18.44-.33.88-.51,1.32-.17.44-.69.75-.85,1.19-.16.45.12,1.04-.03,1.49-.14.45-.57.81-.69,1.27-.12.46-.15.94-.25,1.4-.1.47-.42.9-.49,1.38-.08.47.03.98-.03,1.45-.05.48-.11.95-.15,1.43-.04.48-.17.95-.2,1.43-.03.48.1.96.07,1.44-.02.48-.18.95-.2,1.43s-.09.95-.12,1.43c-.03.48.16.97.12,1.45-.05.49.05.99,0,1.47-.05.49-.09.97-.14,1.46-.05.49-.12.97-.17,1.45-.05.49-.12.97-.17,1.45-.05.49,0,.98-.05,1.46-.05.49-.19.96-.23,1.44-.05.49.03.98-.02,1.47-.04.49-.37.95-.41,1.43-.04.49.15.99.1,1.48-.04.49-.39.95-.43,1.43-.04.49-.18.96-.22,1.45-.04.49.02.98-.02,1.46-.03.49.22.99.19,1.48-.03.5-.34.98-.32,1.42.03.5.21.93,0,1.35-.18.34-.51.8-1.05,1.09"/><path d="M96.19,89.88c-.46.05-.86.32-1.33.57-.41.22-1,.25-1.39.59-.36.31-.58.82-.91,1.2-.32.37-.7.71-.98,1.12-.29.41-.68.78-.91,1.2-.25.46-.31.99-.47,1.43-.19.51-.14,1.02-.19,1.46-.06.53-.26,1.01-.25,1.47.02.54.13,1.02.24,1.47.13.52.13,1.08.37,1.48.26.44.75.71,1.13,1.02.38.31.86.41,1.34.6.44.17.87.46,1.38.53.47.07.97.08,1.49.06.48-.02.95-.22,1.46-.3.48-.08,1.04.14,1.53,0,.46-.13.93-.35,1.36-.57.42-.22.73-.66,1.11-.96.38-.29.63-.71.95-1.06.33-.35.6-.72.87-1.12.27-.4.55-.77.75-1.2.21-.44.57-.82.7-1.27.14-.47.02-.98.06-1.45.05-.49,0-.93-.06-1.4-.07-.48,0-.98-.2-1.41-.19-.43-.56-.75-.89-1.11-.31-.34-.69-.55-1.13-.81-.38-.23-.67-.73-1.17-.89-.32-.1-.98,0-1.66-.13-.53-.11-1.08-.28-1.6-.36-.7-.11-1.31-.2-1.62-.16M95.71,86.74c.32-.04.8-.21,1.26-.22.48-.01.91.32,1.21.4.35.1.7.41,1.18.6.43.17.83.4,1.26.54.44.14.84.41,1.26.54.45.13.93.1,1.35.25.44.15.94.15,1.34.35.41.2.71.59,1.08.86.35.27.71.54,1.01.91.27.33.33.81.56,1.24.19.37.54.7.7,1.16.16.47.43.91.52,1.37.09.48-.03.99-.02,1.46.01.49,0,.97-.07,1.44-.07.48-.02.99-.16,1.45-.14.46-.63.79-.83,1.22-.2.43-.4.85-.66,1.25-.26.4-.38.9-.68,1.28-.31.37-.55.82-.9,1.15-.34.33-.71.67-1.1.96-.38.29-.82.53-1.23.79-.41.25-.93.31-1.36.53-.43.21-.79.6-1.24.78-.45.17-.91.36-1.38.49-.47.12-.99.04-1.46.11-.48.07-.95.27-1.43.29-.48.02-.99.09-1.46.06-.48-.04-.91-.44-1.38-.54-.47-.1-1,.02-1.46-.14-.45-.16-.87-.43-1.3-.66-.44-.23-.82-.54-1.19-.83-.39-.3-.74-.64-1.05-.99-.32-.37-.49-.82-.73-1.23-.24-.42-.48-.81-.64-1.26-.16-.45-.38-.88-.46-1.36-.08-.47-.17-.95-.18-1.43-.02-.48.1-.95.14-1.44.05-.47.15-.94.25-1.41.1-.47.05-.98.2-1.44.15-.45.45-.86.64-1.3.19-.44.22-.97.46-1.39.24-.42.58-.79.86-1.18.28-.39.63-.74.94-1.1.32-.36.76-.6,1.12-.92.36-.32.63-.74,1.02-1.02.4-.28.88-.4,1.31-.61.43-.22.83-.48,1.29-.63.46-.15.91-.31,1.39-.38"/><path d="M96.19,89.88c-.46.05-.86.32-1.33.57-.41.22-1,.25-1.39.59-.36.31-.58.82-.91,1.2-.32.37-.7.71-.98,1.12-.29.41-.68.78-.91,1.2-.25.46-.31.99-.47,1.43-.19.51-.14,1.02-.19,1.46-.06.53-.26,1.01-.25,1.47.02.54.13,1.02.24,1.47.13.52.13,1.08.37,1.48.26.44.75.71,1.13,1.02.38.31.86.41,1.34.6.44.17.87.46,1.38.53.47.07.97.08,1.49.06.48-.02.95-.22,1.46-.3.48-.08,1.04.14,1.53,0,.46-.13.93-.35,1.36-.57.42-.22.73-.66,1.11-.96.38-.29.63-.71.95-1.06.33-.35.6-.72.87-1.12.27-.4.55-.77.75-1.2.21-.44.57-.82.7-1.27.14-.47.02-.98.06-1.45.05-.49,0-.93-.06-1.4-.07-.48,0-.98-.2-1.41-.19-.43-.56-.75-.89-1.11-.31-.34-.69-.55-1.13-.81-.38-.23-.67-.73-1.17-.89-.32-.1-.98,0-1.66-.13-.53-.11-1.08-.28-1.6-.36-.7-.11-1.31-.2-1.62-.16M95.71,86.74c.32-.04.8-.21,1.26-.22.48-.01.91.32,1.21.4.35.1.7.41,1.18.6.43.17.83.4,1.26.54.44.14.84.41,1.26.54.45.13.93.1,1.35.25.44.15.94.15,1.34.35.41.2.71.59,1.08.86.35.27.71.54,1.01.91.27.33.33.81.56,1.24.19.37.54.7.7,1.16.16.47.43.91.52,1.37.09.48-.03.99-.02,1.46.01.49,0,.97-.07,1.44-.07.48-.02.99-.16,1.45-.14.46-.63.79-.83,1.22-.2.43-.4.85-.66,1.25-.26.4-.38.9-.68,1.28-.31.37-.55.82-.9,1.15-.34.33-.71.67-1.1.96-.38.29-.82.53-1.23.79-.41.25-.93.31-1.36.53-.43.21-.79.6-1.24.78-.45.17-.91.36-1.38.49-.47.12-.99.04-1.46.11-.48.07-.95.27-1.43.29-.48.02-.99.09-1.46.06-.48-.04-.91-.44-1.38-.54-.47-.1-1,.02-1.46-.14-.45-.16-.87-.43-1.3-.66-.44-.23-.82-.54-1.19-.83-.39-.3-.74-.64-1.05-.99-.32-.37-.49-.82-.73-1.23-.24-.42-.48-.81-.64-1.26-.16-.45-.38-.88-.46-1.36-.08-.47-.17-.95-.18-1.43-.02-.48.1-.95.14-1.44.05-.47.15-.94.25-1.41.1-.47.05-.98.2-1.44.15-.45.45-.86.64-1.3.19-.44.22-.97.46-1.39.24-.42.58-.79.86-1.18.28-.39.63-.74.94-1.1.32-.36.76-.6,1.12-.92.36-.32.63-.74,1.02-1.02.4-.28.88-.4,1.31-.61.43-.22.83-.48,1.29-.63.46-.15.91-.31,1.39-.38"/><path d="M99.56,162.84c-.24-.07.17-.56-.08-.56-.64,0-.53.37-1.17.32-.17-.61-.78-.44-1.07-.76-.16-.18-.05-.65-.07-1.37-.02-.42-.43-.91-.42-1.44.01-.46.25-.94.28-1.44.03-.48.01-.97.05-1.45.04-.5-.16-1.01-.12-1.47.05-.52.23-1.01.27-1.44.06-.64.33-1.13.35-1.43.03-.47-.14-.96-.11-1.43.03-.47.35-.93.38-1.4.03-.47-.24-.96-.21-1.44.03-.47.11-.94.14-1.41.03-.47-.11-.96-.08-1.43.03-.47.06-.95.09-1.42.03-.47.32-.93.35-1.4.03-.47-.16-.96-.12-1.43.04-.47.49-.91.53-1.38.04-.47-.38-.98-.33-1.45.05-.47.52-.9.57-1.36.05-.47-.29-.98-.23-1.45.06-.47.42-.9.49-1.36.06-.47-.09-.96-.01-1.43.07-.47.23-.92.31-1.38.08-.46.24-.91.33-1.38.09-.46.28-.9.38-1.36.1-.46-.11-.99,0-1.45.11-.46.45-.86.57-1.32.12-.45-.03-.98.1-1.44.13-.45.25-.91.39-1.37.14-.45.5-.83.66-1.28.15-.44.45-.83.62-1.28.16-.44-.02-1.02.15-1.46.18-.43.51-.81.7-1.24.2-.45.44-.88.65-1.32.21-.45.33-.93.56-1.37.22-.44.67-.76.9-1.19.23-.43.37-.91.6-1.35.23-.43.63-.77.85-1.21.22-.43.05-1.06.26-1.5.21-.44.59-.8.78-1.25.18-.45.5-.85.67-1.32.16-.45.23-.95.37-1.43.14-.48.09-.99.2-1.45.11-.49.07-.98.14-1.44.08-.49.15-.95.19-1.42.04-.49.5-.95.51-1.43,0-.49.02-1-.01-1.47-.03-.49-.57-.92-.64-1.39-.07-.49.27-1.04.16-1.51-.11-.48-.31-.93-.45-1.39-.15-.46-.52-.85-.7-1.29-.18-.45-.26-.94-.47-1.38-.21-.44-.58-.78-.81-1.21-.23-.43-.12-1.04-.37-1.46-.25-.41-.54-.81-.8-1.22-.26-.4-.79-.64-1.06-1.04-.27-.4-.53-.81-.8-1.21-.27-.4-.57-.78-.84-1.18-.28-.4-.5-.83-.77-1.23-.27-.4-.3-.96-.57-1.36-.27-.4-.69-.7-.95-1.11-.26-.41-.53-.81-.77-1.23-.24-.42-.36-.9-.59-1.33-.23-.42-.56-.79-.76-1.23-.21-.43-.39-.88-.58-1.33-.18-.44-.34-.9-.5-1.36-.15-.45-.53-.85-.66-1.32-.12-.46.16-1.02.06-1.5-.1-.48-.61-.87-.69-1.35-.08-.48.18-1.01.11-1.49-.06-.48-.36-.93-.41-1.42-.05-.48.25-.99.21-1.48-.04-.48-.1-.96-.12-1.44-.03-.48-.02-.97-.04-1.45-.02-.49-.04-.96-.05-1.45,0-.49-.41-.96-.41-1.45,0-.48.25-.97.25-1.45,0-.49,0-.97.01-1.45,0-.49.05-.97.06-1.46.01-.48.02-.97.03-1.45.01-.48-.04-.97-.03-1.45.01-.49-.12-.97-.11-1.46.01-.48.1-.96.11-1.45,0-.37.21-.85.2-1.4,0-.43-.3-.89-.31-1.39-.01-.45.3-.92.29-1.4,0-.46-.16-.93-.16-1.4,0-.47.01-.94.03-1.4.02-.48.24-.94.27-1.38.04-.5-.27-1.02-.19-1.43.1-.55.56-.87.75-1.18.31-.51.5-.68.83-.76.41-.1.66,0,1.01.36.28.29.44.65.62,1.08.17.41.5.76.55,1.19.05.47.29.92.32,1.4.03.47-.28.96-.27,1.44.02.47-.04.94-.03,1.42,0,.47.21.94.21,1.42,0,.47.16.95.15,1.42,0,.47-.24.94-.25,1.42-.01.47.21.95.19,1.43-.01.47-.3.93-.31,1.41-.02.47.23.95.21,1.43-.02.47-.09.94-.1,1.42-.01.47-.03.95-.04,1.42-.01.47-.38.94-.39,1.42,0,.47.02.95.02,1.42,0,.48-.01.95,0,1.43,0,.48.06.95.07,1.43.01.47.35.94.37,1.41.02.47-.03.95,0,1.42.04.48-.06.96-.01,1.43.05.47.04.96.11,1.42.07.47.06.96.15,1.42.09.47.62.84.72,1.3.11.46.07.96.19,1.41.13.46.32.89.47,1.34.15.45.36.87.53,1.31.18.44.23.93.44,1.35.21.43.57.76.8,1.18.24.42.24.99.5,1.4.26.41.58.79.85,1.19.27.41.49.84.77,1.24.28.4.74.67,1.02,1.07.28.4.57.79.85,1.18.28.4.47.86.74,1.26.28.4.32.96.59,1.36.27.4.69.71.95,1.12.26.41.71.71.95,1.13.24.42.56.81.79,1.24.22.43.19.99.39,1.44.2.44.44.86.62,1.32.18.45.15.97.3,1.43.15.46.28.9.39,1.35.12.46.15.93.23,1.38.08.47.13.92.18,1.39.05.47.3.92.31,1.39.01.47.08.95.07,1.42-.02.47-.22.93-.27,1.4-.05.47-.19.92-.26,1.38-.08.46.19,1,.09,1.46-.1.46-.4.88-.53,1.33-.12.45-.46.84-.6,1.29-.14.45.05,1.01-.11,1.46-.16.44-.25.92-.42,1.36-.17.44-.69.74-.87,1.17-.18.43-.29.9-.48,1.33-.19.43-.5.81-.7,1.23-.2.43-.15.97-.36,1.39-.2.42-.72.7-.92,1.13-.21.42-.25.92-.46,1.35-.21.43-.38.86-.58,1.29-.2.43-.57.78-.76,1.21-.2.43-.34.89-.53,1.32-.19.43-.14.97-.32,1.4-.18.44-.33.88-.51,1.32-.17.44-.69.75-.85,1.19-.16.45.12,1.04-.03,1.49-.14.45-.57.81-.69,1.27-.12.46-.15.94-.25,1.4-.1.47-.42.9-.49,1.38-.08.47.03.98-.03,1.45-.05.48-.11.95-.15,1.43-.04.48-.17.95-.2,1.43-.03.48.1.96.07,1.44-.02.48-.18.95-.2,1.43s-.09.95-.12,1.43c-.03.48.16.97.12,1.45-.05.49.05.99,0,1.47-.05.49-.09.97-.14,1.46-.05.49-.12.97-.17,1.45-.05.49-.12.97-.17,1.45-.05.49,0,.98-.05,1.46-.05.49-.19.96-.23,1.44-.05.49.03.98-.02,1.47-.04.49-.37.95-.41,1.43-.04.49.15.99.1,1.48-.04.49-.39.95-.43,1.43-.04.49-.18.96-.22,1.45-.04.49.02.98-.02,1.46-.03.49.22.99.19,1.48-.03.5-.34.98-.32,1.42.03.5.21.93,0,1.35-.18.34-.51.8-1.05,1.09"/><path d="M96.19,89.88c-.46.05-.86.32-1.33.57-.41.22-1,.25-1.39.59-.36.31-.58.82-.91,1.2-.32.37-.7.71-.98,1.12-.29.41-.68.78-.91,1.2-.25.46-.31.99-.47,1.43-.19.51-.14,1.02-.19,1.46-.06.53-.26,1.01-.25,1.47.02.54.13,1.02.24,1.47.13.52.13,1.08.37,1.48.26.44.75.71,1.13,1.02.38.31.86.41,1.34.6.44.17.87.46,1.38.53.47.07.97.08,1.49.06.48-.02.95-.22,1.46-.3.48-.08,1.04.14,1.53,0,.46-.13.93-.35,1.36-.57.42-.22.73-.66,1.11-.96.38-.29.63-.71.95-1.06.33-.35.6-.72.87-1.12.27-.4.55-.77.75-1.2.21-.44.57-.82.7-1.27.14-.47.02-.98.06-1.45.05-.49,0-.93-.06-1.4-.07-.48,0-.98-.2-1.41-.19-.43-.56-.75-.89-1.11-.31-.34-.69-.55-1.13-.81-.38-.23-.67-.73-1.17-.89-.32-.1-.98,0-1.66-.13-.53-.11-1.08-.28-1.6-.36-.7-.11-1.31-.2-1.62-.16M95.71,86.74c.32-.04.8-.21,1.26-.22.48-.01.91.32,1.21.4.35.1.7.41,1.18.6.43.17.83.4,1.26.54.44.14.84.41,1.26.54.45.13.93.1,1.35.25.44.15.94.15,1.34.35.41.2.71.59,1.08.86.35.27.71.54,1.01.91.27.33.33.81.56,1.24.19.37.54.7.7,1.16.16.47.43.91.52,1.37.09.48-.03.99-.02,1.46.01.49,0,.97-.07,1.44-.07.48-.02.99-.16,1.45-.14.46-.63.79-.83,1.22-.2.43-.4.85-.66,1.25-.26.4-.38.9-.68,1.28-.31.37-.55.82-.9,1.15-.34.33-.71.67-1.1.96-.38.29-.82.53-1.23.79-.41.25-.93.31-1.36.53-.43.21-.79.6-1.24.78-.45.17-.91.36-1.38.49-.47.12-.99.04-1.46.11-.48.07-.95.27-1.43.29-.48.02-.99.09-1.46.06-.48-.04-.91-.44-1.38-.54-.47-.1-1,.02-1.46-.14-.45-.16-.87-.43-1.3-.66-.44-.23-.82-.54-1.19-.83-.39-.3-.74-.64-1.05-.99-.32-.37-.49-.82-.73-1.23-.24-.42-.48-.81-.64-1.26-.16-.45-.38-.88-.46-1.36-.08-.47-.17-.95-.18-1.43-.02-.48.1-.95.14-1.44.05-.47.15-.94.25-1.41.1-.47.05-.98.2-1.44.15-.45.45-.86.64-1.3.19-.44.22-.97.46-1.39.24-.42.58-.79.86-1.18.28-.39.63-.74.94-1.1.32-.36.76-.6,1.12-.92.36-.32.63-.74,1.02-1.02.4-.28.88-.4,1.31-.61.43-.22.83-.48,1.29-.63.46-.15.91-.31,1.39-.38"/></svg>