<?xml version="1.0" encoding="UTF-8"?><svg id="Layer_1" xmlns="http://www.w3.org/2000/svg" viewBox="0 0 200 200"><path d="M78.49,107.1c.47.09.8.07,1.27.15.47.09.86.67,1.33.74.47.08,1.03-.36,1.5-.29.47.07.89.56,1.36.62.48.06.96.07,1.43.12.48.05.95.21,1.42.25.48.04.99-.39,1.47-.36.48.03.94.29,1.42.3.48.02.96-.04,1.43-.04.48,0,.96.22,1.44.21.48-.01.97.06,1.44.04.48-.03.96-.11,1.43-.15.48-.04.94-.24,1.42-.29.47-.06.96-.05,1.43-.12.47-.07.92-.28,1.39-.37.47-.09.98,0,1.44-.11.46-.1.96-.13,1.42-.25.46-.12.83-.58,1.29-.72.46-.14,1-.02,1.45-.18.45-.16.74-.74,1.19-.91.44-.17.94-.2,1.38-.39.44-.19.92-.28,1.35-.49.41-.2.7-.64,1.1-.86.4-.21.84-.36,1.23-.59.4-.23.82-.4,1.21-.64s.87-.33,1.25-.59c.38-.25.84-.4,1.22-.66.37-.26.62-.71.98-.98.36-.28.8-.46,1.16-.74.36-.28.78-.5,1.13-.79.35-.29.44-.9.78-1.2.35-.3.84-.43,1.18-.73.34-.3.76-.52,1.1-.83.34-.31.61-.69.95-1,.34-.31.72-.57,1.05-.88.33-.31.71-.65,1.04-.96,0-.22-.54-.7-1.18-.93-.37-.13-.81-.28-1.27-.4-.42-.11-.87-.19-1.3-.29-.46-.1-.89-.29-1.28-.37-.61-.12-1.13,0-1.34-.03-.46-.06-.93-.05-1.4-.1-.46-.05-.93-.1-1.39-.14-.47-.04-.94.16-1.41.13-.47-.03-.92-.26-1.38-.28-.47-.02-.93.04-1.39.03-.47,0-.93-.32-1.39-.32-.47,0-.93.21-1.39.23-.47.02-.92.13-1.38.16-.46.03-.96-.32-1.42-.27-.46.05-.89.45-1.35.51-.46.06-.96-.15-1.42-.07-.46.08-.88.39-1.33.48-.45.09-.96-.04-1.41.07-.45.11-.87.37-1.32.49-.45.12-.92.19-1.36.33-.44.14-.85.4-1.29.55-.43.16-.93.17-1.36.34-.43.17-.7.73-1.12.92-.42.19-.88.29-1.3.5-.42.2-.77.51-1.18.73-.41.22-1.01.09-1.41.32-.4.23-.85.4-1.25.65-.39.24-.59.79-.98,1.05-.36.24-.92.22-1.31.49-.36.25-.7.56-1.07.84-.36.26-.51.81-.87,1.1-.35.28-.75.5-1.1.79-.34.29-.89.36-1.22.67-.33.31-.51.79-.82,1.11-.31.33-.43.83-.71,1.17-.29.36-.52.72-.77,1.09-.26.38-.87.54-1.08.93-.21.41-.04.79-.18,1.21M52.54,98.45c-.16-.17-.55-.58-.9-.99-.36-.43-.3-1.15-.4-1.32-.21-.36-.81-.61-.84-1.02-.03-.43.45-.81.6-1.17.17-.4.33-.68.71-.84.33-.14.61-.04,1.09.12.26.09.86-.07,1.32.27.31.23.51.7.87.99.32.27.7.5,1.04.79.33.29.52.74.85,1.02.35.3.63.66.93.92.39.33.78.58,1.05.78.38.27.84.42,1.22.68.38.26.72.58,1.11.84s.84.4,1.23.65c.39.25.68.65,1.08.89.39.24.75.56,1.15.79.4.23.97.16,1.38.38.41.22.69.68,1.1.9.41.21,1.02.02,1.44.22.42.2.76.54,1.18.74.42.19.79.48,1.22.66.42.18.95.1,1.38.27.43.17.81.4,1.25.56.16-.01.41-.39.84-1.05.25-.39.68-.74.96-1.19.27-.45.67-.82.91-1.22.35-.57.46-1.14.64-1.36.3-.36.71-.63,1.04-.98.32-.34.72-.6,1.08-.93.34-.32.42-.94.79-1.26.36-.31.87-.44,1.25-.74.37-.29.82-.49,1.21-.77.38-.28.71-.63,1.11-.9.39-.27.83-.47,1.23-.73.4-.26.81-.49,1.22-.73.41-.25.79-.53,1.21-.77.42-.24.84-.46,1.26-.68.42-.23.83-.47,1.26-.68.43-.22.9-.34,1.33-.54.43-.21.78-.58,1.22-.78.44-.2.85-.45,1.29-.63.45-.19.89-.36,1.34-.53.45-.17.82-.57,1.27-.72.46-.16.98-.12,1.43-.27.46-.15.9-.36,1.35-.49.47-.13,1.01.04,1.46-.06.44-.11.86-.39,1.34-.48.45-.08.91-.24,1.39-.3.46-.06.96.29,1.44.25.46-.04.9-.41,1.38-.43.46-.02.94.25,1.42.24.46,0,.93-.24,1.41-.23.47,0,.93.25,1.4.27.47.02.94-.1,1.41-.08.47.03.93.14,1.4.18.47.04.94-.03,1.41.02.47.05.92.27,1.38.33.47.06.99-.28,1.46-.22.47.07.92.24,1.39.31.47.08.96.05,1.42.14.47.09.85.58,1.31.68.47.1.9.28,1.36.39.47.11,1.01-.12,1.46,0,.46.12.82.57,1.27.7.46.14.92.22,1.36.37.46.15,1.02-.01,1.44.15.45.17.87.43,1.28.61.38.17.65.65,1.08.89.38.21.88.25,1.29.51.37.23.89.28,1.29.54.37.25.77.49,1.15.76.36.26.47.9.85,1.18.36.27.95.26,1.32.54.36.28.71.58,1.07.87.36.29.64.67,1,.96.35.29.78.5,1.13.8.35.3.77.52,1.11.83.35.3.54.79.88,1.09.35.31.55.78.88,1.08.34.32.7.61,1.03.92.34.32.92.39,1.24.71.34.34.49.84.8,1.16.34.35.54.78.84,1.1.33.36.82.54,1.09.86.28.34.61.7.91,1.09.29.37.61.75.85,1.15.25.42.26.94.37,1.38.12.47.05.85-.08,1.32-.11.41-.21.59-.59.99-.51-.17-.86-.15-1.25-.45-.41-.3-.99-.45-1.33-.83-.34-.38-.4-1-.72-1.39-.33-.39-.76-.68-1.12-1.02-.35-.33-.84-.51-1.21-.85-.36-.33-.56-.83-.92-1.16-.36-.33-.61-.77-.98-1.1-.36-.33-.97-.39-1.33-.71-.37-.33-.55-.87-.91-1.19-.37-.33-.64-.76-1.01-1.08-.37-.32-.77-.61-1.13-.93-.38-.32-1.04-.29-1.41-.6-.21-.17-.32-.79-.77-1.16-.31-.26-.85-.31-1.23-.61-.34-.27-.5-.81-.86-1.09-.36-.28-.66-.65-1.01-.9-.4-.29-1.05-.16-1.38-.37-.56-.35-.84-.7-1.05-.68-.34.31-.64.64-.98.95-.34.31-.57.74-.91,1.05-.34.31-1.03.23-1.38.54-.34.31-.65.65-1,.96-.34.31-.68.63-1.02.93-.35.3-.69.61-1.04.91-.35.3-.64.67-1,.96-.35.3-.46.9-.81,1.19-.36.29-.95.29-1.31.58-.36.29-.8.47-1.17.75-.37.28-.57.78-.94,1.06-.37.27-.81.45-1.19.71s-.72.59-1.1.84c-.39.25-.86.36-1.26.6-.39.24-.71.61-1.11.84-.4.23-.72.61-1.12.83-.41.22-1,.07-1.42.28-.41.2-.63.83-1.05,1.02-.42.19-.89.28-1.32.46-.43.17-.96.09-1.39.25-.43.16-.89.22-1.33.36-.45.14-.85.42-1.31.55-.45.12-.84.52-1.3.63-.46.11-1.02-.24-1.48-.15-.46.09-.91.22-1.38.3-.46.07-.94.04-1.41.1-.47.06-.9.42-1.37.46-.47.05-.93.28-1.4.31-.47.03-.95.07-1.42.09-.47.02-.96-.44-1.43-.44-.47,0-.94,0-1.41,0-.47,0-.95.33-1.42.31-.47-.02-.94-.15-1.41-.17-.47-.03-.92-.32-1.39-.35-.47-.04-.99.41-1.46.36-.47-.05-.94-.12-1.41-.19-.47-.06-.93-.16-1.4-.23-.47-.07-.94-.14-1.4-.22-.47-.08-.86-.54-1.32-.64-.46-.09-.97.01-1.43-.09-.46-.1-.94-.14-1.4-.25s-.85-.5-1.3-.62c-.46-.12-.99.03-1.44-.1-.45-.13-.91-.27-1.36-.41-.45-.14-.87-.4-1.31-.55-.45-.15-.84-.47-1.28-.63-.44-.16-.83-.46-1.27-.63-.44-.17-.87-.34-1.31-.53-.44-.18-.91-.28-1.34-.48-.43-.19-.88-.35-1.3-.56-.43-.2-.96-.21-1.37-.42-.42-.22-.9-.33-1.31-.56-.42-.23-.65-.78-1.05-1.02-.41-.24-.96-.24-1.36-.48-.4-.25-.73-.62-1.12-.88-.4-.26-.73-.61-1.11-.88-.39-.27-.82-.48-1.19-.77-.38-.29-.78-.54-1.15-.83-.37-.3-.8-.53-1.15-.83-.36-.31-.51-.85-.85-1.17-.34-.33-.94-.39-1.27-.72"/></svg>