<?xml version="1.0" encoding="UTF-8"?><svg id="Layer_1" xmlns="http://www.w3.org/2000/svg" viewBox="0 0 200 200"><path d="M70.99,127.74c.28.27.53.57.85.81.31.24.55.58.89.79.33.21.69.37,1.04.57.34.19.64.47,1.01.64.35.17.75.25,1.12.4.36.14.67.47,1.05.6.37.13.76.23,1.15.35.38.11.83-.02,1.21.08.38.09.73.34,1.12.42.39.08.84-.18,1.23-.11.39.07.72.48,1.12.54.39.06.79.1,1.19.15.39.05.78.2,1.18.23.4.04.81-.2,1.21-.18.4.02.8-.08,1.19-.07.4.01.79.2,1.19.2.4,0,.79-.11,1.19-.12.4,0,.79-.07,1.19-.09.4-.02.8.02,1.19,0,.4-.03.78-.16,1.17-.2.4-.04.84.29,1.23.24.4-.05.73-.53,1.11-.6.4-.07.79-.08,1.17-.16.4-.08.82.02,1.2-.08.4-.1.81-.09,1.18-.2.37-.11.64-.55,1-.67.37-.13.78-.1,1.14-.25.36-.14.69-.35,1.04-.51.36-.16.76-.2,1.11-.37.35-.17.75-.25,1.09-.44.34-.18.58-.56.91-.76.33-.2.8-.19,1.12-.4.32-.21.62-.48.93-.7.32-.23.49-.64.8-.88.31-.24.69-.37.99-.62.3-.25.47-.64.76-.89.29-.26.71-.37.98-.65s.57-.52.84-.8.51-.59.76-.88c.26-.29.32-.74.56-1.04.25-.3.48-.6.71-.91.24-.31.82-.36,1.04-.67.23-.31.21-.8.42-1.12.22-.32.43-.64.63-.97.2-.33.33-.7.52-1.04.19-.33.53-.59.71-.93.18-.34.52-.61.69-.95.17-.35.05-.84.21-1.19.16-.35.35-.69.5-1.05.15-.36.43-.66.57-1.02.14-.36.29-.72.42-1.09.13-.36.35-.7.47-1.07.12-.37-.04-.82.07-1.2.11-.37.48-.67.58-1.05.1-.37.21-.75.3-1.13.09-.38-.08-.81,0-1.19s0-.78.06-1.17c.07-.38.51-.7.57-1.08.06-.38.17-.76.22-1.15.05-.38.03-.78.07-1.17.04-.39-.23-.79-.2-1.18.02-.39-.02-.77,0-1.16.01-.39.07-.77.08-1.15,0-.39.05-.77.04-1.16,0-.39.25-.78.23-1.17-.02-.39-.16-.77-.19-1.16-.03-.39-.19-.76-.23-1.14-.04-.39-.04-.77-.09-1.16-.05-.38-.25-.74-.31-1.13-.06-.38.09-.8.01-1.18-.07-.38.02-.8-.06-1.18-.09-.38-.5-.68-.59-1.05-.1-.37-.04-.79-.15-1.16-.11-.37-.47-.66-.59-1.03-.12-.37.07-.84-.06-1.21-.13-.36-.55-.62-.69-.98-.15-.36-.3-.71-.45-1.06-.16-.35-.09-.81-.26-1.16-.17-.35-.63-.55-.81-.89-.18-.34-.1-.83-.29-1.16-.19-.33-.48-.61-.69-.94-.21-.33-.29-.74-.51-1.06-.22-.32-.43-.65-.66-.96-.23-.31-.6-.52-.84-.82-.24-.3-.49-.59-.76-.87-.27-.27-.69-.38-.99-.63-.29-.25-.36-.78-.68-1.01-.31-.22-.67-.4-1-.61-.32-.2-.8-.16-1.14-.35-.33-.18-.58-.54-.93-.71-.34-.17-.74-.23-1.1-.38-.35-.15-.65-.46-1.01-.6-.36-.14-.78-.12-1.15-.24-.37-.12-.69-.41-1.06-.52-.37-.11-.77-.11-1.15-.21-.37-.1-.77-.13-1.14-.21-.38-.08-.77-.08-1.15-.16-.38-.07-.78-.03-1.16-.09-.38-.06-.74-.25-1.13-.3-.39-.05-.75-.28-1.13-.32-.39-.04-.8.23-1.18.2-.39-.03-.76-.18-1.15-.2-.39-.02-.78-.23-1.16-.23-.39,0-.78.34-1.16.35-.39,0-.78-.11-1.16-.09-.39.02-.77.12-1.15.15-.39.04-.77.07-1.15.13-.39.06-.78.06-1.15.13-.38.08-.77.15-1.15.24-.38.09-.78.1-1.16.21-.38.11-.71.37-1.08.49-.37.12-.79.12-1.16.26-.37.14-.73.3-1.09.45-.36.15-.69.38-1.05.54-.36.16-.71.32-1.07.49-.35.17-.81.15-1.16.33-.34.18-.59.56-.93.76-.34.19-.66.43-.99.64-.33.21-.74.3-1.06.52-.33.22-.51.65-.83.87s-.83.19-1.14.43c-.31.23-.66.44-.97.68-.31.24-.48.66-.78.91-.3.25-.57.54-.86.81-.29.26-.49.63-.77.9-.28.27-.58.52-.86.8-.28.28-.7.41-.97.7-.27.29-.33.76-.58,1.06-.26.3-.53.57-.78.88-.25.3-.7.44-.94.76-.24.31-.31.75-.53,1.07-.23.32-.59.55-.81.87-.22.33-.3.74-.51,1.07-.21.33-.56.58-.76.92-.2.34-.28.74-.46,1.09-.18.35-.24.75-.41,1.11-.17.36-.45.66-.6,1.01-.15.36-.34.71-.48,1.08-.14.37-.48.67-.61,1.04-.12.37.05.84-.06,1.22-.11.38-.16.77-.24,1.15-.09.41-.05.81-.12,1.2-.07.41-.14.79-.18,1.19-.05.41-.29.79-.31,1.18-.02.41-.13.81-.12,1.21,0,.41.09.81.12,1.21.03.4-.15.83-.1,1.23.04.4.54.74.59,1.15.05.4-.18.83-.12,1.24.06.39.36.75.43,1.16.06.39.1.79.16,1.2.06.39.04.8.1,1.21.05.39.02.8.07,1.21.05.44.11.89.1,1.35,0,.45-.18.9-.19,1.35,0,.45-.1.93-.06,1.37.04.37.2.75.26,1.14.06.37.45.68.55,1.06.09.37-.06.8.05,1.17.11.36.45.65.58,1.02.12.36.18.74.33,1.1.14.35.23.73.39,1.08.15.35.37.67.54,1.02.17.35.35.68.53,1.02.18.34.13.8.32,1.14.19.34.51.6.71.92.2.33.51.59.72.91.21.32.36.69.58,1,.22.32.29.75.52,1.05.24.31.78.37,1.02.66.25.3.26.8.52,1.07.27.29.73.37,1,.63M91.73,63.63c.38-.03.78,0,1.18-.02.38-.02.78.1,1.18.09.39,0,.78-.05,1.17-.05.39,0,.78.13,1.17.15.39.02.78-.04,1.18-.02.39.03.76.26,1.15.29.39.04.78.06,1.17.11.39.05.81-.14,1.2-.08.39.06.75.28,1.14.35.39.07.84-.19,1.23-.11.38.08.69.51,1.07.6.38.09.76.18,1.14.29.38.1.72.32,1.1.43.38.12.83-.01,1.2.11.37.13.79.15,1.15.29.37.14.67.46,1.03.61.36.16.77.22,1.12.39.36.17.73.31,1.08.5.35.19.66.44,1,.65.34.2.73.34,1.06.55.33.22.43.76.74,1,.31.24.89.16,1.18.42.3.26.56.58.83.86.28.28.41.7.67,1,.26.3.41.67.64.99.23.31.72.44.94.76.22.32.29.74.5,1.07.21.33.47.63.66.96.2.33.28.74.46,1.08.19.34.27.73.44,1.08.18.35.53.6.7.95.16.35.09.81.25,1.16.15.36.35.69.49,1.05.14.36.49.64.63,1.01.13.36.13.78.25,1.14.12.37.41.69.52,1.06.11.37.02.8.12,1.18.1.37.16.76.25,1.13s.21.75.28,1.12c.08.38.4.72.47,1.1.07.38.14.77.2,1.15.06.38-.32.83-.27,1.21.05.38.38.74.41,1.12.04.39.06.77.09,1.16.03.39.13.77.15,1.16.02.39-.14.78-.14,1.17,0,.39-.17.77-.17,1.16,0,.39.31.78.3,1.17-.01.39-.06.78-.09,1.16-.02.39-.2.76-.23,1.15-.03.39-.08.77-.12,1.15-.04.39-.18.76-.23,1.14-.05.38.17.81.11,1.19-.06.38-.4.72-.47,1.1-.07.38-.16.75-.24,1.13-.08.38.09.81,0,1.19-.09.38-.03.79-.13,1.17-.1.37-.58.64-.69,1.01-.11.37-.28.72-.4,1.09-.12.37-.19.75-.32,1.11-.13.37.02.83-.12,1.19-.14.36-.22.75-.36,1.11-.15.36-.34.7-.5,1.06-.16.35-.36.69-.53,1.04-.17.35-.58.58-.75.92-.18.35-.25.74-.43,1.08-.18.34-.26.74-.45,1.08s-.43.65-.64.97c-.2.33-.29.74-.51,1.06-.21.32-.61.52-.83.84-.22.32-.59.52-.82.83-.23.31-.2.81-.45,1.11-.24.3-.62.48-.87.77-.25.29-.32.75-.59,1.02-.26.28-.78.31-1.05.58-.28.27-.35.74-.64,1-.28.26-.58.51-.87.76-.29.24-.75.29-1.06.52-.3.23-.42.72-.73.94-.31.22-.8.19-1.12.4-.32.21-.58.51-.91.71-.33.2-.73.26-1.06.45-.33.19-.67.36-1.01.53-.34.18-.6.5-.95.67-.34.17-.7.32-1.05.48-.35.16-.62.5-.98.65-.35.15-.85-.07-1.21.07-.36.14-.7.31-1.06.44-.36.12-.64.51-1.01.62-.37.11-.79.02-1.16.12s-.71.3-1.09.39c-.37.09-.78,0-1.16.08-.38.08-.72.31-1.1.38-.38.07-.78-.05-1.16.01-.38.06-.74.21-1.12.26-.38.05-.75.15-1.14.18-.38.03-.76.14-1.14.16-.38.02-.77.15-1.15.16-.38,0-.77-.12-1.16-.12-.38,0-.76-.2-1.14-.21-.38-.01-.78.27-1.16.25-.39-.03-.78-.19-1.16-.22-.39-.03-.76-.26-1.15-.3-.39-.04-.82.26-1.2.22-.39-.05-.76-.23-1.15-.29-.39-.06-.79-.05-1.17-.12-.39-.07-.77-.15-1.15-.23-.38-.08-.75-.23-1.13-.32-.38-.09-.76-.21-1.13-.31-.38-.11-.72-.31-1.09-.43-.37-.12-.79-.11-1.15-.25-.36-.14-.67-.42-1.03-.58-.36-.16-.71-.31-1.06-.48-.35-.18-.73-.29-1.06-.49-.33-.2-.66-.41-.99-.63-.32-.22-.5-.63-.81-.86-.31-.23-.74-.3-1.04-.56-.29-.25-.61-.48-.9-.75-.28-.26-.46-.63-.73-.92-.27-.28-.72-.4-.97-.7-.25-.29-.24-.8-.49-1.11-.25-.32-.44-.66-.67-.98-.24-.33-.64-.52-.86-.84-.23-.33-.49-.64-.69-.97-.22-.34-.54-.61-.74-.95-.21-.35-.38-.71-.56-1.06-.19-.36-.18-.81-.34-1.16-.17-.36-.59-.61-.74-.97-.16-.37-.28-.75-.42-1.12-.14-.37-.02-.84-.14-1.21-.12-.38-.44-.7-.54-1.08-.11-.38-.04-.81-.13-1.19-.09-.38-.33-.74-.41-1.13-.08-.39.03-.81-.04-1.2-.07-.39-.25-.76-.31-1.15-.06-.39-.24-.76-.3-1.16-.05-.39.03-.8-.02-1.19-.05-.39-.06-.78-.11-1.18-.05-.38.13-.8.08-1.2-.05-.39-.39-.74-.45-1.14-.05-.39-.15-.77-.21-1.17-.05-.39-.23-.76-.29-1.16-.06-.39-.1-.78-.16-1.18-.06-.38.09-.81.02-1.21-.09-.53-.12-.96-.24-1.33-.14-.42-.33-.77-.41-1.26-.06-.37.13-.78.15-1.32.02-.39-.4-.81-.37-1.2.04-.39.38-.74.44-1.13.05-.39-.12-.81-.04-1.2.07-.38.18-.76.27-1.15.09-.38.27-.74.37-1.12.11-.37.31-.72.43-1.09.12-.37.19-.76.33-1.12.14-.36.42-.67.57-1.03.15-.36.39-.67.55-1.03.16-.35.23-.75.41-1.1.17-.35.07-.84.26-1.19.18-.34.6-.56.8-.89.2-.34.2-.79.4-1.13.21-.33.48-.62.7-.95.22-.32.49-.61.71-.93.23-.32.41-.67.64-.98.23-.31.46-.63.71-.94.24-.3.69-.44.94-.74s.4-.69.66-.98c.26-.29.44-.66.7-.94.27-.28.6-.51.87-.79.28-.28.69-.41.98-.68.28-.27.3-.82.59-1.08.29-.26.79-.28,1.09-.54.3-.26.41-.73.71-.98.3-.25.65-.45.96-.69.31-.24.82-.22,1.13-.45.31-.23.52-.61.84-.83.32-.23.75-.28,1.07-.5.33-.22.6-.51.93-.71.33-.21.55-.6.88-.8.34-.2.76-.25,1.1-.44.34-.19.69-.37,1.03-.55.35-.18.57-.62.92-.79.35-.17.78-.18,1.14-.34.36-.16.77-.19,1.13-.34.36-.15.73-.29,1.09-.42.37-.14.64-.55,1.01-.67.37-.12.88.18,1.25.07.38-.11.69-.44,1.06-.53.38-.1.76-.16,1.14-.25.38-.08.74-.29,1.12-.35.39-.07.76-.22,1.15-.27.39-.05.79-.06,1.17-.09"/><path d="M115.08,95.26c-.37.07-.63.45-.97.63-.34.17-.89.03-1.19.27-.3.24-.53.6-.78.89-.26.3-.2.8-.38,1.12-.2.36-.35.65-.43,1-.1.41-.47.8-.38,1.14.1.36.54.54.91.74.28.15.6.25,1.06.27.33.02.71.1,1.14.04.39-.06.64-.37.94-.49.36-.14.69-.16.94-.38.26-.23.62-.4.79-.73.15-.29.16-.67.25-1.04.07-.32.1-.67.13-1.05.05-.45.11-.9,0-1.27-.12-.44-.35-.92-.72-1.11-.31-.16-.81-.11-1.33,0M115.1,91.87c.41-.12.81-.45,1.2-.44.42.01.74.5,1.13.64.38.14.75.23,1.09.47.33.24.87.28,1.14.59.27.31.51.69.72,1.05.21.36.04.89.17,1.27.14.4.49.73.53,1.13.05.41.05.83.04,1.22-.02.41-.18.8-.26,1.19-.08.4.03.87-.12,1.24-.15.38-.47.69-.68,1.04-.21.35-.59.56-.85.87-.26.31-.46.66-.77.92s-.62.52-.96.73c-.34.21-.74.31-1.11.46-.37.15-.77.17-1.16.27-.39.09-.76.2-1.16.23-.4.04-.78.14-1.19.12-.4-.02-.77-.17-1.17-.25-.4-.08-.83.04-1.16-.1-.37-.16-.56-.57-.85-.79-.31-.24-.67-.38-.89-.68-.23-.3-.25-.7-.39-1.05-.14-.35-.61-.61-.68-.99-.06-.37.06-.78.07-1.17,0-.37.25-.72.31-1.1.07-.37.11-.73.23-1.1.12-.36.25-.7.42-1.04.17-.34.27-.72.48-1.03.22-.32.48-.59.74-.87.26-.28.58-.49.88-.72.37-.28.7-.4.99-.53.38-.17.67-.35,1.03-.43.32-.07.6-.31,1.03-.47.43-.17.79-.57,1.23-.7"/><path d="M134.6,93.18c-.22.03-.75.05-1.14.48-.25.28-.53.64-.79.99-.25.35-.45.75-.65,1.08-.29.47-.17.99-.22,1.23-.09.43-.19.79-.19,1.17,0,.44-.21.87-.12,1.23.11.42.34.79.55,1.11.24.35.58.6.91.81.34.22.72.39,1.13.45.39.06.84.13,1.24.04.38-.09.69-.43,1.04-.66.32-.21.74-.35,1.02-.68.25-.29.57-.6.77-.98.18-.34.08-.83.21-1.24.13-.42.39-.78.46-1.16.09-.44.12-.86.1-1.24-.02-.44-.11-.86-.31-1.21-.19-.33-.63-.41-1.03-.65-.31-.19-.52-.73-.97-.86-.13-.04-.6-.02-1.03-.07-.45-.06-.89.15-.99.16M135.74,89.41c.23-.02.6.39,1.05.49.34.08.7.17,1.04.28.42.13.8.2,1.02.3.38.17.9.07,1.21.29.33.24.62.57.89.85.28.29.31.77.52,1.11.21.34.42.66.56,1.04.14.37.29.74.37,1.13.07.39.08.78.1,1.18.02.39-.09.78-.12,1.18-.04.39.1.81.02,1.2-.08.39-.34.73-.47,1.11-.13.38-.36.69-.54,1.05-.17.36-.13.84-.34,1.17-.22.34-.59.56-.84.86-.26.3-.53.59-.83.85-.3.26-.62.48-.96.69-.34.2-.6.63-.97.77-.39.14-.9-.14-1.28-.05-.41.1-.77.25-1.15.29-.41.04-.82.37-1.2.35-.41-.03-.84-.12-1.22-.22-.4-.1-.65-.59-1-.75-.37-.17-.84-.15-1.16-.39-.32-.24-.63-.53-.89-.82-.27-.3-.42-.69-.63-1.03-.21-.34-.61-.6-.76-.98-.15-.37-.13-.82-.21-1.21-.09-.39.04-.8.02-1.21-.03-.39-.13-.79-.1-1.19.03-.39.06-.79.15-1.19.09-.38.28-.74.42-1.12.14-.37.39-.68.58-1.04.18-.35.35-.69.58-1.03.22-.32.39-.69.66-1,.28-.32.59-.51.8-.74.3-.31.4-.72.66-.9.31-.22.72-.12,1.08-.22.3-.09.6-.29,1.02-.36.31-.05.69.09,1.11.02.36-.05.6-.73.84-.75"/></svg>