<?xml version="1.0" encoding="UTF-8"?><svg id="Layer_1" xmlns="http://www.w3.org/2000/svg" viewBox="0 0 200 200"><path d="M143.65,96.01c-.45.38-.42.4-.92.71-.5.31-.52.25-1.05.5-.32,0-.58.32-.9.3-.32-.01-.63-.22-.95-.25-.32-.03-.63-.12-.94-.16-.32-.05-.65.03-.96-.03-.32-.06-.61-.19-.92-.27-.31-.08-.56-.34-.86-.44-.31-.1-.68.01-.98-.1-.3-.12-.64-.14-.93-.27-.29-.13-.49-.46-.77-.61-.28-.15-.63-.18-.91-.34-.27-.16-.37-.59-.64-.77-.26-.18-.59-.25-.85-.44-.26-.19-.61-.25-.86-.45-.25-.2-.33-.59-.57-.8-.24-.21-.48-.41-.71-.63-.23-.22-.62-.28-.85-.5-.22-.23-.41-.49-.62-.73-.21-.23-.34-.55-.54-.79-.21-.24-.45-.45-.65-.7-.2-.25-.26-.6-.46-.85-.2-.25-.44-.46-.63-.71-.19-.25-.58-.37-.76-.62-.19-.26-.39-.51-.57-.77-.18-.26-.24-.61-.42-.87-.18-.26-.23-.61-.41-.87-.18-.26-.53-.41-.7-.68-.18-.27-.14-.67-.32-.94-.17-.27-.65-.34-.82-.6-.18-.27-.29-.57-.47-.84-.17-.27-.12-.69-.29-.95-.18-.27-.38-.52-.55-.79-.18-.27-.56-.39-.74-.66-.18-.26-.24-.6-.42-.87-.18-.26-.25-.6-.43-.86-.18-.26-.59-.36-.77-.62-.18-.25-.16-.67-.35-.93-.18-.25-.53-.39-.73-.65-.19-.25-.3-.56-.5-.82-.19-.26-.4-.5-.59-.75-.19-.25-.5-.42-.7-.67-.19-.25-.41-.49-.6-.75-.2-.25-.33-.56-.53-.81-.2-.25-.3-.58-.5-.83-.2-.25-.41-.5-.61-.75-.2-.25-.42-.49-.63-.73-.21-.25-.49-.43-.69-.67-.21-.24-.51-.41-.72-.65-.22-.24-.34-.56-.55-.79-.24-.25-.53-.43-.76-.65-.25-.24-.49-.46-.73-.67-.27-.22-.44-.55-.7-.73-.28-.2-.67-.2-.95-.35-.3-.16-.59-.27-.9-.38-.32-.11-.55-.55-.87-.61-.32-.06-.69.17-1.03.17-.32,0-.67-.11-1-.05-.32.05-.59.34-.92.43-.31.09-.65.08-.97.2-.3.12-.55.36-.86.51-.29.14-.61.24-.91.4-.28.15-.69.09-.97.26-.27.16-.38.6-.65.78-.27.18-.62.23-.88.42-.26.19-.42.5-.68.7-.25.2-.54.35-.79.55-.25.2-.63.25-.87.46-.24.21-.49.42-.73.64-.24.21-.47.43-.71.66-.23.22-.43.48-.67.7-.23.22-.43.48-.65.71-.22.23-.56.35-.79.58-.22.23-.42.49-.64.73-.22.23-.47.44-.69.68-.22.24-.21.68-.42.92-.21.24-.39.51-.6.75-.21.24-.55.37-.76.61-.21.24-.4.5-.61.75-.21.24-.44.47-.65.71-.21.24-.5.42-.71.66-.21.25-.5.42-.7.67-.21.25-.19.68-.4.93-.21.25-.52.41-.73.65-.21.25-.31.58-.52.83-.21.25-.58.36-.79.6-.21.25-.19.69-.4.93-.21.25-.56.37-.77.62-.21.25-.36.55-.57.79-.21.25-.33.57-.54.81-.21.24-.59.35-.8.59-.21.24-.47.45-.68.69-.22.24-.36.55-.58.78-.22.24-.54.38-.76.61-.22.24-.21.7-.43.93-.22.24-.61.31-.84.54-.23.23-.37.54-.6.77-.23.23-.63.28-.87.5-.24.22-.38.54-.62.75-.24.22-.42.51-.66.72-.25.21-.44.49-.68.7-.25.21-.6.29-.85.49-.26.2-.49.43-.75.62-.26.19-.61.25-.88.43-.27.18-.43.54-.7.7-.28.17-.67.14-.95.29-.29.15-.46.53-.75.67-.29.14-.61.24-.91.36-.3.12-.68.05-.98.15-.31.1-.57.36-.88.44-.31.08-.69-.18-1.01-.12-.23.04-.55.24-.98.28-.3.02-.65-.08-1.02-.06-.33.02-.66.17-1.01.18-.34,0-.68-.03-1.02-.03-.35,0-.69-.11-1.01-.12-.37,0-.72.26-1.03.24-.43-.03-.8-.09-1.02-.15-.25-.07-.58-.38-.74-.75-.12-.28-.1-.67-.12-1.01-.01-.34.02-.7.16-.99.14-.29.44-.44.79-.55.29-.1.63-.31,1.02-.33.34-.01.69.28,1.06.3.36.01.72.03,1.06.04.38.01.73-.31,1.05-.33.33-.03.67.24.98.21.32-.04.65-.03.96-.09.32-.06.61-.26.91-.33.32-.07.58-.31.88-.4.31-.09.61-.17.9-.28.3-.11.64-.11.93-.24.29-.13.61-.2.89-.35.28-.15.57-.3.84-.47.26-.17.34-.62.6-.8.25-.18.55-.3.81-.49.25-.19.47-.41.72-.61.24-.2.53-.34.77-.55.24-.2.51-.37.75-.58.23-.2.39-.5.63-.72.22-.21.56-.32.79-.55.22-.22.32-.56.54-.8.21-.22.46-.43.68-.66.21-.23.42-.47.63-.71.21-.23.61-.29.83-.53.21-.23.25-.62.47-.86.21-.24.45-.44.66-.68.21-.24.57-.34.78-.58.2-.24.41-.48.62-.72.2-.24.14-.71.35-.95.2-.24.41-.47.62-.71.2-.24.46-.44.66-.68.2-.24.31-.56.52-.8.2-.24.56-.35.77-.59.2-.24.26-.61.46-.85.2-.24.51-.39.72-.64.21-.24.6-.32.8-.56.21-.24.29-.58.5-.82.21-.24.53-.38.74-.62.21-.24.4-.49.61-.73.21-.24.16-.71.37-.95.21-.24.55-.36.76-.6.22-.24.33-.57.54-.8.22-.23.52-.39.74-.62.22-.23.48-.42.7-.65.22-.23.43-.47.65-.7.23-.22.61-.29.83-.51.23-.22.33-.57.57-.79.23-.22.38-.52.62-.74.24-.22.48-.42.72-.63.24-.21.49-.41.73-.61.25-.21.44-.47.69-.67.25-.2.7-.14.95-.33.25-.2.34-.61.6-.8.26-.19.6-.26.86-.43.27-.18.45-.49.71-.66.27-.17.59-.26.87-.41.28-.16.63-.18.91-.32.29-.15.59-.24.87-.37.29-.13.48-.51.77-.62.3-.12.68.01.98-.08.31-.1.56-.38.86-.45.31-.07.64-.09.95-.14.32-.05.62-.22.94-.24.32-.02.65-.03.96-.02.31,0,.62.22.93.28.3.06.67-.03.97.08.29.1.61.21.9.35.28.13.38.63.65.79.27.16.7.07.96.25.26.18.47.44.72.63.25.19.6.28.84.49.24.21.47.45.69.66.24.22.33.58.55.8.23.23.5.41.71.63.22.24.39.51.61.76.21.24.6.34.81.58.21.25.23.65.44.9.21.25.42.49.62.74.2.25.33.56.53.82.2.26.45.47.64.73s.41.5.6.76c.19.26.46.46.65.72.19.26.19.66.38.92s.61.36.8.62c.18.26.32.57.5.83.18.27.26.6.44.87.18.27.56.4.74.67.18.27.32.56.5.83.18.27.15.68.33.95.18.27.32.56.5.83.18.27.5.44.68.71.18.27.33.56.51.82.18.27.53.42.71.69.18.27.15.68.33.95s.41.5.59.77c.18.26.37.53.56.79.19.26.46.46.65.72.19.26.41.5.6.76s.36.54.55.79c.19.26.19.67.39.92.2.26.6.35.8.6.2.25.24.63.45.88.21.25.58.35.79.59.21.24.21.67.42.91.22.25.46.47.69.7.23.24.7.22.93.44.24.23.43.49.67.69.25.21.47.45.72.65.26.2.48.45.74.62.27.18.44.53.72.69.28.16.64.19.93.34.29.14.67.08.96.21.3.12.53.4.84.5.3.1.6.24.91.33.31.09.63.12.95.19.31.07.61.23.94.28.31.05.67-.21,1-.17.32.04.6.39.93.42.32.03.62.02.95.03.26.14.57.17.74.4.18.23.24.54.3.82.05.27-.05.45-.13.74"/><path d="M57.48,103.73c-.36-.1-.59-.54-.6-.91,0-.31.21-.67.34-.99.15-.38.29-.79.49-.93.18-.13.58-.28,1.01-.35.31-.06.68-.08,1.04-.11.35-.03.71-.1,1.04-.11.43-.01.79.29,1.02.31.32.02.64.05.96.11.32.06.6.21.92.3.31.09.61.17.92.28.3.12.69.02.99.16.29.14.57.31.86.47.28.15.45.51.73.68.28.17.66.17.93.36.27.18.55.36.81.55.26.2.59.31.84.52.25.21.51.42.76.63.24.21.25.7.49.92.24.22.63.28.87.51.23.23.47.46.69.7.23.24.52.41.74.65.22.24.36.56.57.81.22.25.52.42.73.67.21.25.2.68.41.93.21.26.49.45.69.71.2.26.56.41.75.67.2.27.14.72.32.98.19.27.48.47.66.74.19.28.45.49.63.76.18.28.37.55.53.82.18.29.15.68.31.96.15.26.34.53.51.82.15.27.57.41.73.71.15.28.02.71.18,1.01.15.28.27.58.43.87.15.28.43.5.58.79.15.28.22.61.37.9.15.28.39.52.54.81.15.28.19.63.35.92.15.28.36.54.51.82.16.28.48.47.64.76.16.28.36.54.52.82.16.28.37.54.53.82.17.28.25.61.42.89.17.28.42.5.6.78.17.28.3.58.47.85.18.28.2.65.38.92.18.27.3.59.48.86.19.27.4.52.59.78.2.26.42.51.62.76.21.26.58.37.79.61.22.25.43.49.65.72.23.24.46.47.69.68.25.22.47.46.72.64.27.2.43.56.7.71.26.15.71.02,1.03.17.29.13.57.3.89.43.3.12.53.48.85.59.31.1.69,0,1.02.09.32.09.63.23.95.31.32.08.65.18.97.24.33.06.68.02,1,.06.34.04.68-.08,1-.06.34.02.67.19.99.18.35,0,.69.01,1-.04.35-.06.71-.05,1-.16.29-.11.51-.4.81-.54.28-.13.65-.12.93-.29.27-.15.5-.4.77-.57.26-.17.46-.45.73-.63.26-.18.65-.17.92-.36.25-.18.3-.65.55-.85.25-.19.56-.31.81-.51.24-.2.67-.19.92-.4.24-.21.46-.44.7-.66.24-.21.24-.68.48-.9.23-.21.64-.24.87-.46.23-.22.32-.58.55-.81.23-.22.65-.25.88-.47.23-.22.23-.67.46-.9.22-.23.54-.37.76-.6.22-.23.47-.44.69-.67.22-.23.47-.43.69-.67.22-.24.36-.54.58-.77.22-.24.62-.3.83-.54.22-.24.17-.71.38-.95.22-.24.62-.31.83-.54.21-.25.23-.66.43-.9.21-.25.52-.4.72-.64.21-.25.31-.58.5-.82.2-.24.56-.36.76-.61.19-.25.33-.54.53-.8.19-.25.39-.49.58-.75.19-.25.53-.39.72-.65.19-.25.19-.64.38-.9.18-.26.33-.55.51-.81.18-.26.35-.53.53-.79.18-.26.37-.52.55-.78.19-.26.42-.48.61-.74.19-.26.35-.54.54-.79.19-.26.36-.53.55-.78.19-.25.6-.34.8-.6.2-.25.16-.68.36-.93s.46-.45.66-.7c.2-.25.41-.49.62-.73.21-.24.55-.37.76-.6.22-.24.47-.43.69-.66.22-.23.22-.69.44-.91.23-.22.55-.35.78-.57.24-.22.42-.5.66-.7.25-.21.58-.3.83-.49.26-.19.41-.53.68-.71.27-.18.74-.02,1.01-.18.28-.16.54-.31.83-.45.29-.14.48-.46.78-.58.3-.12.66-.03.96-.12.24-.07.48-.35.82-.45.28-.07.56-.24.87-.3.29-.07.59-.18.9-.23.31-.05.64.03.93.02.32-.02.61.21.9.24.33.04.61.02.86.16.28.15.61.24.74.53.11.24.15.58.13.94-.02.34-.29.59-.56.81-.23.19-.47.44-.82.57-.29.11-.6.27-.94.35-.31.08-.64.2-.97.27-.33.07-.67.07-.99.13-.34.07-.67.1-.97.18-.36.09-.67.16-.93.28-.28.13-.6.19-.88.35-.27.15-.59.24-.85.43-.25.17-.39.52-.64.72-.24.19-.53.34-.77.55-.23.21-.46.42-.7.64-.22.22-.3.58-.52.81-.22.22-.64.26-.85.49-.21.23-.48.42-.69.66-.2.24-.26.6-.46.85-.2.24-.41.48-.6.72-.2.24-.31.55-.51.8-.19.25-.45.44-.64.7-.19.25-.24.61-.42.86-.19.26-.66.3-.85.56-.19.26-.35.53-.54.79-.19.26-.29.57-.47.83-.19.26-.48.44-.66.69-.19.26-.26.59-.44.85-.19.26-.4.49-.58.74-.19.26-.37.51-.55.76-.19.26-.35.53-.54.77-.2.25-.41.48-.6.71-.19.23-.41.47-.62.73-.2.24-.22.64-.44.89-.2.24-.62.3-.83.55-.21.24-.29.59-.51.84-.21.24-.61.31-.83.55-.21.24-.35.54-.57.78-.21.23-.34.55-.56.79-.22.23-.54.37-.76.61-.22.23-.48.43-.71.66-.22.23-.32.58-.55.81-.22.23-.51.4-.74.63-.23.23-.53.37-.77.6-.23.23-.3.61-.54.84s-.54.37-.78.59c-.24.22-.54.37-.78.58-.24.22-.38.55-.62.76-.24.21-.44.48-.68.69-.25.21-.49.42-.74.63-.25.21-.47.46-.72.66-.26.2-.56.34-.82.54-.26.2-.53.39-.79.57-.27.19-.62.25-.88.43-.27.18-.41.57-.68.74-.28.18-.62.25-.89.41-.29.16-.56.36-.84.5-.3.15-.65.16-.94.28-.31.13-.58.31-.88.41-.32.11-.65.1-.95.17-.32.08-.62.27-.93.3-.31.03-.62.02-.95.03-.31,0-.63.15-.96.13-.31-.02-.62-.15-.94-.19-.31-.04-.63-.07-.94-.12-.31-.05-.63-.07-.94-.13-.31-.07-.59-.25-.9-.32-.31-.08-.62-.14-.92-.23-.31-.09-.61-.19-.91-.29-.3-.1-.58-.27-.87-.39-.3-.11-.57-.29-.85-.41-.3-.12-.71.02-.99-.11-.29-.14-.51-.42-.78-.56-.29-.15-.53-.36-.8-.51-.27-.16-.46-.43-.72-.61-.25-.18-.55-.3-.8-.5-.24-.2-.62-.24-.86-.46-.23-.21-.27-.61-.5-.85-.21-.22-.36-.51-.57-.75-.21-.23-.61-.3-.81-.55-.2-.24-.18-.65-.37-.91-.19-.25-.55-.37-.73-.63-.18-.25-.19-.63-.37-.9-.18-.26-.59-.36-.77-.63-.17-.26-.14-.66-.3-.93-.17-.27-.37-.51-.54-.78-.16-.27-.45-.47-.61-.74-.16-.27-.19-.62-.35-.89-.16-.28-.52-.43-.67-.71s-.04-.7-.19-.98c-.15-.28-.56-.42-.71-.69-.15-.28-.1-.67-.25-.95-.15-.28-.39-.51-.54-.79-.15-.28-.22-.6-.37-.88-.15-.28-.47-.47-.61-.75-.15-.28-.03-.7-.18-.98-.15-.28-.36-.53-.5-.81-.15-.28-.27-.58-.42-.85-.15-.28-.3-.56-.46-.83-.16-.28-.52-.44-.68-.7-.16-.28-.23-.6-.39-.86-.17-.28-.23-.61-.4-.87-.15-.24-.4-.46-.6-.74-.17-.24-.47-.42-.67-.69-.18-.24-.14-.67-.35-.94-.19-.24-.6-.32-.81-.58-.19-.24-.23-.63-.43-.88-.2-.24-.55-.36-.76-.61-.21-.24-.39-.5-.6-.74-.21-.24-.31-.58-.52-.81-.22-.23-.51-.4-.73-.62-.22-.23-.52-.38-.75-.61-.23-.22-.52-.38-.75-.59-.24-.22-.29-.63-.53-.84-.24-.21-.61-.27-.85-.47-.25-.2-.53-.37-.78-.55-.26-.19-.46-.47-.72-.64-.27-.18-.56-.33-.83-.48-.29-.16-.63-.18-.91-.29-.31-.13-.54-.44-.83-.51-.32-.08-.66,0-.96,0-.25,0-.6.17-1.01.18-.32.01-.68-.18-1.03-.17-.36.01-.71,0-1.02,0-.44,0-.85.14-1.05.09"/></svg>