<?xml version="1.0" encoding="UTF-8"?><svg id="Layer_1" xmlns="http://www.w3.org/2000/svg" viewBox="0 0 200 200"><path d="M123.11,76.86c.34,0,.69-.04,1.04-.05.35-.01.69-.21,1.04-.22.35-.01.7-.01,1.05-.02.35-.01.7-.06,1.05-.07.35-.01.7.01,1.05,0,.35-.01.71.23,1.06.21.35-.01.69-.26,1.04-.27.35-.01.7.14,1.05.13.35,0,.7.04,1.05.03.35,0,.7-.17,1.05-.17s.7.05,1.05.05c.35,0,.7.03,1.05.02.35,0,.7-.34,1.05-.34.35,0,.71.43,1.06.43.35,0,.71-.36,1.06-.35.35,0,.7.3,1.05.31.35,0,.71-.03,1.06-.02.35.01.71-.11,1.06-.1.35.01.71-.06,1.06-.04.35.02.69.27,1.03.29.35.02.73-.25,1.07-.22.35.03.69.2,1.03.23.35.04.71.05,1.05.1.37.05.67.33.99.47.35.15.59.32.8.61.19.26.54.54.54.95,0,.42-.07.85-.23,1.12-.18.32-.57.56-.9.71-.3.13-.72-.04-1.1,0-.34.04-.69.2-1.06.19-.35-.01-.73.07-1.08.03-.37-.04-.72-.16-1.05-.2-.4-.05-.76-.12-1.05-.13-.35,0-.69-.02-1.03-.02-.35,0-.69-.15-1.03-.15-.35,0-.69.18-1.04.18-.35,0-.69-.13-1.03-.13-.34,0-.69-.12-1.03-.12s-.69.34-1.04.34-.69-.11-1.03-.11c-.35,0-.69-.23-1.04-.23-.35,0-.69.27-1.03.27-.34,0-.69-.22-1.04-.22s-.69.15-1.03.15c-.35,0-.69-.21-1.04-.21-.34,0-.68.27-1.03.27-.35,0-.69.12-1.03.12-.34,0-.69-.06-1.04-.05-.35,0-.69-.15-1.04-.15-.35,0-.69.02-1.03.03-.35,0-.69.05-1.03.06-.35.01-.68.24-1.03.25-.35,0-.7-.25-1.04-.24-.34.01-.69-.04-1.04-.03-.34.01-.69.05-1.03.06-.34.01-.68.29-1.02.3-.34.01-.69-.12-1.04-.1-.34.01-.69-.05-1.04-.04-.35.01-.68.23-1.03.25-.34.01-.7-.24-1.04-.23-.34.01-.68.31-1.02.33-.35.01-.69.01-1.03.03-.35.01-.7-.22-1.04-.21-.34.02-.69-.05-1.04-.04-.34.02-.68.32-1.02.34-.35.01-.69.02-1.03.04-.34.02-.69-.11-1.04-.1-.34.02-.7-.09-1.04-.08-.34.02-.68.15-1.03.17-.34.02-.69-.07-1.04-.06-.34.02-.67.35-1.02.36-.35.02-.71-.31-1.05-.3-.34.02-.69.08-1.03.1-.34.02-.68.19-1.03.2-.35.02-.69.02-1.03.04-.35.02-.68.17-1.03.19-.35.02-.7-.21-1.04-.19-.35.01-.69.01-1.04.03-.34.01-.68.31-1.02.32-.34.01-.69-.03-1.04-.01-.35.01-.7-.21-1.04-.2s-.69.03-1.03.04c-.35.01-.68.35-1.02.36-.34.01-.69.03-1.03.05-.35.01-.69-.06-1.04-.04-.35.01-.69.04-1.03.06-.35.01-.7-.18-1.04-.17-.35.01-.69.02-1.03.03-.35.01-.69-.04-1.04-.02-.35.01-.68.31-1.02.32-.34.01-.69-.16-1.04-.15-.35.01-.69.1-1.03.11-.34,0-.69,0-1.03,0-.34,0-.69-.11-1.04-.11-.35,0-.69.2-1.03.21-.35,0-.69.09-1.03.09-.34,0-.69-.13-1.04-.12-.35,0-.69.1-1.03.1-.35,0-.69.08-1.03.08-.34,0-.69-.06-1.04-.06-.34,0-.69-.18-1.04-.18-.35,0-.69.32-1.03.32-.34,0-.69-.17-1.03-.17-.35,0-.69.1-1.03.1-.34,0-.69.07-1.03.07-.35,0-.69-.01-1.04-.02-.35,0-.69-.31-1.03-.32-.35,0-.69.07-1.03.07-.35,0-.69.05-1.04.05-.35,0-.69.18-1.04.18-.35,0-.68-.25-1.03-.26-.34,0-.69.19-1.04.18-.35-.01-.69-.04-1.03-.05-.35-.01-.66-.34-1-.35-.26-.09-.67.21-1.12.17-.33-.03-.67-.23-1.07-.24-.35-.02-.71-.05-1.09-.06-.36,0-.72-.15-1.09-.16-.37-.01-.74.01-1.09,0-.38-.02-.77.2-1.11.16-.4-.04-.77-.15-1.08-.22-.46-.1-.78-.34-.95-.54-.18-.21-.24-.56-.3-.94-.06-.33-.18-.68-.14-1,.05-.39.29-.63.5-.82.15-.14.45-.28.84-.36.36-.08.72-.19.94-.21.32-.03.66.1,1.01.09.33,0,.66-.1,1.01-.09.33.01.66.1,1.01.12.33.02.68-.06,1.02-.03.33.03.68,0,1.01.04.34.04.65.29.99.33.34.04.69-.03,1.03,0,.34.04.7-.14,1.03-.1.34.04.66.31.99.34.35.03.68.1,1.01.12.35.02.69-.09,1.02-.08.35,0,.69-.11,1.04-.11.35,0,.69.18,1.04.19.35,0,.7.03,1.04.03s.69.09,1.04.09c.35,0,.69-.02,1.04-.02s.69-.07,1.04-.08c.35,0,.69-.16,1.04-.16.35,0,.69-.1,1.04-.1.35,0,.69.01,1.04,0,.35,0,.7.29,1.05.29s.69-.27,1.04-.28c.35,0,.7.15,1.04.15.35,0,.69-.14,1.04-.15.35,0,.7.14,1.04.13.35,0,.7.05,1.04.05.35,0,.69-.04,1.04-.05.35,0,.69-.23,1.03-.24.35-.01.69-.01,1.04-.02.35-.01.69-.05,1.04-.06.35-.01.69-.09,1.04-.1.35-.01.7.25,1.05.24.35-.01.68-.23,1.03-.25s.7.19,1.05.18c.35-.01.68-.26,1.03-.27.35-.01.69-.01,1.04-.03.35-.01.69-.17,1.03-.18.35-.01.7.05,1.04.03.35-.01.71.25,1.05.23.35-.01.69-.19,1.03-.21.35-.01.7.05,1.04.03.35-.02.69-.19,1.03-.21.35-.02.7.23,1.05.21.35-.02.68-.3,1.03-.31.35-.02.7.17,1.05.15.35-.02.69-.04,1.04-.06.35-.02.69-.06,1.04-.08.35-.02.68-.26,1.03-.28.35-.02.7.09,1.04.07s.7.09,1.04.07c.35-.02.68-.29,1.03-.31.35-.02.7.2,1.05.18.35-.02.68-.23,1.03-.25.35-.02.7.19,1.05.17.35-.02.69-.02,1.04-.04.35-.02.68-.27,1.03-.29.35-.01.69,0,1.04,0,.35-.01.7.04,1.04.03.35-.01.7,0,1.04,0,.35-.01.7.12,1.05.11.35-.01.69-.04,1.04-.06.35-.01.69-.18,1.03-.19.35-.01.69-.05,1.04-.06.35-.01.7.12,1.05.11.35-.01.69-.07,1.04-.08.35-.01.69-.22,1.03-.24.35-.01.71.34,1.05.32.35-.01.69-.1,1.04-.11"/><path d="M114.47,123.05c-.28-.43-.3-.43-.53-.88-.24-.46.02-.59-.21-1.04-.23-.46-.45-.34-.69-.8s0-.57-.24-1.03-.26-.45-.49-.9c-.24-.46-.27-.44-.5-.9-.24-.46-.45-.35-.68-.81-.24-.46-.25-.45-.48-.91-.24-.46-.24-.45-.48-.91-.24-.46-.08-.54-.31-.99-.24-.46-.13-.51-.37-.97-.24-.46-.23-.46-.46-.92s-.5-.32-.73-.78c-.24-.46-.02-.57-.25-1.03-.24-.46-.48-.33-.72-.79-.24-.46-.21-.47-.44-.93-.24-.46-.32-.41-.56-.87-.24-.46-.23-.46-.47-.92s.04-.6-.2-1.06c-.24-.46-.46-.34-.7-.8q-.24-.46-.47-.91c-.24-.46-.03-.57-.26-1.02s-.32-.41-.56-.87c-.24-.46-.31-.42-.54-.88-.24-.46-.07-.54-.31-1-.24-.46-.21-.47-.45-.93-.24-.46-.21-.47-.45-.93-.24-.46-.32-.42-.55-.87-.24-.46-.23-.46-.46-.92-.24-.46-.16-.5-.4-.95-.24-.46-.2-.48-.44-.93-.24-.46-.28-.43-.51-.89-.24-.46-.23-.46-.47-.92-.24-.46-.25-.45-.49-.92s-.54-.3-.78-.76c-.24-.46.24-.9-.22-1.16-.29-.16-.34.33-.59.55-.15.32-.5.49-.66.81-.15.32-.35.61-.5.93-.16.32.04.8-.12,1.12-.16.31-.61.48-.76.8-.16.31-.05.76-.21,1.07-.16.31-.46.56-.61.87-.16.31-.48.55-.64.86-.16.31-.08.75-.25,1.06-.16.31-.32.62-.49.94-.16.31-.32.62-.49.94-.16.31-.35.61-.51.92-.16.31-.55.51-.71.82-.16.31-.22.68-.38.99-.17.31-.44.56-.61.87-.17.31-.11.74-.28,1.05-.17.31-.57.49-.73.8-.17.31-.02.79-.18,1.1-.17.31-.66.44-.83.75-.17.31-.1.74-.27,1.05-.17.31-.44.56-.61.87-.17.31-.35.61-.52.92-.17.31-.4.58-.57.89-.17.31-.1.75-.27,1.05s-.43.57-.6.87c-.17.31-.21.68-.38.99-.17.31-.61.47-.78.78-.17.31-.13.73-.3,1.04-.17.31-.4.58-.57.89-.17.31-.47.54-.64.85-.17.31-.24.67-.41.98-.17.31-.43.56-.6.87-.17.31-.33.62-.5.93s-.37.57-.54.88c-.31.3-.58.44-.91.55-.38.12-.75.34-1.12.24-.35-.1-.68-.37-.99-.63-.28-.24-.44-.59-.65-.93-.03-.13.16-.38.38-.89.12-.27.26-.58.43-.94.14-.29.08-.71.25-1.04.15-.29.2-.66.37-.99.16-.3.58-.47.75-.78.16-.3.06-.75.23-1.06.16-.3.55-.48.72-.79.17-.3.16-.7.33-1.01.17-.3.46-.54.63-.84.17-.3.52-.5.69-.81.17-.3.36-.6.53-.9.17-.31.08-.76.26-1.06.18-.31.58-.48.76-.78.18-.31.23-.68.4-.98.18-.31.36-.6.53-.9.18-.31.26-.67.43-.96.18-.32.49-.54.65-.83.19-.32.32-.65.48-.93.19-.34.51-.56.66-.83.22-.39.4-.71.5-.91.16-.3.21-.66.37-.97.15-.3.24-.64.39-.95.15-.3.41-.55.56-.86.15-.3.24-.64.39-.95.15-.31.37-.58.52-.89.14-.31.2-.66.34-.97.15-.31.33-.6.48-.9.14-.31.37-.58.51-.89.15-.31.03-.74.18-1.05.15-.31.56-.49.71-.8.15-.31.02-.75.17-1.06.15-.31.54-.5.69-.8.16-.31.02-.76.18-1.07.16-.3.47-.52.64-.82.17-.3.49-.51.66-.81.17-.3.06-.76.24-1.05.18-.29.5-.5.68-.78.19-.29.3-.67.55-.86.26-.21.73-.05,1.03-.15.31-.1.58-.41.91-.4.32,0,.6.28.91.4.29.11.6.19.86.4.22.17.54.36.8.69.2.25.28.64.49.95.19.28.45.53.65.84.18.29.5.52.69.83.18.31.08.78.25,1.09.18.32.53.53.7.83.18.33.51.57.66.85.2.36.28.72.42.97.17.31.18.7.35,1.01.17.31.52.52.68.83.16.31.09.74.25,1.05.16.31.27.65.43.96.16.31.52.52.68.83.16.31.25.66.41.97.16.31.38.6.53.91.15.31.34.61.49.93.15.31.2.68.35,1,.15.32.28.64.44.96.15.32.56.51.71.82.15.32.3.63.45.95.15.32.24.67.39.98.15.32.11.73.26,1.04.15.32.31.63.46.95.15.32.38.6.53.91.15.32.2.68.36,1,.15.32.42.58.57.89.16.32.26.66.42.97.16.31.56.5.72.82.16.31.12.73.28,1.04.15.29.43.55.62.87.17.3.1.75.29,1.07.18.3.61.45.8.76.18.3.27.66.45.97.19.3.56.5.74.8.18.31.27.68.44.98.18.32.42.6.57.91.17.33.07.77.21,1.08.15.35.59.56.69.88.11.35.16.73.17,1.01.02.38-.03.79-.15,1.05-.14.32-.56.49-.84.63-.28.13-.61.11-.96.07-.3-.03-.59-.13-.91-.3-.27-.14-.59-.25-.86-.48"/></svg>