<?xml version="1.0" encoding="UTF-8"?><svg id="Layer_1" xmlns="http://www.w3.org/2000/svg" viewBox="0 0 200 200"><path d="M101.63,53.65c.39.03.88.13,1.5.11.51-.02,1.05.04,1.57.07.57.04,1.15-.04,1.57.17.49.24.86.69.9,1.29.04.57-.18.98-.45,1.24-.29.28-.73.38-1.22.45-.41.06-.86.14-1.32.13-.45-.01-.9,0-1.32-.02-.5-.01-.79-.05-1.14.04-.13.68-.27.67-.24,1.36.03.69.14.69.17,1.38.04.7.16.69.2,1.38.04.69-.23.71-.19,1.4.03.7.43.68.46,1.37.04.7-.3.71-.27,1.41.04.69.06.69.09,1.39.04.7.04.7.08,1.39.04.7.37.68.41,1.38.04.7-.29.72-.21,1.41.09.09.66-.11,1.43-.12.4,0,.88.12,1.39.1.44-.02.91.1,1.4.07.46-.03.91-.25,1.39-.28.47-.03.96.25,1.42.22.48-.03.94-.22,1.39-.24.51-.02.98-.28,1.39-.29.63,0,1.16.03,1.43.08.54.1.71.72.9,1.13.19.43.49.95.29,1.39-.19.4-.69.75-1.22.89-.69.07-.7.1-1.39.13s-.69.06-1.39.09c-.7.03-.7-.07-1.4-.04-.7.03-.71-.19-1.4-.16-.69.03-.69.23-1.38.26-.7.03-.69.07-1.39.1-.7.03-.71-.14-1.4-.11-.7.03-.78-.25-1.25.27-.49.53-.37.6-.37,1.32s.15.73.15,1.45.15.73.15,1.45-.02.73-.02,1.45-.11.73-.11,1.45.04.73.04,1.45-.05.72-.05,1.45-.16.73-.16,1.45.25.73.25,1.45.21.73.21,1.45-.19.73-.19,1.45.14.73.14,1.46-.07.73-.07,1.45-.1.73-.1,1.46-.16.73-.16,1.46-.35.93.17,1.44c.49.5.69.14,1.39.11.7-.02.69-.38,1.39-.4.7-.02.71.37,1.41.34.7-.02.7,0,1.4-.03.7-.03.7-.05,1.4-.07.7-.02.69-.14,1.39-.17.7-.02.7-.03,1.4-.05.7-.03.7-.07,1.4-.1.7-.02.7-.1,1.39-.12.7-.02.7-.13,1.4-.15s.71.12,1.41.1c.7-.02.69-.18,1.39-.2.7-.02.71.23,1.41.21.7-.02.7-.13,1.4-.15.7-.03.7.03,1.4.05.54.11.79.42,1.08.68.39.35.76.62.72,1.05-.03.43-.35.76-.79,1.06-.33.22-.72.22-1.27.26-.7.02-.7.04-1.4.06-.7.02-.7.04-1.39.06-.7.02-.7.12-1.4.13-.7.02-.69.29-1.39.3-.7.02-.71-.36-1.41-.34-.7.01-.7.04-1.39.06-.7.02-.69.29-1.39.31-.7.02-.71-.27-1.4-.25-.7.02-.7.14-1.39.15-.7.02-.69.27-1.39.29-.7.02-.7-.13-1.4-.12-.7.02-.7-.23-1.4-.21-.7.02-.7.08-1.4.1-.7.02-.7.25-1.4.27-.7.02-.82-.52-1.48-.28.14.43.22,1.03.23,1.42,0,.42-.15.81-.2,1.22-.05.4.09.83.08,1.25-.01.51.04,1.01.03,1.52,0,.51-.32,1.01-.32,1.52,0,.51.03,1.01.03,1.52,0,.51.44,1.01.45,1.51,0,.51.01,1.01.01,1.52,0,.51-.09,1.01-.1,1.52,0,.49-.32.98-.33,1.48-.01.49.11.99.1,1.48-.01.49,0,.99-.02,1.48-.01.49.16.99.15,1.49-.02.49-.12.98-.13,1.48-.02.49-.28.98-.3,1.47-.02.49.28,1,.26,1.49-.02.49-.07.99-.09,1.48-.03.49-.05.85-.08,1.34.5.12.84.27,1.33.23.51-.04,1.02-.21,1.5-.2.48.01.96-.02,1.44-.01.48,0,.96.16,1.43.16.48,0,.96-.23,1.44-.23.48,0,.95.41,1.43.42.48,0,.96-.01,1.44-.01.48,0,.96-.1,1.44-.1.48,0,.96.17,1.44.17.48,0,.96-.41,1.44-.41.48,0,.96.28,1.44.28.48,0,.96.01,1.44.02.48,0,.96.15,1.44.16.48,0,.96-.25,1.44-.25.48,0,.95.31,1.43.32.48.01.97-.41,1.45-.4.48.01.95.43,1.43.44.48.01.97-.17,1.44-.15.48.02.95.24,1.43.26.48.02.97-.11,1.45-.08.48.03.97-.21,1.45-.18.56.03,1.04.18,1.43.19.54.02,1.18,0,1.45.44.27.45.34,1.2.16,1.66-.16.42-.7.74-1.36.83-.46.06-.93.15-1.41.18-.47.03-.95-.03-1.42-.02-.47,0-.94.18-1.42.17-.47-.01-.94-.23-1.41-.25-.47-.02-.95.02-1.42-.01-.47-.03-.94-.12-1.41-.16-.48-.03-.96.15-1.43.12-.47-.03-.94-.04-1.4-.06-.48-.02-.94-.22-1.4-.22-.49,0-.99-.23-1.48-.24s-.99.07-1.48.07c-.49,0-.99-.13-1.48-.13s-.99.47-1.48.47c-.5,0-.99-.29-1.48-.29-.5,0-.99-.1-1.48-.1-.5,0-.99.04-1.48.05-.5,0-.99.33-1.48.33-.5,0-.99-.41-1.49-.41-.49,0-.99.37-1.48.37-.5,0-.99-.17-1.48-.17-.5,0-.99.17-1.48.17s-1.07-.23-1.57-.23c-.05.49-.13,1.06-.18,1.54-.04.49-.08.97-.12,1.46-.03.49.2.99.17,1.48-.03.49-.09.97-.11,1.46-.02.49-.34.97-.35,1.45-.01.49.32.98.31,1.47,0,.49.05.97.04,1.46,0,.49-.43.97-.43,1.46,0,.49.43.98.43,1.46,0,.49-.33.98-.33,1.46,0,.49.38.97.38,1.46,0,.49-.48.98-.48,1.46,0,.49.24.98.24,1.46,0,.49-.11.95-.11,1.44-.24.55-.51.93-.92,1.1-.49.2-.93.02-1.34-.32-.33-.27-.67-.6-.74-1.23-.06-.48-.02-.97-.05-1.48-.03-.48.05-.98.04-1.48,0-.49-.2-.98-.19-1.49,0-.49.26-.98.28-1.48.01-.49,0-.99.02-1.48.02-.5-.08-1-.05-1.49.03-.5.11-.99.13-1.48.03-.5-.13-1.01-.1-1.5.03-.5.16-1,.18-1.48.02-.51-.2-1.01-.18-1.49.01-.42.19-.84.18-1.26-.01-.42-.03-.85-.03-1.27,0-.42.05-.84.08-1.26.03-.42.25-.87.34-1.28-.02-.14-.19-.41-.33-.44-.67-.15-.75.37-1.43.32-.68-.05-.67-.19-1.35-.24-.68-.05-.67-.16-1.35-.21-.68-.05-.68-.09-1.36-.14-.68-.05-.67-.19-1.35-.25-.68-.05-.7.12-1.38.07-.68-.05-.7.13-1.38.08-.68-.05-.68-.03-1.37-.08-.48-.03-.95.02-1.43,0-.48-.02-.95-.13-1.43-.13-.48,0-.96-.36-1.44-.35-.48,0-.96.07-1.44.08-.48.01-.96.17-1.44.19-.48.02-.95.21-1.43.23-.48.02-.97-.08-1.44-.06-.48.02-.96.07-1.44.09-.48.02-.97-.09-1.44-.08-.48.01-.96.31-1.44.31-.48,0-.97,0-1.44-.01-.48,0-.96-.34-1.44-.35-.48-.01-.97.27-1.45.24-.48-.03-.93-.48-1.4-.52-.23-.02-.74.17-1.18.05-.47-.13-1-.34-1.02-.65-.06-.71.36-1.01.66-1.32.31-.31.63-.54,1.28-.64.48,0,.95-.26,1.43-.26.48,0,.96.38,1.43.38.48,0,.96-.19,1.44-.19.48,0,.95-.23,1.43-.23.48,0,.96.31,1.43.31.48,0,.96-.35,1.43-.36.48,0,.96.03,1.43.03.48,0,.96.16,1.43.16.48,0,.96-.19,1.43-.19.48,0,.96.19,1.43.19.48,0,.95.25,1.43.25.48,0,.95.08,1.43.08.48,0,.96-.07,1.43-.06.48,0,.96-.23,1.44-.22.48.01.95.27,1.43.29.48.01.96-.1,1.44-.09.48.02.95.1,1.43.12.48.02.95.2,1.42.22.48.03.98-.35,1.45-.32.48.03.96.06,1.43.1.48.04.94.29,1.41.33.48.04,1.02.06,1.49.1.24-.69.12-.75.13-1.48.01-.73-.07-.73-.06-1.46.01-.73-.11-.73-.1-1.47.01-.73.21-.73.22-1.46.01-.73-.06-.73-.05-1.46.01-.73,0-.73.01-1.47.01-.73.07-.73.08-1.46.01-.73-.17-.74-.16-1.47.01-.73.15-.73.17-1.46.01-.73-.17-.73-.16-1.46.01-.73.06-.73.07-1.47.01-.73.14-.73.15-1.46.01-.73-.11-.74-.1-1.47.01-.73.16-.73.17-1.47.01-.73-.07-.73-.05-1.47.01-.73.08-.73.1-1.47.01-.74.18-.73.19-1.47.01-.74,0-.76-.24-1.46-.5.02-.97.23-1.47.23-.5,0-1.01-.33-1.51-.34-.5,0-1.01-.04-1.51-.05-.5,0-1.01-.04-1.51-.04-.5,0-1,.35-1.5.37-.48.02-.98-.04-1.49,0-.48.04-1-.14-1.51-.08-.49.05-.97.25-1.47.31-.49.06-1.02-.12-1.51-.06-.5.06-.96.46-1.45.51-.5.05-1.01.04-1.5.08-.51.04-1.01-.02-1.5,0-.51.03-1.01.15-1.49.15-.52,0-1.01-.13-1.49-.18-.68-.06-1.2-.18-1.45-.48-.34-.42-.34-1.08-.08-1.55.24-.42.78-.63,1.32-.72.5-.08,1.02,0,1.55-.05.51-.04,1-.43,1.53-.46.51-.02,1.04-.09,1.56-.1.52-.01,1.05.2,1.57.19.52-.01,1.05,0,1.56-.01.53-.02,1.06.08,1.57.05.52-.04,1.03-.23,1.56-.3.52-.07,1-.41,1.52-.48.52-.07,1.08.19,1.6.13.52-.06,1.04-.08,1.56-.11.47-.02.93-.24,1.4-.24.47,0,.93.23,1.4.24.47.01.94.02,1.41.03.47,0,.95-.16,1.42-.18.23-.67-.16-.72-.15-1.43,0-.71.19-.71.2-1.42,0-.71.08-.71.09-1.42,0-.71,0-.71,0-1.42,0-.71.16-.71.17-1.42,0-.71-.47-.72-.46-1.43,0-.71.21-.71.22-1.42,0-.71.12-.71.13-1.42,0-.71.15-.71.16-1.42,0-.71-.06-.71-.05-1.42,0-.71-.22-.71-.21-1.43,0-.71-.11-.71-.1-1.43,0-.71.41-.71.42-1.42,0-.71-.11-.71-.11-1.43,0-.71-.1-.72-.1-1.43,0-.71.58-.99.06-1.47-.55-.5-.78-.02-1.53.02q-.74.04-1.48.09c-.74.05-.72.36-1.46.4-.74.04-.75-.07-1.49-.02-.74.05-.74.11-1.48.16-.74.05-.76-.24-1.5-.2-.74.04-.72.4-1.46.44-.74.05-.76-.28-1.5-.27-.57-.07-1.06-.38-1.2-.93-.13-.55.25-1.06.62-1.41.2-.19.52-.5,1.16-.63.4-.08.9.05,1.41,0,.44-.05.88-.44,1.37-.47.46-.04.93-.09,1.41-.12.47-.03.94-.07,1.42-.1.48-.03.95-.06,1.41-.09.49-.03.98.19,1.42.16.51-.03.99-.08,1.41-.12.6-.06,1-.17,1.3-.26.11-.71.14-.71.11-1.42-.03-.72-.31-.7-.35-1.42-.03-.72.01-.72-.02-1.44-.03-.72.02-.72-.01-1.44-.03-.72.18-.73.15-1.44-.03-.72.04-.72,0-1.44-.03-.72-.26-.71-.3-1.42-.03-.72.14-.73.1-1.45-.03-.72-.27-.71-.31-1.43-.03-.72.16-.73-.06-1.42-.36.05-.76.2-1.29.26-.44.06-.93-.18-1.4-.17-.49.01-.94.1-1.36,0-.51-.11-.81-.33-1.06-.68-.22-.32-.32-.63-.21-1.21.1-.51.32-.98.86-1.15.43-.13.99,0,1.53-.03.5-.02,1.02-.17,1.5-.18.58,0,1.25.23,1.62.13.07-.37.13-1.07.06-1.68-.05-.49-.18-1.01-.2-1.52-.02-.56-.1-1.07.05-1.49.17-.49.46-.74,1.06-.82.51-.07.76.06,1.03.4.24.3.51.63.62,1.1.09.4.18.85.22,1.29.04.45.03.9.05,1.31.02.53.11.89.17,1.19"/><path d="M101.63,53.65c.39.03.88.13,1.5.11.51-.02,1.05.04,1.57.07.57.04,1.15-.04,1.57.17.49.24.86.69.9,1.29.04.57-.18.98-.45,1.24-.29.28-.73.38-1.22.45-.41.06-.86.14-1.32.13-.45-.01-.9,0-1.32-.02-.5-.01-.79-.05-1.14.04-.13.68-.27.67-.24,1.36.03.69.14.69.17,1.38.04.7.16.69.2,1.38.04.69-.23.71-.19,1.4.03.7.43.68.46,1.37.04.7-.3.71-.27,1.41.04.69.06.69.09,1.39.04.7.04.7.08,1.39.04.7.37.68.41,1.38.04.7-.29.72-.21,1.41.09.09.66-.11,1.43-.12.4,0,.88.12,1.39.1.44-.02.91.1,1.4.07.46-.03.91-.25,1.39-.28.47-.03.96.25,1.42.22.48-.03.94-.22,1.39-.24.51-.02.98-.28,1.39-.29.63,0,1.16.03,1.43.08.54.1.71.72.9,1.13.19.43.49.95.29,1.39-.19.4-.69.75-1.22.89-.69.07-.7.1-1.39.13s-.69.06-1.39.09c-.7.03-.7-.07-1.4-.04-.7.03-.71-.19-1.4-.16-.69.03-.69.23-1.38.26-.7.03-.69.07-1.39.1-.7.03-.71-.14-1.4-.11-.7.03-.78-.25-1.25.27-.49.53-.37.6-.37,1.32s.15.73.15,1.45.15.73.15,1.45-.02.73-.02,1.45-.11.73-.11,1.45.04.73.04,1.45-.05.72-.05,1.45-.16.73-.16,1.45.25.73.25,1.45.21.73.21,1.45-.19.73-.19,1.45.14.73.14,1.46-.07.73-.07,1.45-.1.73-.1,1.46-.16.73-.16,1.46-.35.93.17,1.44c.49.5.69.14,1.39.11.7-.02.69-.38,1.39-.4.7-.02.71.37,1.41.34.7-.02.7,0,1.4-.03.7-.03.7-.05,1.4-.07.7-.02.69-.14,1.39-.17.7-.02.7-.03,1.4-.05.7-.03.7-.07,1.4-.1.7-.02.7-.1,1.39-.12.7-.02.7-.13,1.4-.15s.71.12,1.41.1c.7-.02.69-.18,1.39-.2.7-.02.71.23,1.41.21.7-.02.7-.13,1.4-.15.7-.03.7.03,1.4.05.54.11.79.42,1.08.68.39.35.76.62.72,1.05-.03.43-.35.76-.79,1.06-.33.22-.72.22-1.27.26-.7.02-.7.04-1.4.06-.7.02-.7.04-1.39.06-.7.02-.7.12-1.4.13-.7.02-.69.29-1.39.3-.7.02-.71-.36-1.41-.34-.7.01-.7.04-1.39.06-.7.02-.69.29-1.39.31-.7.02-.71-.27-1.4-.25-.7.02-.7.14-1.39.15-.7.02-.69.27-1.39.29-.7.02-.7-.13-1.4-.12-.7.02-.7-.23-1.4-.21-.7.02-.7.08-1.4.1-.7.02-.7.25-1.4.27-.7.02-.82-.52-1.48-.28.14.43.22,1.03.23,1.42,0,.42-.15.81-.2,1.22-.05.4.09.83.08,1.25-.01.51.04,1.01.03,1.52,0,.51-.32,1.01-.32,1.52,0,.51.03,1.01.03,1.52,0,.51.44,1.01.45,1.51,0,.51.01,1.01.01,1.52,0,.51-.09,1.01-.1,1.52,0,.49-.32.98-.33,1.48-.01.49.11.99.1,1.48-.01.49,0,.99-.02,1.48-.01.49.16.99.15,1.49-.02.49-.12.98-.13,1.48-.02.49-.28.98-.3,1.47-.02.49.28,1,.26,1.49-.02.49-.07.99-.09,1.48-.03.49-.05.85-.08,1.34.5.12.84.27,1.33.23.51-.04,1.02-.21,1.5-.2.48.01.96-.02,1.44-.01.48,0,.96.16,1.43.16.48,0,.96-.23,1.44-.23.48,0,.95.41,1.43.42.48,0,.96-.01,1.44-.01.48,0,.96-.1,1.44-.1.48,0,.96.17,1.44.17.48,0,.96-.41,1.44-.41.48,0,.96.28,1.44.28.48,0,.96.01,1.44.02.48,0,.96.15,1.44.16.48,0,.96-.25,1.44-.25.48,0,.95.31,1.43.32.48.01.97-.41,1.45-.4.48.01.95.43,1.43.44.48.01.97-.17,1.44-.15.48.02.95.24,1.43.26.48.02.97-.11,1.45-.08.48.03.97-.21,1.45-.18.56.03,1.04.18,1.43.19.54.02,1.18,0,1.45.44.27.45.34,1.2.16,1.66-.16.42-.7.74-1.36.83-.46.06-.93.15-1.41.18-.47.03-.95-.03-1.42-.02-.47,0-.94.18-1.42.17-.47-.01-.94-.23-1.41-.25-.47-.02-.95.02-1.42-.01-.47-.03-.94-.12-1.41-.16-.48-.03-.96.15-1.43.12-.47-.03-.94-.04-1.4-.06-.48-.02-.94-.22-1.4-.22-.49,0-.99-.23-1.48-.24s-.99.07-1.48.07c-.49,0-.99-.13-1.48-.13s-.99.47-1.48.47c-.5,0-.99-.29-1.48-.29-.5,0-.99-.1-1.48-.1-.5,0-.99.04-1.48.05-.5,0-.99.33-1.48.33-.5,0-.99-.41-1.49-.41-.49,0-.99.37-1.48.37-.5,0-.99-.17-1.48-.17-.5,0-.99.17-1.48.17s-1.07-.23-1.57-.23c-.05.49-.13,1.06-.18,1.54-.04.49-.08.97-.12,1.46-.03.49.2.99.17,1.48-.03.49-.09.97-.11,1.46-.02.49-.34.97-.35,1.45-.01.49.32.98.31,1.47,0,.49.05.97.04,1.46,0,.49-.43.97-.43,1.46,0,.49.43.98.43,1.46,0,.49-.33.98-.33,1.46,0,.49.38.97.38,1.46,0,.49-.48.98-.48,1.46,0,.49.24.98.24,1.46,0,.49-.11.95-.11,1.44-.24.55-.51.93-.92,1.1-.49.2-.93.02-1.34-.32-.33-.27-.67-.6-.74-1.23-.06-.48-.02-.97-.05-1.48-.03-.48.05-.98.04-1.48,0-.49-.2-.98-.19-1.49,0-.49.26-.98.28-1.48.01-.49,0-.99.02-1.48.02-.5-.08-1-.05-1.49.03-.5.11-.99.13-1.48.03-.5-.13-1.01-.1-1.5.03-.5.16-1,.18-1.48.02-.51-.2-1.01-.18-1.49.01-.42.19-.84.18-1.26-.01-.42-.03-.85-.03-1.27,0-.42.05-.84.08-1.26.03-.42.25-.87.34-1.28-.02-.14-.19-.41-.33-.44-.67-.15-.75.37-1.43.32-.68-.05-.67-.19-1.35-.24-.68-.05-.67-.16-1.35-.21-.68-.05-.68-.09-1.36-.14-.68-.05-.67-.19-1.35-.25-.68-.05-.7.12-1.38.07-.68-.05-.7.13-1.38.08-.68-.05-.68-.03-1.37-.08-.48-.03-.95.02-1.43,0-.48-.02-.95-.13-1.43-.13-.48,0-.96-.36-1.44-.35-.48,0-.96.07-1.44.08-.48.01-.96.17-1.44.19-.48.02-.95.21-1.43.23-.48.02-.97-.08-1.44-.06-.48.02-.96.07-1.44.09-.48.02-.97-.09-1.44-.08-.48.01-.96.31-1.44.31-.48,0-.97,0-1.44-.01-.48,0-.96-.34-1.44-.35-.48-.01-.97.27-1.45.24-.48-.03-.93-.48-1.4-.52-.23-.02-.74.17-1.18.05-.47-.13-1-.34-1.02-.65-.06-.71.36-1.01.66-1.32.31-.31.63-.54,1.28-.64.48,0,.95-.26,1.43-.26.48,0,.96.38,1.43.38.48,0,.96-.19,1.44-.19.48,0,.95-.23,1.43-.23.48,0,.96.31,1.43.31.48,0,.96-.35,1.43-.36.48,0,.96.03,1.43.03.48,0,.96.16,1.43.16.48,0,.96-.19,1.43-.19.48,0,.96.19,1.43.19.48,0,.95.25,1.43.25.48,0,.95.08,1.43.08.48,0,.96-.07,1.43-.06.48,0,.96-.23,1.44-.22.48.01.95.27,1.43.29.48.01.96-.1,1.44-.09.48.02.95.1,1.43.12.48.02.95.2,1.42.22.48.03.98-.35,1.45-.32.48.03.96.06,1.43.1.48.04.94.29,1.41.33.48.04,1.02.06,1.49.1.24-.69.12-.75.13-1.48.01-.73-.07-.73-.06-1.46.01-.73-.11-.73-.1-1.47.01-.73.21-.73.22-1.46.01-.73-.06-.73-.05-1.46.01-.73,0-.73.01-1.47.01-.73.07-.73.08-1.46.01-.73-.17-.74-.16-1.47.01-.73.15-.73.17-1.46.01-.73-.17-.73-.16-1.46.01-.73.06-.73.07-1.47.01-.73.14-.73.15-1.46.01-.73-.11-.74-.1-1.47.01-.73.16-.73.17-1.47.01-.73-.07-.73-.05-1.47.01-.73.08-.73.1-1.47.01-.74.18-.73.19-1.47.01-.74,0-.76-.24-1.46-.5.02-.97.23-1.47.23-.5,0-1.01-.33-1.51-.34-.5,0-1.01-.04-1.51-.05-.5,0-1.01-.04-1.51-.04-.5,0-1,.35-1.5.37-.48.02-.98-.04-1.49,0-.48.04-1-.14-1.51-.08-.49.05-.97.25-1.47.31-.49.06-1.02-.12-1.51-.06-.5.06-.96.46-1.45.51-.5.05-1.01.04-1.5.08-.51.04-1.01-.02-1.5,0-.51.03-1.01.15-1.49.15-.52,0-1.01-.13-1.49-.18-.68-.06-1.2-.18-1.45-.48-.34-.42-.34-1.08-.08-1.55.24-.42.78-.63,1.32-.72.5-.08,1.02,0,1.55-.05.51-.04,1-.43,1.53-.46.51-.02,1.04-.09,1.56-.1.52-.01,1.05.2,1.57.19.52-.01,1.05,0,1.56-.01.53-.02,1.06.08,1.57.05.52-.04,1.03-.23,1.56-.3.52-.07,1-.41,1.52-.48.52-.07,1.08.19,1.6.13.52-.06,1.04-.08,1.56-.11.47-.02.93-.24,1.4-.24.47,0,.93.23,1.4.24.47.01.94.02,1.41.03.47,0,.95-.16,1.42-.18.23-.67-.16-.72-.15-1.43,0-.71.19-.71.2-1.42,0-.71.08-.71.09-1.42,0-.71,0-.71,0-1.42,0-.71.16-.71.17-1.42,0-.71-.47-.72-.46-1.43,0-.71.21-.71.22-1.42,0-.71.12-.71.13-1.42,0-.71.15-.71.16-1.42,0-.71-.06-.71-.05-1.42,0-.71-.22-.71-.21-1.43,0-.71-.11-.71-.1-1.43,0-.71.41-.71.42-1.42,0-.71-.11-.71-.11-1.43,0-.71-.1-.72-.1-1.43,0-.71.58-.99.06-1.47-.55-.5-.78-.02-1.53.02q-.74.04-1.48.09c-.74.05-.72.36-1.46.4-.74.04-.75-.07-1.49-.02-.74.05-.74.11-1.48.16-.74.05-.76-.24-1.5-.2-.74.04-.72.4-1.46.44-.74.05-.76-.28-1.5-.27-.57-.07-1.06-.38-1.2-.93-.13-.55.25-1.06.62-1.41.2-.19.52-.5,1.16-.63.4-.08.9.05,1.41,0,.44-.05.88-.44,1.37-.47.46-.04.93-.09,1.41-.12.47-.03.94-.07,1.42-.1.48-.03.95-.06,1.41-.09.49-.03.98.19,1.42.16.51-.03.99-.08,1.41-.12.6-.06,1-.17,1.3-.26.11-.71.14-.71.11-1.42-.03-.72-.31-.7-.35-1.42-.03-.72.01-.72-.02-1.44-.03-.72.02-.72-.01-1.44-.03-.72.18-.73.15-1.44-.03-.72.04-.72,0-1.44-.03-.72-.26-.71-.3-1.42-.03-.72.14-.73.1-1.45-.03-.72-.27-.71-.31-1.43-.03-.72.16-.73-.06-1.42-.36.05-.76.2-1.29.26-.44.06-.93-.18-1.4-.17-.49.01-.94.1-1.36,0-.51-.11-.81-.33-1.06-.68-.22-.32-.32-.63-.21-1.21.1-.51.32-.98.86-1.15.43-.13.99,0,1.53-.03.5-.02,1.02-.17,1.5-.18.58,0,1.25.23,1.62.13.07-.37.13-1.07.06-1.68-.05-.49-.18-1.01-.2-1.52-.02-.56-.1-1.07.05-1.49.17-.49.46-.74,1.06-.82.51-.07.76.06,1.03.4.24.3.51.63.62,1.1.09.4.18.85.22,1.29.04.45.03.9.05,1.31.02.53.11.89.17,1.19"/><path d="M101.63,53.65c.39.03.88.13,1.5.11.51-.02,1.05.04,1.57.07.57.04,1.15-.04,1.57.17.49.24.86.69.9,1.29.04.57-.18.98-.45,1.24-.29.28-.73.38-1.22.45-.41.06-.86.14-1.32.13-.45-.01-.9,0-1.32-.02-.5-.01-.79-.05-1.14.04-.13.68-.27.67-.24,1.36.03.69.14.69.17,1.38.04.7.16.69.2,1.38.04.69-.23.71-.19,1.4.03.7.43.68.46,1.37.04.7-.3.71-.27,1.41.04.69.06.69.09,1.39.04.7.04.7.08,1.39.04.7.37.68.41,1.38.04.7-.29.72-.21,1.41.09.09.66-.11,1.43-.12.4,0,.88.12,1.39.1.44-.02.91.1,1.4.07.46-.03.91-.25,1.39-.28.47-.03.96.25,1.42.22.48-.03.94-.22,1.39-.24.51-.02.98-.28,1.39-.29.63,0,1.16.03,1.43.08.54.1.71.72.9,1.13.19.43.49.95.29,1.39-.19.4-.69.75-1.22.89-.69.07-.7.1-1.39.13s-.69.06-1.39.09c-.7.03-.7-.07-1.4-.04-.7.03-.71-.19-1.4-.16-.69.03-.69.23-1.38.26-.7.03-.69.07-1.39.1-.7.03-.71-.14-1.4-.11-.7.03-.78-.25-1.25.27-.49.53-.37.6-.37,1.32s.15.73.15,1.45.15.73.15,1.45-.02.73-.02,1.45-.11.73-.11,1.45.04.73.04,1.45-.05.72-.05,1.45-.16.73-.16,1.45.25.73.25,1.45.21.73.21,1.45-.19.73-.19,1.45.14.73.14,1.46-.07.73-.07,1.45-.1.73-.1,1.46-.16.73-.16,1.46-.35.93.17,1.44c.49.5.69.14,1.39.11.7-.02.69-.38,1.39-.4.7-.02.71.37,1.41.34.7-.02.7,0,1.4-.03.7-.03.7-.05,1.4-.07.7-.02.69-.14,1.39-.17.7-.02.7-.03,1.4-.05.7-.03.7-.07,1.4-.1.7-.02.7-.1,1.39-.12.7-.02.7-.13,1.4-.15s.71.12,1.41.1c.7-.02.69-.18,1.39-.2.7-.02.71.23,1.41.21.7-.02.7-.13,1.4-.15.7-.03.7.03,1.4.05.54.11.79.42,1.08.68.39.35.76.62.72,1.05-.03.43-.35.76-.79,1.06-.33.22-.72.22-1.27.26-.7.02-.7.04-1.4.06-.7.02-.7.04-1.39.06-.7.02-.7.12-1.4.13-.7.02-.69.29-1.39.3-.7.02-.71-.36-1.41-.34-.7.01-.7.04-1.39.06-.7.02-.69.29-1.39.31-.7.02-.71-.27-1.4-.25-.7.02-.7.14-1.39.15-.7.02-.69.27-1.39.29-.7.02-.7-.13-1.4-.12-.7.02-.7-.23-1.4-.21-.7.02-.7.08-1.4.1-.7.02-.7.25-1.4.27-.7.02-.82-.52-1.48-.28.14.43.22,1.03.23,1.42,0,.42-.15.81-.2,1.22-.05.4.09.83.08,1.25-.01.51.04,1.01.03,1.52,0,.51-.32,1.01-.32,1.52,0,.51.03,1.01.03,1.52,0,.51.44,1.01.45,1.51,0,.51.01,1.01.01,1.52,0,.51-.09,1.01-.1,1.52,0,.49-.32.98-.33,1.48-.01.49.11.99.1,1.48-.01.49,0,.99-.02,1.48-.01.49.16.99.15,1.49-.02.49-.12.98-.13,1.48-.02.49-.28.98-.3,1.47-.02.49.28,1,.26,1.49-.02.49-.07.99-.09,1.48-.03.49-.05.85-.08,1.34.5.12.84.27,1.33.23.51-.04,1.02-.21,1.5-.2.48.01.96-.02,1.44-.01.48,0,.96.16,1.43.16.48,0,.96-.23,1.44-.23.48,0,.95.41,1.43.42.48,0,.96-.01,1.44-.01.48,0,.96-.1,1.44-.1.48,0,.96.17,1.44.17.48,0,.96-.41,1.44-.41.48,0,.96.28,1.44.28.48,0,.96.01,1.44.02.48,0,.96.15,1.44.16.48,0,.96-.25,1.44-.25.48,0,.95.31,1.43.32.48.01.97-.41,1.45-.4.48.01.95.43,1.43.44.48.01.97-.17,1.44-.15.48.02.95.24,1.43.26.48.02.97-.11,1.45-.08.48.03.97-.21,1.45-.18.56.03,1.04.18,1.43.19.54.02,1.18,0,1.45.44.27.45.34,1.2.16,1.66-.16.42-.7.74-1.36.83-.46.06-.93.15-1.41.18-.47.03-.95-.03-1.42-.02-.47,0-.94.18-1.42.17-.47-.01-.94-.23-1.41-.25-.47-.02-.95.02-1.42-.01-.47-.03-.94-.12-1.41-.16-.48-.03-.96.15-1.43.12-.47-.03-.94-.04-1.4-.06-.48-.02-.94-.22-1.4-.22-.49,0-.99-.23-1.48-.24s-.99.07-1.48.07c-.49,0-.99-.13-1.48-.13s-.99.47-1.48.47c-.5,0-.99-.29-1.48-.29-.5,0-.99-.1-1.48-.1-.5,0-.99.04-1.48.05-.5,0-.99.33-1.48.33-.5,0-.99-.41-1.49-.41-.49,0-.99.37-1.48.37-.5,0-.99-.17-1.48-.17-.5,0-.99.17-1.48.17s-1.07-.23-1.57-.23c-.05.49-.13,1.06-.18,1.54-.04.49-.08.97-.12,1.46-.03.49.2.99.17,1.48-.03.49-.09.97-.11,1.46-.02.49-.34.97-.35,1.45-.01.49.32.98.31,1.47,0,.49.05.97.04,1.46,0,.49-.43.97-.43,1.46,0,.49.43.98.43,1.46,0,.49-.33.98-.33,1.46,0,.49.38.97.38,1.46,0,.49-.48.98-.48,1.46,0,.49.24.98.24,1.46,0,.49-.11.95-.11,1.44-.24.55-.51.93-.92,1.1-.49.2-.93.02-1.34-.32-.33-.27-.67-.6-.74-1.23-.06-.48-.02-.97-.05-1.48-.03-.48.05-.98.04-1.48,0-.49-.2-.98-.19-1.49,0-.49.26-.98.28-1.48.01-.49,0-.99.02-1.48.02-.5-.08-1-.05-1.49.03-.5.11-.99.13-1.48.03-.5-.13-1.01-.1-1.5.03-.5.16-1,.18-1.48.02-.51-.2-1.01-.18-1.49.01-.42.19-.84.18-1.26-.01-.42-.03-.85-.03-1.27,0-.42.05-.84.08-1.26.03-.42.25-.87.34-1.28-.02-.14-.19-.41-.33-.44-.67-.15-.75.37-1.43.32-.68-.05-.67-.19-1.35-.24-.68-.05-.67-.16-1.35-.21-.68-.05-.68-.09-1.36-.14-.68-.05-.67-.19-1.35-.25-.68-.05-.7.12-1.38.07-.68-.05-.7.13-1.38.08-.68-.05-.68-.03-1.37-.08-.48-.03-.95.02-1.43,0-.48-.02-.95-.13-1.43-.13-.48,0-.96-.36-1.44-.35-.48,0-.96.07-1.44.08-.48.01-.96.17-1.44.19-.48.02-.95.21-1.43.23-.48.02-.97-.08-1.44-.06-.48.02-.96.07-1.44.09-.48.02-.97-.09-1.44-.08-.48.01-.96.31-1.44.31-.48,0-.97,0-1.44-.01-.48,0-.96-.34-1.44-.35-.48-.01-.97.27-1.45.24-.48-.03-.93-.48-1.4-.52-.23-.02-.74.17-1.18.05-.47-.13-1-.34-1.02-.65-.06-.71.36-1.01.66-1.32.31-.31.63-.54,1.28-.64.48,0,.95-.26,1.43-.26.48,0,.96.38,1.43.38.48,0,.96-.19,1.44-.19.48,0,.95-.23,1.43-.23.48,0,.96.31,1.43.31.48,0,.96-.35,1.43-.36.48,0,.96.03,1.43.03.48,0,.96.16,1.43.16.48,0,.96-.19,1.43-.19.48,0,.96.19,1.43.19.48,0,.95.25,1.43.25.48,0,.95.08,1.43.08.48,0,.96-.07,1.43-.06.48,0,.96-.23,1.44-.22.48.01.95.27,1.43.29.48.01.96-.1,1.44-.09.48.02.95.1,1.43.12.48.02.95.2,1.42.22.48.03.98-.35,1.45-.32.48.03.96.06,1.43.1.48.04.94.29,1.41.33.48.04,1.02.06,1.49.1.24-.69.12-.75.13-1.48.01-.73-.07-.73-.06-1.46.01-.73-.11-.73-.1-1.47.01-.73.21-.73.22-1.46.01-.73-.06-.73-.05-1.46.01-.73,0-.73.01-1.47.01-.73.07-.73.08-1.46.01-.73-.17-.74-.16-1.47.01-.73.15-.73.17-1.46.01-.73-.17-.73-.16-1.46.01-.73.06-.73.07-1.47.01-.73.14-.73.15-1.46.01-.73-.11-.74-.1-1.47.01-.73.16-.73.17-1.47.01-.73-.07-.73-.05-1.47.01-.73.08-.73.1-1.47.01-.74.18-.73.19-1.47.01-.74,0-.76-.24-1.46-.5.02-.97.23-1.47.23-.5,0-1.01-.33-1.51-.34-.5,0-1.01-.04-1.51-.05-.5,0-1.01-.04-1.51-.04-.5,0-1,.35-1.5.37-.48.02-.98-.04-1.49,0-.48.04-1-.14-1.51-.08-.49.05-.97.25-1.47.31-.49.06-1.02-.12-1.51-.06-.5.06-.96.46-1.45.51-.5.05-1.01.04-1.5.08-.51.04-1.01-.02-1.5,0-.51.03-1.01.15-1.49.15-.52,0-1.01-.13-1.49-.18-.68-.06-1.2-.18-1.45-.48-.34-.42-.34-1.08-.08-1.55.24-.42.78-.63,1.32-.72.5-.08,1.02,0,1.55-.05.51-.04,1-.43,1.53-.46.51-.02,1.04-.09,1.56-.1.52-.01,1.05.2,1.57.19.52-.01,1.05,0,1.56-.01.53-.02,1.06.08,1.57.05.52-.04,1.03-.23,1.56-.3.52-.07,1-.41,1.52-.48.52-.07,1.08.19,1.6.13.52-.06,1.04-.08,1.56-.11.47-.02.93-.24,1.4-.24.47,0,.93.23,1.4.24.47.01.94.02,1.41.03.47,0,.95-.16,1.42-.18.23-.67-.16-.72-.15-1.43,0-.71.19-.71.2-1.42,0-.71.08-.71.09-1.42,0-.71,0-.71,0-1.42,0-.71.16-.71.17-1.42,0-.71-.47-.72-.46-1.43,0-.71.21-.71.22-1.42,0-.71.12-.71.13-1.42,0-.71.15-.71.16-1.42,0-.71-.06-.71-.05-1.42,0-.71-.22-.71-.21-1.43,0-.71-.11-.71-.1-1.43,0-.71.41-.71.42-1.42,0-.71-.11-.71-.11-1.43,0-.71-.1-.72-.1-1.43,0-.71.58-.99.06-1.47-.55-.5-.78-.02-1.53.02q-.74.04-1.48.09c-.74.05-.72.36-1.46.4-.74.04-.75-.07-1.49-.02-.74.05-.74.11-1.48.16-.74.05-.76-.24-1.5-.2-.74.04-.72.4-1.46.44-.74.05-.76-.28-1.5-.27-.57-.07-1.06-.38-1.2-.93-.13-.55.25-1.06.62-1.41.2-.19.52-.5,1.16-.63.4-.08.9.05,1.41,0,.44-.05.88-.44,1.37-.47.46-.04.93-.09,1.41-.12.47-.03.94-.07,1.42-.1.48-.03.95-.06,1.41-.09.49-.03.98.19,1.42.16.51-.03.99-.08,1.41-.12.6-.06,1-.17,1.3-.26.11-.71.14-.71.11-1.42-.03-.72-.31-.7-.35-1.42-.03-.72.01-.72-.02-1.44-.03-.72.02-.72-.01-1.44-.03-.72.18-.73.15-1.44-.03-.72.04-.72,0-1.44-.03-.72-.26-.71-.3-1.42-.03-.72.14-.73.1-1.45-.03-.72-.27-.71-.31-1.43-.03-.72.16-.73-.06-1.42-.36.05-.76.2-1.29.26-.44.06-.93-.18-1.4-.17-.49.01-.94.1-1.36,0-.51-.11-.81-.33-1.06-.68-.22-.32-.32-.63-.21-1.21.1-.51.32-.98.86-1.15.43-.13.99,0,1.53-.03.5-.02,1.02-.17,1.5-.18.58,0,1.25.23,1.62.13.07-.37.13-1.07.06-1.68-.05-.49-.18-1.01-.2-1.52-.02-.56-.1-1.07.05-1.49.17-.49.46-.74,1.06-.82.51-.07.76.06,1.03.4.24.3.51.63.62,1.1.09.4.18.85.22,1.29.04.45.03.9.05,1.31.02.53.11.89.17,1.19"/></svg>